<svg width="69.1px" height="96.7px" viewBox="0 0 69.1 96.7" xmlns="http://www.w3.org/2000/svg" xmlns:xlink="http://www.w3.org/1999/xlink">
  <defs/>
  <g>
    <path stroke="none" fill="#000000" d="M46.45 58 L46.35 57.95 44.45 57.3 42.8 57.2 Q41.25 57.3 39.95 57.85 L38.9 58.35 Q37.7 59.05 37 59.8 36 60.85 35.55 61.85 L35.45 61.95 35.15 62.7 Q34.55 64.3 34.8 65.8 34.85 66.65 35.4 67.6 36.6 69.75 39.45 70.3 L39.6 70.3 41.85 70.45 Q43.55 70.2 45.2 69.3 L47.4 67.55 Q48.4 66.35 48.85 64.95 49.25 63.55 49.25 62.55 49.2 61.3 48.5 60 L48.05 59.35 47.45 58.7 46.45 58 M66.55 49.4 L67.7 52.35 68.6 55.95 68.8 57.1 69.15 60.85 Q69.2 63.65 68.85 66.7 L68.8 66.9 67.2 72.5 Q65.15 77.9 61.6 82.35 L59.65 84.55 56.65 87.3 55.8 87.95 54.3 89.1 48.9 92.15 44.95 93.75 44.25 94 43.7 94.2 39.35 95.5 34.5 96.4 33.25 96.6 30.55 96.7 28.9 96.7 25.05 96.25 Q22.25 95.75 20.3 94.95 13.8 92.45 10.05 86.55 8.7 84.75 7.9 82.9 6.85 80.6 6.15 77.5 L5.55 73.95 Q5.3 71.45 5.2 68.65 L5.25 64.65 Q5.35 62.1 5.75 58.45 L6.05 55.75 6.1 55.05 6.2 54.2 6.2 54.05 6.3 48.65 6.3 44.8 6.05 39.55 5.75 36 5.1 31.25 4.8 29.55 4.8 29.45 4.65 28.75 4.55 28.05 Q4.1 25.4 4 22.95 L4 18.9 Q4.1 17.1 4.45 15.5 4.9 13.2 5.8 11.3 7.1 8.55 9.55 6.7 L13.4 4.3 Q15 3.45 16.85 3.15 19.4 2.45 22.05 3.15 23.55 3.45 25.3 4.4 25.9 4.75 26.5 5.2 L28.8 7.2 30.5 9.7 Q31.9 12.25 32.7 15.4 L32.75 15.5 32.9 16.25 33 16.5 33.9 21.45 34 22.4 34.15 23.55 34.15 27.4 33.75 31.4 33.05 36.25 32.35 39.6 31.55 43.1 31.35 44.15 31.1 45.05 31.45 44.8 34.95 42.5 Q36.35 41.65 37.65 41.05 41.5 39.1 45.2 38.45 L48.25 38 49.65 38 52.15 38.1 52.25 38.1 52.45 38.15 Q56.3 38.8 59.4 40.8 61.05 41.75 62.4 43.2 L64.35 45.5 66.55 49.3 66.55 49.4"/>
    <path stroke="none" fill="#cc0066" d="M21.9 3.45 Q23 4.1 23.9 5.2 L15.55 13.2 6.4 4.9 Q8.3 3.5 10 2.65 L15.55 7.65 20.75 2.7 21.9 3.45"/>
    <path stroke="none" fill="#ffcc00" d="M13.15 1.55 L15.55 3.7 17.85 1.55 Q19.3 1.85 20.75 2.7 L15.55 7.65 10 2.65 Q11.55 1.8 13.15 1.55"/>
    <path stroke="none" fill="#ff66cc" d="M15.55 3.75 L13.15 1.55 Q15.6 0.95 17.85 1.55 L15.55 3.75"/>
    <path stroke="none" fill="#ff66cc" d="M27.55 12.9 L27.85 14.05 26.1 12.35 15.55 22.55 4.75 12.8 1.3 16.15 1.7 12.9 Q2.15 10.75 3 9.05 L4.75 7.3 15.55 17.1 25.5 7.55 Q26.7 9.75 27.55 12.9"/>
    <path stroke="none" fill="#66cccc" d="M4.75 7.3 L3 9.05 Q4.2 6.55 6.4 4.9 L15.55 13.25 23.9 5.2 25.5 7.55 15.55 17.1 4.75 7.3"/>
    <path stroke="none" fill="#cc0066" d="M26.1 16.3 L28.7 18.85 28.95 20.9 28.95 24.55 26.1 21.85 15.55 32 4.75 22.3 1.85 25.1 Q1.4 22.45 1.3 20.1 L4.75 16.7 15.55 26.5 26.1 16.3"/>
    <path stroke="none" fill="#ffcc00" d="M26.1 12.35 L27.85 14.05 28.7 18.8 26.1 16.25 15.55 26.45 4.75 16.7 1.3 20.1 1.3 16.15 4.75 12.75 15.55 22.55 26.1 12.35"/>
    <path stroke="none" fill="#ff66cc" d="M28.6 28.4 L27.85 33.25 25.8 31.25 15.2 41.45 4.45 31.65 3.05 33.05 2.4 28.2 4.45 26.15 15.2 35.95 25.8 25.75 28.6 28.4"/>
    <path stroke="none" fill="#66cccc" d="M26.1 21.85 L28.95 24.55 28.6 28.45 25.8 25.75 15.2 35.95 4.45 26.2 2.4 28.25 2.1 26.5 1.85 25.1 4.75 22.25 15.55 32 26.1 21.85"/>
    <path stroke="none" fill="#ffcc00" d="M27.85 33.25 L27.2 36.55 25.8 35.15 15.2 45.35 4.45 35.6 3.35 36.7 3.05 33.05 4.45 31.65 15.2 41.45 25.8 31.25 27.85 33.25"/>
    <path stroke="none" fill="#66cccc" d="M4.45 45.05 L3.6 45.9 3.6 42 4.45 41.15 15.2 50.9 25.8 40.75 26.15 41.1 25 45.4 15.2 54.8 4.45 45.05"/>
    <path stroke="none" fill="#ff66cc" d="M3.6 45.85 L4.45 45 15.2 54.8 25.05 45.35 25.95 44.7 35.55 53.85 34.35 54.5 32.15 56.15 25.85 50.05 15.2 60.25 4.45 50.5 3.5 51.5 3.6 45.85"/>
    <path stroke="none" fill="#cc0066" d="M27.2 36.6 L26.15 41.1 25.8 40.75 15.2 50.9 4.45 41.2 3.6 42 3.35 36.7 4.45 35.6 15.2 45.4 25.8 35.2 27.2 36.6"/>
    <path stroke="none" fill="#ffcc00" d="M15.2 60.3 L25.8 50.1 32.15 56.2 Q31.1 57.2 30.45 58.55 L25.8 54 15.2 64.2 4.45 54.45 3.05 55.85 3.35 53.1 3.45 51.55 4.45 50.5 15.2 60.3"/>
    <path stroke="none" fill="#66cccc" d="M2.5 65.85 L2.6 61.85 4.45 60 15.2 69.7 25.8 59.5 29.6 63.2 Q29.75 64.35 30.4 65.4 32 68.1 35.35 68.75 L35.4 68.75 36.8 70.1 38 68.9 Q39.95 68.65 41.85 67.6 43.4 66.75 44.4 65.55 45.55 64.2 46.1 62.5 46.55 61.1 46.6 59.75 L46.75 59.55 57.3 69.7 63.65 63.85 Q63.05 66.65 62.1 69.3 L57.25 73.75 46.7 63.6 36.7 74.15 25.75 63.55 15.15 73.75 4.4 63.95 2.5 65.85"/>
    <path stroke="none" fill="#cc0066" d="M15.2 64.2 L25.85 54 30.5 58.55 30.05 59.5 Q29.35 61.45 29.65 63.15 L25.85 59.5 15.2 69.7 4.45 59.95 2.6 61.85 Q2.7 58.95 3.1 55.8 L4.45 54.4 15.2 64.2"/>
    <path stroke="none" fill="#ff66cc" d="M41.5 36.9 L36.8 41.85 34.25 39.45 Q37.95 37.55 41.5 36.9"/>
    <path stroke="none" fill="#ffcc00" d="M36.8 41.8 L41.5 36.85 44.4 36.45 45.65 36.45 36.8 45.8 31.65 40.8 Q32.9 40 34.25 39.4 L36.8 41.8"/>
    <path stroke="none" fill="#cc0066" d="M45.7 36.45 L48.15 36.6 57.35 45.4 59.45 43.45 61.5 47.1 57.35 50.9 46.8 40.75 36.8 51.3 28.25 43.05 31.7 40.8 36.8 45.85 45.7 36.45"/>
    <path stroke="none" fill="#66cccc" d="M38.75 53.2 Q37.1 53.25 35.55 53.9 L25.95 44.75 Q27.1 43.85 28.25 43.05 L36.8 51.3 46.75 40.75 57.35 50.9 61.5 47.1 62.6 50 57.35 54.8 46.75 44.6 38.75 53.2"/>
    <path stroke="none" fill="#ffcc00" d="M63.95 58.15 L57.3 64.2 46.75 54.1 45.1 55.85 44.4 55.05 43 54.1 46.75 50.1 57.3 60.3 63.65 54.5 63.95 58.15"/>
    <path stroke="none" fill="#ff66cc" d="M63.7 54.5 L57.35 60.3 46.8 50.1 43.05 54.1 Q42 53.55 40.8 53.3 L38.75 53.15 46.8 44.6 57.35 54.8 62.6 49.95 63.5 53.45 63.7 54.5"/>
    <path stroke="none" fill="#ffcc00" d="M59.45 43.5 L57.3 45.4 48.15 36.6 48.35 36.6 Q51.95 37.25 54.8 39.05 L57.3 41.5 57.55 41.3 59.45 43.5"/>
    <path stroke="none" fill="#ff66cc" d="M57.6 41.3 L57.35 41.45 54.8 39.05 57.6 41.3"/>
    <path stroke="none" fill="#cc0066" d="M57.35 64.25 L64 58.15 Q64.05 61.05 63.7 63.8 L63.7 63.9 57.35 69.75 46.8 59.6 46.6 59.75 Q46.5 58.15 45.7 56.65 L45.15 55.85 46.8 54.1 57.35 64.25"/>
    <path stroke="none" fill="#ff66cc" d="M25.75 69.1 L15.1 79.3 4.35 69.55 2.85 71.05 Q2.6 68.6 2.5 65.85 L4.35 63.95 15.1 73.75 25.75 63.55 36.65 74.15 46.7 63.6 57.25 73.75 62.05 69.3 Q60.05 74.6 56.7 78.75 L46.7 69.1 36.65 79.65 25.75 69.1"/>
    <path stroke="none" fill="#ffcc00" d="M25.75 73 L15.15 83.2 4.4 73.45 3.45 74.4 2.9 71.05 4.4 69.5 15.15 79.3 25.75 69.1 36.7 79.65 46.7 69.1 56.75 78.75 54.85 80.85 46.7 73 36.7 83.65 25.75 73"/>
    <path stroke="none" fill="#66cccc" d="M15.1 88.7 L25.75 78.5 36.65 89.1 46.7 78.55 51.85 83.55 49.65 85.25 46.7 82.4 39.25 90.25 35.15 91.5 25.75 82.35 16.8 91 Q10.7 88.65 7.15 83.05 5.95 81.5 5.1 79.6 L15.1 88.7"/>
    <path stroke="none" fill="#cc0066" d="M15.15 83.25 L25.8 73.05 36.7 83.65 46.7 73.05 54.85 80.9 51.9 83.6 46.7 78.6 36.7 89.15 25.8 78.55 15.15 88.75 5.15 79.65 Q4.05 77.25 3.45 74.45 L4.4 73.45 15.15 83.25"/>
    <path stroke="none" fill="#ff66cc" d="M46.7 82.45 L49.7 85.3 44.45 88.25 40.65 89.8 39.3 90.3 46.7 82.45"/>
    <path stroke="none" fill="#cc0066" d="M35.4 68.75 L38 68.95 36.8 70.15 35.4 68.75"/>
    <path stroke="none" fill="#ffcc00" d="M21.3 92.25 L25.75 87.95 30.4 92.4 29.15 92.6 26.6 92.65 25.75 91.85 25 92.65 21.3 92.25"/>
    <path stroke="none" fill="#ff66cc" d="M25.8 87.95 L21.3 92.25 16.85 91.05 25.8 82.4 35.2 91.5 30.45 92.4 25.8 87.95"/>
    <path stroke="none" fill="#cc0066" d="M25 92.65 L25.8 91.85 26.65 92.65 25 92.65"/>
    <path stroke="none" fill="#cc0066" d="M26.3 13.15 Q25.6 10.35 24.4 8.15 L22.9 5.95 21.25 4.5 21.15 4.45 20.15 3.8 Q18.7 3 17.6 2.8 L17.5 2.75 Q15.55 2.2 13.45 2.75 11.9 3.05 10.55 3.75 9.15 4.4 7.1 5.9 5.15 7.35 4.1 9.55 3.35 11.2 2.95 13.15 L2.55 16.25 2.55 20.05 Q2.65 22.35 3.05 24.9 L3.15 25.45 3.3 26.25 3.6 28.1 4.3 32.95 4.6 36.65 4.85 41.95 4.85 45.85 4.75 51.15 4.7 51.55 4.7 51.65 4.65 52.4 4.6 53.25 4.3 55.9 Q3.9 59.5 3.8 61.9 L3.75 65.75 Q3.85 68.5 4.1 70.9 4.3 72.6 4.65 74.15 5.25 77 6.25 79.05 6.9 80.7 8.15 82.25 L8.2 82.35 Q11.5 87.6 17.25 89.85 L21.5 91 25 91.4 26.6 91.4 29.05 91.3 30.2 91.15 34.85 90.25 Q37.05 89.75 38.85 89.1 L39.5 88.85 40.1 88.65 43.85 87.1 Q46.75 85.7 48.95 84.25 L50.3 83.2 51.1 82.6 53.95 80 55.75 77.95 Q59 73.85 60.9 68.85 L62.4 63.7 62.4 63.6 Q62.75 60.75 62.7 58.15 L62.4 54.6 62.25 53.7 61.35 50.3 60.3 47.6 Q59.3 45.5 58.35 44.15 L56.65 42.15 Q55.5 40.9 54.15 40.1 51.45 38.4 48.2 37.8 L48.15 37.8 47.95 37.8 45.75 37.7 45.5 37.7 44.55 37.7 41.75 38.1 Q38.35 38.7 34.8 40.5 33.55 41.05 32.35 41.85 L28.9 44.05 26.7 45.7 26.55 45.8 25.8 46.35 24.35 46.4 Q23.6 45.9 23.8 45.05 L24.95 40.75 25.2 39.7 25.95 36.3 26 36.2 26.6 33.05 27.35 28.25 27.7 24.5 27.7 20.95 27.55 19.95 27.45 18.95 26.65 14.3 26.55 14.1 26.3 13.15 M28.95 13.4 L29.05 13.7 29.95 18.65 30.05 19.6 30.2 20.75 30.2 24.6 29.8 28.6 29.1 33.45 28.45 36.7 28.4 36.8 27.65 40.3 27.4 41.35 27.15 42.25 27.5 42 31 39.7 Q32.4 38.85 33.7 38.25 37.55 36.3 41.25 35.65 L44.3 35.2 45.7 35.2 48.2 35.3 48.3 35.3 48.5 35.35 Q52.35 36 55.45 38 57.1 38.95 58.45 40.4 L60.4 42.7 62.6 46.5 62.6 46.6 63.75 49.55 64.65 53.15 64.85 54.25 65.2 58.05 Q65.25 60.85 64.9 63.9 L64.85 64.1 63.25 69.7 Q61.2 75.1 57.65 79.55 L55.7 81.75 52.7 84.5 51.85 85.15 50.35 86.3 Q47.95 87.9 44.95 89.35 L41 90.95 40.3 91.2 39.75 91.4 35.4 92.7 30.55 93.6 29.3 93.8 26.6 93.9 24.95 93.9 21.1 93.45 16.35 92.15 Q9.85 89.65 6.1 83.75 4.75 81.95 3.95 80.1 2.9 77.8 2.2 74.7 L1.6 71.15 Q1.35 68.65 1.25 65.85 L1.3 61.85 Q1.4 59.3 1.8 55.65 L2.1 52.95 2.15 52.25 2.2 51.45 2.25 51.1 2.35 45.85 2.35 42 2.1 36.75 1.8 33.2 1.15 28.4 0.85 26.75 0.85 26.65 0.7 25.95 0.6 25.25 Q0.15 22.6 0.05 20.15 L0.05 16.1 Q0.15 14.3 0.5 12.7 0.95 10.35 1.85 8.5 3.15 5.75 5.6 3.9 7.9 2.25 9.45 1.5 11.05 0.65 12.9 0.35 15.45 -0.35 18.1 0.35 19.6 0.6 21.35 1.6 L22.55 2.4 Q23.75 3.1 24.85 4.4 L26.55 6.9 Q27.95 9.45 28.75 12.6 L28.8 12.7 28.95 13.4 M47.25 62.9 Q46.65 64.8 45.35 66.35 44.1 67.8 42.45 68.7 40.45 69.8 38.15 70.15 L37.3 70.2 35.25 69.95 35.1 69.95 Q31.1 69.2 29.3 66.05 28.45 64.6 28.35 63.25 28.05 61.25 28.85 59.05 L29.35 57.95 Q30 56.55 31.25 55.3 32.2 54.25 33.7 53.4 34.35 53 35 52.75 36.8 52 38.65 51.9 L41 52.05 Q42.55 52.4 43.55 52.95 L45.25 54.15 46.1 55.05 46.7 55.95 Q47.7 57.8 47.8 59.65 47.8 61.2 47.25 62.9 M38.8 54.4 Q37.3 54.5 36 55.05 L34.9 55.55 33.05 57 Q32.05 58.05 31.6 59.05 L31.5 59.15 31.2 59.9 Q30.6 61.5 30.85 63 30.9 63.85 31.45 64.8 32.7 66.95 35.5 67.5 L35.65 67.5 37.9 67.65 Q39.6 67.4 41.25 66.5 L43.45 64.75 Q44.45 63.55 44.9 62.15 45.3 60.75 45.3 59.75 45.25 58.5 44.55 57.2 L44.1 56.55 43.5 55.9 42.5 55.2 42.4 55.15 40.5 54.5 38.8 54.4"/>
  </g>
</svg>