<svg width="66px" height="68.45px" viewBox="0 0 66 68.45" xmlns="http://www.w3.org/2000/svg" xmlns:xlink="http://www.w3.org/1999/xlink">
  <defs/>
  <g>
    <path stroke="none" fill="#000000" d="M41 2.85 L44.65 2.75 49.1 3 Q56.25 3.9 60.65 6.9 L60.8 7.1 Q63 8.9 64.3 11.1 64.95 12.1 65.4 13.55 66.1 15.55 66 17.8 L66 17.9 65.65 20.3 Q65 22.4 63.95 23.85 62.5 25.9 59.9 27.05 L56.75 28 52.05 28.15 51.75 28.1 51.7 28.1 51.5 28.05 43.75 27.65 Q39.7 28 37.4 29.8 36.45 30.5 35.75 31.45 33.95 34.2 34.25 37.25 L34.5 39 Q34.75 40.05 35.15 40.8 L35.2 40.9 Q36.15 43.35 38.15 44.25 L38.65 44.4 43.35 44.6 43.5 44.6 43.6 44.55 43.85 44.5 45.15 44.2 47.45 43.6 47.9 43.5 49.25 43.25 49.35 43.2 54.9 43.45 Q58.35 44.45 60.15 47.95 L61.2 50.65 Q61.9 53.35 61.2 55.95 60.5 58.05 59 60.05 L58.95 60.15 57.75 61.45 55.55 63.3 55.35 63.5 53.3 65 Q50.25 66.85 46.5 67.7 L42.8 68.25 42.2 68.35 41.75 68.4 41.55 68.4 39.1 68.45 36.45 68.4 35.85 68.4 30.45 67.7 26.4 66.8 Q22.6 65.6 19.45 63.9 L15.6 61.55 14.05 60.35 Q12.15 58.75 10.3 56.45 8.65 54.35 7.4 52.05 6.3 49.9 5.4 47.2 L4.85 45.15 Q4.35 43.15 4.1 40.55 L4 39.65 Q3.85 37.55 3.95 34.6 L4 33.4 4.05 33.05 4.15 32.55 Q4.35 30 4.95 27.75 7 19.3 13.35 12.9 L13.75 12.55 Q14.9 11.45 16.4 10.45 21.6 6.6 28.65 4.65 L29.6 4.4 30.15 4.25 34.05 3.4 39.35 2.9 41 2.85"/>
    <path stroke="none" fill="#ffe327" d="M33.25 13.05 Q32.7 14.45 30.85 14.2 28.55 13.55 26.2 11.05 27.75 15 26.95 17.05 26 18.5 23.95 18.05 21.7 17.4 22.3 14.85 22.95 13.1 24.9 11.35 L25.35 11 24.8 11.15 Q17.45 13.2 18.1 9.05 18.25 7.7 19.25 7.1 21.05 5.85 24.7 9.15 L24.7 9.25 25.5 10 25.1 8.85 25.1 8.8 Q24.1 4.5 25.15 3.3 25.65 2.9 26.2 2.85 L26.25 2.75 26.45 2.7 Q27.5 2.45 28.65 3.3 L28.8 3.35 Q30.15 4.35 29.3 6.55 28.6 8.2 26.5 10.05 30.6 8.8 32.4 9.35 33.8 10 33.6 11.75 L33.25 13.05"/>
    <path stroke="none" fill="#ffe327" d="M12.65 13.85 Q14.25 12.55 16.15 13.85 L16.3 13.9 Q17.65 14.85 16.8 17.1 16.05 18.7 13.95 20.6 18.1 19.35 19.85 19.85 21.3 20.55 21.05 22.3 L20.7 23.55 Q20.15 25 18.3 24.7 16 24.1 13.65 21.55 15.2 25.55 14.4 27.6 13.45 29.05 11.4 28.55 9.15 27.9 9.75 25.35 10.45 23.6 12.35 21.85 L12.8 21.5 12.25 21.7 Q4.9 23.75 5.55 19.65 5.8 18.2 6.7 17.65 8.6 16.3 12.15 19.75 L12.2 19.75 12.95 20.55 12.6 19.4 12.6 19.35 Q11.5 15 12.65 13.85"/>
    <path stroke="none" fill="#ffe327" d="M29.3 58.25 Q27.05 57.55 27.7 55.05 28.35 53.25 30.3 51.55 L30.75 51.15 30.2 51.35 Q22.85 53.4 23.5 49.3 23.65 47.85 24.65 47.3 26.45 45.95 30.1 49.4 L30.9 50.2 30.5 49.05 Q29.5 44.65 30.55 43.5 32 42.45 33.6 43.25 L34.05 43.5 34.2 43.55 Q35.55 44.55 34.75 46.75 34 48.4 31.9 50.25 36 49 37.75 49.55 L37.9 49.65 Q39 50.25 39 51.55 L39 51.95 38.65 53.2 Q38.1 54.65 36.25 54.35 33.95 53.75 31.6 51.25 33.1 55.2 32.35 57.25 31.35 58.7 29.3 58.25"/>
    <path stroke="none" fill="#ffe327" d="M42.45 4.5 Q46.6 3.25 48.35 3.8 49.75 4.4 49.55 6.15 L49.2 7.45 Q48.65 8.9 46.8 8.6 44.5 7.95 42.15 5.5 43.7 9.45 42.9 11.5 41.95 12.95 39.9 12.4 37.65 11.8 38.3 9.2 38.95 7.5 40.85 5.7 L41.3 5.35 40.75 5.55 Q33.4 7.65 34.05 3.5 34.3 2 35.2 1.55 L35.5 1.35 37.15 1.3 Q38.85 1.75 41.45 4.4 L41.05 3.25 40.7 1.25 45.05 1.5 Q44.25 2.85 42.45 4.5"/>
    <path stroke="none" fill="#ffe327" d="M13.2 8.75 L12.9 9.6 Q12.35 10.9 10.65 10.8 L13.2 8.75"/>
    <path stroke="none" fill="#ffe327" d="M22.15 28.7 Q23.8 27.3 25.65 28.7 L25.8 28.75 Q27.15 29.7 26.3 31.95 25.5 33.5 23.45 35.45 27.3 34.3 29.1 34.65 L29.4 36.6 30.15 38.65 Q29.5 39.8 27.75 39.55 25.5 38.95 23.2 36.4 24.7 40.35 23.95 42.45 22.95 43.85 20.9 43.4 18.6 42.75 19.3 40.2 19.95 38.45 21.9 36.7 L22.3 36.35 21.8 36.5 Q14.45 38.6 15.1 34.4 15.3 33.05 16.2 32.5 18.05 31.1 21.7 34.55 L21.7 34.6 22.45 35.3 22.1 34.25 22.1 34.15 Q21 29.85 22.15 28.7"/>
    <path stroke="none" fill="#ffe327" d="M12.1 39.9 Q13.55 40.5 13.3 42.25 L12.95 43.5 Q12.4 44.95 10.5 44.65 8.2 44.05 5.95 41.5 7.45 45.5 6.65 47.55 5.95 48.7 4.6 48.7 3.45 46.45 2.65 44.05 3.4 42.95 4.6 41.8 L5 41.45 2.2 42.15 Q1.65 39.95 1.4 37.55 2.75 38.05 4.4 39.7 L5.2 40.5 4.8 39.35 4.8 39.3 Q3.75 34.95 4.9 33.8 6.45 32.5 8.4 33.8 L8.5 33.85 Q9.9 34.8 9 37.05 8.25 38.65 6.15 40.55 10.35 39.25 12.1 39.9"/>
    <path stroke="none" fill="#ffe327" d="M33.35 17.75 Q34.9 16.4 36.8 17.7 L36.95 17.8 Q38.4 18.75 37.5 21 36.75 22.55 34.65 24.5 38 23.5 39.7 23.65 35.45 24 32.85 25.95 L33.05 25.7 33.5 25.4 32.95 25.6 Q25.6 27.65 26.25 23.45 26.5 22.1 27.4 21.55 29.2 20.2 32.85 23.6 L33.65 24.4 33.25 23.25 Q32.25 18.9 33.35 17.75"/>
    <path stroke="none" fill="#ffe327" d="M50.65 12.55 Q52.25 11.25 54.15 12.55 L54.3 12.65 Q55.65 13.6 54.75 15.85 54 17.4 51.95 19.35 56.1 18 57.85 18.65 58.95 19.15 59.05 20.3 57.65 22.2 55.5 23.15 53.55 22.4 51.65 20.3 52.45 22.4 52.65 24 L48.25 24.1 47.85 24.05 Q48.45 22.3 50.35 20.55 L50.8 20.2 50.25 20.4 Q42.95 22.45 43.6 18.35 43.8 16.9 44.7 16.35 46.6 15 50.1 18.45 L50.95 19.25 50.6 18.1 50.55 18.1 Q49.5 13.7 50.65 12.55"/>
    <path stroke="none" fill="#ffe327" d="M43.95 52.75 Q44.15 51.3 45.05 50.75 46.9 49.4 50.55 52.85 L51.3 53.65 50.95 52.5 Q49.85 48.1 51 46.95 52.65 45.65 54.5 46.95 L54.65 47 Q55.35 47.5 55.5 48.3 55.6 49.1 55.15 50.2 54.35 51.8 52.3 53.7 L56.1 52.85 Q55.45 54.75 54.1 56.55 L52.05 54.65 52.95 57.8 50.65 59.75 48.7 61.2 Q47.65 60.25 48.15 58.45 48.8 56.7 50.75 54.95 L51.15 54.6 50.65 54.8 Q43.3 56.85 43.95 52.75"/>
    <path stroke="none" fill="#ffe327" d="M48.25 42.95 Q47 42.6 45.65 41.7 L50.65 41.85 Q50.05 43.25 48.25 42.95"/>
    <path stroke="none" fill="#ffe327" d="M44.4 45.85 Q43.4 47.3 41.3 46.85 39.1 46.2 39.75 43.65 L40 43.05 41.7 42.6 44.25 41.95 Q44.9 44.4 44.4 45.85"/>
    <path stroke="none" fill="#ffe327" d="M38.75 64.25 Q37.85 60.25 38.9 59.2 40.5 57.9 42.4 59.2 L42.5 59.25 Q43.85 60.2 43.05 62.45 L42.35 63.7 38.75 64.25"/>
    <path stroke="none" fill="#ffe327" d="M7.4 52.95 Q7.65 52.3 8.2 52.05 10 50.7 13.6 54.1 L14.45 54.9 14.05 53.75 Q13.05 49.35 14.1 48.2 15.7 46.9 17.6 48.2 L17.7 48.3 Q19.1 49.25 18.25 51.5 17.5 53.05 15.45 55 19.55 53.65 21.3 54.3 22.75 54.9 22.55 56.65 L22.2 57.95 Q21.65 59.35 19.75 59.1 17.5 58.45 15.1 55.95 16.05 58.35 16.15 60.05 L12.4 57.8 13.85 56.2 14.3 55.85 10.9 56.65 Q8.9 54.9 7.4 52.95"/>
    <path stroke="none" fill="#ffe327" d="M22.85 62.8 Q24.35 61.8 26.05 63 L26.15 63.1 26.75 63.7 22.85 62.8"/>
    <path stroke="none" fill="#ffe327" d="M32.95 63 Q34.55 61.85 37.6 64.4 L32.6 64.4 31.95 64.4 Q32.25 63.45 32.95 63"/>
    <path stroke="none" fill="#6699ff" d="M38.55 63.05 L38.6 63.05 42.05 62.5 43.15 62.25 Q43.8 60.2 42.5 59.25 L42.4 59.2 Q40.5 57.95 38.9 59.2 38.05 60.1 38.55 63.05 M32.95 63 L32.8 63.15 35.85 63.2 Q34.05 62.2 32.95 63 M45.05 50.75 Q44.15 51.3 43.95 52.75 43.35 56.9 50.65 54.8 L51.15 54.6 50.8 55 Q48.8 56.75 48.2 58.5 47.9 59.45 48.05 60.15 L49.8 58.85 50.05 58.65 52.05 56.95 52.6 56.4 52.05 54.7 53.1 55.75 53.15 55.75 54.65 53.1 52.3 53.7 Q54.3 51.85 55.15 50.3 L54.9 48.5 54.25 46.8 Q52.5 45.8 51 46.95 49.85 48.1 50.95 52.5 L51.3 53.65 50.55 52.85 Q46.95 49.4 45.05 50.75 M48.25 43 L49.5 42.9 47.7 42.8 48.25 43 M44.5 43.15 L44.1 43.25 42.05 43.8 40.5 44.2 40.35 44.25 39.8 44.35 39.6 44.35 Q39.4 46.3 41.3 46.85 43.4 47.3 44.4 45.85 44.75 44.9 44.55 43.4 L44.5 43.15 M24.65 47.3 Q23.65 47.85 23.5 49.3 22.85 53.4 30.2 51.35 L30.75 51.2 30.3 51.55 Q28.35 53.3 27.7 55.05 27.05 57.6 29.3 58.25 31.4 58.7 32.35 57.3 33.1 55.2 31.6 51.25 33.95 53.75 36.25 54.4 38.1 54.65 38.65 53.25 L39 51.95 39 51.55 Q39 50.3 37.9 49.7 L37.75 49.55 Q36 49 31.9 50.3 34 48.4 34.7 46.8 35.3 45.2 34.8 44.25 L33.9 44.05 33.4 43.85 33.3 43.8 31.85 42.95 Q31.3 43.05 30.75 43.4 L30.55 43.5 Q29.5 44.65 30.5 49.05 L30.9 50.2 30.1 49.45 Q26.45 46 24.65 47.3 M8.25 52 L8.35 52.15 11.7 55.65 11.75 55.7 12.55 56.3 14.25 55.85 13.85 56.2 13.25 56.8 15.9 58.5 15.1 55.95 Q17.5 58.4 19.75 59.1 21.65 59.35 22.15 57.95 L22.55 56.6 Q22.7 54.9 21.25 54.25 19.5 53.65 15.4 55 17.5 53.05 18.25 51.5 19.05 49.25 17.7 48.3 L17.6 48.15 Q15.7 46.9 14.1 48.15 13 49.3 14 53.7 L14.45 54.85 13.6 54.1 Q10.05 50.75 8.25 52 M2.7 30.2 L2.7 30.3 Q4.3 30.45 4.8 29.15 L5.15 27.85 Q5.3 26.1 3.95 25.45 L3.55 25.4 3.45 25.65 Q2.9 27.7 2.7 30.05 L2.7 30.2 M13.3 42.25 Q13.55 40.55 12.1 39.9 10.35 39.3 6.2 40.55 8.3 38.7 9 37.05 9.9 34.85 8.55 33.85 L8.4 33.8 Q6.5 32.55 4.9 33.8 3.75 34.95 4.8 39.3 L4.8 39.35 5.2 40.5 4.45 39.7 2.75 38.3 Q3 40.25 3.4 41.9 L5.05 41.45 4.6 41.85 3.65 42.85 3.85 43.7 Q4.7 46.15 5.7 48.15 L5.85 48.4 6.65 47.55 Q7.3 46 6.55 43.4 L5.95 41.55 8 43.4 Q9.25 44.3 10.5 44.65 12.4 44.95 12.95 43.5 L13 43.4 13.3 42.25 M26.65 22.4 L26.25 23.5 Q25.75 27 30.8 26.1 31.35 25.55 32 25.1 L33.45 24.15 32.85 23.6 31.4 22.4 Q28.9 20.55 27.4 21.55 26.95 21.85 26.65 22.4 M25.65 28.65 Q23.8 27.3 22.15 28.65 21 29.85 22.1 34.15 L22.1 34.25 22.45 35.3 21.7 34.6 21.7 34.55 Q18.1 31.1 16.2 32.5 15.3 33.05 15.1 34.4 14.5 38.6 21.8 36.5 L22.3 36.35 21.95 36.7 Q19.95 38.45 19.35 40.2 18.65 42.75 20.9 43.4 21.9 43.65 22.7 43.4 L24 42.45 Q24.7 40.35 23.2 36.4 25.5 38.9 27.8 39.55 L29.15 39.45 29 39.15 28.2 36.85 27.85 34.75 27.85 34.55 Q26.15 34.6 23.45 35.45 25.5 33.5 26.35 31.95 27.15 29.7 25.8 28.75 L25.65 28.65 M16.2 13.85 Q14.25 12.55 12.7 13.85 11.55 15 12.65 19.3 L12.65 19.4 13 20.55 12.2 19.75 12.15 19.75 Q8.7 16.35 6.8 17.6 6.1 18.7 5.55 19.85 5.15 23.7 12.25 21.65 L12.8 21.5 12.4 21.85 11.85 22.4 Q10.35 23.9 9.8 25.35 9.15 27.9 11.45 28.55 13.5 29 14.45 27.6 15.15 25.75 13.95 22.4 L13.65 21.55 14.5 22.4 Q16.4 24.2 18.3 24.7 20.2 25 20.7 23.55 L21.1 22.4 21.1 22.3 Q21.35 20.55 19.9 19.85 18.15 19.3 13.95 20.6 16.05 18.7 16.8 17.1 17.7 14.85 16.3 13.9 L16.2 13.85 M55.65 6.55 Q55.5 8.8 57.85 9 56.95 7.7 55.65 6.55 M44.7 16.35 Q43.8 16.9 43.6 18.35 42.95 22.5 50.25 20.4 L50.8 20.2 50.35 20.6 48.75 22.4 48.4 22.9 48.5 22.9 52.4 22.8 51.6 20.35 54 22.4 55 22.05 Q56.95 21.15 58.05 19.6 L58.4 19.05 57.85 18.65 Q56.1 18 51.9 19.4 54 17.45 54.75 15.9 55.65 13.65 54.3 12.7 L54.15 12.55 Q52.25 11.3 50.65 12.55 49.5 13.75 50.55 18.1 L50.6 18.1 Q50.7 18.75 50.95 19.25 L50.1 18.45 Q46.6 15 44.7 16.35 M36.85 17.7 Q34.95 16.4 33.4 17.75 32.4 18.75 33.1 22.4 L33.25 23.25 33.55 24.05 36.05 23.05 36.65 22.4 37.5 21 Q38.4 18.8 36.95 17.8 L36.85 17.7 M33.25 13.05 L33.65 11.8 Q33.8 10.05 32.45 9.35 30.6 8.8 26.5 10.1 28.6 8.2 29.35 6.6 30.15 4.4 28.9 3.45 L26.8 3.9 26.4 4.1 25.6 4.25 25.45 4.3 24.7 4.5 Q24.45 6 25.15 8.8 L25.15 8.9 25.55 10 24.7 9.25 24.7 9.2 Q21.1 5.85 19.25 7.15 18.3 7.7 18.15 9.05 17.5 13.25 24.85 11.15 L25.35 11 24.95 11.35 Q22.95 13.1 22.35 14.85 21.7 17.4 24 18.05 26.05 18.5 27 17.1 27.8 15 26.2 11.05 28.6 13.55 30.85 14.2 32.75 14.45 33.25 13.05 M40.75 0.05 L45.2 0.3 Q52.35 1.15 56.75 4.15 L56.95 4.35 Q59.1 6.15 60.4 8.35 61.05 9.35 61.5 10.8 62.2 12.8 62.1 15.05 L62.1 15.15 61.75 17.55 Q61.1 19.65 60.05 21.1 58.6 23.15 56 24.3 L52.85 25.25 48.15 25.4 47.85 25.35 47.8 25.35 47.6 25.3 39.85 24.9 Q35.8 25.25 33.5 27.05 32.55 27.75 31.85 28.7 30.05 31.45 30.35 34.5 30.4 35.5 30.6 36.25 30.85 37.3 31.25 38.05 L31.3 38.15 Q32.25 40.6 34.25 41.5 L34.75 41.65 39.45 41.85 39.6 41.85 39.7 41.8 39.95 41.75 41.25 41.45 43.55 40.85 44 40.75 45.3 40.5 45.45 40.45 51 40.7 Q54.45 41.7 56.25 45.2 L57.3 47.9 Q58 50.6 57.3 53.2 56.6 55.35 55.1 57.3 L53.85 58.7 51.6 60.6 51.45 60.75 49.4 62.25 Q46.4 64.1 42.6 64.95 L38.9 65.5 38.3 65.6 37.8 65.65 37.65 65.65 35.2 65.7 32.55 65.65 31.95 65.65 26.55 64.95 22.5 64.05 Q18.7 62.85 15.55 61.15 L11.7 58.8 10.25 57.7 10.15 57.6 Q8.25 56 6.4 53.7 4.75 51.6 3.5 49.3 2.4 47.15 1.5 44.45 L0.95 42.4 Q0.45 40.35 0.2 37.8 L0.1 36.9 Q-0.05 34.8 0.05 31.85 L0.15 30.65 0.15 30.3 0.25 29.8 Q0.45 27.25 1.05 25 3.1 16.55 9.45 10.15 L9.85 9.8 12.5 7.7 Q17.7 3.85 24.75 1.9 L25.75 1.65 26.25 1.5 30.15 0.65 35.45 0.15 37.1 0.1 Q38.9 -0.05 40.75 0.05 M40.9 2.55 L41.05 3.25 41.5 4.4 39.35 2.5 37.2 2.6 35.55 2.65 34.3 2.7 34.05 3.5 Q33.45 7.65 40.75 5.55 L41.3 5.4 40.9 5.75 Q38.95 7.55 38.3 9.25 37.65 11.85 39.9 12.45 41.95 13 42.95 11.55 43.7 9.45 42.15 5.5 44.5 7.95 46.8 8.65 48.7 8.9 49.2 7.5 L49.55 6.15 Q49.75 4.45 48.35 3.8 46.65 3.25 42.45 4.55 L44.2 2.7 40.9 2.55"/>
  </g>
</svg>