<svg width="67.15px" height="100px" viewBox="0 0 67.15 100" xmlns="http://www.w3.org/2000/svg" xmlns:xlink="http://www.w3.org/1999/xlink">
  <defs/>
  <g>
    <path stroke="none" fill="#000000" d="M26.3 64.9 Q25.35 65.8 24.9 66.95 24.45 68 24.5 69 L24.5 69.15 24.55 69.45 Q24.6 70.95 25.65 72.25 L25.75 72.4 26.25 72.9 26.45 73.15 26.7 73.35 26.95 73.5 Q29 75.15 32.25 75.15 L32.55 75.15 34.55 74.95 36.3 74.45 38.25 73.25 38.35 73.2 38.65 72.95 39.05 72.55 Q40.3 71.05 40.35 69.05 40 66.85 39.05 65.45 L38.3 64.65 38.2 64.55 Q37.25 63.7 36 63.2 L35.25 62.95 34.95 62.9 34.15 62.7 32.25 62.55 32.1 62.55 31.25 62.65 31.1 62.7 Q28.85 62.9 27.05 64.25 L26.8 64.4 26.3 64.9 M58.45 9.1 L60.2 12.3 61.85 16.6 61.9 16.8 62.2 17.45 62.3 17.75 62.4 18 62.5 18.5 62.8 19.4 62.95 19.75 63.1 20.3 63.45 21.4 64.1 23.65 64.15 23.95 64.25 24.15 64.4 25 64.65 26.05 65 27.4 65 27.55 65.25 29 65.65 31.2 65.9 32.85 65.95 32.95 Q66.65 38.4 66.85 44.45 L66.9 45.6 66.95 46.75 67.05 48.6 67.1 50.4 67.15 54 67.15 54.15 67.1 55.7 66.9 60.05 66.35 66.05 65.95 69.2 65.4 72.5 65.3 72.8 64.45 76.5 64.1 78.05 63.8 79.05 63.55 80 63.15 81.15 61.35 86.3 61.05 86.8 60.85 87.1 60.45 87.75 58.55 90.45 55.55 93.5 Q48.85 99.1 38 100 L35.55 100.1 32.35 100.1 24.05 99.05 23.85 99 23.5 98.9 21.35 98.15 18.35 96.85 15.75 95.4 13.25 93.55 10.2 90.7 9.9 90.3 9.8 90.15 9.6 89.9 8.9 88.9 8.7 88.6 6.85 85.3 6.25 84 5.2 81.4 5.2 81.3 4.7 79.45 Q4.1 77.35 4 75.4 3.85 74.05 3.95 72.25 L4.15 69.4 4.3 68.25 4.35 68 4.4 67.8 Q4.95 65.75 6.15 62.85 L6.2 62.7 6.25 62.55 6.7 61.6 7.75 59.55 8.9 57.85 Q10.2 55.9 11.8 54.5 14.45 51.9 18.35 50.25 20.75 49.2 23.5 48.75 L32.65 48.25 38.3 48.85 38.9 48.75 Q39.15 48.85 39.45 47.9 L39.45 47.15 39.45 46.95 39.45 46.55 39.35 45.95 39.05 43.7 38.9 42.6 38.85 42.2 38.8 41.95 38.8 41.8 38.65 41.25 38.55 40.5 38.3 39.3 37.95 37.4 37.45 35.25 37.3 34.5 36.8 32.35 36.6 31.6 36.6 31.3 36.1 28.45 36 27.8 35.8 25.85 35.75 25.15 35.7 24.6 35.6 22.5 35.55 21 Q35.55 19.7 35.7 18.45 36 15.3 36.7 13.1 37.75 9.7 39.85 7.3 41.2 5.8 42.9 4.7 L44.6 3.75 Q44.85 3.6 45.2 3.5 L46.5 2.95 46.8 2.85 51.15 3.05 52.9 3.7 53.6 4.1 54.6 4.75 Q56.45 6.1 57.9 8.15 L58.45 9.1"/>
    <path stroke="none" fill="#66cc33" d="M55.2 10.05 L55.2 11.8 Q55.2 14.7 52.3 14.7 L39.8 14.7 Q36.9 14.7 36.9 11.8 L36.9 5.35 Q38.1 4 39.7 2.95 L39.7 9.3 Q39.7 11.4 41.8 11.4 L50.85 11.4 Q52.95 11.4 52.95 9.3 L52.95 6.1 53.5 6.95 55.2 10.05"/>
    <path stroke="none" fill="#ffffff" d="M48.05 7.6 Q49 7.6 49 6.6 L49 2.45 49 2.35 49.9 2.95 49.9 7.2 Q49.9 8.5 48.6 8.5 L43.05 8.5 Q41.7 8.5 41.7 7.2 L41.7 1.85 Q42.3 1.55 43.05 1.3 L46.95 1.5 43.95 1.5 Q42.95 1.45 42.95 2.45 L42.95 6.6 Q42.95 7.6 43.95 7.6 L48.05 7.6"/>
    <path stroke="none" fill="#ff9900" d="M48.6 8.5 Q49.95 8.5 49.9 7.2 L49.9 2.95 Q51.55 4.1 52.95 6.05 L52.95 9.25 Q52.9 11.35 50.8 11.4 L41.75 11.4 Q39.65 11.4 39.65 9.25 L39.65 2.95 41.3 2.05 41.7 1.85 41.7 7.2 Q41.7 8.5 43.05 8.5 L48.6 8.5"/>
    <path stroke="none" fill="#cc3399" d="M49.05 6.65 Q49.05 7.6 48.05 7.6 L43.95 7.6 Q43 7.6 43 6.65 L43 2.45 Q43 1.5 43.95 1.5 L47 1.5 48.5 2.05 49.05 2.35 49.05 2.45 49.05 6.65"/>
    <path stroke="none" fill="#663300" d="M36.1 81.25 Q35.2 81.55 35.2 82.85 L35.2 90 Q35.2 91.3 36.1 91.6 L36.9 91.7 44.15 91.7 Q45.85 91.75 45.85 90 L45.85 82.85 Q45.85 81.15 44.15 81.15 L36.9 81.15 36.1 81.25 M32.5 59.25 L32.5 53.2 Q32.5 51.65 31.45 51.05 30.85 50.7 29.9 50.65 L18.95 50.65 Q16.35 50.7 16.4 53.2 L16.4 64.2 16.5 65.05 Q16.9 66.75 18.95 66.75 L19.4 66.75 Q19.5 68.65 20.8 70.25 L19.35 70.25 Q16.8 70.25 16.8 72.75 L16.8 83.75 Q16.8 86.3 19.35 86.3 L30.3 86.3 Q32.85 86.3 32.85 83.75 L32.85 72.8 35.15 71.45 35.65 71 36.05 70.6 36.05 74.2 Q36.05 75.75 37.55 75.7 L44.1 75.7 Q45.6 75.75 45.6 74.2 L45.6 67.75 Q45.6 66.2 44.1 66.2 L37.7 66.2 Q37.35 63.65 36.15 61.95 L36.95 62.1 45 62.1 Q46.8 62.05 46.8 60.15 L46.8 52.2 Q46.8 50.3 45 50.3 L36.95 50.3 Q35.05 50.3 35.1 52.2 L35.1 60.15 Q35.05 60.55 35.15 60.8 34.05 59.8 32.5 59.25 M42.95 16.95 Q41.55 16.95 41.55 18.35 L41.55 24.25 Q41.55 25.6 42.95 25.65 L48.85 25.65 Q50.2 25.6 50.25 24.25 L50.25 18.35 Q50.2 16.95 48.85 16.95 L42.95 16.95 M55.2 11.8 L55.2 10.05 56.75 14.15 57.15 15.2 55.85 15.2 Q54.3 15.15 54.3 16.7 L54.3 23.45 Q54.3 25 55.85 24.95 L59.9 24.95 60.5 28.6 49.2 28.6 Q46.15 28.6 46.15 31.65 L46.15 44.65 Q46.15 47.65 49.2 47.65 L61.95 47.65 62 51.2 51.6 51.2 Q50.3 51.25 49.55 51.9 48.75 52.6 48.75 54.1 L48.75 66.6 Q48.75 69.5 51.6 69.5 L60.25 69.5 59.35 73.45 51.85 73.45 Q49.2 73.4 49.2 76 L49.2 87.25 Q49.2 89.3 50.85 89.7 44.4 95.15 34 95.95 L34 93.75 Q34 90.7 30.9 90.7 L17.95 90.7 Q15.4 90.7 15 92.9 L12.5 91.55 12.5 79.6 Q12.5 76.4 9.4 76.4 L2 76.4 Q1.45 74.45 1.35 72.5 L10.15 72.5 Q12.8 72.5 12.8 69.8 L12.8 58.45 Q12.8 55.8 10.15 55.8 L6 55.8 Q7.2 54.05 8.7 52.65 L11.8 52.65 Q14.95 52.65 14.95 49.45 L14.95 48.6 Q17.2 47.65 19.8 47.15 L20.1 47.15 27.35 47.15 Q28.25 47.15 28.7 46.7 L34.3 47.3 35.25 47.15 41.3 47.15 Q43 47.2 43 45.5 L43 38.3 Q43 36.6 41.3 36.6 L35.7 36.6 35.25 34.3 36.15 34.3 Q38.8 34.35 38.75 31.7 L38.75 20.8 Q38.8 18.2 36.15 18.2 L32.9 18.2 Q32.9 16.9 33.05 15.75 34 15.45 34 14.3 L34 10.65 Q35 7.5 36.9 5.35 L36.9 11.8 Q36.9 14.7 39.8 14.7 L52.3 14.7 Q55.2 14.7 55.2 11.8"/>
    <path stroke="none" fill="#cc3399" d="M41.55 24.25 L41.55 18.35 Q41.55 16.95 42.95 16.95 L48.85 16.95 Q50.2 16.95 50.25 18.35 L50.25 24.25 Q50.2 25.6 48.85 25.65 L42.95 25.65 Q41.55 25.65 41.55 24.25 M42.95 18.75 L42.95 23.05 Q42.9 24.05 43.9 24.05 L48.2 24.05 Q49.2 24.05 49.2 23.05 L49.2 18.75 Q49.2 17.75 48.2 17.75 L43.9 17.75 Q42.9 17.75 42.95 18.75"/>
    <path stroke="none" fill="#ff9900" d="M43.85 19.45 L43.85 22.1 Q43.85 22.7 44.45 22.7 L47.05 22.7 Q47.7 22.7 47.75 22.1 L47.75 19.45 Q47.7 18.8 47.05 18.85 L44.45 18.85 Q43.85 18.8 43.85 19.45 M43.85 24.1 Q42.9 24.05 42.9 23.05 L42.9 18.8 Q42.9 17.75 43.85 17.75 L48.15 17.75 Q49.15 17.75 49.2 18.8 L49.2 23.05 Q49.15 24.05 48.15 24.1 L43.85 24.1"/>
    <path stroke="none" fill="#996633" d="M43.9 22.1 L43.9 19.45 Q43.9 18.85 44.5 18.85 L47.1 18.85 Q47.75 18.85 47.75 19.45 L47.75 22.1 Q47.75 22.75 47.1 22.7 L44.5 22.7 Q43.9 22.75 43.9 22.1 M44.95 22.3 L46.85 22.3 Q47.3 22.3 47.35 21.8 L47.35 19.9 Q47.35 19.4 46.85 19.4 L44.95 19.4 Q44.45 19.4 44.45 19.9 L44.45 21.8 Q44.45 22.25 44.95 22.3"/>
    <path stroke="none" fill="#ffffff" d="M44.45 19.85 Q44.45 19.35 44.95 19.35 L46.85 19.35 Q47.35 19.35 47.35 19.85 L47.35 21.75 Q47.35 22.25 46.85 22.25 L44.95 22.25 Q44.45 22.25 44.45 21.75 L44.45 19.85"/>
    <path stroke="none" fill="#ff9900" d="M29.85 50.7 Q30.85 50.7 31.45 51.05 32.45 51.7 32.45 53.25 L32.45 59.25 31.55 58.95 31.25 58.9 30.45 58.75 30.45 54 Q30.5 52.15 28.65 52.15 L20.7 52.15 Q18.8 52.15 18.85 54 L18.85 62 Q18.8 63.3 19.8 63.75 19.3 64.9 19.3 66.2 L19.35 66.75 18.95 66.75 Q16.85 66.75 16.45 65.05 L16.35 64.2 16.35 53.25 Q16.35 50.7 18.95 50.7 L29.85 50.7"/>
    <path stroke="none" fill="#ff9900" d="M36.85 52.75 L36.85 58.6 Q36.85 59.95 38.2 59.95 L44 59.95 Q45.35 59.95 45.35 58.6 L45.35 52.75 Q45.35 51.4 44 51.45 L38.2 51.45 Q36.85 51.45 36.85 52.75 M35.05 60.2 L35.05 52.2 Q35.05 50.35 36.9 50.35 L44.95 50.35 Q46.75 50.35 46.75 52.2 L46.75 60.2 Q46.75 62.1 44.95 62.1 L36.9 62.1 36.15 62 35.1 60.85 35.05 60.2"/>
    <path stroke="none" fill="#cc3399" d="M43.4 53.65 Q43.45 52.8 42.65 52.8 L39.05 52.8 Q38.25 52.8 38.25 53.65 L38.25 57.25 Q38.25 58.05 39.05 58.05 L42.65 58.05 Q43.45 58.05 43.4 57.25 L43.4 53.65 M44 51.4 Q45.4 51.4 45.4 52.75 L45.4 58.6 Q45.4 59.95 44 59.9 L38.25 59.9 Q36.9 59.9 36.9 58.6 L36.9 52.75 Q36.9 51.4 38.25 51.4 L44 51.4"/>
    <path stroke="none" fill="#66cc33" d="M42.6 52.8 Q43.4 52.8 43.4 53.65 L43.4 57.25 Q43.4 58.05 42.6 58.05 L39.05 58.05 Q38.2 58.05 38.2 57.25 L38.2 53.65 Q38.2 52.8 39.05 52.8 L42.6 52.8 M42.9 54.2 Q42.9 53.55 42.25 53.6 L39.6 53.6 Q38.95 53.55 39 54.2 L39 56.85 Q38.95 57.5 39.6 57.5 L42.25 57.5 Q42.9 57.5 42.9 56.85 L42.9 54.2"/>
    <path stroke="none" fill="#3399cc" d="M39 54.2 Q39 53.6 39.6 53.6 L42.25 53.6 Q42.9 53.6 42.9 54.2 L42.9 56.85 Q42.9 57.5 42.25 57.5 L39.6 57.5 Q39 57.5 39 56.85 L39 54.2"/>
    <path stroke="none" fill="#996633" d="M27.85 55.25 L27.85 58.6 27.05 58.7 27.05 56 Q27.05 55.2 26.25 55.2 L22.65 55.2 Q21.75 55.2 21.75 56 L21.75 59.7 Q21.75 60.35 22.4 60.5 L22 60.8 21.5 61.25 Q20.65 61.1 20.65 60.2 L20.65 55.25 Q20.65 54.15 21.8 54.15 L26.7 54.15 Q27.85 54.15 27.85 55.25"/>
    <path stroke="none" fill="#cc3399" d="M27.05 56 L27.05 58.65 Q24.45 58.9 22.4 60.45 21.75 60.35 21.75 59.7 L21.75 56 Q21.75 55.15 22.65 55.15 L26.3 55.15 Q27.1 55.15 27.05 56"/>
    <path stroke="none" fill="#3399cc" d="M28.7 52.15 Q30.5 52.15 30.5 54 L30.5 58.75 28.5 58.55 27.85 58.6 27.85 55.25 Q27.85 54.15 26.7 54.15 L21.8 54.15 Q20.65 54.15 20.65 55.25 L20.65 60.2 Q20.7 61.1 21.5 61.25 20.35 62.35 19.8 63.75 18.85 63.3 18.85 62 L18.85 54 Q18.85 52.15 20.7 52.15 L28.7 52.15"/>
    <path stroke="none" fill="#ff9900" d="M32.45 59.25 L32.45 59.3 31.9 59.05 32.45 59.25"/>
    <path stroke="none" fill="#3399cc" d="M37.5 73 Q37.5 74.05 38.6 74.05 L43.3 74.05 Q44.35 74.05 44.4 73 L44.4 68.2 Q44.4 67.1 43.3 67.1 L38.6 67.1 Q37.5 67.1 37.5 68.2 L37.5 73 M36.05 74.25 L36.05 70.6 Q37.7 68.7 37.7 66.2 L44.1 66.2 Q45.6 66.2 45.6 67.75 L45.6 74.25 Q45.6 75.75 44.1 75.75 L37.55 75.75 Q36.05 75.75 36.05 74.25"/>
    <path stroke="none" fill="#66cc33" d="M38.55 71.8 Q38.55 72.55 39.2 72.55 L42.1 72.55 Q42.8 72.55 42.8 71.8 L42.8 68.9 Q42.8 68.3 42.1 68.3 L39.2 68.3 Q38.55 68.3 38.55 68.9 L38.55 71.8 M37.5 73 L37.5 68.2 Q37.5 67.1 38.6 67.1 L43.3 67.1 Q44.35 67.1 44.4 68.2 L44.4 73 Q44.4 74 43.3 74.05 L38.6 74.05 Q37.5 74.05 37.5 73"/>
    <path stroke="none" fill="#996633" d="M39.7 68.9 Q39.15 68.9 39.15 69.35 L39.15 71.55 Q39.15 72.05 39.7 72.05 L41.8 72.05 Q42.35 72.05 42.35 71.55 L42.35 69.35 Q42.35 68.9 41.8 68.9 L39.7 68.9 M38.5 68.9 Q38.5 68.3 39.15 68.3 L42.05 68.3 Q42.8 68.3 42.8 68.9 L42.8 71.8 Q42.8 72.5 42.05 72.55 L39.15 72.55 Q38.5 72.5 38.5 71.8 L38.5 68.9"/>
    <path stroke="none" fill="#ff9900" d="M41.85 68.9 Q42.4 68.9 42.4 69.3 L42.4 71.55 Q42.4 72 41.85 72.05 L39.75 72.05 Q39.2 72 39.2 71.55 L39.2 69.3 Q39.2 68.9 39.75 68.9 L41.85 68.9"/>
    <path stroke="none" fill="#cc3399" d="M16.8 72.8 Q16.8 70.25 19.35 70.25 L20.8 70.25 21.45 71.05 22.05 71.6 22.25 71.7 21.1 71.7 Q19.25 71.7 19.3 73.55 L19.3 81.55 Q19.25 83.4 21.1 83.4 L29.05 83.4 Q30.85 83.4 30.85 81.55 L30.85 73.55 30.85 73.4 32.85 72.85 32.85 83.75 Q32.85 86.3 30.3 86.3 L19.35 86.3 Q16.8 86.3 16.8 83.75 L16.8 72.8"/>
    <path stroke="none" fill="#66cc33" d="M27.05 73.7 L22.15 73.7 Q21 73.7 21 74.8 L21 79.75 Q21 80.8 22.15 80.8 L27.05 80.8 Q28.2 80.8 28.2 79.75 L28.2 74.8 Q28.2 73.7 27.05 73.7 M30.85 73.4 L30.85 73.55 30.85 81.55 Q30.85 83.4 29.05 83.4 L21.05 83.4 Q19.25 83.4 19.25 81.55 L19.25 73.55 Q19.25 71.7 21.05 71.7 L22.2 71.7 Q24.85 73.75 28.65 73.65 L30.85 73.4"/>
    <path stroke="none" fill="#3399cc" d="M27.45 79.25 L27.45 75.55 Q27.45 74.75 26.6 74.75 L23 74.75 Q22.15 74.75 22.15 75.55 L22.15 79.25 Q22.15 80.05 23 80.05 L26.6 80.05 Q27.45 80.05 27.45 79.25 M22.15 73.7 L27.05 73.7 Q28.2 73.7 28.2 74.8 L28.2 79.75 Q28.2 80.85 27.05 80.8 L22.15 80.8 Q21 80.8 21 79.75 L21 74.8 Q21 73.7 22.15 73.7"/>
    <path stroke="none" fill="#ffffff" d="M23 74.7 L26.6 74.7 Q27.45 74.7 27.45 75.55 L27.45 79.25 Q27.45 80.05 26.6 80 L23 80 Q22.15 80 22.15 79.25 L22.15 75.55 Q22.15 74.7 23 74.7"/>
    <path stroke="none" fill="#996633" d="M36.85 83.3 L36.85 88.55 Q36.85 89.85 38.05 89.85 L43.3 89.85 Q44.5 89.85 44.5 88.55 L44.5 83.3 Q44.5 82.05 43.3 82.05 L38.05 82.05 Q36.85 82.05 36.85 83.3 M35.2 90 L35.2 82.85 Q35.2 81.55 36.1 81.25 L36.9 81.15 44.15 81.15 Q45.85 81.15 45.8 82.85 L45.8 90 Q45.85 91.75 44.15 91.7 L36.9 91.7 36.1 91.6 Q35.2 91.3 35.2 90"/>
    <path stroke="none" fill="#66cc33" d="M41.95 83.45 L38.75 83.45 Q38 83.45 38 84.15 L38 87.4 Q38 88.2 38.75 88.2 L41.95 88.2 Q42.75 88.2 42.7 87.4 L42.7 84.15 Q42.7 83.4 41.95 83.45 M36.8 88.6 L36.8 83.35 Q36.8 82.1 38 82.1 L43.25 82.1 Q44.45 82.1 44.45 83.35 L44.45 88.6 Q44.45 89.9 43.25 89.9 L38 89.9 Q36.8 89.9 36.8 88.6"/>
    <path stroke="none" fill="#cc3399" d="M38.75 83.4 L41.95 83.4 Q42.75 83.4 42.75 84.1 L42.75 87.4 Q42.8 88.2 41.95 88.15 L38.75 88.15 Q38.05 88.2 38.05 87.4 L38.05 84.1 Q38.05 83.4 38.75 83.4 M41.75 84.1 L39.3 84.1 Q38.8 84.15 38.75 84.6 L38.75 87.1 Q38.8 87.65 39.3 87.6 L41.75 87.6 Q42.2 87.6 42.2 87.1 L42.2 84.6 Q42.2 84.15 41.75 84.1"/>
    <path stroke="none" fill="#3399cc" d="M42.2 87.1 Q42.2 87.65 41.7 87.65 L39.3 87.65 Q38.75 87.65 38.75 87.1 L38.75 84.65 Q38.75 84.15 39.3 84.15 L41.7 84.15 Q42.15 84.15 42.2 84.65 L42.2 87.1"/>
    <path stroke="none" fill="#996633" d="M57.15 15.2 L57.4 16.05 56.9 16.05 Q55.75 16.05 55.75 17.2 L55.75 22.1 Q55.75 23.25 56.9 23.25 L59.45 23.25 59.85 25 55.8 25 Q54.25 25 54.25 23.45 L54.25 16.7 Q54.25 15.2 55.8 15.2 L57.15 15.2"/>
    <path stroke="none" fill="#cc3399" d="M57.6 18.4 Q57.6 17.95 58 17.9 L59 21.15 58.15 21.15 Q57.6 21.15 57.6 20.6 L57.6 18.4"/>
    <path stroke="none" fill="#66cc33" d="M57.55 17.25 L57.8 17.25 58 17.9 Q57.55 17.95 57.55 18.4 L57.55 20.65 Q57.55 21.2 58.1 21.15 L58.95 21.15 59.05 21.65 57.55 21.65 Q56.9 21.65 56.9 21 L56.9 17.9 Q56.9 17.25 57.55 17.25"/>
    <path stroke="none" fill="#3399cc" d="M57.8 17.25 L57.55 17.25 Q56.9 17.3 56.9 17.9 L56.9 21 Q56.9 21.65 57.55 21.65 L59.05 21.65 59.45 23.25 56.9 23.25 Q55.75 23.25 55.75 22.1 L55.75 17.2 Q55.75 16.05 56.9 16.05 L57.4 16.05 57.75 17.2 57.8 17.25"/>
    <path stroke="none" fill="#ffffff" d="M52.55 32.65 Q51.1 32.65 51.1 34.05 L51.1 39.9 Q51.1 41.15 52.55 41.15 L58.35 41.15 Q59.7 41.15 59.7 39.9 L59.7 34.05 Q59.7 32.65 58.35 32.65 L52.55 32.65 M49 42.05 L49 32.6 Q49 30.35 51.25 30.35 L60.65 30.35 60.75 30.35 Q61.5 35.65 61.65 41.7 L61.8 44.05 60.65 44.25 51.25 44.25 Q49 44.25 49 42.05"/>
    <path stroke="none" fill="#cc3399" d="M53.55 33.9 Q52.55 33.95 52.55 34.95 L52.55 39.3 Q52.55 40.25 53.55 40.25 L57.85 40.25 Q58.85 40.25 58.8 39.3 L58.8 34.95 Q58.85 33.95 57.85 33.9 L53.55 33.9 M51.15 34.05 Q51.15 32.65 52.6 32.65 L58.4 32.65 Q59.75 32.65 59.7 34.05 L59.7 39.9 Q59.75 41.15 58.4 41.15 L52.6 41.15 Q51.15 41.15 51.15 39.9 L51.15 34.05"/>
    <path stroke="none" fill="#66cc33" d="M53.55 33.9 L57.8 33.9 Q58.8 33.9 58.8 34.95 L58.8 39.25 Q58.8 40.25 57.8 40.25 L53.55 40.25 Q52.5 40.25 52.5 39.25 L52.5 34.95 Q52.5 33.9 53.55 33.9"/>
    <path stroke="none" fill="#ff9900" d="M51.25 30.35 Q49 30.35 49 32.6 L49 42.05 Q49 44.25 51.25 44.25 L60.65 44.25 61.8 44.05 61.9 47.65 49.2 47.65 Q46.1 47.65 46.1 44.65 L46.1 31.7 Q46.1 28.6 49.2 28.6 L60.45 28.6 60.75 30.35 60.65 30.35 51.25 30.35"/>
    <path stroke="none" fill="#ff9900" d="M33.95 10.7 L33.95 14.3 Q34 15.5 33 15.75 33.25 12.95 33.95 10.7"/>
    <path stroke="none" fill="#cc3399" d="M32.95 19.65 L34.95 19.65 Q36.75 19.65 36.75 21.5 L36.75 29.5 Q36.75 31.4 34.95 31.4 L34.6 31.4 33.9 28.5 33.9 28.4 34.1 27.7 34.1 22.75 Q34.1 21.65 33 21.65 L32.95 19.65"/>
    <path stroke="none" fill="#66cc33" d="M38.75 20.85 L38.75 31.75 Q38.75 34.4 36.15 34.35 L35.25 34.35 34.6 31.45 34.95 31.45 Q36.75 31.45 36.75 29.55 L36.75 21.55 Q36.75 19.7 34.95 19.7 L32.95 19.7 32.9 18.25 36.15 18.25 Q38.75 18.25 38.75 20.85"/>
    <path stroke="none" fill="#3399cc" d="M33.15 22.95 L33.35 23.55 33.35 24.8 33.15 22.95"/>
    <path stroke="none" fill="#3399cc" d="M41.7 44.05 L41.7 38.8 Q41.7 37.55 40.5 37.55 L35.85 37.55 35.65 36.65 41.3 36.65 Q43 36.65 43 38.35 L43 45.5 Q43 47.25 41.3 47.2 L35.25 47.2 Q36.5 46.85 36.75 45.35 L40.5 45.35 Q41.7 45.35 41.7 44.05"/>
    <path stroke="none" fill="#3399cc" d="M39.4 42.55 L39.4 40.1 Q39.4 39.6 38.9 39.55 L36.45 39.55 Q36.35 39.55 36.2 39.65 L36.1 38.85 39.2 38.85 Q40 38.85 39.95 39.65 L39.95 42.85 Q39.95 43.65 39.2 43.6 L36.75 43.6 36.7 43.05 38.9 43.05 Q39.4 43.05 39.4 42.55"/>
    <path stroke="none" fill="#66cc33" d="M41.7 38.8 L41.7 44.05 Q41.7 45.35 40.5 45.35 L36.75 45.35 36.75 44.2 36.75 43.65 39.15 43.65 Q39.95 43.65 39.95 42.85 L39.95 39.65 Q39.95 38.85 39.15 38.9 L36.1 38.9 35.85 37.55 40.5 37.55 Q41.7 37.55 41.7 38.8"/>
    <path stroke="none" fill="#ff9900" d="M38.85 39.6 Q39.4 39.6 39.4 40.15 L39.4 42.55 Q39.4 43.1 38.85 43.1 L36.7 43.1 36.2 39.65 36.45 39.6 38.85 39.6"/>
    <path stroke="none" fill="#3399cc" d="M19.8 47.2 L28.65 46.75 Q28.25 47.2 27.35 47.2 L20.1 47.2 19.8 47.2"/>
    <path stroke="none" fill="#ffffff" d="M62 51.25 L61.9 52.95 53.6 52.95 Q51.5 52.95 51.5 55.05 L51.5 64.1 Q51.5 66.2 53.6 66.2 L60.75 66.2 60.25 69.55 51.6 69.55 Q48.7 69.55 48.7 66.65 L48.7 54.15 Q48.7 52.65 49.55 51.9 50.25 51.25 51.6 51.25 L62 51.25"/>
    <path stroke="none" fill="#996633" d="M61.95 52.95 L61.75 57.25 61.75 56.45 Q61.75 55.1 60.45 55.1 L54.9 55.1 Q53.55 55.1 53.55 56.45 L53.55 62.05 Q53.55 63.35 54.9 63.35 L60.45 63.35 61.2 63.15 60.8 66.25 53.6 66.25 Q51.5 66.2 51.5 64.1 L51.5 55.05 Q51.5 52.95 53.6 52.95 L61.95 52.95"/>
    <path stroke="none" fill="#3399cc" d="M60.85 57.25 Q60.85 56.3 59.9 56.3 L55.8 56.3 Q54.8 56.3 54.8 57.25 L54.8 61.45 Q54.8 62.4 55.8 62.4 L59.9 62.4 Q60.85 62.4 60.85 61.45 L60.85 57.25 M61.75 56.45 L61.75 57.2 61.2 63.15 60.45 63.3 54.9 63.3 Q53.55 63.3 53.55 62.05 L53.55 56.45 Q53.55 55.1 54.9 55.1 L60.45 55.1 Q61.75 55.1 61.75 56.45"/>
    <path stroke="none" fill="#cc3399" d="M59.85 56.3 Q60.85 56.3 60.85 57.25 L60.85 61.45 Q60.85 62.4 59.85 62.4 L55.75 62.4 Q54.8 62.4 54.8 61.45 L54.8 57.25 Q54.8 56.3 55.75 56.3 L59.85 56.3"/>
    <path stroke="none" fill="#996633" d="M53.6 74.95 Q51.7 74.95 51.65 76.85 L51.65 85 Q51.7 86.9 53.6 86.9 L53.65 86.9 50.85 89.75 Q49.2 89.35 49.2 87.25 L49.2 76.05 Q49.2 73.45 51.85 73.45 L59.35 73.45 59 74.95 53.6 74.95"/>
    <path stroke="none" fill="#cc3399" d="M55.55 78 Q54.7 78 54.7 78.9 L54.7 82.65 Q54.7 83.45 55.55 83.5 L56 83.5 55.55 84.25 54.75 84.25 Q53.55 84.25 53.55 83.2 L53.55 78.1 Q53.55 76.9 54.75 76.9 L58.45 76.9 58.1 78 55.55 78"/>
    <path stroke="none" fill="#3399cc" d="M54.75 76.9 Q53.55 76.9 53.5 78.1 L53.5 83.15 Q53.55 84.25 54.75 84.25 L55.5 84.25 53.65 86.9 53.6 86.9 Q51.65 86.9 51.65 84.95 L51.65 76.8 Q51.65 74.95 53.6 74.95 L58.95 74.95 58.4 76.9 54.75 76.9"/>
    <path stroke="none" fill="#66cc33" d="M55.55 77.95 L58.1 77.95 56.25 83 56.05 83.45 55.55 83.45 Q54.7 83.45 54.7 82.6 L54.7 78.85 Q54.7 77.95 55.55 77.95"/>
    <path stroke="none" fill="#3399cc" d="M17.85 94.2 Q18.1 92.45 19.95 92.45 L29.4 92.45 Q31.65 92.45 31.6 94.7 L31.6 96.05 29.2 96.05 28.4 96.05 Q28.35 94.75 27.1 94.75 L21.3 94.75 Q20.65 94.75 20.4 95.05 L20 94.9 17.85 94.2"/>
    <path stroke="none" fill="#66cc33" d="M30.95 90.7 Q34 90.7 34 93.8 L34 95.95 31.65 96.05 31.65 94.7 Q31.7 92.45 29.4 92.45 L20 92.45 Q18.15 92.45 17.9 94.2 L15 92.95 Q15.45 90.7 17.95 90.7 L30.95 90.7"/>
    <path stroke="none" fill="#ffffff" d="M20.4 95.05 Q20.65 94.75 21.3 94.75 L27.1 94.75 Q28.35 94.75 28.45 96.1 L20.4 95.05"/>
    <path stroke="none" fill="#66cc33" d="M11.8 52.7 L8.7 52.7 Q11.35 50.1 14.9 48.65 L14.9 49.5 Q14.95 52.7 11.8 52.7"/>
    <path stroke="none" fill="#ffffff" d="M2.6 66.05 Q1.8 66 1.7 65.4 2.35 63 3.4 60.55 L6.4 60.55 Q7.2 60.55 7.2 61.4 L7.2 65.2 Q7.2 66 6.4 66.05 L2.6 66.05"/>
    <path stroke="none" fill="#66cc33" d="M6.8 59.45 Q8 59.45 8.05 60.6 L8.05 65.65 Q8 66.85 6.8 66.8 L1.75 66.8 1.45 66.8 1.65 65.65 1.7 65.35 Q1.8 66 2.6 66.05 L6.4 66.05 Q7.2 66 7.2 65.2 L7.2 61.4 Q7.2 60.55 6.4 60.55 L3.4 60.55 3.45 60.4 3.85 59.45 6.8 59.45"/>
    <path stroke="none" fill="#cc3399" d="M8.85 57.4 Q10.75 57.4 10.8 59.35 L10.8 67.6 Q10.75 69.5 8.85 69.55 L1.25 69.55 1.45 66.8 1.75 66.8 6.8 66.8 Q8 66.85 8 65.65 L8 60.6 Q8 59.45 6.8 59.45 L3.85 59.45 4.95 57.4 8.85 57.4"/>
    <path stroke="none" fill="#3399cc" d="M10.15 55.8 Q12.8 55.8 12.8 58.45 L12.8 69.8 Q12.8 72.5 10.15 72.5 L1.35 72.5 1.3 69.5 8.9 69.5 Q10.8 69.5 10.85 67.55 L10.85 59.3 Q10.8 57.4 8.9 57.35 L4.95 57.35 6 55.8 10.15 55.8"/>
    <path stroke="none" fill="#cc3399" d="M4.05 81.95 L4.75 81.95 Q5.8 81.95 5.8 83.05 L5.8 85.1 4.05 81.95"/>
    <path stroke="none" fill="#66cc33" d="M4.8 81.95 L4.05 81.95 3.45 80.7 5.3 80.7 Q6.75 80.7 6.75 82.15 L6.75 86.5 5.8 85.1 5.8 83.05 Q5.8 81.95 4.8 81.95"/>
    <path stroke="none" fill="#996633" d="M6.8 86.45 L6.8 82.1 Q6.8 80.7 5.35 80.65 L3.45 80.65 2.5 78.2 7.8 78.2 Q10.1 78.2 10.1 80.55 L10.1 89.8 7.25 87.05 6.8 86.45"/>
    <path stroke="none" fill="#ff9900" d="M10.1 80.55 Q10.05 78.2 7.8 78.2 L2.5 78.2 2 76.4 9.35 76.4 Q12.5 76.4 12.5 79.6 L12.5 91.55 10.1 89.8 10.1 80.55"/>
    <path stroke="none" fill="#663300" d="M58.5 15.25 L58.6 15.75 58.9 16.65 59.05 16.95 59.1 17.1 59.2 17.55 59.55 18.65 60.2 20.9 60.25 21.2 60.35 21.4 60.5 22.15 60.7 23 60.75 23.3 61.1 24.65 61.15 24.8 61.35 26.25 61.75 28.45 62 30.15 Q62.8 35.65 62.95 41.7 L63 42.85 63.05 44 63.15 45.85 63.2 47.65 63.25 51.25 63.25 51.4 63.2 52.95 63 57.3 62.45 63.3 62.45 63.4 62.05 66.45 61.5 69.75 61.4 70.1 60.55 73.75 60.2 75.2 60.2 75.3 59.9 76.3 59.65 77.25 59.25 78.4 57.45 83.55 57.15 84.05 56.95 84.35 56.55 85 54.65 87.7 51.65 90.75 Q44.95 96.35 34.1 97.25 L31.65 97.35 28.45 97.35 20.15 96.3 19.95 96.25 19.6 96.15 17.45 95.4 14.45 94.1 11.85 92.65 9.35 90.85 6.35 87.95 6 87.55 5.9 87.4 5.7 87.15 5 86.15 4.8 85.85 Q3.7 84.2 2.95 82.55 L2.3 81.2 1.35 78.7 0.8 76.7 Q0.2 74.65 0.1 72.65 -0.05 71.3 0.05 69.5 L0.25 66.65 0.4 65.55 0.45 65.3 0.5 65.05 Q1.05 63 2.25 60.1 L2.3 59.95 2.4 59.8 2.8 58.85 3.85 56.9 Q4.35 55.95 5 55.1 6.35 53.15 7.9 51.75 10.55 49.15 14.45 47.5 16.8 46.45 19.6 46 L28.75 45.5 34.4 46.1 34.95 46 Q35.35 46.05 35.55 45.15 L35.55 44.4 35.55 44.2 35.55 43.8 35.45 43.2 35.15 40.9 35 39.85 34.95 39.45 34.9 39.2 34.9 39.05 34.75 38.5 34.65 37.75 34.4 36.5 34.05 34.65 33.55 32.5 33.4 31.75 32.9 29.55 32.7 28.85 32.7 28.55 32.2 25.55 32.1 25 31.9 23.1 31.85 22.4 31.8 21.85 31.75 19.75 31.65 18.25 31.8 15.7 Q32.1 12.55 32.8 10.3 33.85 6.95 35.95 4.55 37.3 3.05 39 1.95 L40.7 1 41.3 0.75 42.6 0.2 42.9 0.1 47.25 0.3 49 0.95 Q49.45 1.1 49.7 1.35 L50.7 2 Q52.55 3.35 54 5.4 L54.55 6.25 56.3 9.55 57.95 13.85 58.05 14.05 58.3 14.65 58.4 15 58.5 15.25 M57.15 19.4 L56.8 18.3 56.7 17.8 56.6 17.55 56.25 16.5 56.2 16.3 56.1 16.05 56 15.65 55.7 14.9 55.6 14.65 54.05 10.6 52.45 7.65 52.4 7.55 51.95 6.85 Q50.75 5.1 49.2 4 L48.4 3.45 48.1 3.25 47.95 3.2 46.7 2.75 43.35 2.55 42.2 3.05 42.1 3.1 41.85 3.2 40.3 4.05 Q38.95 4.95 37.85 6.2 36.1 8.2 35.2 11.1 34.55 13.1 34.3 15.9 34.15 17.05 34.15 18.25 L34.2 19.55 34.2 19.7 34.3 21.55 34.35 22.25 34.4 22.8 34.6 24.7 34.65 25.15 35.15 28.2 35.2 28.4 35.3 28.95 35.85 31.2 36 31.9 36.5 34.1 36.85 36.1 37.1 37.3 37.2 38 37.35 38.65 37.4 39.15 37.45 39.45 37.6 40.55 37.95 42.95 37.95 43.1 37.95 43.3 38.05 43.65 38.05 44.1 38 45.6 Q37.25 48.2 35.6 48.4 L35.5 48.45 34.1 48.55 28.65 48 20.05 48.45 Q17.55 48.9 15.45 49.8 11.95 51.25 9.6 53.6 8.2 54.8 7.05 56.55 L6.05 58.05 5 60.05 4.7 60.65 4.7 60.75 4.5 61.2 Q3.45 63.75 2.95 65.55 L2.85 66.1 2.7 67 Q2.55 68.3 2.55 69.55 2.45 71.2 2.6 72.4 2.7 74.25 3.2 76.1 L3.7 77.9 4.6 80.2 5.15 81.35 5.2 81.45 6.85 84.45 7.05 84.65 7.8 85.75 8.05 86.1 8.15 86.25 10.9 88.85 13.2 90.55 Q14.4 91.3 15.55 91.85 L18.35 93.1 20.45 93.75 20.55 93.8 20.8 93.9 28.5 94.85 31.65 94.85 33.85 94.75 Q43.95 93.95 50.05 88.8 L52.75 86.1 54.5 83.6 54.8 83.1 54.95 82.9 55.1 82.65 56.9 77.65 57.25 76.5 57.5 75.6 57.8 74.65 57.8 74.6 58.15 73.2 59 69.55 59.05 69.25 59.55 66.05 59.95 63.1 60 63 60.5 57.15 60.7 52.9 60.75 51.2 60.7 47.75 60.65 45.95 60.55 44.15 60.5 42.95 60.45 41.8 Q60.3 35.85 59.55 30.55 L59.25 28.75 58.9 26.7 58.65 25.3 58.3 23.85 58.25 23.55 58.05 22.75 57.9 22 57.8 21.7 57.8 21.5 57.15 19.4 M31.55 57.7 L31.85 57.75 32.95 58.15 Q34.65 58.7 35.95 59.9 36.75 60.55 37.2 61.3 38.5 63.2 38.9 66.05 L38.95 66.25 Q38.9 69.2 37 71.45 L36.5 71.95 35.9 72.5 Q34.75 73.4 33.35 74 L31.05 74.65 28.8 74.9 28.35 74.9 Q24.25 74.9 21.5 72.75 L21.15 72.5 20.95 72.25 20.55 71.95 19.75 71 Q18.3 69.2 18.15 67 L18.1 66.25 Q18.1 64.75 18.65 63.3 19.35 61.6 20.65 60.35 L21.1 59.9 21.8 59.4 Q24.1 57.75 26.85 57.45 L27.7 57.4 28.5 57.3 30.7 57.5 31.55 57.7 M27.2 59.95 Q24.95 60.15 23.15 61.5 L22.9 61.65 22.4 62.15 Q21.45 63.05 21 64.2 20.55 65.25 20.6 66.25 L20.6 66.4 20.65 66.7 Q20.7 68.2 21.75 69.5 L21.85 69.65 22.3 70.15 22.55 70.4 22.8 70.6 23.05 70.75 Q25.15 72.4 28.35 72.4 L28.65 72.4 30.65 72.2 32.4 71.7 34.35 70.5 34.45 70.45 34.75 70.2 35.15 69.8 Q36.4 68.3 36.45 66.3 36.1 64.1 35.15 62.7 L34.4 61.85 34.3 61.8 Q33.35 60.9 32.1 60.45 L31.35 60.2 31.05 60.15 30.2 59.95 28.35 59.8 28.2 59.8 27.35 59.9 27.2 59.95"/>
  </g>
</svg>