<svg width="62.95px" height="70.25px" viewBox="0 0 62.95 70.25" xmlns="http://www.w3.org/2000/svg" xmlns:xlink="http://www.w3.org/1999/xlink">
  <defs/>
  <g>
    <path stroke="none" fill="#000000" d="M41.6 19.35 L40.75 18.95 38.65 18.65 38.2 18.65 36.1 18.95 35.9 19 Q34.35 19.45 33.5 20 32.3 20.75 31.6 21.65 L31.5 21.8 31.4 21.95 Q29.85 23.95 30.5 25.95 30.8 27.1 31.55 27.85 32.2 28.5 33.15 28.95 L33.7 29.15 35.85 29.7 36.8 29.8 38.55 29.6 38.95 29.55 39.3 29.45 40 29.25 40.75 29 Q42.7 28.2 43.85 26.55 45.25 24.55 44.6 22.45 44 20.3 41.6 19.35 M41.4 2.9 Q44.3 3.1 46.65 3.9 48.35 4.5 49.85 5.4 L52.5 7.2 Q57.2 11.1 59.65 18.5 63.55 32.3 55.1 39.35 53.95 40.3 52.25 41 L49.8 41.85 46.6 42.45 42.9 42.9 42.75 42.9 41.2 42.9 38.95 43 36.1 43.5 35.75 43.6 35.3 43.75 Q34.25 44.2 33.75 44.8 L33.4 45.3 33.35 45.45 33.3 45.55 33.3 47.15 33.4 47.35 33.55 47.55 33.7 47.75 Q34.45 48.6 35.95 48.8 L37.05 48.85 38.65 48.7 40.75 48.05 45.6 45.3 45.85 45.15 45.9 45.15 Q47.6 44.05 48.95 43.5 50.3 42.85 51.55 42.65 L55.25 42.55 Q58.75 42.85 60.7 45.35 61.95 47.05 62.45 49.15 64.05 53.65 60.75 58.75 L59.95 59.95 Q56.75 63.85 52.4 66.2 51.25 66.85 50.1 67.3 L46.8 68.5 41.35 69.65 41.2 69.65 40.8 69.65 39.15 69.95 35.9 70.25 35.75 70.25 32.7 70.2 30.75 70 Q25.45 69.35 20.65 66.8 20.2 66.5 19.85 66.35 L19.1 65.9 16.35 64.25 16.25 64.2 13.2 61.7 Q8.95 57.85 6.65 52 4.95 47.95 4.3 42.35 L3.9 37.3 Q3.85 34.1 4.4 31.05 5.05 27 6.7 23.4 8.55 19.2 11.75 15.6 L12.85 14.45 Q14.25 12.95 16 11.65 18.1 9.9 20.45 8.5 25.15 5.65 30.25 4.3 L32.5 3.75 35.55 3.25 38.5 2.95 39.5 2.85 40.4 2.8 41.4 2.9"/>
    <path stroke="none" fill="#ff6464" d="M36.6 1.3 L37.25 1.35 37.25 15.05 34.7 14.65 34.65 1.4 36.6 1.3"/>
    <path stroke="none" fill="#ff9d9d" d="M45.3 3.7 L47.8 5.4 47.85 37.05 45.55 37.85 45.3 3.7"/>
    <path stroke="none" fill="#ff6464" d="M42.35 2.3 Q43.9 2.85 45.3 3.7 L45.55 37.85 42.45 38.45 42.35 2.3"/>
    <path stroke="none" fill="#ff3333" d="M38.15 15.4 L37.25 15.05 37.25 1.35 Q39.95 1.5 42.3 2.3 L42.45 38.45 38.8 38.9 38.65 38.9 37.25 38.9 37.25 27.4 Q39.7 26.4 40.95 24.45 42.65 22 41.85 19.35 41.15 16.7 38.15 15.4"/>
    <path stroke="none" fill="#ffcc33" d="M47.75 5.4 Q52.15 9.1 54.5 16.15 58.2 29.1 50.35 35.65 L47.8 37.1 47.75 5.4"/>
    <path stroke="none" fill="#ff6464" d="M26.65 2.75 L28.9 2.2 28.9 16.2 Q27.6 17 26.7 18.15 L26.65 2.75"/>
    <path stroke="none" fill="#ff9d9d" d="M28.9 2.2 L31.85 1.7 31.85 15 31.8 15 Q30.15 15.4 28.9 16.2 L28.9 2.2"/>
    <path stroke="none" fill="#ff3333" d="M17.15 6.75 Q21.5 4.1 26.6 2.7 L26.7 18.1 26.45 18.4 Q24.55 20.9 25.35 23.5 25.75 24.9 26.75 25.95 L26.95 65.95 Q21.9 65.3 17.25 62.85 L17.15 6.75"/>
    <path stroke="none" fill="#ffcc33" d="M31.85 1.7 L34.7 1.4 34.75 14.6 31.85 15 31.85 1.7"/>
    <path stroke="none" fill="#ff6464" d="M1.7 28.5 Q2.35 24.6 3.9 21.15 L3.9 48.8 Q2.2 44.6 1.6 39.45 L1.7 28.5"/>
    <path stroke="none" fill="#ffcc33" d="M1.2 34.5 Q1.15 31.3 1.7 28.5 L1.55 39.4 Q1.3 37.1 1.2 34.5"/>
    <path stroke="none" fill="#ff3333" d="M8.8 13.65 L9.85 12.5 10.1 58 Q6.05 54.3 3.9 48.75 L3.9 21.15 Q5.7 17.05 8.8 13.65"/>
    <path stroke="none" fill="#ff9d9d" d="M28.9 27.4 L29.15 27.45 Q30.4 28.1 31.85 28.2 L31.85 39.55 31 39.75 Q29.65 40.35 28.9 41.15 L28.9 27.4"/>
    <path stroke="none" fill="#ff6464" d="M26.75 25.95 L28.85 27.4 28.85 41.15 28.3 42.05 28.2 42.3 Q27.6 44.1 28.45 45.25 L28.85 45.85 28.85 66.15 26.95 65.95 26.75 25.95"/>
    <path stroke="none" fill="#ff6464" d="M34.85 28.05 L35.7 27.9 37.25 27.4 37.25 38.85 34.9 39 34.85 28.05"/>
    <path stroke="none" fill="#ffcc33" d="M31.85 28.15 L34.85 28.05 34.95 38.95 31.85 39.5 31.85 28.15"/>
    <path stroke="none" fill="#ff9d9d" d="M12.8 9.85 Q14.9 8.1 17.15 6.75 L17.25 62.9 15.8 62.05 13.05 60.4 12.8 9.85"/>
    <path stroke="none" fill="#ff6464" d="M9.85 12.5 Q11.25 11.05 12.8 9.85 L13.05 60.4 10.1 58 9.85 12.5"/>
    <path stroke="none" fill="#ff6464" d="M28.2 42.3 L28.35 42.05 28.85 41.15 28.85 45.85 28.45 45.25 Q27.6 44.1 28.2 42.3"/>
    <path stroke="none" fill="#ffcc33" d="M33.1 47.35 L35 47.15 35.1 65.9 31.85 66.2 31.85 47.25 33.1 47.35"/>
    <path stroke="none" fill="#ff9d9d" d="M28.9 45.9 Q29.95 47.05 31.85 47.3 L31.85 66.25 28.9 66.2 28.9 45.9"/>
    <path stroke="none" fill="#ff6464" d="M35.05 65.9 L34.95 47.1 37.25 46.4 37.25 65.6 36.95 65.6 35.05 65.9"/>
    <path stroke="none" fill="#ff9d9d" d="M55.8 43.35 Q56.85 44.65 57.3 46.75 58.75 50.65 55.8 55.3 L55.8 43.35"/>
    <path stroke="none" fill="#ffcc33" d="M51.15 41 Q54.2 41.3 55.8 43.35 L55.8 55.3 55.05 56.45 Q52 60.1 47.9 62.35 L47.85 41.15 51.15 41"/>
    <path stroke="none" fill="#ff9d9d" d="M45.55 41.8 Q46.7 41.3 47.85 41.1 L47.9 62.35 45.75 63.35 45.55 41.8"/>
    <path stroke="none" fill="#ff6464" d="M42.45 43.55 L42.65 43.4 Q44.15 42.45 45.55 41.85 L45.7 63.4 42.5 64.55 42.45 43.55"/>
    <path stroke="none" fill="#ff3333" d="M37.25 65.6 L37.25 46.4 Q39.6 45.4 42.45 43.5 L42.5 64.5 37.25 65.6"/>
    <path stroke="none" fill="#bf0000" d="M48.25 5.4 L48.35 37.1 Q48.3 37.55 47.85 37.6 47.35 37.55 47.35 37.1 L47.25 5.4 Q47.3 4.95 47.75 4.9 48.25 4.95 48.25 5.4 M45.3 3.2 Q45.75 3.25 45.8 3.7 L46.05 37.85 Q46 38.3 45.55 38.35 45.1 38.3 45.05 37.85 L44.8 3.7 Q44.85 3.25 45.3 3.2 M9.85 12 Q10.3 12.05 10.35 12.5 L10.6 58 Q10.55 58.5 10.1 58.5 9.65 58.5 9.6 58 L9.35 12.5 Q9.4 12.05 9.85 12 M12.8 9.35 L12.85 9.35 Q13.3 9.4 13.35 9.85 L13.55 60.45 Q13.55 60.9 13.05 60.95 12.6 60.9 12.55 60.45 L12.35 9.85 Q12.35 9.4 12.8 9.35 M17.65 6.8 L17.8 62.9 Q17.75 63.35 17.3 63.4 16.85 63.35 16.8 62.9 L16.65 6.8 Q16.7 6.3 17.15 6.3 17.65 6.3 17.65 6.8 M37.25 0.85 Q37.75 0.9 37.75 1.35 L37.75 15.05 Q37.75 15.5 37.25 15.55 36.8 15.5 36.75 15.05 L36.75 1.35 Q36.8 0.9 37.25 0.85 M35.15 1.4 L35.25 14.6 Q35.2 15.1 34.75 15.15 34.25 15.1 34.25 14.65 L34.15 1.4 Q34.2 0.95 34.65 0.9 35.15 0.95 35.15 1.4 M26.65 2.25 Q27.1 2.3 27.15 2.75 L27.2 18.15 Q27.15 18.6 26.7 18.65 26.25 18.6 26.2 18.15 L26.15 2.75 Q26.2 2.3 26.65 2.25 M37.75 27.4 L37.75 38.9 Q37.75 39.35 37.25 39.4 36.8 39.35 36.75 38.9 L36.75 27.4 Q36.8 26.95 37.25 26.9 37.75 26.95 37.75 27.4 M34.85 27.6 Q35.35 27.6 35.35 28.1 L35.4 39 Q35.4 39.45 34.9 39.5 34.45 39.45 34.4 39 L34.35 28.1 Q34.4 27.65 34.85 27.6 M26.75 25.45 Q27.25 25.5 27.25 25.95 L27.45 66 Q27.4 66.45 26.95 66.5 26.5 66.45 26.45 66 L26.25 26 Q26.3 25.5 26.75 25.45 M28.9 40.7 Q29.35 40.7 29.4 41.2 L29.4 45.9 Q29.35 46.35 28.9 46.4 28.4 46.35 28.4 45.9 L28.4 41.2 Q28.4 40.7 28.9 40.7 M1.1 39.45 L1.2 28.5 Q1.25 28.05 1.75 28 2.2 28.05 2.2 28.5 L2.1 39.45 Q2.05 39.9 1.6 39.95 1.15 39.9 1.1 39.45 M3.9 20.65 Q4.35 20.7 4.4 21.15 L4.4 48.8 Q4.35 49.25 3.9 49.3 3.45 49.25 3.4 48.8 L3.4 21.15 Q3.45 20.7 3.9 20.65 M35 46.65 L35.5 47.15 35.6 65.9 Q35.55 66.4 35.1 66.45 34.65 66.4 34.6 65.95 L34.5 47.15 Q34.5 46.7 34.95 46.65 L35 46.65 M37.75 46.45 L37.75 65.6 Q37.75 66.1 37.25 66.1 36.8 66.1 36.75 65.6 L36.75 46.45 Q36.8 45.95 37.25 45.95 37.75 45.95 37.75 46.45 M47.85 40.6 Q48.3 40.65 48.35 41.1 L48.4 62.35 Q48.35 62.8 47.9 62.85 47.45 62.85 47.4 62.35 L47.35 41.1 Q47.35 40.65 47.85 40.6 M45.55 41.35 Q46 41.4 46.05 41.85 L46.2 63.4 Q46.2 63.85 45.7 63.9 45.25 63.85 45.2 63.4 L45.05 41.85 Q45.05 41.4 45.55 41.35 M56.3 43.35 L56.3 55.3 Q56.25 55.75 55.8 55.8 55.35 55.75 55.3 55.3 L55.3 43.35 Q55.35 42.9 55.8 42.85 56.25 42.9 56.3 43.35"/>
    <path stroke="none" fill="#ff3333" d="M47 6.3 Q46.05 5.55 44.7 4.75 43.4 3.95 41.95 3.45 39.85 2.75 37.2 2.55 L36.9 2.5 36.7 2.5 35.7 2.55 34.8 2.6 32.1 2.9 29.15 3.4 27 3.9 Q22.2 5.15 17.85 7.8 L13.65 10.8 Q12.05 12 10.8 13.35 L9.75 14.45 Q6.75 17.8 5.05 21.6 3.6 24.9 3 28.7 2.4 31.55 2.5 34.4 2.6 36.9 2.85 39.25 3.5 44.5 5.05 48.3 7.15 53.6 10.95 57.05 L13.8 59.35 16.5 60.95 17.2 61.35 18 61.8 Q22.3 64.1 27.15 64.7 L29 64.9 31.8 64.95 31.85 64.95 34.9 64.65 36.45 64.4 36.75 64.35 37 64.35 37.2 64.35 Q39.9 64 42.2 63.3 L45.25 62.2 47.35 61.2 Q51.25 59.05 54.05 55.6 L54.8 54.6 Q57.4 50.5 56.15 47.15 L56.1 46.95 Q55.75 45.35 54.8 44.05 53.55 42.45 51.05 42.2 L50.95 42.2 48.1 42.3 Q47.1 42.45 46.1 42.95 44.9 43.45 43.4 44.4 L43.2 44.5 43.2 44.55 37.8 47.55 35.3 48.35 33.15 48.55 31.7 48.5 Q29.3 48.15 28 46.7 L27.5 46.05 27.45 45.95 Q26.25 44.2 27.05 41.9 L27.15 41.7 27.25 41.45 27.95 40.35 Q28.9 39.25 30.55 38.6 L30.75 38.55 31.05 38.45 31.6 38.3 34.8 37.75 37.3 37.6 38.8 37.6 42.3 37.2 45.25 36.6 47.35 35.9 Q48.75 35.35 49.6 34.65 56.9 28.65 53.35 16.45 51.15 9.8 47 6.3 M48.6 4.4 Q53.3 8.3 55.75 15.7 59.65 29.5 51.2 36.55 50.05 37.5 48.35 38.2 L45.9 39.05 42.7 39.65 39 40.1 38.85 40.1 37.3 40.1 35.05 40.2 32.2 40.75 31.85 40.85 31.4 40.95 Q30.35 41.4 29.85 42 L29.5 42.5 29.45 42.65 29.4 42.85 Q29.05 44.15 29.5 44.55 L29.65 44.75 29.8 44.95 Q30.55 45.8 32.05 46 L34.75 45.9 36.85 45.25 Q39.1 44.3 41.7 42.5 L41.95 42.35 42 42.35 Q43.7 41.25 45.05 40.7 46.4 40.05 47.65 39.85 L51.35 39.75 Q54.85 40.05 56.8 42.55 58.05 44.25 58.55 46.35 60.15 50.85 56.85 55.95 L56.05 57.15 Q52.85 61 48.5 63.4 L46.2 64.5 42.9 65.7 37.45 66.85 37.3 66.85 36.9 66.9 35.25 67.15 32 67.45 31.85 67.45 28.8 67.4 26.85 67.2 Q21.55 66.55 16.75 64 L16 63.55 15.2 63.1 12.45 61.45 12.35 61.4 9.3 58.9 Q5.05 55.05 2.75 49.2 1.05 45.15 0.4 39.55 L0 34.5 Q-0.1 31.3 0.5 28.25 1.2 24.2 2.8 20.6 4.6 16.4 7.85 12.8 L9 11.6 Q10.35 10.15 12.1 8.85 14.2 7.1 16.55 5.7 21.25 2.85 26.35 1.5 L28.6 0.95 31.7 0.45 34.6 0.15 35.6 0.05 36.5 0 37.5 0.1 Q40.4 0.3 42.75 1.1 44.45 1.7 45.95 2.6 L48.6 4.4 M25.8 17.25 Q26.7 16.1 28.25 15.1 29.45 14.3 31.45 13.75 L31.65 13.7 34.85 13.35 37.75 13.85 38.65 14.2 Q42.2 15.75 43.1 18.95 44.05 22.2 42 25.15 40.45 27.45 37.75 28.55 L36.75 28.85 36.1 29.05 35.95 29.1 35.1 29.3 32.9 29.5 31.7 29.4 Q30.15 29.3 28.7 28.6 L28.35 28.5 Q26.95 27.85 25.9 26.8 24.65 25.55 24.2 23.85 23.25 20.75 25.45 17.7 L25.8 17.25 M27.7 18.85 L27.6 18.95 27.5 19.15 Q25.95 21.15 26.6 23.15 26.9 24.3 27.65 25.05 28.35 25.7 29.25 26.15 L29.8 26.35 31.95 26.95 32.9 27 34.65 26.8 35 26.75 35.4 26.65 36.1 26.45 36.85 26.2 Q38.8 25.45 39.95 23.75 41.3 21.75 40.7 19.65 40.1 17.55 37.7 16.55 L36.8 16.2 34.75 15.85 34.3 15.85 32.2 16.15 32 16.2 Q30.45 16.65 29.6 17.2 28.4 17.95 27.7 18.85"/>
  </g>
</svg>