<svg width="61px" height="91.85px" viewBox="0 0 61 91.85" xmlns="http://www.w3.org/2000/svg" xmlns:xlink="http://www.w3.org/1999/xlink">
  <defs/>
  <g>
    <path stroke="none" fill="#000000" d="M34.8 2.9 Q39.2 2.45 43.6 3.75 50.5 5.75 56.25 12.4 L57.2 13.45 58 14.45 58.75 15.4 59.1 15.95 59.75 17.25 Q61.4 20.8 60.9 24.05 60.6 25.75 59.7 27.4 58.5 29.45 56.15 31.25 L55.9 31.45 55.8 31.5 Q52.95 33.45 49.05 35 L48.35 35.3 Q48.05 35.35 47.8 35.5 L47.7 35.55 42.9 36.95 40.7 37.95 40.6 38.05 38.65 39.5 Q34.6 43.45 34 52.1 L36.95 51.6 41.15 51.75 Q43.8 52.3 45.6 54 47.25 55.65 47.8 57.55 48.45 59.75 47.6 62.2 46.85 63.95 45.7 65.25 43.9 67 41.35 68.35 39.7 69.05 38.1 69.55 39.95 74 40.5 77.8 L40.55 77.95 40.55 78.1 40.75 81.35 40.7 83 40.65 83.55 40.55 84.25 40.45 84.6 Q40.05 87.2 37.95 89.4 35.8 91.65 30.8 91.85 L30.75 91.85 29.4 91.8 29.25 91.75 Q22.8 91.05 19.85 84.85 L19.65 84.4 19.25 83.4 18.9 82.35 18.8 82 Q17.55 78.4 16.7 73.35 L16.45 72.1 16.4 71.8 11.85 71.15 Q6.7 69.85 5.15 67.45 3.65 65 4.05 62.7 L4.1 62.55 Q5.05 58.1 10.3 56.85 L10.75 56.75 10.7 56.5 10.65 56.35 10.5 56.05 10.2 55 9.3 51.55 Q8.05 46.65 7.55 41.75 L7.35 38.75 Q6.9 28.85 10.5 21.2 L10.7 20.8 Q12.5 17 15.3 13.85 17.4 11.35 20.05 9.3 L22.05 7.8 Q24.8 6 27.85 4.45 L28.15 4.35 28.45 4.25 28.95 4.1 31.2 3.5 34.6 2.9 34.8 2.9"/>
    <path stroke="none" fill="#ffe327" d="M34.35 56.1 Q34.2 56.15 34 56.3 33.55 56.75 33.6 57.35 33.55 57.9 34 58.3 L34.35 58.6 35.05 58.75 36 58.3 36.4 57.35 Q36.45 56.75 36 56.3 35.55 55.9 35.05 55.9 L34.35 56.1 M26.1 66.5 L30.4 59.75 26.1 52.8 21.55 59.75 26.1 66.5 M26.6 69.4 L26.05 69.3 Q25.45 69.3 25 69.7 24.55 70.15 24.6 70.75 24.55 71.25 25 71.7 25.45 72.15 26.05 72.15 L26.6 72 27 71.7 Q27.45 71.25 27.4 70.75 L27.25 70 27 69.7 26.6 69.4 M9.4 47.65 L9.2 47.45 8.7 47.15 8.4 47.1 8.25 47.1 8.05 47.1 7.2 47.45 Q6.85 47.9 6.85 48.45 6.85 49.1 7.2 49.5 7.6 49.85 8.25 49.85 L8.7 49.8 9.2 49.5 9.4 49.3 9.6 48.45 9.4 47.65 M27.2 49.4 L27.5 48.55 Q27.45 48.05 27.2 47.7 L27.05 47.5 26.6 47.2 26.3 47.15 26.05 47.15 25.85 47.15 Q25.35 47.25 25.05 47.5 24.65 47.95 24.65 48.55 24.65 49.15 25.05 49.5 25.5 49.95 26.05 49.9 L26.6 49.85 27.05 49.5 27.2 49.4 M17.3 53.05 L21.55 46.3 17.3 39.4 12.75 46.3 17.3 53.05 M18.2 56.25 Q17.75 55.9 17.2 55.9 L16.55 56 16.2 56.25 Q15.75 56.7 15.75 57.3 15.75 57.9 16.2 58.25 L16.55 58.55 17.2 58.65 Q17.75 58.7 18.2 58.25 18.65 57.9 18.6 57.3 18.6 56.7 18.2 56.25 M17.2 36.5 Q17.85 36.55 18.25 36.1 L18.6 35.1 Q18.6 34.45 18.25 34.1 17.85 33.65 17.2 33.7 L16.55 33.85 Q16.35 33.95 16.25 34.1 15.8 34.45 15.85 35.1 15.8 35.7 16.25 36.1 L16.55 36.35 17.2 36.5 M26.1 44.05 L30.4 37.3 26.1 30.35 21.55 37.3 26.1 44.05 M26.1 27.15 Q26.7 27.15 27.05 26.8 27.5 26.4 27.5 25.8 27.5 25.15 27.05 24.8 26.7 24.4 26.1 24.4 25.5 24.4 25.05 24.8 24.7 25.15 24.7 25.8 24.7 26.4 25.05 26.8 25.5 27.15 26.1 27.15 M17.3 30.6 L21.55 23.85 17.3 16.95 12.75 23.85 17.3 30.6 M18.65 12.95 L18.65 12.65 18.55 11.95 18.25 11.6 Q17.8 11.15 17.3 11.2 16.85 11.15 16.55 11.4 L16.25 11.6 16 11.95 Q15.85 12.25 15.85 12.65 L15.9 12.95 16.25 13.6 16.55 13.85 17.3 14 Q17.8 14.05 18.25 13.6 L18.65 12.95 M26.1 19.25 L30.4 12.5 26.1 5.65 21.55 12.5 26.1 19.25 M9.25 24.75 Q8.8 24.3 8.3 24.35 7.7 24.3 7.25 24.75 6.8 25.2 6.85 25.7 6.85 26.3 7.25 26.75 7.7 27.2 8.3 27.15 L9.25 26.75 9.7 25.7 9.25 24.75 M45.45 25.8 Q45.45 25.2 45.1 24.75 44.7 24.3 44.1 24.35 43.45 24.3 43.1 24.75 42.65 25.15 42.7 25.8 L43.1 26.75 Q43.45 27.2 44.1 27.15 44.7 27.2 45.1 26.75 L45.45 25.8 M35.4 30.25 L39.45 23.9 35.1 16.95 30.55 23.9 35.1 30.65 35.4 30.25 M33.8 12 L33.7 12.7 33.7 13 34.05 13.65 34.35 13.9 35.1 14.05 Q35.7 14.1 36.1 13.65 L36.45 13 36.45 12.7 36.35 12 36.1 11.65 Q35.7 11.2 35.1 11.25 L34.35 11.4 34.05 11.65 33.8 12 M51.7 12.65 L51.75 12.95 Q51.85 13.4 52.1 13.65 L52.4 13.9 53.05 14 54.05 13.75 Q54.85 15.3 55.3 16.75 56 19 55.75 21.05 L53.15 16.95 48.55 23.85 51.15 27.7 Q49.25 29.05 46.65 30.25 L44.6 31.1 44.15 30.35 43.35 31.6 38.65 32.95 Q37.25 33.4 36.05 34.15 35.6 33.75 35.05 33.75 L34.35 33.85 34.05 34.15 Q33.6 34.5 33.65 35.15 L33.8 35.85 Q29 40.45 28.75 51 31.1 50.3 33.1 50.1 L35.1 53.1 36.95 50.2 Q39.25 50.7 40.8 52.15 42.15 53.5 42.65 55.1 L40.05 59.05 39.55 59.7 40.8 61.65 Q39.3 63.2 36.85 64.45 L35.15 61.75 30.6 68.7 35.15 75.45 35.35 75.2 35.35 75.45 35.55 78.6 35.1 78.55 34.35 78.7 34.05 78.9 Q33.7 79.3 33.7 79.9 33.7 80.55 34.05 80.9 L34.35 81.1 35.1 81.3 35.4 81.3 35.35 81.45 Q34.15 87.75 26.8 87.8 L30.45 82.05 26.15 75.15 21.65 82.05 25.45 87.75 Q19.55 87.1 17 81.45 L16.9 81.25 17.3 81.25 18.25 80.9 Q18.7 80.45 18.65 79.85 18.7 79.25 18.25 78.9 17.8 78.45 17.3 78.45 L16.55 78.65 16.25 78.9 16.2 78.95 16.1 79 Q14.9 75.55 13.95 70.4 L17.35 75.4 21.65 68.65 17.35 61.75 13.3 67.85 8.15 67.2 Q0.7 65.5 1.35 60.05 1.45 59.5 1.7 59.05 2.8 56.2 6.65 55.3 L4.25 59.05 3.75 59.7 8.3 66.45 12.6 59.7 8.3 52.75 7.95 53.35 7.75 52.9 6.55 48.45 Q5.3 43.5 4.85 38.9 L8.3 44 12.6 37.25 8.3 30.3 4.65 35.9 Q4.55 32.95 4.8 30.25 5.35 24 7.7 18.95 L7.85 18.6 8.25 19.2 12.6 12.45 12.25 11.9 Q14.25 9.55 16.85 7.55 L17.4 8.35 18.85 6.05 24.45 2.8 25.3 2.55 26.15 2.85 Q26.75 2.85 27.2 2.45 L27.55 1.95 30.75 1.4 30.9 1.4 30.75 1.65 35.25 8.4 39.3 2.2 Q46.4 4.3 52.3 11.5 L52.1 11.65 51.85 12 Q51.7 12.25 51.7 12.65 M44.1 19.25 L48.35 12.5 44.1 5.55 39.55 12.5 44.1 19.25"/>
    <path stroke="none" fill="#cc31dd" d="M16.9 7.55 L18.9 6.05 17.45 8.35 16.9 7.55"/>
    <path stroke="none" fill="#cc31dd" d="M7.25 24.7 Q7.7 24.3 8.3 24.3 8.85 24.3 9.25 24.7 9.7 25.15 9.7 25.7 9.7 26.3 9.25 26.7 L8.3 27.15 Q7.7 27.15 7.25 26.7 6.85 26.3 6.85 25.7 6.85 25.15 7.25 24.7"/>
    <path stroke="none" fill="#cc31dd" d="M9.2 47.4 L9.4 47.6 9.65 48.45 9.4 49.3 9.2 49.45 8.7 49.75 8.25 49.85 Q7.65 49.85 7.2 49.45 6.85 49.05 6.85 48.45 6.85 47.85 7.2 47.4 L8.05 47.05 8.25 47.05 8.4 47.05 8.7 47.1 9.2 47.4"/>
    <path stroke="none" fill="#cc31dd" d="M45.1 24.7 L45.5 25.75 Q45.5 26.3 45.1 26.7 44.7 27.15 44.1 27.15 43.45 27.15 43.1 26.7 42.7 26.3 42.7 25.75 42.7 25.15 43.1 24.7 43.45 24.3 44.1 24.3 44.7 24.3 45.1 24.7"/>
    <path stroke="none" fill="#cc31dd" d="M33.8 12 L34.05 11.6 34.35 11.4 35.1 11.2 Q35.7 11.2 36.1 11.6 L36.35 12 36.5 12.65 36.5 12.95 36.1 13.6 Q35.7 14.05 35.1 14.05 L34.35 13.85 34.05 13.6 33.7 12.95 33.7 12.65 33.8 12"/>
    <path stroke="none" fill="#cc31dd" d="M35.15 16.95 L39.45 23.9 35.15 30.65 30.6 23.9 35.15 16.95"/>
    <path stroke="none" fill="#cc31dd" d="M44.1 19.25 L39.55 12.5 44.1 5.55 48.35 12.5 44.1 19.25"/>
    <path stroke="none" fill="#cc31dd" d="M27.05 24.8 Q27.5 25.15 27.5 25.8 27.5 26.4 27.05 26.8 26.7 27.15 26.1 27.2 25.5 27.2 25.05 26.8 24.7 26.4 24.7 25.8 24.7 25.2 25.05 24.8 25.5 24.4 26.1 24.4 26.7 24.4 27.05 24.8"/>
    <path stroke="none" fill="#cc31dd" d="M26.15 19.25 L21.6 12.5 26.15 5.6 30.4 12.5 26.15 19.25"/>
    <path stroke="none" fill="#cc31dd" d="M18.7 12.6 L18.7 12.9 18.25 13.55 17.3 14 16.55 13.8 16.25 13.55 15.9 12.9 15.85 12.6 16.05 11.95 16.25 11.55 16.55 11.4 Q16.85 11.15 17.3 11.15 L18.25 11.55 18.55 11.95 18.7 12.6"/>
    <path stroke="none" fill="#cc31dd" d="M12.75 23.85 L17.3 16.95 21.55 23.85 17.3 30.6 12.75 23.85"/>
    <path stroke="none" fill="#cc31dd" d="M18.65 35.05 Q18.65 35.65 18.25 36.05 17.85 36.5 17.25 36.5 16.85 36.5 16.55 36.3 L16.25 36.05 Q15.85 35.65 15.85 35.05 15.85 34.4 16.25 34.05 16.4 33.9 16.55 33.85 L17.25 33.65 Q17.85 33.65 18.25 34.05 L18.65 35.05"/>
    <path stroke="none" fill="#cc31dd" d="M26.15 44.05 L21.6 37.3 26.15 30.35 30.4 37.3 26.15 44.05"/>
    <path stroke="none" fill="#cc31dd" d="M27.2 47.7 Q27.45 48.05 27.5 48.55 L27.2 49.4 27.05 49.5 26.6 49.85 26.05 49.95 25.05 49.5 Q24.65 49.15 24.65 48.55 24.65 47.95 25.05 47.5 25.4 47.25 25.85 47.15 L26.05 47.15 26.3 47.15 26.6 47.2 27.05 47.5 27.2 47.7"/>
    <path stroke="none" fill="#cc31dd" d="M17.25 55.9 Q17.8 55.9 18.2 56.25 18.65 56.7 18.65 57.3 18.65 57.9 18.2 58.25 17.8 58.7 17.25 58.7 L16.6 58.55 16.2 58.25 Q15.8 57.9 15.8 57.3 15.8 56.7 16.2 56.25 L16.6 56 17.25 55.9"/>
    <path stroke="none" fill="#cc31dd" d="M17.3 53.05 L12.75 46.3 17.3 39.4 21.55 46.3 17.3 53.05"/>
    <path stroke="none" fill="#cc31dd" d="M26.05 69.3 L26.6 69.4 27 69.7 27.25 70 27.45 70.75 27 71.7 26.6 72 26.05 72.15 Q25.45 72.15 25 71.7 24.6 71.3 24.6 70.75 24.6 70.15 25 69.7 25.45 69.3 26.05 69.3"/>
    <path stroke="none" fill="#cc31dd" d="M26.15 66.5 L21.6 59.75 26.15 52.8 30.4 59.75 26.15 66.5"/>
    <path stroke="none" fill="#cc31dd" d="M35.05 55.9 Q35.6 55.9 36 56.3 36.45 56.75 36.45 57.35 L36 58.3 Q35.6 58.75 35.05 58.75 L34.4 58.6 34 58.3 Q33.6 57.9 33.6 57.35 33.6 56.75 34 56.3 L34.4 56.1 35.05 55.9"/>
    <path stroke="none" fill="#cc31dd" d="M39.3 2.15 L35.3 8.35 30.75 1.6 30.95 1.35 Q35.25 0.95 39.3 2.15"/>
    <path stroke="none" fill="#cc31dd" d="M27.55 1.95 L27.15 2.45 Q26.75 2.85 26.15 2.85 L25.3 2.55 27.55 1.95"/>
    <path stroke="none" fill="#cc31dd" d="M8.25 19.2 L7.9 18.6 Q9.6 15 12.3 11.9 L12.6 12.45 8.25 19.2"/>
    <path stroke="none" fill="#cc31dd" d="M4.9 38.85 L4.7 35.9 8.3 30.3 12.6 37.25 8.3 44 4.9 38.85"/>
    <path stroke="none" fill="#cc31dd" d="M7.95 53.35 L8.35 52.75 12.6 59.7 8.35 66.45 3.8 59.7 6.7 55.3 8.45 55 7.95 53.35"/>
    <path stroke="none" fill="#cc31dd" d="M55.75 21.05 L55.3 22.6 Q54.3 25.45 51.15 27.7 L48.55 23.85 53.15 16.95 55.75 21.05"/>
    <path stroke="none" fill="#cc31dd" d="M44.6 31.05 L43.35 31.55 44.15 30.35 44.6 31.05"/>
    <path stroke="none" fill="#cc31dd" d="M33.65 35.15 Q33.65 34.55 34.05 34.15 L34.35 33.85 35.05 33.75 Q35.65 33.75 36.05 34.15 34.85 34.85 33.85 35.85 L33.65 35.15"/>
    <path stroke="none" fill="#cc31dd" d="M13.5 67.85 L13.3 67.85 17.35 61.75 21.65 68.65 17.35 75.4 13.95 70.4 13.5 67.85"/>
    <path stroke="none" fill="#cc31dd" d="M36.95 50.25 L35.1 53.1 33.1 50.1 36.95 50.25"/>
    <path stroke="none" fill="#cc31dd" d="M42.45 59 Q41.9 60.4 40.8 61.6 L39.55 59.7 42.65 55.1 Q43.15 56.95 42.45 59"/>
    <path stroke="none" fill="#cc31dd" d="M35.2 61.75 L36.85 64.45 32.45 66 Q34.7 71.05 35.35 75.2 L35.2 75.45 30.65 68.7 35.2 61.75"/>
    <path stroke="none" fill="#cc31dd" d="M34.35 78.7 L35.1 78.5 35.55 78.55 35.5 80.05 35.4 81.3 35.1 81.3 34.35 81.1 34.05 80.85 Q33.7 80.5 33.7 79.9 33.7 79.3 34.05 78.85 L34.35 78.7"/>
    <path stroke="none" fill="#cc31dd" d="M25.45 87.75 L21.65 82.05 26.2 75.15 30.45 82.05 26.85 87.8 25.55 87.75 25.45 87.75"/>
    <path stroke="none" fill="#cc31dd" d="M16.2 78.95 L16.3 78.85 16.6 78.65 17.3 78.45 18.25 78.85 Q18.7 79.2 18.7 79.85 18.7 80.45 18.25 80.85 L17.3 81.25 16.95 81.25 16.5 80.2 16.1 79.05 16.2 78.95"/>
    <path stroke="none" fill="#cc31dd" d="M50.45 26.65 Q53.25 24.65 54.1 22.2 L54.2 22 54.5 20.9 Q54.7 19 54.1 17.05 L52.95 14.3 52.85 14.2 52.1 13.2 51.3 12.25 Q45.65 5.3 38.95 3.35 35 2.2 31.05 2.6 L30.9 2.6 30.75 2.6 27.9 3.1 25.7 3.7 25.55 3.75 25.3 3.8 24.9 3.95 Q22.05 5.4 19.55 7.05 L17.65 8.5 Q15.15 10.35 13.25 12.65 10.65 15.55 9 19.1 L8.8 19.5 Q5.5 26.55 5.9 35.85 L6.1 38.75 Q6.55 43.45 7.75 48.15 L8.65 51.55 8.95 52.5 9 52.6 9.1 52.95 9.35 53.8 9.6 54.55 9.45 55.65 Q9.1 56.15 8.5 56.2 L6.95 56.5 Q3.2 57.35 2.6 60.25 2.3 61.7 3.35 63.3 4.35 64.9 8.45 65.95 L13.35 66.55 13.5 66.55 Q14.45 66.6 14.7 67.55 L14.95 68.85 15.2 70.1 Q16.05 75.05 17.25 78.55 L17.3 78.7 17.7 79.8 18 80.55 18.15 80.9 Q20.45 85.9 25.5 86.5 L25.55 86.5 25.75 86.5 26.8 86.55 Q33.15 86.5 34.1 81.25 L34.2 80.85 34.2 80.55 34.25 79.9 34.3 78.55 34.1 75.6 34.1 75.4 34.1 75.25 Q33.45 71.3 31.3 66.45 31.05 65.9 31.3 65.4 31.55 64.9 32.1 64.75 L36.35 63.3 Q38.45 62.2 39.95 60.7 L41.3 58.55 Q41.85 56.9 41.45 55.45 41.05 54.15 39.95 53 38.65 51.8 36.7 51.4 L33.25 51.3 29.1 52.15 Q28.5 52.35 28 51.95 27.5 51.6 27.5 50.95 27.75 39.85 32.95 34.9 34.1 33.8 35.4 33.05 36.9 32.15 38.25 31.75 L42.9 30.35 43.55 30.1 44.15 29.9 Q47.8 28.45 50.45 26.65 M44.4 32.45 L43.85 32.7 43.75 32.7 38.95 34.15 Q37.95 34.45 36.75 35.15 L36.65 35.25 34.7 36.7 Q30.65 40.65 30.05 49.3 L33 48.8 37.2 48.95 Q39.85 49.5 41.65 51.2 43.3 52.85 43.85 54.75 44.5 56.9 43.65 59.4 42.9 61.15 41.75 62.45 39.95 64.2 37.4 65.55 L34.15 66.75 Q36 71.2 36.55 75 L36.6 75.15 36.6 75.3 36.8 78.55 36.75 80.2 36.7 80.75 36.6 81.45 36.5 81.8 Q36.1 84.4 33.95 86.6 31.85 88.85 26.85 89.05 L26.8 89.05 25.45 89 25.3 88.95 Q18.85 88.25 15.9 82.05 L15.7 81.6 15.3 80.6 14.95 79.55 14.85 79.2 Q13.6 75.6 12.75 70.55 L12.5 69.3 12.45 69 7.9 68.35 Q2.75 67.05 1.2 64.65 -0.3 62.2 0.1 59.9 L0.15 59.75 Q1.1 55.3 6.35 54.05 L6.8 53.95 6.75 53.7 6.7 53.55 6.55 53.25 6.25 52.2 5.35 48.75 Q4.1 43.85 3.6 38.95 L3.4 35.95 Q2.95 26.05 6.55 18.4 L6.75 18 Q8.55 14.2 11.35 11.05 13.45 8.55 16.1 6.5 L18.1 5 23.9 1.65 24.2 1.55 24.5 1.45 25 1.3 27.25 0.7 30.65 0.1 30.85 0.1 Q35.25 -0.35 39.65 0.95 47.05 3.15 53.25 10.65 L54.05 11.65 54.8 12.6 55.15 13.2 56.5 16.3 Q57.3 18.75 56.95 21.2 L56.55 22.8 56.5 23 Q55.35 26.2 51.85 28.7 49 30.65 45.1 32.2 L44.4 32.45"/>
  </g>
</svg>