<svg width="66.55px" height="97px" viewBox="0 0 66.55 97" xmlns="http://www.w3.org/2000/svg" xmlns:xlink="http://www.w3.org/1999/xlink">
  <defs/>
  <g>
    <path stroke="none" fill="#000000" d="M35.35 26.55 L35.45 25.45 Q35.4 22.8 33.15 20.9 30.9 19.05 27.5 19.05 24.25 19.05 21.95 20.85 L21.75 21 Q19.55 22.85 19.35 25.6 19.1 28.3 21.25 30.1 23.45 31.85 26.9 31.85 L28.1 31.85 Q30.95 31.65 33.2 29.9 34.95 28.35 35.35 26.55 M3.95 29.6 Q3.85 28.2 4 27 4.25 22.3 6.3 18.35 7.75 15.5 10.3 12.85 14.05 9.15 19.55 6.3 22.7 4.85 25.8 4 32.9 2.05 39.35 3.15 47 4.45 53.6 10.15 L53.9 10.4 Q56.95 13.15 59.3 16.3 61.4 19.35 62.75 22.25 L64.3 26.35 64.65 27.5 Q65.45 30.4 65.75 33.6 L66.3 38.1 Q66.65 42.6 66.55 48.35 L65.8 58.4 65.25 62.25 64.9 64 64.65 65.25 63.8 68.45 62.8 71.75 61.2 75.55 59.35 79.1 59.25 79.2 59.2 79.3 57.4 82.15 Q55.5 84.8 53.25 87.05 L50.05 89.8 Q47.65 91.7 45.25 93.05 L40.4 95.4 36.95 96.45 31.4 97 29.45 96.95 Q24.55 96.45 21.1 95.05 19.1 94.2 17.55 92.95 L16.65 92.2 16.55 92.1 15.15 90.45 Q14.55 89.7 13.8 87.9 L13.75 87.8 13.7 87.6 13.5 87.2 Q12.9 85.05 13.4 82.25 L13.55 81.65 13.65 81.35 Q14.25 79.25 15.4 77.95 16.8 76 19.1 74.9 20.65 74.15 22.35 73.7 L26.1 73.1 Q31.9 72.35 35.5 69.95 38.9 67.65 40 63.7 L40.25 62.75 40.5 61.75 Q41.7 55.45 39.55 50.3 L38.5 48.2 Q37.75 46.95 36.05 47.35 L35.65 47.55 Q29.45 50.4 22.9 49.6 L21.15 49.35 20.9 49.3 Q11.3 47.45 6.95 39.3 4.8 35.2 3.95 29.6"/>
    <path stroke="none" fill="#66ffff" d="M22.2 2.5 Q29 0.55 35.25 1.65 L41.1 11 27.5 11 22.2 2.5"/>
    <path stroke="none" fill="#ffff66" d="M14 10.95 L41.1 10.95 49.35 24 32.65 24 32.75 22.65 Q32.75 19.45 30.05 17.15 27.4 15 23.6 15 19.9 15 17.25 17.1 L14 10.95"/>
    <path stroke="none" fill="#ff9999" d="M48.9 8.3 L49.15 8.5 Q52.1 11.2 54.4 14.25 56.3 17 57.7 20 L59.2 24 49.35 24 35.25 1.6 Q42.55 2.85 48.9 8.3"/>
    <path stroke="none" fill="#3399ff" d="M16.25 4.6 Q19.2 3.25 22.2 2.45 L27.5 10.95 7.3 10.95 Q10.8 7.45 16.25 4.6"/>
    <path stroke="none" fill="#ff6600" d="M8.1 24.3 L3.5 16.15 Q4.95 13.35 7.3 10.95 L14 10.95 17.25 17.1 17.15 17.15 Q14.45 19.45 14.2 22.7 13.9 26.05 16.55 28.25 19.2 30.4 23.3 30.3 L24.2 30.3 26.9 35.5 13.8 35.75 8.1 24.3"/>
    <path stroke="none" fill="#ff9999" d="M3.45 16.15 L8.05 24.3 1.3 24.3 Q1.6 19.85 3.45 16.15"/>
    <path stroke="none" fill="#3399ff" d="M1.25 26.65 L1.35 24.3 8.1 24.3 13.85 35.75 4.15 35.95 Q2.1 32.05 1.25 26.65"/>
    <path stroke="none" fill="#cc0033" d="M19.1 45.65 L17.2 45.35 Q8.2 43.65 4.15 35.95 L26.9 35.55 31.25 43.65 Q25.35 46.35 19.1 45.65"/>
    <path stroke="none" fill="#ff9999" d="M24.2 30.35 Q27.65 30.05 30.05 28.1 32.15 26.3 32.65 24 L36.15 24 47.35 46.85 36.8 47.05 35.65 44.8 Q34.4 42.75 31.75 43.35 L31.25 43.6 24.2 30.35"/>
    <path stroke="none" fill="#3399ff" d="M41.8 35.45 L36.15 24 59.2 24 59.5 25.05 Q60.3 27.85 60.6 30.95 L61.15 35.45 41.8 35.45"/>
    <path stroke="none" fill="#cc0033" d="M56.1 35.45 L61.1 35.45 Q61.45 40.15 61.35 45.55 L56.1 35.45"/>
    <path stroke="none" fill="#66ffff" d="M56.1 35.45 L61.35 45.55 60.65 55.5 60.1 59.3 53.45 59.3 41.8 35.45 56.1 35.45"/>
    <path stroke="none" fill="#3399ff" d="M36.8 47.1 L47.35 46.9 53.45 59.35 37.75 59.35 Q39.1 52.45 36.8 47.1"/>
    <path stroke="none" fill="#ffff66" d="M57.7 68.55 L56.15 72.2 49 72.2 42.05 59.3 60.1 59.3 59.5 62.25 58.7 65.35 57.7 68.55"/>
    <path stroke="none" fill="#ff9999" d="M54.35 75.7 L54.2 76 52.45 78.7 49 72.25 56.2 72.25 54.35 75.7"/>
    <path stroke="none" fill="#ff6600" d="M39.45 83.7 L32.25 68.25 Q36.1 65.6 37.25 61.25 L37.75 59.3 42.05 59.3 52.4 78.65 Q50.6 81.2 48.4 83.4 L39.45 83.7"/>
    <path stroke="none" fill="#ff9999" d="M32.3 68.25 L34.65 73.25 15.75 73.25 Q17.1 72.65 18.75 72.15 L22.35 71.55 Q28.55 70.7 32.3 68.25"/>
    <path stroke="none" fill="#66ffff" d="M14.4 89.2 L13.5 88.45 12.25 86.95 Q11.85 86.55 11 84.65 L10.8 84.05 Q10.25 82.15 10.7 79.7 L10.95 78.8 17.65 91.1 Q15.75 90.3 14.4 89.2"/>
    <path stroke="none" fill="#3399ff" d="M34.6 73.25 L39.45 83.7 14.05 84.5 10.95 78.8 Q11.4 77.15 12.4 75.95 13.65 74.25 15.7 73.25 L34.6 73.25"/>
    <path stroke="none" fill="#ff9999" d="M17.65 91.1 L14.05 84.5 28.3 84 32.75 92.45 25.65 92.95 Q20.95 92.5 17.65 91.1"/>
    <path stroke="none" fill="#cc0033" d="M32.75 92.45 L28.3 84 48.45 83.4 45.4 86.05 40.75 89.2 36.05 91.5 32.75 92.45"/>
    <path stroke="none" fill="#3399ff" d="M0.1 24.25 Q0.35 19.55 2.4 15.6 3.85 12.75 6.4 10.1 10.15 6.4 15.65 3.55 18.8 2.1 21.9 1.25 29 -0.7 35.45 0.4 43.1 1.75 49.7 7.4 L50 7.6 Q53.05 10.4 55.4 13.55 57.5 16.6 58.85 19.5 L60.4 23.6 60.75 24.75 Q61.55 27.65 61.85 30.85 L62.4 35.35 Q62.75 39.85 62.65 45.6 L61.9 55.65 61.35 59.5 61 61.25 60.75 62.5 59.9 65.7 58.9 69 57.3 72.8 55.45 76.35 55.35 76.45 55.3 76.55 53.5 79.4 Q51.6 82.05 49.35 84.3 L46.15 87.05 41.35 90.3 36.5 92.65 33.05 93.7 27.5 94.25 25.55 94.2 Q20.65 93.7 17.2 92.3 15.2 91.45 13.65 90.2 L12.75 89.45 12.65 89.35 11.25 87.7 9.9 85.15 9.85 85.05 9.8 84.85 9.6 84.45 Q9 82.3 9.5 79.5 L9.65 78.9 9.75 78.6 Q10.35 76.5 11.5 75.2 12.9 73.25 15.2 72.15 16.75 71.4 18.45 70.95 L22.2 70.35 Q28 69.55 31.6 67.2 35 64.95 36.1 60.95 L36.35 60 36.6 59 Q37.8 52.7 35.65 47.55 L34.6 45.5 Q33.85 44.15 32.15 44.6 L31.75 44.8 Q26.85 47 21.75 47.05 L19 46.85 17.25 46.6 17 46.55 Q7.4 44.7 3.05 36.55 0.85 32.5 0.05 26.85 -0.05 25.45 0.1 24.25 M2.5 26.6 Q3.3 31.65 5.25 35.4 9 42.5 17.45 44.1 L17.7 44.15 19.25 44.4 21.75 44.55 Q26.35 44.5 30.75 42.5 L30.85 42.45 31.35 42.2 31.45 42.2 Q34.95 41.4 36.75 44.2 L38 46.65 Q40.4 52.4 39 59.55 L38.75 60.6 38.5 61.6 Q37.2 66.45 33 69.3 28.9 72 22.5 72.8 L19.1 73.4 16.3 74.4 Q14.55 75.25 13.45 76.75 12.55 77.75 12.2 79.15 L12.05 79.65 11.95 79.95 Q11.55 82.2 12 83.75 L12.1 83.9 12.2 84.2 13.25 86.2 13.3 86.3 14.35 87.55 15.2 88.25 Q16.5 89.25 18.2 90 21.25 91.25 25.75 91.7 L27.5 91.75 32.5 91.25 35.6 90.35 40.15 88.1 Q42.35 86.9 44.6 85.1 L47.6 82.5 Q49.7 80.45 51.45 78 L53.15 75.35 53.35 74.95 Q54.3 73.45 55.05 71.75 L56.5 68.15 57.5 65.05 58.3 62 58.55 60.7 58.9 59.1 59.4 55.35 60.15 45.5 Q60.2 39.9 59.9 35.6 L59.35 31.1 Q59.1 28.05 58.3 25.4 L58.3 25.25 58.05 24.5 58 24.4 56.55 20.55 Q55.35 17.85 53.35 15 51.2 12.1 48.3 9.45 L48 9.2 Q42 4.05 35.05 2.85 29.15 1.85 22.55 3.7 19.65 4.45 16.75 5.8 11.65 8.45 8.2 11.85 5.9 14.25 4.6 16.75 2.85 20.25 2.6 24.4 L2.5 26.6 M33.9 24.2 Q33.35 26.95 30.9 29.05 28 31.35 24.3 31.6 L23 31.6 Q18.7 31.6 15.75 29.3 12.6 26.55 12.95 22.65 13.25 18.85 16.3 16.25 L16.65 16 Q19.65 13.8 23.6 13.8 27.9 13.8 30.85 16.25 34 18.9 34 22.7 L33.9 24.2 M23.6 16.3 Q20.35 16.3 18.05 18.1 L17.85 18.25 Q15.65 20.1 15.45 22.85 15.2 25.55 17.35 27.35 19.55 29.1 23 29.1 L24.2 29.1 Q27.05 28.9 29.3 27.15 31.05 25.6 31.45 23.8 L31.5 22.7 Q31.55 20.05 29.25 18.15 27 16.3 23.6 16.3"/>
  </g>
</svg>