<svg width="68.85px" height="102.25px" viewBox="0 0 68.85 102.25" xmlns="http://www.w3.org/2000/svg" xmlns:xlink="http://www.w3.org/1999/xlink">
  <defs/>
  <g>
    <path stroke="none" fill="#000000" d="M25.75 8.45 L25.95 8.7 26.35 9.25 26.65 9.8 27 10.4 27.25 10.85 27.4 11.25 27.5 11.35 29.35 15.5 29.4 15.7 29.8 16.8 29.85 17 30.25 18.3 30.3 18.45 Q31.5 23.05 32.1 29.1 L32.15 29.25 32.15 29.65 32.3 31.25 32.3 31.55 32.3 31.65 32.35 32.25 32.35 32.45 32.55 36.85 32.55 39.85 32.6 41.7 32.65 43.55 32.55 53.3 Q41.9 46.9 51.35 48.65 L54.3 49.5 Q56.5 50.25 57.95 51.1 L60.95 53.25 61.95 54.15 62.05 54.25 64 56.65 Q66.3 60.05 67.5 64.9 L67.85 66.4 67.9 66.7 68 67.35 68.15 68.15 68.15 68.3 68.15 68.5 68.25 69 68.3 69.2 68.35 69.5 68.35 70 68.4 70.1 68.55 71.9 68.55 72.05 68.75 73.8 Q69.05 77 68.5 80.65 68.2 86.65 65.6 91.65 L65.5 91.75 65.4 91.95 64.1 94.1 62.5 96.05 Q60.35 97.95 57.45 98.75 L54.95 99.25 51.45 99.1 49.15 98.4 Q47.35 97.4 46.25 95.65 L45.5 94.45 45.45 94.3 45.35 94.05 44.9 92.95 44.85 92.85 44.7 92.35 44.55 92 44.6 92.05 44.55 91.9 43.75 88.55 43.75 88.35 43.75 88.3 43.7 88.1 43.65 87.5 43.6 87.1 43.5 86.7 43.5 86.6 43.45 86.45 42.95 84.35 42.8 83.85 42.8 83.8 42.75 83.75 42.6 83.35 42.4 82.85 42.2 82.55 42.2 82.5 41.9 82.05 Q40.35 80.25 39.25 80.75 36.7 81.1 35.85 86.05 L35.8 86.25 35.8 86.3 35.8 86.45 35.6 87.75 35.45 89.35 35.45 90 35.45 90.1 35.4 90.6 35.4 90.8 35.35 91.1 35.3 91.3 35.25 91.85 35.05 92.7 35 92.85 34.95 93.1 34.85 93.45 34.65 94 34.55 94.35 34.4 94.8 34.2 95.3 Q33.3 97.65 31.75 99.15 29.25 101.85 25.3 102.2 L24.5 102.25 24.25 102.25 23.95 102.2 23.1 102.15 20.75 101.25 20.35 101.05 18.95 100.15 18.45 99.75 18.35 99.65 Q16.6 98.1 15.65 96.05 L15.45 95.7 14.55 92.65 Q14.25 91.25 14.1 89.1 14 86.1 14.4 83.3 L14.5 81.95 14.5 81.9 14.55 75.75 14.55 75.1 14.3 69.65 Q13.95 63.55 13.05 57.3 L12.5 53.9 11.95 51.1 11.65 49.5 11.4 48.3 11.3 47.9 11.3 47.8 10.7 45.4 9.45 40.4 7.8 34.8 7.1 32.65 6.45 30.6 5.45 27.45 5.35 27.15 5.35 27.1 5.3 27 5.1 26.4 4.95 25.8 4.85 25.45 4.8 25.25 4.05 21.55 4 20.75 3.95 20.2 3.9 20 3.9 19.15 Q3.7 14.55 5.45 10.45 6.3 8.5 7.55 7.05 8.95 5.4 11.2 4.25 L11.55 4.05 Q13.85 2.9 15.95 2.85 L16.45 2.75 Q19.15 2.55 21.65 4.2 L23.8 5.9 24.85 7.15 25.45 7.9 25.75 8.45"/>
    <path stroke="none" fill="#7cbd11" d="M21.95 8.2 L22.4 9.1 2.7 24.35 2.55 23.9 2.2 22.7 2.05 22.2 1.35 18.6 18.55 4.6 18.95 4.05 19.9 5.15 20.55 6 20.7 6.3 21.35 7.15 21.95 8.2"/>
    <path stroke="none" fill="#9aea15" d="M12.3 1.35 L12.55 1.25 Q15 1.1 17.1 2.5 18.05 3.1 19 4.05 L18.6 4.6 1.4 18.6 1.25 17.25 1.25 16.4 Q1.1 12 2.7 8.2 3.4 6.5 4.6 5.15 5.95 3.5 7.95 2.55 8 2.45 8.1 2.5 10.35 1.3 12.3 1.35"/>
    <path stroke="none" fill="#9aea15" d="M24.3 13.25 L24.75 14.5 25.15 15.95 Q26.35 20.5 26.95 26.45 L8 42.35 6.75 37.25 5.05 31.65 4.4 29.5 24.25 13.25 24.3 13.25"/>
    <path stroke="none" fill="#7cbd11" d="M24.3 13.25 L24.25 13.25 4.4 29.5 3.75 27.5 2.7 24.3 22.45 9.1 24.3 13.25"/>
    <path stroke="none" fill="#7cbd11" d="M27.2 29.75 L27.35 34.15 9.25 48.1 8.65 45.25 8.55 44.65 8 42.35 26.95 26.5 26.95 27 27.15 28.9 27.2 29.75"/>
    <path stroke="none" fill="#7cbd11" d="M50 47.9 Q51.8 48.5 53.4 49.4 L11.8 79.25 11.8 79.1 11.85 72.95 11.85 72.35 42.35 50.5 42.4 50.5 47.15 47.1 50 47.9"/>
    <path stroke="none" fill="#9aea15" d="M29 51.75 Q38.2 45.35 47.15 47.15 L42.4 50.5 42.35 50.5 11.85 72.35 11.6 66.8 Q11.25 60.6 10.35 54.35 L26.85 41.45 26.75 41.45 27.5 40.85 27.35 50.7 Q27.1 52.8 29 51.75"/>
    <path stroke="none" fill="#7cbd11" d="M27.4 37.1 L27.55 40.85 26.8 41.45 26.85 41.45 10.4 54.35 9.85 50.95 9.3 48.1 27.4 34.15 27.4 35.8 27.4 37.1"/>
    <path stroke="none" fill="#9aea15" d="M35.1 76.75 Q31.75 77.2 30.7 83.05 30.6 83.25 30.65 83.5 L30.45 84.75 15.35 96 15.3 96 15.25 95.9 Q13.75 94.6 12.85 92.75 L12.7 92.4 12.65 92.35 Q11.55 89.75 11.45 86.25 L57.25 52.35 Q58.25 53.35 59.05 54.6 60.25 56.3 61.05 58.4 L62.4 62.45 39.55 79.4 39.4 79.15 39.05 78.55 Q37.5 76.3 35.1 76.75"/>
    <path stroke="none" fill="#7cbd11" d="M41.05 85.55 L41 85.15 40.9 84.05 40.75 83.45 40.15 81.05 40.1 80.85 40 80.5 39.5 79.4 39.55 79.4 62.35 62.45 62.65 63.9 62.75 64.1 63 65.55 63.05 66.05 63.15 66.75 63.2 67.45 63.4 69.4 41.05 85.55"/>
    <path stroke="none" fill="#7cbd11" d="M56.2 51.4 L57.3 52.35 11.45 86.25 Q11.35 83.65 11.75 80.6 L11.85 79.25 53.4 49.4 Q54.95 50.2 56.2 51.4"/>
    <path stroke="none" fill="#7cbd11" d="M41.95 89.15 L41.8 88.75 41.1 85.55 63.45 69.4 63.6 71.15 Q63.85 74.5 63.35 77.8 L43.4 92.2 42.75 91.15 42.75 91.05 42.65 90.95 41.95 89.15"/>
    <path stroke="none" fill="#9aea15" d="M61.05 87.35 L60.55 88.3 50.9 95.25 47.75 95.1 45.75 94.5 Q44.4 93.8 43.55 92.45 L43.35 92.2 63.35 77.8 Q63.1 82.95 61.05 87.35"/>
    <path stroke="none" fill="#7cbd11" d="M60.55 88.25 L60.65 88.2 60.45 88.45 60.55 88.25"/>
    <path stroke="none" fill="#7cbd11" d="M60.45 88.5 L59.1 90.65 57.65 92.4 57.6 92.45 Q55.65 94.1 53.2 94.8 L50.9 95.25 60.55 88.3 60.45 88.5"/>
    <path stroke="none" fill="#7cbd11" d="M30.45 84.8 L30.25 86.55 30.25 87.3 30.25 87.45 30.2 88.05 30.1 88.8 29.7 90.3 29.55 90.85 29.55 90.9 29.45 91.15 20.3 98.25 19.55 98.2 19.5 98.2 17.35 97.35 17 97.15 15.7 96.35 15.4 96.15 15.35 96.05 30.45 84.8"/>
    <path stroke="none" fill="#7cbd11" d="M21.25 98.15 L20.3 98.2 29.45 91.1 29.1 92.05 29 92.45 Q28.15 94.25 26.95 95.5 24.8 97.9 21.25 98.15"/>
    <path stroke="none" fill="#9aea15" d="M15.4 96.1 L15.3 96 15.35 96 15.4 96.1"/>
    <path stroke="none" fill="#7cbd11" d="M31.05 84.35 Q31.45 84.95 30.9 85.4 L15.85 96.65 15.4 96.8 Q14.65 96.7 14.6 96.05 14.6 95.5 15.1 95.3 L30 84.2 Q30.6 83.85 31.05 84.35"/>
    <path stroke="none" fill="#fdffe8" d="M23.05 8.65 Q23.4 9.2 22.9 9.7 L3.15 24.9 2.7 25.05 Q2.35 25.05 2.1 24.75 1.75 24.2 2.25 23.7 L22 8.5 Q22.55 8.15 23.05 8.65 M28 33.7 Q28.35 34.25 27.85 34.75 L9.75 48.7 9.3 48.85 Q8.9 48.85 8.7 48.55 8.3 47.95 8.8 47.5 L26.95 33.55 Q27.5 33.2 28 33.7 M29.55 90.1 Q30.25 90.15 30.3 90.8 L30.25 91.15 29.95 91.7 20.8 98.85 20.3 99 19.75 98.7 Q19.35 98.1 19.85 97.65 L28.8 90.7 28.9 90.45 Q29.15 90.1 29.55 90.1 M40.5 86 Q40.1 85.4 40.65 84.95 L62.95 68.8 Q63.55 68.45 64 68.95 64.4 69.55 63.85 70 L41.5 86.15 41.1 86.3 Q40.7 86.3 40.5 86 M54 49 Q54.35 49.55 53.85 50 L12.25 79.9 11.8 80.05 Q11.45 80.05 11.2 79.75 10.85 79.1 11.4 78.7 L52.95 48.8 Q53.55 48.45 54 49"/>
    <path stroke="none" fill="#7cbd11" d="M22.05 5.95 L22.45 6.5 22.75 7.05 23.1 7.65 23.35 8.1 23.5 8.5 23.6 8.6 25.45 12.75 25.55 12.95 25.9 14.05 25.95 14.25 26.35 15.55 26.4 15.7 Q27.55 20.3 28.2 26.35 L28.25 26.5 28.25 26.9 28.4 28.65 28.4 28.8 28.4 28.9 28.45 29.5 28.45 29.7 28.65 33.7 28.65 37.1 28.7 38.95 28.75 40.8 28.65 50.55 Q38 44.1 47.45 45.9 48.9 46.25 50.4 46.75 52.6 47.5 54.05 48.35 55.6 49.15 57.05 50.5 L58.15 51.5 Q59.1 52.45 60.1 53.9 62.4 57.3 63.6 62.15 L63.95 63.65 64 63.95 64.1 64.6 64.25 65.4 64.25 65.55 64.25 65.7 64.35 66.25 64.4 66.45 64.45 66.75 64.5 67.25 64.5 67.35 64.65 69.3 64.85 71.05 Q65.1 74.25 64.6 77.9 64.3 83.45 62.2 87.85 L62.15 88 61.95 88.35 61.65 88.95 61.6 89 61.5 89.2 60.2 91.35 58.6 93.3 58.45 93.4 Q56.4 95.2 53.6 96 L51.05 96.5 47.55 96.35 45.25 95.65 Q43.6 94.75 42.55 93.2 L42.45 93.05 42.35 92.9 41.6 91.7 41.55 91.55 41.5 91.4 40.75 89.55 40.65 89.25 40.65 89.15 39.85 85.8 39.85 85.6 39.85 85.55 39.8 85.35 39.75 84.75 39.7 84.35 39.6 83.95 39.6 83.85 39.55 83.7 39.05 81.6 38.9 81.1 38.9 81.05 38.85 81 38.7 80.6 38.5 80.1 38.3 79.8 38.3 79.75 38 79.3 Q36.5 77.45 35.35 78 32.35 79.15 31.95 83.3 L31.9 83.5 31.9 83.55 31.9 83.7 31.7 85 31.55 86.6 31.55 87.25 31.55 87.35 31.5 87.85 31.5 88.05 31.45 88.35 31.4 88.6 31.35 89.1 31 90.45 30.95 90.6 30.95 90.7 30.75 91.25 30.65 91.6 30.5 92.05 30.3 92.55 Q29.4 94.9 27.85 96.4 25.35 99.15 21.4 99.45 L20.6 99.5 20.35 99.5 20.05 99.45 19.2 99.4 16.85 98.5 16.45 98.3 15.05 97.4 14.55 97 14.45 96.9 14.4 96.85 Q12.7 95.4 11.75 93.3 L11.55 92.95 Q10.3 89.95 10.2 86.35 10.1 83.35 10.5 80.55 L10.6 79.2 10.6 79.15 10.65 73 10.65 72.35 10.4 66.9 Q10.05 60.8 9.15 54.55 L8.6 51.15 8.05 48.35 7.75 46.75 7.5 45.55 7.4 45.15 7.4 45.05 6.8 42.7 5.55 37.65 3.9 32.05 3.2 29.9 2.55 27.85 1.55 24.7 1.45 24.4 1.4 24.25 1.2 23.65 1.05 23.05 0.95 22.7 0.9 22.5 0.15 18.8 0.1 18 0.05 17.45 0 17.25 0 16.4 Q-0.15 11.8 1.55 7.7 2.4 5.75 3.65 4.3 5.05 2.65 7.25 1.5 L7.65 1.3 Q9.95 0.15 12.05 0.1 L12.55 0 Q15.25 -0.15 17.75 1.45 L19.9 3.15 20.95 4.4 21.5 5.15 21.9 5.75 22.05 5.95 M23.15 13.7 L21.35 9.7 21.1 9.25 20.9 8.85 20.6 8.3 20.25 7.7 20.1 7.45 19.7 6.9 19.6 6.75 18.9 5.9 18.15 4.95 16.4 3.55 Q14.65 2.4 12.7 2.5 L12.3 2.6 Q10.6 2.55 8.65 3.6 L8.6 3.6 8.55 3.65 Q6.65 4.6 5.55 5.95 4.55 7.1 3.85 8.7 2.35 12.25 2.5 16.35 L2.5 17.2 2.6 17.85 2.65 18.4 3.3 21.9 3.4 22.2 3.45 22.35 3.6 22.9 3.75 23.5 3.9 23.85 4.95 27.15 5.6 29.1 5.6 29.2 6.25 31.3 7.95 36.95 9.25 42.1 9.8 44.35 9.85 44.8 9.9 44.9 9.9 45 10.15 46.2 10.5 47.9 11.05 50.7 11.6 54.2 Q12.55 60.55 12.9 66.75 L13.15 72.3 13.15 72.95 13.1 79.1 13.1 79.3 13.05 79.5 13 80.65 13 80.8 Q12.6 83.45 12.7 86.25 12.8 89.45 13.85 91.9 L13.95 92.2 Q14.75 93.85 16.1 95.05 L16.2 95.15 16.3 95.2 16.55 95.35 17.6 96.05 17.95 96.25 19.75 96.95 20.35 97 21.3 96.95 Q24.15 96.75 26.05 94.7 27.3 93.45 28 91.65 L28.15 91.2 28.35 90.75 28.4 90.45 28.6 89.85 28.9 88.5 28.95 88.25 29 87.9 29 87.5 29.05 87 29.05 86.55 29.05 86.4 29.25 84.65 29.4 83.45 29.5 82.75 Q31.5 75.25 34.95 75.55 38.05 75 40.1 77.9 L40.5 78.55 40.65 78.8 41 79.7 41.15 79.95 41.3 80.4 41.35 80.55 41.4 80.65 42 83.15 42.1 83.6 42.1 83.7 42.15 83.85 42.25 84.5 42.25 84.85 42.35 85.5 Q42.6 87.05 43 88.35 L43.1 88.65 43.15 88.8 43.75 90.35 43.85 90.5 43.95 90.7 44.4 91.5 44.5 91.65 44.6 91.75 Q45.35 92.85 46.4 93.4 L48 93.9 50.85 94 52.95 93.6 Q55.1 92.95 56.8 91.55 L58.1 89.95 59.4 87.9 59.45 87.75 59.55 87.6 59.7 87.3 59.95 86.75 Q61.85 82.8 62.1 77.75 L62.15 77.65 Q62.6 74.2 62.35 71.25 L62.2 69.55 62.2 69.5 62 67.65 61.95 66.9 61.9 66.6 61.85 66.45 61.75 65.65 61.65 65.05 61.55 64.5 61.45 64 61.2 62.8 Q60.05 58.35 58.05 55.3 L56.4 53.25 55.4 52.4 Q54.15 51.2 52.85 50.55 51.5 49.75 49.6 49.1 L46.95 48.35 Q38.4 46.75 29.75 52.8 L29.6 52.9 26.95 53.05 Q25.95 52.35 26.15 50.6 L26.25 40.85 26.2 39.05 26.15 37.2 26.15 33.8 26 29.9 25.9 28.95 25.9 28.9 25.75 27.1 25.75 27 25.75 26.55 Q25.1 20.75 23.95 16.35 L23.55 14.95 23.15 13.7"/>
  </g>
</svg>