<svg width="36px" height="86.2px" viewBox="0 0 36 86.2" xmlns="http://www.w3.org/2000/svg" xmlns:xlink="http://www.w3.org/1999/xlink">
  <defs/>
  <g>
    <path stroke="none" fill="#000000" d="M12.6 2.75 L13.95 2.9 Q16.65 3.2 18.75 5.3 L18.85 5.4 20.15 7.15 Q21.3 8.95 21.3 11.4 L21.3 11.8 Q21.2 15.15 18.55 17.6 L17.8 18.25 Q16.4 19.25 15.05 19.7 L14.85 19.75 14.5 19.85 13.8 20 12.3 20.1 11.7 20.1 Q10.2 20 8.7 19.3 L8.5 19.2 8.35 19.1 7.35 18.45 6.35 17.55 Q5 16.15 4.45 14.4 3.95 13.2 3.95 11.4 3.95 7.85 6.5 5.3 9.05 2.75 12.6 2.75"/>
    <path stroke="none" fill="#000000" d="M15.85 65.05 L15.8 65.05 15.85 65.1 15.85 65.05 M12.15 25.55 Q13.5 24.35 15.15 23.6 L15.3 23.55 15.75 23.3 16.05 23.25 19.3 22.75 19.6 22.75 19.7 22.75 21.7 23.15 Q22.3 23.3 22.9 23.6 23.75 23.95 24.5 24.45 27.25 26.15 29.55 29.8 31.1 32.5 32.25 35.55 L32.75 36.9 33.1 37.85 33.85 40.45 34.05 41.1 34.2 41.75 34.2 41.85 34.65 43.65 Q35.7 48.6 36 53.7 L36 53.8 36 56.45 36 59.25 35.7 64.05 34.85 68.85 34.75 69.2 34.65 69.55 34.6 69.7 Q33.05 75.5 30.05 79.85 L27.7 82.9 27.3 83.25 Q25.25 85.3 22.7 86 L22.15 86.05 21.95 86.1 21.8 86.15 20.75 86.2 19.75 86.15 19.65 86.1 Q18.3 85.85 16.8 85.1 L14.4 83.6 13 82.3 Q10.35 79.35 9.85 74.2 L9.85 74.1 9.85 74.05 Q9.55 71.65 9.85 68.8 L9.95 67.05 9.95 66.85 10.05 66.6 10.05 66.25 11 62.2 Q11.8 57.9 11.9 53.35 11.95 49.75 11.5 45.05 L11.45 44.95 Q11.15 42.05 10.3 37.9 L9.95 36.55 9.9 36.25 9.9 36.15 9.85 35.9 Q9.6 33.7 9.8 31.55 L9.85 30.95 Q9.95 30.15 10.2 29.35 10.7 27.4 11.7 26.15 L11.85 25.9 12.15 25.55"/>
    <path stroke="none" fill="#66ffff" d="M5.1 15.3 L4.2 14.7 Q5.35 10.05 8.05 7.4 10.7 4.8 14.05 3.55 L15.1 5 Q13.35 6.55 12.7 8.3 12.25 9.7 12.25 12 L11.9 13.4 10.65 15.8 9.65 16.05 9.85 14.4 Q9.9 13.4 9.45 12.65 9.1 12 8.6 12 L7.65 12.1 Q6.9 12.2 6.2 13.05 5.45 13.8 5.1 15.3"/>
    <path stroke="none" fill="#66ffff" d="M3.4 3.4 Q5.6 1.25 8.65 1.25 L9.8 1.35 6 4.65 Q3.6 6.7 3.25 7.95 2.85 9.2 1.65 11.25 1.25 10.05 1.25 8.65 1.25 5.6 3.4 3.4"/>
    <path stroke="none" fill="#2fb1ea" d="M9.85 1.35 Q12.2 1.65 13.95 3.4 L14.05 3.5 Q10.7 4.75 8.1 7.4 5.4 10 4.25 14.7 L3.35 13.9 Q2.15 12.7 1.7 11.25 L3.25 7.95 Q3.6 6.7 6.05 4.6 L9.85 1.35"/>
    <path stroke="none" fill="#2fb1ea" d="M15.15 5 Q16.15 6.6 16.15 8.7 L16.15 9.05 Q16.05 11.85 13.8 13.95 L13.1 14.55 Q11.95 15.35 10.7 15.8 L11.95 13.4 12.25 12 Q12.3 9.7 12.75 8.3 13.35 6.5 15.15 5"/>
    <path stroke="none" fill="#2fb1ea" d="M7.7 12.1 L8.65 12 Q9.1 12 9.5 12.65 9.95 13.4 9.9 14.4 L9.7 16.05 8.4 16.1 7.8 16.1 5.35 15.45 5.15 15.3 Q5.5 13.8 6.25 13.05 6.95 12.2 7.7 12.1"/>
    <path stroke="none" fill="#2fb1ea" d="M19.95 22.7 Q19.9 24.05 22.7 26.25 L24.6 27.65 Q25.95 30 27.2 33.2 L28 35.5 26.25 34.3 Q21.9 31.3 20.2 29.4 L19.95 29.1 Q18.7 27.55 18.05 25.95 17.4 24.35 17.4 22.5 L17.45 21.55 18.5 21.9 19.95 22.7"/>
    <path stroke="none" fill="#66ffff" d="M26.85 39.25 Q26.05 39.7 25.6 40.7 24.95 41.7 25 42.5 L25 43.85 Q25.3 45.1 26.55 45.1 L26.75 45.1 Q27.6 45 28.05 44.2 28.5 43.55 28.6 42.75 L28.55 41.05 28.25 39.5 28.25 39.45 Q27.95 39 27.6 39.05 L26.85 39.25 M8.8 24.05 L9.05 23.7 Q10.4 22.55 11.75 21.9 L12.25 21.7 12.35 21.7 12.25 21.9 Q11.75 22.8 11.65 24 L11.6 24.75 11.6 24.9 11.6 26.05 Q11.85 27 12.8 27 L12.9 27 13.1 27 Q14.25 27 15.15 25.3 16 23.85 16 22.7 L15.7 21.25 15.7 21.2 17.45 21.55 17.4 22.55 Q17.4 24.35 18.05 25.95 18.65 27.6 19.9 29.1 L20.15 29.4 Q21.9 31.3 26.25 34.3 L28 35.5 28.75 38 29.1 39.3 29.5 41.2 Q30.6 46.15 30.85 50.95 L30.7 51 Q28.65 52.9 27.65 54.55 26.25 56.95 26.25 59.75 L26.3 60.6 26.35 61.4 26.5 62.25 26.6 62.5 Q27.1 63.4 28.65 65 L29.7 65.85 29.7 65.9 29.55 66.35 29.5 66.45 Q28.1 72 25.1 76.35 23.85 76.5 23.25 77.5 22.9 78.15 22.8 79.3 L22.5 79.55 Q20.6 81.45 18.45 81.95 L17.75 82.1 18.25 81.05 Q19 79.55 21.45 76.3 L24.65 71.35 Q26.1 68.5 26.05 65.7 26.35 64.3 25.95 62.95 25.15 60.4 22.05 60.45 L17.95 60.75 Q16.4 60.8 16.4 59.35 16.4 57.05 17.3 55.3 17.85 54.3 19.35 52.5 L21.45 49.65 Q22.15 48.1 22.35 46.25 L22.4 45.05 Q22.4 41.5 20.75 38.9 L20.15 38.05 Q18.65 35.85 15.4 33.75 L10.6 30.6 Q8.45 28.85 8.45 26.95 8.45 25.5 8.8 24.05"/>
    <path stroke="none" fill="#2fb1ea" d="M27.6 39.05 Q27.95 39 28.25 39.45 L28.2 39.5 28.25 39.5 28.55 41.05 28.6 42.75 28.1 44.2 Q27.6 45 26.75 45.1 L26.55 45.1 Q25.3 45.1 25 43.85 L25 42.5 Q25 41.7 25.6 40.7 26.05 39.7 26.85 39.25 L27.6 39.05"/>
    <path stroke="none" fill="#2fb1ea" d="M15.45 21.2 L15.7 21.2 15.7 21.25 16 22.7 Q16 23.85 15.15 25.3 14.25 27 13.1 27 L12.95 27 12.8 27 Q11.85 27 11.6 26.05 L11.6 24.9 11.6 24.75 11.65 24 Q11.8 22.8 12.25 21.9 L12.4 21.7 Q13.2 21.3 15.45 21.2"/>
    <path stroke="none" fill="#2fb1ea" d="M8.8 24.05 Q8.4 25.5 8.45 26.95 8.45 28.85 10.6 30.65 L15.35 33.75 Q18.6 35.85 20.15 38.05 L20.75 38.9 Q22.35 41.5 22.35 45.05 L22.3 46.25 Q22.15 48.15 21.4 49.65 L19.35 52.55 Q17.85 54.3 17.3 55.3 16.4 57.05 16.4 59.35 16.4 60.8 17.9 60.75 L22 60.45 Q25.15 60.45 25.95 63 26.35 64.35 26.05 65.7 26.05 68.55 24.6 71.35 23.7 73.25 21.4 76.3 19 79.55 18.2 81.1 L17.7 82.1 15.95 82.1 16.7 80.2 Q17.7 77.95 19.95 74.85 L23.15 70.15 Q24.25 68.35 24.55 66.85 L24.65 65.75 24.6 64.3 Q24.5 63.85 24 63.75 L18.85 63.8 Q16.35 63.85 15.35 61.95 14.9 60.95 14.9 59.6 14.85 56.25 15.85 54 16.5 52.35 17.9 50.85 L19.95 48.45 Q20.95 46.9 20.9 45 20.9 41.8 18.75 39.5 17.4 38.15 13.9 36 L12.05 34.85 9.1 32.5 Q7.55 30.9 7.1 28.8 L7.15 28.5 7.45 26.95 Q7.9 25.25 8.8 24.05"/>
    <path stroke="none" fill="#66ffff" d="M12.2 57.35 L11.55 57.85 11.05 58.5 Q10.5 59.2 10.5 60 L10.5 60.3 10.55 61.15 10.55 61.25 Q10.9 62.25 11.9 62.25 L11.95 62.3 11.95 62.25 Q12.6 62.25 13.15 61.25 L13.35 60.85 Q13.9 59.75 13.9 58.85 L13.75 57.9 13.35 57.35 Q12.85 57 12.2 57.35 M12.1 34.85 L13.95 36 Q17.45 38.15 18.8 39.5 20.95 41.8 20.95 44.95 20.95 46.9 20 48.4 L17.95 50.85 Q16.55 52.35 15.9 53.95 14.9 56.2 14.9 59.6 14.95 60.95 15.4 61.95 16.4 63.8 18.9 63.8 L24.05 63.75 Q24.5 63.85 24.65 64.3 L24.7 65.75 24.55 66.8 Q24.3 68.35 23.2 70.15 L20 74.85 Q17.7 77.9 16.75 80.15 L16 82.1 13.4 81.2 15 78.7 Q16.5 75.9 16.5 73.6 L16.35 70.95 Q16.1 69.5 15.15 68.55 13.2 66.7 9.3 66.35 L7.2 66.05 7.3 64.15 7.4 63.75 8.35 59.65 10.15 56.5 Q14.05 50.15 14 45.35 14 41.45 11.8 38.6 10.45 36.75 7.6 34.85 L7.25 33.45 7.2 32.95 Q6.95 30.7 7.15 28.8 7.6 30.85 9.1 32.5 10.1 33.45 12.1 34.85"/>
    <path stroke="none" fill="#2fb1ea" d="M13.35 57.4 L13.75 57.9 13.9 58.9 Q13.9 59.8 13.35 60.9 L13.15 61.3 Q12.6 62.3 11.95 62.25 L11.9 62.25 Q10.85 62.3 10.55 61.3 L10.55 61.2 10.5 60.35 10.5 60.05 Q10.5 59.25 11.05 58.55 L11.55 57.85 12.2 57.4 Q12.85 57 13.35 57.4"/>
    <path stroke="none" fill="#66ffff" d="M22.7 26.25 Q19.9 24.05 19.9 22.7 22.45 24.25 24.55 27.65 L22.7 26.25"/>
    <path stroke="none" fill="#2fb1ea" d="M9.25 50.6 L9.95 49.2 Q11.15 46.85 11.15 45.3 11.15 43.75 8.95 42.15 L8.8 42.1 Q8.4 38.55 7.6 34.85 10.4 36.75 11.75 38.6 14 41.45 14 45.35 14 50.15 10.15 56.5 L8.3 59.65 Q9.15 55.2 9.25 50.6"/>
    <path stroke="none" fill="#66ffff" d="M8.8 42.15 L8.9 42.15 Q11.15 43.75 11.15 45.3 11.15 46.85 9.95 49.2 L9.2 50.6 Q9.3 46.4 8.8 42.15"/>
    <path stroke="none" fill="#2fb1ea" d="M7.3 71.25 L7.2 71.2 Q6.9 68.9 7.2 66.05 L9.3 66.35 Q13.15 66.7 15.15 68.6 16.05 69.5 16.35 70.95 L16.5 73.6 Q16.5 75.95 14.95 78.7 L13.4 81.2 11.25 79.8 10.1 78.7 10.75 77.7 13.5 73.35 Q12.6 72.7 10.6 72.15 L7.3 71.25"/>
    <path stroke="none" fill="#66cccc" d="M30.8 51 L30.7 51 30.8 50.95 30.8 51"/>
    <path stroke="none" fill="#2fb1ea" d="M28.65 65 Q27.1 63.4 26.6 62.45 L26.5 62.25 26.35 61.4 26.3 60.6 26.25 59.75 Q26.25 56.95 27.65 54.55 28.65 52.85 30.7 51 L30.85 51 30.85 53.65 30.85 56.35 28.9 59.1 Q29.25 60.25 30.55 61.1 L29.7 65.85 28.65 65"/>
    <path stroke="none" fill="#66ffff" d="M30.85 56.4 L30.55 61.1 Q29.25 60.3 28.9 59.1 L30.85 56.4"/>
    <path stroke="none" fill="#66ffff" d="M7.2 71.3 L7.3 71.25 10.65 72.15 Q12.65 72.7 13.55 73.35 L10.75 77.7 10.1 78.75 Q7.65 76.1 7.2 71.3"/>
    <path stroke="none" fill="#46baec" d="M14.95 2.65 L16.2 4.4 Q17.35 6.2 17.35 8.65 L17.35 9.05 Q17.25 12.4 14.6 14.85 L13.85 15.55 Q12.45 16.5 11.1 16.95 L10.9 17 10.55 17.1 9.85 17.25 8.35 17.35 7.75 17.35 Q6.25 17.25 4.75 16.55 L4.55 16.45 4.4 16.35 3.45 15.7 2.4 14.8 Q1.05 13.45 0.5 11.65 0 10.4 0 8.65 0 5.1 2.55 2.55 5.1 0 8.65 0 L10 0.15 Q12.7 0.45 14.8 2.55 L14.95 2.65 M5.85 14.3 L5.95 14.35 7.85 14.85 8.35 14.85 9.45 14.8 9.95 14.7 10.3 14.6 12.35 13.5 12.85 13.05 Q14.8 11.25 14.85 9 L14.85 8.65 Q14.85 6.95 14.05 5.65 L13.15 4.45 13.05 4.3 Q11.55 2.85 9.7 2.6 L8.65 2.5 Q6.1 2.5 4.3 4.3 2.5 6.1 2.5 8.65 2.5 9.95 2.85 10.8 3.25 12.1 4.2 13.05 L5 13.75 5.75 14.25 5.85 14.3 M8.2 22.75 Q9.55 21.6 11.2 20.8 L11.35 20.75 11.85 20.5 12.1 20.45 15.4 20 15.65 20 15.8 20 17.75 20.4 18.95 20.8 Q19.8 21.15 20.55 21.65 23.3 23.35 25.6 27 27.2 29.75 28.3 32.8 L28.8 34.1 29.15 35.1 29.9 37.7 30.1 38.35 30.25 39 30.3 39.1 30.7 40.85 Q31.8 45.85 32.05 50.9 L32.05 51.05 32.05 53.7 32.05 56.5 31.75 61.25 30.9 66.1 30.85 66.4 30.75 66.75 30.65 66.9 30.65 66.95 Q29.15 72.7 26.1 77.1 L23.8 80.1 23.4 80.4 Q21.3 82.55 18.75 83.2 L18.25 83.3 18.05 83.35 17.85 83.35 16.85 83.4 15.85 83.35 15.7 83.35 12.85 82.35 Q11.75 81.8 10.45 80.85 L9.1 79.55 Q6.4 76.6 5.9 71.45 L5.9 71.3 5.9 71.25 Q5.65 68.9 5.9 66 L6.05 64.25 6.05 64.1 6.1 63.8 6.15 63.45 7.1 59.4 Q7.85 55.1 7.95 50.6 8.05 46.95 7.55 42.3 L7.55 42.15 6.35 35.15 6 33.8 6 33.5 5.95 33.35 5.9 33.15 Q5.65 30.9 5.85 28.75 L5.95 28.2 6.25 26.6 Q6.8 24.65 7.75 23.35 L7.9 23.15 8.2 22.75 M8.65 27.4 Q8.45 27.95 8.4 28.65 L8.35 28.95 Q8.15 30.8 8.4 32.75 L8.45 33.3 8.8 34.5 Q9.7 38.85 10.05 41.95 L10.05 42.1 Q10.55 46.85 10.45 50.65 10.4 55.35 9.55 59.9 L8.6 63.95 8.5 64.45 8.4 66.05 8.4 66.2 Q8.15 68.9 8.4 71.05 L8.4 71.2 8.4 71.25 Q8.85 75.6 10.95 77.9 L11.1 78 11.95 78.8 13.95 80.1 16.2 80.9 17.55 80.9 17.95 80.8 18.15 80.8 Q20 80.3 21.6 78.7 L21.95 78.4 24.05 75.65 Q26.85 71.6 28.3 66.15 L28.35 65.95 28.4 65.95 28.45 65.65 28.45 65.6 29.3 61 29.55 56.35 29.6 53.8 29.55 51.05 Q29.3 46.15 28.25 41.45 L27.85 39.6 27.7 39 27.5 38.35 26.8 35.9 26.45 34.95 26 33.7 Q24.9 30.8 23.45 28.3 21.55 25.2 19.25 23.8 L18 23.1 17.9 23.05 17.2 22.8 17 22.75 15.6 22.5 15.45 22.5 12.85 22.85 12.55 22.95 12.25 23.1 10 24.55 9.9 24.65 9.8 24.85 Q9.05 25.75 8.7 27.3 L8.65 27.4"/>
    <path stroke="none" fill="#6699ff" d="M23.2 77.5 Q23.85 76.45 25.1 76.35 L22.8 79.3 Q22.9 78.15 23.2 77.5"/>
  </g>
</svg>