<svg width="54.55px" height="112.95px" viewBox="0 0 54.55 112.95" xmlns="http://www.w3.org/2000/svg" xmlns:xlink="http://www.w3.org/1999/xlink">
  <defs/>
  <g>
    <path stroke="none" fill="#000000" d="M22.95 32.05 Q23.65 29.5 25.3 27.9 L26.3 26.95 Q27.2 26.15 28.6 25.45 30.1 24.6 31.7 24.1 35.7 22.85 39.3 24.7 40.5 25.3 41.7 26.3 43.15 27.55 44.45 29.3 L45.8 31.25 47.8 34.75 48.6 36.2 Q53.35 45.45 54.4 59.45 L54.4 59.6 54.55 64.1 54.55 70.35 Q54.3 85.35 49.5 96.2 L49.35 96.6 Q44.1 108.95 30.6 112.25 L24.25 112.95 21.75 112.85 Q17.65 112.35 13.85 110.7 L13.75 110.65 9.95 108 9.85 107.9 8.7 106.65 7.65 105.35 6.3 103.25 6.05 102.9 5.85 102.4 5.6 101.8 Q4.15 98.25 3.95 95.2 3.7 92.5 4.5 89.9 L5.6 87.55 Q7.9 83.45 13.8 80.85 L14.6 80.4 15.4 79.95 Q20.4 77.1 23.9 73.65 L24.2 73.3 24.45 73 Q27.75 69.15 28.85 64.4 30.65 57.6 27.05 49.7 L26.65 48.9 Q23.9 44 22.85 39.95 22.25 37.65 22.3 35.75 22.25 34.45 22.6 33.15 22.7 32.5 22.95 32.05"/>
    <path stroke="none" fill="#000000" d="M38.3 4.65 L38.95 5.2 Q41.85 7.65 41.85 11.05 41.85 14.4 38.95 16.9 36.3 19.1 32.1 19.65 L31.25 19.7 30.85 19.75 Q27.8 19.75 25.7 18.3 L24.95 17.7 Q22.1 15.3 22.2 11.9 L22.2 11.4 22.3 10.7 Q22.75 7.3 25.3 5.15 26.7 3.95 28.2 3.45 29.9 2.8 32.15 2.8 L35.2 3.2 35.6 3.35 35.9 3.45 36.05 3.5 Q37.2 3.9 38.3 4.65"/>
    <path stroke="none" fill="#ff7def" d="M31 4.6 L31.55 4.15 Q32.45 3.5 32.9 3.3 L33.65 2.9 34.2 3.3 Q36.65 5.4 36.7 8.25 36.65 11.1 34.2 13.15 31.75 15.2 28 15.65 L27.35 15.7 29.25 13.5 Q32.45 10.05 32.5 9.4 L26.3 8.15 26.3 8.05 31 4.6"/>
    <path stroke="none" fill="#633ff3" d="M33.7 2.9 L32.9 3.3 Q32.45 3.5 31.55 4.15 31.3 4.3 31 4.55 L26.3 8 26.3 8.15 32.55 9.4 Q32.45 10 29.25 13.5 L27.35 15.65 Q24.5 15.8 22.5 14.45 L21.8 13.9 Q19.5 12 19.55 9.15 L19.55 8.6 19.6 8.2 Q19.95 5.2 22.2 3.3 23.35 2.3 24.7 1.85 L28.25 1.25 30.95 1.6 31.75 1.85 33.7 2.9"/>
    <path stroke="none" fill="#ffffff" d="M37 24.5 L39.55 27.3 40.85 29.15 33.6 26.6 37 24.5"/>
    <path stroke="none" fill="#ff7def" d="M19.65 32.95 Q19.6 31.65 19.9 30.65 L20.2 29.65 Q23.85 27.8 27.95 26.85 27.5 26.4 23.15 25.15 L25.3 23.75 Q26.7 22.95 28.2 22.5 31.7 21.4 34.8 23.05 L37 24.5 33.6 26.6 40.85 29.1 42.85 32.6 43.65 34 32.5 40.35 19.65 32.95"/>
    <path stroke="none" fill="#633ff3" d="M20.2 29.7 Q20.8 27.5 22.3 25.95 L23.15 25.15 Q27.5 26.4 27.95 26.85 23.85 27.8 20.2 29.7"/>
    <path stroke="none" fill="#633ff3" d="M20.15 36.85 Q19.6 34.8 19.65 32.95 L32.5 40.35 32.45 40.35 32.5 40.5 23.85 45.55 Q21.1 40.7 20.15 36.85"/>
    <path stroke="none" fill="#ff7def" d="M32 55.45 L32 55.4 Q29.2 55.85 29.15 59.1 29.15 61.35 30.45 62.15 31.45 62.9 32.95 63.35 34.4 63.25 35.3 62.15 36.5 61.1 36.55 59.45 36.5 57.65 35.3 56.5 34.2 55.4 32.5 55.4 L32 55.45 M24.2 46.3 L23.8 45.55 32.5 40.5 46.15 47.55 38.45 51.25 49.2 56.8 49.4 61.4 37.4 66.65 47.5 70.2 32.3 79.15 32.2 79.05 20.9 71.7 21.5 71 Q25 66.9 26.15 61.9 28.05 54.6 24.2 46.3"/>
    <path stroke="none" fill="#633ff3" d="M32.5 55.4 Q34.25 55.4 35.35 56.5 36.55 57.65 36.55 59.45 36.55 61.1 35.35 62.15 34.45 63.25 33 63.35 31.45 62.9 30.45 62.15 29.2 61.35 29.2 59.1 29.2 55.85 32.05 55.4 L32.05 55.45 32.5 55.4"/>
    <path stroke="none" fill="#ffffff" d="M32.7 40.4 L32.5 40.4 43.6 34.05 Q48.25 43 49.2 56.8 L38.45 51.25 46.15 47.55 32.5 40.5 32.7 40.4"/>
    <path stroke="none" fill="#633ff3" d="M47.5 70.15 L37.35 66.6 49.4 61.35 49.4 67.5 Q49.1 82.25 44.45 92.9 L44.3 93.2 38.05 89.85 45.8 86.25 32.3 79.15 32.3 79.1 47.5 70.15"/>
    <path stroke="none" fill="#6666cc" d="M32.35 79.1 L32.35 79.15 32.15 79.15 32.35 79.1"/>
    <path stroke="none" fill="#ff7def" d="M32.1 93.7 Q30.45 93.7 29.3 94.75 28.2 95.95 28.2 97.75 28.2 99.35 29.3 100.45 30.45 101.65 32.1 101.65 33.85 101.65 34.95 100.45 36.1 99.35 36.1 97.75 36.1 95.95 34.95 94.75 33.85 93.7 32.1 93.7 M32.3 79.2 L45.8 86.3 38.05 89.9 44.3 93.25 Q39.35 105.1 26.4 108.3 L17.95 108.85 27.25 105.45 11.6 97.9 26.2 89.9 18.55 86.3 32.1 79.2 32.3 79.2"/>
    <path stroke="none" fill="#633ff3" d="M36.1 97.7 Q36.1 99.35 34.95 100.4 33.85 101.6 32.1 101.6 30.45 101.6 29.3 100.4 28.2 99.3 28.2 97.7 28.2 95.9 29.3 94.75 30.45 93.65 32.1 93.65 33.85 93.65 34.95 94.75 36.1 95.9 36.1 97.7"/>
    <path stroke="none" fill="#ffffff" d="M32.2 79.05 L32.15 79.2 18.6 86.3 26.25 89.85 11.65 97.9 1.3 92.35 Q1.05 89.75 1.8 87.5 L4.4 86.3 2.75 85.45 Q4.9 81.6 10.45 79.2 L12.1 78.3 Q17.4 75.25 20.95 71.7 L32.2 79.05"/>
    <path stroke="none" fill="#ff7def" d="M11.6 97.9 L4.75 101.9 3.35 99.65 3.3 99.65 2.8 98.5 Q1.45 95.15 1.3 92.35 L11.6 97.9"/>
    <path stroke="none" fill="#633ff3" d="M4.75 101.9 L11.65 97.9 27.25 105.45 17.95 108.8 Q14.1 108.4 10.4 106.75 8.4 105.65 6.85 104.3 L5.7 103.1 4.75 101.9"/>
    <path stroke="none" fill="#ff7def" d="M35.1 2.4 Q37.9 4.8 37.95 8.25 37.9 11.6 35 14.1 32.4 16.3 28.2 16.85 L27.35 16.9 26.95 16.95 Q23.9 16.9 21.8 15.5 L21.05 14.9 Q18.2 12.5 18.3 9.1 L18.3 8.6 18.4 7.9 Q18.85 4.5 21.4 2.35 22.8 1.15 24.3 0.65 25.95 0 28.25 0 L31.3 0.4 31.7 0.55 32 0.65 32.15 0.7 Q33.3 1.1 34.4 1.85 L35.1 2.4 M30.65 2.8 L28.25 2.5 25.15 3 23 4.25 Q21.15 5.8 20.85 8.35 L20.8 8.55 20.8 9.15 Q20.75 11.4 22.6 12.95 L23.25 13.45 Q24.8 14.5 27.3 14.4 L27.7 14.4 27.85 14.35 Q31.35 13.95 33.4 12.2 35.45 10.45 35.45 8.25 35.45 6 33.4 4.25 L33 3.9 31.4 3.05 30.85 2.9 30.65 2.8 M35.4 21.95 L37.8 23.5 40.55 26.5 41.9 28.45 43.9 32 44.75 33.45 Q49.45 42.65 50.5 56.7 L50.65 61.3 50.65 67.55 Q50.4 82.55 45.6 93.45 L45.45 93.8 Q40.2 106.15 26.7 109.45 L20.35 110.15 17.85 110.05 Q13.75 109.55 9.95 107.9 L9.85 107.85 Q7.75 106.7 6.05 105.2 L4.8 103.9 3.75 102.6 2.4 100.5 2.15 100.1 1.95 99.65 1.7 99.05 1.65 98.95 Q0.3 95.5 0.05 92.4 -0.2 89.7 0.6 87.1 L1.7 84.75 Q4 80.65 9.9 78.05 L10.7 77.6 11.5 77.15 Q16.5 74.35 20 70.85 L20.3 70.5 20.55 70.2 Q23.85 66.4 24.95 61.6 26.75 54.8 23.15 46.9 L22.7 46.1 Q20 41.25 18.95 37.15 18.35 34.85 18.4 32.95 18.35 31.7 18.7 30.35 L19.05 29.25 Q19.75 26.75 21.4 25.1 L22.4 24.15 24.7 22.65 Q26.2 21.8 27.8 21.3 31.8 20.05 35.4 21.95 M23.2 26.8 Q22 28.05 21.4 30 L21.35 30.15 21.15 30.85 21.1 30.95 Q20.85 31.95 20.9 32.85 L20.9 33 Q20.85 34.55 21.35 36.55 22.35 40.3 24.9 44.95 L25.25 45.5 25.4 45.75 Q29.35 54.5 27.4 62.2 26.1 67.55 22.5 71.75 L22.2 72.15 21.95 72.45 21.8 72.55 Q18.05 76.3 12.75 79.35 L11.85 79.8 11.05 80.25 10.95 80.3 Q5.8 82.6 3.85 86.05 3.3 86.9 3 87.9 2.35 89.95 2.55 92.2 2.75 94.9 3.95 97.95 L4.3 98.7 4.35 98.85 4.45 99.05 5.75 101.1 6.7 102.25 7.75 103.4 Q9.15 104.6 11 105.6 14.4 107.15 18.1 107.55 L26.15 107.05 Q38.5 104.05 43.2 92.75 L43.25 92.65 43.35 92.35 Q47.9 82.05 48.15 67.5 L48.15 61.4 48 56.8 Q47 43.35 42.5 34.6 L41.85 33.35 41.75 33.2 39.8 29.8 38.6 28.05 36.15 25.45 Q35.2 24.65 34.25 24.15 31.55 22.75 28.55 23.7 27.25 24.1 25.9 24.85 L24 26.1 23.3 26.7 23.2 26.8"/>
  </g>
</svg>