<svg width="60.9px" height="104.9px" viewBox="0 0 60.9 104.9" xmlns="http://www.w3.org/2000/svg" xmlns:xlink="http://www.w3.org/1999/xlink">
  <defs/>
  <g>
    <path stroke="none" fill="#000000" d="M41.8 31.6 L45.05 31 45.55 31 Q48.25 31 50.75 32.15 L54.1 34 Q56 35.45 57.2 37.15 59.05 40.1 58.95 43.5 L58.95 43.85 58.95 43.95 Q58.65 47.35 57.15 50 56.3 51.55 54.85 53 L52.2 55.55 52.1 55.65 50.7 56.75 50.65 56.8 50.1 57.2 50 57.35 48.3 58.55 47 59.4 46.85 59.5 46.3 59.8 45.95 60 45.65 60.25 45.2 60.5 45 60.65 41.8 62.55 41.25 62.85 Q41.05 62.9 40.9 63 L39.45 63.8 38.05 64.5 36.8 65.15 Q43.85 68.6 48.9 72.9 L52 75.85 52.3 76.1 52.75 76.6 53.75 77.7 54.2 78.3 54.35 78.5 56.3 81.2 56.5 81.55 56.6 81.8 57.2 82.75 57.3 83 57.45 83.2 57.5 83.35 58.95 86.25 59.35 87.2 59.85 88.7 60.2 89.65 60.4 90.4 60.6 91.05 60.6 91.15 60.9 94 60.95 94.2 60.95 94.6 Q61 99.3 58.5 101.75 55.85 104.45 50.55 104.3 39.3 103.7 32.3 92 L32.15 91.8 32.05 91.65 30.75 89.15 Q26.8 104.95 17.8 104.9 L15.5 104.65 15.25 104.55 Q7.4 101.2 5.25 84.05 L5.15 83.6 4.85 80.75 4.65 78.4 4.6 77.5 4.55 76.45 4.5 75.65 4.4 74.25 4.35 72.9 4.35 72.25 4.3 70.35 4.3 64.85 4.3 64.55 4.55 56.75 4.6 55.85 4.65 54.9 4.85 51.45 5.25 46.6 5.25 46.4 5.35 45.5 5.4 45.1 5.45 44.5 5.95 40 Q8.05 22.25 12.6 11.9 L12.8 11.45 12.85 11.35 14.2 8.7 14.4 8.15 Q15.95 5.75 17.95 4.45 19.15 3.6 20.55 3.15 22.75 2.35 24.75 3.15 26 3.7 27.2 4.9 28.6 6.5 29.45 8.75 L30.35 11.55 30.4 11.85 30.4 12 30.45 12.1 Q30.85 14.2 31.05 17.25 L31.05 18.3 31.05 22 31.05 22.65 31 23.05 31 23.25 31 23.65 30.8 26.35 30.75 27.1 30.7 27.9 30.6 28.65 30.35 31.35 30.25 32.3 30.2 33.25 30.15 34.25 29.9 37.5 29.7 40.15 29.7 40.25 29.65 41 31.1 39.7 32.7 37.95 32.8 37.85 Q37.35 32.9 41.8 31.6"/>
    <path stroke="none" fill="#ffffff" d="M3.3 50.25 L3.1 51.05 3.05 51.8 3.2 52.5 1.75 52.5 1.85 50.55 2.2 50.3 Q3 49.5 3.9 47.9 L4.25 48 Q3.6 49.25 3.3 50.25"/>
    <path stroke="none" fill="#ffffff" d="M13.25 88.95 Q13.25 89.75 13.9 90.35 14.45 90.9 15.25 90.9 16.05 90.9 16.7 90.35 17.25 89.75 17.25 88.95 17.25 88.15 16.7 87.5 16.05 86.95 15.25 86.95 14.4 86.95 13.9 87.5 13.25 88.1 13.25 88.95 M19.7 68.15 L18.95 67.05 Q17.9 66.15 16.85 66.45 15.2 67.25 15.95 68.8 L16.35 69.55 Q17.15 70.45 18.9 71.55 L18.65 71.95 Q17.55 71.45 16.6 71.25 L15.25 71.1 Q13.85 71.25 13.4 72.25 12.85 74 14.45 74.5 L18.4 74.25 18.45 74.5 18.45 74.55 Q16.95 75.1 16.5 75.5 15.85 75.85 15.4 76.3 14.5 77.4 14.9 78.45 15.75 80.05 17.25 79.25 18.45 78.7 19.9 76.3 L20.15 76.4 Q19.5 77.55 19.35 78.45 L19.1 79.75 Q19.15 81.15 20.15 81.75 21.9 82.3 22.45 80.75 22.9 79.55 22.4 76.7 L22.7 76.6 23.55 78.45 24.3 79.65 Q25.35 80.45 26.4 80.2 28.05 79.35 27.4 77.9 26.85 76.7 24.5 75.15 L24.55 75.05 26.6 75.65 28 75.85 Q29.4 75.65 29.9 74.6 30.35 72.85 28.75 72.45 L24.85 72.75 24.75 72.4 26.8 71.65 27.95 70.95 Q28.75 70.3 28.85 69.55 L28.75 68.95 Q28.1 67.2 26.55 67.8 25.6 68.1 24.45 69.55 L23.45 70.7 23.25 70.6 23.85 69.55 24.2 68.65 24.55 67.35 Q24.55 65.95 23.7 65.3 21.95 64.55 21.35 66.05 20.7 67.1 20.95 69.55 L21 70.2 20.75 70.25 20.45 69.55 19.7 68.15 M18.4 60.45 Q19.05 59.85 19.05 58.9 19.05 58.1 18.4 57.45 17.75 56.85 16.9 56.9 16.1 56.9 15.45 57.45 14.8 58.1 14.8 58.9 14.8 59.85 15.45 60.45 16.1 61.05 16.9 61.05 17.75 61.05 18.4 60.45 M38.95 30.85 L41.95 30.3 Q44.55 30.15 47.2 31.35 49 32.15 50.4 33.15 49.75 33.95 49.8 34.8 L49.8 34.85 49.85 35.45 50.1 35.9 50.35 36.3 50.7 36.55 52.1 36.8 53.25 36.05 53.3 36.05 Q54.15 37.3 54.5 38.7 52.95 37.3 51 38.7 48.9 40.1 46.8 45.4 L46.45 45.2 47.25 41.4 47.2 38.85 Q46.55 36.3 44.65 35.7 41.4 35.2 40.75 38.1 40.25 40.6 42.35 45.65 L41.85 45.9 39 42.6 37.05 40.95 Q34.75 39.9 33 40.9 30.45 43.2 32.5 45.55 34.05 47.5 39.2 49.15 L39 49.85 34.95 49.6 32.5 50.05 Q30.35 50.8 29.75 52.5 L29.65 52.95 Q29.5 56.2 32.55 56.45 35.05 56.65 39.55 54.15 L39.7 54.45 39.75 54.65 Q37.4 56.3 36.7 57.25 35.65 58.25 35.15 59.15 34.45 60.75 34.7 61.95 L34.1 62.25 31.55 63.5 Q31.1 63.7 31 64 L31.55 64.55 32.65 65.1 Q36.75 67.1 40.35 69.55 42.85 71.1 45 73 L45.95 73.8 46.85 74.65 Q46.1 76.65 46.7 80.55 L46.25 80.6 44.7 77.35 43.45 75.6 Q41.85 74.2 40.25 74.65 37.65 75.95 38.75 78.25 39.6 80.2 43.4 82.65 L43.05 83.25 Q41.3 82.5 39.95 82.1 L37.8 81.95 Q35.65 82.1 34.9 83.65 34.35 85.6 35.45 86.6 L36.5 87.15 42.6 86.75 42.7 87.05 42.7 87.2 Q40.4 88.05 39.7 88.6 38.55 89.25 38 89.85 36.6 91.65 37.2 93.2 38.6 95.7 40.8 94.5 42.65 93.7 44.9 89.85 L45.3 90.1 Q44.4 91.8 44 93.2 L43.65 95.25 Q43.75 97.4 45.3 98.25 48 99.25 48.8 96.8 49.65 94.9 48.75 90.55 L49.25 90.35 Q49.85 92.1 50.55 93.25 L51.75 95 Q53.4 96.4 55 95.95 57.6 94.75 56.5 92.4 55.65 90.55 52 88.15 L52.15 87.95 55.25 88.95 56.05 89.1 56.25 89.7 56.6 91.05 56.9 93.9 56.9 94.35 Q57 103.3 47.55 103 36.7 102.45 29.8 90.9 L29.7 90.75 27.35 86.6 26.6 85.5 26.4 86.6 Q22.2 105.6 11.8 103.4 5.15 100.45 2.8 86.6 L2.25 83.05 2.15 82.9 2.15 82.6 2.1 82.3 2 81 2.05 81 3.85 81.8 Q5.7 81.9 6.7 80.8 7.9 78.75 5.95 77.65 4.7 76.65 1.6 76.65 L1.6 76.1 3.7 75.9 Q4.75 75.8 5.45 75.4 7.1 74.55 7.2 73.05 7 70.55 4.7 70.75 3.4 70.85 1.35 72.25 L1.35 71.95 1.35 71.3 1.35 71.2 1.35 71.15 2.3 69.55 2.5 67.9 1.85 66.6 1.3 66.25 1.3 63.8 1.55 55.5 1.65 53.65 1.75 52.5 3.15 52.5 3.3 52.95 Q3.55 53.6 4.2 53.9 6.15 54.55 6.75 52.9 L6.95 52.5 Q7.25 51 6.7 48.3 L7.05 48.25 8 50.3 8.85 51.6 Q10.05 52.6 11.2 52.3 13.1 51.35 12.25 49.7 11.65 48.3 9.05 46.6 L9.1 46.45 11.35 47.2 13 47.4 Q14.5 47.1 15.05 46.05 15.55 44.1 13.8 43.6 L9.4 43.9 9.35 43.55 11.6 42.75 12.95 42 Q14.05 40.9 13.75 39.7 13.1 37.75 11.35 38.4 9.85 38.9 7.85 41.7 L7.7 41.55 8.75 39.4 9.1 37.9 Q9.15 36.3 8.1 35.7 7.65 35.4 7.25 35.45 L6.75 35.45 Q5.9 35.5 5.45 36.5 4.75 37.85 5.2 41.15 L4.9 41.2 3.8 38.85 3.05 37.85 3.35 35.45 Q5.45 19.5 9.75 9.8 L10 9.3 Q10.6 7.9 11.35 6.6 L11.45 6.3 Q12.95 3.95 14.75 2.75 16 1.95 17.1 1.6 18.95 0.9 20.5 1.6 L22.65 3.05 Q23.85 4.45 24.65 6.6 L25.55 9.3 25.6 9.8 26.05 12.65 24.9 15.05 24.5 14.95 24.75 11.35 24.6 9.3 Q23.8 7.4 22.3 6.95 19.55 6.8 19.35 9.3 19.1 11.3 21.1 15.2 L20.5 15.55 Q19.4 14.05 18.35 13.1 L16.75 11.85 Q14.75 11.05 13.45 11.85 11.5 13.8 13.1 15.65 14.45 17.1 18.4 18.3 L18.4 18.65 18.35 18.75 15.05 18.45 13 18.65 Q11.05 19.5 10.65 21.1 10.65 23.9 13.1 24 15.15 24.15 18.85 22.05 L19.1 22.45 16.5 24.45 15.15 26 Q14.2 27.85 15.15 29.35 16.85 31.45 18.8 29.85 20.35 28.65 21.75 24.45 L22.25 24.6 Q21.95 26.35 21.95 27.6 L22.15 29.8 Q22.8 31.7 24.45 32.1 L25.3 32.1 25.3 32.25 25.05 35.45 24.85 38.3 24.8 39.35 Q25.1 42.5 28.5 38.75 L30.25 36.9 31.75 35.45 Q35.35 31.85 38.95 30.85"/>
    <path stroke="none" fill="#ff0000" d="M21.05 70.2 Q20.65 67.3 21.35 66.05 21.95 64.55 23.7 65.3 24.55 65.95 24.55 67.35 L24.2 68.65 23.25 70.55 22.8 70.4 23.3 69.5 Q23.85 68.05 23 67.45 22.05 67 21.6 67.85 21.25 68.5 21.5 70.15 L21.05 70.2"/>
    <path stroke="none" fill="#ff99cc" d="M21.6 67.85 Q22.1 67 23 67.45 23.85 68.05 23.35 69.5 L22.85 70.4 Q22.3 70.1 21.65 70.15 L21.55 70.15 Q21.25 68.5 21.6 67.85"/>
    <path stroke="none" fill="#ff0000" d="M23.9 73.5 Q23.9 72.65 23.25 72 22.6 71.35 21.7 71.4 20.8 71.4 20.15 72 19.5 72.65 19.55 73.5 19.55 74.45 20.15 75.1 20.8 75.75 21.7 75.75 22.6 75.75 23.25 75.1 23.9 74.45 23.9 73.5 M21.05 70.2 L21.5 70.15 21.65 70.15 22.85 70.4 23.25 70.6 23.45 70.7 23.75 70.95 23.95 71.15 24.55 71.95 24.75 72.4 24.85 72.75 24.95 73.2 24.95 73.5 24.75 74.6 24.55 75.05 24.5 75.15 24.25 75.55 23.95 75.8 23.2 76.4 22.7 76.6 22.4 76.7 21.9 76.8 21.65 76.8 20.6 76.6 20.15 76.4 19.9 76.3 19.5 76 19.3 75.8 18.65 74.9 18.5 74.55 18.5 74.5 18.4 74.25 18.3 73.8 18.3 73.5 18.5 72.4 18.65 71.95 18.9 71.6 19.25 71.2 19.3 71.15 20.2 70.45 20.8 70.25 21.05 70.2"/>
    <path stroke="none" fill="#ffffff" d="M19.55 73.5 Q19.55 72.7 20.15 72 20.8 71.4 21.7 71.4 22.6 71.4 23.25 72 23.9 72.65 23.9 73.5 23.9 74.45 23.25 75.1 22.6 75.75 21.7 75.75 20.8 75.75 20.15 75.1 19.55 74.45 19.55 73.5"/>
    <path stroke="none" fill="#ff0000" d="M26.55 67.8 Q28.15 67.2 28.8 68.95 29 70 28 70.95 27.55 71.4 26.8 71.65 L24.75 72.4 24.55 71.95 25.55 71.65 Q26.95 71 26.8 70 26.4 68.95 25.55 69.2 24.8 69.5 23.75 70.95 L23.45 70.7 Q25.25 68.2 26.55 67.8"/>
    <path stroke="none" fill="#ff99cc" d="M23.95 71.15 L23.75 70.95 Q24.8 69.45 25.55 69.2 26.4 68.95 26.8 70 26.95 71 25.55 71.6 L24.55 71.95 23.95 71.15"/>
    <path stroke="none" fill="#ff0000" d="M15.25 71.1 L16.6 71.3 18.65 71.95 18.45 72.4 17.6 72.1 Q16.05 71.65 15.6 72.65 15.3 73.65 16.1 73.95 L18.3 73.85 18.4 74.25 14.45 74.5 Q12.85 74.05 13.4 72.3 13.85 71.25 15.25 71.1"/>
    <path stroke="none" fill="#ff0000" d="M18.95 67.05 L19.7 68.15 20.75 70.25 20.2 70.45 19.85 69.4 Q19.1 68.05 18.1 68.35 17.1 68.8 17.4 69.65 17.7 70.3 19.2 71.2 L18.9 71.55 Q16.4 70 15.95 68.75 15.2 67.3 16.85 66.4 17.9 66.1 18.95 67.05"/>
    <path stroke="none" fill="#ff99cc" d="M17.4 69.65 Q17.1 68.8 18.1 68.35 19.1 68.05 19.85 69.4 L20.2 70.45 19.3 71.15 19.2 71.2 Q17.7 70.35 17.4 69.65"/>
    <path stroke="none" fill="#ff0000" d="M14.85 78.45 Q14.5 77.4 15.35 76.3 L16.45 75.5 Q16.95 75.1 18.45 74.55 L18.65 74.9 Q18.1 75.1 17.7 75.35 16.35 76.1 16.65 77.1 17.15 78.1 18 77.7 18.7 77.4 19.45 76 L19.9 76.3 Q18.4 78.7 17.2 79.25 15.7 80.05 14.85 78.45"/>
    <path stroke="none" fill="#ff99cc" d="M16.15 73.95 Q15.3 73.7 15.65 72.65 16.05 71.65 17.6 72.1 L18.5 72.4 18.3 73.5 18.3 73.85 16.15 73.95"/>
    <path stroke="none" fill="#ff99cc" d="M16.65 77.05 Q16.35 76.05 17.7 75.35 18.05 75.05 18.65 74.9 L19.25 75.75 19.45 75.95 Q18.7 77.4 18 77.7 17.15 78.1 16.65 77.05"/>
    <path stroke="none" fill="#ff0000" d="M21.9 76.75 L22.4 76.7 Q22.95 79.5 22.45 80.75 21.9 82.3 20.15 81.75 19.15 81.15 19.1 79.75 L19.35 78.45 Q19.5 77.5 20.15 76.4 L20.6 76.6 20.15 77.5 Q19.7 79 20.6 79.5 21.65 79.9 21.95 79.05 22.35 78.35 21.9 76.75"/>
    <path stroke="none" fill="#ff99cc" d="M20.15 77.55 L20.6 76.6 21.65 76.8 21.9 76.8 Q22.35 78.35 21.95 79.1 21.65 79.9 20.6 79.5 19.7 79.05 20.15 77.55"/>
    <path stroke="none" fill="#ff0000" d="M28.75 72.45 Q30.35 72.85 29.9 74.6 29.4 75.65 28 75.85 L26.6 75.65 24.55 75.05 24.75 74.6 25.75 74.9 Q27.2 75.2 27.65 74.35 27.95 73.3 27.1 73 L24.9 73.2 24.85 72.75 28.75 72.45"/>
    <path stroke="none" fill="#ff99cc" d="M25.75 74.95 L24.75 74.6 24.95 73.5 24.95 73.2 27.1 73 Q27.95 73.3 27.65 74.35 27.2 75.2 25.75 74.95"/>
    <path stroke="none" fill="#ff99cc" d="M23.2 76.4 L23.95 75.8 24.25 75.55 Q25.6 76.4 25.85 77.05 26.15 77.85 25.2 78.35 24.2 78.65 23.45 77.2 L23.2 76.4"/>
    <path stroke="none" fill="#ff0000" d="M24.25 75.5 L24.5 75.15 Q26.85 76.7 27.4 77.9 28.1 79.35 26.4 80.15 25.35 80.45 24.3 79.6 L23.55 78.45 22.7 76.6 23.2 76.4 23.45 77.2 Q24.15 78.6 25.2 78.3 26.15 77.85 25.85 77 25.6 76.35 24.25 75.5"/>
    <path stroke="none" fill="#ff0000" d="M18.4 57.45 Q19.05 58.1 19 58.95 19.05 59.85 18.4 60.5 17.75 61.05 16.9 61.05 16.1 61.05 15.4 60.5 14.8 59.85 14.8 58.95 14.8 58.1 15.4 57.45 16.05 56.9 16.9 56.9 17.75 56.9 18.4 57.45"/>
    <path stroke="none" fill="#ff0000" d="M15.25 90.9 Q14.4 90.9 13.85 90.35 13.25 89.75 13.25 88.95 13.25 88.15 13.85 87.5 14.4 86.95 15.25 86.95 16.05 86.95 16.65 87.5 17.2 88.1 17.2 88.95 17.2 89.75 16.65 90.35 16.05 90.9 15.25 90.9"/>
    <path stroke="none" fill="#ff0000" d="M24.75 11.35 L24.5 14.95 23.65 14.7 23.9 13 Q24 10.65 22.5 10.35 20.9 10.15 20.65 11.55 20.45 12.75 21.8 14.95 L21.05 15.2 Q19.1 11.3 19.35 9.3 19.5 6.8 22.3 6.95 23.8 7.4 24.6 9.3 L24.75 11.35"/>
    <path stroke="none" fill="#ff0000" d="M19.9 15.95 L19.05 14.85 Q17.4 13.2 16.05 14.05 14.85 15.15 15.7 16.25 16.4 17.05 18.55 17.7 L18.4 18.3 Q14.4 17.1 13.05 15.65 11.45 13.8 13.45 11.85 14.75 11.05 16.7 11.85 L18.35 13.1 20.5 15.55 19.9 15.95"/>
    <path stroke="none" fill="#ff99cc" d="M15.75 16.25 Q14.9 15.15 16.1 14.05 17.45 13.2 19.1 14.85 L19.9 15.95 Q19.35 16.5 18.95 17.25 L18.6 17.7 Q16.45 17.1 15.75 16.25"/>
    <path stroke="none" fill="#ff0000" d="M23.7 14.7 L24.5 14.95 24.9 15 25.55 15.3 25.75 15.4 26.2 15.7 26.2 15.95 26.3 18.5 24.85 17.05 Q23.75 16.4 22.45 16.6 21.1 17.1 20.45 18.15 19.8 19.4 20.1 20.7 20.45 22.05 21.55 22.7 22.75 23.35 24.1 23.05 25.1 22.8 25.75 21.95 L26.1 21.4 26.15 21.35 26.15 21.4 26.05 23.9 25.9 23.95 25.8 24.05 25.65 24.05 25.1 24.3 24.5 24.5 23.05 24.75 22.25 24.55 21.75 24.45 21.15 24.2 20.7 24 19.55 22.95 19.1 22.45 18.85 22 18.55 21.35 18.4 21 Q18.15 20.1 18.2 19.35 L18.35 18.75 18.4 18.6 18.4 18.3 18.6 17.7 18.9 17.25 19.9 15.95 20.5 15.5 21.1 15.2 21.8 14.95 21.95 14.95 23.7 14.7"/>
    <path stroke="none" fill="#ff0000" d="M18.35 18.8 L18.2 19.4 16.75 19.25 Q14.4 19.2 14.1 20.7 14 22.35 15.35 22.55 16.5 22.65 18.5 21.4 L18.85 22.05 Q15.1 24.15 13.05 24.05 10.65 23.95 10.65 21.15 11.05 19.5 13 18.65 L15.05 18.45 18.35 18.8"/>
    <path stroke="none" fill="#ff99cc" d="M15.4 22.5 Q14.05 22.3 14.15 20.65 14.45 19.15 16.75 19.2 L18.25 19.35 Q18.15 20.1 18.45 21 L18.55 21.35 Q16.5 22.6 15.4 22.5"/>
    <path stroke="none" fill="#ffffff" d="M26.3 18.5 L26.2 19.65 26.2 20.4 26.15 21 26.15 21.25 26.1 21.4 25.75 21.95 Q25.1 22.8 24.1 23.05 22.75 23.35 21.55 22.7 20.45 22.05 20.1 20.7 19.8 19.4 20.45 18.15 21.05 17.1 22.45 16.6 23.75 16.4 24.85 17.05 L26.3 18.5"/>
    <path stroke="none" fill="#ff99cc" d="M17.35 26.75 Q16.55 25.5 18.25 23.9 L19.55 22.95 20.7 24 21.15 24.2 Q20.5 26.55 19.55 27.25 18.4 28.05 17.35 26.75"/>
    <path stroke="none" fill="#ff0000" d="M15.1 29.35 Q14.2 27.85 15.1 26 15.65 25.15 16.5 24.45 L19.1 22.45 19.5 22.95 18.2 23.9 Q16.55 25.5 17.35 26.75 18.4 28.05 19.5 27.2 20.45 26.55 21.15 24.2 L21.75 24.45 Q20.35 28.6 18.75 29.85 16.85 31.45 15.1 29.35"/>
    <path stroke="none" fill="#ff99cc" d="M21.8 14.95 Q20.45 12.75 20.6 11.55 20.9 10.2 22.5 10.35 24 10.65 23.9 13 L23.65 14.7 21.95 14.95 21.8 14.95"/>
    <path stroke="none" fill="#ff99cc" d="M26.15 14.05 L26.25 15 26.25 15.7 25.75 15.4 25.55 15.35 26.15 14.05"/>
    <path stroke="none" fill="#ff0000" d="M26.15 14 L26.15 14.05 25.5 15.35 24.9 15.05 26 12.7 26.15 14"/>
    <path stroke="none" fill="#ff0000" d="M22.15 29.8 L21.95 27.65 Q21.95 26.35 22.25 24.6 L23.05 24.8 22.75 26.05 Q22.65 28.35 24.25 28.75 L25.6 28.45 25.5 29.3 25.4 30.2 25.3 32.1 24.45 32.1 Q22.8 31.75 22.15 29.8"/>
    <path stroke="none" fill="#ffffff" d="M25.8 24.05 L25.9 23.95 25.95 24.05 25.95 24.15 25.95 24.65 25.65 24.05 25.8 24.05"/>
    <path stroke="none" fill="#ff0000" d="M26.05 23.9 L25.95 24.05 25.9 23.95 26.05 23.9"/>
    <path stroke="none" fill="#ff99cc" d="M25.75 25.6 L25.85 25.95 25.85 26 25.8 26.4 25.6 28.45 24.25 28.75 Q22.65 28.35 22.75 26 L23.05 24.8 24.5 24.55 25.1 24.35 25.15 24.45 25.75 25.6"/>
    <path stroke="none" fill="#ff0000" d="M25.15 24.45 L25.1 24.35 25.65 24.1 25.95 24.65 25.9 24.85 25.85 25.7 25.85 25.95 25.7 25.6 25.15 24.45"/>
    <path stroke="none" fill="#ff99cc" d="M5.2 41.15 Q4.8 37.9 5.45 36.5 6.3 34.85 8.15 35.7 9.15 36.35 9.15 37.9 L8.75 39.4 7.7 41.6 Q7.45 41.4 7.2 41.35 L7.75 40.35 Q8.4 38.75 7.45 38.1 6.3 37.55 5.85 38.5 5.4 39.2 5.7 41.1 L5.2 41.15"/>
    <path stroke="none" fill="#ff99cc" d="M11.55 42.75 L9.35 43.55 9.1 43.05 10.2 42.75 Q11.8 42 11.55 40.95 11.2 39.75 10.2 40.1 9.35 40.25 8.2 41.95 L7.85 41.7 Q9.8 38.9 11.3 38.4 13.1 37.75 13.75 39.7 14.05 40.9 12.95 42 L11.55 42.75"/>
    <path stroke="none" fill="#ff0000" d="M10.25 40.05 Q11.25 39.75 11.6 40.95 11.85 41.95 10.25 42.7 L9.1 43.05 8.5 42.1 8.25 41.9 Q9.4 40.25 10.25 40.05"/>
    <path stroke="none" fill="#ffffff" d="M4.25 43.1 Q3.55 43.85 3.55 44.75 3.55 45.85 4.25 46.5 4.95 47.25 5.95 47.25 7 47.25 7.65 46.5 8.4 45.85 8.4 44.75 8.4 43.85 7.65 43.1 7 42.45 5.95 42.4 4.95 42.45 4.25 43.1 M2.5 43.2 L2.55 43.1 2.55 43.05 2.85 42.65 3.2 42.25 3.25 42.1 4.3 41.35 4.9 41.15 5.2 41.1 5.7 41.05 5.85 41.05 7.2 41.3 Q7.45 41.35 7.7 41.55 L7.9 41.65 8.25 41.9 8.5 42.1 9.15 43.05 9.4 43.55 9.45 43.9 9.55 44.4 9.55 44.7 9.4 45.95 9.15 46.45 9.05 46.55 8.75 47 8.5 47.35 7.6 48 7.1 48.25 6.7 48.3 6.15 48.35 5.85 48.45 4.75 48.25 4.25 48 3.9 47.85 3.5 47.5 3.25 47.35 2.55 46.3 2.35 45.95 2.35 45.8 2.3 45.65 2.25 45.6 2.3 45.1 2.3 44.75 2.35 44.15 2.5 43.2"/>
    <path stroke="none" fill="#ff0000" d="M5.95 42.45 Q7 42.45 7.65 43.15 8.4 43.9 8.4 44.8 8.4 45.85 7.65 46.55 7 47.3 5.95 47.3 4.95 47.3 4.25 46.55 3.55 45.85 3.55 44.8 3.55 43.85 4.25 43.15 4.95 42.45 5.95 42.45"/>
    <path stroke="none" fill="#ff99cc" d="M9.4 43.9 L13.8 43.6 Q15.55 44.05 15.05 46.05 14.5 47.15 13 47.4 L11.35 47.2 9.1 46.45 9.35 45.95 10.4 46.4 Q12 46.75 12.55 45.7 12.9 44.5 11.9 44.25 L9.55 44.4 9.4 43.9"/>
    <path stroke="none" fill="#ff99cc" d="M9.05 46.6 Q11.6 48.35 12.25 49.7 13.1 51.35 11.2 52.3 10 52.6 8.85 51.6 8.35 51.15 8 50.3 L7.05 48.25 7.55 48.05 7.85 48.95 Q8.7 50.5 9.8 50.2 10.9 49.75 10.5 48.7 10.25 47.95 8.7 47.05 L9.05 46.6"/>
    <path stroke="none" fill="#ff0000" d="M11.9 44.25 Q12.9 44.55 12.55 45.75 12 46.8 10.4 46.4 L9.35 46 9.55 44.75 9.55 44.45 11.9 44.25"/>
    <path stroke="none" fill="#ff0000" d="M10.55 48.65 Q10.9 49.7 9.8 50.15 8.75 50.5 7.85 48.9 L7.55 48 Q8 47.85 8.5 47.35 L8.75 47 Q10.25 47.95 10.55 48.65"/>
    <path stroke="none" fill="#ff99cc" d="M32.55 56.45 Q29.55 56.2 29.65 52.95 30 50.9 32.5 50.05 L35 49.6 39 49.85 38.75 50.85 37.1 50.55 Q34.2 50.55 33.8 52.45 33.75 54.4 35.4 54.7 36.7 54.75 39.15 53.35 L39.55 54.15 Q35.05 56.65 32.55 56.45"/>
    <path stroke="none" fill="#ff99cc" d="M39 42.6 L41.85 45.9 41 46.5 39.75 44.75 Q37.8 42.7 36.15 43.75 34.7 44.95 35.6 46.3 36.5 47.45 39.55 48.4 39.3 48.75 39.2 49.15 34.1 47.5 32.5 45.55 30.5 43.2 33 40.9 34.75 39.9 37.1 40.95 L39 42.6"/>
    <path stroke="none" fill="#ff99cc" d="M2.95 38.4 L3 37.85 3.75 38.85 4.9 41.2 4.25 41.4 3.85 40.2 2.9 39.15 2.95 38.4"/>
    <path stroke="none" fill="#ff0000" d="M2.9 39.15 L3.85 40.2 4.25 41.4 3.2 42.15 3.15 42.25 2.6 41.9 2.9 39.15"/>
    <path stroke="none" fill="#ff0000" d="M5.7 41.1 Q5.35 39.2 5.8 38.5 6.3 37.55 7.4 38.1 8.35 38.75 7.7 40.35 L7.15 41.35 5.8 41.1 5.7 41.1"/>
    <path stroke="none" fill="#ff99cc" d="M2.55 42.5 L2.6 41.9 3.15 42.25 2.85 42.7 2.55 42.5"/>
    <path stroke="none" fill="#ffffff" d="M2.55 42.5 L2.85 42.7 2.55 43.05 2.5 43.05 2.5 43 2.55 42.5"/>
    <path stroke="none" fill="#ff99cc" d="M2.55 43.05 L2.55 43.1 2.5 43.25 2.5 43.05 2.55 43.05"/>
    <path stroke="none" fill="#ff0000" d="M2.5 46.35 L3.2 47.4 3.45 47.55 Q2.6 49.1 1.9 49.45 L2.15 46.55 2.5 46.35"/>
    <path stroke="none" fill="#ff99cc" d="M3.45 47.5 L3.9 47.85 2.15 50.3 1.85 50.55 1.85 50.5 1.85 50 1.9 49.4 Q2.6 49.05 3.45 47.5"/>
    <path stroke="none" fill="#ff99cc" d="M6.15 48.35 L6.7 48.3 Q7.35 51.5 6.75 52.9 6.15 54.55 4.25 53.9 3.6 53.6 3.3 52.95 3.05 52.45 3.05 51.8 L3.1 51.05 3.3 50.25 Q3.55 49.2 4.25 48 L4.7 48.25 4.25 49.25 Q3.75 50.9 4.7 51.45 5.85 51.95 6.25 50.9 6.6 50.15 6.15 48.35"/>
    <path stroke="none" fill="#ff0000" d="M4.7 51.45 Q3.7 50.9 4.2 49.25 L4.7 48.25 5.8 48.45 6.15 48.35 Q6.55 50.15 6.25 50.9 5.8 51.95 4.7 51.45"/>
    <path stroke="none" fill="#ffffff" d="M2.35 45.85 L2.35 45.95 2.25 46 2.25 45.7 2.3 45.65 2.35 45.85"/>
    <path stroke="none" fill="#ff99cc" d="M2.15 46.5 L2.2 46 2.35 45.95 2.5 46.3 2.15 46.5"/>
    <path stroke="none" fill="#ff99cc" d="M2.25 45.6 L2.3 45.65 2.25 45.7 2.25 45.6"/>
    <path stroke="none" fill="#ff0000" d="M1.3 69.4 L1.3 66.25 1.85 66.6 Q2.35 67.2 2.45 67.9 L2.3 69.55 1.35 71.15 1.3 69.4"/>
    <path stroke="none" fill="#ff0000" d="M7.2 73.05 Q7.1 74.55 5.45 75.4 L3.7 75.9 1.6 76.1 1.55 75.55 1.55 75.5 2.1 75.5 Q4.15 75.15 4.25 73.75 4.2 72.35 2.9 72.4 2.25 72.3 1.4 72.95 L1.35 72.25 Q3.4 70.85 4.7 70.75 7 70.55 7.2 73.05"/>
    <path stroke="none" fill="#ff99cc" d="M1.4 72.9 Q2.25 72.25 2.9 72.35 4.15 72.35 4.25 73.75 4.15 75.15 2.1 75.45 L1.5 75.45 1.45 74.85 1.4 72.9"/>
    <path stroke="none" fill="#ff0000" d="M2.05 81 L1.95 80.95 1.85 80.1 Q3.15 80.45 3.9 79.65 4.6 78.4 3.6 77.7 3.05 77.25 1.65 77.2 L1.6 76.65 Q4.7 76.65 5.95 77.65 7.9 78.75 6.7 80.8 5.65 81.9 3.85 81.8 L2.05 81"/>
    <path stroke="none" fill="#ff99cc" d="M1.65 77.5 L1.65 77.2 Q3.05 77.25 3.55 77.7 4.6 78.4 3.9 79.6 3.15 80.45 1.85 80.1 L1.85 80 1.65 77.5"/>
    <path stroke="none" fill="#ff99cc" d="M50.1 35.95 Q49.7 35.45 49.75 34.9 L49.75 34.8 Q49.75 34 50.4 33.15 52.15 34.45 53.3 36.05 L53.25 36.05 52.05 36.8 Q51.4 37 50.7 36.55 L50.3 36.3 50.1 35.95"/>
    <path stroke="none" fill="#ff99cc" d="M47.5 45.6 L46.8 45.4 Q48.9 40.1 51 38.7 52.95 37.3 54.5 38.7 54.95 40.1 54.85 41.8 L54.85 42.15 54.55 44.4 53.25 45.45 49.95 47.75 49.45 47 51.1 46.1 Q53.25 44.3 52.45 42.65 51.4 40.95 49.9 41.8 48.6 42.45 47.5 45.6"/>
    <path stroke="none" fill="#ff99cc" d="M44.65 35.65 Q46.55 36.3 47.2 38.85 L47.25 41.35 46.45 45.2 45.55 45.1 46 43.3 Q46.3 40.5 44.6 39.8 42.65 39.45 42.15 41.2 41.8 42.55 43.1 45.35 L42.35 45.65 Q40.25 40.6 40.75 38.1 41.4 35.2 44.65 35.65"/>
    <path stroke="none" fill="#ffffff" d="M43.3 45.3 L45.6 45.1 46.45 45.25 46.85 45.45 47.5 45.6 48 45.95 49.5 47.05 50 47.8 50.35 48.4 50.75 49.15 50.8 49.65 51.05 50.75 48.8 52.95 Q49.3 51.7 48.95 50.2 48.55 48.7 47.15 47.8 45.65 47 43.95 47.5 42.5 47.95 41.6 49.2 40.75 50.75 41.2 52.3 41.65 53.95 43.1 54.8 44.45 55.6 45.85 55.3 L43.3 57.1 43.15 57.05 43.05 57.05 42.25 56.7 41.85 56.55 41.8 56.55 40.3 55.15 39.75 54.65 39.7 54.5 39.55 54.2 39.15 53.35 39 52.8 Q38.7 51.75 38.75 50.9 L39 49.9 39.2 49.15 Q39.3 48.8 39.55 48.4 L39.65 48.15 Q40.25 47.15 41 46.55 L41.85 45.95 42.35 45.7 43.1 45.35 43.3 45.3"/>
    <path stroke="none" fill="#ff0000" d="M42.15 41.2 Q42.6 39.45 44.55 39.8 46.3 40.5 46 43.3 L45.55 45.1 43.25 45.25 43.05 45.35 Q41.75 42.55 42.15 41.2"/>
    <path stroke="none" fill="#ff0000" d="M39.65 48.15 Q39.55 48.3 39.6 48.4 36.5 47.5 35.6 46.3 34.7 44.95 36.15 43.75 37.8 42.7 39.75 44.75 L41 46.55 Q40.25 47.15 39.65 48.15"/>
    <path stroke="none" fill="#ff0000" d="M35.4 54.7 Q33.75 54.45 33.8 52.45 34.2 50.55 37.1 50.55 L38.75 50.85 Q38.7 51.7 39 52.8 L39.15 53.35 Q36.7 54.75 35.4 54.7"/>
    <path stroke="none" fill="#ff0000" d="M48.9 50.15 Q49.25 51.65 48.8 52.9 L48.35 53.25 46.85 54.45 46.15 55 45.8 55.25 Q44.45 55.55 43.05 54.75 41.6 53.95 41.15 52.25 40.7 50.75 41.6 49.15 42.45 47.9 43.95 47.45 45.6 46.95 47.1 47.75 48.5 48.7 48.9 50.15"/>
    <path stroke="none" fill="#ff0000" d="M46.05 55.2 L45.85 55.25 45.8 55.25 46.15 55 46.85 54.45 48.35 53.25 48.75 52.9 48.55 53.35 Q47.7 54.75 46.05 55.2"/>
    <path stroke="none" fill="#ff99cc" d="M34.7 61.95 Q34.45 60.75 35.15 59.2 35.65 58.25 36.7 57.25 37.4 56.3 39.75 54.65 L40.3 55.15 Q39.35 55.8 38.9 56.4 36.85 58.35 37.9 60 L38.05 60.25 Q37.95 60.2 37.9 60.3 L36.95 60.8 34.7 61.95"/>
    <path stroke="none" fill="#ff99cc" d="M53.9 46.6 L53.2 47.9 Q52.15 48.3 50.7 49.15 L50.35 48.4 Q52.3 47.2 53.9 46.6"/>
    <path stroke="none" fill="#ffffff" d="M53.25 45.45 L54.55 44.4 53.85 46.55 Q52.3 47.2 50.3 48.35 L49.95 47.75 53.25 45.45"/>
    <path stroke="none" fill="#ff0000" d="M49.9 41.85 Q51.4 40.95 52.45 42.7 53.25 44.3 51.1 46.1 L49.5 47.05 48 45.95 47.5 45.6 Q48.6 42.5 49.9 41.85"/>
    <path stroke="none" fill="#ff0000" d="M50.75 49.65 L50.7 49.15 Q52.1 48.3 53.2 47.9 52.35 49.4 51 50.7 L50.75 49.65"/>
    <path stroke="none" fill="#ff99cc" d="M43 57 L43.15 57 43.15 57.15 43.05 57.2 Q42.75 57.3 42.4 57.55 42.1 57.65 41.95 57.9 L42.05 57.25 42.2 56.7 43 57"/>
    <path stroke="none" fill="#ff0000" d="M38.1 60.25 L37.9 60 Q36.85 58.35 38.9 56.4 L40.3 55.15 41.8 56.5 41.85 56.5 42.25 56.7 42.1 57.25 42 57.9 41.75 58 Q41.45 58.2 41.1 58.35 L38.1 60.25"/>
    <path stroke="none" fill="#ffffff" d="M43.25 57.05 L43.15 57.1 43.15 57 43.25 57.05"/>
    <path stroke="none" fill="#ff99cc" d="M42.15 77.65 Q40.65 78.3 41.1 79.65 41.55 80.75 43.9 82.1 43.6 82.3 43.4 82.65 39.55 80.2 38.75 78.25 37.65 75.95 40.2 74.65 41.85 74.2 43.45 75.6 L44.7 77.35 46.25 80.6 Q45.9 80.7 45.45 80.95 L44.8 79.25 Q43.6 77.15 42.15 77.65"/>
    <path stroke="none" fill="#ff99cc" d="M36.5 87.15 Q34.1 86.35 34.9 83.65 35.65 82.1 37.85 81.9 L39.95 82.1 Q41.3 82.5 43.05 83.25 L42.7 83.9 Q42 83.55 41.4 83.35 39.05 82.7 38.4 84.2 37.8 85.8 39.15 86.35 L42.45 86.1 42.6 86.75 36.5 87.15"/>
    <path stroke="none" fill="#ff0000" d="M39.1 86.3 Q37.8 85.8 38.35 84.2 39.05 82.7 41.4 83.35 41.95 83.55 42.7 83.9 42.45 84.65 42.45 85.55 L42.45 86.05 39.1 86.3"/>
    <path stroke="none" fill="#ff0000" d="M41.1 79.6 Q40.65 78.3 42.15 77.65 43.65 77.15 44.85 79.25 L45.45 80.95 43.95 81.9 43.9 82.1 Q41.55 80.75 41.1 79.6"/>
    <path stroke="none" fill="#ffffff" d="M45.3 83.3 Q44.3 84.3 44.3 85.6 44.3 87.05 45.3 88.1 46.3 89.1 47.65 89.05 49.05 89.1 50.1 88.1 51.1 87.05 51.05 85.6 51.1 84.3 50.1 83.3 49.05 82.3 47.65 82.3 46.3 82.3 45.3 83.3 M49.4 80.8 L50.1 81.15 50.4 81.3 Q50.65 81.4 50.8 81.65 L51.2 81.95 Q51.85 82.5 52.1 83.25 L52.35 83.85 52.55 84.4 52.7 85.1 52.7 85.6 52.35 87.25 52.1 87.95 52 88.15 51.65 88.7 51.2 89.2 49.95 90.1 49.2 90.35 48.7 90.55 47.95 90.6 47.6 90.7 46 90.35 Q45.6 90.3 45.3 90.1 L44.85 89.85 44.25 89.45 43.95 89.2 Q43.3 88.55 42.95 87.75 L42.7 87.2 42.7 87.1 42.55 86.75 42.45 86.1 42.45 85.6 Q42.45 84.65 42.7 83.9 L43 83.25 43.4 82.7 43.9 82.1 43.95 81.95 Q44.7 81.3 45.45 80.95 L46.25 80.65 46.65 80.55 47.4 80.45 47.6 80.45 49.4 80.8"/>
    <path stroke="none" fill="#ff0000" d="M44.35 85.6 Q44.35 84.3 45.35 83.3 46.35 82.3 47.7 82.3 49.1 82.3 50.1 83.3 51.15 84.3 51.1 85.6 51.15 87.05 50.1 88.05 49.1 89.05 47.7 89.05 46.35 89.1 45.35 88.05 44.35 87.05 44.35 85.6"/>
    <path stroke="none" fill="#ff99cc" d="M48.3 76.15 Q47.85 76.3 47.55 76.9 47 77.9 47.45 80.4 L46.7 80.55 Q46.15 76.6 46.85 74.65 L48.3 76.15"/>
    <path stroke="none" fill="#ff0000" d="M48.4 76.15 L49.95 77.9 50.4 78.55 50.5 78.65 50.2 79.45 49.45 80.8 47.65 80.45 47.45 80.45 Q47 77.9 47.55 76.9 47.85 76.35 48.3 76.15 L48.4 76.15"/>
    <path stroke="none" fill="#ff99cc" d="M51.45 79.95 L51.8 80.45 50.85 81.6 50.4 81.3 51.45 79.95"/>
    <path stroke="none" fill="#ffffff" d="M51.35 79.75 L51.45 79.95 50.4 81.3 50.1 81.15 51.05 79.4 51.35 79.75"/>
    <path stroke="none" fill="#ff0000" d="M50.85 81.65 L51.85 80.45 52.35 81.25 52.7 81.9 53.25 82.8 53.35 82.85 52.15 83.25 Q51.9 82.5 51.2 81.95 L50.85 81.65"/>
    <path stroke="none" fill="#ff99cc" d="M51 79.4 L50.1 81.15 49.4 80.8 50.15 79.45 50.45 78.65 51 79.4"/>
    <path stroke="none" fill="#ff99cc" d="M52.4 83.85 L52.15 83.2 53.35 82.85 53.6 83.35 53.7 83.55 52.4 83.85"/>
    <path stroke="none" fill="#ffffff" d="M52.6 84.4 L52.4 83.85 53.7 83.55 53.95 84.1 52.6 84.4"/>
    <path stroke="none" fill="#ff99cc" d="M53.9 84.1 L54.2 84.7 52.65 85.1 52.55 84.4 53.9 84.1"/>
    <path stroke="none" fill="#ff0000" d="M52.7 85.55 L52.7 85.05 54.25 84.7 55 86.25 55.35 87.2 55.6 87.85 53.9 87.8 52.4 87.25 52.7 85.55"/>
    <path stroke="none" fill="#ff99cc" d="M53.9 87.8 L55.6 87.85 56.05 89.1 55.25 88.9 52.15 87.95 52.4 87.25 53.9 87.8"/>
    <path stroke="none" fill="#ff0000" d="M54.1 91.05 Q54.6 92.35 53.05 93.1 51.55 93.5 50.4 91.35 L49.95 90.15 51.2 89.2 51.6 88.7 Q53.65 90 54.1 91.05"/>
    <path stroke="none" fill="#ff99cc" d="M51.65 88.7 L52.05 88.15 Q55.65 90.55 56.5 92.45 57.6 94.75 55 95.95 53.4 96.4 51.8 95.05 L50.55 93.3 49.25 90.4 50 90.15 50.45 91.35 Q51.6 93.5 53.1 93.1 54.65 92.35 54.15 91.05 53.7 90.05 51.65 88.7"/>
    <path stroke="none" fill="#ff99cc" d="M48 90.6 L48.75 90.55 Q49.65 94.85 48.8 96.8 48 99.25 45.3 98.2 43.75 97.4 43.65 95.25 L44 93.2 Q44.4 91.8 45.3 90.1 L46 90.35 45.3 91.75 Q44.65 94.1 46 94.8 47.6 95.45 48.2 94.15 48.65 93.1 48 90.6"/>
    <path stroke="none" fill="#ff0000" d="M46 94.8 Q44.65 94.1 45.3 91.8 L46 90.35 47.6 90.65 48 90.6 Q48.65 93.1 48.2 94.15 47.6 95.45 46 94.8"/>
    <path stroke="none" fill="#ff0000" d="M43.95 89.2 L44.25 89.4 Q43.05 91.6 42.05 92.1 40.75 92.65 40 91.1 39.5 89.6 41.6 88.45 42.15 88.05 42.95 87.75 L43.95 89.2"/>
    <path stroke="none" fill="#ff99cc" d="M37.2 93.2 Q36.65 91.65 38 89.85 L39.7 88.65 Q40.4 88.05 42.75 87.2 L43 87.75 Q42.15 88.05 41.6 88.45 39.5 89.65 40 91.1 40.75 92.65 42.05 92.1 43.05 91.6 44.3 89.45 L44.9 89.85 Q42.7 93.7 40.8 94.5 38.6 95.75 37.2 93.2"/>
    <path stroke="none" fill="#a60000" d="M43.75 35.75 Q41.4 35.75 40.9 38.1 40.4 40.7 42.45 45.45 L43 45.2 43.25 45.15 45.6 44.95 46 45 46.35 45.05 47.1 41.35 47.05 38.85 Q46.4 36.4 44.6 35.8 L43.75 35.75 M47.35 38.8 L47.4 41.4 Q47.2 43.25 46.6 45.15 L46.75 45.2 Q48.85 39.9 50.95 38.6 52.95 37.15 54.6 38.6 L54.6 38.8 54.4 38.8 Q52.95 37.5 51.1 38.85 49.1 40.1 47 45.3 L47.5 45.45 47.6 45.5 48.05 45.75 Q48.9 46.25 49.6 46.9 L50 47.5 50 47.55 53.15 45.35 54.45 44.3 54.65 44.3 54.65 44.5 53.35 45.6 50.2 47.8 50.4 48.15 Q52 47.2 53.8 46.45 L54 46.5 53.95 46.7 Q52.1 47.45 50.55 48.45 L50.85 49.05 50.9 49.55 51.15 50.7 51.05 50.9 50.9 50.75 50.65 49.65 50.55 49.1 50.2 48.45 49.85 47.85 49.75 47.65 49.35 47.1 Q48.75 46.5 47.9 46.05 L47.4 45.7 46.75 45.55 46.4 45.35 46 45.3 45.55 45.25 43.3 45.4 43.1 45.5 42.4 45.8 42.15 45.9 41.9 46.05 Q41.5 46.3 41.05 46.65 40.35 47.25 39.75 48.2 L39.7 48.4 39.35 49.15 39.3 49.15 39.15 49.9 39 50.4 38.9 50.9 Q38.8 51.55 39.15 52.75 L39.2 53.05 39.25 53.3 39.65 54.05 39.7 54.1 39.75 54.25 39.85 54.45 39.9 54.55 40.1 54.75 40.4 55.05 41.85 56.35 42.55 56.65 43.05 56.85 43.15 56.85 43.4 56.95 43.4 57.15 43.25 57.2 43.25 57.25 43 57.25 42.95 57.15 42.4 56.95 41.8 56.65 Q40.75 56 40.2 55.25 L39.9 55 39.75 54.85 Q37.35 56.55 36.8 57.35 35.85 58.25 35.3 59.25 34.6 60.85 34.85 61.9 L34.75 62.1 34.7 62.1 34.55 62 Q34.3 60.85 35 59.1 35.6 58.05 36.6 57.15 37.15 56.35 39.55 54.6 L39.55 54.5 39.45 54.35 Q35.05 56.8 32.55 56.6 29.35 56.3 29.5 52.95 29.9 50.75 32.45 49.9 L34.95 49.45 38.9 49.7 39 49.2 Q34.05 47.65 32.35 45.6 30.25 43.2 32.9 40.75 34.7 39.7 37.15 40.8 L39.1 42.5 41.9 45.7 42 45.65 42.15 45.55 Q40.1 40.7 40.6 38.05 41.25 35.05 44.65 35.5 46.65 36.2 47.35 38.8 M38.9 42.7 L37 41.05 Q35.8 40.55 34.8 40.55 33.85 40.55 33.05 41 30.65 43.25 32.6 45.45 34.25 47.4 39.1 48.95 L39.45 48.3 39.5 48 40.9 46.4 41.65 45.85 38.9 42.7 M21.95 7.1 Q19.65 7.1 19.5 9.35 19.2 11.15 21.15 15.05 L21.4 14.95 21.8 14.8 21.9 14.75 21.95 14.8 23.7 14.55 24.35 14.75 24.6 11.35 24.45 9.35 Q23.7 7.55 22.25 7.1 L21.95 7.1 M24.9 11.4 L24.65 14.8 24.85 14.8 25.9 12.6 26.1 12.55 26.15 12.75 25.1 14.95 25.6 15.2 25.85 15.3 26.15 15.5 26.3 15.6 26.35 15.8 26.15 15.85 26 15.7 25.7 15.55 25.5 15.5 24.85 15.15 24.55 15.1 24.45 15.1 23.65 14.85 22 15.1 21.9 15.1 21.85 15.1 21.5 15.2 21.15 15.35 20.95 15.45 20.6 15.65 20.45 15.75 20 16.05 19.05 17.35 18.85 17.55 18.7 17.75 18.65 18.05 18.55 18.35 18.55 18.6 18.5 18.7 18.5 18.8 18.4 19.35 Q18.3 20.1 18.55 21 L18.6 21.15 18.7 21.3 18.95 21.95 19 21.95 19.05 22.1 19.25 22.4 19.6 22.85 20.8 23.9 21.2 24.05 21.7 24.25 21.9 24.35 22.25 24.4 22.3 24.4 22.3 24.45 23.1 24.6 24.45 24.35 24.75 24.25 25.05 24.2 25.6 23.95 25.65 23.9 25.75 23.9 25.85 23.8 25.95 23.8 26.15 23.8 26.15 24 26.1 24 26.15 24.05 25.9 24.2 26.1 24.55 25.85 24.7 25.6 24.3 25.15 24.45 24.85 24.55 24.55 24.65 23.05 24.9 22.4 24.75 Q22.1 26.6 22.1 27.6 L22.3 29.75 Q22.9 31.55 24.45 31.95 L25.25 31.95 25.45 32.05 25.35 32.2 24.9 32.25 24.4 32.2 Q22.65 31.8 22 29.85 L21.8 27.6 Q21.8 26.6 22.1 24.7 L21.85 24.65 Q20.45 28.75 18.9 29.95 16.8 31.65 15 29.45 14.05 27.85 15 25.95 15.55 25.05 16.4 24.35 17.5 23.25 18.9 22.4 L18.8 22.25 Q15.25 24.25 13.05 24.15 10.55 24.05 10.5 21.1 10.95 19.35 12.95 18.5 L15.05 18.3 18.25 18.6 18.25 18.4 Q14.35 17.25 12.95 15.75 11.3 13.8 13.35 11.75 14.75 10.85 16.8 11.7 17.65 12.1 18.45 13 L20.55 15.35 20.8 15.2 20.9 15.15 Q18.9 11.2 19.2 9.3 19.4 6.65 22.35 6.8 23.9 7.3 24.75 9.25 L24.9 11.4 M20.3 15.5 L18.25 13.2 16.7 12 14.95 11.6 13.55 12 Q11.7 13.8 13.2 15.55 14.5 16.95 18.3 18.1 L18.35 17.95 18.45 17.65 18.65 17.4 18.75 17.2 19.8 15.85 20.25 15.5 20.3 15.5 M18.15 18.85 L15.4 18.55 15.1 18.6 13.05 18.75 Q11.2 19.6 10.8 21.15 10.8 23.8 13.1 23.85 15.15 23.95 18.65 22 L18.4 21.4 18.3 21.25 18.3 21.1 Q17.95 20.1 18.1 19.35 L18.15 18.85 M20.35 18.1 Q21 16.95 22.4 16.5 23.7 16.2 24.95 16.95 L26.4 18.4 26.35 18.65 26.15 18.55 24.8 17.2 Q23.65 16.55 22.45 16.8 21.2 17.2 20.6 18.25 19.95 19.45 20.25 20.7 20.6 21.95 21.65 22.6 22.8 23.2 24.1 22.95 24.95 22.7 25.6 21.85 L26 21.3 Q26.15 21.05 26.3 21.3 L26.2 21.5 25.85 22.05 Q25.15 22.95 24.15 23.25 L23.3 23.3 21.5 22.85 Q20.35 22.15 19.95 20.75 19.65 19.4 20.35 18.1 M15.25 29.25 Q16.85 31.25 18.7 29.7 20.2 28.55 21.55 24.55 L21.05 24.3 20.65 24.15 Q19.9 23.7 19.4 23.05 L19.05 22.7 16.6 24.55 15.25 26.1 Q14.35 27.85 15.25 29.25 M3.15 37.75 L3.9 38.75 4.95 41 5.05 41 Q4.65 37.9 5.3 36.4 6.2 34.65 8.2 35.55 9.25 36.2 9.25 37.9 L8.9 39.45 8.1 41.15 Q9.9 38.7 11.3 38.25 12.2 37.95 12.85 38.25 13.55 38.55 13.9 39.65 14.2 40.95 13.05 42.1 12.45 42.6 11.65 42.9 L9.55 43.65 9.55 43.7 13.9 43.45 Q15.7 43.95 15.2 46.05 14.65 47.25 13.05 47.55 L11.3 47.35 9.6 46.8 Q11.85 48.35 12.4 49.6 13.3 51.4 11.3 52.4 9.95 52.75 8.75 51.7 L7.85 50.35 7 48.45 6.9 48.45 Q7.45 51.5 6.9 52.95 6.4 54.25 5.2 54.25 L4.15 54.05 Q3.45 53.75 3.15 53 2.9 52.6 2.9 51.8 2.85 51.4 2.95 51 L3.15 50.2 Q3.4 49.25 4 48.1 L3.95 48.1 2.3 50.4 Q2.05 50.55 1.95 50.65 L1.75 50.45 2.1 50.15 3.7 47.95 3.35 47.6 3.1 47.5 2.4 46.4 2.3 46.15 Q2.1 46.2 2.1 46 L2.2 45.9 2.2 45.85 2.1 45.7 2.1 45.6 2.4 45.55 2.45 45.65 2.45 45.75 2.5 45.85 2.5 45.95 2.65 46.25 3.35 47.3 3.6 47.4 3.95 47.75 4 47.75 4 47.8 4.3 47.85 4.3 47.9 4.75 48.1 5.85 48.3 6.05 48.25 6.15 48.25 6.65 48.2 6.65 48.15 6.7 48.15 7 48.1 7.5 47.9 8.4 47.3 8.5 47.1 8.6 46.95 8.9 46.55 8.9 46.5 8.95 46.45 9 46.4 9 46.35 9.2 45.9 9.4 44.7 9.4 44.4 9.35 44.2 9.3 43.95 9.25 43.95 9.25 43.9 9.25 43.6 9.2 43.6 9 43.15 8.4 42.2 8.15 42.05 7.8 41.8 7.75 41.8 7.7 41.75 7.6 41.7 Q7.35 41.5 7.15 41.45 L5.85 41.2 5.7 41.2 5.25 41.25 5.2 41.25 5 41.3 4.95 41.35 4.65 41.4 4.3 41.5 3.35 42.2 3.25 42.35 3 42.7 3 42.75 2.95 42.75 2.95 42.8 2.7 43.1 2.65 43.2 2.35 43.25 2.35 43.1 2.35 43.05 2.45 42.9 2.6 42.7 2.45 42.6 2.45 42.4 2.65 42.4 2.8 42.45 3.05 42.15 3.15 42 4.2 41.25 4.55 41.15 4.7 41.1 3.65 38.9 2.95 37.95 2.95 37.75 3.15 37.75 M7.65 41.35 L8.6 39.35 8.95 37.9 Q8.95 36.4 8.05 35.8 6.35 35 5.6 36.55 4.95 37.95 5.35 40.95 L5.7 40.9 5.85 40.9 7.25 41.15 7.65 41.35 M3.7 44.8 Q3.7 45.75 4.3 46.4 5 47.1 5.95 47.1 6.9 47.1 7.5 46.4 8.2 45.8 8.2 44.8 8.25 43.9 7.5 43.2 6.9 42.6 5.95 42.6 5.05 42.55 4.3 43.2 3.7 43.95 3.7 44.8 M4.1 43 Q4.95 42.25 5.95 42.3 7 42.25 7.75 43 8.5 43.8 8.5 44.8 8.5 45.95 7.7 46.65 7.05 47.4 5.95 47.4 4.9 47.4 4.1 46.6 3.4 45.9 3.4 44.8 3.4 43.85 4.1 43 M11.4 38.55 Q9.95 39 8.1 41.65 L8.35 41.8 8.55 42 9.25 43 9.45 43.35 11.55 42.6 Q12.3 42.35 12.85 41.9 13.9 40.85 13.6 39.75 13.3 38.8 12.7 38.5 L11.4 38.55 M9.65 44.15 L9.7 44.35 9.7 44.7 9.5 46 9.35 46.4 11.4 47.05 13 47.25 Q14.45 46.95 14.95 45.95 15.35 44.15 13.8 43.75 L9.6 44 9.65 44.15 M32.55 56.3 Q35 56.5 39.35 54.1 L39 53.4 38.9 53.1 38.85 52.85 Q38.5 51.6 38.6 50.85 L38.75 50.35 38.8 50 35.6 49.75 34.95 49.75 32.55 50.2 Q30.15 51 29.8 53 29.65 56.05 32.55 56.3 M20.85 70.4 L20.8 70.4 20.25 70.6 19.4 71.25 19.05 71.65 18.9 71.85 18.8 72 18.6 72.45 Q18.45 72.85 18.45 73.5 L18.45 73.8 18.5 74 18.55 74.15 18.55 74.25 18.6 74.35 18.6 74.5 18.8 74.85 19.35 75.65 19.55 75.85 19.95 76.15 20 76.15 20.1 76.2 20.2 76.25 20.65 76.45 21.65 76.6 21.9 76.6 22.3 76.6 22.5 76.5 22.6 76.45 22.65 76.45 22.9 76.35 23.15 76.25 23.8 75.7 24.15 75.45 24.25 75.25 24.35 75.1 24.4 75.05 24.4 75 24.6 74.55 24.75 73.5 24.75 73.2 24.75 72.8 24.7 72.8 24.7 72.75 24.6 72.45 24.6 72.4 24.4 72 23.85 71.25 23.65 71.05 23.35 70.85 23.35 70.8 23.25 70.75 23.15 70.7 22.75 70.55 21.65 70.3 21.5 70.3 21 70.35 20.85 70.35 20.85 70.4 M21.45 70 L21.65 70 22.9 70.25 23.2 70.4 24.05 68.6 24.4 67.3 Q24.4 66.05 23.6 65.4 22.05 64.75 21.45 66.1 20.85 67.35 21.15 70.05 L21.45 70 M19.6 68.25 L18.85 67.15 Q18.15 66.5 17.35 66.5 L16.9 66.55 Q15.4 67.35 16.05 68.7 16.5 69.85 18.85 71.35 L19.1 71.1 20.15 70.3 20.55 70.15 19.6 68.25 M21.2 66 Q21.9 64.35 23.75 65.15 24.7 65.9 24.7 67.35 L24.3 68.7 23.75 70.05 Q25.2 68.1 26.5 67.65 28.2 67.05 28.9 68.9 29.2 70 28.05 71.05 27.55 71.5 26.85 71.75 L24.95 72.45 25 72.55 28.8 72.3 Q30.5 72.8 30.05 74.65 29.5 75.8 28.05 76 L26.55 75.8 25.05 75.4 Q27.1 76.8 27.55 77.85 28.25 79.45 26.5 80.3 25.3 80.65 24.2 79.75 L23.4 78.5 22.6 76.8 22.55 76.8 Q23.05 79.5 22.6 80.8 22.15 82.05 21 82.05 L20.1 81.9 Q19.05 81.3 18.95 79.75 18.95 79.1 19.2 78.4 19.35 77.55 19.8 76.7 18.4 78.9 17.3 79.4 L15.9 79.6 Q15.25 79.4 14.75 78.5 14.35 77.4 15.25 76.2 L16.4 75.35 Q16.8 75 18.3 74.45 L18.25 74.4 14.4 74.6 Q13.6 74.4 13.25 73.8 12.95 73.2 13.25 72.2 13.75 71.1 15.25 70.9 L16.65 71.1 18.6 71.75 18.65 71.65 18.7 71.6 Q16.25 70.05 15.8 68.85 15 67.2 16.8 66.3 18 65.95 19.05 66.95 L19.85 68.1 20.85 70.05 Q20.5 67.25 21.2 66 M23.65 70.65 L23.85 70.85 24.05 71.05 24.7 71.9 24.85 72.2 Q25.95 71.95 26.7 71.5 L27.85 70.85 Q28.75 70.15 28.6 69 28.05 67.4 26.6 67.95 25.25 68.4 23.65 70.65 M8.75 47.3 L8.65 47.45 7.6 48.15 7.25 48.35 8.15 50.25 8.95 51.5 Q10.05 52.4 11.2 52.15 12.9 51.3 12.15 49.75 11.55 48.5 9.1 46.8 L8.85 47.1 8.75 47.3 M5.85 48.6 L4.65 48.4 4.25 48.2 Q3.7 49.35 3.45 50.3 L3.25 51.1 Q3.15 51.4 3.2 51.8 L3.4 52.9 Q3.7 53.5 4.25 53.75 6.05 54.4 6.6 52.85 7.15 51.45 6.6 48.5 L6.2 48.55 5.85 48.6 M1.95 66.5 Q2.55 67.2 2.65 67.9 L2.45 69.55 1.5 71.2 1.35 71.3 1.25 71.25 1.25 71.05 2.15 69.45 2.35 67.95 Q2.25 67.3 1.75 66.7 L1.25 66.4 1.15 66.2 1.35 66.1 1.95 66.5 M13.55 72.3 Q13.25 73.15 13.55 73.65 13.8 74.15 14.5 74.35 L18.2 74.1 18.2 74.05 18.15 73.85 18.15 73.5 18.35 72.3 18.45 72 16.6 71.4 15.25 71.2 Q13.95 71.4 13.55 72.3 M15.5 76.4 Q14.7 77.45 15 78.4 15.45 79.15 16 79.35 L17.15 79.1 Q18.25 78.65 19.7 76.35 L19.35 76.05 19.15 75.9 Q18.75 75.55 18.5 74.95 L18.4 74.75 Q17 75.25 16.6 75.6 L15.5 76.4 M7.35 73.05 Q7.25 74.7 5.5 75.55 4.7 75.95 3.75 76.05 L1.6 76.25 1.45 76.1 1.6 75.95 3.7 75.75 5.4 75.3 Q6.95 74.5 7.05 73.05 6.95 71.85 6.35 71.3 5.8 70.8 4.7 70.9 3.45 71 1.45 72.35 L1.25 72.35 Q1.15 72.2 1.3 72.1 3.35 70.7 4.7 70.6 5.9 70.5 6.55 71.1 7.25 71.65 7.35 73.05 M1.45 76.65 L1.6 76.5 Q4.85 76.5 6.05 77.55 7 78.1 7.25 78.9 7.45 79.8 6.8 80.9 5.85 81.95 4.15 81.95 L3.85 81.95 1.95 81.1 1.85 80.95 Q1.9 80.7 2.1 80.85 3.3 81.55 3.9 81.65 5.65 81.75 6.6 80.7 7.15 79.75 6.95 79 6.75 78.3 5.9 77.75 4.7 76.8 1.6 76.8 L1.45 76.65 M28.7 72.6 L25.05 72.85 25.05 73.2 25.05 73.5 24.9 74.65 24.75 74.95 26.65 75.5 28 75.7 Q29.3 75.5 29.75 74.55 30.2 73 28.7 72.6 M24 73.5 Q24 74.55 23.35 75.2 22.7 75.85 21.7 75.85 20.7 75.9 20.05 75.2 19.4 74.55 19.4 73.5 19.35 72.55 20.05 71.9 20.7 71.2 21.7 71.25 22.7 71.25 23.35 71.9 24 72.55 24 73.5 M23.15 72.1 Q22.35 71.45 21.7 71.55 20.85 71.5 20.25 72.1 19.7 72.7 19.7 73.5 19.65 74.4 20.25 75 20.85 75.6 21.7 75.55 22.35 75.65 23.15 75 23.7 74.4 23.7 73.5 23.7 72.7 23.15 72.1 M23.25 76.55 L23 76.65 22.9 76.7 23.7 78.35 24.4 79.55 Q25.4 80.3 26.35 80.05 27.9 79.3 27.25 77.95 26.85 76.95 24.55 75.35 L24.5 75.45 24.35 75.6 24 75.9 23.25 76.55 M20.55 76.75 L20.2 76.6 Q19.7 77.55 19.5 78.5 19.25 79.15 19.25 79.75 19.35 81.15 20.2 81.6 21.8 82.15 22.3 80.7 22.75 79.5 22.25 76.9 L21.9 76.9 21.65 76.9 20.55 76.75 M34.75 83.6 Q35.55 81.95 37.8 81.75 L39.95 81.95 42.95 83.05 43.2 82.7 Q39.4 80.2 38.6 78.3 37.45 75.9 40.15 74.55 41.9 74.05 43.55 75.5 L44.85 77.25 46.35 80.45 46.5 80.4 Q46 76.55 46.75 74.6 46.8 74.5 46.9 74.55 L47 74.7 Q46.3 76.6 46.8 80.35 L47.05 80.35 47.4 80.3 47.6 80.3 Q48.6 80.3 49.45 80.65 L50.05 80.9 50.9 79.3 51.1 79.25 51.15 79.45 50.3 81.05 50.35 81.1 50.8 80.6 51.35 79.85 51.55 79.8 51.6 80 51 80.75 50.65 81.25 50.95 81.5 51.3 81.8 Q52 82.4 52.3 83.15 L52.5 83.65 53.65 83.4 53.75 83.7 52.6 83.95 52.65 84.2 53.9 83.95 54.1 84.05 53.95 84.25 52.75 84.5 52.8 84.7 52.85 85.05 52.85 85.6 52.55 87.3 52.35 87.85 55.25 88.8 56.05 88.95 56.2 89.15 56 89.25 55.2 89.05 52.35 88.2 Q55.8 90.5 56.6 92.35 57.15 93.5 56.85 94.4 56.5 95.4 55.05 96.05 53.3 96.55 51.65 95.1 L50.4 93.35 Q49.7 92.05 49.15 90.55 L49.05 90.6 48.9 90.65 Q49.8 94.85 48.95 96.85 48.5 98.1 47.65 98.5 L46.7 98.7 45.25 98.35 Q43.6 97.5 43.5 95.25 L43.85 93.15 Q44.25 91.75 45.1 90.15 L44.95 90.05 Q42.75 93.8 40.85 94.65 38.55 95.9 37.05 93.3 36.45 91.55 37.9 89.75 L39.6 88.5 Q40.45 87.85 42.55 87.1 L42.5 86.95 36.45 87.25 Q33.9 86.4 34.75 83.6 M37.35 93.15 Q38.65 95.55 40.7 94.35 42.55 93.55 44.7 89.9 L44.15 89.55 43.9 89.3 42.85 87.8 42.6 87.4 Q40.6 88.15 39.75 88.75 L38.1 89.95 Q36.8 91.6 37.35 93.15 M36.55 87 L42.4 86.65 42.4 86.45 42.3 86.1 42.3 85.6 Q42.3 84.55 42.6 83.85 L42.8 83.3 39.9 82.25 38.25 82.05 37.85 82.05 Q35.7 82.25 35.05 83.7 34.25 86.2 36.55 87 M48.75 53.05 L48.65 52.85 Q49.1 51.6 48.75 50.2 48.4 48.8 47.05 47.9 45.7 47.1 44 47.6 42.5 48.05 41.75 49.25 40.9 50.85 41.3 52.25 41.75 53.85 43.15 54.65 44.4 55.4 45.8 55.1 L46 55.25 45.9 55.4 45.05 55.5 Q44 55.5 43 54.9 41.5 54.05 41 52.3 40.55 50.8 41.45 49.1 42.3 47.8 43.9 47.3 45.75 46.8 47.2 47.65 48.7 48.6 49.05 50.15 49.45 51.65 48.95 52.95 48.85 53.1 48.75 53.05 M49.4 80.95 L47.6 80.6 47.45 80.6 47.1 80.65 46.75 80.7 46.7 80.7 46.3 80.75 45.75 80.95 45.5 81.05 44.1 82 44 82.2 43.55 82.75 43.5 82.75 43.15 83.3 42.85 83.95 Q42.6 84.6 42.6 85.6 L42.6 86.05 42.7 86.4 42.75 86.7 42.8 86.85 42.85 87.05 42.85 87.15 43.1 87.65 Q43.5 88.55 44.05 89.05 L44.35 89.3 44.95 89.7 45.1 89.8 45.35 89.95 45.4 89.95 45.4 90 46.05 90.2 47.6 90.5 47.9 90.45 48.7 90.4 48.9 90.3 49.2 90.2 49.9 89.95 51.1 89.1 51.5 88.6 51.9 88.05 51.9 88 51.95 87.95 52 87.85 52.25 87.2 52.55 85.6 52.55 85.1 52.5 84.75 52.45 84.45 52.25 83.9 52 83.3 Q51.75 82.55 51.1 82.05 L50.75 81.75 50.35 81.45 50.3 81.45 50 81.25 49.4 80.95 M40.3 74.8 Q37.8 76 38.9 78.2 39.65 80 43.35 82.45 L43.8 82 43.85 81.8 Q44.55 81.2 45.4 80.8 L45.65 80.7 46.05 80.5 44.55 77.4 43.35 75.7 Q42.2 74.7 41.05 74.7 L40.3 74.8 M45.2 83.2 Q46.25 82.1 47.7 82.15 49.15 82.15 50.2 83.2 51.25 84.2 51.25 85.6 51.25 87.15 50.2 88.15 49.15 89.2 47.7 89.2 46.25 89.2 45.2 88.15 44.2 87.15 44.2 85.6 44.15 84.2 45.2 83.2 M44.5 85.6 Q44.45 87 45.45 87.95 46.35 88.9 47.7 88.9 49.05 88.9 50 87.95 50.95 87 50.95 85.6 50.95 84.35 50 83.4 49.05 82.45 47.7 82.45 46.35 82.4 45.45 83.4 44.45 84.35 44.5 85.6 M45.95 90.5 L45.4 90.3 Q44.5 91.85 44.15 93.25 L43.8 95.25 Q43.9 97.3 45.4 98.1 L47.5 98.2 Q48.25 97.85 48.65 96.75 49.45 94.85 48.6 90.7 L48 90.75 47.6 90.8 45.95 90.5 M51.3 89.3 L50.05 90.25 49.45 90.45 50.65 93.2 51.85 94.9 Q53.4 96.2 54.95 95.8 56.25 95.2 56.55 94.3 56.85 93.5 56.35 92.45 55.55 90.65 52.05 88.35 L51.75 88.75 51.3 89.3"/>
    <path stroke="none" fill="#a60000" d="M50.55 32.95 L50.6 33.3 Q50 34.05 50 34.8 L50 34.95 Q49.95 35.35 50.25 35.8 L50.4 35.95 50.5 36.15 50.65 36.25 50.8 36.35 52 36.55 53.05 35.9 Q53.4 35.7 53.5 36.05 L53.35 36.3 52.15 37.05 51.65 37.1 Q51.05 37.1 50.55 36.75 L50.35 36.65 50.2 36.55 50.1 36.4 50 36.25 49.85 36.05 Q49.45 35.5 49.5 34.85 49.5 33.85 50.2 33 L50.55 32.95 M18.55 57.3 Q19.25 57.95 19.25 58.95 19.3 60 18.55 60.65 17.85 61.3 16.9 61.3 16 61.3 15.25 60.7 14.55 59.95 14.55 58.95 14.55 57.95 15.25 57.3 16.9 56 18.55 57.25 L18.55 57.3 M18.25 57.65 Q17.65 57.15 16.9 57.15 16.15 57.15 15.6 57.65 15.05 58.15 15.05 58.95 15.05 59.75 15.6 60.3 16.9 61.3 18.25 60.3 18.75 59.8 18.75 58.95 18.75 58.2 18.25 57.65 M13.7 87.35 Q14.3 86.7 15.25 86.7 16.1 86.7 16.8 87.35 17.5 88.1 17.45 88.95 17.5 89.8 16.85 90.55 16.1 91.2 15.25 91.2 14.3 91.2 13.7 90.55 13 89.85 13 88.95 13 88.05 13.7 87.35 M13.5 88.95 Q13.5 89.65 14.05 90.2 14.55 90.7 15.25 90.7 15.9 90.7 16.5 90.2 L16.95 88.95 Q17 88.25 16.45 87.7 15.95 87.2 15.25 87.2 14.5 87.2 14.05 87.7 13.5 88.25 13.5 88.95"/>
    <path stroke="none" fill="#ff0000" d="M41.9 29.05 Q44.95 28.9 47.7 30.2 49.5 31 51.15 32.1 53.1 33.55 54.35 35.3 55.2 36.6 55.7 38.4 56.2 39.9 56.1 41.9 L56.1 42.2 56.1 42.3 55.75 44.7 55.05 47 54.3 48.5 52.1 51.35 51.9 51.6 49.65 53.85 49.5 53.95 49.25 54.15 49.1 54.3 47.7 55.4 47.6 55.45 47.05 55.9 46.75 56.15 46.5 56.3 45.55 57 43.95 58.1 43.8 58.2 43.5 58.35 43.15 58.55 42.9 58.7 42.85 58.75 42.35 59.1 42.05 59.25 41.8 59.4 Q40 60.45 38.75 61.25 L38.4 61.45 37.95 61.65 37.6 61.85 35.35 63.05 34.6 63.4 33.3 64.05 Q40.6 67.65 45.8 72.05 L46.75 72.85 47.25 73.3 47.75 73.8 49.05 75.15 49.3 75.35 49.8 75.9 50.8 77 51.25 77.6 51.35 77.8 51.45 77.9 52 78.65 52.1 78.75 52.2 78.85 52.45 79.2 52.5 79.25 52.6 79.4 52.85 79.75 53.05 80.1 53.3 80.5 53.6 80.95 53.75 81.15 54.25 82.05 54.5 82.45 54.55 82.6 54.7 82.8 54.85 83.15 54.95 83.25 55.05 83.55 55.4 84.2 56.15 85.75 56.6 86.95 56.8 87.6 57.2 88.65 57.4 89.3 57.6 90.05 57.8 90.7 57.85 90.8 58.15 93.8 58.15 94.35 Q58.2 99.2 55.6 101.75 52.9 104.4 47.5 104.25 36 103.65 28.8 91.65 L28.65 91.45 28.6 91.3 27.15 88.65 Q24.35 99.95 19.05 103.35 16.7 104.85 13.9 104.85 L11.5 104.6 11.25 104.5 Q3.25 101.1 1 83.45 L0.9 82.9 0.9 82.85 0.85 82.4 0.8 81.7 0.75 81.1 0.7 80.7 0.65 80.45 0.6 80.15 0.6 80 0.4 77.4 0.35 76.65 0.35 76.25 0.3 75.65 0.25 74.9 0.15 73.05 0.1 72.25 0.1 71.2 0.05 69.4 0.05 66.15 0.05 63.8 0.3 55.45 0.35 54.5 0.4 53.55 0.6 50 0.7 49.25 0.8 47.7 0.9 46.45 1 45.85 1 45.6 1.05 45.2 1.05 45.1 1.05 44.8 1.15 43.85 1.15 43.6 1.2 43.15 1.2 43.05 1.3 42.3 1.35 41.65 1.65 39.05 1.75 38.1 1.8 37.85 1.8 37.7 Q3.95 19.95 8.55 9.35 L8.8 8.95 8.85 8.8 Q9.45 7.4 10.2 6.05 L10.45 5.55 Q12.05 3.1 14.05 1.7 15.3 0.85 16.7 0.4 19 -0.4 21 0.4 22.3 0.95 23.5 2.2 24.95 3.8 25.85 6.15 L26.75 9 26.8 9.3 26.8 9.45 26.8 9.55 27.3 12.5 27.35 13.25 27.4 13.8 27.4 13.95 27.45 14.7 27.45 14.95 27.45 15.95 27.55 18.5 27.5 18.7 27.45 19.7 27.45 20.4 27.4 20.8 27.4 21.05 27.4 21.4 27.35 22.7 27.3 24 27.2 24.3 27.2 24.65 27.15 25.05 27.1 25.8 27.1 25.95 27 26.65 26.85 28.55 26.85 28.65 26.8 29 26.7 29.4 26.65 30.3 26.6 31.2 26.55 32.15 26.55 32.25 26.55 32.35 26.3 35.5 26.1 38.35 26.1 38.5 26.05 39.25 26.05 39.35 27.6 37.9 29.2 36.25 29.35 36.05 Q34 31 38.55 29.65 L41.9 29.05 M39.3 32.05 Q35.35 33.2 31.15 37.75 L31.05 37.9 29.4 39.65 Q27.4 42.2 25.05 41.95 23.75 41.45 23.55 39.45 L23.55 39.35 23.6 38.15 23.8 35.35 24.05 32.2 24.05 32.1 24.1 31.05 24.2 30 24.25 29.3 24.25 29.05 24.3 28.7 24.35 28.25 24.55 26.25 24.6 26 24.6 25.7 24.6 25.45 24.65 24.8 24.7 24.35 24.7 24.15 24.8 23.55 24.85 22.6 24.9 21.3 24.9 21.05 24.95 20.25 24.95 19.7 25.05 18.4 24.95 16.05 24.95 15.1 24.9 14.05 24.85 13.4 24.8 12.85 24.4 10.15 24.3 9.5 23.5 7.05 Q22.75 5.1 21.7 3.9 L20.05 2.75 Q18.9 2.25 17.5 2.75 16.4 3.15 15.45 3.8 13.9 4.85 12.55 6.9 L12.45 7.15 11.15 9.8 10.9 10.2 10.85 10.3 Q6.4 20.55 4.3 37.9 L4.15 38.8 4.15 39.15 4.15 39.3 3.85 41.95 3.8 42.3 3.8 42.5 3.7 42.9 3.7 43 3.7 43.25 3.7 43.5 3.65 43.85 3.6 44.4 3.55 44.55 3.55 44.8 3.55 45.1 3.5 45.75 3.5 46.05 3.4 46.45 3.4 46.5 3.3 47.95 3.15 49.5 3.1 49.85 3.1 50 3.1 50.5 3.1 50.65 2.9 53.75 2.85 54.65 2.8 55.65 Q2.6 59.85 2.55 63.8 L2.55 66.25 2.55 69.35 2.6 71 2.6 71.15 2.6 72.25 2.65 72.65 2.65 72.95 2.75 74.75 2.75 74.85 2.75 75.1 2.8 75.5 2.8 75.75 2.85 76.1 2.85 76.65 2.85 76.85 2.9 76.9 2.9 77.35 2.9 77.5 3.1 80 3.15 80.4 3.2 80.7 3.3 81.5 3.35 82.1 3.35 82.2 3.4 82.6 3.4 82.65 3.45 82.9 Q5.5 99.1 12.15 102.2 15.3 102.8 17.7 101.25 22.75 97.95 25.35 85.25 25.55 84.5 26.3 84.3 27.05 84.15 27.55 84.75 28.85 86.3 30.75 90.05 L30.85 90.2 30.9 90.25 Q37.4 101.3 47.6 101.75 51.9 101.9 53.85 99.95 55.7 98.15 55.65 94.35 L55.65 93.9 55.4 91.3 55.2 90.65 55.05 90 54.85 89.5 54.4 88.2 54.3 87.9 54.2 87.6 53.85 86.75 53.15 85.25 53.05 85.1 52.9 84.8 52.75 84.5 52.7 84.35 52.6 84.15 52.55 84.1 52.5 84.05 52.2 83.5 52.2 83.45 51.6 82.5 51.4 82.15 51.3 81.95 50.9 81.35 50.75 81.1 50.65 80.95 50.45 80.7 50.35 80.55 49.95 80.05 49.5 79.45 49.4 79.35 49.15 79 49 78.75 47.9 77.5 47.6 77.2 47.35 77 46 75.55 45.55 75.15 45.05 74.7 44.2 73.95 Q39.2 69.75 32.1 66.25 L31 65.7 30.65 65.45 30.1 64.9 Q29.6 64.35 29.8 63.6 30.1 62.8 31.05 62.35 L32.05 61.9 33.5 61.15 33.7 61.1 34.05 60.9 34.15 60.85 36.3 59.7 36.85 59.4 37.15 59.25 37.6 59.05 Q38.85 58.2 40.5 57.3 L40.8 57.1 41 57 41.25 56.8 41.8 56.45 42.4 56.1 42.75 55.9 44.1 54.95 45.1 54.25 45.25 54.15 45.4 54.05 46.1 53.45 47.55 52.35 48 51.95 49.95 50.05 50.15 49.8 52.1 47.25 52.7 46.1 53.35 44.1 53.6 42.15 53.6 41.8 Q53.7 40.25 53.3 39.1 52.9 37.65 52.3 36.75 51.25 35.35 49.65 34.15 48.3 33.2 46.65 32.45 44.45 31.45 42 31.55 L39.3 32.05"/>
  </g>
</svg>