<svg width="31.7px" height="99.75px" viewBox="0 0 31.7 99.75" xmlns="http://www.w3.org/2000/svg" xmlns:xlink="http://www.w3.org/1999/xlink">
  <defs/>
  <g>
    <path stroke="none" fill="#000000" d="M14.4 4.15 Q14.65 3.95 14.85 3.85 15.8 3.25 17.1 2.9 L17.45 2.85 Q19.9 2.4 22.05 3.85 L22.25 4 22.8 4.45 24.2 6.1 Q25.85 8.3 27.2 12.3 L28.5 16.8 28.55 17.05 28.75 18.1 29 19 29.25 20.5 29.6 22.25 29.85 23.8 29.9 24.1 30 24.9 30.15 25.75 30.5 28.35 30.7 29.95 31.25 35.8 31.45 38.55 31.6 43.1 31.65 45.95 31.75 48.7 31.75 48.85 31.65 51.5 31.5 57.15 31.45 58.45 31.35 59.75 31.05 63.6 30.9 65.95 30.5 68.85 30.25 70.9 30.2 71.2 29.9 73.3 29.1 77.75 28.85 78.95 28.6 80.2 28.25 81.65 27.75 83.45 27.55 84.2 27.25 85.25 26.25 88.6 24.5 92.85 Q23.35 95.2 22.05 96.8 L20.15 98.6 Q18.4 99.8 16.6 99.75 13.5 99.75 11.45 96.9 10.4 95.6 9.6 93.4 8.9 91.6 8.5 89.85 L7.9 87.15 7.7 86.05 7.45 84.35 7.2 82.9 6.85 80.25 6.55 78.2 5.65 70.2 5.5 68.9 5.4 67.5 5.1 64.3 4.85 61.45 4.8 61.1 4.25 53.35 3.95 45.4 3.95 45.2 3.95 40.65 4 38 4.05 37 4.15 35.85 Q4.45 30.5 5 26.85 5.05 25.75 5.35 24.6 L5.85 21.85 6.2 20.3 6.45 19.2 7.15 16.75 7.5 15.5 Q8.25 12.9 9.45 10.4 10.35 8.45 11.25 7.3 L12 6.35 Q12.85 5.25 13.95 4.4 L14.4 4.15"/>
    <path stroke="none" fill="#00cc66" d="M13.65 1.35 Q15.75 0.95 17.45 2.15 L18.15 2.7 19.3 4 19.3 13.05 11.9 16.95 4.8 13.05 Q5.65 10.25 6.65 8.2 L6.65 11.45 11.75 14.2 17 11.45 17 3.35 13.65 1.35"/>
    <path stroke="none" fill="#ffff00" d="M6.65 11.45 L6.65 8.15 Q7.45 6.45 8.35 5.25 L8.35 10.2 11.7 12.05 15.3 10.2 15.3 4.8 11.7 2.6 9.05 4.35 Q9.85 3.35 10.75 2.7 L11.6 2.15 Q12.5 1.6 13.55 1.35 L13.65 1.35 16.95 3.35 16.95 11.45 11.7 14.2 6.65 11.45"/>
    <path stroke="none" fill="#66ccff" d="M15.3 4.75 L15.3 10.2 11.75 12 8.35 10.2 8.35 5.25 9.05 4.35 11.75 2.6 15.3 4.75"/>
    <path stroke="none" fill="#ff99cc" d="M19.25 4 Q20.8 6.1 22.1 9.9 L22.1 15.4 12.1 21.85 12.1 21.6 3.75 16.65 4.4 14.3 4.8 13.05 11.9 16.9 Q15.6 15 19.25 13.05 L19.25 4"/>
    <path stroke="none" fill="#66ccff" d="M1.35 35.35 L1.45 33.2 2.15 33.6 5.7 31.75 5.7 26.35 2.3 24.3 2.7 22.05 7.4 24.9 7.4 32.95 2.15 35.75 1.35 35.35"/>
    <path stroke="none" fill="#ff99cc" d="M2.7 22.05 L3.15 19.35 9.7 23.35 9.7 34.6 2.35 38.5 1.3 37.95 1.35 35.35 2.15 35.75 7.4 33 7.4 24.9 2.7 22.05"/>
    <path stroke="none" fill="#00cc66" d="M9.7 34.65 L9.7 23.35 3.15 19.35 3.75 16.7 12.1 21.65 12.1 37.15 2.6 43.2 1.3 42.4 1.3 37.95 2.3 38.5 9.7 34.65"/>
    <path stroke="none" fill="#ffff00" d="M5.65 26.35 L5.65 31.8 2.1 33.6 1.45 33.25 Q1.7 28.55 2.3 24.3 L5.65 26.35"/>
    <path stroke="none" fill="#66ccff" d="M1.6 50.5 L1.3 42.4 2.65 43.2 2.15 58.25 1.6 50.5"/>
    <path stroke="none" fill="#ff99cc" d="M2.75 64.65 L2.45 61.45 9.7 65.9 9.7 77.2 4.55 79.9 Q4.3 78.65 4.2 77.3 L7.4 75.55 7.4 67.5 2.75 64.65"/>
    <path stroke="none" fill="#66ccff" d="M3 67.3 L2.75 64.65 7.4 67.5 7.4 75.55 4.2 77.35 3.9 75.35 5.7 74.35 5.7 68.95 3 67.3"/>
    <path stroke="none" fill="#ffff00" d="M3 67.3 L5.7 68.95 5.7 74.35 3.9 75.35 3 67.3"/>
    <path stroke="none" fill="#00cc66" d="M2.2 58.5 L2.15 58.25 12.1 64.55 12.1 79.75 5.25 84.15 5.05 83.05 4.55 79.9 9.7 77.2 9.7 65.9 2.45 61.45 2.2 58.5"/>
    <path stroke="none" fill="#ff99cc" d="M12.1 40.15 L5 44.7 5 56 12.1 59.85 19.45 56 19.45 44.7 12.1 40.15 M12.3 37.35 L12.3 37.5 21.8 43.2 21.9 58.2 12.1 64.55 2.15 58.25 2.65 43.2 12.1 37.15 12.3 37.35"/>
    <path stroke="none" fill="#00cc66" d="M4.95 44.7 L12.05 40.15 19.45 44.7 19.45 55.95 12.05 59.8 4.95 55.95 4.95 44.7 M17.15 46.25 L11.9 43.05 6.8 46.25 6.8 54.35 11.9 57.05 17.15 54.35 17.15 46.25"/>
    <path stroke="none" fill="#ffff00" d="M11.9 45.5 L8.55 47.7 8.55 53.15 11.9 54.95 15.5 53.15 15.5 47.7 11.9 45.5 M11.9 43.05 L17.15 46.25 17.15 54.35 11.9 57.05 6.85 54.35 6.85 46.25 11.9 43.05"/>
    <path stroke="none" fill="#66ccff" d="M8.55 53.15 L8.55 47.7 11.95 45.55 15.5 47.7 15.5 53.15 11.95 54.95 8.55 53.15"/>
    <path stroke="none" fill="#66ccff" d="M23.35 14.3 L23.35 14.45 23.85 16.55 22.1 15.4 22.1 9.9 23.35 14.3"/>
    <path stroke="none" fill="#ffff00" d="M23.85 16.55 L24.45 19.7 22.2 18.3 15.05 22.8 15.05 34.1 22.2 37.95 26.3 35.85 26.45 40.4 22.1 43.05 21.8 43.15 12.3 37.5 12.3 37.3 12.1 37.15 12.1 21.85 22.1 15.4 23.85 16.55"/>
    <path stroke="none" fill="#66ccff" d="M24.75 21.55 L25 23.15 22 21.25 16.9 24.45 16.9 32.55 22 35.25 26.1 33.15 26.3 35.85 22.15 37.95 15.05 34.1 15.05 22.85 22.15 18.3 24.45 19.7 24.75 21.55"/>
    <path stroke="none" fill="#ff99cc" d="M21.95 21.25 L25 23.1 25.35 25.7 21.95 23.65 18.6 25.85 18.6 31.25 21.95 33.1 25.55 31.25 25.55 27.3 26.05 33.15 21.95 35.25 16.9 32.55 16.9 24.45 21.95 21.25"/>
    <path stroke="none" fill="#00cc66" d="M22 23.7 L25.35 25.75 25.55 27.3 25.55 31.3 22 33.1 18.6 31.3 18.6 25.85 22 23.7"/>
    <path stroke="none" fill="#66ccff" d="M21.8 43.35 L21.85 43.35 26.45 40.4 26.5 43.2 24.35 44.55 24.35 55.85 26.2 56.9 25.9 60.75 21.85 58.2 21.8 43.35"/>
    <path stroke="none" fill="#00cc66" d="M26.2 46.2 L26.55 46 26.5 48.7 26.3 54.35 26.2 54.25 26.2 46.2"/>
    <path stroke="none" fill="#ffff00" d="M26.6 46 L26.2 46.15 26.2 54.25 26.35 54.3 26.2 56.85 24.35 55.8 24.35 44.55 26.5 43.15 26.6 46"/>
    <path stroke="none" fill="#ffff00" d="M21.9 58.2 L25.9 60.75 25.75 63.1 22.2 60.9 15.05 65.45 15.05 76.75 22.2 80.6 22.65 80.35 22.2 82.1 21.15 85.4 12.3 80.1 12.3 79.95 12.1 79.75 12.1 64.55 21.9 58.2"/>
    <path stroke="none" fill="#66ccff" d="M25.75 63.05 L25.35 65.9 22 63.85 16.9 67.05 16.9 75.15 22 77.85 23.5 77.15 22.65 80.35 22.15 80.55 15.05 76.7 15.05 65.45 22.15 60.9 25.75 63.05"/>
    <path stroke="none" fill="#00cc66" d="M25.05 68.25 L24.75 70.35 23.95 74.75 22 75.7 18.6 73.9 18.6 68.45 22 66.3 25.05 68.25"/>
    <path stroke="none" fill="#ff99cc" d="M25.35 65.9 L25.05 68.2 21.95 66.25 18.6 68.45 18.6 73.85 21.95 75.7 23.95 74.7 23.5 77.15 21.95 77.85 16.9 75.15 16.9 67.05 21.95 63.85 25.35 65.9"/>
    <path stroke="none" fill="#ff99cc" d="M12.25 79.95 L12.25 80.1 21.15 85.4 19.45 89.55 19.45 87.3 12.1 82.75 5.8 86.8 5.2 84.15 12.1 79.75 12.25 79.95"/>
    <path stroke="none" fill="#ffff00" d="M17.15 88.85 L17.15 93.25 15.5 94.85 15.5 90.3 11.9 88.15 8.55 90.3 8.55 93.4 Q7.55 92.1 6.85 90.2 L6.85 88.85 11.9 85.65 17.15 88.85"/>
    <path stroke="none" fill="#00cc66" d="M6.85 90.15 Q6.2 88.65 5.8 86.8 L12.1 82.75 19.45 87.3 19.45 89.5 Q18.35 91.8 17.15 93.25 L17.15 88.85 11.9 85.65 6.85 88.85 6.85 90.15"/>
    <path stroke="none" fill="#66ccff" d="M11.95 88.15 L15.5 90.3 15.5 94.85 Q14.15 95.75 12.7 95.75 10.25 95.75 8.55 93.4 L8.55 90.3 11.95 88.15"/>
    <path stroke="none" fill="#ec0076" d="M22.35 9.9 L22.35 15.25 24 16.35 24.1 16.7 23.75 16.75 22.1 15.7 12.35 22 12.35 37 12.45 37.15 12.55 37.3 12.55 37.35 21.9 42.9 22 42.85 26.35 40.15 26.7 40.25 26.6 40.6 22.05 43.5 22.15 58.05 26.05 60.5 26.15 60.85 25.8 60.95 21.9 58.5 12.35 64.65 12.35 79.65 12.45 79.75 12.55 79.9 12.55 79.95 21.3 85.2 21.35 85.55 21.15 85.65 21.05 85.6 12.15 80.3 12.05 80.1 12.05 80.05 5.35 84.35 Q5.15 84.45 5 84.25 4.9 84.1 5.1 83.95 L11.85 79.6 11.85 64.65 2.4 58.7 2.05 58.65 1.9 58.25 2.35 43.3 1.15 42.6 1.1 42.25 Q1.2 42.05 1.45 42.15 L2.6 42.85 11.85 37 11.85 21.75 3.65 16.9 Q3.45 16.75 3.55 16.55 L3.9 16.45 12.25 21.4 12.3 21.45 21.85 15.25 21.85 9.9 Q22.15 9.5 22.35 9.9 M12.05 37.45 L2.85 43.3 2.4 58.1 12.1 64.25 21.65 58.05 21.55 43.3 12.15 37.7 12.05 37.5 12.05 37.45"/>
    <path stroke="none" fill="#00cc66" d="M12.25 3.2 L11.9 3.45 11.4 3.75 10.05 5.15 9.35 6.05 Q8.6 7 7.8 8.7 6.7 11.05 6 13.4 L5.65 14.7 Q5.25 15.9 5 17 L4.75 18.1 4.4 19.6 3.9 22.25 3.9 22.35 3.55 24.4 Q3 28.05 2.7 33.3 L2.65 34.35 2.6 35.45 2.55 37.95 2.55 42.35 2.55 42.5 2.85 50.4 3.4 58.1 3.45 58.45 3.7 61.3 4 64.55 4.1 65.85 4.25 67.25 5.15 75.2 Q5.2 76.15 5.4 77.1 L5.45 77.25 5.8 79.7 6 81.25 6.25 82.85 6.45 83.95 7 86.5 8 89.75 Q8.75 91.6 9.5 92.65 10.9 94.5 12.7 94.5 13.75 94.5 14.8 93.8 L16.2 92.5 18.35 89 19.95 85 20.95 81.8 21.25 80.85 21.45 80 21.9 78.3 22.3 76.85 22.5 75.75 22.75 74.45 23.55 70.15 23.85 68.1 23.9 67.75 24.15 65.85 24.5 62.95 24.65 60.65 24.95 56.85 25.05 55.55 25.1 54.25 25.25 48.7 25.35 46 25.25 43.2 25.2 40.5 25.05 35.95 24.85 33.25 24.3 27.45 24.15 25.9 23.8 23.35 23.65 22.6 23.55 21.7 23.5 21.5 23.25 19.85 22.9 18.2 22.65 16.8 22.45 15.85 22.2 14.8 22.15 14.5 20.95 10.3 Q19.7 6.75 18.25 4.75 L17.3 3.65 16.7 3.15 Q15.35 2.25 13.95 2.6 L13.7 2.6 Q12.85 2.85 12.25 3.2 M13.55 0.1 Q16 -0.35 18.15 1.1 L18.35 1.25 18.9 1.7 20.3 3.35 Q21.95 5.55 23.3 9.55 L24.6 14.05 24.65 14.3 24.85 15.35 25.1 16.25 25.35 17.7 25.7 19.5 25.95 21.05 26 21.35 26.1 22.15 26.25 23 26.6 25.6 26.8 27.2 27.35 33.05 27.55 35.8 27.7 40.35 27.75 43.2 27.85 45.95 27.85 46.1 27.75 48.75 27.6 54.4 27.55 55.65 27.45 57 27.15 60.85 27 63.2 26.6 66.1 26.35 68.15 26.3 68.45 26 70.55 25.2 75 25 76.2 24.7 77.45 24.35 78.9 23.85 80.7 23.65 81.5 23.35 82.5 22.35 85.85 20.6 90.1 Q19.45 92.45 18.15 94.05 L16.25 95.85 Q14.45 97 12.7 97 9.65 97 7.55 94.15 6.5 92.85 5.7 90.65 5 88.85 4.6 87.1 L4 84.4 3.8 83.3 3.55 81.6 3.3 80.15 Q3.05 78.9 2.95 77.5 L2.65 75.45 1.75 67.45 1.6 66.15 1.5 64.75 1.2 61.55 0.95 58.7 0.9 58.35 0.35 50.55 0.05 42.6 0.05 42.45 0.05 37.9 0.1 35.25 0.15 34.25 0.25 33.1 Q0.55 27.75 1.1 24.1 1.15 23 1.45 21.85 L1.95 19.1 2.3 17.55 2.55 16.45 3.25 14 3.6 12.75 Q4.35 10.15 5.55 7.65 6.45 5.7 7.35 4.55 L8.1 3.6 Q8.9 2.55 10.05 1.65 L10.5 1.4 10.95 1.1 Q11.9 0.5 13.2 0.15 L13.55 0.1"/>
  </g>
</svg>