<svg width="110.85px" height="71.4px" viewBox="0 0 110.85 71.4" xmlns="http://www.w3.org/2000/svg" xmlns:xlink="http://www.w3.org/1999/xlink">
  <defs/>
  <g>
    <path stroke="none" fill="#000000" d="M44.3 8.3 L45.7 8.2 Q50.45 8.2 54.95 12.15 L56.5 13.6 59.55 17.45 Q61.45 19.65 63.45 17.9 64.3 16.95 65.15 15.35 L65.5 14.65 Q67.55 10.6 70.2 8.05 71.25 7 72.55 6.1 76.65 3.25 82.1 2.85 85.6 2.6 89.95 3.6 92.05 4.1 93.9 4.95 95.5 5.55 97.25 6.6 103.05 10.2 106.35 16.4 L107.25 18.3 Q111.8 28.4 110.6 45.4 109.55 53.15 107.4 58.35 L105.25 62.6 Q101.6 68.35 95.65 69.5 L95.3 69.6 93.5 69.7 Q90.85 69.6 88.95 68.5 88.15 68.05 87.25 67.25 81.95 62.65 80.35 49.1 L80.25 48.5 79.75 46.6 78.8 44 77.95 42.7 Q76.7 41.45 76.3 41.7 75.25 41.15 71.4 45.5 L71.25 45.65 Q60.05 56.2 51.75 50.2 L50.85 49.5 50.55 49.2 48.95 47.55 Q45.6 43.9 42.75 44.3 L42.7 44.4 42.6 44.5 Q41.3 45.55 40.05 48.5 38.8 51.55 37.65 56 L37.2 57.65 36.45 59.7 34 64.15 30.85 67.6 28.75 69 28.6 69.1 28.1 69.35 27.4 69.7 Q24.4 71 21 71.35 L20.85 71.4 20.8 71.4 Q16.6 71.25 13.4 68.35 9.45 64.85 7 57 L6.15 54.15 6.05 53.7 5.65 52.2 5.45 51.25 Q2.4 36.65 5.55 20.5 L5.7 19.8 5.8 19.35 5.85 19.2 6.65 16.7 7.9 13.75 Q11 7.15 15.7 6.1 21 4.1 24.25 8.25 L25.65 10.55 25.7 10.7 25.8 10.9 25.95 11.3 26 11.5 Q27.05 16.7 28.3 16.7 L28.7 17 30.2 16.4 32.2 15 Q35.85 11.05 39.8 9.4 L41.95 8.7 44.3 8.3"/>
    <path stroke="none" fill="#000000" d="M3.35 50.7 L5.05 49.9 4.25 53.8 3.4 51 3.35 50.7"/>
    <path stroke="none" fill="#ecff00" d="M12.15 4.5 Q16.6 2.7 19.35 6.2 L14.7 11.95 5.1 11.5 Q8 5.3 12.15 4.5"/>
    <path stroke="none" fill="#ecff00" d="M60.1 43.9 Q59.85 43.15 59.15 42.8 L57.7 42.7 Q57 43 56.6 43.65 56.3 44.35 56.55 45.1 56.8 45.9 57.55 46.25 L59 46.3 Q59.8 46.05 60.05 45.35 60.4 44.7 60.1 43.9 M100.25 36.2 Q99.95 36.95 100.2 37.65 100.45 38.45 101.15 38.8 L102.6 38.9 Q103.4 38.6 103.7 37.9 104.05 37.3 103.75 36.45 103.5 35.75 102.8 35.4 L101.35 35.25 Q100.6 35.55 100.25 36.2 M11.95 39.1 Q11.7 38.4 11.05 38.1 L9.65 38.05 Q9 38.3 8.65 38.95 8.35 39.6 8.6 40.35 8.85 40.95 9.5 41.3 L10.9 41.4 11.85 40.5 Q12.2 39.85 11.95 39.1 M47.85 19.55 L46.4 19.45 Q45.7 19.75 45.35 20.4 45.05 21.15 45.3 21.85 45.55 22.65 46.25 23 L47.7 23.05 48.8 22.1 Q49.1 21.45 48.85 20.65 48.6 19.95 47.85 19.55 M67.1 6.15 L71.6 6.75 78.3 17.2 84.2 6.6 92.65 4.9 Q98.1 8.25 101.3 14.2 L97.05 13.9 93.2 8.75 91.1 14.55 85.1 16.3 90.05 20.15 90.35 26.4 95.55 23.25 101.6 25.3 99.75 19.3 102.2 16.05 Q106.6 26 105.4 42.55 104.4 50.05 102.3 55.1 L97.7 58.2 100.25 59.15 Q96.85 64.55 91.3 65.55 L91.2 65.6 88.05 57.95 84.15 63.55 Q79.15 59.2 77.6 46.05 L77.55 45.6 80 46.4 83.9 56.6 90.9 48.6 102 48.65 95.65 39.65 99.1 29.4 88.2 32.2 78.95 25.8 78.65 36.6 74.95 39.1 Q71.8 35.25 66.45 41.95 56.05 51.95 48.55 46.4 L48.7 41.35 55.05 37.05 47.7 33.95 45.2 26.4 40.45 32.3 32.65 31.95 36.95 38.45 34.95 45.25 Q33.65 48.3 32.5 52.95 L32.35 52.95 33.45 46.7 25.55 49.4 18.2 44.95 18.85 53.35 12.55 58.8 20.85 61.25 22.95 65.8 Q20.25 67 16.9 67.35 13.2 67.25 10.25 64.65 L12.15 64.3 5.45 56.9 7.4 46.95 2.9 49.15 2.75 48.25 Q-0.3 34 2.85 18 L3.1 16.8 3.9 14.45 8.9 22.05 5.3 34.25 17.55 31.7 27.75 39.55 28.25 26.75 38.6 19.75 26.85 14.75 29.1 13.15 Q32.55 9.35 36.35 7.8 L34.95 14.15 43.85 11.6 51.8 16.9 51.65 11.7 54.65 15.45 Q57.4 18.55 60.35 16.05 61.35 15 62.35 13.1 L62.65 12.5 60.1 20.65 51.85 23.5 59 28.55 59.75 37.2 66.9 32.5 75.35 34.9 72.45 26.7 77.25 19.65 68.35 19.4 62.65 12.5 Q64.55 8.7 67.1 6.15"/>
    <path stroke="none" fill="#3333ff" d="M8.6 40.3 Q8.35 39.6 8.65 38.95 9.05 38.3 9.7 38.05 L11.1 38.1 12 39.1 Q12.25 39.85 11.85 40.5 L10.9 41.4 9.5 41.3 8.6 40.3"/>
    <path stroke="none" fill="#3333ff" d="M45.25 21.85 Q45 21.15 45.3 20.4 45.7 19.75 46.4 19.45 L47.85 19.6 Q48.55 19.95 48.8 20.65 49.1 21.5 48.75 22.1 48.5 22.8 47.65 23.1 L46.25 23 Q45.5 22.65 45.25 21.85"/>
    <path stroke="none" fill="#3333ff" d="M100.2 37.65 Q99.95 36.95 100.25 36.2 100.65 35.55 101.35 35.25 L102.8 35.35 Q103.5 35.75 103.75 36.45 104.05 37.3 103.7 37.9 103.45 38.6 102.6 38.9 L101.15 38.8 Q100.45 38.45 100.2 37.65"/>
    <path stroke="none" fill="#3333ff" d="M56.55 45.05 Q56.3 44.35 56.6 43.6 57 42.95 57.7 42.65 L59.15 42.8 Q59.85 43.15 60.1 43.85 60.4 44.7 60.05 45.3 59.8 46 58.95 46.3 L57.55 46.2 Q56.8 45.85 56.55 45.05"/>
    <path stroke="none" fill="#000000" d="M8.9 22 L3.9 14.4 Q4.45 12.8 5.1 11.5 L14.7 11.95 19.35 6.2 20.6 8.3 15.85 14.15 6.05 13.7 11.5 22.05 8.65 31.3 18.15 29.25 25.95 35.35 26.35 25.55 34.2 20.15 25 16.15 24.8 15.5 Q25.55 15.4 26.9 14.7 L38.6 19.7 28.3 26.7 27.8 39.5 17.6 31.65 5.35 34.2 8.9 22"/>
    <path stroke="none" fill="#3333ff" d="M11.5 22.1 L6.05 13.7 15.85 14.2 20.6 8.35 20.85 8.95 Q21.6 14.1 23.85 15.1 24.15 15.55 24.75 15.55 L25 16.2 34.15 20.2 26.35 25.6 25.9 35.4 18.1 29.3 8.65 31.35 11.5 22.1"/>
    <path stroke="none" fill="#3333ff" d="M3.3 50.7 L2.9 49.1 7.35 46.95 5.45 56.9 12.15 64.25 10.25 64.65 Q6.55 61.25 4.25 53.85 L5 49.9 3.3 50.7"/>
    <path stroke="none" fill="#000000" d="M40.45 6.75 Q45.45 6.1 50.2 10.3 L50.3 13.85 44.15 9.75 37.2 11.8 38.35 7.1 40.45 6.75"/>
    <path stroke="none" fill="#3333ff" d="M36.35 7.75 L38.35 7.1 37.2 11.8 44.1 9.75 50.3 13.85 50.15 10.3 51.65 11.7 51.8 16.9 43.8 11.55 34.95 14.1 36.35 7.75"/>
    <path stroke="none" fill="#3333ff" d="M40.45 32.25 L45.2 26.35 47.7 33.9 55.05 37.05 48.7 41.3 48.5 46.4 47.4 45.4 47.55 40.6 52.3 37.25 46.7 34.85 44.85 29.05 41.15 33.65 35.2 33.35 38.5 38.5 37.85 40.7 Q36.3 42 34.95 45.25 L36.95 38.4 32.65 31.9 40.45 32.25"/>
    <path stroke="none" fill="#000000" d="M52.35 37.3 L47.55 40.65 47.4 45.45 45.95 43.95 Q41.85 39.55 38.3 40.4 L37.85 40.75 38.5 38.5 35.2 33.4 41.2 33.7 44.85 29.1 46.75 34.9 52.35 37.3"/>
    <path stroke="none" fill="#000000" d="M60.1 20.65 L62.65 12.5 68.35 19.4 77.25 19.6 72.45 26.7 75.35 34.9 66.9 32.5 59.75 37.2 58.95 28.55 51.85 23.5 60.1 20.65 M67.7 20.75 L63.4 15.5 61.4 21.8 55.05 23.9 60.6 27.9 61.15 34.45 66.65 30.85 73.1 32.7 70.9 26.45 74.55 21 67.7 20.75"/>
    <path stroke="none" fill="#3333ff" d="M63.4 15.5 L67.7 20.75 74.55 21 70.9 26.4 73.1 32.7 66.65 30.85 61.15 34.45 60.6 27.85 55.05 23.9 61.4 21.8 63.4 15.5"/>
    <path stroke="none" fill="#000000" d="M71.6 6.75 L67.15 6.15 69.3 4.35 73.35 4.95 78.3 13 82.85 4.55 89.5 3.3 92.7 4.85 84.25 6.55 78.3 17.2 71.6 6.75"/>
    <path stroke="none" fill="#ecff00" d="M73.35 4.95 L69.3 4.35 Q73.1 1.7 78.25 1.3 81.6 1.05 85.7 2.05 87.65 2.5 89.45 3.3 L82.8 4.55 78.3 13 73.35 4.95"/>
    <path stroke="none" fill="#3333ff" d="M88.15 32.15 L99.1 29.35 95.65 39.65 102 48.6 90.9 48.55 83.9 56.6 79.95 46.4 77.55 45.55 77 43.45 81.75 45.1 84.6 52.95 90.05 46.55 98.6 46.7 93.7 39.8 96.25 31.95 87.85 34.1 80.85 29.15 80.6 37.4 76 40.65 74.95 39.1 78.65 36.55 78.95 25.75 88.15 32.15"/>
    <path stroke="none" fill="#000000" d="M93.75 39.85 L98.65 46.7 90.05 46.6 84.65 53 81.8 45.15 77.05 43.45 76 40.7 80.65 37.4 80.9 29.15 87.9 34.1 96.3 32 93.75 39.85"/>
    <path stroke="none" fill="#000000" d="M93.6 10.85 L91.9 15.4 87.4 16.65 91.25 19.8 91.4 24.55 95.5 21.95 100.05 23.6 98.7 19 101.45 15.2 96.55 14.8 93.6 10.85 M90.05 20.15 L85.1 16.3 91.05 14.55 93.2 8.75 97.05 13.9 101.25 14.2 102.2 16.05 99.75 19.3 101.6 25.3 95.55 23.25 90.35 26.35 90.05 20.15"/>
    <path stroke="none" fill="#ecff00" d="M91.4 24.55 L91.25 19.8 87.4 16.65 91.95 15.4 93.6 10.85 96.55 14.75 101.45 15.2 98.7 19 100.05 23.6 95.5 21.95 91.4 24.55"/>
    <path stroke="none" fill="#3333ff" d="M91.2 65.6 L89.6 65.65 87.9 61.4 85.65 64.65 84.15 63.55 88.05 57.95 91.2 65.6"/>
    <path stroke="none" fill="#ecff00" d="M87.9 61.4 L89.55 65.7 Q87.4 65.65 85.65 64.65 L87.9 61.4"/>
    <path stroke="none" fill="#000000" d="M102.3 55.1 L100.25 59.15 97.7 58.2 102.3 55.1"/>
    <path stroke="none" fill="#3333ff" d="M19.75 47.55 L20.2 53.95 15.45 58.15 21.85 60.1 24.15 65.15 22.95 65.75 20.8 61.25 12.55 58.75 18.85 53.35 18.15 44.95 25.55 49.35 33.45 46.7 32.05 54.5 31.3 56.5 30.3 55.2 31.5 48.85 25.4 50.9 19.75 47.55"/>
    <path stroke="none" fill="#ecff00" d="M30.3 55.2 L31.3 56.5 Q30.35 58.75 29.05 60.65 L28 60.7 26.05 63.85 24.15 65.15 21.85 60.1 15.45 58.15 20.2 53.95 19.75 47.55 25.4 50.95 31.5 48.9 30.3 55.2"/>
    <path stroke="none" fill="#3333ff" d="M28.05 60.7 L29.05 60.65 26.1 63.85 28.05 60.7"/>
    <path stroke="none" fill="#3333ff" d="M68.6 3.3 Q72.7 0.45 78.15 0.05 81.65 -0.2 86 0.8 88.1 1.3 89.95 2.15 91.55 2.8 93.3 3.8 99.1 7.4 102.4 13.55 L102.45 13.65 103.3 15.5 Q107.85 25.6 106.65 42.6 105.6 50.35 103.45 55.55 L101.3 59.8 Q97.65 65.55 91.7 66.7 L91.35 66.8 89.55 66.9 Q86.9 66.8 85 65.7 L83.3 64.45 Q78 59.85 76.4 46.3 L76.3 45.7 75.85 43.85 74.85 41.2 74 39.9 Q72.75 38.65 72.35 38.9 71.35 38.35 67.45 42.7 L67.3 42.85 Q56.1 53.4 47.8 47.4 L46.95 46.7 46.6 46.4 45 44.75 Q41.65 41.1 38.8 41.5 L38.75 41.6 38.65 41.7 Q37.35 42.75 36.1 45.7 34.85 48.75 33.7 53.2 L33.25 54.85 32.5 56.9 30.05 61.35 26.9 64.8 24.8 66.2 24.65 66.3 24.15 66.55 23.45 66.9 Q20.45 68.2 17.05 68.55 L16.9 68.6 16.85 68.6 Q12.7 68.45 9.45 65.55 5.5 62.05 3.05 54.2 L2.2 51.35 2.1 50.9 1.7 49.35 1.5 48.45 Q-1.55 33.85 1.6 17.7 L1.75 17 1.85 16.55 1.9 16.4 2.7 13.9 3.95 10.95 Q7.05 4.35 11.8 3.3 17.05 1.3 20.3 5.45 L21.7 7.75 21.75 7.9 21.85 8.1 22 8.5 22.05 8.7 Q23.1 13.9 24.35 13.9 L24.75 14.2 26.3 13.6 28.25 12.2 Q31.9 8.25 35.85 6.6 L38 5.9 40.35 5.5 41.75 5.4 Q46.5 5.4 51 9.35 L52.55 10.8 55.6 14.65 Q57.5 16.85 59.5 15.1 L61.2 12.55 61.55 11.85 Q63.6 7.8 66.25 5.25 67.3 4.15 68.6 3.3 M68 7 Q65.6 9.3 63.75 13.05 L63.7 13.15 63.55 13.45 63.45 13.65 61.3 16.9 61.15 17 Q57.3 20.05 53.7 16.25 L53.6 16.15 50.75 12.5 49.35 11.25 Q45 7.4 40.6 8 L38.65 8.3 Q37.7 8.55 36.85 8.9 33.3 10.35 30 13.95 L29.85 14.1 27.55 15.75 Q25.9 16.65 24.9 16.75 L24.75 16.75 Q23.5 16.65 23.05 16.05 20.5 14.75 19.6 9.25 L19.55 9.1 19.45 8.8 18.35 6.95 Q16.2 4.15 12.6 5.65 L12.4 5.75 Q8.8 6.45 6.2 12.05 L5.05 14.8 4.3 17.05 4.2 17.55 4.1 18.15 Q1 33.85 3.95 47.95 L4.15 48.85 4.5 50.3 4.55 50.6 4.6 50.65 5.4 53.4 Q7.7 60.6 11.1 63.7 13.65 65.95 16.85 66.1 19.85 65.75 22.45 64.6 L22.95 64.35 23.55 64.05 25.35 62.8 28.05 59.9 30.2 55.95 30.9 54.05 31.25 52.65 Q32.45 47.9 33.8 44.75 35.25 41.25 37 39.8 37.2 39.55 37.55 39.3 L38 39.15 Q42.3 38.15 46.85 43.05 L48.2 44.5 48.6 44.8 49.25 45.35 Q51.6 47.1 54.25 47.1 59.2 47.1 65.55 41.1 69.25 36.4 72.35 36.4 74.4 36.4 75.95 38.3 L77.15 40.15 78.2 43.1 78.8 45.25 78.8 45.55 78.8 45.65 78.85 45.9 Q80.35 58.55 84.95 62.6 L86.25 63.5 Q87.6 64.3 89.6 64.4 L90.8 64.35 91.15 64.3 Q96.1 63.35 99.2 58.45 L101.15 54.6 Q103.15 49.65 104.15 42.35 105.3 26.1 101.05 16.55 L100.2 14.8 Q97.2 9.15 92 5.95 90.45 5.05 89 4.45 87.25 3.7 85.4 3.25 81.55 2.3 78.3 2.55 73.55 2.85 70 5.35 L68 7"/>
  </g>
</svg>