<svg width="69.55px" height="73.35px" viewBox="0 0 69.55 73.35" xmlns="http://www.w3.org/2000/svg" xmlns:xlink="http://www.w3.org/1999/xlink">
  <defs/>
  <g>
    <path stroke="none" fill="#000000" d="M27.55 10.35 L27.7 11.05 27.75 11.25 28.1 14.85 28.35 15.9 29.3 14.9 29.35 14.8 29.45 14.75 29.75 14.35 Q32.85 10.6 36.9 8.85 37.95 8.4 39.25 8.1 42.1 7.3 45.5 7.5 48.3 7.7 51.45 8.6 L51.8 8.7 Q53.6 9.55 55 10.5 L56 11.15 59.25 13.75 60.95 15.6 62.8 18 62.9 18.15 63.2 18.8 64.3 20.45 65 21.7 65.3 22.25 65.75 23.15 66 23.55 67.65 27.9 Q68.65 31.2 69.05 33.75 70.1 40.85 68.9 48.75 L68.85 48.95 68.85 49.2 68.85 49.5 68.8 49.85 68.8 50.1 68.6 52.35 68.6 52.45 67.85 57.65 67.85 57.95 67.75 58.5 Q66.75 63.9 64.7 67.45 L63.6 69.15 63.5 69.25 61.65 71.15 Q59 73.25 55.75 73.35 L55.15 73.4 52.45 73.1 Q48.7 72.25 46.45 69.3 L45 66.75 44.95 66.65 44.4 65.2 Q43.35 61.9 43.2 57.2 L42.7 51.25 42.65 50.7 42.6 50.4 42.55 49.95 42.5 49.75 Q41.9 46.7 41.1 45.25 39.7 43.25 39.2 43.65 L39.1 43.65 Q38.55 43.85 38.1 44.15 36.25 45.5 35.35 49.7 L34.75 53.45 34.75 54.15 Q34.55 57.45 34.15 59.65 L34.1 59.8 Q32.2 66 29.45 69.1 27.5 71.25 25.3 72.15 L24.95 72.2 20.85 72.7 17.35 71.9 Q11.1 69.6 8.1 61.2 L7.7 60.15 Q6.65 56.8 5.85 52.9 L5 47.35 5 47.25 4.65 45.15 Q4.2 42.55 4 39.5 L3.9 35.95 3.9 35.45 Q3.9 32.8 4.2 29.4 4.4 26.9 4.85 24.85 L4.85 24.55 4.95 24 Q5.85 19.35 7.1 15.45 L7.15 15.3 7.35 14.75 7.6 14.15 7.75 13.65 7.8 13.5 Q11.65 3.45 17.8 2.8 L17.95 2.8 18 2.8 19.5 2.8 21.6 3.15 Q26.25 4.75 27.55 10.35"/>
    <path stroke="none" fill="#66cc66" d="M16.35 26.55 Q14.6 29.9 14.4 34.05 14.5 36.7 15.15 39.2 15.05 28.8 19.85 22.65 19.3 23.95 20.2 25.85 L20.3 26.15 Q23.5 33.5 19.05 41 16.95 44.8 16.35 49 L14.15 45.3 Q12.5 42.85 11.5 40.7 8.9 35.15 11.15 29.3 12.3 26.5 14.7 24.2 16.45 22.6 18.4 21.6 L20 20.9 20.15 21 Q17.95 23.1 16.35 26.55"/>
    <path stroke="none" fill="#66cc66" d="M15.45 1.3 L17.35 1.6 Q21.25 2.95 22.4 7.85 L22.35 8.7 Q22.05 11.15 20.65 13.3 19.75 14.95 18.45 16 L17.35 16.85 17.3 16.85 Q18.45 14.75 19.05 11.9 19.7 9 18.9 5.8 L17.35 2.15 Q19.5 9.9 17.15 15.55 17.35 14.35 16.2 13.2 L16.15 13 Q12.25 8.1 14.1 1.5 L14.15 1.3 15.45 1.3"/>
    <path stroke="none" fill="#66cc66" d="M26.75 22.45 L26.7 18.2 Q26.4 15.25 26.7 13 L26.7 12.85 Q26.65 12.6 26.75 12.45 29.65 8.9 33.45 7.25 L32.55 8.5 Q31.35 10.95 30.6 13.35 32.9 9.3 35.6 6.55 38.3 5.8 41.45 6 40.05 12.95 33.1 16.85 29.35 19.1 26.75 22.45"/>
    <path stroke="none" fill="#66cc66" d="M9.25 8.15 L9.9 9.7 Q10.5 11.5 10.55 13.75 10.65 16.9 9.6 19.5 7.2 24.9 1.85 26.6 L1.55 26.75 Q1.7 24.5 2.15 22.35 L2.65 21.95 4.4 20.45 Q7 17.65 7.95 14.25 9.15 11.05 9.15 8.15 L9.25 8.15"/>
    <path stroke="none" fill="#66cc66" d="M4.85 11.8 L5.65 11.45 5.85 11.3 Q7.75 10.7 8.25 9.5 7.4 15.65 2.25 21.5 3.05 17.3 4.35 13.05 L4.85 11.8"/>
    <path stroke="none" fill="#66cc66" d="M7.3 50.75 Q6.35 54.8 6.8 58.8 L5.75 57.8 5 57 Q4 53.85 3.2 49.9 2.7 47.35 2.35 44.45 L1.95 42.2 Q1.8 37.35 3.4 33.35 3.25 34.65 4.6 36.2 L4.8 36.45 Q9.5 42.5 7.3 50.75"/>
    <path stroke="none" fill="#66cc66" d="M37.35 27.2 Q38.5 30.45 38.9 33.25 39.85 37.75 38.3 41.9 36.95 39.45 34.95 39.7 34.1 39.95 33.5 40.4 L33.65 39.85 Q34.3 36.8 34.4 33.85 31.25 45.7 24 51.2 24.95 49.9 24.5 47.5 L24.4 47.1 Q23.1 37.9 30.45 30.6 33.95 26.85 36 22.25 36.3 24.15 37.35 27.2"/>
    <path stroke="none" fill="#66cc66" d="M47.35 7.1 Q48.9 7.8 50.4 8.8 49.7 13.6 46.55 19.05 L49.5 15.35 Q51.05 12.4 51.3 9.4 L54.45 11.95 54.35 13 Q53.45 18.8 48.7 21.95 46.95 23.3 44.5 24.5 42.2 25.5 41 26.45 42.45 22.8 42.55 18.75 42.5 11.4 47.35 7.1"/>
    <path stroke="none" fill="#66cc66" d="M60 19.55 L60.25 20 59.3 21.8 Q57.55 25.15 57.4 29.1 57.6 31.7 58.15 34.05 58.05 26.55 60.8 21.2 L60.85 21.2 62.55 25.55 Q63.4 28.25 63.9 31.15 L62.45 34.6 Q59.9 39.55 59.3 47.7 58.5 44.95 57.3 43 56.1 41 54.1 35.6 52.05 30.25 54.25 24.6 55.3 21.8 57.75 19.65 L59.3 18.3 60 19.55"/>
    <path stroke="none" fill="#66cc66" d="M49.05 40.15 Q50.6 43.2 51.35 46.05 53.6 52.85 49.9 59.45 48.1 62.5 44.8 64.85 L43.55 65.8 42.2 63.4 43.3 61.85 Q46 58.15 46.8 53.3 47.1 50.1 46.85 47.15 45.6 56.1 41.7 61.95 40.7 58.8 40.55 54.35 L40.05 48.3 Q41.05 46.2 42.6 44.3 45.7 40.1 47.05 35.3 L49.05 40.15"/>
    <path stroke="none" fill="#66cc66" d="M61.35 50.9 Q62.3 50.15 63.5 49.55 L62.75 54.6 Q61.55 55.95 60.6 57.45 58.8 60.9 58.7 64.45 L58.65 65.65 56.95 67.4 Q56.55 66.6 56.3 65.65 55.4 62.65 55.75 59.8 56.65 54.05 61.35 50.9"/>
    <path stroke="none" fill="#66cc66" d="M30.2 46.65 L29.6 50.55 29.6 51.35 Q27.45 52.35 25.25 52.8 L23.2 53.15 23.2 52.9 Q26.2 51.2 29.2 47.85 L30.2 46.65"/>
    <path stroke="none" fill="#66cc66" d="M13 53.9 Q13.45 55.15 15.45 55.75 L15.7 55.9 Q22.15 58.5 24.6 65.5 22.9 67.4 20.9 68.2 L20.85 68.15 Q14 61.2 13 53.9"/>
    <path stroke="none" fill="#66cc66" d="M12.05 52.6 Q12.05 55.6 13.25 58.95 14.35 62.5 17.1 65.4 L20.8 68.25 17.05 68.7 Q15.4 68.55 13.85 68 12.5 66.5 11.65 64.45 10.5 61.7 10.6 58.45 10.6 56.2 11.35 54.15 L11.95 52.6 12.05 52.6"/>
    <path stroke="none" fill="#308d30" d="M19.4 5.7 Q20.25 8.85 19.55 12.05 L18.65 15.2 Q19.55 14.3 20.25 13.05 21.65 10.85 21.9 8.65 L21.95 7.9 Q21.95 7.4 22.45 7.4 22.9 7.4 22.95 7.9 L22.85 8.8 Q22.6 11.2 21.1 13.55 20.15 15.3 18.75 16.4 L17.85 17.15 17.65 17.3 17.35 17.35 Q17.05 17.35 16.9 17.1 16.75 16.9 16.85 16.6 L17.2 16.05 17.05 16 Q16.65 15.9 16.7 15.45 16.85 14.5 15.85 13.55 L15.75 13.35 15.7 13.25 Q11.8 8.2 13.6 1.4 L13.8 0.95 Q14.15 0.65 14.5 0.95 14.75 1.25 14.6 1.55 L14.6 1.6 Q12.85 8.05 16.55 12.7 L16.65 12.85 16.65 12.9 17.3 13.75 Q18.7 8.8 16.9 2.3 16.8 1.85 17.2 1.7 17.6 1.55 17.8 1.9 18.85 3.85 19.4 5.7 M5.7 10.85 Q7.4 10.3 7.8 9.35 7.95 8.95 8.35 9 L8.6 9.15 8.65 8.2 Q8.7 7.7 9.15 7.7 L9.3 7.7 Q9.6 7.7 9.75 8 L9.95 8.55 10.35 9.6 Q10.95 11.25 11.05 13.75 11.15 17.1 10.05 19.7 7.6 25.3 2 27.1 L1.85 27.2 1.55 27.25 1.2 27.15 Q0.9 26.75 1.2 26.4 1.4 26.25 1.55 26.2 L1.7 26.15 Q6.85 24.5 9.1 19.35 10.15 16.9 10.05 13.8 9.95 11.7 9.5 10.25 9.25 12.25 8.4 14.45 7.4 18 4.75 20.85 L2.95 22.4 2.8 22.45 2.5 22.7 Q2.15 23 1.8 22.7 1.5 22.35 1.8 22 L1.95 21.9 Q1.65 21.55 1.9 21.2 6.25 16.2 7.45 11.15 L6.05 11.8 5.9 11.9 5.1 12.25 4.65 11.35 5.45 10.95 5.7 10.85 M0.9 32.85 L1.25 32.6 1.5 32.35 2.8 31.3 Q2.95 31.15 3.1 31.15 L3.3 31.15 Q3.6 31.15 3.75 31.4 L3.75 31.9 3.2 32.9 3.55 32.85 Q3.95 33 3.9 33.4 3.75 34.45 5 35.85 L5.2 36.1 Q10.05 42.4 7.75 50.85 6.85 54.9 7.3 58.75 7.3 59.1 7 59.25 L6.8 59.3 6.45 59.15 6.15 58.85 5.45 58.15 4.65 57.35 Q4.35 57 4.65 56.65 5 56.35 5.35 56.65 L6.2 57.5 Q6 54.15 6.8 50.6 9 42.65 4.4 36.75 L4.25 36.5 3.3 35.2 Q2.35 38.4 2.45 42.2 2.45 42.65 2 42.7 1.55 42.7 1.45 42.25 1.35 39.15 1.95 36.4 L1.85 36.8 Q1.7 37.2 1.25 37.15 0.85 37 0.9 36.55 1.25 34.85 1.95 33.3 L1.9 33.35 1.6 33.6 Q1.25 33.85 0.9 33.6 0.6 33.2 0.9 32.85 M30.45 13.85 Q30.05 13.65 30.15 13.25 30.8 11.05 32.1 8.35 L33.05 7 Q33.4 6.65 33.75 6.85 34.1 7.15 33.9 7.55 L33.15 8.7 35.3 6.2 Q35.65 5.9 36 6.2 36.3 6.55 36 6.9 33.2 9.8 31.1 13.6 L30.65 13.85 30.45 13.85 M27.2 13 Q26.95 15.3 27.2 18.15 L27.3 21.05 Q29.7 18.35 32.85 16.45 39.65 12.7 41 5.9 41.15 5.45 41.6 5.5 42.05 5.65 42 6.1 40.5 13.3 33.35 17.3 29.75 19.5 27.15 22.8 L26.8 23 26.6 22.95 Q26.3 22.8 26.3 22.45 L26.2 18.25 Q25.95 15.3 26.2 12.95 L26.2 12.9 Q26.2 12.55 26.35 12.25 26.55 11.9 26.95 12.05 27.35 12.25 27.25 12.7 L27.2 12.9 27.2 13 M20.65 21.05 L20.5 21.4 19.75 22.2 20.1 22.25 Q20.45 22.45 20.3 22.85 19.85 23.95 20.65 25.65 L20.8 26 Q24.05 33.5 19.5 41.25 17.45 45 16.85 49.1 L16.4 49.55 16.35 49.55 15.9 49.25 13.75 45.6 Q12.15 43.3 11.05 40.9 8.35 35.2 10.7 29.1 11.95 26.1 14.35 23.85 16 22.35 18.15 21.2 L19.8 20.45 20.35 20.55 20.5 20.7 20.65 21.05 M16.8 26.8 Q15.05 30.15 14.9 34.1 L14.9 34.15 Q15.5 29.4 17.35 25.7 L16.8 26.8 M19.75 26.05 L19.2 24.45 Q15.55 30.2 15.65 39.2 L15.2 39.7 14.65 39.35 Q14 36.85 13.9 34.1 14.1 29.85 15.9 26.35 17.05 23.95 18.45 22.2 16.5 23.2 15.05 24.6 12.8 26.7 11.6 29.5 9.45 35.15 11.95 40.5 13 42.8 14.55 45 L16.1 47.45 Q16.85 44 18.6 40.75 22.9 33.45 19.85 26.35 L19.75 26.05 M51.4 8.9 Q51.85 8.95 51.85 9.45 51.55 12.5 50 15.6 L46.95 19.4 46.55 19.55 46.25 19.45 Q45.95 19.15 46.15 18.8 49.2 13.55 49.95 8.7 50.05 8.25 50.5 8.3 50.95 8.4 50.95 8.85 L50.9 9.2 Q51 8.9 51.4 8.9 M47.75 6.75 Q48 7.15 47.7 7.45 43 11.65 43.1 18.75 43 22 42 25.2 L44.3 24 48.45 21.55 Q53 18.5 53.85 12.95 L53.9 12.45 54 11.85 Q54.1 11.4 54.55 11.45 55 11.55 54.95 12 L54.9 12.5 54.85 13.1 Q53.9 19.05 49.05 22.35 47.15 23.75 44.75 24.95 42.4 25.95 41.35 26.85 L41 26.95 40.75 26.85 Q40.45 26.65 40.55 26.3 42 22.55 42.1 18.75 42 11.2 47.05 6.7 L47.75 6.75 M36.1 21.75 L36.5 22.15 Q36.8 24 37.8 27.05 38.9 30.05 39.4 33.15 40.35 37.85 38.75 42.1 38.6 42.5 38.15 42.4 37.7 42.2 37.85 41.75 39.3 37.75 38.4 33.3 37.95 30.3 36.85 27.35 L35.8 23.8 Q33.8 27.8 30.8 30.9 23.55 38.15 24.9 47.05 L25 47.4 25.1 49.65 Q31.1 44.2 33.9 33.7 L34.45 33.35 Q34.85 33.4 34.9 33.85 34.8 36.85 34.15 39.95 L33.95 40.55 Q33.75 41 33.3 40.9 32.9 40.7 33 40.25 L33.2 39.7 33.4 38.55 Q30.15 47.15 24.3 51.6 L24 51.7 23.65 51.55 Q23.4 51.25 23.6 50.9 24.4 49.85 24 47.55 L23.95 47.2 Q22.55 37.8 30.1 30.2 33.45 26.7 35.55 22.05 35.75 21.7 36.1 21.75 M47.05 34.85 Q47.4 34.8 47.55 35.2 48.05 36.8 49.5 39.95 51.1 43.15 51.85 45.95 54.15 52.9 50.35 59.7 48.45 62.9 45.1 65.3 L43.85 66.2 43.55 66.3 Q43.3 66.3 43.15 66.1 42.9 65.7 43.25 65.4 L44.55 64.5 Q47.7 62.2 49.45 59.25 53.05 52.8 50.85 46.25 50.15 43.5 48.6 40.4 L47.1 36.9 Q45.7 41 43 44.65 41.45 46.5 40.5 48.55 40.25 48.9 39.85 48.75 39.45 48.55 39.6 48.1 40.65 45.95 42.2 44 45.25 39.9 46.6 35.2 46.7 34.85 47.05 34.85 M59.6 18.7 L58.1 20 Q55.75 22.1 54.7 24.8 52.6 30.35 54.6 35.45 56.55 40.7 57.75 42.75 L59.05 45.4 Q59.8 38.7 62 34.4 62.9 32.6 63.4 31 63.6 30.6 64.05 30.7 64.5 30.9 64.35 31.35 L62.9 34.85 Q60.4 39.65 59.8 47.75 L59.35 48.2 59.3 48.2 58.85 47.85 Q58.05 45.2 56.9 43.25 55.65 41.1 53.65 35.8 51.55 30.35 53.75 24.4 54.9 21.5 57.4 19.25 58.15 18.55 59 17.95 L59.7 18 Q59.95 18.4 59.6 18.7 M60.55 19.6 Q60.9 19.9 60.7 20.3 60.25 20.9 59.75 22.05 58 25.4 57.95 29.15 58.5 24.7 60.3 21.1 60.35 20.65 60.8 20.6 61.3 20.65 61.3 21.1 L61.3 21.2 61.25 21.45 Q58.6 26.75 58.65 34.05 58.65 34.5 58.2 34.55 L58.15 34.55 Q57.8 34.55 57.7 34.2 57.1 31.75 56.95 29.15 57.05 25.15 58.85 21.6 L59.85 19.75 Q60.15 19.35 60.55 19.6 M61.1 50.5 Q62.1 49.75 63.25 49.15 63.65 48.95 63.9 49.35 64.1 49.75 63.7 50 L61.65 51.3 Q57.1 54.35 56.25 59.9 55.9 62.65 56.75 65.55 L57.4 67.2 Q57.55 67.6 57.2 67.9 L56.95 67.95 56.5 67.7 55.8 65.85 Q54.9 62.75 55.25 59.8 56.2 53.8 61.1 50.5 M63.05 55.75 Q60.8 60.05 60.25 64.15 L59.65 64.55 Q59.2 64.45 59.25 64 59.65 60.95 61 57.75 59.3 61 59.2 64.5 L59.15 65.7 Q59.1 66.15 58.65 66.2 58.2 66.15 58.15 65.7 L58.2 64.4 Q58.3 60.75 60.15 57.25 L62.35 54.3 63.05 54.25 Q63.4 54.6 63.15 55 L63 55.15 Q63.2 55.4 63.05 55.75 M47.35 47.1 Q47.65 49.8 47.3 53.35 46.5 58.45 43.7 62.2 L43.2 62.95 42.65 63.75 Q42.5 63.95 42.25 63.95 L41.95 63.9 Q41.6 63.6 41.8 63.2 L42.35 62.35 42.9 61.6 Q45.55 58.05 46.3 53.25 L46.4 52.2 Q44.95 58 42.1 62.3 41.8 62.65 41.4 62.45 41.05 62.15 41.25 61.75 45.15 55.9 46.4 47.1 46.45 46.7 46.9 46.65 47.3 46.7 47.35 47.1 M29.55 48.2 Q27.3 50.75 25 52.4 L25.15 52.35 Q27.3 51.9 29.4 50.95 29.85 50.8 30.05 51.2 30.25 51.6 29.8 51.85 L25.35 53.35 23.25 53.7 23.2 53.7 22.9 53.55 22.7 53.2 22.7 52.95 22.95 52.55 Q25.9 50.85 28.8 47.55 L29.15 47.15 29.8 46.4 30.5 46.3 Q30.85 46.55 30.65 47 L29.9 47.85 29.55 48.2 M12.55 52.55 L12.6 53.65 Q12.7 53.5 12.9 53.45 13.3 53.35 13.5 53.75 13.85 54.75 15.65 55.3 L15.95 55.45 Q22.55 58.2 25.1 65.35 25.2 65.8 24.75 66 24.35 66.1 24.15 65.7 21.75 58.95 15.55 56.4 L15.25 56.25 Q14.45 56 13.85 55.6 15.25 61.8 21.2 67.8 21.55 68.2 21.25 68.55 L20.95 68.7 20.8 68.75 20.55 68.65 Q18.8 67.6 16.8 65.75 13.95 62.8 12.8 59.1 11.95 56.75 11.7 54.65 11.1 56.45 11.1 58.45 11 61.75 12.1 64.25 12.95 66.2 14.25 67.65 14.5 68.05 14.2 68.35 L13.5 68.3 Q12.1 66.75 11.15 64.65 10 61.95 10.1 58.45 10.1 56.05 10.85 54 L11.15 53.2 11.45 52.45 11.7 52.15 11.85 52.1 Q12.05 51.95 12.3 52.1 L12.55 52.55 M13.75 58.75 Q14.8 62.2 17.35 64.9 14.45 61.15 13.25 57.25 L13.75 58.75"/>
    <path stroke="none" fill="#470e81" d="M28.4 50.45 L28.65 48.45 Q25.95 51.4 23.2 52.95 L23.2 53.2 25.25 52.85 28.3 51.9 28.35 51.3 28.35 50.6 28.4 50.45 M15.75 55.9 L15.5 55.8 Q13.5 55.2 13 53.9 13.95 60.7 19.95 67.2 L20.35 67.05 20.65 67 Q22.2 66.3 23.7 64.65 L24.05 64.2 Q21.5 58.3 15.75 55.9 M12.05 52.55 L11.95 52.6 11.35 54.15 Q10.6 56.15 10.6 58.45 10.5 61.7 11.65 64.4 L12.35 65.8 Q13.25 66.4 14.3 66.8 L17.2 67.45 19.45 67.3 Q18.3 66.45 17.1 65.4 14.35 62.45 13.25 58.95 12.05 55.6 12.05 52.6 L12.05 52.55 M51.35 46.05 Q50.6 43.25 49.05 40.15 L47.05 35.35 Q45.7 40.15 42.6 44.3 L41.05 46.5 41.1 46.9 41.15 47.1 41.25 47.75 41.3 48.05 41.8 54.35 Q41.95 57.95 42.6 60.55 45.75 55.05 46.9 47.15 47.1 50.15 46.8 53.3 46 58.2 43.3 61.9 L43.1 62.2 43.4 62.95 44.55 65.1 44.8 64.9 Q48.1 62.55 49.9 59.45 53.6 52.85 51.35 46.05 M61.45 54.9 L61.5 54.4 62.1 50.4 61.35 50.9 Q56.65 54.05 55.75 59.85 55.4 62.65 56.3 65.7 L56.45 66.2 57.65 64.95 58.7 63.35 58.8 63.1 Q59.1 60.25 60.6 57.5 L61.1 56.75 61.4 55.25 61.45 54.9 M59.1 20.4 L58.9 20.15 58.35 19.1 Q58 19.35 57.75 19.65 55.3 21.8 54.25 24.6 52.15 30.1 54 35.35 L54.1 35.65 Q56.15 41 57.3 43 58.5 45 59.3 47.7 59.85 40.15 62.1 35.35 L62.45 34.6 62.9 33.6 62.65 31.35 Q62.3 29 61.35 25.9 L60.15 22.65 Q58.1 27.55 58.15 34.05 57.6 31.75 57.45 29.1 57.55 25.15 59.3 21.8 L59.55 21.35 59.15 20.55 59.1 20.4 M46.95 8.3 L46.3 8.1 Q42.55 12.25 42.6 18.75 42.5 22.8 41 26.45 42.25 25.45 44.5 24.45 L48.75 21.95 Q53.25 18.9 54.25 13.5 L53.6 12.8 51.15 10.8 Q50.7 13.05 49.55 15.35 48.15 17.4 46.55 19.05 49.3 14.35 50.2 10.1 L49.8 9.85 47 8.3 46.95 8.3 M30.45 30.55 Q28.2 32.85 26.7 35.35 23.55 40.75 24.4 47.1 L24.5 47.45 Q24.95 49.9 24 51.2 26.9 48.95 29.2 45.7 30.25 41.5 32.4 39.65 L33.95 35.35 34.4 33.8 34.3 35.35 33.85 38.8 Q34.15 38.6 34.55 38.5 L34.75 38.45 Q37.15 38.15 38.8 40.35 39.4 37.9 39.2 35.35 L38.9 33.2 Q38.5 30.4 37.35 27.2 36.3 24.1 36 22.25 33.95 26.85 30.45 30.55 M27.75 13.25 L27.65 13.35 27.4 13.65 27.3 13.8 26.6 14.55 26.7 18.2 26.8 22.5 Q29.4 19.15 33.1 16.85 39.4 13.3 41.2 7.25 L35.95 7.75 Q34.9 8 34 8.4 32.2 10.55 30.65 13.35 31.25 11.35 32.2 9.35 29.75 10.8 27.75 13.25 M11.15 29.3 Q9.95 32.35 10.1 35.35 10.25 38.05 11.5 40.7 12.5 42.85 14.15 45.3 15.7 47.55 16.35 49.05 16.95 44.8 19.05 41 20.75 38.15 21.35 35.35 22.25 30.7 20.3 26.15 L20.2 25.85 Q19.3 23.95 19.85 22.65 15.95 27.65 15.3 35.35 15.15 37.2 15.15 39.2 14.65 37.3 14.55 35.35 L14.4 34.05 Q14.6 29.9 16.35 26.6 17.95 23.1 20.15 21.05 L20 20.9 18.4 21.65 Q16.45 22.6 14.7 24.25 12.3 26.5 11.15 29.3 M3.1 31.65 L2.5 32.15 2.5 32.7 2.5 33.2 3.3 31.65 3.1 31.65 M3.95 35.35 Q3.35 34.35 3.4 33.35 L2.75 35.35 2.6 36.05 2.6 36.6 3.2 42 3.55 44.1 3.55 44.25 4.4 49.65 Q5.2 53.45 6.2 56.6 L6.5 57.55 6.75 58.2 Q6.45 54.45 7.3 50.7 9.55 42.5 4.8 36.4 L4.65 36.2 3.95 35.35 M9.9 9.75 L9.3 8.15 9.15 8.15 Q9.15 11.1 7.95 14.25 7 17.7 4.4 20.5 L3.6 21.2 3.5 21.75 3.45 22.05 3.4 22.6 Q3.05 24.25 2.85 26.25 7.45 24.4 9.6 19.5 10.65 16.9 10.55 13.8 10.5 11.55 9.9 9.75 M8.25 9.5 Q7.85 10.5 6.5 11.05 L6.3 11.6 6.2 11.85 6.1 12.1 6 12.3 5.8 12.85 5.55 13.5 Q4.65 16.3 4 19.35 7.6 14.55 8.25 9.5 M21.4 9 L21.35 8.95 21.3 8.55 21.2 8.2 Q20.35 4.5 17.85 3.2 L18.95 5.8 Q19.7 9 19.05 11.9 18.5 14.75 17.3 16.85 L17.35 16.85 18.45 16 Q19.8 14.95 20.7 13.3 L21.7 11.35 21.4 9 M13.9 0.05 L14.05 0.05 14.1 0.05 15.6 0.05 17.7 0.4 Q22.35 2 23.65 7.6 L23.8 8.3 23.85 8.5 24.2 12.1 24.45 13.15 25.4 12.15 25.45 12.05 25.55 12 25.85 11.6 Q28.95 7.85 33 6.1 34.05 5.6 35.35 5.35 38.2 4.55 41.6 4.75 44.4 4.95 47.55 5.85 L47.9 5.95 Q49.7 6.8 51.1 7.75 L52.1 8.4 55.35 11 57.05 12.85 58.9 15.25 59 15.4 59.3 16.05 60.4 17.7 61.1 18.95 61.4 19.5 61.85 20.4 62.05 20.8 63.75 25.15 Q64.75 28.45 65.15 30.95 66.2 38.1 65 46 L64.95 46.25 64.95 46.55 64.95 46.75 64.9 47.1 64.9 47.35 64.75 49.35 64.7 49.7 63.95 54.9 63.95 55.2 63.85 55.75 Q62.85 61.15 60.8 64.7 L59.7 66.4 59.6 66.5 57.75 68.4 Q55.1 70.5 51.85 70.6 L51.25 70.65 48.55 70.35 Q44.8 69.5 42.55 66.55 L41.1 64 41.05 63.9 40.5 62.45 Q39.45 59.15 39.3 54.45 L38.8 48.5 38.75 48 38.7 47.65 38.65 47.2 38.6 47 Q38 43.95 37.2 42.5 35.8 40.5 35.3 40.9 L35.2 40.9 Q34.65 41.1 34.2 41.4 32.35 42.75 31.45 46.95 L30.85 50.7 30.85 51.4 30.25 56.9 30.2 57.05 Q28.3 63.2 25.55 66.35 23.6 68.5 21.4 69.4 L21.05 69.45 Q19.1 70.15 16.95 69.95 L13.45 69.15 Q7.2 66.85 4.2 58.45 L3.8 57.4 Q2.75 54.1 1.95 50.15 L1.1 44.6 1.1 44.5 0.75 42.4 Q0.3 39.8 0.1 36.75 L0 33.2 0 32.7 Q0 30.05 0.3 26.65 0.5 24.15 0.95 22.1 L0.95 21.8 1.05 21.25 Q1.95 16.6 3.2 12.7 L3.25 12.55 3.45 12 3.7 11.4 3.85 10.9 3.95 10.75 Q7.75 0.7 13.9 0.05 M17.6 3.05 L16.95 2.75 15.5 2.55 15.3 2.55 14.35 2.55 14.15 2.55 14.1 2.55 13.85 2.6 Q12.6 8.5 16.15 13 L16.2 13.2 Q17.35 14.35 17.2 15.55 19.4 10.25 17.6 3.05"/>
  </g>
</svg>