<svg width="67.75px" height="68.2px" viewBox="0 0 67.75 68.2" xmlns="http://www.w3.org/2000/svg" xmlns:xlink="http://www.w3.org/1999/xlink">
  <defs/>
  <g>
    <path stroke="none" fill="#000000" d="M30.9 26.65 L30.05 27.25 Q27.75 29.3 27.8 32.15 27.75 35.05 30.05 37.1 31 37.95 32.45 38.6 33.7 39.1 35.7 39.2 38.35 39.2 40.45 38.05 L41.3 37.45 Q43.5 35.65 43.5 32.55 43.5 30.6 42.75 29.05 42.2 28.1 41.25 27.3 38.9 25.2 35.65 25.2 33 25.2 30.9 26.65 M4.25 30.25 Q5 25.3 7.15 20.75 9.45 16.05 13.15 12.25 16.7 8.65 21.05 6.3 25.6 3.9 31 3.1 L35.8 2.75 Q46.2 2.75 54.15 8.55 56.4 10.25 58.35 12.25 L59.2 13.15 Q62.55 16.8 64.75 21.35 66.95 26.1 67.55 31.45 L67.75 35.5 67.75 36.45 Q67.65 40.6 66.65 44.35 65.75 47.85 63.9 51.25 L61.2 55.4 58.35 58.65 Q52.7 64.5 45.6 66.8 41.4 68.05 36.95 68.2 L35.8 68.2 Q24.95 68.25 16.75 61.85 L13.15 58.65 Q10.85 56.25 9.35 53.95 7.35 51.05 6.2 47.95 4.6 44.05 4.15 39.75 3.9 37.85 3.9 35.5 3.9 32.75 4.25 30.25"/>
    <path stroke="none" fill="#ff0000" d="M46.85 14.3 Q45.45 12.95 45.45 11.05 45.45 9.1 46.85 7.75 48.05 6.5 49.8 6.4 L53.9 10 54.7 10.85 54.7 11.05 Q54.7 12.95 53.35 14.3 52 15.65 50.1 15.65 48.2 15.65 46.85 14.3"/>
    <path stroke="none" fill="#20ff52" d="M28.5 6.9 Q28.5 4.85 30 3.4 31.5 1.95 33.55 1.95 35.7 1.95 37.05 3.4 38.5 4.85 38.5 6.9 38.5 9 37.05 10.45 35.7 12 33.55 11.95 31.45 12 30 10.45 28.5 9 28.5 6.9"/>
    <path stroke="none" fill="#ffff22" d="M17.65 9.35 Q19.45 9.35 20.7 10.55 21.95 11.8 22 13.65 22 15.45 20.7 16.7 19.45 18 17.65 18 15.9 18 14.6 16.7 13.35 15.45 13.35 13.65 13.35 11.85 14.6 10.55 15.9 9.35 17.65 9.35"/>
    <path stroke="none" fill="#ff80f9" d="M26.45 21.7 Q26.45 18.75 28.5 16.7 30.6 14.6 33.65 14.6 36.6 14.6 38.7 16.7 40.75 18.75 40.75 21.7 40.75 24.15 39.5 25.95 L37.85 23.95 Q35.3 21.7 31.75 21.65 28.85 21.65 26.55 23.25 L26.45 21.7"/>
    <path stroke="none" fill="#ff0000" d="M38.55 40 Q38.55 42.45 36.9 44.05 35.7 45.25 34.2 45.6 L32.8 45.8 31.4 45.6 Q29.85 45.25 28.7 44.05 27 42.45 27 40 27 37.95 28.2 36.5 L31.75 37.15 Q34.65 37.15 36.9 35.9 38.5 37.6 38.55 40"/>
    <path stroke="none" fill="#20ff52" d="M17.45 27.45 Q19.05 27.45 20.25 28.6 21.4 29.7 21.4 31.3 21.4 32.9 20.25 34.1 L20 34.25 Q18.9 35.15 17.45 35.2 16.1 35.2 15 34.25 L14.75 34.1 Q13.6 32.95 13.6 31.3 13.6 29.7 14.75 28.6 15.95 27.45 17.45 27.45"/>
    <path stroke="none" fill="#ffff22" d="M46 22.4 Q47.3 21.05 49.2 21.05 51.05 21.05 52.45 22.4 53.8 23.7 53.75 25.6 53.75 27.45 52.45 28.85 51.05 30.2 49.2 30.15 47.3 30.15 46 28.85 44.65 27.45 44.65 25.6 44.65 23.7 46 22.4"/>
    <path stroke="none" fill="#ff80f9" d="M49.3 34.7 Q50.9 34.7 52.1 35.85 53.2 36.95 53.15 38.55 53.15 40.15 52.1 41.35 50.95 42.45 49.3 42.4 47.7 42.4 46.6 41.35 45.45 40.2 45.45 38.55 45.45 36.95 46.6 35.85 47.7 34.7 49.3 34.7"/>
    <path stroke="none" fill="#20ff52" d="M48.85 49.4 Q50.55 51.1 50.55 53.45 50.55 55.85 48.85 57.55 47.15 59.25 44.75 59.25 42.4 59.25 40.7 57.55 39 55.85 39 53.45 39 51.1 40.7 49.4 42.4 47.7 44.75 47.7 47.15 47.7 48.85 49.4"/>
    <path stroke="none" fill="#20ff52" d="M30.6 52.15 Q31.95 53.5 31.95 55.4 31.95 57.3 30.6 58.65 29.25 60 27.35 60 25.45 60 24.1 58.65 22.7 57.3 22.7 55.4 22.7 53.5 24.1 52.15 25.45 50.75 27.35 50.75 29.25 50.75 30.6 52.15"/>
    <path stroke="none" fill="#ffff22" d="M21.75 45.95 Q21.75 47.8 20.4 49.15 19.1 50.4 17.25 50.4 15.35 50.4 14.05 49.15 12.7 47.8 12.7 45.95 12.7 44 14.05 42.75 15.35 41.4 17.25 41.4 19.1 41.4 20.4 42.75 21.75 44 21.75 45.95"/>
    <path stroke="none" fill="#ff0000" d="M17.55 4.2 Q22 1.8 27.2 1.1 26.9 2.8 25.65 4.05 23.9 5.75 21.6 5.75 19.25 5.75 17.55 4.2"/>
    <path stroke="none" fill="#ff80f9" d="M6 17.95 Q8.6 17.95 10.35 19.8 12.15 21.55 12.15 24.05 12.15 26.6 10.35 28.35 8.6 30.05 6 30.1 3.5 30.05 1.75 28.35 L1.1 27.6 Q1.85 22.65 3.95 18.3 L6 17.95"/>
    <path stroke="none" fill="#20ff52" d="M58.85 22.75 Q58.85 20.6 60.2 18.9 62.25 23.5 62.9 28.8 L60.7 27.35 Q58.85 25.45 58.85 22.75"/>
    <path stroke="none" fill="#ff0000" d="M62.4 33.65 L63.1 33.7 Q63 37.75 62 41.45 60.65 41.3 59.65 40.3 L58.85 39.25 Q58.5 38.45 58.5 37.55 L58.5 37.5 Q58.5 35.95 59.65 34.8 60.8 33.65 62.4 33.65"/>
    <path stroke="none" fill="#20ff52" d="M59.35 48.1 L56.7 52.15 Q56.7 50.35 58.05 49 58.65 48.35 59.35 48.1"/>
    <path stroke="none" fill="#ff80f9" d="M41.5 63.3 Q37.5 64.5 33.05 64.7 33.4 64.05 33.95 63.55 35.6 61.85 37.9 61.85 39.95 61.85 41.5 63.3"/>
    <path stroke="none" fill="#ff0000" d="M7 50.7 Q9.65 50.7 11.55 52.65 13.45 54.45 13.4 57.1 L13.3 58.5 9.8 55.35 Q7.7 53.2 6.05 50.75 L7 50.7"/>
    <path stroke="none" fill="#ff80f9" d="M3.4 38.15 Q4.75 39.45 4.75 41.35 4.75 43.25 3.4 44.55 L3 44.95 Q1.45 41.15 1 36.9 2.4 37.2 3.4 38.15"/>
    <path stroke="none" fill="#005be3" d="M11.55 52.65 Q9.65 50.75 7.05 50.7 L6.95 50.7 Q8.3 52.75 10.35 54.85 L13.4 57.6 13.4 57.1 Q13.45 54.5 11.55 52.65 M4.75 41.35 Q4.75 39.45 3.4 38.15 2.7 37.45 1.8 37.15 2.2 40.95 3.6 44.35 4.75 43.1 4.75 41.35 M31.95 55.45 Q31.95 53.55 30.6 52.15 29.25 50.8 27.35 50.8 25.45 50.8 24.1 52.15 22.75 53.5 22.7 55.45 22.75 57.35 24.1 58.7 25.45 60.05 27.35 60 29.25 60 30.6 58.7 31.95 57.3 31.95 55.45 M20.4 42.75 Q19.1 41.4 17.25 41.45 15.35 41.4 14.05 42.75 12.7 44.05 12.7 45.95 12.7 47.8 14.05 49.15 15.35 50.4 17.25 50.4 19.1 50.4 20.4 49.15 21.75 47.8 21.75 45.95 21.75 44.05 20.4 42.75 M33.6 63.95 L40.75 62.75 Q39.45 61.9 37.85 61.9 35.6 61.9 33.95 63.55 L33.6 63.95 M40.7 49.4 Q39 51.1 39 53.45 39 55.85 40.7 57.55 42.4 59.25 44.75 59.25 47.15 59.25 48.85 57.55 50.55 55.85 50.55 53.45 50.55 51.1 48.85 49.4 47.15 47.7 44.75 47.7 42.4 47.7 40.7 49.4 M37.35 36.55 L37.3 36.6 Q34.85 37.95 31.75 37.95 L27.95 37.25 27.8 37.15 Q27 38.4 27 40.05 27 42.45 28.7 44.1 29.85 45.25 31.4 45.65 L32.8 45.85 34.2 45.65 Q35.7 45.25 36.9 44.1 38.5 42.45 38.55 40.05 38.5 38 37.35 36.55 M49.35 34.75 Q47.7 34.7 46.6 35.85 45.45 36.95 45.45 38.6 45.45 40.2 46.6 41.35 47.7 42.45 49.35 42.45 50.95 42.45 52.1 41.35 53.2 40.2 53.2 38.6 53.2 36.95 52.1 35.85 50.95 34.7 49.35 34.75 M62.35 33.7 L62.35 33.65 Q60.8 33.65 59.65 34.8 58.5 35.95 58.5 37.5 L58.5 37.55 Q58.5 38.45 58.85 39.25 L59.65 40.3 61.25 41.3 61.3 41.25 Q62.25 37.6 62.35 33.7 M62.1 28.4 Q61.5 23.8 59.7 19.65 58.85 21.05 58.85 22.8 58.85 25.5 60.75 27.35 L62.1 28.4 M49.15 30.2 Q51.05 30.2 52.4 28.85 53.75 27.5 53.75 25.6 53.75 23.75 52.4 22.4 51.05 21.05 49.15 21.1 47.3 21.1 45.95 22.4 44.6 23.75 44.65 25.6 44.6 27.5 45.95 28.85 47.3 30.2 49.15 30.2 M49.35 7.05 L48.75 6.6 46.85 7.75 Q45.5 9.15 45.45 11.05 45.5 12.95 46.85 14.35 48.2 15.65 50.1 15.65 52 15.65 53.4 14.35 54.4 13.3 54.65 11.95 L54.15 11.4 53.4 10.55 Q51.5 8.6 49.35 7.05 M26.5 22.45 Q28.85 20.95 31.75 20.95 35.6 20.95 38.35 23.45 L39.9 25.25 Q40.75 23.7 40.75 21.75 40.8 18.8 38.7 16.75 36.65 14.65 33.65 14.65 30.65 14.65 28.5 16.75 26.45 18.8 26.45 21.75 L26.5 22.45 M26.15 24.5 Q23.85 26.55 23.9 29.4 23.9 32.3 26.1 34.35 27.1 35.2 28.55 35.85 29.8 36.35 31.8 36.45 34.45 36.45 36.55 35.3 L37.4 34.7 Q39.6 32.9 39.6 29.8 39.6 27.85 38.85 26.3 38.3 25.35 37.35 24.55 35 22.45 31.75 22.45 29.1 22.45 27 23.9 L26.15 24.5 M14.75 28.65 Q13.6 29.7 13.6 31.35 L13.85 32.75 Q14.1 33.55 14.75 34.1 L15 34.3 Q16.1 35.2 17.45 35.2 18.9 35.2 20 34.3 L20.25 34.1 Q20.9 33.5 21.15 32.75 L21.4 31.35 Q21.4 29.7 20.25 28.65 19.1 27.45 17.45 27.5 15.95 27.45 14.75 28.65 M20.75 16.75 Q22 15.5 22 13.65 22 11.85 20.75 10.6 19.45 9.4 17.65 9.4 15.9 9.4 14.65 10.6 13.35 11.85 13.35 13.65 13.35 15.45 14.65 16.75 15.9 18 17.65 18 19.45 18 20.75 16.75 M6 17.95 L4.95 18.05 4.6 18.65 Q2.55 23 1.85 27.7 L1.8 28.35 Q3.55 30.05 6 30.1 8.65 30.05 10.35 28.35 12.15 26.6 12.15 24.05 12.15 21.6 10.35 19.8 8.65 17.95 6 17.95 M27.1 0.35 L31.9 0 Q42.3 0 50.25 5.8 52.5 7.45 54.45 9.55 L55.3 10.4 Q58.65 14 60.85 18.6 63.05 23.35 63.65 28.7 L63.85 32.75 63.85 33.7 Q63.75 37.85 62.75 41.6 61.85 45.1 60 48.5 L57.3 52.65 54.45 55.9 Q48.8 61.75 41.7 64.05 37.5 65.3 33.05 65.45 L31.9 65.45 Q21.05 65.5 12.85 59.1 L9.25 55.9 Q6.95 53.5 5.45 51.2 3.45 48.3 2.3 45.2 0.7 41.3 0.25 37 0 35.1 0 32.75 0 30 0.35 27.5 1.1 22.55 3.25 18 5.55 13.3 9.25 9.5 12.8 5.9 17.15 3.55 21.7 1.15 27.1 0.35 M30 3.4 Q28.5 4.85 28.5 6.9 28.5 9 30 10.45 31.5 12 33.6 12 35.7 12 37.1 10.45 38.55 9 38.55 6.9 38.55 4.85 37.1 3.4 35.7 1.95 33.6 1.95 31.5 1.95 30 3.4 M25.6 4.05 Q26.6 3.1 27 1.9 22.25 2.65 18.2 4.7 19.7 5.75 21.55 5.75 23.85 5.8 25.6 4.05"/>
  </g>
</svg>