<svg width="66px" height="106.7px" viewBox="0 0 66 106.7" xmlns="http://www.w3.org/2000/svg" xmlns:xlink="http://www.w3.org/1999/xlink">
  <defs/>
  <g>
    <path stroke="none" fill="#000000" d="M21.8 6.1 Q27.3 3.65 31.85 2.85 L32 2.85 Q45.55 2 55.7 8.8 61.15 12.7 63.55 18.25 64.95 21.25 65.35 25.15 66.45 30.15 65.75 34.7 L64.8 38.55 Q63 43.6 58.55 47.75 55.8 50 52 51.75 46.5 54.25 38.85 55.85 37.55 56.15 36.85 57.5 35.55 60.3 36.75 67.25 L36.75 67.3 36.8 67.5 37.45 71.45 37.5 71.75 Q38.7 80.05 38.8 86.4 L38.6 91.1 38.55 91.4 38.5 91.95 38.45 92.6 38.45 92.8 38.45 93 Q37.85 96.6 36.35 99.45 34.1 103.55 29.5 105.65 L29.4 105.7 25.5 106.55 23.45 106.7 21.55 106.55 Q17.2 105.9 14.55 102.3 13.6 100.8 13.05 99.3 12 96.7 11.55 93.15 L11.45 92.6 11.4 91.85 11.35 91.15 11.15 86.7 Q11.05 83.45 11.45 78.9 L11 72.1 10.6 68.1 10.6 67.95 9.1 57.15 8.65 54.55 8.15 51.85 5.3 39 4.6 36.35 4.55 36.15 4.45 35.4 4.35 34.65 Q3.5 29.55 4.55 25.05 5.4 21.3 7.35 18.1 11.75 10.45 21.8 6.1 M33.35 26.5 Q33.35 28.85 35.1 30.6 36.4 31.85 38.15 31.85 L39.05 31.75 Q41.75 31.35 43.55 30 45.25 28.75 46.05 25.55 46.75 22.8 44.5 21.2 43.2 20.25 42 19.95 L39.6 19.9 39.5 19.95 39.35 19.95 Q36.85 20.5 35.05 22.3 33.35 23.95 33.35 26.5"/>
    <path stroke="none" fill="#ff0000" d="M18.4 4.5 Q23.55 2.2 28.15 1.35 41.25 0.5 51.1 7.05 56.25 10.8 58.5 16 L38.4 16 35.4 15.95 35.15 16 4.5 16 Q8.7 8.7 18.4 4.5"/>
    <path stroke="none" fill="#fc8c03" d="M1.6 31.75 Q0.8 26.8 1.8 22.6 2.65 19 4.45 16 L35.1 16 Q32.2 16.65 30.2 18.65 28.15 20.75 28.15 23.7 28.2 26.7 30.3 28.75 32.35 30.7 35.3 30.25 38.3 29.8 40.35 28.25 42.45 26.7 43.3 23.1 44.15 19.55 41.25 17.45 39.8 16.35 38.35 16 L58.45 16 Q59.8 19 60.15 22.6 61.2 27.5 60.6 31.75 60.3 33.65 59.65 35.35 L2.6 36 1.85 33.25 1.6 31.75"/>
    <path stroke="none" fill="#ff0000" d="M35.15 16 L35.4 15.9 38.4 16 35.15 16"/>
    <path stroke="none" fill="#91f240" d="M6.4 54.2 L5.45 48.9 47.6 47.85 Q42.25 50.3 34.65 51.85 32.75 52.3 31.8 54.2 30.3 57.35 31.6 64.7 L31.65 64.95 7.9 65.05 6.4 54.2"/>
    <path stroke="none" fill="#54f8ef" d="M8.3 69.25 L7.9 65.05 31.6 64.95 32.35 69.25 Q33.5 77.4 33.6 83.65 L8.45 83.95 Q8.35 80.4 8.75 76.2 L8.3 69.25"/>
    <path stroke="none" fill="#3ca3ff" d="M33.6 83.65 L33.45 88.25 33.4 88.5 33.25 89.75 33.25 90.05 Q32.7 93.55 31.35 96.1 29.2 99.85 25.05 101.75 L21.4 102.55 Q19.45 102.8 17.8 102.55 13.9 102 11.65 98.8 L10.25 96.1 Q9.25 93.55 8.8 90.05 L8.75 89.75 8.65 88.25 8.45 83.95 33.6 83.65"/>
    <path stroke="none" fill="#fed801" d="M53.8 44.05 Q51.25 46.1 47.55 47.85 L5.45 48.85 2.6 35.95 59.7 35.35 Q57.95 40.15 53.8 44.05"/>
    <path stroke="none" fill="#fc8c03" d="M28.05 0.1 Q41.6 -0.75 51.75 6.05 57.2 9.95 59.6 15.5 61 18.55 61.4 22.4 62.5 27.4 61.8 31.95 61.55 33.95 60.85 35.8 59.05 40.85 54.6 45 51.85 47.25 48.05 49 42.55 51.5 34.9 53.1 33.55 53.4 32.9 54.75 31.6 57.5 32.8 64.5 L32.8 64.55 32.85 64.75 33.55 69 Q34.75 77.3 34.85 83.65 L34.65 88.35 34.6 88.65 34.55 89.2 34.5 89.85 34.5 90.05 34.5 90.25 Q33.9 93.85 32.4 96.7 30.15 100.8 25.55 102.9 L25.45 102.95 21.55 103.8 19.5 103.95 17.6 103.8 Q13.25 103.15 10.6 99.55 L9.1 96.55 Q8.05 93.95 7.6 90.4 L7.5 89.85 7.45 89.05 7.4 88.4 7.2 83.95 Q7.1 80.7 7.5 76.15 L7.5 76.1 7.05 69.35 6.65 65.25 5.15 54.4 4.7 51.8 4.2 49.1 1.35 36.25 0.65 33.6 0.6 33.4 0.5 32.65 0.4 31.9 Q-0.45 26.8 0.6 22.3 1.45 18.55 3.4 15.35 7.8 7.75 17.85 3.35 23.35 0.9 27.9 0.1 L28.05 0.1 M18.85 5.6 Q9.55 9.7 5.55 16.65 3.8 19.5 3 22.85 2.1 26.85 2.85 31.55 L2.95 32.2 3.1 33.05 3.8 35.65 6.65 48.65 7.15 51.35 7.6 54 9.15 64.9 9.55 69.05 10 76 10 76.1 10 76.3 Q9.6 80.75 9.7 83.95 9.7 86.2 9.85 88.15 L9.95 88.9 10 89.6 10 89.65 10.05 89.9 Q10.45 93.25 11.4 95.65 L12.65 98.1 Q14.6 100.85 17.95 101.3 19.5 101.55 21.25 101.3 L24.6 100.6 Q28.4 98.85 30.2 95.5 31.5 93.1 32 89.95 L32 89.75 32 89.6 32.05 89.05 32.1 88.4 32.2 87.95 32.35 83.65 Q32.25 77.45 31.1 69.4 L30.4 65.35 30.3 64.85 Q29 57.1 30.65 53.65 31.85 51.25 34.35 50.65 41.8 49.1 47.05 46.75 50.5 45.1 52.95 43.1 56.9 39.45 58.5 34.95 59.1 33.35 59.35 31.6 59.95 27.45 58.95 22.85 L58.9 22.7 Q58.55 19.2 57.35 16.5 55.15 11.6 50.3 8.1 41 1.8 28.25 2.6 24.05 3.3 18.85 5.6 M31.1 19.55 Q29.4 21.2 29.4 23.75 29.4 26.1 31.15 27.85 32.45 29.1 34.2 29.1 L35.1 29 Q37.8 28.6 39.6 27.25 41.3 26 42.1 22.8 42.8 20.05 40.55 18.45 39.25 17.5 38.05 17.2 L35.65 17.15 35.55 17.2 35.4 17.25 Q32.9 17.75 31.1 19.55 M34.65 14.8 L35.2 14.7 38.75 14.8 Q40.35 15.2 42 16.45 45.5 19 44.55 23.4 43.5 27.5 41.1 29.25 38.75 31 35.5 31.5 L34.2 31.6 Q31.45 31.55 29.4 29.65 26.95 27.15 26.9 23.75 26.95 20.2 29.35 17.8 31.55 15.55 34.65 14.8"/>
  </g>
</svg>