<svg width="67.8px" height="109.6px" viewBox="0 0 67.8 109.6" xmlns="http://www.w3.org/2000/svg" xmlns:xlink="http://www.w3.org/1999/xlink">
  <defs/>
  <g>
    <path stroke="none" fill="#000000" d="M26.1 69.6 L26.05 69.5 26.1 69.55 26.1 69.6"/>
    <path stroke="none" fill="#000000" d="M38.55 28.95 L38.6 28.45 38.55 28.3 Q38.5 27.25 37.55 26.45 L37.3 26.25 36.55 25.85 Q35.25 25.3 33.65 25.35 L33.15 25.35 32.5 25.4 31.15 25.6 Q29.6 25.9 28.65 26.65 27.3 27.7 27.25 28.9 L27.2 29.2 27.2 29.25 Q27.15 30.65 28.6 31.75 L30.1 32.6 31.8 33 32.95 33 33.55 32.95 34 32.9 34.1 32.9 35.25 32.45 36.55 31.75 Q37.8 30.75 38.3 29.65 L38.45 29.2 38.55 28.95 M22.7 5.45 L25.35 4.5 26.1 4.25 26.2 4.2 26.55 4.1 28.25 3.7 33.15 2.9 33.3 2.9 35.7 2.75 42.65 3.2 Q46.6 3.8 50.4 5.55 L52.5 6.6 Q56.1 8.55 59.3 11.85 L59.4 11.95 Q63.55 17.35 64.55 24.5 L64.7 26.55 64.7 26.65 64.75 28.45 64.8 28.6 Q64.7 31.9 64.15 34.95 L64 36.1 Q62.7 42.25 60.05 48.65 L60 48.75 59.4 50.1 57.4 54.7 56.9 55.9 54 63.35 53.25 65.5 52.45 67.8 50.85 73.35 50.55 73.9 50.6 74.4 50.45 75 50.35 75.5 50.25 76.05 49.85 77.95 49.85 78.05 49.75 78.55 49.55 79.25 49.55 79.7 49.5 80.05 49.45 80.65 Q48.95 83.6 49.6 83.95 L51.5 83.85 Q53.7 83.2 55.85 82.85 L56 82.85 57.15 82.75 Q60 82.45 62.25 83.35 63.4 83.8 64.4 84.55 65.8 85.5 66.7 87 67.9 89.2 67.8 91.85 L67.7 93.15 67.65 93.3 67.65 93.45 67.2 95.2 66.55 97.05 65.7 98.6 65.45 99 65.15 99.45 65.05 99.6 62 102.85 60.7 103.95 60.5 104.1 58.85 105.25 58.7 105.3 58.2 105.6 55.2 107.3 Q52.45 108.65 49.95 109.1 L49.15 109.2 48.55 109.3 47.85 109.35 47.3 109.4 47.1 109.45 47 109.45 46.75 109.5 45.55 109.55 44.55 109.6 44.45 109.6 41.1 109.4 40.55 109.35 39.9 109.3 37.7 108.85 Q36.05 108.35 34.45 107.55 L33.9 107.2 33.45 106.9 33.35 106.85 33.05 106.65 32.6 106.35 Q30.9 105.05 29.65 103.4 L29 102.3 28.8 101.9 27.8 99.85 27.05 98.1 Q23.85 89.05 26.35 78.4 L26.7 76.8 27.1 75.35 27.2 74.85 29.1 67.9 29.5 66.4 29.95 64.85 30.15 64.5 Q33.3 56.8 31.9 55.55 31.75 54.8 30.05 54.3 L29.25 54.25 28.3 54.2 27.25 54.1 26.25 53.95 23.35 53.5 Q12.6 51.55 7.75 45.55 4.15 41 3.9 34.45 3.8 31.6 4.25 29 4.85 26.15 5.6 23.75 L5.85 23.05 6.1 22.3 6.9 20.55 Q11.75 9.55 22.7 5.45"/>
    <path stroke="none" fill="#ff5900" d="M15.25 7.25 Q14.2 7.5 13.25 7.9 12.35 8.25 11.7 8.8 9.8 10.35 9.65 12.95 L9.6 13.4 Q9.7 14.55 9.95 15.5 10.4 16.95 11.45 17.85 L12.25 18.45 Q15.9 20.65 19.25 19.75 22.95 18.75 24.85 15.25 25.85 13.35 26.45 11.3 L26.85 8.3 26.9 7.4 26.9 6.55 26.85 5.85 Q26.6 4.15 25.4 2.9 L24.55 2.15 29.4 1.4 Q29.95 3.4 29.7 5.15 29.5 6.4 29.75 6.75 30.65 6.9 31.45 4.1 L31.8 1.25 38.55 1.7 Q42.55 2.35 46 3.9 L48 4.95 Q51.5 6.85 54.5 9.95 58.45 15.1 59.4 21.9 53.15 22.8 48.1 25.5 37.85 30.75 33.6 39.85 L32.6 42.05 31.75 44.85 Q30.9 49.05 32.2 53.3 L32.55 54.2 Q33.15 56.1 34.15 57.65 36.2 60.95 39.7 62.75 42.1 63.95 45.25 64.5 L46.25 64.55 47.35 64.7 45.75 70.3 Q44.85 70.8 43.95 71.45 40.85 73.55 40.8 76.9 40.7 78.5 41.45 79.85 L42 80.6 Q42.65 81.35 42.9 81.25 L42.95 81.25 43.15 80.85 42.95 79.9 Q42.45 77.8 43.65 77.05 L44 76.8 44.4 76.7 44.3 77.65 Q43.15 83.9 48 82.3 50.25 81.6 52.15 81.35 L52.4 81.45 Q54 82.45 55.5 82.9 L56.8 82.3 57.85 81.75 Q58.9 82.15 59.75 82.8 60.9 83.6 61.75 84.9 62.75 86.75 62.65 89.05 61.4 88.05 60.05 87.55 56.85 86.3 53.4 87.95 L52.8 88.15 Q51.45 89.05 50.45 90.2 48.9 91.7 48.6 93.8 L48.4 95.15 Q48.3 100.1 50.7 103.45 48.35 104.65 45.8 105.15 L44.5 105.3 44.65 103.8 Q45.5 96.3 42.4 88 L42.35 87.75 Q40.3 82.9 35.9 79.2 34.55 85.1 30.05 90.3 28.85 92.05 26.45 93.6 25.35 94.25 24.3 94.85 21.25 86.25 23.65 75.85 26.4 75.95 27.95 77.8 29.75 80.05 26.9 82.85 26.1 83.65 25.95 84.2 25.5 86 29.1 84.05 31.2 82.8 32.4 80.45 35.05 75.7 32.4 70.35 30.35 65.75 27.25 62.45 30.1 56.35 29.5 53.3 28.95 50.8 26.3 50.35 L24.5 50.2 Q28.05 46.25 28.05 40.9 28.05 35.4 25.75 31 L27.8 31.5 Q28.55 33.45 29.8 35.35 31.9 31.5 35.95 28.7 37.15 27.7 39.1 27.1 43 26.05 45.8 24.7 47.5 23.8 48.8 22.8 L49.4 22.2 50.45 21.2 50.85 20.65 Q53.3 17.45 52.4 13.05 L52.3 12.45 Q51.75 10.5 50.95 9.1 49.6 7.05 47.3 5.95 L45.15 5.25 Q42.1 4.4 39.3 5.3 38.45 5.55 37.65 5.95 L36.35 6.8 Q31 9.95 28.35 16.65 27.45 18.95 27.1 21.6 25.2 21.95 23.95 22.95 22.2 24.3 22.1 26.05 18 22.15 11.15 19.75 7.8 18.65 4.1 18.35 8.75 7.75 19.25 3.85 L22.65 2.65 Q23.95 3.65 23.4 4.9 22.6 6.7 19.6 6.9 L15.25 7.25"/>
    <path stroke="none" fill="#ff9900" d="M13.25 7.9 L15.2 7.2 19.55 6.85 Q22.55 6.7 23.35 4.85 23.95 3.65 22.6 2.65 L24.5 2.15 25.35 2.85 Q26.55 4.1 26.8 5.85 L26.85 6.55 26.85 7.4 26.75 8.25 26.8 8.3 26.4 11.25 Q25.85 13.35 24.8 15.25 22.9 18.75 19.2 19.7 15.85 20.6 12.2 18.45 L11.4 17.85 Q10.35 16.95 9.9 15.5 L9.55 13.4 9.6 12.95 Q9.8 10.3 11.65 8.8 12.3 8.25 13.25 7.9 M15.45 8.05 Q14.05 8.25 13.25 8.75 11.95 9.25 11.25 10.4 9.75 12.75 10.75 15.5 11.6 17.7 14.25 18.5 L18.1 18.8 Q21.45 18.45 23.45 15.5 L24.7 13.4 Q25.8 11.4 26.1 9.05 L26.1 8.65 Q26.55 6.25 25.5 4.3 24.65 3.05 23.65 2.45 24.6 3.75 24.2 4.95 L23.6 6 Q22.4 7.35 20.4 7.6 L18.25 7.75 15.45 8.05"/>
    <path stroke="none" fill="#66cc33" d="M13.95 9.35 Q12.5 10.05 11.8 11.25 10.85 13.75 12.4 16.05 13.55 17.5 15.85 17.8 L18.55 17.5 Q22.35 16.2 24.4 11.45 25.95 8.3 24.9 5 24.15 7.2 22.25 8 L20.2 8.55 17.65 8.75 Q15.55 8.65 13.95 9.35 M11.25 10.4 Q11.95 9.25 13.25 8.75 14.1 8.25 15.45 8.05 L18.25 7.75 20.4 7.6 Q22.45 7.35 23.6 6 L24.2 4.9 Q24.6 3.75 23.7 2.45 24.65 3.05 25.5 4.3 26.55 6.25 26.1 8.65 L26.1 9.05 Q25.8 11.4 24.7 13.35 L23.45 15.5 Q21.45 18.45 18.15 18.8 L14.25 18.5 Q11.6 17.7 10.75 15.5 9.75 12.75 11.25 10.4"/>
    <path stroke="none" fill="#ff9900" d="M11.8 11.3 Q12.5 10.1 13.95 9.35 15.55 8.7 17.65 8.75 L20.2 8.55 22.25 8 Q24.15 7.25 24.9 5 25.95 8.3 24.4 11.45 22.35 16.25 18.55 17.5 L15.85 17.8 Q13.55 17.5 12.4 16.05 10.85 13.75 11.8 11.3 M13.3 14 Q13.4 14.65 13.85 15.15 L14.1 15.3 15.05 15.8 Q16.95 16.45 18.8 15.4 20.6 14.4 21.55 12.1 L22.55 10.05 Q20.1 11.05 17.35 11 14.05 10.85 13.4 13.1 L13.3 14"/>
    <path stroke="none" fill="#66cc33" d="M16.7 11.7 L16.1 11.75 Q14.25 12.2 14.45 14.1 15 15.25 16.75 14.9 18.95 14.25 20.1 12.7 L20.9 11.4 16.7 11.7 M15.05 15.8 L14.1 15.3 13.85 15.1 Q13.4 14.65 13.3 13.95 L13.4 13.05 Q14 10.85 17.35 10.95 20.1 11.05 22.55 10.05 L21.55 12.1 Q20.6 14.35 18.8 15.35 16.95 16.45 15.05 15.8"/>
    <path stroke="none" fill="#ff9900" d="M14.45 14.1 Q14.3 12.2 16.1 11.75 L16.7 11.7 20.9 11.4 20.15 12.75 Q18.95 14.25 16.75 14.9 15.05 15.3 14.45 14.1"/>
    <path stroke="none" fill="#66cc33" d="M3.35 19.95 Q6.85 20.2 10.1 21.15 20.1 24.6 24.15 32.95 27.3 40.9 24.4 47.35 23.6 48.85 22.4 49.95 L19.65 49.5 19.7 49.45 Q25.2 46.4 23.65 38.4 21.35 26.3 9.15 22.85 5.95 21.65 2.85 21.4 L3.35 19.95"/>
    <path stroke="none" fill="#ff9900" d="M1.5 26.4 Q2.05 23.8 2.85 21.4 5.95 21.65 9.15 22.85 21.4 26.3 23.65 38.4 25.2 46.4 19.7 49.45 L19.65 49.5 Q9.3 47.6 4.8 42 L3.7 38.4 Q3.1 35.5 1.75 32.8 L1.2 31.65 Q1.1 29.2 1.5 26.4 M20 40.15 L20 39.65 Q19.15 35 15.55 31.4 11.55 28.25 7.3 27.4 L7.4 27.3 7.3 27.3 7.3 27.4 3.8 26.95 Q6.25 29.6 7.2 33.1 8.35 38.7 10.2 41.5 13.65 47 17.65 44.45 L18.8 43.5 Q19.95 42.1 20 40.15"/>
    <path stroke="none" fill="#66cc33" d="M7.4 27.3 L7.35 27.35 7.35 27.3 7.4 27.3"/>
    <path stroke="none" fill="#66cc33" d="M20 39.6 L20 40.15 Q20 42.1 18.8 43.5 L17.65 44.45 Q13.7 47 10.25 41.5 8.35 38.7 7.25 33.1 6.25 29.6 3.85 26.95 L7.35 27.35 Q11.6 28.25 15.55 31.4 19.2 35 20 39.6 M18.45 39.25 L18.45 38.9 Q17.85 35.55 15.3 33.1 12.4 30.75 10.25 30.2 L7.35 29.5 Q9.05 32 9.7 35.15 10.3 38.25 12.2 41.15 14 44 16.85 42.3 L17.6 41.55 Q18.45 40.6 18.45 39.25"/>
    <path stroke="none" fill="#ff9900" d="M18.45 39.3 Q18.45 40.6 17.6 41.55 L16.8 42.3 Q14 44.05 12.2 41.15 10.3 38.25 9.7 35.15 9.05 32 7.35 29.5 L10.25 30.2 Q12.4 30.75 15.3 33.1 17.85 35.55 18.45 38.9 L18.45 39.3"/>
    <path stroke="none" fill="#ff9900" d="M25.75 31 Q28 35.4 28.05 40.9 28 46.25 24.45 50.2 L22.4 49.95 Q23.6 48.9 24.4 47.4 27.35 40.95 24.15 32.95 20.15 24.6 10.1 21.2 6.85 20.2 3.35 20 L4.05 18.35 Q7.8 18.65 11.15 19.75 17.95 22.2 22.05 26.05 L22 26.5 Q22 28.55 23.95 30 24.75 30.65 25.75 31"/>
    <path stroke="none" fill="#66cc33" d="M3.75 38.4 Q4.2 40.35 4.8 41.95 1.45 37.8 1.25 31.65 L1.8 32.8 Q3.1 35.5 3.75 38.4"/>
    <path stroke="none" fill="#66cc33" d="M28.35 16.65 Q31 10 36.35 6.8 36.95 6.35 37.65 6 L39.3 5.3 Q42.15 4.4 45.15 5.25 L47.3 6 Q49.6 7.05 50.95 9.1 51.75 10.5 52.35 12.45 L52.4 13.05 Q53.3 17.45 50.9 20.65 L50.45 21.2 49.45 22.2 48.85 22.8 45.8 24.7 Q43 26.05 39.1 27.1 37.15 27.75 35.95 28.75 31.9 31.5 29.8 35.35 28.55 33.45 27.8 31.5 L28.65 31.5 29.15 31.5 30.1 33.75 31.8 30.9 33.4 30 Q34.95 28.8 35.6 27.3 36.45 26.7 37.5 26.25 39.25 25.6 42.05 24.9 L43.1 24.7 Q47 23.45 49.05 21.2 L50.15 19.75 50.4 19.15 50.95 17.6 Q51.4 15.55 51.1 13.3 L51.1 13.05 51 12.45 50.9 12.15 Q50.35 9.95 48.9 8.55 46.45 6.45 43.7 6.1 41.3 6 39.25 6.7 38.7 6.9 38.15 7.2 37.05 7.75 36.1 8.4 31.5 11.55 29.55 16.95 28.75 19.15 28.35 21.4 L27.1 21.6 Q27.45 18.95 28.35 16.65"/>
    <path stroke="none" fill="#ff9900" d="M29.55 16.95 Q31.45 11.5 36.05 8.35 37.05 7.7 38.15 7.15 L39.2 6.65 Q41.3 5.95 43.7 6.05 46.45 6.45 48.85 8.55 50.3 9.9 50.85 12.1 L51 12.4 51.1 13 51.1 13.25 Q51.4 15.5 50.9 17.6 L50.4 19.1 50.15 19.7 49.05 21.15 Q46.95 23.45 43.1 24.65 L42.05 24.9 Q39.2 25.55 37.45 26.2 L35.6 27.25 35.85 26.4 35.9 25.45 Q36.6 25 37.35 24.65 39.25 23.65 41.35 23.25 44.3 22.6 46.4 21.15 L47.05 20.6 Q49.55 18.5 49.85 15.55 49.95 14.2 49.7 13 L49.6 12.4 Q48.95 10.2 46.8 8.65 44.8 7.3 41.65 7.5 L39.25 8.25 Q37.9 8.85 36.6 9.85 L36.45 10 Q31 14.8 29.7 21.35 L29.25 21.35 28.35 21.4 Q28.75 19.1 29.55 16.95"/>
    <path stroke="none" fill="#66cc33" d="M36.4 10 L36.6 9.9 Q37.85 8.9 39.25 8.25 40.25 7.8 41.6 7.5 44.8 7.35 46.8 8.65 48.9 10.25 49.55 12.4 L49.7 13 Q49.95 14.2 49.8 15.55 49.55 18.55 47.05 20.6 L46.35 21.15 Q44.3 22.65 41.3 23.25 39.2 23.65 37.3 24.65 36.6 25 35.85 25.45 35.8 23.9 34.35 22.65 L34.2 22.55 Q37.2 20.45 40.95 19.65 42.2 19.35 43.15 18.85 46.15 17.45 46.25 14.5 L46.05 13 45.75 12.4 Q45.3 11.75 44.7 11.4 L44.2 11.25 41.35 11 Q37.9 11.75 36 14.6 35.15 15.65 34.6 16.95 L34.55 17.05 Q33.55 19.15 33.15 21.95 31.65 21.3 29.65 21.35 31 14.8 36.4 10"/>
    <path stroke="none" fill="#ff9900" d="M40.95 12.65 L40.25 13.05 38.65 14.1 Q37.5 14.9 36.55 16.55 35.5 18.15 34.95 20.5 38.1 18.8 41.6 18.2 L43.15 17.6 Q44.45 16.95 44.9 16.1 45.5 15.1 45.05 13.8 L44.45 13.1 43.35 12.4 42.85 12.35 40.95 12.65 M34.6 16.95 Q35.15 15.7 36 14.6 37.9 11.75 41.35 11.05 L44.2 11.3 44.7 11.4 45.75 12.4 46.05 13.05 46.25 14.55 Q46.15 17.45 43.15 18.9 L40.95 19.65 Q37.2 20.5 34.2 22.55 L33.15 21.95 Q33.55 19.15 34.55 17.05 L34.6 16.95"/>
    <path stroke="none" fill="#66cc33" d="M38.7 14.1 L40.3 13 41 12.65 42.9 12.35 43.4 12.4 44.5 13.05 45.1 13.8 Q45.55 15.1 44.95 16.1 44.5 16.95 43.2 17.6 L41.65 18.2 Q38.15 18.75 35 20.5 35.55 18.15 36.55 16.5 37.55 14.9 38.7 14.1"/>
    <path stroke="none" fill="#66cc33" d="M29.35 1.35 L31.75 1.25 31.4 4.1 Q30.6 6.9 29.7 6.75 29.45 6.4 29.65 5.1 29.9 3.4 29.35 1.35"/>
    <path stroke="none" fill="#ff5900" d="M26.85 7.4 L26.8 8.3 26.75 8.25 26.85 7.4"/>
    <path stroke="none" fill="#ff9900" d="M30.35 31.4 L31.8 30.9 30.1 33.75 29.15 31.5 30.3 31.4 30.35 31.4"/>
    <path stroke="none" fill="#ff9900" d="M59.55 23.9 L59.65 25.85 57.6 26.25 Q46.15 29.15 38.8 39.55 L38.65 39.85 Q37.2 41.9 36.45 44.35 L35.65 48.2 Q35.85 53.4 38.4 56.35 41.45 59.9 45.8 60.3 L48.95 60.15 48.15 62.4 46.4 62.4 46 62.4 44.55 62.3 Q40.95 61.75 38.55 59.7 34.75 56.15 33.7 51.7 33.15 48.05 33.9 44.6 L34.5 42.75 Q35.15 40.95 36.15 39.25 40.5 31.35 48.75 27.35 53.75 24.9 59.55 23.9"/>
    <path stroke="none" fill="#66cc33" d="M59.6 25.8 Q59.55 28.8 59 31.95 53.6 33.15 49.75 35.35 L49.55 35.45 Q47.65 36.55 46.1 38.05 41.85 41.6 41.2 47.3 41.1 49.75 42.05 51.8 L42.4 52.4 Q43.45 53.9 45.2 54.35 L47.6 54.55 Q50.15 54.25 51.8 52.65 L48.95 60.15 45.8 60.25 Q41.45 59.9 38.35 56.35 35.85 53.35 35.65 48.2 35.9 46.1 36.45 44.35 37.15 41.9 38.6 39.8 L38.8 39.5 Q46.15 29.1 57.55 26.2 L59.6 25.8"/>
    <path stroke="none" fill="#66cc33" d="M59.4 21.9 L59.55 23.9 Q53.75 24.9 48.75 27.35 40.5 31.35 36.15 39.2 35.15 40.95 34.5 42.7 L33.9 44.6 Q33.1 48 33.7 51.7 34.75 56.15 38.55 59.7 40.9 61.75 44.55 62.3 L46 62.4 46.4 62.4 48.15 62.4 47.4 64.7 46.25 64.55 45.25 64.5 Q42.15 63.95 39.7 62.75 36.2 60.95 34.15 57.65 33.15 56.1 32.55 54.2 30.8 49.45 31.75 44.85 L32.6 42.05 33.6 39.85 Q37.85 30.8 48.1 25.5 53.15 22.8 59.4 21.9"/>
    <path stroke="none" fill="#ff9900" d="M49.25 38.6 Q46.85 40.4 45.65 42.4 L44.25 45.15 43.8 46.3 Q43.35 48.05 43.55 49.4 43.85 51.05 44.95 51.85 L46.2 52.6 Q48.4 53.25 49.95 52.1 51.85 50.65 52.7 46.45 53.1 40.75 55.25 35.5 51.7 36.65 49.25 38.65 L49.25 38.6 M59 31.95 L58.85 33.15 Q55.8 38.6 54.95 45.1 L54.95 45.4 54.3 46.85 51.85 52.65 Q50.15 54.25 47.6 54.5 L45.2 54.35 Q43.45 53.9 42.4 52.4 L42.05 51.8 Q41.1 49.7 41.2 47.3 41.85 41.6 46.1 38.05 47.65 36.5 49.55 35.45 L49.8 35.35 Q53.6 33.15 59 31.95"/>
    <path stroke="none" fill="#66cc33" d="M49.25 38.7 Q51.7 36.7 55.25 35.55 53.1 40.8 52.65 46.45 51.85 50.7 49.95 52.15 48.4 53.3 46.2 52.65 L44.95 51.9 Q43.85 51.05 43.55 49.45 43.35 48.05 43.8 46.35 L44.2 45.2 Q44.85 43.7 45.65 42.45 46.8 40.45 49.25 38.65 L49.25 38.7"/>
    <path stroke="none" fill="#66cc33" d="M54.95 45.45 L54.95 45.15 Q55.8 38.65 58.8 33.2 57.65 38.9 54.95 45.45"/>
    <path stroke="none" fill="#ff9900" d="M43.9 71.45 Q44.8 70.8 45.7 70.3 L45.4 71.45 Q42.8 73.15 41.8 75.55 41.4 77.25 41.8 78.55 42.05 76.8 43.3 76.15 L44.55 75.8 44.4 76.7 43.95 76.8 43.6 77.05 Q42.4 77.8 42.95 79.9 L43.1 80.85 42.95 81.2 42.85 81.2 41.95 80.6 41.4 79.85 Q40.7 78.5 40.75 76.9 40.85 73.55 43.9 71.45"/>
    <path stroke="none" fill="#66cc33" d="M45.4 71.45 L45.15 72.6 Q43.65 73.8 42.7 75.75 43.7 75.2 44.7 75 L44.55 75.8 43.3 76.15 Q42.05 76.8 41.8 78.55 41.4 77.25 41.8 75.55 42.8 73.15 45.4 71.45"/>
    <path stroke="none" fill="#ff9900" d="M45.15 72.6 L44.7 75 Q43.7 75.2 42.7 75.75 43.65 73.8 45.15 72.6"/>
    <path stroke="none" fill="#ff9900" d="M27.2 62.5 L27.25 62.45 Q30.35 65.75 32.4 70.35 35.05 75.7 32.4 80.45 31.2 82.8 29.1 84.05 25.45 85.95 25.95 84.2 26.1 83.65 26.9 82.85 29.75 80.05 27.95 77.8 26.4 75.95 23.65 75.85 23.75 75.1 24 74.4 26.15 74.6 27.85 75.6 L29.45 77.4 Q30.8 79.3 29.6 82 31.15 80.45 32 77.8 32.7 72.9 29.7 68 L29.6 67.8 Q28.35 65.75 26.8 64 L27.2 62.5"/>
    <path stroke="none" fill="#66cc33" d="M29.6 67.8 L29.65 68 Q32.7 72.85 31.95 77.75 31.15 80.4 29.6 82 30.8 79.3 29.45 77.4 L27.85 75.6 Q26.1 74.55 24 74.4 L24.4 72.8 24.5 72.8 Q28.2 73.35 30.6 77.3 30.95 70.4 26.35 65.45 L26.8 64 Q28.35 65.7 29.6 67.8"/>
    <path stroke="none" fill="#ff9900" d="M24.4 72.8 L24.45 72.45 26.35 65.45 Q30.95 70.4 30.55 77.3 28.2 73.35 24.45 72.8 L24.4 72.8"/>
    <path stroke="none" fill="#ff9900" d="M32.85 89.85 Q35.3 85.95 36.1 81.4 38.55 84 40.35 87.85 41.4 90.05 41.95 92.4 L42.15 92.7 Q43.5 98.3 42.85 103.8 L42.7 105.5 40.5 105.6 Q41.5 101.1 41 96.3 40.05 88.65 36.7 84.6 36.3 86.4 34.95 89.3 34.35 90.95 32.95 92.75 31.45 94.7 29.6 96.25 L26.1 98.85 26.05 98.7 25 96.6 28.85 94.15 Q31.5 91.95 32.85 89.85"/>
    <path stroke="none" fill="#66cc33" d="M26.4 93.55 Q28.85 92.05 30.05 90.25 34.55 85.05 35.9 79.15 40.3 82.9 42.35 87.7 L42.4 87.95 Q45.45 96.3 44.65 103.75 L44.45 105.3 43.2 105.4 42.7 105.45 42.9 103.75 Q43.55 98.25 42.15 92.65 L42 92.35 Q41.45 90 40.35 87.85 38.55 83.95 36.15 81.4 35.3 85.9 32.85 89.85 31.5 91.95 28.9 94.1 L25 96.6 24.3 94.85 26.4 93.55"/>
    <path stroke="none" fill="#66cc33" d="M34.95 89.3 Q36.3 86.4 36.7 84.6 40.05 88.65 41 96.3 41.55 101.1 40.5 105.6 L37.35 105.4 36.1 105.3 Q36.75 101.5 35.95 96.5 33.25 100.05 29.4 102.6 27.9 101.4 26.7 99.85 L26.1 98.85 29.6 96.25 Q31.45 94.7 33 92.75 34.35 90.95 34.95 89.3"/>
    <path stroke="none" fill="#ff9900" d="M31.15 103.7 L30.15 103.1 29.45 102.6 Q33.25 100.05 35.95 96.5 36.8 101.5 36.15 105.3 L34.15 104.9 Q34.45 103.1 34.35 101.05 L31.15 103.7"/>
    <path stroke="none" fill="#66cc33" d="M34.3 101 Q34.4 103.05 34.1 104.85 32.45 104.4 31.1 103.65 L34.3 101"/>
    <path stroke="none" fill="#66cc33" d="M53.25 81.2 Q55.85 80.95 57.85 81.75 L56.75 82.3 Q54.95 82.2 53.25 81.2"/>
    <path stroke="none" fill="#ff9900" d="M52.1 81.3 L53.25 81.2 Q54.95 82.2 56.75 82.3 L55.5 82.9 Q53.95 82.45 52.35 81.45 L52.1 81.3"/>
    <path stroke="none" fill="#66cc33" d="M54.75 93.3 Q55.25 93 55.9 92.8 58.7 92 60.75 95.1 L60.15 96.1 60 95.85 59.55 95.15 Q57.65 93.25 55.35 94.8 54.4 96.3 56.1 98.2 L57.25 99.15 55.8 100.35 Q54.15 99 53.7 96.8 L53.6 95.25 53.7 94.8 Q53.95 93.9 54.75 93.3"/>
    <path stroke="none" fill="#ff9900" d="M61 90.75 L62.15 91.8 61.5 93.75 60.75 95.05 Q58.7 92 55.95 92.8 L54.8 93.25 Q53.95 93.9 53.7 94.75 L53.65 95.2 53.7 96.75 Q54.15 98.95 55.8 100.3 L54.25 101.4 53.6 101.75 Q52.45 100.6 51.85 99.2 50.55 96.2 51.55 93.6 53.35 90.1 57.1 89.4 59.1 89.45 61 90.75"/>
    <path stroke="none" fill="#ff9900" d="M60.05 87.55 Q61.4 88.05 62.65 89.05 L62.55 90.4 61.25 89.4 Q59.7 88.25 57.7 88.15 53.7 87.95 51.05 91.25 48.8 93.85 49.8 97.7 50.5 100.3 52.15 102.65 L50.7 103.45 Q48.35 100.1 48.4 95.15 L48.6 93.75 Q48.95 91.7 50.45 90.2 51.45 89.05 52.8 88.15 L53.4 87.9 Q56.85 86.3 60.05 87.55"/>
    <path stroke="none" fill="#66cc33" d="M62.15 91.85 L61 90.75 Q59.05 89.5 57.05 89.45 53.35 90.15 51.5 93.65 50.5 96.2 51.8 99.2 52.45 100.65 53.55 101.8 L52.1 102.65 Q50.5 100.3 49.75 97.7 48.75 93.85 51 91.25 53.65 88 57.65 88.15 59.65 88.25 61.2 89.45 61.85 89.75 62.5 90.4 L62.15 91.85"/>
    <path stroke="none" fill="#ff9900" d="M56.1 98.15 Q54.35 96.3 55.35 94.8 57.6 93.25 59.55 95.15 L60 95.8 60.15 96.05 57.25 99.15 56.1 98.15"/>
    <path stroke="none" fill="#66cc33" d="M22.2 66.85 L22.15 66.75 22.2 66.8 22.2 66.85"/>
    <path stroke="none" fill="#356b1b" d="M4.1 18.1 Q7.7 18.35 11.25 19.5 18.15 22 22.25 25.9 L22.25 26.25 22.05 26.3 21.9 26.25 Q17.9 22.4 11.05 19.95 7.6 18.85 4.05 18.6 L3.85 18.3 Q3.85 18.1 4.1 18.1 M13.35 8.95 Q12.15 9.5 11.5 10.55 10.05 12.75 11 15.4 11.75 17.5 14.35 18.25 L18.15 18.55 Q21.35 18.25 23.25 15.35 L24.5 13.25 Q25.6 11.25 25.85 9 L25.85 8.65 Q26.3 6.25 25.3 4.45 L24.45 3.4 Q24.7 4.2 24.5 5 L23.85 6.2 Q22.65 7.55 20.5 7.85 L18.25 8 15.55 8.3 Q14.2 8.5 13.4 8.95 L13.35 8.95 M15.45 7.8 L18.25 7.5 20.4 7.35 Q22.4 7.05 23.45 5.85 L24 4.85 Q24.35 3.8 23.5 2.6 L23.5 2.3 23.85 2.25 Q24.9 2.95 25.7 4.2 26.85 6.15 26.35 8.7 L26.35 9.05 Q26.1 11.4 24.95 13.5 L23.7 15.6 Q21.65 18.7 18.2 19.05 L17.1 19.1 14.25 18.75 Q11.35 17.85 10.55 15.6 9.5 12.7 11.05 10.3 11.8 9.1 13.15 8.5 14.05 8 15.45 7.8 M13.35 8.1 L11.85 9 Q10.05 10.45 9.9 13 L9.85 13.4 10.2 15.45 Q10.6 16.85 11.6 17.65 L12.35 18.25 Q15.9 20.35 19.15 19.5 22.85 18.5 24.65 15.15 25.65 13.15 26.15 11.2 L26.6 8.3 26.65 7.4 26.65 6.55 26.6 5.9 Q26.35 4.25 25.2 3.05 L24.4 2.35 24.35 2.05 Q24.45 1.85 24.65 1.95 L25.55 2.7 Q26.8 4.05 27.1 5.8 L27.15 6.55 27.15 7.4 27.1 8.35 26.65 11.3 Q26.15 13.35 25.05 15.35 23.15 18.95 19.3 19.95 L17.25 20.25 Q14.7 20.25 12.1 18.65 L11.25 18 Q10.2 17.15 9.7 15.55 L9.35 13.4 Q9.3 13.2 9.4 12.9 9.6 10.2 11.55 8.6 L13.15 7.65 15.2 7 19.6 6.6 Q22.4 6.45 23.15 4.75 23.65 3.7 22.45 2.85 L22.4 2.5 22.75 2.45 Q24.25 3.55 23.65 5 22.75 6.9 19.6 7.1 L15.3 7.45 Q14.25 7.7 13.35 8.1 M16.2 12 Q14.55 12.4 14.7 14.05 15.15 14.95 16.7 14.65 18.8 14.05 19.95 12.55 L20.45 11.75 16.7 11.95 16.2 12 M16.7 11.45 L20.85 11.15 21.1 11.25 21.15 11.5 20.35 12.85 Q19.1 14.45 16.85 15.15 L16 15.25 Q14.5 15.1 14.25 14.2 L14.2 14.15 Q14.05 12.05 16.05 11.5 L16.7 11.45 M13.2 13 Q13.85 10.6 17.35 10.7 20.1 10.8 22.45 9.85 L22.75 9.9 22.8 10.15 21.8 12.25 Q20.8 14.6 18.95 15.6 17.75 16.3 16.5 16.3 L15 16.05 14 15.55 13.85 15.45 13.7 15.3 Q13.2 14.8 13.05 14 L13.2 13.05 13.2 13 M14.1 15 L14.3 15.15 Q14.65 15.35 15.15 15.55 17 16.15 18.7 15.15 20.4 14.25 21.35 12 L22.1 10.5 Q19.85 11.3 17.35 11.2 14.2 11.1 13.7 13.15 L13.55 14 Q13.65 14.55 14.05 14.95 L14.1 15 M15.85 18.05 Q13.5 17.75 12.2 16.2 10.65 13.8 11.6 11.2 12.4 9.85 13.85 9.1 15.65 8.4 17.7 8.5 L20.15 8.3 22.15 7.8 Q24 7 24.65 4.9 24.75 4.75 24.9 4.75 25.1 4.75 25.15 4.9 26.25 8.3 24.65 11.55 22.55 16.45 18.65 17.7 L16.45 18.05 15.85 18.05 M15.9 17.55 L18.5 17.25 Q22.2 16.05 24.2 11.35 25.55 8.6 24.85 5.8 24.1 7.5 22.35 8.25 L20.25 8.8 17.65 9 Q15.7 8.9 14.1 9.55 12.75 10.25 12 11.4 11.2 13.75 12.6 15.9 13.75 17.3 15.9 17.55 M31.65 4.15 Q30.85 7.05 29.85 7 L29.7 7 29.55 6.9 Q29.2 6.5 29.45 5.1 29.7 3.45 29.15 1.45 L29.3 1.15 Q29.55 1.1 29.6 1.3 30.2 3.45 29.9 5.15 L29.9 6.5 Q30.3 6.7 31.2 4 L31.55 1.25 Q31.55 1 31.8 1 L32.05 1.25 31.65 4.15 M36.4 9.7 Q37.75 8.7 39.15 8.05 40.2 7.55 41.6 7.3 44.95 7.1 46.95 8.45 49.2 10.1 49.85 12.35 L49.9 12.7 49.95 12.95 50.1 15.55 Q49.8 18.7 47.2 20.8 L46.55 21.35 Q44.35 22.9 41.4 23.5 39.4 23.85 37.45 24.9 L36.05 25.65 35.9 25.7 35.7 25.6 Q35.55 25.4 35.75 25.25 L37.25 24.45 Q39.25 23.4 41.3 23.05 44.15 22.4 46.25 20.95 L46.9 20.4 Q49.35 18.45 49.6 15.55 49.7 14 49.45 13.1 L49.4 12.75 49.35 12.5 Q48.75 10.4 46.65 8.9 44.8 7.6 41.65 7.8 L39.4 8.5 36.75 10.1 36.65 10.15 Q31.25 14.9 29.9 21.4 L29.65 21.6 Q29.4 21.55 29.45 21.3 30.85 14.65 36.25 9.8 L36.4 9.7 M34.75 17.25 Q33.9 19 33.4 22 L33.15 22.2 Q32.9 22.15 32.95 21.9 33.4 18.85 34.35 16.95 L34.4 16.9 34.4 16.85 35.8 14.45 Q37.8 11.55 41.35 10.8 L44.3 11.05 44.5 11.1 44.8 11.15 46 12.25 46.35 12.95 46.5 14.55 Q46.45 17.6 43.3 19.1 42.3 19.6 41 19.9 37.25 20.75 34.35 22.75 L34.2 22.8 34 22.7 Q33.9 22.5 34.05 22.35 37.05 20.25 40.9 19.4 L43.1 18.65 Q45.95 17.3 46 14.5 L45.85 13.1 45.6 12.55 44.6 11.6 44.4 11.6 44.1 11.5 41.45 11.3 Q38.1 12 36.2 14.75 35.35 15.85 34.85 17 L34.75 17.25 M35.95 8.15 L38 6.95 39.15 6.45 Q41.2 5.75 43.7 5.85 46.5 6.2 49.05 8.35 50.5 9.75 51.1 12 L51.15 12.2 51.2 12.3 51.3 12.7 51.35 12.95 51.35 13.25 Q51.6 15.55 51.15 17.65 L50.6 19.2 50.45 19.6 50.35 19.8 49.25 21.35 Q47 23.75 43.15 24.9 L42.55 25.05 42.1 25.15 37.55 26.45 35.75 27.45 35.6 27.5 35.4 27.4 Q35.25 27.2 35.45 27.05 L37.35 26 Q38.8 25.45 42 24.65 L42.4 24.55 43.05 24.4 Q46.75 23.3 48.85 21 L49.9 19.6 50 19.4 50.15 19.05 50.7 17.55 Q51.1 15.5 50.85 13.3 L50.85 13 50.8 12.75 50.75 12.5 50.7 12.35 50.6 12.2 Q50.1 10.05 48.7 8.75 46.25 6.65 43.65 6.35 41.25 6.25 39.3 6.9 38.75 7.1 38.25 7.4 37.15 7.95 36.2 8.6 31.65 11.7 29.8 17.05 28.95 19.3 28.6 21.45 L28.3 21.65 28.1 21.35 Q28.45 19.15 29.3 16.85 31.25 11.4 35.95 8.15 M28.6 16.75 Q27.7 18.95 27.35 21.65 L27.05 21.85 Q26.8 21.8 26.85 21.55 27.2 18.8 28.1 16.55 30.75 9.8 36.2 6.6 36.8 6.15 37.55 5.75 38.35 5.3 39.2 5.05 42.05 4.15 45.2 5 46.35 5.25 47.4 5.75 49.75 6.85 51.15 8.95 52 10.4 52.55 12.35 L52.6 12.95 Q53.55 17.55 51.05 20.8 L50.6 21.35 49.55 22.4 49 22.95 45.9 24.9 Q42.8 26.4 39.15 27.35 37.25 27.9 36.1 28.9 32 31.7 30 35.45 L29.8 35.6 29.6 35.5 Q28.35 33.65 27.55 31.6 27.5 31.35 27.7 31.25 27.95 31.2 28.05 31.4 28.75 33.2 29.8 34.85 31.8 31.25 35.8 28.5 37 27.5 39 26.85 42.65 25.9 45.7 24.45 L48.65 22.6 49.25 22 50.25 21 50.65 20.5 Q53.05 17.4 52.1 13.05 L52.05 12.4 Q51.55 10.6 50.7 9.25 49.45 7.25 47.2 6.2 L45.05 5.5 Q42.05 4.65 39.35 5.55 38.55 5.75 37.75 6.2 L36.45 7 Q31.15 10.15 28.6 16.75 M43.45 12.2 L44.65 12.9 45.3 13.7 Q45.8 15.2 45.15 16.25 44.65 17.15 43.3 17.85 L43.15 17.9 41.7 18.45 41.65 18.45 Q38.35 18.95 35.1 20.7 L35 20.75 34.85 20.7 34.75 20.45 Q35.3 18.15 36.35 16.4 37.35 14.7 38.55 13.9 39.25 13.25 40.2 12.8 L40.85 12.45 42.9 12.1 43.45 12.2 M38.85 14.3 Q37.75 15.05 36.75 16.65 35.9 18.1 35.35 20 38.4 18.45 41.55 17.95 L42.95 17.45 43.1 17.4 Q44.25 16.8 44.75 16 45.25 15.1 44.85 13.9 L44.3 13.25 Q43.85 12.8 43.3 12.65 L42.9 12.6 41 12.9 40.45 13.25 38.85 14.3 M59.6 24.15 Q53.8 25.15 48.85 27.55 40.7 31.5 36.35 39.35 35.35 41.1 34.75 42.8 L34.15 44.65 Q33.35 47.95 33.9 51.65 35 56 38.7 59.5 40.95 61.5 44.55 62 L45.25 62.1 46 62.15 48.15 62.15 48.4 62.4 48.15 62.65 45.95 62.65 45.2 62.6 44.5 62.5 Q40.75 61.95 38.4 59.85 34.5 56.3 33.4 51.75 32.85 47.9 33.65 44.55 L34.25 42.6 Q34.9 40.9 35.9 39.1 40.3 31.15 48.65 27.1 53.65 24.65 59.5 23.65 59.75 23.6 59.8 23.85 L59.6 24.15 M59.4 26.1 L57.6 26.5 Q46.25 29.4 39 39.65 L38.85 39.95 Q37.4 42 36.65 44.4 36.2 46.05 35.9 48.25 36.1 53.25 38.55 56.2 41.6 59.65 45.8 60.05 L48.9 59.9 49.15 60.1 48.95 60.4 46.9 60.55 45.75 60.55 Q41.35 60.15 38.2 56.5 35.6 53.45 35.4 48.2 35.7 45.95 36.2 44.25 36.95 41.8 38.4 39.65 L38.6 39.35 Q45.95 28.95 57.5 26 L59.3 25.6 59.55 25.55 Q59.8 25.55 59.85 25.75 59.9 26 59.65 26.05 L59.4 26.1 M59.6 21.85 L59.4 22.15 Q53.25 23.05 48.2 25.75 38.05 30.95 33.85 39.9 33.25 40.95 32.8 42.15 32.25 43.55 31.95 44.9 31 49.35 32.75 54.1 33.35 55.95 34.35 57.5 36.4 60.8 39.8 62.55 42.35 63.75 45.3 64.25 L46.2 64.3 46.8 64.35 47.4 64.45 47.6 64.7 47.35 64.95 47.3 64.95 46.75 64.85 46.2 64.8 45.2 64.75 Q42.2 64.25 39.6 63 36.05 61.15 33.95 57.75 32.9 56.2 32.3 54.25 30.5 49.4 31.5 44.75 31.75 43.45 32.35 41.95 32.8 40.7 33.4 39.7 37.65 30.6 47.95 25.3 53.1 22.55 59.35 21.65 L59.6 21.85 M59.25 31.9 Q59.3 32.15 59.05 32.2 53.75 33.35 49.9 35.55 L49.75 35.65 Q47.7 36.8 46.25 38.25 42.1 41.75 41.45 47.35 41.35 49.8 42.25 51.7 L42.6 52.25 Q43.6 53.7 45.25 54.1 L47.6 54.3 Q49.9 54.05 51.65 52.5 51.85 52.35 52 52.5 L52 52.85 Q50.15 54.5 47.65 54.8 L46.95 54.8 45.15 54.6 Q43.25 54.1 42.2 52.55 41.85 52.2 41.8 51.9 40.85 49.9 40.95 47.3 41.6 41.45 45.95 37.9 47.4 36.4 49.4 35.25 L49.55 35.2 Q53.6 32.9 58.95 31.75 59.2 31.7 59.25 31.9 M59.05 33.3 Q56 38.85 55.2 45.15 L55.2 45.45 54.95 45.7 54.7 45.45 54.7 45.15 Q55.55 38.65 58.6 33.05 L58.95 32.95 59.05 33.3 M55.2 35.3 L55.45 35.35 55.5 35.65 Q53.35 40.75 52.9 46.45 52.1 50.85 50.1 52.35 49.1 53.1 47.75 53.1 L46.15 52.85 44.8 52.1 Q43.6 51.2 43.3 49.45 43.1 47.95 43.55 46.25 L44 45.1 45.45 42.3 Q46.7 40.15 49.1 38.4 L49.2 38.35 Q51.55 36.5 55.2 35.3 M49.4 38.85 L49.25 38.9 Q47.05 40.6 45.9 42.55 45.05 43.85 44.45 45.3 L44.05 46.45 Q43.6 48 43.8 49.4 44.05 50.9 45.1 51.7 L46.3 52.4 Q48.4 53 49.8 51.95 51.65 50.5 52.4 46.4 52.85 40.9 54.85 35.95 51.5 37.1 49.4 38.85 M31.95 30.7 L32 31.05 Q31 32.35 30.35 33.85 L30.1 33.95 29.9 33.85 28.9 31.6 Q28.85 31.35 29.05 31.25 L29.35 31.4 30.1 33.15 Q30.7 31.9 31.6 30.75 L31.95 30.7 M25.95 30.9 Q28.3 35.35 28.3 40.9 28.3 46.25 24.65 50.35 L24.5 50.45 24.3 50.4 Q24.15 50.2 24.3 50.05 27.8 46.1 27.8 40.9 27.8 35.45 25.55 31.1 25.45 30.9 25.65 30.8 25.85 30.7 25.95 30.9 M18.2 39.25 L18.2 38.9 Q17.6 35.65 15.15 33.3 12.3 31 10.2 30.45 L10.15 30.45 7.85 29.85 Q9.4 32.25 9.95 35.1 10.6 38.3 12.4 41 14.05 43.7 16.7 42.1 L17.4 41.4 Q18.2 40.45 18.2 39.25 M17.8 41.7 L16.95 42.5 Q15.85 43.2 14.85 43.2 13.15 43.2 11.95 41.3 10.1 38.45 9.45 35.2 8.85 32.15 7.15 29.65 L7.15 29.35 7.4 29.25 Q8.1 29.35 10.3 30 12.55 30.55 15.45 32.9 18.05 35.4 18.7 38.85 L18.7 39.25 Q18.7 40.65 17.8 41.7 M20.25 40.2 Q20.25 42.2 19 43.65 L17.8 44.7 Q16.45 45.5 15.2 45.5 L14.35 45.4 Q12.05 44.9 10.05 41.65 8.2 38.95 7 33.15 6 29.6 3.65 27.15 L3.6 26.85 Q3.7 26.7 3.85 26.7 L7.4 27.15 Q11.7 28.05 15.7 31.25 19.45 34.85 20.25 39.6 L20.25 40.2 M19.75 39.65 Q18.95 35.1 15.4 31.6 11.5 28.5 7.3 27.65 L4.4 27.2 Q6.5 29.65 7.45 33.05 8.65 38.75 10.45 41.35 12.4 44.45 14.45 44.95 15.95 45.25 17.55 44.25 L18.6 43.35 Q19.75 42 19.75 40.2 L19.75 39.65 M3.4 19.7 Q7.15 20 10.2 20.95 20.25 24.4 24.4 32.85 27.6 40.9 24.65 47.45 23.85 49 22.6 50.15 L22.45 50.2 22.25 50.1 Q22.1 49.95 22.25 49.75 23.45 48.7 24.2 47.25 27.05 40.9 23.95 33.05 19.95 24.75 10.05 21.4 7.1 20.5 3.35 20.2 L3.1 19.95 3.4 19.7 M2.65 21.4 Q2.65 21.15 2.9 21.15 6.05 21.45 9.25 22.6 21.65 26.15 23.95 38.4 25.5 46.5 19.85 49.7 L19.65 49.75 19.4 49.55 19.6 49.25 Q24.95 46.25 23.45 38.5 21.2 26.55 9.1 23.1 5.95 21.95 2.85 21.65 L2.65 21.4 M1.45 31.55 L2 32.7 Q3.3 35.25 3.95 38.4 L5.05 41.9 4.9 42.2 4.8 42.25 4.6 42.1 3.5 38.5 Q2.8 35.4 1.55 32.95 L1.05 31.8 Q0.95 31.55 1.15 31.45 L1.45 31.55 M26.55 65.3 Q31.2 70.3 30.85 77.3 L30.65 77.55 30.6 77.55 30.35 77.4 Q28.05 73.6 24.45 73.1 L24.2 72.85 24.4 72.6 Q28.05 73.1 30.35 76.5 30.45 70.2 26.15 65.65 26.05 65.45 26.2 65.3 26.35 65.15 26.55 65.3 M26.6 63.85 Q26.8 63.7 26.95 63.85 28.6 65.7 29.85 67.7 L29.9 67.9 Q32.95 72.85 32.2 77.8 31.35 80.65 29.8 82.2 L29.6 82.25 29.45 82.2 29.4 81.9 Q30.5 79.35 29.25 77.55 L27.7 75.8 Q26.05 74.85 24 74.65 L23.75 74.4 Q23.8 74.15 24 74.15 26.2 74.35 28 75.4 L29.65 77.3 Q30.75 78.8 30.3 80.8 31.15 79.55 31.75 77.7 32.4 73 29.45 68.15 L29.4 67.9 Q28.2 66 26.6 64.2 26.45 64 26.6 63.85 M27.1 62.25 L27.45 62.3 Q30.45 65.5 32.6 70.25 35.3 75.7 32.6 80.55 31.45 82.9 29.2 84.25 27.25 85.3 26.45 85.3 L25.9 85.15 Q25.5 84.85 25.7 84.1 25.9 83.5 26.7 82.65 29.4 80 27.75 77.95 26.25 76.2 23.65 76.1 L23.4 75.85 Q23.4 75.6 23.65 75.6 26.5 75.7 28.1 77.6 30.05 80.05 27.1 83 26.35 83.75 26.15 84.25 26.1 84.65 26.2 84.75 26.1 85.2 28.95 83.85 31.05 82.55 32.15 80.3 34.75 75.7 32.15 70.45 30.05 65.75 27.1 62.6 26.95 62.45 27.1 62.25 M35.8 78.95 L36.05 78.95 Q40.4 82.6 42.6 87.65 L42.65 87.9 Q45.7 96.2 44.9 103.8 L44.7 105.35 44.45 105.55 44.2 105.25 44.4 103.75 Q45.2 96.25 42.2 88.05 L42.1 87.8 Q40.05 83.1 36.05 79.6 34.55 85.45 30.25 90.45 29.1 92.2 26.55 93.8 L24.45 95.05 24.1 95 Q24 94.8 24.15 94.65 L26.3 93.35 Q28.7 91.85 29.85 90.15 34.25 85.05 35.65 79.1 L35.8 78.95 M36.95 84.45 Q40.25 88.45 41.25 96.25 41.8 101 40.8 105.65 L40.55 105.85 40.5 105.85 40.3 105.55 Q41.3 101 40.75 96.35 39.85 89.05 36.85 85.15 L35.2 89.4 Q34.6 91.05 33.2 92.9 31.35 95.15 29.75 96.45 28.2 97.95 26.25 99.05 L25.9 98.95 Q25.8 98.75 26 98.6 L29.45 96.05 32.8 92.6 Q34.15 90.8 34.75 89.2 36 86.6 36.5 84.55 L36.7 84.35 36.95 84.45 M36.3 81.25 Q38.8 83.85 40.6 87.75 L42.25 92.35 42.4 92.55 Q43.8 98.3 43.15 103.8 L42.95 105.5 42.7 105.75 42.45 105.45 42.65 103.75 Q43.3 98.3 41.95 92.75 L41.75 92.5 Q41.2 90.1 40.15 87.95 38.5 84.4 36.3 81.95 35.4 86.25 33.1 90 31.65 92.15 29.05 94.35 L25.45 96.65 25.15 96.8 24.8 96.75 Q24.7 96.5 24.9 96.4 L25.15 96.25 28.75 93.95 Q31.3 91.85 32.65 89.7 35.05 85.9 35.9 81.35 L36.05 81.15 36.3 81.25 M36 96.25 L36.2 96.45 Q37 101.5 36.4 105.35 L36.15 105.55 36.1 105.55 Q35.85 105.5 35.9 105.25 36.45 101.7 35.8 97.1 33.1 100.4 29.55 102.8 L29.25 102.7 Q29.1 102.5 29.3 102.35 33 99.9 35.75 96.35 L36 96.25 M31 103.45 L34.15 100.85 34.4 100.8 34.55 101 Q34.65 103.1 34.4 104.9 L34.15 105.15 34.1 105.1 33.9 104.85 34.1 101.55 31.25 103.9 Q31.05 104 30.9 103.8 30.8 103.6 31 103.45 M62.45 89.25 Q61.1 88.15 59.95 87.8 56.85 86.55 53.5 88.15 L53.1 88.3 52.85 88.4 Q51.55 89.3 50.65 90.35 49.15 91.85 48.8 93.8 48.65 94.45 48.65 95.15 48.55 99.95 50.9 103.3 L50.8 103.65 50.7 103.7 50.45 103.55 Q48.05 100.15 48.15 95.15 L48.35 93.7 Q48.65 91.6 50.25 90.05 51.2 88.9 52.65 87.95 L52.9 87.85 53.35 87.65 Q56.85 86.05 60.15 87.3 61.3 87.7 62.8 88.85 L62.8 89.2 62.45 89.25 M61.95 92 L60.85 90.95 Q59.05 89.75 57.05 89.65 53.5 90.4 51.75 93.75 50.8 96.15 52.05 99.1 52.6 100.4 53.75 101.65 L53.75 102 53.6 102.05 53.4 101.95 Q52.2 100.7 51.6 99.3 50.25 96.15 51.3 93.55 53.15 89.95 57.05 89.2 59.25 89.25 61.15 90.55 L62.35 91.7 62.3 92.05 61.95 92 M62.7 90.55 L62.35 90.55 61.1 89.65 Q59.6 88.5 57.65 88.4 53.8 88.25 51.25 91.4 49.05 93.95 50 97.65 50.7 100.15 52.35 102.5 L52.25 102.85 52.15 102.9 51.9 102.8 Q50.25 100.35 49.55 97.75 48.5 93.8 50.85 91.05 53.55 87.75 57.7 87.9 59.8 88 61.4 89.25 L62.7 90.2 62.7 90.55 M45.6 70.05 Q45.85 70 45.95 70.2 L45.85 70.5 Q44.95 71 44.1 71.65 41.1 73.65 41.05 76.9 40.95 78.35 41.65 79.7 L42.2 80.45 42.8 81 42.9 80.8 42.7 79.95 Q42.25 77.35 43.45 76.9 L43.9 76.55 44.15 76.5 44.3 76.45 Q44.5 76.4 44.6 76.6 L44.5 76.9 44.25 77 44.05 77.05 43.85 77.15 43.75 77.25 Q42.65 78.3 43.2 79.85 L43.4 80.85 43.15 81.4 42.95 81.45 42.8 81.5 41.8 80.8 41.25 79.95 Q40.45 78.5 40.55 76.85 40.65 73.35 43.8 71.25 L45.6 70.05 M45.35 72.8 Q44.2 73.65 43.3 75.15 44 74.9 44.65 74.75 44.9 74.75 44.95 74.95 L44.75 75.25 Q43.8 75.4 42.85 75.95 L42.7 76 42.55 75.9 Q42.4 75.75 42.5 75.6 43.6 73.5 45.05 72.4 L45.4 72.45 45.35 72.8 M45.65 71.3 L45.55 71.65 Q42.95 73.35 42.05 75.65 L41.9 77.35 Q42.3 76.4 43.2 75.9 L44.55 75.55 Q44.75 75.5 44.85 75.75 L44.6 76.05 43.4 76.4 Q42.3 76.9 42.05 78.6 L41.8 78.8 41.55 78.65 Q41.2 77.25 41.55 75.5 42.55 73 45.3 71.25 L45.65 71.3 M55.45 83.15 Q53.9 82.7 52.25 81.65 L51.95 81.5 Q51.8 81.35 51.95 81.15 52.1 81 52.3 81.15 L52.55 81.3 Q54.1 82.25 55.6 82.65 L55.75 83 55.5 83.15 55.45 83.15 M57 82.3 L56.75 82.55 Q54.9 82.45 53.15 81.45 52.95 81.3 53.05 81.1 53.2 80.9 53.4 81 55.05 81.95 56.8 82.05 L57 82.3 M53.95 94.85 L53.85 95.1 53.9 95.25 53.95 96.75 Q54.4 98.8 55.95 100.15 56.15 100.3 56 100.5 L55.8 100.6 55.65 100.55 Q53.9 99.1 53.45 96.85 L53.4 95.25 Q53.35 95 53.45 94.8 53.75 93.75 54.65 93.1 55.2 92.75 55.85 92.55 58.8 91.7 60.95 94.95 L60.9 95.3 60.55 95.25 Q58.55 92.3 56 93.05 L54.9 93.5 Q54.2 94.05 53.95 94.85 M57.4 98.95 Q57.6 99.1 57.45 99.3 L57.25 99.4 57.1 99.35 55.95 98.35 Q54.1 96.3 55.2 94.65 57.7 92.95 59.75 95 L60.05 95.4 60.25 95.65 60.35 95.85 60.35 96.25 60 96.25 59.85 96 59.65 95.7 59.35 95.35 Q57.65 93.55 55.55 95 54.7 96.25 56.3 98 L57.4 98.95"/>
    <path stroke="none" fill="#66cc33" d="M29.55 2.65 L24.85 3.4 23.35 3.75 22.3 4.1 19.65 5.05 Q9.65 8.75 5.25 18.85 L5.2 18.95 4.55 20.35 4.35 21.05 4.05 21.85 Q3.35 24.05 2.8 26.7 2.4 29 2.5 31.65 2.7 37.35 5.8 41.2 10.1 46.5 19.9 48.3 L22.6 48.75 23.6 48.85 24.6 48.95 25.45 49 26.45 49.1 26.55 49.1 Q29.2 49.6 30.25 51.65 32.05 55.15 28.4 63 L28.3 63.15 28 64.3 27.95 64.45 27.6 65.75 25.7 72.75 25.7 72.85 25.65 73.25 25.25 74.7 25.2 74.85 24.9 76 24.9 76.15 Q22.55 86.15 25.5 94.45 L26.2 96.1 27.15 98.15 27.2 98.25 27.25 98.3 27.7 99.1 Q28.8 100.55 30.2 101.6 L30.5 101.75 30.9 102.05 31.35 102.3 31.8 102.6 34.5 103.7 36.35 104.1 36.85 104.1 37.55 104.2 40.5 104.35 41.6 104.3 42.5 104.25 43.15 104.2 43.75 104.1 44.3 104.05 45.65 103.9 Q47.75 103.5 50.15 102.3 L52.95 100.75 53.65 100.35 55.1 99.35 55.25 99.25 56.4 98.25 59.15 95.35 59.4 94.95 59.7 94.45 60.35 93.3 60.9 91.75 61.3 90.1 61.4 89.05 Q61.5 87 60.65 85.5 60.05 84.55 59.05 83.85 58.3 83.25 57.45 82.95 55.7 82.2 53.4 82.45 L52.45 82.55 52.3 82.6 48.35 83.5 Q45.55 84.4 44.05 83.1 42.3 81.55 43.05 77.45 L43.1 77.05 43.2 76.45 43.35 76 43.35 75.8 43.5 74.75 43.9 72.75 44 72.35 44.15 71.65 44.2 71.25 Q44.3 70.85 44.55 70.6 L44.55 70 Q45.2 67.35 46.2 64.3 L47 61.95 47.8 59.7 50.7 52.2 51.15 51.05 53.2 46.35 53.85 44.95 Q56.4 38.75 57.6 32.95 L57.8 31.8 Q58.3 28.95 58.4 25.85 L58.3 23.95 58.15 22 Q57.3 15.65 53.55 10.75 50.65 7.8 47.4 6.05 L45.45 5.05 Q42 3.5 38.35 2.9 L31.85 2.5 29.55 2.65 M31.8 0 L38.75 0.45 Q42.7 1.1 46.5 2.8 L48.6 3.85 Q52.2 5.8 55.4 9.1 L55.5 9.2 Q59.65 14.6 60.65 21.75 L60.8 23.8 60.8 23.9 60.85 25.7 60.9 25.85 Q60.8 29.15 60.25 32.2 L60.1 33.35 Q58.8 39.5 56.15 45.9 L56.1 46.05 55.5 47.35 53.5 52 53 53.15 50.1 60.6 49.35 62.75 48.55 65.05 46.95 70.6 46.65 71.15 46.7 71.65 46.55 72.25 46.45 72.8 46.35 73.3 45.95 75.2 45.95 75.3 45.85 75.8 45.65 76.5 45.65 76.95 45.6 77.3 45.55 77.9 Q45.05 80.85 45.7 81.2 L47.6 81.15 Q49.8 80.4 51.95 80.1 L52.1 80.1 53.25 80 Q56.1 79.7 58.35 80.6 L60.5 81.8 Q61.9 82.75 62.8 84.25 64 86.45 63.9 89.1 L63.8 90.4 63.75 90.55 63.75 90.7 63.3 92.45 62.65 94.3 61.8 95.85 61.55 96.25 61.25 96.7 61.15 96.85 58.1 100.1 56.75 101.2 56.6 101.35 54.95 102.5 54.8 102.55 54.3 102.85 51.3 104.55 Q48.55 105.9 46.05 106.35 L44.65 106.55 43.95 106.6 43.4 106.65 43.2 106.7 43.1 106.7 42.85 106.75 41.7 106.8 40.65 106.85 40.55 106.85 37.2 106.65 36.65 106.6 36 106.55 33.8 106.1 30.55 104.8 30 104.45 29.55 104.15 29.45 104.1 29.15 103.9 28.7 103.6 Q27 102.3 25.75 100.65 L25.1 99.55 24.9 99.15 23.9 97.1 23.15 95.35 Q19.95 86.3 22.45 75.65 22.55 74.85 22.8 74.05 L23.2 72.6 23.3 72.1 25.2 65.15 25.6 63.65 26.05 62.1 26.25 61.75 Q29.4 54.05 28 52.8 27.85 52.05 26.15 51.55 L25.35 51.5 24.4 51.45 23.3 51.3 22.35 51.2 19.45 50.75 Q8.7 48.8 3.85 42.8 0.2 38.25 0 31.7 -0.1 28.85 0.35 26.25 0.9 23.4 1.7 21.05 L1.95 20.3 2.2 19.55 3 17.8 Q7.8 6.8 18.8 2.7 L21.45 1.75 22.2 1.5 22.3 1.45 22.65 1.35 24.35 0.95 29.25 0.15 31.8 0 M35.25 21.75 Q37 23.2 37.15 25.3 L37.1 26.55 37.1 26.65 36.9 27.25 36.85 27.5 36.75 27.75 Q36.05 29.55 34.15 31 L32.3 32.05 30.65 32.6 30.4 32.65 29.8 32.7 29.35 32.75 29.15 32.75 27.7 32.75 25.35 32.2 Q24.25 31.8 23.2 31 20.8 29.15 20.8 26.5 20.75 26.2 20.85 25.8 21.05 23.65 23.2 21.95 24.65 20.8 26.85 20.35 L28.2 20.2 29.25 20.1 29.7 20.1 Q31.75 20 33.65 20.8 34.35 21.1 34.95 21.55 L35.25 21.75 M32.65 23.1 L29.75 22.6 29.25 22.6 28.6 22.65 27.3 22.85 Q25.7 23.1 24.75 23.9 23.4 24.95 23.35 26.15 L23.3 26.45 23.3 26.5 Q23.25 27.9 24.7 29 25.45 29.6 26.2 29.85 L27.9 30.25 29.05 30.25 29.6 30.2 30.1 30.15 30.2 30.15 31.35 29.75 32.65 29 Q33.9 28 34.4 26.9 L34.55 26.45 34.65 26.2 34.7 25.7 34.65 25.55 Q34.6 24.5 33.65 23.7 L33.4 23.5 32.65 23.1"/>
  </g>
</svg>