<svg width="67.5px" height="72.85px" viewBox="0 0 67.5 72.85" xmlns="http://www.w3.org/2000/svg" xmlns:xlink="http://www.w3.org/1999/xlink">
  <defs/>
  <g>
    <path stroke="none" fill="#000000" d="M17.65 2.9 Q20 3.4 21.8 4.9 23.1 6 24.2 7.7 L24.4 8.05 24.55 8.3 26.3 12.35 26.4 12.55 26.45 12.75 26.8 13.6 27.15 13.75 Q27.4 13.9 28.85 12.95 L29.3 12.65 29.35 12.55 31.95 10.65 Q34.25 9.05 37.05 7.8 L37.75 7.5 38.4 7.25 40.95 6.45 43.95 5.8 49.6 5.65 53.4 6.2 53.5 6.25 53.55 6.25 54 6.35 56.9 7.2 57.55 7.45 57.8 7.55 Q59.7 8.35 61.5 9.75 64.8 12.25 66.4 16.4 L66.45 16.6 66.7 17.35 66.75 17.5 67 18.75 67.2 19.85 67.25 20.05 67.3 20.3 67.45 21.75 67.5 25.6 Q67.3 27.8 66.7 29.65 L66.7 29.75 66.55 30.1 Q65.65 32.6 64.15 34.4 63 35.7 61.45 36.8 L61.15 37 58.3 38.35 53.05 39.55 49.25 39.7 45.9 39.3 44.05 38.95 43.7 38.9 39.8 38.35 39 38.6 Q36.7 39.35 35.4 41.15 34.3 42.7 34 45.2 33.75 46.65 33.8 48.35 L33.9 49.2 33.9 49.3 34.65 52.1 34.85 53.05 Q35.55 56.2 35.65 58.75 L35.4 63.05 34.6 65.75 33.7 67.45 Q31.3 71.4 26 72.5 L23.2 72.85 20.55 72.45 Q18.3 71.85 16.4 70.3 L15.85 69.8 Q14.1 68.2 12.5 65.5 11.3 63.5 10.55 61.45 L10.2 60.6 Q8.65 56.45 7.45 50.9 L6.65 47.05 Q5.65 42.05 5.1 38.1 L4.55 34.35 4.5 33.7 4.1 29.7 3.9 25.6 4.05 20 Q4.25 17.75 4.6 15.8 L4.65 15.5 4.75 14.95 Q5.75 10.5 7.65 7.7 L7.85 7.45 Q9.25 5.2 11.45 4 14 2.55 17.4 2.85 L17.65 2.9"/>
    <path stroke="none" fill="#ff6699" d="M19.25 5.6 L19.65 6.2 17.15 6.2 17.1 3.05 Q18.3 4.05 19.25 5.6"/>
    <path stroke="none" fill="#ff6699" d="M17.4 14.2 L17.35 10.3 21.4 10.3 Q21.65 11.2 22.05 11.7 L22.05 12.85 Q22.05 14.2 20.75 14.2 L17.4 14.2"/>
    <path stroke="none" fill="#ff6699" d="M17.25 24.5 Q17.25 23.25 16.35 22.45 15.55 21.65 14.45 21.65 13.25 21.6 12.3 22.45 11.5 23.25 11.55 24.5 11.5 25.65 12.3 26.4 13.25 27.3 14.45 27.3 15.6 27.3 16.35 26.4 17.25 25.6 17.25 24.5 M14.5 17.6 Q17.15 17.6 19.1 19.6 21.05 21.65 21.05 24.4 21.05 27.2 19.1 29.2 17.15 31.25 14.5 31.25 11.75 31.25 9.8 29.2 L8.8 27.9 Q7.85 26.35 7.85 24.4 7.85 22.4 8.8 20.85 L9.8 19.6 Q11.75 17.6 14.5 17.6"/>
    <path stroke="none" fill="#ffffff" d="M14.45 27.3 Q13.25 27.35 12.35 26.4 11.55 25.65 11.55 24.5 11.55 23.3 12.35 22.45 13.25 21.65 14.45 21.65 15.6 21.65 16.4 22.45 17.3 23.3 17.3 24.5 17.3 25.65 16.4 26.4 15.6 27.35 14.45 27.3"/>
    <path stroke="none" fill="#ff6699" d="M25.5 17.7 L29.35 17.7 29.5 23.05 24.15 23.05 24.15 19.05 Q24.15 17.7 25.5 17.7"/>
    <path stroke="none" fill="#ff6699" d="M33.2 23.05 L33.3 27.2 29.55 27.15 29.5 23.05 33.2 23.05"/>
    <path stroke="none" fill="#ff6699" d="M24.15 27.15 L29.6 27.15 29.7 31.05 25.5 31.05 Q24.15 31.05 24.15 29.7 L24.15 27.15"/>
    <path stroke="none" fill="#ff6699" d="M33.35 31.05 L33.3 27.2 38 27.2 38 29.7 Q38 31.05 36.6 31.05 L33.35 31.05"/>
    <path stroke="none" fill="#ff6699" d="M36.6 17.7 Q38 17.7 38 19.05 L38 23.05 33.2 23.05 33 17.7 36.6 17.7"/>
    <path stroke="none" fill="#ff6699" d="M8.25 34.25 Q8.5 33.75 9.35 33.75 L13.2 33.75 13.3 39.1 7.95 39.1 7.95 35.15 Q7.95 34.5 8.25 34.25"/>
    <path stroke="none" fill="#ff6699" d="M7.95 45.8 L7.95 43.2 13.45 43.2 13.5 47.2 9.35 47.2 Q7.95 47.15 7.95 45.8"/>
    <path stroke="none" fill="#ff6699" d="M21.7 34.25 L21.85 35.15 21.85 39.1 17.05 39.1 16.85 33.75 20.55 33.75 Q21.35 33.75 21.7 34.25"/>
    <path stroke="none" fill="#ff6699" d="M13.35 39.1 L17.05 39.1 17.2 43.25 13.45 43.2 13.35 39.1"/>
    <path stroke="none" fill="#ff6699" d="M17.25 47.15 L17.2 43.25 21.85 43.25 21.85 45.8 Q21.85 47.15 20.5 47.15 L17.25 47.15"/>
    <path stroke="none" fill="#ff6699" d="M50.1 24.45 Q50.1 23.2 49.2 22.4 48.4 21.55 47.2 21.55 46.05 21.55 45.15 22.4 44.35 23.2 44.4 24.45 44.35 25.6 45.15 26.35 46.05 27.25 47.2 27.25 48.4 27.25 49.2 26.35 50.1 25.55 50.1 24.45 M42.25 19.9 L42.55 19.5 Q44.55 17.55 47.3 17.55 50.05 17.55 51.95 19.5 53.9 21.55 53.9 24.3 53.9 27.15 51.95 29.15 50.05 31.1 47.3 31.15 44.55 31.15 42.55 29.15 L42.25 28.8 Q40.7 26.85 40.7 24.3 40.7 21.85 42.25 19.9"/>
    <path stroke="none" fill="#ffffff" d="M49.2 22.4 Q50.1 23.25 50.1 24.45 50.1 25.6 49.2 26.4 48.35 27.3 47.2 27.3 46 27.3 45.15 26.4 44.35 25.6 44.35 24.45 44.35 23.25 45.15 22.4 46 21.55 47.2 21.55 48.35 21.55 49.2 22.4"/>
    <path stroke="none" fill="#ff6699" d="M17.15 6.2 L17.35 10.3 13.6 10.25 13.55 6.2 17.15 6.2"/>
    <path stroke="none" fill="#ff6699" d="M13.6 10.25 L13.65 14.25 9.5 14.25 Q8.15 14.2 8.15 12.85 L8.15 10.25 13.6 10.25"/>
    <path stroke="none" fill="#ff6699" d="M35 5.6 L37.35 4.9 Q37.8 6.1 37.85 7.5 37.8 10.3 35.9 12.25 34 14.25 31.25 14.25 28.55 14.25 26.55 12.25 L26.25 11.9 25.7 11.2 Q25.95 11 26.25 10.75 27.45 9.75 28.7 8.95 L29.2 9.55 Q30 10.45 31.2 10.45 32.35 10.45 33.2 9.55 34 8.75 34.05 7.55 34.05 6.8 33.65 6.15 L35 5.6"/>
    <path stroke="none" fill="#ffffff" d="M33.7 6.15 Q34.05 6.8 34.05 7.55 34.05 8.7 33.2 9.55 32.4 10.45 31.2 10.45 30.05 10.45 29.25 9.55 L28.75 8.9 Q31.2 7.2 33.7 6.15"/>
    <path stroke="none" fill="#ff6699" d="M8.15 2.25 Q10.4 1 13.4 1.3 L13.5 6.2 8.15 6.2 8.15 2.25"/>
    <path stroke="none" fill="#ff6699" d="M1.95 13.25 L2.05 12.4 Q3.05 8.2 4.8 5.6 L4.85 5.6 5.1 7.55 Q5.1 10.35 3.1 12.25 L1.95 13.25"/>
    <path stroke="none" fill="#ff6699" d="M3.75 17.3 Q5.1 17.3 5.1 18.7 L5.1 22.75 1.25 22.75 Q1.2 19.85 1.4 17.3 L3.75 17.3"/>
    <path stroke="none" fill="#ff6699" d="M5.05 29.4 Q5.1 30.75 3.75 30.75 L1.8 30.75 1.45 26.85 5.05 26.85 5.05 29.4"/>
    <path stroke="none" fill="#ff6699" d="M4.95 40.45 Q4.95 42.45 3.95 43.95 3 39.25 2.4 35.1 L2.95 35.65 Q4.95 37.7 4.95 40.45"/>
    <path stroke="none" fill="#ff6699" d="M26.1 35.95 L26.4 35.55 Q27.35 34.7 28.35 34.2 29.7 33.55 31.15 33.55 32.65 33.55 33.95 34.2 L34.7 34.65 Q32 35.55 30.45 37.65 29.65 37.8 29 38.45 28.2 39.35 28.15 40.5 28.2 41.45 28.85 42.25 28.55 43.8 28.65 45.6 L28.75 46.75 Q27.5 46.3 26.4 45.2 L26.1 44.85 Q24.55 42.9 24.55 40.45 24.55 37.85 26.1 35.95"/>
    <path stroke="none" fill="#ffffff" d="M28.2 40.5 Q28.2 39.3 29.05 38.45 29.7 37.8 30.5 37.65 29.25 39.45 28.85 42.25 28.2 41.45 28.2 40.5"/>
    <path stroke="none" fill="#ff6699" d="M49.2 4.65 L49.8 4.75 52.65 5.6 53.4 5.9 49.25 5.9 49.2 4.65"/>
    <path stroke="none" fill="#ff6699" d="M40.2 5.9 L40.2 4.3 45.55 4.1 45.55 5.9 40.2 5.9"/>
    <path stroke="none" fill="#ff6699" d="M45.6 10 L45.55 5.9 49.25 5.9 49.35 10 45.6 10"/>
    <path stroke="none" fill="#ff6699" d="M40.2 12.55 L40.2 10 45.65 10 45.7 13.9 41.6 13.9 Q40.2 13.9 40.2 12.55"/>
    <path stroke="none" fill="#ff6699" d="M58.8 12.35 Q56.95 10.55 56.85 7.95 59.85 10.25 61.3 14.05 59.95 13.5 58.8 12.35"/>
    <path stroke="none" fill="#ff6699" d="M49.35 10 L54.05 10 54.05 12.55 Q54.05 13.9 52.75 13.9 L49.4 13.9 49.35 10"/>
    <path stroke="none" fill="#ff6699" d="M56.2 18.8 Q56.2 17.4 57.55 17.4 L61.45 17.4 61.55 22.75 56.2 22.75 56.2 18.8"/>
    <path stroke="none" fill="#ff6699" d="M48.9 33.5 L52.6 33.5 Q53.6 33.5 53.9 34.2 L53.95 34.4 Q51.55 35.25 49 35.55 L48.9 33.5"/>
    <path stroke="none" fill="#ff6699" d="M57.55 30.85 Q56.2 30.85 56.2 29.5 L56.2 26.85 61.5 26.85 Q60.7 29.1 59.3 30.85 L57.55 30.85"/>
    <path stroke="none" fill="#ff6699" d="M45.3 33.5 L45.35 35.65 42.15 35.3 40 34.9 40 34.85 40.25 34.2 Q40.35 33.5 41.4 33.5 L45.3 33.5"/>
    <path stroke="none" fill="#ff6699" d="M61.55 22.75 L62.35 22.75 Q62.15 24.75 61.6 26.5 L61.55 22.75"/>
    <path stroke="none" fill="#ff6699" d="M29.3 50.55 L29.4 56 24.05 56 24.05 51.95 Q24.05 50.55 25.4 50.55 L29.3 50.55"/>
    <path stroke="none" fill="#ff6699" d="M25.4 64.05 Q24.05 64 24.05 62.65 L24.05 60.05 29.5 60.05 29.55 62.5 28.75 64.05 25.4 64.05"/>
    <path stroke="none" fill="#caeeff" d="M13.45 1.3 Q15.45 1.7 17.1 3.05 L17.15 6.2 13.5 6.2 13.4 1.3 13.45 1.3"/>
    <path stroke="none" fill="#caeeff" d="M21.25 10 L21.25 10.3 17.35 10.3 17.15 6.2 19.6 6.2 21.25 10"/>
    <path stroke="none" fill="#caeeff" d="M7.95 35.15 L7.95 39.1 13.3 39.1 13.45 43.2 7.95 43.2 7.95 45.8 8.05 46.5 Q8.35 47.2 9.35 47.2 L13.5 47.2 13.45 43.2 17.2 43.3 17.25 47.2 20.5 47.2 Q21.5 47.2 21.75 46.5 L21.85 45.8 21.85 43.3 17.2 43.3 17 39.1 21.85 39.1 21.85 35.15 21.65 34.25 Q21.35 33.75 20.5 33.75 L16.8 33.75 17 39.1 13.3 39.1 13.2 33.75 9.35 33.75 Q8.5 33.75 8.25 34.25 7.95 34.5 7.95 35.15 M42.55 19.5 L42.25 19.9 Q40.7 21.85 40.65 24.35 L40.65 24.4 Q40.65 26.85 42.25 28.8 L42.55 29.15 Q44.5 31.15 47.25 31.15 50 31.15 51.9 29.15 53.85 27.2 53.9 24.4 L53.9 24.35 Q53.85 21.55 51.9 19.5 50 17.6 47.25 17.55 44.5 17.6 42.55 19.5 M25.45 17.7 Q24.1 17.7 24.1 19 L24.1 23.05 29.5 23.05 29.55 27.15 24.1 27.15 24.1 29.7 Q24.1 31.05 25.45 31.1 L29.65 31.1 29.55 27.15 33.3 27.2 33.35 31.1 36.6 31.1 Q38 31.05 38 29.7 L38 27.2 33.3 27.2 33.15 23.05 38 23.05 38 19 Q38 17.65 36.6 17.7 L33 17.7 33.15 23.05 29.5 23.05 29.3 17.7 25.45 17.7 M19.05 19.6 Q17.15 17.65 14.45 17.65 11.75 17.65 9.75 19.6 L8.8 20.9 Q7.8 22.4 7.85 24.4 L7.85 24.45 Q7.8 26.4 8.8 27.95 L9.75 29.2 Q11.75 31.3 14.45 31.25 17.1 31.3 19.05 29.2 21.05 27.25 21.05 24.45 L21.05 24.4 Q20.95 21.6 19.05 19.6 M1.35 17.35 Q1.55 15.2 1.9 13.3 L3.05 12.25 Q5.05 10.35 5.05 7.55 L4.8 5.6 Q6.2 3.35 8.15 2.3 L8.15 6.2 13.5 6.2 13.55 10.25 8.15 10.25 8.15 12.85 Q8.1 14.25 9.45 14.25 L13.6 14.25 13.55 10.25 17.3 10.35 17.35 14.25 20.7 14.25 Q22.05 14.25 22 12.85 L22 11.7 Q23.2 13 25.7 11.15 L26.25 11.9 26.55 12.25 Q28.55 14.25 31.25 14.25 33.95 14.25 35.9 12.25 37.8 10.3 37.8 7.5 37.8 6.1 37.35 4.9 L40.2 4.3 40.2 5.9 45.55 5.9 45.6 10.05 40.2 10.05 40.2 12.55 Q40.2 13.95 41.55 13.95 L45.65 13.95 45.6 10.05 49.35 10.05 49.4 13.95 52.75 13.95 Q54.05 13.95 54.05 12.55 L54.05 10.05 49.35 10.05 49.25 5.9 53.4 5.9 Q55.3 6.75 56.85 7.95 56.95 10.6 58.75 12.4 59.95 13.55 61.3 14.05 L61.6 15.05 62.1 17.4 62.25 19.15 62.3 22.75 61.55 22.75 61.4 17.4 57.5 17.4 Q56.15 17.4 56.15 18.8 L56.15 22.75 61.55 22.75 61.6 26.5 61.5 26.85 56.15 26.85 56.15 29.5 Q56.15 30.85 57.5 30.85 L59.25 30.85 56.7 33.1 56.65 33.15 53.95 34.4 53.9 34.25 Q53.55 33.5 52.55 33.5 L48.85 33.5 49 35.55 45.35 35.7 45.3 33.5 41.4 33.5 Q40.35 33.5 40.25 34.25 40 34.5 40 34.85 L40 34.9 35.75 34.35 34.7 34.65 33.95 34.25 Q32.65 33.6 31.1 33.55 29.7 33.55 28.35 34.25 27.35 34.7 26.4 35.55 L26.1 36 Q24.55 37.85 24.55 40.45 24.55 42.9 26.1 44.85 L26.4 45.2 28.05 46.5 28.75 46.8 29.75 50.6 Q30.35 53.55 30.45 56 L29.35 56 29.25 50.6 25.35 50.6 Q24 50.6 24 51.95 L24 56 29.35 56 29.45 60.05 24 60.05 24 62.65 Q24 64 25.35 64.05 L28.7 64.05 Q26.6 67.5 21.85 68.5 L21.85 67.6 21.65 66.7 Q21.35 66.25 20.5 66.2 L16.8 66.2 16.95 68.5 Q14.95 67.95 13.2 66.5 L13.2 66.2 12.9 66.2 Q11.15 64.65 9.65 62.1 11.55 64.2 14.3 64.2 17 64.2 18.95 62.1 20.95 60.15 20.9 57.35 20.9 54.55 18.95 52.55 17 50.6 14.3 50.6 11.55 50.6 9.65 52.55 L8.65 53.85 Q7.7 55.4 7.7 57.35 L7.45 57.45 Q5.95 53.4 4.75 47.85 L4.45 46.5 3.95 44 Q4.95 42.5 4.95 40.5 4.95 37.7 2.95 35.7 L2.4 35.15 1.8 30.8 3.7 30.8 Q5.05 30.75 5.05 29.4 L5.05 26.85 1.45 26.85 1.3 24.4 1.25 22.75 5.05 22.75 5.05 18.7 Q5.05 17.35 3.7 17.35 L1.35 17.35"/>
    <path stroke="none" fill="#caeeff" d="M45.55 4.1 L49.15 4.65 49.25 5.9 45.55 5.9 45.55 4.1"/>
    <path stroke="none" fill="#caeeff" d="M29.45 60.05 L30.25 60.1 29.5 62.5 29.45 60.05"/>
    <path stroke="none" fill="#ff6699" d="M30.25 60.1 L29.45 60.05 29.4 56 30.5 56 Q30.55 58.25 30.25 60.1"/>
    <path stroke="none" fill="#ff6699" d="M16.25 55.4 Q15.45 54.55 14.25 54.55 13.1 54.55 12.3 55.4 11.45 56.2 11.45 57.45 11.45 58.6 12.3 59.35 13.1 60.25 14.25 60.25 15.45 60.25 16.25 59.35 17.15 58.55 17.15 57.45 17.15 56.2 16.25 55.4 M14.35 50.55 Q17.05 50.55 19 52.55 20.95 54.5 20.95 57.3 20.95 60.15 19 62.1 17.05 64.15 14.35 64.2 11.6 64.15 9.7 62.1 L7.8 58.15 7.75 57.3 Q7.75 55.4 8.7 53.8 L9.7 52.55 Q11.6 50.55 14.35 50.55"/>
    <path stroke="none" fill="#ffffff" d="M14.25 54.55 Q15.4 54.55 16.25 55.4 17.15 56.25 17.15 57.45 17.15 58.6 16.25 59.4 15.4 60.3 14.25 60.3 13.05 60.3 12.25 59.4 11.4 58.6 11.4 57.45 11.4 56.25 12.25 55.4 13.05 54.55 14.25 54.55"/>
    <path stroke="none" fill="#ff6699" d="M20.55 66.2 Q21.35 66.2 21.7 66.7 L21.85 67.6 21.85 68.5 Q19.25 69.15 16.95 68.5 L16.85 66.2 20.55 66.2"/>
    <path stroke="none" fill="#ff6699" d="M13.2 66.2 L13.2 66.5 12.9 66.2 13.2 66.2"/>
    <path stroke="none" fill="#ff6699" d="M0.85 12.15 Q1.85 7.75 3.75 4.9 L3.95 4.65 Q5.35 2.4 7.55 1.2 10.1 -0.25 13.5 0.05 L13.75 0.1 Q16.1 0.6 17.9 2.1 19.2 3.2 20.3 4.9 L20.5 5.25 20.65 5.5 22.4 9.55 22.5 9.75 22.55 9.95 22.9 10.8 23.25 10.95 Q23.5 11.1 24.95 10.15 L25.35 9.85 25.45 9.75 Q26.6 8.8 28.05 7.85 30.35 6.25 33.15 5 L33.9 4.7 34.5 4.45 37 3.65 Q38.3 3.25 40.05 3 L45.7 2.85 49.5 3.4 49.6 3.45 49.65 3.45 50.1 3.55 53 4.4 53.65 4.65 53.9 4.75 57.6 6.95 Q60.9 9.45 62.5 13.6 L62.55 13.8 62.8 14.55 62.85 14.7 63.1 15.95 63.3 17.05 63.35 17.25 63.55 18.95 63.6 22.8 Q63.4 25 62.8 26.85 L62.8 26.95 62.65 27.3 Q61.75 29.8 60.25 31.6 59.1 32.9 57.55 34 L57.25 34.2 54.4 35.55 49.15 36.75 45.35 36.9 42 36.5 40.15 36.15 39.8 36.1 35.9 35.55 35.1 35.8 Q32.85 36.55 31.5 38.35 30.4 39.9 30.1 42.4 29.85 43.85 29.9 45.55 L30 46.4 30 46.5 30.75 49.4 30.95 50.25 Q31.65 53.4 31.75 55.95 L31.5 60.25 30.7 62.95 29.8 64.65 Q27.4 68.6 22.1 69.7 L19.3 70.05 16.65 69.65 Q14.4 69.05 12.5 67.5 L11.95 67 Q10.2 65.4 8.6 62.7 7.4 60.7 6.65 58.65 L6.3 57.8 Q4.75 53.65 3.55 48.1 L2.75 44.2 Q1.75 39.25 1.2 35.3 L0.65 31.4 0.6 30.9 0.2 26.9 0 22.8 0.15 17.2 Q0.35 14.95 0.7 13 L0.75 12.7 0.85 12.15 M13.3 2.55 Q10.65 2.3 8.75 3.35 7.05 4.35 5.9 6.25 L5.65 6.55 Q4.15 8.95 3.25 12.7 L3.25 12.95 3.15 13.5 2.65 17.4 2.5 22.7 2.7 26.75 3.05 30.6 3.1 31.1 3.65 34.9 5.2 43.7 6 47.55 Q7.15 53 8.65 57 L8.7 57.15 8.9 57.6 8.95 57.7 Q9.65 59.6 10.75 61.45 12.2 63.85 13.75 65.25 L13.95 65.45 14.05 65.5 Q15.5 66.8 17.3 67.25 19.25 67.8 21.55 67.25 25.85 66.35 27.65 63.35 L28.35 62 29 59.8 29.25 56.05 Q29.15 53.7 28.55 50.8 L28.35 50 27.6 47.05 27.55 46.9 27.55 46.75 27.4 45.6 Q27.35 43.7 27.6 42 28 39 29.45 36.9 31.3 34.45 34.3 33.45 34.9 33.2 35.6 33.1 L35.85 33.05 40.25 33.65 40.6 33.7 42.45 34.05 45.45 34.4 48.9 34.3 Q50.95 34.05 53.55 33.2 L55.95 32.05 56.05 32 58.3 30 Q59.55 28.5 60.35 26.4 L60.35 26.35 60.45 26.05 Q60.95 24.45 61.1 22.6 L61.05 19.2 60.85 17.55 60.65 16.4 60.45 15.35 60.1 14.4 Q58.8 10.95 56.1 8.95 54.5 7.7 52.9 7.05 L52.65 6.95 52.35 6.8 Q50.9 6.3 49.5 5.95 L49.4 5.9 49.3 5.9 48.85 5.85 45.5 5.3 40.4 5.5 Q38.8 5.7 37.75 6.05 L37.65 6.1 35.45 6.75 34.85 7 34.2 7.3 Q31.55 8.4 29.45 9.95 28.1 10.8 27.1 11.65 L26.4 12.2 Q23.1 14.5 21.1 12.55 20.45 11.75 20.2 10.8 L20.1 10.5 20.05 10.4 Q19.4 8.3 18.55 6.8 L18.35 6.5 18.2 6.3 16.3 4 Q15 2.95 13.3 2.55"/>
  </g>
</svg>