<svg width="61.65px" height="75.7px" viewBox="0 0 61.65 75.7" xmlns="http://www.w3.org/2000/svg" xmlns:xlink="http://www.w3.org/1999/xlink">
  <defs/>
  <g>
    <path stroke="none" fill="#000000" d="M4.35 18.8 L4.45 18.35 Q5.95 13.1 11.85 9.3 13.8 8 16.35 6.85 L17.4 6.4 18.35 6 18.45 5.95 19 5.8 19.75 5.55 20.4 5.3 Q24.55 4.05 28.45 3.45 L35.9 2.8 36.85 2.8 42.15 3.25 42.85 3.35 48.15 4.55 51.5 5.75 51.65 5.85 53.45 6.95 53.55 7 54 7.35 54.5 7.75 Q57.15 9.75 58.65 12.15 L59.35 13.6 Q61.9 19.5 57.55 23.65 56.1 25.05 54 25.75 51.75 26.45 48.65 26.55 L48.25 26.55 Q37.7 26.85 36.15 30.75 35.8 31.6 35.85 32.6 L35.95 33.15 35.95 33.25 35.95 33.35 Q37 35.55 38.7 37.1 40.95 39.35 44.85 41 L44.95 41.05 Q48.85 43.05 51.8 45.1 55.25 47.45 57.5 49.85 59.25 51.7 60.25 53.45 61.55 55.9 61.65 58.45 L61.65 58.6 Q61 67.75 51.5 72.15 L44.25 74.4 38.9 75.3 32.15 75.7 30.85 75.7 Q25.8 75.4 21.55 74.25 L21.4 74.2 21.05 74.15 15.4 72.6 11.75 70.95 Q9.05 69.35 7.7 67.7 5.8 65.6 5.35 62.65 L5.35 62.45 Q5.7 55.65 12 52.7 14.8 51.35 18.2 50.95 L23.9 50.45 24.05 50.45 Q28.35 49.6 27.85 49.1 28.05 48.5 27.05 47.15 L26.1 46.35 Q24.75 45.25 22.15 43.85 L19.7 42.6 18.85 42.2 17.25 41.4 13.15 38.7 Q11.95 37.9 10.95 36.9 L8.05 33.65 7.95 33.45 7.8 33.25 Q6.1 30.9 5.25 28.35 L5 27.75 4.7 26.7 4.6 26.45 4.3 24.9 Q3.6 21.75 4.3 18.9 L4.35 18.8"/>
    <path stroke="none" fill="#000000" d="M1.55 16.45 Q4.55 16.15 6.75 12.95 8.75 10.1 8.75 8.35 L8.55 7.55 12.9 5.2 14.9 4.35 15.45 4.2 16.9 3.7 17.45 5.95 Q17.4 11.8 11 18.25 7.05 22.15 2.4 24.95 L2.35 24.9 2.3 24.7 1.85 23.3 1.55 21.95 Q0.95 18.95 1.55 16.45"/>
    <path stroke="none" fill="#ffffff" d="M6.8 12.9 Q4.6 16.15 1.6 16.4 L1.7 15.95 Q3.1 11.1 8.6 7.55 L8.8 8.35 Q8.8 10.1 6.8 12.9"/>
    <path stroke="none" fill="#000000" d="M9.95 34.95 L7.85 33.2 5.15 30.1 4.9 29.75 Q7.85 28.8 10.4 26.75 12.8 24.45 13.05 24.45 14.05 24.45 14 26.7 14 28.95 12.1 32.1 L9.95 34.95"/>
    <path stroke="none" fill="#ffffff" d="M24.7 1.9 L21.75 7.5 Q15.8 17.5 15.8 28.3 17.1 24.95 17.9 26.45 18.4 31.05 14.9 36 L13.9 37.5 Q11.75 36.35 10 34.95 L12.1 32.15 Q14 28.95 14.05 26.7 14.05 24.45 13.05 24.45 L10.4 26.75 Q7.9 28.8 4.9 29.8 3.3 27.5 2.45 24.95 7.1 22.15 11 18.25 17.45 11.85 17.5 5.95 L16.95 3.7 Q20.9 2.55 24.7 1.9"/>
    <path stroke="none" fill="#000000" d="M22 21.15 Q21.8 23.25 24.1 21.45 27.25 19.25 32.25 18.45 41.75 16.1 43.1 6.2 L43.15 5.85 43.15 5.8 43.25 5.45 43.85 2.95 47.1 4.1 48.85 5.15 49.8 5.9 48.3 9.35 47.45 13.7 47.35 14.15 Q46.75 18.15 44.3 22.5 32.8 22.8 31.05 27.5 29.5 28.15 26.5 30.6 21.25 32.6 18.8 39.95 L16.3 38.65 13.9 37.45 14.85 35.95 Q18.4 31 17.9 26.4 17.1 24.85 15.75 28.25 15.75 17.45 21.75 7.45 L24.7 1.85 31.95 1.25 Q29.85 7.45 25.75 13.3 22.2 19 22 21.15"/>
    <path stroke="none" fill="#ffffff" d="M24.1 21.5 Q21.8 23.25 21.95 21.2 22.15 19 25.7 13.35 29.85 7.45 31.9 1.25 L38.1 1.7 38.6 1.75 43.8 2.95 43.2 5.5 43.15 5.8 43.15 5.85 43.1 6.2 Q41.75 16.1 32.2 18.45 27.25 19.25 24.1 21.5"/>
    <path stroke="none" fill="#ffffff" d="M44.3 22.5 Q46.7 18.15 47.3 14.15 L47.45 13.7 48.3 9.35 49.8 5.9 Q52.2 7.75 53.65 10 L54.25 11.25 54 11.55 Q51.4 15.5 49.65 21.75 L44.65 22.5 44.3 22.5"/>
    <path stroke="none" fill="#000000" d="M49.7 21.8 Q51.4 15.55 54.05 11.6 L54.3 11.3 Q56.5 16.45 52.8 19.95 51.6 21.15 49.7 21.8"/>
    <path stroke="none" fill="#ffffff" d="M30.8 30.75 L29.8 31.75 Q24.65 36 22.9 42.6 21.35 41.3 18.8 40 21.25 32.65 26.55 30.65 29.5 28.2 31.05 27.55 30.6 28.65 30.7 29.9 L30.8 30.75"/>
    <path stroke="none" fill="#000000" d="M30.8 30.7 L30.8 30.8 Q31.85 33.3 33.95 35.25 28.85 40.55 26.75 47.85 25.2 51.75 22.05 56.15 19.3 61.25 17.4 70.1 14.25 69.45 11.85 68.6 16.1 62.15 16.85 56 17.6 53.05 19.2 50.45 L19.25 50.45 20.2 48.85 Q27.7 48.1 24.05 43.5 L22.9 42.55 Q24.6 35.95 29.75 31.75 L30.8 30.7"/>
    <path stroke="none" fill="#ffffff" d="M20.15 48.9 L19.25 50.45 19.2 50.45 Q17.55 53.1 16.85 56 16.05 62.2 11.85 68.65 L8.4 67.05 Q11.15 62.4 12.3 56.5 L12.3 56.3 Q12.6 52.7 14.45 49.4 L20 48.9 20.15 48.9"/>
    <path stroke="none" fill="#000000" d="M41.05 41.05 Q41.8 41.65 40.35 44.05 36.8 50 35.7 64.3 L35.1 69.45 35.05 69.65 34.85 71.25 26.95 71.6 Q28.2 67.2 30.05 63.65 32.05 59.55 33.05 55.1 34.25 49.5 36.2 45.8 39 40.1 41.05 41.05"/>
    <path stroke="none" fill="#ffffff" d="M40.45 39.35 Q44.25 41.35 47.15 43.35 L44.3 50.1 Q42.4 55.1 41.05 61.3 39.95 66.3 40.05 70.35 L34.85 71.3 35 69.65 35.1 69.45 35.7 64.35 Q36.8 50.05 40.35 44.05 41.8 41.65 41.05 41.05 39 40.15 36.15 45.8 34.25 49.5 33.05 55.1 32 59.6 30 63.65 28.2 67.2 26.95 71.65 22.4 71.4 17.95 70.25 L17.4 70.15 Q19.3 61.25 22.05 56.2 25.2 51.75 26.75 47.85 28.85 40.55 33.95 35.25 36.4 37.65 40.45 39.35"/>
    <path stroke="none" fill="#000000" d="M55.25 51.3 Q56.4 53.55 56.45 55.7 55.95 64.15 47.05 68.2 43.55 69.55 40.05 70.4 40 66.3 41.1 61.35 42.45 55.1 44.35 50.1 L47.2 43.35 Q50.55 45.65 52.65 47.95 51.1 52.2 51.45 55.25 53.2 54.1 55.25 51.3"/>
    <path stroke="none" fill="#ffffff" d="M52.6 47.95 Q54.25 49.65 55.2 51.35 53.15 54.1 51.4 55.25 51.1 52.25 52.6 47.95"/>
    <path stroke="none" fill="#000000" d="M8.6 51.05 Q11.05 49.85 14.45 49.35 12.65 52.7 12.35 56.3 L12.35 56.45 Q11.15 62.4 8.45 67.05 6.15 65.7 4.75 64.1 6.6 60.15 7.6 56 L8.6 51.05"/>
    <path stroke="none" fill="#ffffff" d="M7.55 56 Q6.55 60.15 4.7 64.1 3 62.15 2.65 59.7 2.9 53.7 8.55 51.05 L7.55 56"/>
    <path stroke="none" fill="#000000" d="M2.8 21.65 L3.1 23 3.15 23.25 3.45 24.25 3.6 24.55 Q4.35 26.85 5.9 29 L6 29.2 6.2 29.45 8.7 32.3 10.65 33.9 14.5 36.4 16 37.15 16.85 37.55 19.35 38.85 Q22.2 40.35 23.65 41.6 L24.9 42.6 25 42.75 Q27.05 45.35 26.2 47.3 25.3 49.6 20.3 50.1 L20.15 50.15 20 50.15 14.65 50.6 Q11.55 51 9.1 52.2 4.2 54.4 3.9 59.6 4.25 61.75 5.65 63.25 6.8 64.65 9.05 65.95 L12.25 67.45 17.65 68.9 17.8 68.95 18.3 69.05 Q22.25 70.1 27 70.4 L28.2 70.4 34.7 70.05 39.7 69.15 Q43.05 68.4 46.55 67.05 54.65 63.35 55.2 55.7 55.1 53.75 54.1 51.85 53.3 50.45 51.7 48.75 49.65 46.55 46.45 44.35 43.6 42.45 39.9 40.5 35.55 38.6 33.05 36.15 30.9 34.15 29.65 31.35 L29.55 30.85 Q29.4 30.45 29.4 29.85 29.3 28.4 29.85 27.05 31.8 21.55 44.25 21.25 L44.65 21.25 49.3 20.6 Q50.8 20.1 51.85 19.05 55.05 16.1 53.1 11.8 L52.55 10.65 Q51.35 8.7 49 6.9 L48.6 6.55 48.1 6.2 46.5 5.25 43.5 4.15 Q41.25 3.45 38.4 3 L38.25 2.95 38.1 2.95 37.85 2.9 31.95 2.5 24.9 3.1 17.25 4.9 16.55 5.1 15.9 5.35 15.35 5.5 14.4 5.9 13.45 6.3 Q11.05 7.4 9.25 8.6 4.15 11.85 2.9 16.25 L2.85 16.4 2.75 16.8 Q2.25 18.95 2.8 21.65 M0.35 16.1 L0.4 15.95 0.5 15.55 Q2 10.25 7.9 6.5 9.85 5.2 12.4 4.05 L13.45 3.6 14.4 3.2 14.5 3.15 15.05 2.95 15.8 2.7 16.45 2.5 Q20.6 1.3 24.5 0.65 L31.95 0 32.9 0 38.2 0.45 38.9 0.55 44.2 1.75 47.5 2.95 47.7 3.05 49.5 4.15 49.6 4.2 50.05 4.55 50.55 4.95 Q53.2 6.95 54.7 9.35 L55.4 10.75 Q57.95 16.75 53.6 20.85 52.15 22.25 50.05 22.95 L44.7 23.75 44.3 23.75 Q33.75 24.05 32.2 27.95 31.85 28.8 31.9 29.8 L32 30.35 32 30.45 32 30.55 Q33.05 32.75 34.75 34.3 36.95 36.55 40.9 38.2 L41 38.25 47.85 42.3 Q51.3 44.65 53.55 47.05 55.3 48.9 56.3 50.65 57.6 53.1 57.7 55.65 L57.7 55.8 Q57.05 64.95 47.55 69.35 L40.3 71.6 34.95 72.5 28.2 72.9 26.9 72.9 Q21.85 72.6 17.6 71.45 L17.45 71.4 17.05 71.35 11.45 69.8 Q9.6 69.1 7.8 68.15 5.1 66.55 3.75 64.9 1.85 62.8 1.4 59.85 L1.4 59.65 Q1.75 52.85 8.05 49.9 10.85 48.6 14.25 48.15 L19.95 47.65 20.1 47.65 Q24.4 46.8 23.9 46.3 24.15 45.7 23.1 44.35 L22.15 43.55 18.2 41.05 15.75 39.8 14.9 39.4 13.3 38.55 Q10.95 37.3 9.2 35.9 L7 34.1 4.1 30.85 4 30.65 3.85 30.45 Q2.15 28.1 1.3 25.55 L1.05 24.95 0.75 23.9 0.65 23.65 0.35 22.1 Q-0.35 18.9 0.35 16.1"/>
  </g>
</svg>