<svg width="74.75px" height="73.25px" viewBox="0 0 74.75 73.25" xmlns="http://www.w3.org/2000/svg" xmlns:xlink="http://www.w3.org/1999/xlink">
  <defs/>
  <g>
    <path stroke="none" fill="#000000" d="M14.35 20.35 L15.1 20.15 Q18.5 19.25 22.55 18.8 L23.95 18.65 Q25 18.55 25.95 17.1 26.85 15.65 27.6 13.4 28.2 11.45 29.65 9.35 L30 8.8 30.4 8.3 Q31.55 6.85 33 5.75 35.1 4.3 37.7 3.35 L38.2 3.2 38.65 3.05 39.2 2.95 39.4 2.9 Q42.4 2.35 45.05 3.75 47.75 5.15 49.1 8.65 L49.45 9.5 49.55 9.95 49.65 10.2 50.05 12.15 Q50.55 15.25 50.2 19.2 L50.2 19.3 50.3 19.5 51.15 19.45 51.4 19.4 Q53.9 19.5 56.65 20.65 L56.8 20.7 Q60.8 22.9 61.35 27 L61.35 27.2 61.35 27.4 Q61.75 30.5 60.35 33 58.85 35.55 55.3 37.05 L53.6 37.85 Q50.7 39.05 46.75 39.95 L46.4 39.95 46.3 39.95 46.25 40.15 46.25 40.4 46.2 40.9 46.2 41.05 46.2 42.15 46.2 42.35 46.3 43.05 Q46.55 45.05 48.3 45.25 L50.85 45.1 52.4 44.9 55.15 44.35 59.1 43.85 Q63.1 43.55 66.25 44.65 71.3 46.25 73.65 51.35 L73.7 51.4 73.8 51.6 74.15 52.8 Q75.05 55.8 74.65 58.8 74.2 61.4 72.85 63.8 71.55 65.75 69.45 67.45 L66.7 69.2 66.4 69.35 Q64.6 70.35 62.2 71.15 58.2 72.45 53.1 73.2 L52.85 73.2 52.75 73.2 52.4 73.25 47.85 73.15 41.65 72.55 Q37.95 72 34.55 70.9 L30.15 69 Q27.85 67.8 26.25 66.45 22.55 63.2 21.15 58.4 L21.1 58.25 21.05 58.1 Q20.1 55.5 19.75 53 L19.65 50.8 19.65 48.4 Q19.7 45.25 20.55 41.65 L20.55 41.6 Q14.4 42.05 10.55 40.8 7.95 39.95 6.5 38.45 4.9 36.85 4.2 34.7 L4.15 34.55 Q3.45 31 4.8 28.05 5.45 26.65 6.4 25.45 7.75 23.9 9.65 22.7 11.55 21.45 13.4 20.65 L13.5 20.65 14.35 20.35"/>
    <path stroke="none" fill="#ffe327" d="M41.95 7.85 L44.6 7.85 44.95 9.55 Q45.4 12.45 45.05 16.35 L42.25 16.35 41.45 15.5 41.25 15.25 40.05 13.9 39.45 13.15 41.95 7.85"/>
    <path stroke="none" fill="#ffe327" d="M48.95 33.6 L49.2 33.95 Q46.4 35.15 42.6 35.95 41.2 35.85 41.15 37.35 L41.05 38.15 39.5 36.25 41.75 31.6 41.95 30.95 47.55 30.95 48.95 33.6"/>
    <path stroke="none" fill="#ffe327" d="M61.95 43.05 Q66.45 44.5 68.65 49.1 L68.7 49.2 67.2 51.3 62.65 51.1 59.7 47.45 61.95 43.05"/>
    <path stroke="none" fill="#ffe327" d="M20.45 19 L26.05 19 28.5 23.35 26.5 26.5 25.55 27.5 20.85 27.5 18 24.25 20.45 19"/>
    <path stroke="none" fill="#ffe327" d="M7.55 35.9 L7.1 36.7 7 36.85 Q4.8 36.15 3.45 34.8 2.1 33.45 1.45 31.55 L5.05 31.55 5.15 31.6 7.55 35.9"/>
    <path stroke="none" fill="#ffe327" d="M23.15 50.6 L20.7 50.6 18.1 47.35 20.55 42.1 26.05 42.1 28.55 46.45 25.6 50.95 23.15 50.6"/>
    <path stroke="none" fill="#ffe327" d="M47.2 55.65 L49.65 60 49.65 60.1 48.1 62.45 46.65 64.15 42 64.15 39.15 60.9 41.6 55.65 47.2 55.65"/>
    <path stroke="none" fill="#b601d6" d="M44 6.3 L44.35 7.25 44.55 7.85 41.9 7.85 35.2 1.45 35.7 1.4 Q38.3 0.9 40.55 2.1 42.85 3.25 44 6.3"/>
    <path stroke="none" fill="#ba68fd" d="M41.9 7.85 L40.65 10.5 29.85 4.05 Q31.95 2.6 34.25 1.8 L35.2 1.45 41.9 7.85"/>
    <path stroke="none" fill="#ba68fd" d="M40.05 13.85 L40.65 14.6 27.2 21.05 26.05 19 30.7 13.15 39.45 13.15 40.05 13.85"/>
    <path stroke="none" fill="#b601d6" d="M40.65 10.5 L39.4 13.15 30.65 13.15 26.75 7.3 27.45 6.35 Q28.45 5.05 29.85 4.05 L40.65 10.5"/>
    <path stroke="none" fill="#b601d6" d="M41.45 15.5 L42.25 16.35 35.95 23.35 28.55 23.35 27.2 21.05 40.65 14.6 41.25 15.25 41.45 15.5"/>
    <path stroke="none" fill="#ba68fd" d="M44 16.35 L45.05 16.35 44.95 16.65 44.95 16.85 45.5 17.6 Q45.95 18.2 47.45 17.9 L48 19 51.85 24.2 51.8 24.4 47.4 30.95 44 30.95 44 16.35"/>
    <path stroke="none" fill="#ba68fd" d="M47.45 17.9 Q49.7 18 52.3 19.05 55.8 20.95 56.2 24.4 L51.85 24.2 48 19 47.45 17.9"/>
    <path stroke="none" fill="#b601d6" d="M42.25 16.35 L44.05 16.35 44.05 30.95 42 30.95 41.75 31.6 37.45 25.85 35.95 23.35 42.25 16.35"/>
    <path stroke="none" fill="#b601d6" d="M47.4 30.95 L51.8 24.35 56.2 24.4 56.2 24.7 Q56.55 27.5 55.35 29.6 L48.95 33.6 47.5 30.95 47.4 30.95"/>
    <path stroke="none" fill="#ba68fd" d="M50.8 33.15 L49.2 33.95 48.95 33.6 55.35 29.6 Q54 31.85 50.8 33.15"/>
    <path stroke="none" fill="#ba68fd" d="M37.4 25.85 L41.7 31.6 40.7 33.6 26.5 26.5 28.5 23.35 35.9 23.35 37.4 25.85"/>
    <path stroke="none" fill="#b601d6" d="M40.7 33.6 L39.5 36.3 30.3 36.3 25.65 27.75 25.55 27.5 26.5 26.5 40.7 33.6"/>
    <path stroke="none" fill="#ba68fd" d="M39.45 38.55 L40.75 37.75 41.05 38.1 41.05 39.55 41.2 40.55 37.3 47.1 36.8 47.1 28.55 46.45 27.3 44.15 39.45 38.55"/>
    <path stroke="none" fill="#b601d6" d="M40.75 37.75 L39.45 38.55 27.3 44.15 26.1 42.1 30.3 36.25 39.5 36.25 40.75 37.75"/>
    <path stroke="none" fill="#ba68fd" d="M37.3 47.15 L41.15 40.55 Q41.6 43.3 44.15 43.75 L44.35 55.65 41.6 55.65 36.75 47.15 37.3 47.15"/>
    <path stroke="none" fill="#b601d6" d="M44.2 43.75 L47.2 43.6 48.75 43.4 50.8 47.5 47.15 55.65 44.4 55.65 44.2 43.75"/>
    <path stroke="none" fill="#ba68fd" d="M60.6 45.9 L59.7 47.5 50.75 47.5 48.7 43.4 51.4 42.85 55.2 42.35 60.6 45.9"/>
    <path stroke="none" fill="#b601d6" d="M59.7 47.5 L61.75 50.1 48.3 57.7 47.15 55.65 50.75 47.5 59.7 47.5"/>
    <path stroke="none" fill="#b601d6" d="M61.95 43.1 L60.6 45.9 55.25 42.35 Q59.05 42.1 61.95 43.1"/>
    <path stroke="none" fill="#b601d6" d="M62.65 51.1 L64.75 51.35 64.75 63.7 62.1 65.4 57.45 60.1 62.65 51.1"/>
    <path stroke="none" fill="#ba68fd" d="M61.75 50.05 L62.65 51.1 57.45 60.05 49.65 60.05 49.65 59.95 48.3 57.65 61.75 50.05"/>
    <path stroke="none" fill="#b601d6" d="M68.25 49.95 L69.05 50.35 Q69.85 53.2 69.5 55.85 L67.2 51.35 68.25 49.95"/>
    <path stroke="none" fill="#ba68fd" d="M69.05 50.4 L68.2 50 68.7 49.25 69.05 50.4"/>
    <path stroke="none" fill="#ba68fd" d="M64.8 51.35 L67.2 51.35 69.5 55.9 Q69.15 58.25 67.9 60.4 66.7 62.2 64.8 63.7 L64.8 51.35"/>
    <path stroke="none" fill="#ba68fd" d="M20.5 19 L18.8 17.3 20.2 17.1 Q21.7 17.05 23.1 15 L23.25 19 20.5 19"/>
    <path stroke="none" fill="#b601d6" d="M18.8 17.3 L20.45 19 18.65 22.85 11.6 18.55 18.8 17.3"/>
    <path stroke="none" fill="#b601d6" d="M23.25 19 L23.05 15 Q24.05 13.5 24.85 11.05 25.5 9 26.75 7.3 L30.65 13.15 26 19 23.25 19"/>
    <path stroke="none" fill="#ba68fd" d="M9.95 19.05 L11.6 18.55 18.65 22.85 18 24.2 18.6 24.9 9.3 24.9 6.4 20.95 Q7.9 19.95 9.95 19.05"/>
    <path stroke="none" fill="#b601d6" d="M2 25.85 Q2.55 24.65 3.45 23.55 4.6 22.2 6.4 21 L9.3 24.9 5.1 31.55 2.25 31.55 2 25.85"/>
    <path stroke="none" fill="#b601d6" d="M18.6 24.9 L19.3 25.75 6.45 33.9 5.15 31.6 5.1 31.55 9.35 24.9 18.6 24.9"/>
    <path stroke="none" fill="#ba68fd" d="M1.45 31.55 Q0.85 28.4 2 25.8 L2.25 31.55 1.45 31.55"/>
    <path stroke="none" fill="#ba68fd" d="M19.25 25.75 L20.8 27.5 15.95 36.5 7.1 36.65 7.55 35.9 6.4 33.9 19.25 25.75"/>
    <path stroke="none" fill="#ba68fd" d="M7 36.85 L7.1 36.7 15.95 36.5 16.85 37.6 Q10.75 38.05 7 36.85"/>
    <path stroke="none" fill="#ba68fd" d="M25.65 27.75 L30.3 36.25 26.1 42.1 23.3 42.1 23.3 27.5 25.55 27.5 25.65 27.75"/>
    <path stroke="none" fill="#b601d6" d="M23.3 42.1 L20.6 42.1 17.9 38.85 Q17.95 37.4 16.85 37.6 L15.95 36.5 20.85 27.5 23.3 27.5 23.3 42.1"/>
    <path stroke="none" fill="#ba68fd" d="M20.6 42.1 L18.45 46.7 17 45.75 Q17.1 42.55 17.9 39.05 L17.9 38.85 20.6 42.1"/>
    <path stroke="none" fill="#ba68fd" d="M18.7 48 L19.35 48.85 17.1 50.05 17 48 18.7 48"/>
    <path stroke="none" fill="#b601d6" d="M17 48.05 L17 45.75 18.45 46.7 18.15 47.4 18.7 48.05 17 48.05"/>
    <path stroke="none" fill="#ba68fd" d="M20.75 50.6 L23.2 50.6 23.2 62.75 Q19.7 59.65 18.45 55.2 L20.75 50.6"/>
    <path stroke="none" fill="#b601d6" d="M19.35 48.85 L20.7 50.6 18.45 55.2 18.3 54.9 Q17.5 52.65 17.1 50.05 L19.35 48.85"/>
    <path stroke="none" fill="#b601d6" d="M27.2 48.7 L28.6 46.45 36.8 47.1 41.6 55.6 40.5 58.15 27.2 48.7"/>
    <path stroke="none" fill="#ba68fd" d="M25.6 51 L27.15 48.7 40.45 58.15 39.1 60.9 29.75 60.4 25.6 51"/>
    <path stroke="none" fill="#b601d6" d="M23.2 50.6 L25.6 50.95 29.8 60.4 26.8 65.15 23.2 62.75 23.2 50.6"/>
    <path stroke="none" fill="#ba68fd" d="M26.8 65.15 L29.75 60.4 39.1 60.9 40.5 62.5 31 67 Q28.75 66.15 26.8 65.15"/>
    <path stroke="none" fill="#b601d6" d="M62.1 65.4 L61.85 65.55 57.9 67.2 48.05 62.45 49.6 60.1 57.45 60.1 62.1 65.4"/>
    <path stroke="none" fill="#b601d6" d="M40.55 62.5 L41.95 64.15 37.95 68.55 Q34.15 68 31.05 66.95 L40.55 62.5"/>
    <path stroke="none" fill="#ba68fd" d="M46.6 64.15 L48.05 62.45 57.9 67.2 Q54 68.5 49 69.2 L46.6 64.15"/>
    <path stroke="none" fill="#b601d6" d="M43.75 64.15 L46.6 64.15 49 69.2 48.45 69.3 44 69.15 43.75 64.15"/>
    <path stroke="none" fill="#ba68fd" d="M41.95 64.15 L43.75 64.15 44 69.15 37.9 68.55 41.95 64.15"/>
    <path stroke="none" fill="#3f0172" d="M6.85 20.65 L9.6 24.4 18.6 24.4 Q19.1 24.45 19.1 24.9 19.1 25.35 18.6 25.4 L9.6 25.4 5.5 31.8 5.1 32.05 4.85 31.95 Q4.45 31.65 4.7 31.25 L8.7 24.9 6.05 21.25 Q5.8 20.85 6.15 20.55 L6.85 20.65 M35.2 0.9 L35.6 0.85 Q36.05 0.8 36.2 1.25 L36.15 1.6 42.25 7.45 Q42.55 7.8 42.3 8.15 L41.9 8.3 41.55 8.15 34.85 1.75 Q34.65 1.55 34.75 1.2 34.9 0.95 35.2 0.9 M26.5 6.85 Q26.9 6.65 27.2 7 L30.95 12.6 39.45 12.6 Q39.9 12.65 39.95 13.1 39.9 13.6 39.45 13.6 L30.95 13.6 26.45 19.3 26.05 19.45 Q25.85 19.5 25.75 19.35 25.4 19.05 25.65 18.65 L30.05 13.1 26.35 7.55 Q26.15 7.15 26.5 6.85 M20.85 18.6 Q21.15 19 20.85 19.3 L20.5 19.45 20.15 19.3 18.45 17.65 Q18.15 17.3 18.45 16.95 18.8 16.65 19.15 16.95 L20.85 18.6 M47.25 17.45 Q47.65 17.25 47.9 17.65 L48.45 18.75 52.15 23.7 56.25 23.9 Q56.7 23.95 56.7 24.45 L56.2 24.9 52.1 24.85 47.8 31.2 47.4 31.4 47.15 31.35 Q46.75 31.05 47 30.65 L51.3 24.2 47.6 19.25 47 18.1 Q46.85 17.7 47.25 17.45 M42.55 15.95 Q42.85 16.3 42.6 16.65 L36.55 23.35 37.9 25.55 42.15 31.3 Q42.35 31.7 42.05 32 L41.75 32.1 Q41.5 32.1 41.35 31.9 L37.05 26.1 35.65 23.8 28.5 23.8 Q28.05 23.8 28 23.3 28.05 22.85 28.5 22.8 L35.7 22.8 41.85 16 42.55 15.95 M69.7 56.3 L69.5 56.35 69.05 56.05 66.75 51.55 Q66.6 51.1 67 50.85 67.4 50.7 67.65 51.1 L69.95 55.6 Q70.1 56.05 69.7 56.3 M62.95 50.65 Q63.3 50.9 63.1 51.35 L58.1 60 62.5 65.05 Q62.8 65.45 62.45 65.75 L62.15 65.9 Q61.9 65.9 61.75 65.7 L57.25 60.55 49.65 60.55 Q49.2 60.55 49.15 60.05 49.2 59.6 49.65 59.55 L57.2 59.55 62.25 50.85 Q62.5 50.45 62.95 50.65 M59.7 47.95 L51.1 47.95 47.6 55.8 47.15 56.1 46.95 56.05 Q46.55 55.85 46.7 55.4 L50.25 47.45 48.3 43.6 Q48.1 43.15 48.5 42.9 48.95 42.75 49.2 43.15 L51.1 46.95 59.7 46.95 Q60.2 47 60.2 47.45 60.2 47.9 59.7 47.95 M39.5 36.75 L30.6 36.75 26.5 42.4 26.1 42.6 25.8 42.5 Q25.45 42.2 25.7 41.8 L29.75 36.2 25.25 27.95 Q25.05 27.55 25.45 27.3 25.85 27.1 26.1 27.5 L30.6 35.75 39.5 35.75 Q39.95 35.75 40 36.25 39.95 36.7 39.5 36.75 M41.6 40.75 L37.75 47.35 37.6 47.5 42.05 55.35 Q42.25 55.8 41.85 56.05 L41.6 56.1 41.2 55.85 36.5 47.55 28.55 46.95 Q28.1 46.85 28.1 46.4 28.15 45.95 28.6 45.95 L37.05 46.6 40.75 40.25 Q41.05 39.9 41.45 40.1 41.8 40.35 41.6 40.75 M21.3 27.7 L16.55 36.4 17.25 37.25 Q17.5 37.6 17.2 37.95 L16.85 38.05 16.5 37.9 15.75 37 7.15 37.15 Q6.7 37.15 6.65 36.65 6.7 36.2 7.15 36.15 L15.65 36 20.4 27.25 Q20.7 26.85 21.1 27.05 21.45 27.3 21.3 27.7 M21 41.75 Q21.25 42.15 20.95 42.45 L20.6 42.6 20.25 42.4 17.5 39.15 Q17.25 38.75 17.55 38.45 L18.3 38.5 21 41.75 M18.7 48.5 L17 48.5 Q16.55 48.45 16.5 48 16.55 47.55 17 47.5 L18.7 47.5 Q19.15 47.55 19.2 48 19.15 48.45 18.7 48.5 M26.1 50.75 L30.1 59.9 39.15 60.35 Q39.6 60.4 39.65 60.9 L39.1 61.35 30.05 60.9 27.25 65.4 26.85 65.65 26.55 65.55 Q26.2 65.3 26.4 64.9 L29.2 60.35 25.15 51.15 Q25 50.75 25.4 50.5 25.85 50.35 26.1 50.75 M21.2 50.8 L18.9 55.4 18.45 55.7 18.2 55.65 Q17.85 55.4 18 54.95 L20.3 50.35 Q20.5 50 20.95 50.15 21.35 50.4 21.2 50.8 M37.95 69 L37.6 68.9 Q37.3 68.55 37.55 68.2 L41.6 63.8 42.3 63.75 Q42.6 64.1 42.35 64.45 L38.3 68.85 37.95 69 M47.05 63.9 L49.5 68.95 Q49.65 69.4 49.25 69.65 L49.05 69.7 48.6 69.4 46.15 64.35 Q46 63.9 46.4 63.65 46.85 63.5 47.05 63.9"/>
    <path stroke="none" fill="#b77c02" d="M26 18.5 Q26.3 18.55 26.45 18.75 L28.9 23.1 28.9 23.65 26.9 26.75 25.9 27.85 25.55 28 20.8 28 20.45 27.85 17.6 24.6 Q17.4 24.35 17.55 24.05 L20 18.8 Q20.15 18.55 20.45 18.5 L26 18.5 M20.8 19.5 L18.6 24.2 21.05 27 25.3 27 26.15 26.15 27.9 23.35 25.7 19.5 20.8 19.5 M42.2 8.35 L40 13.1 40.1 13.2 40.4 13.6 41.6 14.95 41.75 15.1 42.4 15.85 45 15.85 Q45.5 15.9 45.5 16.35 45.5 16.8 45 16.85 L42.2 16.85 Q41.95 16.85 41.8 16.65 L41.05 15.85 40.9 15.65 39.65 14.2 39.35 13.85 39 13.45 Q38.85 13.25 38.95 12.95 L41.45 7.65 Q41.55 7.35 41.9 7.35 L44.55 7.35 Q45 7.4 45.05 7.85 45 8.3 44.55 8.35 L42.2 8.35 M62.35 43.3 L61.05 46.15 60.3 47.45 62.9 50.65 66.9 50.85 68.25 48.95 68.95 48.85 Q69.3 49.1 69.1 49.55 L67.6 51.65 67.15 51.85 62.6 51.6 62.25 51.45 59.3 47.8 Q59.1 47.55 59.25 47.25 L61.45 42.9 Q61.7 42.5 62.15 42.65 62.5 42.85 62.35 43.3 M49.45 34.4 Q49.05 34.6 48.75 34.25 L47.2 31.45 42.3 31.45 40.05 36.2 41.4 37.85 Q41.7 38.2 41.35 38.55 L41.05 38.65 Q40.8 38.65 40.65 38.45 L39.1 36.6 Q38.9 36.35 39 36.05 L41.5 30.8 Q41.6 30.5 41.95 30.45 L47.5 30.45 Q47.8 30.5 47.95 30.75 L49.6 33.7 Q49.8 34.1 49.45 34.4 M20.6 41.65 L26.05 41.65 Q26.35 41.65 26.5 41.9 L29 46.25 28.95 46.75 26 51.3 25.6 51.5 25.5 51.5 23.1 51.15 20.7 51.15 Q20.45 51.15 20.3 50.95 L17.7 47.7 17.65 47.15 20.15 41.9 Q20.25 41.65 20.6 41.65 M25.8 42.65 L20.9 42.65 18.7 47.3 20.95 50.15 23.2 50.15 25.35 50.45 27.95 46.45 25.8 42.65 M47.55 55.4 L50.05 59.75 50.1 60 50.1 60.1 50.05 60.4 46.95 64.5 46.6 64.65 41.95 64.65 41.55 64.5 38.75 61.2 Q38.55 61 38.65 60.7 L41.15 55.45 Q41.25 55.15 41.6 55.15 L47.15 55.15 47.55 55.4 M41.9 56.15 L39.7 60.8 42.15 63.65 46.35 63.65 47.65 62.15 49.05 60.05 46.85 56.15 41.9 56.15 M1.45 31.05 L5.05 31.05 5.4 31.2 5.55 31.4 8 35.65 8 36.15 7.4 37.15 7 37.4 6.7 37.3 Q6.35 37 6.6 36.6 L6.95 35.9 4.8 32.05 1.45 32.05 Q1 32.05 0.95 31.55 1 31.1 1.45 31.05"/>
    <path stroke="none" fill="#b601d6" d="M10.45 17.6 L11.2 17.4 Q14.6 16.5 18.65 16.05 L19.85 15.9 20.05 15.9 Q21.05 15.8 22.05 14.35 22.95 12.9 23.7 10.65 24.3 8.65 25.75 6.6 L26.1 6.1 26.5 5.55 Q27.65 4.1 29.1 3 31.2 1.55 33.8 0.6 L34.3 0.45 34.75 0.25 35.3 0.2 35.5 0.15 Q38.5 -0.4 41.15 1 43.85 2.4 45.2 5.9 L45.55 6.75 45.65 7.2 45.75 7.45 46.15 9.4 Q46.65 12.5 46.3 16.45 L46.3 16.55 46.4 16.75 47.25 16.7 47.5 16.65 Q50 16.75 52.75 17.9 L52.9 17.95 Q56.9 20.15 57.45 24.25 L57.45 24.45 57.45 24.65 Q57.85 27.8 56.45 30.25 54.95 32.75 51.4 34.3 L49.75 35.1 Q46.8 36.35 42.85 37.2 L42.5 37.2 42.4 37.2 42.35 37.4 42.35 37.65 42.3 38.15 42.3 38.3 42.3 39.4 42.3 39.6 42.4 40.3 Q42.65 42.3 44.4 42.5 L46.95 42.35 48.5 42.15 51.2 41.6 55.2 41.1 Q59.2 40.8 62.35 41.9 67.4 43.5 69.75 48.6 L69.8 48.6 69.9 48.85 70.25 50.05 Q71.15 53.05 70.75 56.05 70.3 58.65 68.95 61.05 67.65 63 65.55 64.7 L62.8 66.45 62.5 66.6 Q60.7 67.6 58.3 68.4 54.3 69.7 49.2 70.45 L48.95 70.45 48.85 70.45 48.5 70.5 43.95 70.4 37.75 69.8 Q34 69.25 30.65 68.15 28.1 67.25 26.25 66.25 23.95 65.1 22.35 63.7 18.65 60.45 17.25 55.65 L17.2 55.5 17.15 55.35 Q16.2 52.75 15.85 50.25 L15.75 48.05 15.75 45.65 Q15.8 42.5 16.65 38.9 L16.65 38.85 Q10.5 39.25 6.65 38.05 4.1 37.2 2.6 35.7 1 34.1 0.3 31.95 L0.25 31.8 Q-0.45 28.25 0.9 25.3 1.5 23.9 2.5 22.7 3.85 21.15 5.75 19.95 7.65 18.7 9.5 17.9 L9.6 17.85 10.45 17.6 M7.1 22.05 Q5.5 23.05 4.4 24.35 3.65 25.25 3.15 26.35 2.15 28.55 2.7 31.25 3.2 32.8 4.35 33.9 5.45 35 7.4 35.65 10.9 36.75 16.7 36.35 18.05 36.3 18.45 36.8 19.2 37.5 19.15 38.95 L19.15 39.05 19.1 39.3 Q18.3 42.75 18.25 45.75 L18.25 47.95 18.35 49.95 Q18.65 52.1 19.45 54.35 L19.6 54.7 19.65 54.85 Q20.8 59 24 61.8 25.35 63 27.4 64.05 L31.45 65.8 Q34.55 66.8 38.1 67.3 L44.1 67.9 48.35 68 48.95 67.95 Q53.75 67.25 57.5 66.05 59.65 65.3 61.2 64.45 L61.5 64.3 64 62.75 Q65.8 61.3 66.8 59.7 67.9 57.8 68.25 55.7 68.6 53.25 67.85 50.75 L67.6 49.8 67.45 49.5 Q65.55 45.5 61.55 44.25 58.9 43.35 55.35 43.6 L51.65 44.05 49 44.6 48.85 44.6 47.4 44.8 44 45 Q40.55 44.35 39.95 40.75 L39.8 39.65 39.8 38.05 39.9 37.15 Q40 35.95 40.75 35.3 41.4 34.7 42.45 34.7 46.1 33.9 48.75 32.8 L50.25 32.1 50.35 32.05 Q53.2 30.8 54.3 28.95 55.25 27.25 54.95 24.9 L54.95 24.75 54.95 24.5 Q54.55 21.7 51.75 20.2 49.5 19.25 47.55 19.15 45.1 19.4 44.55 18.4 43.8 17.6 43.75 16.8 L43.75 16.65 43.75 16.4 43.8 16.15 Q44.15 12.55 43.7 9.7 L43.4 8.2 43.25 7.85 43.2 7.65 42.85 6.8 Q41.85 4.15 40 3.2 38.1 2.2 35.9 2.6 L35.6 2.6 35.15 2.8 34.7 2.95 Q32.35 3.8 30.55 5.05 L28.45 7.1 28.1 7.55 27.75 8.05 Q26.6 9.75 26.1 11.4 25.2 14 24.15 15.7 22.45 18.25 20.25 18.35 L20.15 18.4 18.95 18.55 Q15.05 19 11.9 19.8 L11.15 20 10.45 20.2 Q8.8 20.95 7.1 22.05"/>
  </g>
</svg>