<svg width="80.75px" height="72px" viewBox="0 0 80.75 72" xmlns="http://www.w3.org/2000/svg" xmlns:xlink="http://www.w3.org/1999/xlink">
  <defs/>
  <g>
    <path stroke="none" fill="#000000" d="M27.3 8.35 L27.4 8.4 29.4 10.4 Q30.6 12.05 31.2 14 L31.95 17.4 32.05 21.1 31.9 22.9 31.7 25.4 31.65 27.25 31.65 27.4 31.3 30.8 Q31.1 32.5 31.25 34.25 31.45 38 33.3 39.55 34.2 40.3 35.3 40.5 L36.55 40.6 37.6 40.55 40.45 40 40.8 39.9 42.7 39 Q44.05 38.05 45.25 36.4 L46.75 33.75 47.8 31.25 48.75 27.85 49 26.65 49.2 25.85 49.2 25.55 Q49.25 23.65 49.45 21.85 49.6 19.6 50 17.65 L50.2 16.7 50.5 15.4 Q51.05 13.05 51.95 11.15 52.8 9.2 54.05 7.65 L54.15 7.5 54.2 7.45 Q55.2 6.3 56.35 5.5 L57 5.05 Q58.7 4 60.05 3.55 L62.65 2.9 63.25 2.85 Q67.4 2.5 71.25 4.8 L71.7 5.1 72.1 5.35 72.25 5.45 74.3 7.7 74.35 7.85 74.6 8.25 Q75.5 9.65 75.95 11.5 76.4 13.35 76.5 15.05 L76.5 17.85 76.4 18.7 Q76.35 20.25 75.9 22.4 L75.8 23.1 75.7 23.7 75.65 23.8 75.4 25.1 75.4 25.2 75.4 25.4 75 28.15 74.8 30.7 74.85 34.75 75.15 37.4 75.45 39.35 75.95 41.45 76.25 42.1 76.45 42.5 76.75 43.2 77.1 44.05 77.65 45.4 78.2 46.75 78.5 47.65 79.3 50 80 52.55 Q81 56.7 80.7 60.2 L80.7 60.3 80.3 62.6 79.95 63.6 79.9 63.75 78.2 66.65 78.15 66.75 76.1 68.95 Q74.2 70.65 72 71.35 L67.9 72 Q65.05 71.95 61.65 70.95 60.6 70.6 59.8 70.05 L57.15 68.1 Q53.55 64.65 52.9 58.7 L52.75 57.1 52.25 57.7 48.8 61.3 Q45.45 64.55 41.7 66.75 40 67.8 37.55 68.8 L35.1 69.6 31.6 70.3 Q27.85 71 24.7 70.35 L21.8 69.5 20.65 68.95 20.3 68.85 20.1 68.75 19.95 68.7 17.45 67.3 Q10.45 62.95 7.1 54.5 L6.2 52.05 Q4.75 47.45 4.3 42.55 L4.05 39.2 3.9 33.7 4 31.2 Q4.25 26.45 5.5 22.65 6.1 20.55 6.8 18.85 L8 15.9 Q10.85 10.1 14.9 7.85 L15 7.8 15.7 7.5 15.8 7.45 Q17.95 6.35 20.45 6.3 L21.05 6.3 23 6.45 24.1 6.8 25.45 7.25 25.55 7.3 27.3 8.35"/>
    <path stroke="none" fill="#f8f8d8" d="M36.15 47.7 L36.5 46.75 Q36.5 46.15 36.15 45.8 35.8 45.45 35.2 45.45 34.75 45.45 34.3 45.8 33.95 46.15 33.9 46.75 L34.3 47.7 34.65 47.9 35.2 48.05 35.8 47.9 36.15 47.7 M28.45 63.8 Q28.4 63.15 27.95 62.6 27.45 62.1 26.8 62.1 26.15 62.1 25.6 62.6 25.15 63.15 25.1 63.8 25.15 64.45 25.6 64.95 26.15 65.5 26.8 65.5 27.45 65.5 27.95 64.95 28.4 64.45 28.45 63.8 M17.15 54.2 L16.85 54.6 16.65 55.35 Q16.7 56 17.15 56.5 17.7 57.05 18.35 57.05 19 57.05 19.5 56.5 19.95 56 20 55.35 L19.8 54.6 19.5 54.2 Q19 53.75 18.35 53.7 17.7 53.75 17.15 54.2 M12.7 57.1 Q12.15 57.1 11.8 57.45 11.4 57.8 11.4 58.35 11.4 59 11.8 59.35 12.15 59.7 12.7 59.7 L13.65 59.35 Q14 59 14 58.35 14 57.8 13.65 57.45 13.2 57.1 12.7 57.1 M24.55 57.35 Q24.2 56.9 23.6 56.9 23.05 56.9 22.7 57.35 22.35 57.7 22.35 58.25 22.35 58.8 22.7 59.15 23.05 59.6 23.6 59.55 24.25 59.6 24.55 59.15 24.95 58.8 24.95 58.25 24.95 57.7 24.55 57.35 M26.45 53.95 Q26 53.95 25.55 54.3 L25.35 54.6 25.15 55.3 Q25.15 55.8 25.55 56.2 26 56.55 26.45 56.55 27.05 56.55 27.4 56.2 L27.75 55.3 27.65 54.6 27.4 54.3 Q27.05 53.95 26.45 53.95 M31.05 49.55 Q31 50.1 31.4 50.45 31.85 50.9 32.3 50.9 32.9 50.9 33.25 50.45 L33.6 49.55 33.25 48.65 Q32.9 48.2 32.3 48.2 31.85 48.2 31.4 48.65 31 49 31.05 49.55 M29.45 51.05 Q28.9 51.05 28.55 51.4 28.2 51.75 28.2 52.4 28.2 52.85 28.55 53.3 28.9 53.65 29.45 53.65 L30.4 53.3 Q30.8 52.85 30.8 52.4 30.8 51.75 30.4 51.4 30 51.05 29.45 51.05 M49.5 42.5 Q49.15 42.1 48.55 42.15 48 42.15 47.6 42.5 47.25 42.85 47.25 43.4 47.25 43.95 47.6 44.35 48 44.75 48.55 44.7 L49.5 44.35 49.85 43.4 Q49.85 42.85 49.5 42.5 M44.85 45.4 Q44.35 44.9 43.7 44.9 43.05 44.9 42.5 45.4 42.05 45.95 42 46.6 42 47.25 42.5 47.75 L42.75 47.9 43.7 48.2 44.65 47.9 44.85 47.75 Q45.3 47.25 45.35 46.6 45.3 45.95 44.85 45.4 M38.95 44.85 Q39.3 44.5 39.3 43.95 39.3 43.4 38.95 42.95 38.6 42.6 37.95 42.6 37.45 42.6 37.05 42.95 36.7 43.4 36.7 43.95 36.7 44.5 37.05 44.85 37.45 45.3 37.95 45.25 38.6 45.3 38.95 44.85 M48.35 31.75 Q48 32.1 48 32.65 48 33.2 48.35 33.55 48.7 34 49.25 34 L50.2 33.55 Q50.6 33.2 50.6 32.65 50.6 32.1 50.2 31.75 49.8 31.3 49.25 31.3 48.7 31.3 48.35 31.75 M59.55 62.75 Q59.1 63.25 59.1 63.9 59.1 64.6 59.55 65.05 60.15 65.6 60.8 65.6 61.45 65.6 61.95 65.05 62.4 64.6 62.4 63.9 62.4 63.25 61.95 62.75 61.45 62.3 60.8 62.3 60.15 62.3 59.55 62.75 M61 54.1 Q60.6 53.7 60.05 53.7 59.5 53.7 59.15 54.1 L58.85 54.6 58.8 55 Q58.8 55.6 59.15 55.95 59.5 56.3 60.05 56.3 60.6 56.3 61 55.95 61.4 55.6 61.4 55 L61.3 54.6 61 54.1 M57.2 50.8 Q56.75 50.8 56.3 51.2 55.95 51.55 55.95 52.1 55.95 52.6 56.3 53.05 56.75 53.4 57.2 53.4 57.85 53.4 58.2 53.05 L58.55 52.1 Q58.55 51.55 58.2 51.2 57.85 50.8 57.2 50.8 M52.45 47.2 L52.9 46.25 52.45 45.35 Q52.1 44.95 51.55 44.95 51 44.95 50.65 45.35 50.2 45.7 50.2 46.25 50.2 46.85 50.65 47.2 51 47.55 51.55 47.55 52.1 47.55 52.45 47.2 M54.5 47.9 L54.45 47.9 Q53.9 47.9 53.55 48.35 53.15 48.7 53.2 49.25 53.15 49.8 53.55 50.2 53.9 50.55 54.45 50.6 L55.4 50.2 Q55.8 49.8 55.75 49.25 55.75 48.7 55.4 48.35 54.95 47.9 54.5 47.9 M70.55 54.6 L70.3 54.3 Q69.85 53.85 69.15 53.85 68.5 53.85 67.95 54.3 L67.8 54.6 Q67.5 55.05 67.55 55.55 67.55 56.2 67.95 56.65 68.5 57.15 69.15 57.15 69.85 57.15 70.3 56.65 70.85 56.2 70.85 55.55 L70.55 54.6 M63.8 56.85 Q63.45 56.5 62.85 56.5 62.35 56.5 61.95 56.85 61.55 57.2 61.55 57.75 61.55 58.3 61.95 58.7 62.4 59.1 62.85 59.1 63.45 59.1 63.8 58.7 64.15 58.3 64.15 57.75 64.15 57.2 63.8 56.85 M53.85 38.25 Q53.85 37.6 53.3 37.05 52.8 36.6 52.15 36.6 51.5 36.6 50.95 37.05 50.5 37.6 50.45 38.25 50.45 38.95 50.95 39.4 51.5 39.9 52.15 39.9 52.8 39.9 53.3 39.4 53.85 38.95 53.85 38.25 M53.05 30.6 L53.4 29.7 Q53.4 29.05 53.05 28.75 52.7 28.35 52.1 28.35 51.65 28.35 51.2 28.75 50.85 29.05 50.8 29.7 50.8 30.15 51.2 30.6 L52.1 30.95 Q52.7 30.95 53.05 30.6 M56.45 26.8 Q56.45 26.2 56.05 25.85 55.65 25.5 55.1 25.45 54.55 25.45 54.2 25.85 53.85 26.2 53.85 26.8 53.85 27.25 54.2 27.7 L54.5 27.95 55.1 28.05 55.75 27.95 56.05 27.7 Q56.45 27.25 56.45 26.8 M57.95 25.3 Q58.55 25.3 58.9 24.85 59.3 24.5 59.25 23.95 59.25 23.45 58.9 23 58.55 22.65 57.95 22.65 57.4 22.65 57.05 23 56.65 23.45 56.7 23.95 56.65 24.5 57.05 24.85 57.4 25.3 57.95 25.3 M10.7 54.6 L9.85 54.3 Q9.4 54.4 9.1 54.6 L8.95 54.75 Q8.5 55.1 8.6 55.65 8.55 56.25 8.95 56.6 9.4 57 9.85 56.9 L10.8 56.55 Q11.2 56.2 11.15 55.6 11.2 55.15 10.75 54.7 L10.7 54.6 M7.95 51.85 Q7.55 51.5 7 51.5 6.45 51.5 6.1 51.85 5.75 52.2 5.75 52.75 5.75 53.35 6.1 53.7 6.45 54.05 7 54.1 7.55 54.1 7.95 53.7 8.35 53.35 8.35 52.75 8.35 52.2 7.95 51.85 M5.3 26.85 Q5.35 26.3 4.9 25.95 4.55 25.5 4 25.55 3.45 25.5 3.1 25.95 2.65 26.3 2.65 26.85 2.65 27.4 3.1 27.75 L3.25 27.95 4 28.2 4.8 27.95 4.9 27.75 Q5.35 27.4 5.3 26.85 M8.15 24 Q8.15 23.5 7.8 23.1 7.35 22.75 6.9 22.75 6.25 22.75 5.9 23.1 5.55 23.5 5.55 24 5.55 24.55 5.9 25 6.25 25.35 6.9 25.35 L7.8 25 8.15 24 M10.75 20.2 Q10.4 19.85 9.85 19.85 9.3 19.85 8.95 20.2 8.5 20.6 8.5 21.15 8.5 21.65 8.95 22.1 9.3 22.45 9.85 22.45 10.4 22.45 10.75 22.1 L11.15 21.15 Q11.2 20.6 10.75 20.2 M8.1 13.15 Q8.1 13.8 8.6 14.25 L9 14.6 9.8 14.8 10.55 14.6 10.95 14.25 Q11.4 13.8 11.4 13.15 11.4 12.4 10.95 11.95 10.45 11.5 9.8 11.45 9.15 11.5 8.6 11.95 8.1 12.4 8.1 13.15 M64.6 19.25 Q64.95 18.9 64.95 18.35 64.95 17.8 64.6 17.4 64.15 17.05 63.6 17 63.1 17 62.7 17.4 62.35 17.8 62.35 18.35 62.35 18.9 62.7 19.25 63.1 19.7 63.6 19.7 64.15 19.7 64.6 19.25 M60.85 19.85 Q60.4 19.85 59.95 20.2 59.6 20.55 59.55 21.2 59.55 21.65 59.95 22.1 L60.85 22.45 Q61.45 22.45 61.8 22.1 L62.15 21.2 Q62.15 20.55 61.8 20.2 61.45 19.85 60.85 19.85 M59.35 11.7 Q58.85 12.25 58.85 12.9 58.85 13.6 59.35 14.05 59.9 14.55 60.55 14.55 61.2 14.55 61.7 14.05 L62.15 12.9 Q62.15 12.25 61.7 11.7 61.2 11.25 60.55 11.25 59.9 11.25 59.35 11.7 M61.55 3.55 Q61.2 3.2 60.6 3.2 60.15 3.2 59.7 3.55 59.35 3.95 59.35 4.45 59.35 5.1 59.7 5.45 L60.6 5.8 61.55 5.45 Q61.9 5.1 61.95 4.45 61.95 3.95 61.55 3.55 M64.4 8.2 L64.75 7.25 Q64.75 6.7 64.4 6.35 63.95 5.95 63.45 6 62.9 5.95 62.55 6.35 62.1 6.7 62.1 7.25 62.1 7.8 62.55 8.2 L63.45 8.55 64.4 8.2 M23.95 17.1 Q23.45 17.1 23.05 17.45 22.7 17.9 22.7 18.35 22.7 18.95 23.05 19.3 23.5 19.65 23.95 19.7 24.6 19.7 24.95 19.3 25.3 18.95 25.3 18.35 L24.85 17.45 Q24.5 17.1 23.95 17.1 M19.3 20.3 Q18.85 19.8 18.15 19.8 17.5 19.8 17.05 20.3 16.55 20.75 16.55 21.45 16.55 22.1 17.05 22.55 17.5 23.1 18.15 23.1 18.85 23.1 19.3 22.55 19.85 22.1 19.85 21.45 19.85 20.75 19.3 20.3 M11.8 19.05 Q12.1 19.45 12.75 19.45 13.2 19.45 13.65 19.05 14 18.75 14 18.1 L13.65 17.2 Q13.2 16.85 12.75 16.85 12.1 16.85 11.8 17.2 11.4 17.65 11.4 18.1 11.4 18.75 11.8 19.05 M21.05 9.95 Q19.9 8.8 18.35 8.8 16.7 8.8 15.5 9.95 14.35 11.1 14.35 12.75 14.4 13.75 14.85 14.6 L15.5 15.5 Q16.7 16.7 18.35 16.7 19.9 16.7 21.05 15.5 L21.85 14.6 22.3 12.75 Q22.25 11.1 21.05 9.95 M22.45 7.3 Q22.45 7.85 22.8 8.2 23.3 8.65 23.7 8.65 L24.5 8.4 Q25.5 9.7 26.15 11.6 25.75 11.7 25.45 11.95 25 12.4 25 13.15 25 13.8 25.45 14.25 L25.9 14.6 26.7 14.8 26.8 14.8 26.9 18.25 26.75 20 Q26.35 20.05 26.1 20.35 25.7 20.7 25.7 21.25 25.7 21.8 26.1 22.15 L26.55 22.5 26.5 24.45 26.15 27.95 Q22.7 25.3 18.25 25.3 13.75 25.3 10.4 27.95 L9.05 29.1 Q5.25 32.9 5.25 38.25 5.25 39.8 5.6 41.3 6.35 44.7 9.05 47.45 L9.6 47.9 Q13.25 51.25 18.25 51.25 23.2 51.25 26.9 47.9 L27.4 47.45 Q30.1 44.7 30.9 41.3 L31.2 38.95 33.8 39 34.05 39.4 Q34.6 39.9 35.25 39.9 35.9 39.9 36.4 39.4 36.85 39 36.95 38.4 L37.35 38.25 Q38.45 37.9 39.5 37.25 L39.35 38.2 Q39.35 39.8 40.5 41 L40.8 41.3 Q41.9 42.1 43.3 42.15 44.75 42.1 45.75 41.3 L46.05 41 Q47.25 39.8 47.25 38.2 47.25 36.55 46.05 35.35 44.9 34.2 43.3 34.2 L42.35 34.35 44 31.5 44.85 30.95 Q45.3 30.5 45.35 29.8 L45.1 28.9 45.4 27.95 46.05 25.35 Q49.95 24.7 52.95 21.75 56 18.65 56.6 14.6 L56.75 12.55 Q56.75 7.4 53.25 3.7 L53.8 3.25 Q55.15 2.4 56.55 1.95 L56.9 2.55 Q57.3 2.9 57.8 2.9 L58.8 2.55 59.15 1.55 59.2 1.35 Q62.95 0.85 66.7 3.1 L67.55 3.6 67.3 4.45 Q67.3 5.15 67.7 5.6 68.25 6.15 68.95 6.15 L69.6 6.05 Q70.4 7.3 70.85 9 70.1 8.55 69.1 8.55 67.45 8.55 66.25 9.7 65.1 10.9 65.15 12.5 65.1 13.65 65.75 14.6 L66.25 15.25 Q67.45 16.45 69.1 16.5 70.3 16.5 71.3 15.75 L70.8 19.4 70.55 20.7 70.05 20.05 Q69.6 19.55 68.95 19.55 68.3 19.55 67.7 20.05 67.3 20.5 67.3 21.25 67.3 21.9 67.7 22.35 68.25 22.85 68.95 22.9 69.6 22.85 70.05 22.35 L70.25 22.4 69.85 25.3 69.3 25.3 Q64.8 25.3 61.45 27.95 L60.1 29.1 Q56.3 32.9 56.3 38.25 56.3 39.8 56.7 41.3 57.4 44.7 60.1 47.45 L60.65 47.9 Q64.3 51.25 69.3 51.25 72.3 51.2 74.9 50.05 L75.65 54.6 75.55 57.35 75.5 57.35 Q75.15 56.9 74.55 56.9 74.1 56.9 73.65 57.35 73.3 57.7 73.25 58.25 73.25 58.8 73.65 59.15 74.1 59.6 74.55 59.55 L75.2 59.45 74.9 60.35 73.25 63.2 Q73.05 61.95 72.05 60.95 70.9 59.8 69.35 59.8 67.7 59.8 66.5 60.95 65.35 62.1 65.35 63.75 65.35 65.35 66.5 66.5 L67.7 67.35 Q63.65 68.7 58.15 66.95 L56.55 66.2 56.75 63.85 Q56.75 58.5 52.95 54.7 L52.9 54.6 Q51.5 53.25 50 52.45 49.7 51.1 49 51.95 46.55 50.85 43.7 50.9 38.35 50.9 34.65 54.6 L34.55 54.7 Q30.7 58.5 30.75 63.85 L30.85 65.6 27.55 66.25 Q24.1 66.95 21.05 66.35 22.1 65.25 22.1 63.75 22.1 62.1 20.9 60.95 19.75 59.8 18.1 59.8 16.55 59.8 15.35 60.95 14.3 61.95 14.2 63.45 9 60.25 5.9 54.6 L4.35 51.25 Q4.8 51.25 5.15 50.9 5.6 50.45 5.55 49.9 5.5 49.35 5.1 49 4.7 48.65 4.15 48.65 3.75 48.65 3.5 48.9 L3.2 47.9 Q2.3 44.8 1.8 41.3 L1.65 39.65 2.4 39.15 Q2.9 38.7 2.9 38 2.9 37.4 2.4 36.8 2 36.4 1.4 36.35 1.2 33.75 1.25 30.95 L2 30.6 Q2.45 30.15 2.4 29.65 2.45 29.1 2 28.75 1.7 28.45 1.35 28.45 1.3 28.2 1.4 27.95 1.7 23.75 2.8 20.2 4.7 17.7 5.15 14.6 L5.25 13.65 Q7.9 8.25 11.6 6.15 11.15 6.5 11.15 7.05 11.15 7.6 11.6 7.95 11.95 8.4 12.5 8.4 13.05 8.4 13.4 7.95 13.85 7.6 13.85 7.05 13.85 6.5 13.4 6.15 13.05 5.7 12.55 5.75 L12.5 5.75 Q14.45 4.75 16.55 4.75 16.55 5.4 17.05 5.85 17.5 6.4 18.15 6.4 18.85 6.4 19.3 5.85 L19.8 5.2 21.05 5.6 22.7 6.6 Q22.45 6.85 22.45 7.3"/>
    <path stroke="none" fill="#d58000" d="M22.7 18.35 Q22.7 17.9 23.05 17.45 23.45 17.1 23.95 17.1 24.5 17.1 24.85 17.45 L25.3 18.35 Q25.3 19 24.95 19.35 L23.95 19.7 Q23.5 19.7 23.05 19.35 22.7 19 22.7 18.35"/>
    <path stroke="none" fill="#ffff00" d="M8.6 14.3 Q8.1 13.8 8.1 13.2 8.1 12.45 8.6 12 9.15 11.5 9.8 11.5 10.45 11.5 10.95 12 11.4 12.45 11.4 13.2 L10.95 14.3 Q10.45 14.8 9.8 14.8 9.15 14.8 8.6 14.3"/>
    <path stroke="none" fill="#d58000" d="M8.9 20.25 Q9.3 19.9 9.85 19.9 10.35 19.9 10.75 20.25 11.15 20.65 11.15 21.15 11.15 21.7 10.75 22.15 L9.85 22.5 Q9.3 22.5 8.9 22.15 8.5 21.7 8.5 21.15 8.5 20.65 8.9 20.25"/>
    <path stroke="none" fill="#ffff00" d="M18.35 8.85 Q19.85 8.85 21.05 10 22.25 11.15 22.25 12.75 22.25 14.4 21.05 15.55 19.85 16.75 18.35 16.75 16.7 16.75 15.5 15.55 14.35 14.4 14.35 12.75 14.35 11.15 15.5 10 16.7 8.85 18.35 8.85 M19.95 12.85 Q19.95 12.1 19.5 11.65 19 11.15 18.25 11.15 17.55 11.15 17 11.65 16.55 12.1 16.5 12.85 16.55 13.55 17 14.05 17.55 14.5 18.25 14.5 19 14.5 19.5 14.05 19.95 13.55 19.95 12.85"/>
    <path stroke="none" fill="#d58000" d="M16.5 12.8 Q16.5 12.05 17 11.6 17.55 11.1 18.25 11.1 19 11.1 19.45 11.6 19.9 12.05 19.95 12.8 19.95 13.55 19.45 14 19 14.45 18.25 14.5 17.5 14.45 17 14 16.5 13.55 16.5 12.8"/>
    <path stroke="none" fill="#d58000" d="M13.65 19.1 Q13.15 19.45 12.75 19.45 12.1 19.45 11.75 19.1 11.4 18.75 11.4 18.1 11.4 17.65 11.75 17.2 12.1 16.85 12.75 16.85 13.15 16.85 13.65 17.2 L14 18.1 Q14 18.75 13.65 19.1"/>
    <path stroke="none" fill="#ffff00" d="M18.15 19.8 Q18.8 19.8 19.3 20.3 19.8 20.75 19.8 21.45 19.8 22.1 19.3 22.6 18.8 23.1 18.15 23.1 17.45 23.1 17 22.6 16.5 22.1 16.5 21.45 16.5 20.75 17 20.3 17.45 19.8 18.15 19.8"/>
    <path stroke="none" fill="#d58000" d="M7.8 23.1 Q8.15 23.5 8.15 24 L7.8 25 6.9 25.35 Q6.25 25.35 5.9 25 5.55 24.55 5.55 24 5.55 23.5 5.9 23.1 6.25 22.75 6.9 22.75 7.35 22.75 7.8 23.1"/>
    <path stroke="none" fill="#d58000" d="M4.9 27.8 Q4.5 28.2 4 28.2 3.45 28.2 3.05 27.8 L2.65 26.9 Q2.65 26.35 3.05 25.95 3.45 25.55 4 25.55 4.5 25.55 4.9 25.95 5.3 26.35 5.3 26.9 5.3 27.4 4.9 27.8"/>
    <path stroke="none" fill="#d58000" d="M33.9 46.8 Q33.9 46.15 34.25 45.8 34.7 45.45 35.15 45.45 35.8 45.45 36.15 45.8 36.5 46.15 36.5 46.8 L36.15 47.7 Q35.8 48.05 35.15 48.05 34.7 48.05 34.25 47.7 33.9 47.25 33.9 46.8"/>
    <path stroke="none" fill="#d58000" d="M33.25 48.65 Q33.6 49.05 33.6 49.6 L33.25 50.5 Q32.9 50.9 32.25 50.9 31.8 50.9 31.35 50.5 31 50.1 31 49.6 31 49.05 31.35 48.65 31.8 48.25 32.25 48.25 32.9 48.25 33.25 48.65"/>
    <path stroke="none" fill="#d58000" d="M37.95 42.65 Q38.6 42.65 38.95 43 39.3 43.45 39.3 44 L38.95 44.9 Q38.6 45.3 37.95 45.3 37.45 45.3 37.05 44.9 36.7 44.5 36.7 44 36.7 43.45 37.05 43 37.45 42.65 37.95 42.65"/>
    <path stroke="none" fill="#ffff00" d="M42.5 45.4 Q43.05 44.9 43.7 44.9 44.35 44.9 44.85 45.4 45.3 45.95 45.3 46.6 45.3 47.25 44.85 47.75 44.35 48.2 43.7 48.2 43.05 48.2 42.5 47.75 42 47.25 42 46.6 42 45.95 42.5 45.4"/>
    <path stroke="none" fill="#d58000" d="M59.65 3.55 Q60.1 3.2 60.55 3.2 61.2 3.2 61.55 3.55 61.9 3.95 61.9 4.45 61.9 5.1 61.55 5.45 61.2 5.8 60.55 5.8 60.1 5.8 59.65 5.45 59.3 5.1 59.3 4.45 59.3 3.9 59.65 3.55"/>
    <path stroke="none" fill="#d58000" d="M64.4 8.25 L63.45 8.6 Q62.9 8.6 62.5 8.25 62.1 7.8 62.1 7.25 62.1 6.75 62.5 6.35 62.9 6 63.45 6 63.95 6 64.4 6.35 64.75 6.75 64.75 7.25 L64.4 8.25"/>
    <path stroke="none" fill="#ffff00" d="M58.85 12.95 Q58.85 12.3 59.35 11.75 59.9 11.25 60.55 11.25 61.2 11.25 61.7 11.75 62.15 12.3 62.15 12.95 L61.7 14.1 Q61.2 14.55 60.55 14.55 59.9 14.55 59.35 14.1 58.85 13.6 58.85 12.95"/>
    <path stroke="none" fill="#d58000" d="M62.7 17.4 Q63.1 17.05 63.6 17.05 64.15 17.05 64.6 17.4 64.95 17.85 64.95 18.4 64.95 18.9 64.6 19.3 64.15 19.7 63.6 19.7 63.1 19.7 62.7 19.3 62.35 18.9 62.35 18.4 62.35 17.85 62.7 17.4"/>
    <path stroke="none" fill="#d58000" d="M60.8 19.9 Q61.45 19.9 61.8 20.25 62.15 20.6 62.15 21.25 L61.8 22.15 60.8 22.5 Q60.35 22.5 59.9 22.15 59.55 21.7 59.55 21.25 59.55 20.6 59.9 20.25 60.35 19.9 60.8 19.9"/>
    <path stroke="none" fill="#d58000" d="M59.25 24 L58.9 24.9 Q58.55 25.3 57.9 25.3 57.4 25.3 57 24.9 56.65 24.5 56.65 24 56.65 23.45 57 23 57.4 22.65 57.9 22.65 58.55 22.65 58.9 23 59.25 23.45 59.25 24"/>
    <path stroke="none" fill="#d58000" d="M54.15 27.75 Q53.8 27.3 53.8 26.85 53.8 26.2 54.15 25.85 54.55 25.5 55.05 25.5 55.6 25.5 56.05 25.85 56.4 26.2 56.4 26.85 L56.05 27.75 Q55.6 28.1 55.05 28.1 L54.15 27.75"/>
    <path stroke="none" fill="#d58000" d="M53.4 29.75 L53.05 30.65 Q52.7 31 52.05 31 51.6 31 51.15 30.65 50.8 30.15 50.8 29.75 50.8 29.1 51.15 28.75 51.6 28.4 52.05 28.4 52.7 28.4 53.05 28.75 53.4 29.1 53.4 29.75"/>
    <path stroke="none" fill="#d58000" d="M48.3 31.75 Q48.7 31.35 49.2 31.35 49.75 31.35 50.2 31.75 50.55 32.15 50.55 32.7 L50.2 33.6 Q49.75 34 49.2 34 48.7 34 48.3 33.6 47.95 33.2 47.95 32.7 47.95 32.15 48.3 31.75"/>
    <path stroke="none" fill="#ffff00" d="M53.3 37.1 L53.85 38.3 Q53.85 38.95 53.3 39.45 52.8 39.9 52.15 39.9 51.5 39.9 50.95 39.45 50.45 38.95 50.45 38.3 50.45 37.65 50.95 37.1 51.5 36.6 52.15 36.6 52.8 36.6 53.3 37.1"/>
    <path stroke="none" fill="#d58000" d="M48.5 42.15 Q49.15 42.15 49.5 42.5 49.85 42.9 49.85 43.4 L49.5 44.4 48.5 44.75 Q48 44.75 47.6 44.4 47.25 43.95 47.25 43.4 47.25 42.9 47.6 42.5 48 42.15 48.5 42.15"/>
    <path stroke="none" fill="#d58000" d="M52.85 46.25 Q52.85 46.9 52.45 47.25 52.05 47.6 51.55 47.6 51 47.6 50.6 47.25 50.2 46.9 50.2 46.25 50.2 45.75 50.6 45.35 51 45 51.55 45 52.05 45 52.45 45.35 52.85 45.75 52.85 46.25"/>
    <path stroke="none" fill="#d58000" d="M54.4 47.95 Q54.95 47.95 55.4 48.35 55.75 48.75 55.75 49.3 L55.4 50.25 54.4 50.6 Q53.9 50.6 53.5 50.25 53.15 49.8 53.15 49.3 53.15 48.75 53.5 48.35 53.9 47.95 54.4 47.95"/>
    <path stroke="none" fill="#ffff00" d="M67.9 56.7 Q67.5 56.2 67.5 55.55 67.5 54.9 67.9 54.35 68.45 53.85 69.15 53.85 69.8 53.85 70.3 54.35 70.8 54.9 70.8 55.55 70.8 56.2 70.3 56.7 69.8 57.15 69.15 57.15 68.5 57.15 67.9 56.7"/>
    <path stroke="none" fill="#d58000" d="M60 53.75 Q60.55 53.75 61 54.1 61.35 54.5 61.35 55 L61 56 Q60.55 56.35 60 56.35 59.5 56.35 59.1 56 58.75 55.65 58.75 55 58.75 54.5 59.1 54.1 59.5 53.75 60 53.75"/>
    <path stroke="none" fill="#d58000" d="M63.8 56.85 Q64.15 57.25 64.15 57.75 L63.8 58.75 62.8 59.1 Q62.35 59.1 61.9 58.75 61.55 58.3 61.55 57.75 61.55 57.25 61.9 56.85 62.35 56.5 62.8 56.5 63.45 56.5 63.8 56.85"/>
    <path stroke="none" fill="#ffff00" d="M60.75 65.6 Q60.1 65.6 59.55 65.1 59.05 64.6 59.05 63.95 59.05 63.25 59.55 62.8 60.1 62.3 60.75 62.3 61.4 62.3 61.9 62.8 62.35 63.25 62.35 63.95 L61.9 65.1 Q61.4 65.6 60.75 65.6"/>
    <path stroke="none" fill="#d58000" d="M55.95 52.1 Q55.95 51.6 56.3 51.2 56.75 50.85 57.2 50.85 57.85 50.85 58.2 51.2 58.55 51.6 58.55 52.1 L58.2 53.1 Q57.85 53.45 57.2 53.45 56.75 53.45 56.3 53.1 55.95 52.65 55.95 52.1"/>
    <path stroke="none" fill="#d58000" d="M30.4 53.35 L29.4 53.7 Q28.9 53.7 28.5 53.35 28.15 52.85 28.15 52.45 28.15 51.8 28.5 51.45 28.9 51.1 29.4 51.1 29.95 51.1 30.4 51.45 30.75 51.8 30.75 52.45 30.75 52.9 30.4 53.35"/>
    <path stroke="none" fill="#d58000" d="M25.5 54.35 Q25.95 54 26.4 54 27.05 54 27.4 54.35 27.75 54.7 27.75 55.35 L27.4 56.25 Q27.05 56.6 26.4 56.6 25.95 56.6 25.5 56.25 25.15 55.85 25.15 55.35 25.15 54.7 25.5 54.35"/>
    <path stroke="none" fill="#d58000" d="M23.55 56.95 Q24.2 56.95 24.55 57.35 24.9 57.75 24.9 58.3 L24.55 59.2 Q24.2 59.6 23.55 59.6 23.05 59.6 22.65 59.2 22.3 58.8 22.3 58.3 22.3 57.75 22.65 57.35 23.05 56.95 23.55 56.95"/>
    <path stroke="none" fill="#ffff00" d="M25.6 62.6 Q26.15 62.1 26.8 62.1 27.45 62.1 27.95 62.6 L28.4 63.8 27.95 64.95 Q27.45 65.45 26.8 65.5 26.15 65.5 25.6 64.95 25.1 64.45 25.1 63.8 25.1 63.15 25.6 62.6"/>
    <path stroke="none" fill="#ffff00" d="M18.35 53.75 Q19 53.75 19.5 54.25 19.95 54.7 19.95 55.4 L19.5 56.55 Q19 57.05 18.35 57.05 17.7 57.05 17.15 56.55 16.65 56.05 16.65 55.4 16.65 54.7 17.15 54.25 17.7 53.75 18.35 53.75"/>
    <path stroke="none" fill="#d58000" d="M8.55 55.7 Q8.45 55.15 8.95 54.75 9.3 54.4 9.85 54.35 10.35 54.35 10.75 54.7 11.2 55.15 11.15 55.6 11.15 56.25 10.8 56.6 L9.85 56.95 Q9.35 57 8.95 56.65 8.55 56.3 8.55 55.7"/>
    <path stroke="none" fill="#d58000" d="M11.75 57.45 Q12.15 57.1 12.65 57.1 13.2 57.1 13.65 57.45 14 57.85 14 58.35 14 59 13.65 59.35 L12.65 59.7 Q12.1 59.7 11.75 59.35 11.4 59 11.4 58.35 11.4 57.85 11.75 57.45"/>
    <path stroke="none" fill="#d58000" d="M7.95 53.75 L6.95 54.1 Q6.45 54.1 6.05 53.75 5.7 53.4 5.7 52.75 5.7 52.25 6.05 51.85 6.45 51.5 6.95 51.5 7.5 51.5 7.95 51.85 8.3 52.25 8.3 52.75 8.3 53.4 7.95 53.75"/>
    <path stroke="none" fill="#ffff00" d="M25.45 11.95 L26.1 11.6 26.75 14.8 26.65 14.8 Q25.9 14.8 25.45 14.25 24.95 13.8 24.95 13.15 24.95 12.45 25.45 11.95"/>
    <path stroke="none" fill="#d58000" d="M22.45 7.3 Q22.45 6.85 22.7 6.6 L24.5 8.4 23.7 8.65 Q23.25 8.65 22.8 8.25 22.45 7.85 22.45 7.3"/>
    <path stroke="none" fill="#d58000" d="M26.05 20.35 Q26.35 20.1 26.75 20 L26.55 22.55 26.05 22.15 Q25.7 21.8 25.7 21.25 25.7 20.75 26.05 20.35"/>
    <path stroke="none" fill="#d58000" d="M13.4 8 Q13 8.4 12.5 8.4 11.95 8.4 11.55 8 11.15 7.6 11.15 7.1 11.15 6.55 11.55 6.15 L12.55 5.75 Q13 5.75 13.4 6.15 13.8 6.55 13.8 7.1 13.8 7.6 13.4 8"/>
    <path stroke="none" fill="#ffff00" d="M16.5 4.75 L18.85 4.9 19.75 5.2 19.3 5.85 Q18.8 6.4 18.15 6.4 17.45 6.4 17 5.85 16.5 5.4 16.5 4.75"/>
    <path stroke="none" fill="#d58000" d="M5.2 13.65 Q4.95 17.35 2.75 20.25 3.3 18.3 4 16.55 L5.2 13.65"/>
    <path stroke="none" fill="#d58000" d="M10.7 30.9 Q7.6 34 7.6 38.3 7.6 42.7 10.7 45.7 13.75 48.85 18.1 48.85 22.45 48.85 25.55 45.7 28.6 42.7 28.6 38.3 L28.6 37.75 Q29.7 38.65 31.2 38.95 30.95 43.9 27.4 47.45 23.6 51.25 18.25 51.25 12.85 51.25 9.05 47.45 5.25 43.65 5.25 38.3 5.25 32.9 9.05 29.1 12.85 25.3 18.25 25.3 22.65 25.3 26.15 27.95 25.95 29.9 26.05 31.5 L25.55 30.9 Q22.45 27.85 18.1 27.85 13.75 27.85 10.7 30.9"/>
    <path stroke="none" fill="#ffff00" d="M13.45 43.6 Q15.45 45.5 18.3 45.55 21.05 45.5 23.05 43.6 25.1 41.6 25.1 38.75 25.1 35.95 23.05 33.95 21.05 32.05 18.3 32 15.45 32.05 13.45 33.95 11.45 35.95 11.45 38.75 11.45 41.6 13.45 43.6 M10.7 45.7 Q7.6 42.75 7.6 38.3 7.6 34 10.7 30.95 13.75 27.85 18.1 27.85 22.45 27.85 25.55 30.95 L26.05 31.55 Q26.35 35.85 28.6 37.75 L28.6 38.3 Q28.6 42.75 25.55 45.7 22.45 48.85 18.1 48.85 13.75 48.85 10.7 45.7"/>
    <path stroke="none" fill="#d58000" d="M18.2 34.7 Q16.5 34.75 15.35 35.9 14.2 37.1 14.15 38.75 14.2 40.5 15.35 41.65 16.5 42.85 18.2 42.85 19.95 42.85 21.1 41.65 22.3 40.5 22.3 38.75 22.3 37.1 21.1 35.9 19.95 34.75 18.2 34.7 M18.25 45.5 Q15.45 45.5 13.45 43.6 11.45 41.6 11.45 38.75 11.45 35.95 13.45 33.95 15.45 32 18.25 32 21.05 32 23.05 33.95 25.1 35.95 25.1 38.75 25.1 41.6 23.05 43.6 21.05 45.5 18.25 45.5"/>
    <path stroke="none" fill="#ffffff" d="M18.2 34.7 Q19.9 34.7 21.1 35.9 22.3 37.1 22.3 38.75 22.3 40.45 21.1 41.65 19.9 42.85 18.2 42.85 16.5 42.85 15.35 41.65 14.15 40.45 14.15 38.75 14.15 37.1 15.35 35.9 16.5 34.7 18.2 34.7 M20.55 38.75 Q20.55 37.8 19.9 37.2 19.25 36.55 18.3 36.5 17.3 36.5 16.7 37.2 16.05 37.8 16.1 38.75 16.05 39.75 16.7 40.35 17.3 41 18.3 41.05 19.25 41.05 19.9 40.35 20.55 39.75 20.55 38.75"/>
    <path stroke="none" fill="#d58000" d="M19.9 37.2 Q20.55 37.85 20.55 38.8 20.55 39.8 19.9 40.4 19.25 41.05 18.35 41.1 17.35 41.05 16.7 40.4 16.1 39.75 16.1 38.8 16.1 37.85 16.7 37.2 17.35 36.55 18.35 36.55 19.25 36.55 19.9 37.2"/>
    <path stroke="none" fill="#d58000" d="M5.55 49.9 Q5.55 50.45 5.15 50.9 4.8 51.25 4.35 51.25 L3.5 48.9 Q3.75 48.65 4.15 48.65 4.7 48.65 5.05 49 5.5 49.4 5.55 49.9"/>
    <path stroke="none" fill="#ffff00" d="M42 37.1 Q41.55 37.65 41.5 38.3 41.55 39.05 42 39.5 42.55 40.05 43.25 40.05 43.95 40.05 44.4 39.5 44.95 39.05 44.95 38.3 44.95 37.65 44.4 37.1 43.95 36.6 43.25 36.6 42.55 36.6 42 37.1 M40.5 41 Q39.35 39.85 39.35 38.25 L39.45 37.25 Q41 36.2 42.35 34.35 L43.25 34.25 Q44.9 34.25 46.05 35.4 47.25 36.6 47.25 38.25 47.25 39.85 46.05 41 44.9 42.15 43.25 42.15 41.7 42.15 40.5 41"/>
    <path stroke="none" fill="#d58000" d="M44.95 38.3 Q44.95 39.05 44.4 39.5 43.9 40.05 43.25 40.05 42.5 40.05 42 39.5 41.5 39.05 41.5 38.3 41.5 37.65 42 37.1 42.55 36.6 43.25 36.6 43.9 36.6 44.4 37.1 44.95 37.65 44.95 38.3"/>
    <path stroke="none" fill="#ffff00" d="M44.85 31 L44 31.55 45.1 28.95 45.35 29.85 Q45.3 30.5 44.85 31"/>
    <path stroke="none" fill="#ffff00" d="M34.05 39.45 L33.8 39 36.95 38.4 36.4 39.45 Q35.9 39.9 35.25 39.9 L34.05 39.45"/>
    <path stroke="none" fill="#ffff00" d="M67.75 13.85 Q68.3 14.3 69 14.35 69.75 14.3 70.15 13.85 70.7 13.4 70.7 12.65 70.7 11.9 70.15 11.4 69.75 10.9 69 10.9 68.3 10.9 67.75 11.4 67.3 11.9 67.25 12.65 67.3 13.4 67.75 13.85 M70.85 9 L71.3 12.35 71.3 15 71.25 15.8 Q70.25 16.5 69.1 16.5 67.45 16.5 66.25 15.3 65.1 14.15 65.1 12.5 65.1 10.9 66.25 9.75 67.45 8.6 69.1 8.6 L70.85 9"/>
    <path stroke="none" fill="#d58000" d="M67.8 11.4 Q68.35 10.9 69.05 10.9 69.75 10.9 70.2 11.4 70.75 11.95 70.75 12.65 70.75 13.4 70.2 13.85 69.75 14.3 69.05 14.35 68.3 14.35 67.8 13.85 67.3 13.4 67.3 12.65 67.3 11.9 67.8 11.4"/>
    <path stroke="none" fill="#d58000" d="M59.15 1.35 L59.15 1.6 58.8 2.55 57.8 2.9 Q57.3 2.9 56.9 2.55 L56.55 1.95 59.15 1.35"/>
    <path stroke="none" fill="#ffff00" d="M67.3 4.5 L67.55 3.65 Q68.55 4.45 69.35 5.65 L69.6 6.05 68.95 6.2 Q68.3 6.2 67.7 5.65 67.3 5.15 67.3 4.5"/>
    <path stroke="none" fill="#d58000" d="M53.25 3.7 Q56.75 7.4 56.75 12.55 56.75 17.95 52.95 21.75 49.95 24.75 46.05 25.35 L46.55 23.2 46.55 22.75 Q49.1 22.05 51 20.05 54.05 16.95 54.1 12.65 54.05 8.5 51.25 5.5 L53.25 3.7"/>
    <path stroke="none" fill="#ffff00" d="M46.75 19.2 L48.55 17.85 Q50.55 15.9 50.55 13.1 50.55 10.65 49.15 8.9 50 7 51.1 5.6 L51.2 5.5 Q54.05 8.5 54.05 12.6 54.05 16.95 50.95 20.05 49.05 22.05 46.5 22.75 46.55 20.9 46.75 19.2"/>
    <path stroke="none" fill="#d58000" d="M47.8 12.95 Q48.35 10.65 49.15 8.9 50.55 10.7 50.55 13.15 50.55 15.9 48.55 17.9 L46.75 19.2 Q46.95 17.05 47.3 15.1 47.75 14.2 47.8 13.15 L47.8 12.95"/>
    <path stroke="none" fill="#ffffff" d="M47.8 12.95 L47.8 13.15 Q47.75 14.2 47.3 15.1 L47.8 12.95"/>
    <path stroke="none" fill="#ffff00" d="M68.95 19.55 Q69.6 19.55 70.1 20.05 L70.55 20.7 70.25 22.2 70.1 22.35 Q69.6 22.9 68.95 22.85 68.3 22.85 67.7 22.35 67.3 21.85 67.3 21.25 67.3 20.5 67.7 20.05 68.25 19.55 68.95 19.55"/>
    <path stroke="none" fill="#d58000" d="M69.8 25.3 L69.65 27.85 69.15 27.85 Q64.8 27.85 61.75 30.9 58.65 34 58.65 38.3 58.65 42.7 61.75 45.7 64.8 48.85 69.15 48.85 71.95 48.85 74.15 47.55 L74.9 50.05 Q72.25 51.25 69.3 51.25 63.9 51.25 60.1 47.45 56.3 43.65 56.3 38.3 56.3 32.9 60.1 29.1 63.9 25.3 69.3 25.3 L69.8 25.3"/>
    <path stroke="none" fill="#ffff00" d="M69.7 32 L69.35 32 Q66.5 32.05 64.5 33.95 62.5 35.95 62.5 38.75 62.5 41.6 64.5 43.6 66.5 45.5 69.35 45.55 71.4 45.55 73.15 44.45 L74.15 47.6 Q71.95 48.85 69.15 48.85 64.8 48.85 61.75 45.7 58.65 42.75 58.65 38.3 58.65 34 61.75 30.95 64.8 27.85 69.15 27.85 L69.65 27.85 69.7 32"/>
    <path stroke="none" fill="#d58000" d="M69.3 32 L69.7 32 70 34.8 69.25 34.7 Q67.55 34.75 66.35 35.9 65.2 37.1 65.2 38.75 65.2 40.5 66.35 41.65 67.55 42.85 69.25 42.85 70.85 42.85 72.05 41.8 L73.1 44.45 Q71.4 45.5 69.3 45.5 66.5 45.5 64.5 43.6 62.5 41.6 62.5 38.75 62.5 35.95 64.5 33.95 66.5 32 69.3 32"/>
    <path stroke="none" fill="#ffffff" d="M69.35 36.5 Q68.45 36.5 67.7 37.2 67.1 37.8 67.1 38.75 67.1 39.75 67.7 40.35 68.45 41 69.35 41.05 70.35 41.05 71 40.35 L71.3 39.95 71.35 40.05 72.05 41.75 Q70.9 42.85 69.3 42.85 67.55 42.85 66.4 41.65 65.25 40.45 65.25 38.75 65.25 37.1 66.4 35.9 67.55 34.7 69.3 34.7 L70 34.75 70.3 36.75 69.35 36.5"/>
    <path stroke="none" fill="#d58000" d="M69.35 36.55 L70.3 36.8 70.85 39.15 71.25 40 70.95 40.4 Q70.35 41.05 69.35 41.1 68.45 41.05 67.7 40.4 67.1 39.75 67.1 38.8 67.1 37.85 67.7 37.2 68.4 36.55 69.35 36.55"/>
    <path stroke="none" fill="#d58000" d="M75.5 57.35 L75.55 57.45 75.2 59.5 74.5 59.6 Q74.05 59.6 73.6 59.2 73.25 58.8 73.25 58.3 73.25 57.75 73.6 57.35 74.05 56.95 74.5 56.95 75.15 56.95 75.5 57.35"/>
    <path stroke="none" fill="#ffff00" d="M69.35 59.85 Q70.85 59.85 72.05 61 73 61.95 73.25 63.25 L71.3 65.3 Q69.7 66.75 67.7 67.4 L66.5 66.55 Q65.35 65.4 65.35 63.75 65.35 62.15 66.5 61 67.7 59.85 69.35 59.85 M70.4 62.65 Q70 62.15 69.25 62.15 68.55 62.15 68 62.65 67.55 63.15 67.5 63.9 67.55 64.6 68 65.05 68.55 65.6 69.25 65.6 70 65.6 70.4 65.05 70.95 64.6 70.95 63.9 70.95 63.15 70.4 62.65"/>
    <path stroke="none" fill="#d58000" d="M68 65 Q67.5 64.55 67.5 63.85 67.5 63.1 68 62.6 68.55 62.1 69.25 62.1 69.95 62.1 70.4 62.6 70.95 63.15 70.95 63.85 70.95 64.55 70.4 65 69.95 65.55 69.25 65.55 68.5 65.55 68 65"/>
    <path stroke="none" fill="#d58000" d="M30.8 65.65 L30.7 63.9 Q30.7 58.5 34.5 54.7 38.3 50.9 43.7 50.9 46.5 50.9 49 52 L48.5 52.7 47.35 54.1 Q45.6 53.45 43.6 53.45 39.2 53.45 36.2 56.5 33.1 59.6 33.1 63.95 L33.15 64.85 30.8 65.65"/>
    <path stroke="none" fill="#d58000" d="M56.55 66.2 Q55.15 65.4 54.05 64.4 L54.05 63.9 Q54.05 59.55 51 56.5 L50.2 55.75 50 52.7 49.95 52.45 Q51.5 53.3 52.9 54.7 56.7 58.5 56.7 63.85 L56.55 66.2"/>
    <path stroke="none" fill="#ffff00" d="M54.05 63.95 L54.05 64.45 Q50.85 61.35 50.2 55.8 L51 56.5 Q54.05 59.6 54.05 63.95"/>
    <path stroke="none" fill="#ffff00" d="M44 57.6 L43.7 57.6 Q40.95 57.65 38.95 59.55 37.5 61 37.15 62.9 35.15 64.05 33.15 64.85 L33.1 63.95 Q33.1 59.6 36.2 56.55 39.15 53.45 43.6 53.45 45.6 53.45 47.35 54.1 L44 57.6"/>
    <path stroke="none" fill="#d58000" d="M44.05 57.6 Q40.7 60.85 37.15 62.9 37.5 61 38.95 59.55 40.95 57.6 43.75 57.6 L44.05 57.6"/>
    <path stroke="none" fill="#ffff00" d="M19.75 63.9 Q19.75 63.15 19.2 62.65 18.75 62.15 18.05 62.15 17.35 62.15 16.8 62.65 16.35 63.15 16.3 63.9 16.3 64.35 16.55 64.8 L14.15 63.45 Q14.25 62 15.3 61 16.5 59.85 18.05 59.85 19.7 59.85 20.85 61 22.05 62.15 22.05 63.75 22.05 65.3 21.05 66.35 L18.3 65.6 19.2 65.05 Q19.75 64.6 19.75 63.9"/>
    <path stroke="none" fill="#d58000" d="M16.6 64.8 L17.2 65.05 18.35 65.6 18.1 65.6 Q17.4 65.6 16.85 65.05 L16.6 64.8"/>
    <path stroke="none" fill="#d58000" d="M18.1 62.1 Q18.75 62.1 19.25 62.6 19.8 63.15 19.8 63.85 19.8 64.55 19.25 65 L18.35 65.55 17.2 65 16.6 64.75 16.35 63.85 Q16.35 63.1 16.85 62.6 17.4 62.1 18.1 62.1"/>
    <path stroke="none" fill="#d58000" d="M25.5 7.6 Q26.65 9.25 27.3 11.2 L28.05 14.6 28.15 18.3 28 20.1 27.8 22.6 27.75 24.45 27.75 24.6 27.4 28 Q27.2 29.7 27.35 31.45 27.55 35.2 29.4 36.75 30.3 37.5 31.45 37.7 L33.7 37.75 36.55 37.2 36.9 37.1 38.8 36.2 41.35 33.6 42.85 30.95 43.95 28.45 44.85 25.05 45.1 23.8 45.3 23.05 45.3 22.75 Q45.35 20.8 45.55 19.05 45.7 16.85 46.1 14.85 L46.3 13.95 46.6 12.6 Q47.15 10.25 48.05 8.35 48.9 6.4 50.15 4.85 L50.25 4.75 50.3 4.65 Q51.3 3.5 52.45 2.7 L53.1 2.2 Q54.75 1.2 56.15 0.75 L59.05 0.1 59.15 0.1 Q63.35 -0.4 67.35 2 L67.8 2.3 68.2 2.55 68.35 2.65 Q69.45 3.6 70.4 4.9 L70.45 5.05 70.7 5.45 Q71.6 6.9 72.05 8.7 L72.6 12.25 72.6 15.05 72.5 15.9 72.05 19.6 71.9 20.3 71.8 20.9 71.75 21 71.5 22.3 71.5 22.4 71.5 22.6 71.1 25.35 70.9 27.9 70.95 31.95 71.25 34.6 71.55 36.55 72.05 38.65 72.35 39.3 72.55 39.7 72.85 40.45 73.2 41.25 73.75 42.65 74.3 43.95 74.6 44.85 75.4 47.2 76.1 49.75 Q77.1 53.9 76.8 57.4 L76.8 57.5 76.4 59.8 76.05 60.8 76 60.95 74.35 63.85 74.25 63.95 72.2 66.15 Q70.3 67.85 68.1 68.55 L64 69.2 Q61.15 69.2 57.75 68.15 L55.9 67.25 53.25 65.3 Q49.65 61.85 49 55.9 L48.85 54.3 48.35 54.9 44.9 58.5 Q41.55 61.75 37.8 63.95 L33.65 66 31.2 66.8 27.7 67.5 Q23.9 68.2 20.8 67.55 L17.9 66.7 16.7 66.15 16.4 66.05 16.2 65.95 16.05 65.9 13.55 64.5 Q6.55 60.15 3.2 51.7 L2.3 49.25 Q0.85 44.6 0.4 39.75 L0.15 36.4 0 30.9 0.1 28.4 Q0.35 23.7 1.6 19.85 2.2 17.75 2.9 16.05 L4.1 13.1 Q7 7.3 11 5.05 L11.1 5 11.8 4.7 11.9 4.65 Q14.05 3.5 16.55 3.5 L19.1 3.65 20.2 4 21.55 4.45 21.65 4.5 23.4 5.55 23.5 5.6 25.5 7.6 M13.35 6.7 L13.05 6.9 12.15 7.3 Q8.85 9.15 6.4 14.2 5.65 15.75 5.25 16.95 4.55 18.6 4 20.55 2.85 24.15 2.6 28.5 L2.5 30.95 2.65 36.25 Q2.7 38.05 2.9 39.5 3.3 44.15 4.7 48.5 L5.5 50.75 Q8.55 58.5 14.85 62.35 L17.1 63.6 17.4 63.75 17.6 63.8 17.75 63.9 18.85 64.4 21.3 65.1 Q23.95 65.65 27.3 65.05 L30.5 64.4 32.75 63.65 36.55 61.8 Q40.05 59.75 43.2 56.7 L46.45 53.25 46.9 52.7 47.5 51.95 47.55 51.85 48.05 51.15 Q49.2 50.1 49.8 50.4 50.8 50.6 51.15 52 L51.3 52.7 Q51.3 54.25 51.45 55.6 52.05 60.65 54.95 63.5 L57.2 65.15 58.5 65.75 Q63.75 67.4 67.3 66.15 69.05 65.65 70.5 64.3 L72.25 62.45 73.75 59.85 74 59.2 74.3 57.35 74.3 57.25 Q74.6 54.1 73.7 50.35 L73 48 72.25 45.65 71.95 44.8 71.45 43.6 70.9 42.25 70.55 41.45 70.2 40.6 70.2 40.55 70.1 40.4 69.8 39.75 69.65 39.4 69.1 37.05 68.75 34.9 68.45 32.05 68.4 27.75 68.6 25.2 69 22.3 69 22.2 69 22.1 69.35 20.45 69.45 19.8 69.55 19.2 70.05 15.7 70.05 15.5 70.1 14.95 70.1 12.4 69.65 9.3 68.55 6.7 68.4 6.45 68.3 6.3 66.8 4.65 66.4 4.4 66.05 4.15 Q62.8 2.15 59.35 2.55 L59.2 2.6 57 3.1 Q55.8 3.5 54.4 4.35 L54.1 4.55 53.95 4.7 Q53 5.35 52.2 6.3 L52.15 6.4 52.05 6.45 Q51.05 7.75 50.35 9.35 49.55 11.1 49 13.2 L48.75 14.45 48.55 15.35 Q48.2 17.15 48 19.3 L47.8 22.8 47.8 23.2 47.75 23.45 47.55 24.3 47.25 25.7 46.3 29.3 45.15 32.05 43.4 35.05 Q41.9 37.1 40.2 38.25 38.95 39.05 37.75 39.45 L37.4 39.55 37.25 39.6 33.9 40.25 31 40.15 Q29.2 39.85 27.8 38.7 25.15 36.4 24.85 31.6 24.7 29.65 24.9 27.85 L25.25 24.35 25.3 22.4 25.5 19.9 25.7 18.1 25.55 14.95 24.95 11.95 Q24.4 10.4 23.5 9.15 L21.95 7.6 20.5 6.75 19.45 6.4 19.35 6.35 18.65 6.1 16.65 6 Q14.8 6.05 13.35 6.7"/>
  </g>
</svg>