<svg width="63.9px" height="72.1px" viewBox="0 0 63.9 72.1" xmlns="http://www.w3.org/2000/svg" xmlns:xlink="http://www.w3.org/1999/xlink">
  <defs/>
  <g>
    <path stroke="none" fill="#000000" d="M50.65 37 L50.7 36.9 50.6 36.95 50.65 37 M63.85 15.4 L63.9 17.2 63.85 19.75 63.5 23.3 63.5 23.5 62.7 28.2 62.05 31.3 61.7 32.95 59.8 39.7 58.75 42.75 58.35 43.85 58.3 44.05 57.7 45.55 57.15 46.75 56.7 47.8 56.4 48.4 55.5 50.35 55.3 50.65 55 51.15 54.7 51.75 54.65 51.85 51.05 57.95 50.95 58.05 50.3 59 49.45 60.25 48.95 60.9 47.6 62.75 47.25 63.25 47.15 63.35 46.6 63.95 46.4 64.2 45.7 64.95 45.6 65.05 45.1 65.6 44.55 66.15 43.45 67.2 43.4 67.3 42.05 68.3 41.95 68.4 41.45 68.7 41.35 68.85 40.25 69.5 40.1 69.6 39.85 69.8 Q36 72 31.9 72.1 L31.75 72.1 29.9 72 28.4 71.8 28 71.7 Q26.15 71.15 24.5 70.2 22.9 69.35 21.4 68.05 L20.95 67.65 20.4 67.2 19.3 66.05 Q17.1 63.8 15.45 61.1 L15.15 60.65 15.05 60.45 Q13.05 57.2 11.55 53.85 L11.1 52.9 10.1 50.5 9.05 47.75 8.8 47.05 8.6 46.5 8.55 46.4 8.3 45.55 8.05 44.85 7.35 42.4 6.6 39.6 6.2 38 5.8 36 5.25 33.1 5.25 32.95 5.05 32.05 4.5 28.6 4.5 28.35 4.1 24.9 3.9 20.8 3.95 18.95 4.1 17.1 Q4.35 14.75 5.1 12.35 6.85 7 11.2 4.4 12.15 3.8 12.9 3.5 L14.05 3.05 14.15 3.05 15.9 2.8 Q17.9 2.7 19.85 3.75 L20.95 4.45 21.1 4.6 23.4 7 23.5 7.15 Q24.95 9.25 26.25 12.7 L27.6 17.4 27.65 17.55 28 19.35 Q28.25 20.95 28.65 22.4 L29.35 25.1 29.55 25.9 29.8 26.8 30.1 27.55 30.35 28.35 31.4 30.85 32.5 32.95 32.65 33.2 33.25 33.95 33.9 34.6 Q36.05 35.7 37.6 34.55 L38.6 33.65 39.85 31.75 40.8 29.75 41.1 28.95 41.4 28.35 41.45 28.15 41.8 26.9 42.3 25.3 42.5 24 42.9 21.2 42.9 21.1 42.9 20.85 Q43.3 18.55 43.95 16.3 45.15 12.1 47.05 9.4 48.25 7.7 49.35 6.8 50.55 5.9 51.65 5.5 L53.2 5.05 Q56.05 4.45 59.15 6.25 L59.4 6.45 59.6 6.55 59.9 6.8 Q61.05 7.7 61.8 8.9 63.45 11.3 63.85 15.4"/>
    <path stroke="none" fill="#ffcc00" d="M56.8 6.8 Q58.35 9.05 58.7 12.75 L49.45 3.55 Q51.95 3 54.6 4.55 L56.8 6.8"/>
    <path stroke="none" fill="#0d25b0" d="M46.85 32.3 L58.3 20.55 57.55 25.2 48.35 34.25 53.7 39.55 53.25 40.75 46.75 34.25 46.8 34.15 38.65 26 39.05 24.6 46.85 32.3"/>
    <path stroke="none" fill="#0d25b0" d="M58.75 14.4 L58.7 16.9 46.95 4.5 44.15 7.3 Q45.1 5.95 46.25 4.95 47.25 4.2 48.25 3.85 L58.75 14.4"/>
    <path stroke="none" fill="#ffccff" d="M46.9 4.55 L58.65 16.9 58.3 20.4 58.3 20.55 46.85 32.3 39.05 24.6 39.6 22.8 39.75 21.4 47.1 28.75 57.05 18.35 47.15 8.05 41.2 13.9 Q42.4 9.85 44.1 7.35 L46.9 4.55"/>
    <path stroke="none" fill="#ffccff" d="M58.7 12.75 L58.75 14.4 48.25 3.85 49.45 3.5 58.7 12.75"/>
    <path stroke="none" fill="#ffcc00" d="M12 1.25 Q13.8 1.2 15.35 2.05 L1.3 16.2 1.4 14.4 13 2.35 12 1.25"/>
    <path stroke="none" fill="#ffffff" d="M1.25 18 L1.3 16.25 15.35 2.05 16.3 2.65 18.55 5.05 Q20 7.15 21.15 10.3 L15.25 4.15 1.25 18"/>
    <path stroke="none" fill="#ffcc00" d="M21.15 10.35 L22.5 14.95 15.5 7.65 5.05 17.95 15.45 28.35 23.5 19.95 24.25 22.65 15.15 32.1 1.25 18.2 1.25 18 15.25 4.2 21.15 10.35"/>
    <path stroke="none" fill="#ffffff" d="M1.25 19.75 L1.25 18.2 15.15 32.1 24.25 22.65 24.75 24.4 15.3 33.9 1.25 19.75"/>
    <path stroke="none" fill="#0d25b0" d="M1.45 22.05 L1.25 19.75 15.3 33.85 5.85 43.25 5.35 41.65 12.9 34.1 1.45 22.05"/>
    <path stroke="none" fill="#5fd3f1" d="M1.8 25.65 L1.4 22.05 12.85 34.1 5.3 41.65 4.6 39.3 9.75 33.95 1.8 25.65"/>
    <path stroke="none" fill="#0d25b0" d="M3.5 34.95 L4.25 34.15 3.1 32.95 2.55 30.05 6.3 33.95 3.9 36.55 3.5 34.95"/>
    <path stroke="none" fill="#ffcc00" d="M4.25 34.15 L3.5 34.95 3.1 32.95 4.25 34.15"/>
    <path stroke="none" fill="#ffffff" d="M2.55 30.05 L2.4 29.05 1.85 25.65 9.75 33.9 4.65 39.3 3.9 36.55 6.3 34 2.55 30.05"/>
    <path stroke="none" fill="#5fd3f1" d="M1.4 14.45 Q1.7 12 2.35 10 L9.8 2.2 9.5 1.9 10.5 1.5 11.95 1.3 13 2.4 1.4 14.45"/>
    <path stroke="none" fill="#ffffff" d="M54.6 4.55 L55.25 5.05 Q56.2 5.75 56.85 6.8 L54.6 4.55"/>
    <path stroke="none" fill="#ffccff" d="M7.9 2.7 Q8.65 2.2 9.45 1.9 L9.75 2.2 2.35 10 Q4 5 7.9 2.7"/>
    <path stroke="none" fill="#0d25b0" d="M8.45 18 L15.35 24.9 21.95 18.05 15.35 11.15 8.45 18 M22.5 14.9 L22.85 16.75 23.5 19.9 15.45 28.3 5.05 17.9 15.5 7.6 22.5 14.9"/>
    <path stroke="none" fill="#ffccff" d="M15.35 24.95 L8.4 18 15.35 11.2 21.9 18.1 15.35 24.95 M15.2 13.3 L10.25 18.2 15.15 23.1 19.85 18.2 15.2 13.3"/>
    <path stroke="none" fill="#5fd3f1" d="M10.3 18.2 L15.25 13.3 19.9 18.2 15.2 23.1 10.3 18.2"/>
    <path stroke="none" fill="#ffcc00" d="M15.3 33.9 L24.7 24.4 25.25 25.95 17.05 34.05 31.05 48.05 44.45 34.1 38.05 27.4 38.65 25.95 46.8 34.1 31.15 49.85 15.3 33.9"/>
    <path stroke="none" fill="#ffccff" d="M28.4 32 L26.15 34.15 31.1 39.05 35.75 34.15 34.45 32.8 35.65 31.7 37.9 34.05 31.25 40.95 24.3 34 27.55 30.85 28.4 32"/>
    <path stroke="none" fill="#0d25b0" d="M26.15 34.15 L28.4 32 29.3 32.85 Q32.15 34.4 34.4 32.8 L35.75 34.15 31.1 39.05 26.15 34.15"/>
    <path stroke="none" fill="#ffffff" d="M31.2 40.9 L37.85 34.05 35.6 31.7 37 29.55 41.25 33.95 31.35 44.3 20.95 33.9 26.3 28.6 27.55 30.85 24.25 33.95 31.2 40.9"/>
    <path stroke="none" fill="#5fd3f1" d="M37.05 29.55 L38.05 27.4 44.45 34.1 31.05 48.05 17.05 34.05 25.25 25.95 26.35 28.6 20.95 33.9 31.35 44.3 41.25 34 37.05 29.55"/>
    <path stroke="none" fill="#5fd3f1" d="M53.7 18.5 L47.05 11.55 40.2 18.3 Q40.65 15.9 41.25 13.9 L47.15 8.05 57.05 18.35 47.1 28.75 39.8 21.4 40.2 18.55 47.05 25.35 53.7 18.5"/>
    <path stroke="none" fill="#ffcc00" d="M53.65 18.5 L47 25.35 40.2 18.55 40.2 18.3 47 11.55 53.65 18.5 M51.55 18.6 L46.9 13.7 41.95 18.6 46.85 23.5 51.55 18.6"/>
    <path stroke="none" fill="#ffffff" d="M46.9 13.7 L51.55 18.6 46.85 23.5 41.95 18.6 46.9 13.7"/>
    <path stroke="none" fill="#5fd3f1" d="M56.55 29.95 L52.25 34.15 54.7 36.55 53.65 39.55 48.35 34.25 57.5 25.2 56.55 29.95"/>
    <path stroke="none" fill="#ffffff" d="M52.3 34.1 L56.6 29.95 54.7 36.55 52.3 34.1"/>
    <path stroke="none" fill="#ffccff" d="M46.65 34.15 L53.25 40.75 52.55 42.35 46.8 36.25 32.85 49.95 42.3 59.7 41.6 60.5 31.15 49.85 46.65 34.15"/>
    <path stroke="none" fill="#0d25b0" d="M44 57.4 L42.35 59.7 32.85 50 46.8 36.3 52.6 42.4 51.6 44.55 47.1 39.8 36.65 50.05 44 57.4"/>
    <path stroke="none" fill="#5fd3f1" d="M46.95 43.3 L50.45 47 50.2 47.35 49.6 48.5 46.75 45.45 41.9 50.35 46.05 54.5 45.3 55.55 39.95 50.2 46.95 43.3"/>
    <path stroke="none" fill="#ffcc00" d="M46.8 45.45 L49.6 48.45 46.05 54.5 41.9 50.35 46.8 45.45"/>
    <path stroke="none" fill="#ffffff" d="M50.45 47 L46.95 43.3 39.95 50.2 45.35 55.55 44 57.4 36.65 50.05 47.1 39.8 51.6 44.55 50.45 47"/>
    <path stroke="none" fill="#0d25b0" d="M17.35 63.5 L31.15 49.85 41.6 60.55 40.85 61.4 40.3 61.9 30.8 52 18.3 64.35 17.35 63.5"/>
    <path stroke="none" fill="#5fd3f1" d="M40.25 61.95 L38.7 63.5 31.1 55.5 20.65 65.8 21.2 66.35 Q19.65 65.55 18.3 64.35 L30.8 52.05 40.25 61.95"/>
    <path stroke="none" fill="#ffccff" d="M36.75 64.95 L36.7 65 30.95 59 23.95 65.85 26.1 67.95 24.65 67.75 24.5 67.7 Q22.75 67.25 21.2 66.3 L20.65 65.75 31.1 55.45 38.7 63.5 37.3 64.55 36.75 64.95"/>
    <path stroke="none" fill="#ffcc00" d="M36.75 65 L35.7 65.7 35.35 65.95 30.8 61.15 25.95 66.05 28 68.1 27.75 68.1 26.1 68 24 65.85 31 59.05 36.75 65"/>
    <path stroke="none" fill="#5fd3f1" d="M8.7 50.5 L15.05 56.8 21.65 49.95 15.05 43.05 8.35 49.7 7.3 47.3 15.15 39.5 25.05 49.9 15.1 60.2 12.55 57.65 12.15 57 Q10.2 53.85 8.7 50.5"/>
    <path stroke="none" fill="#0d25b0" d="M15.05 56.8 L8.7 50.45 8.35 49.7 15.05 43.05 21.7 49.95 15.05 56.8 M19.6 50.05 L14.95 45.15 10 50.05 14.85 54.95 19.6 50.05"/>
    <path stroke="none" fill="#ffcc00" d="M14.95 45.15 L19.6 50.05 14.9 54.95 10 50.05 14.95 45.15"/>
    <path stroke="none" fill="#ffccff" d="M17.35 63.5 L16.3 62.45 28.25 50 14.9 36 6.3 44.55 5.8 43.2 15.25 33.85 31.15 49.85 17.35 63.5"/>
    <path stroke="none" fill="#ffffff" d="M27.95 68.1 L25.9 66.05 30.8 61.15 35.3 65.9 Q31.7 68 27.95 68.1"/>
    <path stroke="none" fill="#ffffff" d="M28.25 50.05 L16.3 62.5 Q14.3 60.45 12.6 57.65 L15.1 60.2 25.05 49.85 15.15 39.5 7.35 47.25 6.3 44.55 14.95 36.05 28.25 50.05"/>
    <path stroke="none" fill="#a56701" d="M54.25 4.2 Q54.6 3.9 54.95 4.2 L57.2 6.45 Q57.5 6.8 57.2 7.15 L56.85 7.3 56.5 7.15 54.25 4.9 Q53.95 4.55 54.25 4.2 M47.3 4.2 L59.05 16.6 Q59.35 16.95 59.05 17.3 L58.7 17.45 58.35 17.25 46.95 5.25 44.5 7.7 Q44.15 8 43.8 7.7 43.5 7.35 43.8 7 L46.6 4.2 Q46.7 4.05 46.95 4.05 47.15 4.05 47.3 4.2 M49.8 3.2 L59.05 12.4 Q59.35 12.75 59.05 13.1 L58.7 13.25 58.35 13.1 49.1 3.9 Q48.85 3.55 49.1 3.2 49.45 2.9 49.8 3.2 M47.05 11.05 L47.4 11.2 54.05 18.15 Q54.35 18.5 54.05 18.85 L47.4 25.7 47.05 25.9 46.7 25.75 39.9 18.9 39.75 18.45 Q39.7 18.15 39.9 17.95 L46.7 11.2 47.05 11.05 M47.2 7.55 L47.55 7.7 57.45 18.05 Q57.7 18.35 57.45 18.7 L47.5 29.1 47.1 29.25 46.75 29.1 39.45 21.75 Q39.15 21.4 39.45 21.05 39.8 20.75 40.15 21.05 L47.1 28.05 56.4 18.4 47.15 8.75 41.6 14.25 Q41.25 14.55 40.9 14.25 40.6 13.9 40.9 13.55 L46.85 7.7 Q47 7.55 47.2 7.55 M46.95 13.25 Q47.15 13.25 47.3 13.4 L51.95 18.25 Q52.2 18.65 51.95 18.95 L47.25 23.85 46.9 24 46.5 23.85 41.65 18.95 Q41.5 18.85 41.5 18.6 41.5 18.4 41.65 18.25 L46.6 13.4 Q46.75 13.2 46.95 13.25 M58.7 20.2 Q59 20.55 58.7 20.9 L47.25 32.65 46.9 32.8 46.5 32.65 38.75 24.95 Q38.45 24.6 38.75 24.25 39.1 23.95 39.45 24.25 L46.85 31.6 58 20.2 Q58.35 19.9 58.7 20.2 M57.9 24.85 Q58.2 25.2 57.9 25.55 L49.1 34.25 54.05 39.2 Q54.35 39.55 54.05 39.9 L53.7 40.05 53.35 39.9 48.05 34.6 47.9 34.25 48.05 33.9 57.2 24.85 Q57.55 24.55 57.9 24.85 M56.95 29.6 Q57.25 30 56.95 30.3 L53 34.15 55.05 36.2 Q55.35 36.55 55.05 36.9 L54.7 37.05 54.35 36.9 51.95 34.5 51.8 34.15 Q51.8 33.9 51.95 33.75 L56.25 29.6 Q56.6 29.3 56.95 29.6 M46.85 22.8 L50.9 18.6 46.9 14.45 42.7 18.6 46.85 22.8 M47.05 24.65 L53 18.5 47.05 12.25 40.8 18.45 47.05 24.65 M47.2 35.95 L52.95 42.05 Q53.25 42.4 52.95 42.75 52.6 43.05 52.25 42.75 L46.8 37 33.6 50 42.7 59.35 Q43 59.75 42.7 60.1 L42.35 60.2 42 60.05 32.5 50.35 Q32.25 50 32.5 49.65 L46.45 35.95 Q46.65 35.8 46.8 35.8 L47.2 35.95 M41.6 34.35 L31.75 44.7 31.35 44.85 31 44.7 20.65 34.3 20.5 33.95 Q20.5 33.75 20.65 33.6 L26 28.3 Q26.35 28 26.7 28.3 27 28.65 26.7 29 L21.7 33.95 31.35 43.6 40.55 34 36.7 29.95 Q36.4 29.6 36.7 29.25 37.05 28.95 37.4 29.25 L41.6 33.65 Q41.9 34 41.6 34.35 M44.8 34.5 L31.4 48.4 31.05 48.55 30.7 48.4 16.7 34.4 16.55 34.05 16.7 33.7 24.9 25.65 Q25.3 25.35 25.65 25.65 25.9 26 25.6 26.35 L17.75 34.05 31.05 47.35 43.75 34.15 37.7 27.75 Q37.4 27.4 37.7 27.05 L38.45 27.1 44.8 33.8 Q45.1 34.15 44.8 34.5 M47.5 39.45 L52 44.25 Q52.3 44.6 52 44.95 L51.3 44.9 47.1 40.5 37.4 50.05 44.4 57.05 Q44.7 57.45 44.4 57.8 44.25 57.9 44.05 57.95 L43.7 57.8 36.3 50.4 36.2 50.05 36.35 49.7 46.75 39.45 Q46.9 39.3 47.1 39.3 L47.5 39.45 M21.5 10.7 Q21.15 11 20.8 10.7 L15.25 4.9 1.85 18.1 15.1 31.35 23.9 22.3 Q24.25 22 24.6 22.3 24.9 22.65 24.6 23 L15.5 32.45 15.15 32.6 14.8 32.45 0.9 18.55 0.75 18.1 Q0.7 17.85 0.9 17.65 L14.9 3.85 Q15.05 3.7 15.25 3.7 L15.6 3.85 21.55 10 Q21.8 10.35 21.5 10.7 M22.15 15.3 L15.5 8.35 5.75 17.95 15.45 27.6 23.15 19.6 Q23.5 19.3 23.85 19.6 24.15 19.95 23.9 20.3 L15.8 28.7 15.45 28.85 15.1 28.7 4.7 18.3 4.55 17.95 4.7 17.6 15.15 7.3 Q15.3 7.15 15.5 7.15 15.7 7.15 15.85 7.3 L22.85 14.6 Q23.15 14.95 22.85 15.3 22.5 15.6 22.15 15.3 M12.35 0.95 L13.4 2.05 Q13.65 2.4 13.4 2.75 L1.8 14.8 1.45 14.95 1.1 14.8 Q0.8 14.45 1.05 14.1 L12.35 2.4 11.65 1.65 Q11.35 1.3 11.65 0.95 12 0.65 12.35 0.95 M10.2 2.55 L2.75 10.35 2.4 10.5 Q2.2 10.5 2.05 10.35 1.75 10 2.05 9.65 L9.1 2.2 Q8.9 1.85 9.15 1.55 9.5 1.25 9.85 1.55 L10.15 1.85 Q10.45 2.2 10.2 2.55 M15.75 10.85 L22.3 17.75 Q22.6 18.05 22.3 18.4 L15.75 25.3 15.4 25.45 15.35 25.45 15 25.3 8.1 18.35 7.95 18 8.1 17.65 15 10.85 15.4 10.7 15.75 10.85 M15.6 12.95 L20.25 17.85 Q20.55 18.2 20.25 18.55 L15.55 23.45 15.2 23.6 14.85 23.45 9.95 18.55 9.8 18.2 9.95 17.85 14.9 12.95 Q15.05 12.8 15.25 12.8 L15.6 12.95 M19.2 18.2 L15.25 14 11 18.2 15.2 22.35 19.2 18.2 M1.1 21.7 Q1.45 21.4 1.8 21.7 L13.25 33.8 Q13.55 34.15 13.25 34.5 L5.7 42.05 5.35 42.15 Q5.15 42.2 5 42.05 4.7 41.65 5 41.3 L12.2 34.1 1.05 22.4 Q0.8 22.05 1.1 21.7 M2.2 25.35 L10.1 33.6 Q10.4 33.95 10.1 34.3 L5 39.65 4.65 39.8 4.3 39.7 Q4 39.35 4.25 38.95 L9.05 33.95 1.5 26.05 Q1.2 25.65 1.5 25.3 L2.2 25.35 M2.95 29.75 L6.7 33.65 Q6.95 34 6.7 34.35 L4.25 36.95 3.9 37.1 3.55 36.95 Q3.25 36.65 3.55 36.25 L5.65 34 2.2 30.45 Q1.95 30.05 2.25 29.7 L2.95 29.75 M3.5 32.65 L4.65 33.85 Q4.9 34.2 4.65 34.55 L3.9 35.3 3.55 35.45 3.2 35.35 Q2.9 35 3.2 34.65 L3.6 34.2 2.75 33.35 Q2.5 32.95 2.8 32.6 L3.5 32.65 M14.95 35.55 L15.3 35.7 28.65 49.7 Q28.95 50.05 28.65 50.4 L16.7 62.85 16.35 63 16 62.85 Q15.7 62.5 16 62.15 L27.6 50.05 14.95 36.75 6.65 44.95 5.95 44.9 Q5.7 44.55 5.95 44.2 L14.6 35.7 14.95 35.55 M15.55 39.15 L25.45 49.55 Q25.75 49.9 25.45 50.25 L15.5 60.55 15.15 60.7 14.8 60.55 12.25 58 Q11.95 57.65 12.25 57.3 12.6 57 12.95 57.3 L15.1 59.5 24.4 49.9 15.2 40.2 7.7 47.65 Q7.35 47.95 7 47.65 6.7 47.3 7 46.95 L14.85 39.15 Q15 39 15.2 39 15.4 39 15.55 39.15 M15.35 24.25 L21.25 18.1 15.35 11.9 9.15 18 15.35 24.25 M28.75 31.65 Q29.05 32.05 28.75 32.4 L26.9 34.2 31.1 38.35 35.1 34.2 34.1 33.15 Q33.8 32.8 34.1 32.45 34.45 32.15 34.8 32.45 L36.15 33.85 Q36.4 34.2 36.15 34.55 L31.5 39.4 31.15 39.6 31.1 39.6 30.75 39.45 25.8 34.55 25.65 34.2 25.85 33.85 28.05 31.65 Q28.4 31.35 28.75 31.65 M27.9 30.5 Q28.2 30.9 27.9 31.25 L25 34 31.25 40.25 37.2 34.05 35.3 32.05 Q35 31.7 35.3 31.35 35.65 31.05 36 31.35 L38.25 33.75 Q38.5 34.05 38.25 34.4 L31.6 41.3 31.25 41.45 30.9 41.3 23.95 34.35 23.8 34 Q23.8 33.8 23.95 33.65 L27.2 30.5 Q27.6 30.25 27.9 30.5 M31.2 51.7 L40.65 61.6 Q40.95 61.95 40.65 62.3 40.3 62.6 39.95 62.3 L30.8 52.75 18.7 64.7 18.35 64.85 17.95 64.7 Q17.7 64.35 18 64 L30.45 51.7 30.85 51.55 31.2 51.7 M39.5 50.2 Q39.5 49.95 39.65 49.85 L46.65 42.95 Q46.8 42.8 47 42.8 47.2 42.8 47.35 42.95 L50.85 46.65 Q51.15 47 50.85 47.35 50.5 47.65 50.15 47.35 L47 44 40.7 50.2 45.7 55.2 Q46 55.55 45.7 55.9 L45.35 56.05 45 55.9 39.65 50.55 39.5 50.2 M22.05 50.3 L15.45 57.15 15.05 57.3 14.7 57.2 8.4 50.85 Q8.1 50.55 8.3 50.2 L8 50.05 Q7.75 49.7 8 49.35 L14.7 42.7 Q14.85 42.55 15.05 42.55 L15.1 42.55 15.45 42.7 22.05 49.6 Q22.35 49.95 22.05 50.3 M20.35 66.15 L20.2 65.8 Q20.2 65.6 20.35 65.45 L30.75 55.15 Q30.95 55 31.15 55 L31.5 55.15 39.1 63.2 Q39.35 63.55 39.05 63.9 L38.35 63.85 31.1 56.2 21.4 65.8 21.6 66 Q21.85 66.35 21.6 66.7 L21.25 66.85 20.85 66.7 20.35 66.15 M23.5 65.85 L23.65 65.5 30.65 58.7 Q30.8 58.55 31 58.55 L31.35 58.7 37.1 64.7 Q37.4 65.05 37.1 65.4 L36.4 65.35 31 59.75 24.7 65.9 26.45 67.65 Q26.75 68 26.45 68.35 L26.1 68.5 25.75 68.35 23.65 66.25 23.5 65.85 M25.45 66.05 Q25.45 65.85 25.6 65.7 L30.45 60.8 30.85 60.65 31.2 60.8 35.7 65.6 Q36 65.95 35.7 66.3 35.35 66.6 35 66.3 L30.8 61.9 26.65 66.05 28.35 67.75 Q28.65 68.1 28.35 68.45 L28 68.6 27.65 68.45 25.6 66.4 25.45 66.05 M14.95 44.65 L15.3 44.85 19.95 49.7 Q20.25 50.05 19.95 50.4 L15.25 55.3 14.9 55.45 14.55 55.3 9.65 50.4 9.5 50.05 9.65 49.7 14.6 44.8 14.95 44.65 M14.9 54.25 L18.9 50.05 14.95 45.9 10.7 50.05 14.9 54.25 M9.1 50.15 L15.05 56.1 21 49.95 15.05 43.75 8.8 50 Q8.95 50 9.1 50.15 M46.8 45 L47.2 45.15 50 48.15 Q50.3 48.5 50 48.85 49.65 49.15 49.3 48.85 L46.8 46.2 42.65 50.35 46.45 54.2 Q46.75 54.5 46.45 54.9 L46.1 55.05 45.75 54.9 41.55 50.7 Q41.3 50.35 41.55 50 L46.45 45.1 46.8 45"/>
    <path stroke="none" fill="#a56701" d="M55.5 3.65 L55.7 3.75 56 4 Q57.15 4.9 57.9 6.1 59.55 8.5 59.95 12.6 L60 14.4 59.95 16.95 59.6 20.5 59.6 20.7 58.8 25.4 58.15 28.5 57.8 30.15 55.9 36.9 54.85 39.95 54.45 41.05 54.4 41.25 53.8 42.75 53.25 43.95 52.8 45 52.5 45.6 51.6 47.55 51.4 47.85 51.1 48.35 50.8 48.95 50.75 49.05 47.15 55.15 47.05 55.25 46.45 56.15 45.55 57.45 45.05 58.1 43.7 60 43.35 60.45 43.25 60.55 42.7 61.15 42.5 61.4 41.8 62.15 41.7 62.25 41.2 62.8 40.65 63.3 39.55 64.4 39.5 64.5 38.15 65.5 38.05 65.6 37.55 65.9 37.45 66.05 Q36.85 66.4 36.35 66.7 L36.2 66.8 35.95 67 Q32.1 69.2 28 69.3 L27.85 69.3 26 69.2 24.5 69 24.1 68.9 Q22.25 68.35 20.6 67.4 L17.5 65.25 17.05 64.85 16.5 64.4 15.4 63.25 Q13.2 61 11.55 58.35 L11.25 57.8 11.15 57.65 Q9.15 54.4 7.65 51.05 L7.2 50.1 6.2 47.7 5.15 44.95 4.9 44.25 4.7 43.7 4.65 43.6 4.4 42.75 4.15 42.05 3.45 39.6 2.7 36.8 2.3 35.2 1.9 33.2 1.35 30.3 1.15 29.25 0.6 25.8 0.6 25.55 0.2 22.1 0 17.95 0.05 16.15 0.2 14.3 Q0.45 11.95 1.2 9.55 2.95 4.2 7.3 1.6 8.25 1 9 0.7 L10.15 0.25 12 0 Q14 -0.1 15.95 0.95 L17.05 1.65 17.2 1.8 19.5 4.2 19.6 4.35 Q21.05 6.45 22.35 9.85 L23.7 14.6 24.1 16.55 24.75 19.6 25.45 22.3 25.65 23.1 25.9 24 26.2 24.75 26.45 25.55 27.5 28.05 28.6 30.15 28.8 30.4 29.35 31.15 30 31.8 Q32.15 32.9 33.7 31.75 L34.7 30.85 35.95 28.95 36.9 26.95 37.2 26.15 37.5 25.5 37.55 25.3 37.9 24.1 38.4 22.5 38.6 21.2 39 18.4 39 18.3 39 18.05 Q39.4 15.75 40.05 13.5 41.3 9.3 43.15 6.6 44.35 4.9 45.45 4 46.65 3.1 47.75 2.7 48.45 2.35 49.3 2.25 52.15 1.65 55.25 3.45 L55.5 3.65 M48.8 4.95 L48.7 5.05 Q47.85 5.3 47 5.95 46.2 6.65 45.15 8.05 43.6 10.4 42.45 14.2 41.85 16.25 41.5 18.4 L41.5 18.5 41.45 18.75 41.05 21.5 40.85 22.9 40.85 23.05 40.3 24.95 Q40.05 25.5 39.95 26 L39.85 26.3 39.5 27.15 39.25 27.85 38.15 30.15 36.65 32.45 36.55 32.55 35.15 33.8 Q33.15 35.75 28.7 33.9 L28.55 33.8 27.5 32.85 27.45 32.8 26.75 31.85 26.55 31.55 25.25 29.15 24.1 26.4 23.8 25.6 23.55 24.75 23.25 23.75 23.05 23 22.3 20.2 21.6 16.95 21.25 15.15 20 10.7 Q18.85 7.7 17.6 5.85 L15.45 3.55 14.75 3.1 Q13.45 2.45 12.05 2.5 L10.85 2.65 10.15 2.95 9.9 3.05 Q9.4 3.2 8.6 3.7 5.05 5.85 3.6 10.35 2.9 12.45 2.65 14.55 L2.55 16.25 2.55 16.35 2.5 17.95 2.7 21.9 3.05 25.2 3.1 25.45 3.6 28.75 3.8 29.85 4.35 32.7 4.75 34.6 5.15 36.3 5.8 38.9 5.85 39 6.5 41.2 6.8 42.05 7 42.75 7.25 43.45 7.45 44.05 7.5 44.15 8.5 46.75 9.5 49.15 9.6 49.35 9.8 49.8 9.85 49.9 Q11.4 53.2 13.25 56.3 L13.4 56.55 13.6 56.9 13.65 56.95 Q15.15 59.4 17.25 61.6 L18.15 62.5 18.25 62.6 18.65 62.95 19.2 63.45 21.8 65.2 Q23.25 66.05 24.75 66.45 L25.1 66.55 26.25 66.7 27.85 66.8 27.95 66.8 Q31.4 66.75 34.75 64.8 L34.85 64.75 35.05 64.6 35.95 64 36.1 63.9 36.6 63.55 37.95 62.5 38.85 61.6 39.4 61.05 39.9 60.55 40.65 59.75 41.4 58.85 41.7 58.5 43 56.65 43.5 55.95 44.3 54.85 45.05 53.75 48.55 47.9 48.95 47.1 49.15 46.75 49.35 46.4 50.25 44.6 50.5 44 51 42.9 51.45 41.9 52.1 40.3 52.55 39.05 53.5 36.15 55.4 29.65 55.7 27.95 56.35 24.95 57.1 20.4 57.1 20.2 57.45 16.8 57.5 14.4 57.45 12.85 Q57.15 9.4 55.8 7.45 L54.5 6 54.3 5.85 53.85 5.55 Q51.7 4.3 49.75 4.7 L48.8 4.95"/>
  </g>
</svg>