<svg width="92.25px" height="71.7px" viewBox="0 0 92.25 71.7" xmlns="http://www.w3.org/2000/svg" xmlns:xlink="http://www.w3.org/1999/xlink">
  <defs/>
  <g>
    <path stroke="none" fill="#000000" d="M66.8 65.25 L66.85 65.55 67 65.8 66.85 65.45 66.8 65.25 M23 28.15 L22.95 28.15 22.95 28.5 23 28.15 M78.65 8.4 L78.7 8.45 78.7 8.4 78.65 8.4 M4 37.45 Q3.75 27.95 5.1 21.35 6.85 13.2 11.1 9.4 L11.6 8.9 13.05 7.7 Q14 6.9 15.25 6.45 L15.5 6.35 15.7 6.25 15.95 6.15 16.1 6.05 Q17.35 5.6 18.6 5.5 L20.6 5.6 22.6 6 23.15 6.2 Q26.85 7.95 29.1 13.2 L29.15 13.35 Q30.1 16.9 29.85 21.4 L29.8 21.7 29.8 21.85 29.8 21.95 29.75 22.25 29.4 24.3 Q28.75 28.9 28.8 31.6 L28.8 31.85 Q29 36.3 30.7 38.25 L31.7 39.1 32.3 39.45 Q33.35 39.95 34.25 40.05 37.15 39.2 38.25 34.8 39.15 32 40.7 29.95 L41.3 29.3 42.3 28.35 Q43.55 27.45 45.1 26.95 L48.35 26.45 48.75 26.45 Q51.1 26.45 53.2 27.9 54.2 28.6 55 29.55 L55.15 29.7 56.05 30.85 56.2 31.1 Q58.45 36.5 61.1 37.8 L62.7 38.2 63.95 38.05 64.4 38 64.55 38 65.25 37.55 65.55 37.3 66.05 36.9 66.85 35.85 Q68.9 32.55 68 25.85 65.4 14.95 68.15 7.7 L68.25 7.5 68.95 6.45 Q71.1 3.5 75.2 2.85 L75.35 2.85 78.75 2.8 78.9 2.8 80.35 3.05 80.6 3.15 80.7 3.15 82.1 3.65 83.25 4.25 Q84.5 4.9 85.95 6.35 L86.1 6.5 86.35 6.8 86.75 7.25 87.4 8.15 87.6 8.45 Q90.2 12.35 91.35 19.3 L91.7 21.85 91.7 21.95 92 24.8 92 25.3 92.05 26.4 92.15 28.1 92.2 29.8 92.25 31.15 92.25 31.35 92.25 33.4 92.2 34.9 92.15 36.4 92.15 36.9 92.15 37.05 Q91.3 48.75 86.65 56.65 L86.15 57.4 83.9 60.6 83.15 61.45 82.4 62.35 82 62.75 Q79.05 65.7 75.45 67.7 L75.2 67.8 74.9 68 74.65 68.15 74.45 68.25 74.35 68.35 71.5 69.6 71.4 69.65 69.95 70.15 69.8 70.2 65.95 70.85 64.55 70.9 62.1 70.65 61 70.45 Q56.9 69.5 52.95 66.6 L52.85 66.5 50.65 64.75 50.6 64.7 50.45 64.5 Q48.4 63.1 46.55 63.3 L46.3 63.35 Q44.4 63.55 42.35 65.45 L41.45 66.35 41.3 66.45 41 66.7 39.85 67.65 Q34.6 71.7 29.75 71.7 L28.95 71.7 24.9 71.45 24.6 71.35 23.35 71.1 23.15 71.05 Q18.6 69.85 15.3 66.9 L15.05 66.65 Q12.3 64.2 10.1 60.4 L10 60.15 8.9 58.05 8.8 57.8 Q6.9 53.7 5.85 49.5 L5.1 46.75 Q4.1 42.1 4 37.45"/>
    <path stroke="none" fill="#fffc67" d="M1.3 34.55 Q1 25.2 2.4 18.85 L2.6 17.95 Q4.25 10.9 8 7.55 L8.55 7 11.25 4.55 15.1 3.45 18.8 4.25 Q22.05 5.85 24 10.95 24.8 13.95 24.7 17.95 L24.65 18.55 24.35 25.15 Q24.1 31 24.45 33.65 25.2 35.6 27.55 37 L30.2 38.55 Q32.9 38.5 34.75 34.55 L35.5 32.45 Q36.25 29.65 37.5 27.85 L39.95 25 43.5 24.5 44.1 24.35 45.1 24.55 47.35 24.5 50.55 27.3 51.1 28.8 Q52.65 32.55 54.45 34.55 55.45 35.65 56.6 36.15 L59.6 36.3 63.05 34.95 63.4 34.55 63.95 33.75 Q66.3 30.05 65.25 22.85 64.65 20.3 64.35 17.95 63.4 10.6 65.4 5.4 L66 4.5 Q67.9 1.9 71.4 1.35 L77.45 1.5 82.45 6.5 82.65 6.4 Q85.2 10.1 86.4 16.7 L87.7 25.45 87.45 33.5 87.15 35.2 Q86.3 44.5 82.75 51.15 L82.05 53.25 80.7 55.95 77.15 59.25 Q74.35 62 70.9 63.85 L63.65 67.4 57.25 66.45 Q53.45 65.55 49.75 62.85 L46.7 60.9 Q43.9 59.2 41.6 59.5 39.95 60.15 37.65 61.9 L35.1 63.95 Q29.85 68 25 67.7 L20.35 67.75 11.65 63.55 5.65 55.3 4.55 51.15 3.1 46.45 2.4 43.65 Q1.4 39.2 1.3 34.65 L1.3 34.55"/>
    <path stroke="none" fill="#fffc67" d="M42.5 59.25 L42.35 59.25 42.25 58.9 42.5 59.25"/>
    <path stroke="none" fill="#c8daff" d="M86.8 23.6 L86.9 23.6 87 27.1 87.1 28.55 87.1 29.15 87.1 30.6 86.95 30.4 86.8 30 86.3 29.2 86.6 30 86.7 30.8 Q86.65 31.6 86.05 32.3 85.15 33.2 83.6 32.7 82.75 32.45 82.2 31.25 L82.15 31.2 82.05 31.2 Q81.8 30.4 81.85 29.4 L81.85 29.2 82 28.55 81.6 29.15 81.55 29.35 81 29.9 Q79.55 31.45 77.65 30.5 77.05 30.2 76.75 29.55 76.5 28.95 76.4 28.15 76.5 27.6 76.75 27.15 L76.8 27.05 77.45 26.3 Q77.9 25.95 78.55 25.85 L79.5 25.55 79.7 25.6 Q79.6 26.1 79.8 26.55 80.05 27.65 81.25 28.25 L82 28.5 82.05 28.5 83.7 28.35 83.9 28.3 85.1 27.75 85.75 27 Q86.45 25.95 86.2 24.85 L85.65 23.85 86 23.8 86.5 23.65 86.8 23.6"/>
    <path stroke="none" fill="#c8daff" d="M82.15 22.65 L82.05 22.35 82.05 22.4 82.15 22.65 M86.8 22.1 L86.15 23.3 85.75 23.65 85.55 23.8 85.45 23.65 84.7 23.2 83.85 22.95 82.25 23 82.05 23 Q81.3 23.25 80.8 23.65 L80.1 24.4 Q79.85 24.85 79.75 25.5 L79.5 25.4 79.15 25.35 79.1 25.3 78.85 25.25 78.5 25.1 78.5 25.05 Q77 24.45 76.75 23.3 L76.65 22.2 76.75 22 Q77 20.85 78.35 20.25 78.4 20.15 78.5 20.15 79.35 19.9 80.55 20.45 L81.2 21.15 82 22.1 82 21.3 Q81.95 20.8 82.05 20.35 82.4 19 83.85 18.55 85.25 18.15 86.5 19.3 L86.8 22.1"/>
    <path stroke="none" fill="#c8daff" d="M10.6 5.65 L11.8 5.1 12.35 4.6 12.6 4.45 Q13.6 4.1 14.75 4 L16.6 4.05 15.95 5.2 15.75 5.4 15.55 5.55 14.1 5.9 Q13.1 5.9 12.05 5.3 L12 5.3 12.05 5.35 12.45 5.85 12.55 6.05 12.9 6.45 13.3 7.35 13.45 8.15 Q13.4 8.95 12.75 9.65 11.85 10.55 10.3 10.05 9.45 9.8 8.9 8.6 L8.85 8.55 8.8 8.55 8.55 7 9.8 5.9 10.4 5.75 10.6 5.65"/>
    <path stroke="none" fill="#ff6699" d="M9.4 22.4 Q9.85 20.25 11.9 19.45 12.9 19 13.8 18.95 L15.55 19.2 Q18.5 20.2 19.05 25.35 18.5 23.6 17.55 22.65 16.25 21.45 14.85 21.4 12.55 21.7 11.75 23.6 10.6 26.25 13.1 28.2 L13 28.2 Q8.75 25.55 9.4 22.4"/>
    <path stroke="none" fill="#ff6699" d="M9.1 31.5 Q8.65 33.9 10 35.25 12.1 37.25 14.8 35.6 L14.85 35.75 Q10.8 38.7 8.1 37 6.2 35.8 6.15 33.5 6.15 32.45 6.4 31.65 L7.3 30.05 Q9.25 27.7 14.25 29.15 L11.2 29.45 Q9.6 30.25 9.1 31.5"/>
    <path stroke="none" fill="#ffccff" d="M10 35.25 Q8.65 33.85 9.1 31.5 9.55 30.25 11.25 29.45 L14.25 29.15 14.6 29.25 Q14.3 29.9 14.3 30.6 14.3 32.3 15.7 33.45 L16.65 34.1 15.95 34.8 15.85 34.8 15.7 35.05 14.8 35.6 Q12.15 37.25 10 35.25"/>
    <path stroke="none" fill="#ff6699" d="M24.25 21.45 Q23.65 21.15 22.95 21.2 20.05 21.3 19.25 24.25 L19.2 24.25 Q19.9 19.25 23.05 18.6 L24.7 18.55 Q24.6 18.8 24.65 19.1 L24.65 19.2 24.25 21.45"/>
    <path stroke="none" fill="#ffccff" d="M22.95 21.2 L24.25 21.45 Q23.6 25.7 23.65 28.85 L23.65 29.1 Q23.85 34 25.85 36.3 L23.95 36.25 Q22.7 35.8 21.35 34.6 L21.1 34.4 21.3 34.65 21.7 35.45 21.85 35.75 22.1 36.45 Q23.05 39.4 20.9 40.75 19.25 41.65 17.3 40.45 16.25 39.75 15.8 37.85 15.7 36.65 16.1 35 L16.65 34.1 16.7 34.1 Q17.75 34.65 19 34.65 L21.05 34.25 22.35 33.45 Q23.7 32.3 23.7 30.6 23.7 29.8 23.35 29.15 L23.35 29 22.35 27.8 Q21 26.6 19 26.65 17.05 26.6 15.7 27.8 15.05 28.4 14.65 29.15 L14 28.75 13.9 28.75 13.15 28.2 Q10.6 26.3 11.75 23.6 12.55 21.7 14.9 21.45 16.3 21.45 17.55 22.65 18.55 23.65 19.05 25.35 L19.25 24.3 Q20.05 21.3 22.95 21.2"/>
    <path stroke="none" fill="#ff6699" d="M17.15 28.4 Q16.15 28.8 15.95 29.6 15.7 30.45 16.35 31.25 16.95 32.05 18.1 32.35 L20.2 32.25 Q21.2 31.85 21.4 31.05 21.6 30.25 21 29.45 20.35 28.6 19.2 28.35 L17.15 28.4 M23.35 29.15 Q23.7 29.75 23.7 30.6 23.7 32.3 22.35 33.4 L21.05 34.2 19 34.65 16.7 34.1 16.65 34.1 15.7 33.4 Q14.3 32.25 14.3 30.6 14.3 29.9 14.6 29.25 L14.65 29.15 15.7 27.75 Q17.1 26.6 19 26.6 21 26.6 22.35 27.75 L23.35 28.95 23.35 29.15"/>
    <path stroke="none" fill="#ff6699" d="M23.2 36.7 L22.6 36.1 21.35 34.6 23.95 36.25 25.8 36.3 27.15 37.45 27.8 37.8 Q29.05 38.45 30.2 38.5 26.15 40.05 23.2 36.7"/>
    <path stroke="none" fill="#ff6699" d="M16.8 42.9 Q15.1 41.8 14.85 39.65 14.75 37.65 16.1 35 15.7 36.65 15.8 37.85 16.25 39.7 17.35 40.45 19.25 41.6 20.9 40.75 23 39.45 22.2 36.75 L22.75 38.55 Q23 39.9 22.7 41.05 L22.65 41.15 Q22.1 42.8 20.65 43.25 L20.45 43.4 18.55 43.65 Q17.4 43.35 16.8 42.9"/>
    <path stroke="none" fill="#ff6699" d="M74 6.2 L74 6.25 Q71.75 8.5 70.05 7.6 69.1 7.15 68.8 6.25 68.35 3.45 71.5 2.25 L73.2 2.3 Q72.15 2.25 71.4 2.7 70.4 3.35 70.25 4.15 70.1 5.6 71.1 6.4 72.55 7.5 74 6.2"/>
    <path stroke="none" fill="#ffccff" d="M74.15 1.25 Q73.7 1.7 73.5 2.3 73.3 2.7 73.25 3.2 73.15 4.35 73.9 5 L74.75 5.6 74.5 5.8 73.95 6.2 Q72.5 7.45 71.05 6.4 70.05 5.6 70.25 4.15 70.4 3.35 71.35 2.7 72.1 2.25 73.2 2.3 L72.65 2.1 72.5 1.95 71.8 1.65 Q71.35 1.5 71.45 1.3 L74.15 1.25"/>
    <path stroke="none" fill="#ff6699" d="M77.75 2.1 L77.65 1.95 78.7 2.5 78.7 2.75 78.65 2.95 Q78.5 3.95 77.65 4.75 76.9 5.55 75.75 5.65 L74.75 5.6 73.9 5 Q73.2 4.35 73.25 3.2 L73.5 2.3 Q73.75 1.7 74.15 1.25 L74.2 1.25 74.85 1.25 76.4 1.55 Q75.95 1.6 75.6 1.85 75 2.2 74.7 2.75 74.45 3.4 74.7 3.8 75 4.3 75.6 4.35 L76.9 4.1 77.75 3.1 Q78 2.5 77.75 2.1"/>
    <path stroke="none" fill="#ff6699" d="M81.8 5.25 L82.65 6.4 82.45 6.45 Q80.95 7.25 79 5.8 L78.95 5.75 78.3 5.3 79.2 5.75 80.1 5.85 Q81.2 5.8 81.8 5.25"/>
    <path stroke="none" fill="#ffccff" d="M78 5.1 L78.25 5.4 78.6 5.85 78.75 6.05 Q79.55 7.65 78.3 8.85 77.45 9.7 76.1 9.45 75.25 9.1 74.8 8.3 L74.75 8.1 Q74.5 7.3 74.55 6.25 L74.75 5.65 75.7 5.7 Q76.85 5.6 77.65 4.8 78.5 3.95 78.6 2.95 L78.7 2.8 78.7 2.55 81.15 4.5 81.8 5.25 Q81.2 5.8 80.15 5.85 L79.2 5.75 78.3 5.35 78 5.1"/>
    <path stroke="none" fill="#ff6699" d="M74.5 6.45 L74.55 6.25 Q74.5 7.3 74.75 8.1 L74.8 8.3 Q75.25 9.1 76.1 9.45 77.45 9.7 78.3 8.85 79.55 7.65 78.75 6.05 80.45 8.5 79.45 10.1 78.75 11.25 77.3 11.2 L76.15 11.05 75.2 10.6 Q74.35 9.85 74.25 8.6 74.15 7.65 74.5 6.45"/>
    <path stroke="none" fill="#c8daff" d="M44.25 25.25 L44.8 24.95 Q46.8 24.95 48.55 26.15 48.2 27.15 46.85 27.75 L46.55 27.8 46.3 27.85 44.85 27.4 Q44.05 26.95 43.4 25.85 L43.35 25.8 43.35 25.9 43.5 26.5 43.5 26.75 43.55 27.3 43.5 28.25 43.15 29 Q42.75 29.65 41.85 30 40.6 30.3 39.5 29.1 38.95 28.45 39 27.2 L39 27.05 38.95 27.05 39.05 26.65 Q40.15 25.85 41.55 25.35 L41.8 25.45 41.95 25.5 43.25 25.6 44.25 25.25"/>
    <path stroke="none" fill="#ff6699" d="M58.7 36.7 L58.55 36.95 58.35 37.2 58.1 38.4 Q58.2 39.6 59.55 40.8 L59.55 40.85 59.6 40.9 59.5 40.85 59.45 40.85 57.8 39.65 Q56.25 38.15 56.55 36.5 L56.55 36.25 56.6 36.15 58.7 36.7"/>
    <path stroke="none" fill="#ffccff" d="M61 36.4 L62.1 35.75 63.1 36.4 63.65 37.3 64.2 38.55 64.45 37.75 64.75 36.75 Q65.55 35.35 67.25 35.25 68.9 35.35 69.95 36.9 L70.05 38.15 69.8 39.15 Q69.45 40.3 68.35 41.1 L67.8 41.4 67.55 41.45 67.45 41.35 66.85 40.55 66 40.1 Q65.2 39.65 64.2 39.65 L64 39.65 62.4 39.95 61.5 40.55 60.7 41.7 59.85 41.1 59.6 40.9 59.55 40.85 59.55 40.8 Q58.2 39.6 58.1 38.4 L58.35 37.2 58.5 36.95 58.7 36.7 60.25 36.5 61 36.4"/>
    <path stroke="none" fill="#ff6699" d="M57 42.6 Q56.55 42.9 56.35 43.55 56.2 44.4 56.3 45.2 56.5 45.95 57 46.5 58.75 48.05 60.8 46.8 L61.25 46.6 61.4 46.5 60.95 46.9 Q57.65 49.15 55.55 48 L55.45 47.85 Q54 47 54 45.1 L54.2 43.65 54.9 42.4 Q55.4 41.8 56.1 41.55 L57.4 41.25 59.35 41.35 59.55 41.35 60.05 41.5 60.4 41.6 59.35 41.7 58 41.85 57.1 42.5 57 42.6"/>
    <path stroke="none" fill="#ffccff" d="M58 41.85 L59.35 41.7 60.4 41.6 60.7 41.7 Q60.45 42.25 60.45 42.8 60.45 44.05 61.55 45.05 L62.35 45.6 62.4 45.65 64.25 45.9 64.45 45.9 65.95 45.7 66.85 45 Q67.95 44.15 67.95 42.8 L67.65 41.6 68.05 41.65 68.6 41.65 68.95 41.6 Q69.8 41.7 70.45 42.15 L71.1 42.7 71.2 42.85 71.7 44.25 Q71.95 45.8 70.4 46.95 L70.05 47.15 69.85 47.2 Q69.15 47.5 68.2 47.2 67.15 46.95 66.15 45.95 L66.05 45.95 66.05 46 66.45 46.65 66.65 47.45 66.9 48.55 66.9 48.6 66.8 49.45 Q66.5 50.25 65.65 50.9 64.35 51.65 62.8 50.65 62 50 61.7 48.65 L61.65 48.6 Q61.6 47.5 61.95 46.3 L62.35 45.65 61.65 46.2 61.55 46.35 61.25 46.6 60.8 46.8 Q58.75 48.05 57 46.5 56.45 45.95 56.3 45.2 56.2 44.4 56.35 43.55 56.55 42.9 57 42.65 L57.05 42.5 58 41.85"/>
    <path stroke="none" fill="#ff6699" d="M61.7 42 Q61.55 42.65 62.1 43.35 L62.8 43.95 63.45 44.2 64.85 44.25 65.15 44.1 66.1 43.15 Q66.2 42.5 65.75 41.9 L65.6 41.65 64.3 40.9 63.65 40.85 62.7 41.1 Q61.9 41.3 61.7 42 M60.45 42.8 Q60.45 42.25 60.7 41.7 L61.5 40.55 Q61.9 40.2 62.4 39.95 L64 39.65 64.2 39.65 66 40.05 66.85 40.55 67.45 41.35 67.55 41.45 67.65 41.6 67.95 42.8 Q67.95 44.15 66.85 44.95 L65.95 45.7 64.45 45.85 64.25 45.85 62.4 45.65 62.3 45.55 61.55 45 Q60.45 44.05 60.45 42.8"/>
    <path stroke="none" fill="#ff6699" d="M78.5 25.1 L78.45 25.1 78.5 25.05 78.5 25.1"/>
    <path stroke="none" fill="#ff6699" d="M71.7 36.05 L71.75 36.65 Q71.85 37.65 71.35 38.55 70.65 39.9 68.4 41.1 69.45 40.3 69.85 39.2 L70.05 38.15 Q70.2 37.55 69.95 36.9 68.95 35.35 67.3 35.25 65.6 35.35 64.75 36.8 64.55 37.1 64.45 37.75 L64.4 37.75 64.5 37.15 Q64.75 35.65 65.35 34.65 L65.55 34.4 Q66.35 33.45 67.4 33.2 69.15 32.8 70.5 34.05 L71.4 35.25 71.7 36.05"/>
    <path stroke="none" fill="#ff6699" d="M63.05 34.95 Q63.65 35.8 63.9 37 L64.2 38.55 63.65 37.3 63.15 36.4 62.1 35.75 63.05 34.95"/>
    <path stroke="none" fill="#ff6699" d="M69 41.6 L71.3 41.9 71.45 41.95 Q72.4 42.25 73.05 42.8 73.55 43.25 73.8 44.1 74.45 45.7 73.25 47.15 L72.25 48.25 70.9 48.8 69.65 48.8 69.45 48.7 Q68.25 48.4 67.2 47.2 L66.15 45.95 Q67.2 46.95 68.2 47.2 69.2 47.5 69.9 47.2 L70.05 47.15 70.45 46.95 Q72 45.8 71.7 44.25 71.65 43.45 71.2 42.85 L71.1 42.7 70.5 42.15 Q69.85 41.7 69 41.6"/>
    <path stroke="none" fill="#c8daff" d="M77.9 53.9 Q77.25 52.9 77.8 51.9 78.35 51 79.7 50.95 80.45 51 81.05 51.75 81.55 52.35 81.6 53.25 L81.2 53.9 80.75 53.95 Q79.95 54.4 79.3 55.25 L79.3 55.35 Q78.8 56.25 78.95 57.05 L77.5 58.75 Q76.5 58.7 75.9 57.9 75.3 57 75.75 55.85 76.1 55.15 77.05 54.85 L77.8 54.8 78.7 54.95 78.9 55 78.95 55 78.9 54.95 78.7 54.85 78.3 54.5 77.9 53.9"/>
    <path stroke="none" fill="#ff6699" d="M67.1 48.6 L67.15 49.15 67.3 49.55 67.15 51.05 67.1 51.2 Q66.7 52.45 65.55 52.95 L65.4 52.95 64.35 53.2 64.1 53.2 Q61.25 52.7 60.95 49.4 L61 48.95 Q61.2 47.8 61.85 46.55 L62 46.3 Q61.6 47.5 61.65 48.6 L61.75 48.65 Q62 50 62.8 50.65 64.4 51.6 65.65 50.9 66.5 50.25 66.8 49.45 L66.95 48.6 66.95 48.55 66.7 47.45 67.1 48.45 67.1 48.6"/>
    <path stroke="none" fill="#ff6699" d="M62.75 61.15 Q62.7 59.8 62.95 58.8 L63.05 58.55 Q63.5 57.55 64.4 57.1 L67.25 57.15 68.25 57.95 68.4 58.15 68.65 58.45 Q69.25 60.35 68.7 62.15 L68.25 63.15 67.95 63.45 Q68.4 62.65 68.3 61.8 68.45 58.4 65.55 58.85 L64.75 58.9 Q63.3 59.35 62.95 60.75 L62.9 61.7 62.85 61.7 62.75 61.15"/>
    <path stroke="none" fill="#ffccff" d="M62.95 62.65 L62.95 62.8 63.05 63 62.95 62.65 M62.9 61.7 Q62.85 61.15 62.95 60.7 63.3 59.35 64.75 58.9 L65.55 58.85 Q68.45 58.4 68.3 61.8 68.4 62.6 67.95 63.45 L67.35 64 67.25 64.1 67.35 64.05 67.65 64 69.1 64.05 69.7 64.4 69.85 64.45 67.15 65.65 67.05 65.25 66.8 64.7 66.7 64.45 66.45 64.15 66.35 64.05 65.6 63.55 64.75 63.3 63.15 63.4 62.95 63.4 Q62.2 63.6 61.7 64.05 L61 64.75 Q60.75 65.2 60.65 65.85 L60.4 65.8 60.05 65.75 60 65.65 59.75 65.6 59.4 65.5 59.4 65.45 Q57.9 64.8 57.65 63.7 L57.55 62.6 57.65 62.35 Q57.9 61.25 59.25 60.6 L59.4 60.55 61.45 60.85 62.1 61.5 62.9 62.45 62.9 61.7"/>
    <path stroke="none" fill="#ff6699" d="M67.65 63.95 L68.25 63.85 69.7 63.65 69.9 63.65 70.9 63.85 70.45 64.05 69.8 64.45 69.7 64.35 69.1 64 67.65 63.95"/>
    <path stroke="none" fill="#ff6699" d="M59.25 58.85 L59.35 58.85 60.1 59.05 61.05 59.6 62.25 61.2 62.85 62.45 62.1 61.5 61.4 60.85 59.35 60.55 59.25 60.6 Q57.9 61.25 57.6 62.35 L57.55 62.6 57.6 63.7 Q57.9 64.8 59.35 65.45 L59.35 65.5 59.3 65.5 57.6 64.8 Q56 63.9 55.8 62.45 L55.75 62.25 55.85 61.45 Q56 60.6 56.7 59.95 L57 59.7 57.6 59.25 58.15 59.05 59.25 58.85"/>
    <path stroke="none" fill="#c8daff" d="M43.5 47.85 Q44.85 46.55 46.8 47 48.65 47.55 49.35 49.7 49.55 50.45 49.15 51.15 L48.5 52.3 Q47.85 53.4 46.3 54.05 L45.55 54.2 45.25 54.25 45.2 54 44.7 53 43.85 52.1 Q43.05 51.4 41.95 51.1 L41.75 51 39.8 50.85 Q39.2 51 38.55 51.3 L37.4 52.3 36.85 51.85 36.5 51.4 36.45 51.35 Q34.9 49.25 35.35 47.75 L36 46.45 36.25 46.2 Q37.35 45.2 39.3 45.25 L39.45 45.3 Q40.7 45.6 41.7 47.05 L42 48.3 42.3 49.9 42.8 49 43.5 47.85"/>
    <path stroke="none" fill="#c8daff" d="M46.2 54.6 L46.4 54.7 46.8 54.85 Q47.8 55.25 48.4 55.9 L48.9 56.65 49 56.95 Q49.4 57.8 49.15 58.6 49.05 60.15 47.55 61 L47.3 60.8 Q44.9 59.05 42.5 59.25 L42.25 58.9 42.15 58.9 42.2 58.95 42.25 59.35 Q39.9 59.65 37.6 61.75 L37.15 62.25 Q36.65 60.5 37.3 58.05 L37.95 57.4 37.05 57.8 36.8 57.95 Q36.4 58.2 35.85 58.25 33.15 59.1 31.55 56.65 31.15 56.05 31.15 55.05 31.25 54.15 31.75 53.1 32.15 52.55 32.8 52.25 L32.95 52.15 34.15 51.7 35.8 51.9 37 52.15 37.3 52.4 Q36.8 52.95 36.7 53.6 36.35 55.05 37.25 56.5 L38.05 57.35 38.1 57.35 Q38.9 58.15 40 58.3 L40.3 58.35 42.05 58.55 43.35 58.05 Q44.9 57.3 45.25 55.95 L45.25 54.4 45.75 54.55 46.2 54.6"/>
    <path stroke="none" fill="#ff6699" d="M58.35 66.65 L57.25 66.45 57.6 66.25 59.35 65.9 59.55 65.9 59.95 65.9 59.95 66 59.4 66.2 Q58.8 66.3 58.35 66.65"/>
    <path stroke="none" fill="#ffccff" d="M59.45 66.2 L60 66 60.35 65.9 60.6 65.95 60.65 66.85 58.35 66.65 59.45 66.2"/>
    <path stroke="none" fill="#c8daff" d="M12.2 63.15 Q9.4 60.7 7.25 57 L7.25 56.95 7.3 56.95 7.25 56.85 8.4 55.7 8.7 55.55 Q10.45 54.85 12.45 55.85 L13.6 57.15 14.05 58.55 13.9 60.2 13.9 60.35 13.1 61.8 12.2 63.15"/>
    <path stroke="none" fill="#c8daff" d="M12.2 63.2 L12.2 63.15 13.65 61.9 13.95 61.6 14.05 61.45 14.15 61.4 14.2 61.35 14.85 60.8 Q17.45 58.9 19.85 60.65 21.5 62 21.2 64.55 L21.05 65.1 19.5 67 19.5 67.05 Q15.4 66 12.2 63.2"/>
    <path stroke="none" fill="#6699ff" d="M86.8 22.1 L86.8 22.65 86.15 23.3 86.8 22.1"/>
    <path stroke="none" fill="#6699ff" d="M86.7 30.8 L86.6 30 86.15 29.1 86.75 30 86.95 30.45 87.1 30.6 86.95 33.55 86.4 34.05 86.35 34.1 Q85.75 34.55 85.05 34.65 L83.7 34.45 Q82.7 34.15 82.2 33.35 L82.05 33.25 81.85 32.65 Q81.35 31.3 81.85 29.4 81.8 30.4 82.05 31.2 L82.15 31.2 82.2 31.25 Q82.75 32.45 83.6 32.7 85.15 33.2 86.05 32.3 86.65 31.6 86.7 30.8"/>
    <path stroke="none" fill="#6699ff" d="M14.1 5.9 L15.55 5.55 15.75 5.45 15.95 5.2 16.6 4.05 18.4 4.45 18.55 4.55 18.45 4.7 17.85 5.85 16.8 6.65 15.75 6.95 15.55 6.95 Q14.45 6.95 13.2 6.15 L12.05 5.3 Q13.1 5.95 14.1 5.9"/>
    <path stroke="none" fill="#6699ff" d="M8.45 7.65 L8.6 7 8.8 8.55 8.9 8.55 8.95 8.6 Q9.5 9.8 10.35 10.05 11.9 10.55 12.8 9.65 13.4 8.95 13.45 8.15 L13.35 7.35 13 6.55 13.5 7.35 13.7 7.8 13.9 8.15 14.15 9.45 14.15 9.6 Q14.05 10.75 13.15 11.4 L13.1 11.45 11.8 12 10.45 11.8 Q9.45 11.55 8.95 10.65 L8.8 10.6 8.6 10 Q8.2 9 8.45 7.65"/>
    <path stroke="none" fill="#6699ff" d="M11.8 5.15 L10.6 5.7 10.4 5.75 9.8 5.95 Q10.95 5.05 12.35 4.6 L11.8 5.15"/>
    <path stroke="none" fill="#6699ff" d="M38.3 42.65 L39.1 42.7 40.45 43.25 40.6 43.35 41.3 44.05 42.1 45.3 Q42.55 46.5 42.4 48 L42.4 48.95 42.3 49.9 42 48.25 41.7 47.05 Q40.7 45.6 39.45 45.3 L39.25 45.25 Q37.35 45.2 36.25 46.2 L36 46.45 35.35 47.7 Q34.9 49.25 36.45 51.35 L36.05 51 34.55 49.05 Q33.2 46.95 34.1 45.15 L34.15 44.8 Q34.4 44.35 34.8 44 35.45 43.05 36.8 42.75 L37.25 42.75 38.3 42.65"/>
    <path stroke="none" fill="#6699ff" d="M43.25 25.6 L41.95 25.5 41.8 25.45 41.55 25.35 44.4 24.95 44.8 24.95 44.25 25.25 43.25 25.6"/>
    <path stroke="none" fill="#6699ff" d="M43.2 28.95 L43.5 28.25 43.55 27.5 43.7 28.35 43.55 28.75 43.55 29.2 43.1 30.45 43 30.6 Q42.4 31.5 41.25 31.65 L39.8 31.5 38.8 30.65 Q38.1 29.95 38 28.95 L37.95 28.85 38.05 28.15 38.3 27.3 Q38.65 26.85 39.1 26.6 L39 27 39.05 27 39.05 27.15 Q38.95 28.45 39.5 29.05 40.6 30.25 41.85 30 L43.2 28.95"/>
    <path stroke="none" fill="#6699ff" d="M46.35 27.85 L46.6 27.8 Q46.7 27.7 46.9 27.7 48.25 27.15 48.6 26.15 L50.15 27.6 49.3 28.55 48.15 29.25 46.9 29.4 45.8 29.1 45.6 29.05 Q44.7 28.5 44.05 27.2 L43.45 25.85 Q44.1 26.95 44.9 27.4 L46.35 27.85"/>
    <path stroke="none" fill="#6699ff" d="M83.5 16.7 Q84.8 16.1 86.15 16.7 L86.5 19.3 Q85.25 18.15 83.85 18.55 82.4 19 82.05 20.35 L82 21.3 81.95 21.3 81.85 20.75 Q81.8 19.4 82.05 18.4 L82.15 18.15 Q82.6 17.15 83.5 16.7"/>
    <path stroke="none" fill="#6699ff" d="M78.4 18.45 L78.5 18.45 79.25 18.65 Q79.8 18.8 80.2 19.2 L81.4 20.8 82 22.05 81.25 21.1 80.55 20.45 Q79.4 19.9 78.5 20.15 78.45 20.1 78.4 20.2 77.05 20.85 76.75 21.95 L76.7 22.2 Q76.65 22.8 76.75 23.3 77.05 24.4 78.5 25.05 L78.45 25.1 76.75 24.4 Q75.15 23.5 74.95 22.05 L74.9 21.85 75 21.05 Q75.15 20.2 75.85 19.55 L76.15 19.3 76.75 18.85 77.3 18.65 78.4 18.45"/>
    <path stroke="none" fill="#6699ff" d="M77.45 26.35 L76.85 27.05 76.75 27.2 Q76.5 27.6 76.4 28.15 L76.75 29.6 Q77.05 30.25 77.7 30.5 79.55 31.45 81 29.9 L81.1 29.95 Q78.85 32.65 76.75 32.15 L76.65 32.05 Q75.2 31.65 74.8 30 L74.6 28.75 Q74.7 27.95 74.9 27.5 L75.75 26.45 76.75 25.9 78.5 25.55 78.7 25.55 79.15 25.55 79.5 25.55 78.6 25.85 Q77.9 25.95 77.45 26.35"/>
    <path stroke="none" fill="#6699ff" d="M84.1 24.55 L83.85 24.4 Q83.3 24.1 82.65 24.1 L82.05 24.15 81.25 24.55 Q80.65 24.95 80.65 25.6 80.65 26.2 81.25 26.6 81.55 26.9 82.05 27 L82.65 27.05 83.85 26.8 84.1 26.6 Q84.6 26.2 84.7 25.6 84.6 25 84.1 24.55 M85.55 23.8 L85.6 23.85 86.15 24.85 Q86.45 25.95 85.75 27 L85.05 27.75 83.85 28.3 83.65 28.35 82.05 28.5 82 28.5 81.2 28.25 Q80 27.65 79.75 26.55 L79.7 25.6 Q79.65 25.5 79.75 25.45 79.85 24.85 80.1 24.4 L80.8 23.65 Q81.3 23.25 82.05 23 L82.2 23 83.85 22.95 84.7 23.2 Q85.15 23.35 85.4 23.65 L85.55 23.8"/>
    <path stroke="none" fill="#6699ff" d="M79.25 49.5 L80.2 49.8 Q81.75 50.45 81.65 53.25 81.55 52.35 81.1 51.75 80.45 51 79.75 50.95 78.4 51.05 77.85 51.9 77.3 52.9 77.9 53.9 L78.35 54.5 78 54.2 Q77.15 53.55 76.85 52.9 76.4 51.95 76.65 51.15 77.05 50.05 78.2 49.6 L79.25 49.5"/>
    <path stroke="none" fill="#6699ff" d="M79 57.05 Q78.8 56.25 79.35 55.35 L79.35 55.25 Q80 54.4 80.8 53.95 L81.25 53.9 79 57.05"/>
    <path stroke="none" fill="#6699ff" d="M76.25 54.3 L77.75 54.5 78.75 54.95 77.85 54.8 77.1 54.85 Q76.2 55.1 75.8 55.85 75.3 57 75.95 57.9 76.55 58.7 77.55 58.75 L77.2 59.1 Q75.85 59.45 74.9 58.75 L74.8 58.65 74.35 58.2 Q74 57.65 74 56.85 L74.05 56.6 74.2 56 Q74.2 55.85 74.35 55.65 L74.9 54.85 Q75.15 54.65 75.4 54.55 L76.25 54.3"/>
    <path stroke="none" fill="#6699ff" d="M62.95 63.4 L63.1 63.4 64.75 63.35 65.6 63.55 66.3 64.05 66.45 64.2 66.7 64.5 66.8 64.7 67.05 65.25 67.15 65.7 65.6 66.25 65.6 66 Q65.5 65.4 65 64.95 L64.75 64.8 63.55 64.5 62.95 64.55 62.15 64.95 Q61.55 65.35 61.55 66 61.55 66.45 62 66.85 L60.65 66.9 60.6 66 Q60.55 65.9 60.65 65.85 60.75 65.25 61 64.8 L61.7 64.05 Q62.2 63.65 62.95 63.4"/>
    <path stroke="none" fill="#6699ff" d="M51.55 49.25 L51.5 50.05 Q51.3 51.1 50.5 51.9 49.25 53.35 46.25 54.05 47.85 53.45 48.5 52.3 L49.15 51.2 Q49.5 50.45 49.35 49.75 48.6 47.55 46.8 47 44.8 46.55 43.5 47.85 L42.75 49 42.7 48.95 Q43.6 46.7 44.75 45.6 L45.05 45.5 Q46.25 44.6 47.6 44.65 49.65 44.75 50.85 46.65 L51.5 48.2 51.55 49.25"/>
    <path stroke="none" fill="#6699ff" d="M46.75 54.85 L49.35 55.8 49.55 55.95 Q50.55 56.55 51.05 57.4 51.55 58.15 51.6 59.15 51.75 61.2 50 62.45 L49.7 62.75 47.55 61 Q49 60.1 49.1 58.6 49.35 57.8 49 56.95 L48.85 56.65 48.4 55.9 Q47.75 55.25 46.75 54.85"/>
    <path stroke="none" fill="#6699ff" d="M41.6 52.65 L40.95 52.35 39.75 52.35 Q38.75 52.35 38.35 53.05 37.9 53.8 38.35 54.7 38.55 55.25 39 55.6 L39.65 56.05 41.25 56.6 41.6 56.55 Q42.6 56.45 43.05 55.75 43.35 55.05 43 54.2 L42.85 53.8 Q42.4 53.05 41.6 52.65 M43.85 52.1 L44.7 53 45.15 54 45.2 54.25 45.2 54.4 45.2 55.95 Q44.85 57.35 43.3 58.05 L42.05 58.55 40.3 58.35 39.95 58.3 Q38.8 58.15 38.05 57.35 L38 57.35 37.2 56.5 Q36.3 55.05 36.65 53.6 36.75 52.95 37.25 52.4 L37.4 52.35 38.5 51.3 39.8 50.9 41.7 51 41.9 51.15 Q43.05 51.45 43.85 52.1"/>
    <path stroke="none" fill="#6699ff" d="M60.3 65.9 L59.95 66 59.95 65.9 60.3 65.9"/>
    <path stroke="none" fill="#6699ff" d="M33.6 50.75 Q34.75 50.95 36.05 51.65 L36.55 51.9 36.95 52.15 35.75 51.9 34.1 51.7 Q33.5 51.85 32.9 52.15 32.8 52.15 32.75 52.25 32.15 52.55 31.7 53.1 31.2 54.1 31.1 55.05 31.1 56.05 31.55 56.65 33.1 59.05 35.8 58.25 L36.1 58.25 Q31.5 60.05 29.4 58 L29.3 57.85 Q27.95 56.35 28.5 54.2 28.75 53.25 29.15 52.6 29.8 51.8 30.4 51.35 31.2 50.85 32 50.75 L33.6 50.75"/>
    <path stroke="none" fill="#6699ff" d="M7.1 53.25 Q8.85 51.6 11.15 52.2 L11.25 52.3 Q12.35 52.5 13 52.95 13.9 53.65 14.4 54.4 15.05 55.25 15.1 56.25 15.3 57.8 14.45 59.85 L14.05 60.75 13.4 61.6 13.2 61.95 12.25 63.1 13.05 61.8 13.85 60.35 13.85 60.2 14.05 58.55 13.55 57.15 12.4 55.85 Q10.4 54.85 8.65 55.55 L8.35 55.7 7.2 56.85 7.2 56.95 6.05 54.75 6 54.7 6.05 54.7 Q6.7 53.5 7.1 53.25"/>
    <path stroke="none" fill="#6699ff" d="M21.65 58.55 L22.7 59.3 Q23.7 60.1 23.95 61.45 L24.1 62.05 24.15 63.25 24.1 64.1 24 64.25 23.35 65.8 22.65 66.65 21.2 67.45 21.05 67.45 21.05 67.35 19.5 67.05 19.5 67 21.05 65.1 21.2 64.55 Q21.5 62 19.85 60.65 17.45 58.85 14.85 60.8 18 57.8 20.6 58.25 L21.45 58.5 21.65 58.55"/>
    <path stroke="none" fill="#6699ff" d="M34.85 62.9 L34.9 62.05 Q35.35 60.15 37.25 58.05 36.65 60.5 37.1 62.2 L36.6 62.7 35.1 63.9 34.9 63.05 34.85 62.9"/>
    <path stroke="none" fill="#ff6699" d="M12 3.35 L12.15 3.25 14.65 2.7 16.7 2.8 18.65 3.2 19.2 3.4 Q22.9 5.15 25.15 10.4 L25.2 10.55 Q26.15 14.15 25.9 18.6 L25.85 18.9 25.85 19.05 25.85 19.15 25.8 19.45 25.45 21.5 Q24.8 26.1 24.85 28.8 L24.85 29.05 Q25.05 33.5 26.75 35.45 L27.75 36.3 28.3 36.6 Q29.4 37.2 30.3 37.25 33.2 36.4 34.3 32 35.2 29.2 36.75 27.15 L37.35 26.5 38.35 25.55 Q39.6 24.65 41.15 24.15 42.5 23.65 44.4 23.65 L44.8 23.65 Q47.15 23.65 49.25 25.1 L51.05 26.75 51.2 26.9 52.1 28.05 52.25 28.3 Q54.5 33.7 57.15 35 L58.75 35.45 60 35.25 60.45 35.2 60.6 35.2 61.3 34.75 61.6 34.5 62.1 34.1 62.9 33 Q64.95 29.8 64.05 23.05 61.45 12.15 64.2 4.9 L64.3 4.7 65 3.65 Q67.15 0.7 71.25 0.05 L71.4 0.05 74.8 0 74.95 0 76.4 0.25 76.65 0.35 76.75 0.35 78.15 0.85 79.3 1.45 Q80.55 2.1 82 3.55 L82.15 3.7 82.4 4 82.8 4.45 83.45 5.4 83.65 5.65 Q86.25 9.55 87.4 16.5 L87.75 19.05 87.75 19.15 88.05 22 88.05 22.5 88.1 23.6 88.2 25.3 88.25 27 88.3 28.35 88.3 28.55 88.3 30.6 88.25 32.1 88.2 33.6 88.2 34.1 88.2 34.25 Q87.35 45.95 82.7 53.85 L82.2 54.6 79.95 57.8 79.2 58.65 78.45 59.55 78.05 59.95 Q75.1 62.9 71.5 64.9 L71.3 65 70.95 65.2 70.7 65.35 70.5 65.5 70.4 65.55 67.55 66.8 67.45 66.85 66 67.35 65.85 67.4 62 68.05 60.6 68.1 58.15 67.85 58 67.85 57.05 67.65 Q52.9 66.7 49 63.8 L48.85 63.7 46.75 61.95 46.65 61.9 46.5 61.7 Q44.4 60.3 42.6 60.5 L42.35 60.55 Q40.45 60.75 38.4 62.65 L37.5 63.55 37.35 63.65 37.1 63.9 35.9 64.85 Q30.65 68.9 25.8 68.9 L25 68.9 20.95 68.65 20.65 68.55 19.45 68.3 19.2 68.25 Q14.65 67.05 11.35 64.1 L11.1 63.85 Q8.35 61.4 6.15 57.6 L6.05 57.35 4.95 55.25 4.85 55 Q2.95 50.9 1.9 46.7 L1.15 43.95 Q0.15 39.3 0.05 34.65 -0.25 25.15 1.15 18.55 2.9 10.4 7.15 6.6 L7.65 6.1 9.05 4.9 Q10.25 3.95 11.8 3.45 L12 3.35 M9.4 7.85 L8.9 8.4 Q5.15 11.75 3.6 19.05 2.3 25.35 2.55 34.6 2.65 39.05 3.6 43.35 L4.3 46.1 Q5.35 50.15 7.2 54.15 L7.3 54.35 8.25 56.2 8.4 56.5 Q10.45 60 13 62.15 L13.2 62.4 Q16 64.8 19.8 65.85 L20 65.85 21.15 66.1 21.6 66.2 24.95 66.4 25 66.4 25.1 66.4 Q29.4 66.7 34.3 62.9 L35.55 61.9 36.7 60.85 Q39.2 58.5 41.8 58.1 L42.35 58 42.4 58 Q45.15 57.7 48 59.75 L48.15 59.85 48.35 60.05 50.45 61.75 50.55 61.85 Q54.05 64.4 57.55 65.2 L58.45 65.35 60.7 65.6 61.8 65.55 65.2 65 66.65 64.5 69.15 63.35 69.45 63.15 69.7 63.05 70 62.9 70.35 62.7 Q73.6 60.85 76.25 58.2 L76.65 57.8 77.3 57.05 78.05 56.2 80.1 53.25 80.3 53 80.5 52.65 Q84.9 45.2 85.7 34.05 L85.7 33.55 85.75 32 85.8 30.5 85.8 28.6 85.75 27.1 85.7 25.35 85.6 23.65 85.6 22.85 85.55 22.6 85.55 22.05 85.25 19.45 85.25 19.35 84.9 16.9 Q83.85 10.5 81.6 7.05 L81.45 6.8 80.85 6.05 80.55 5.65 80.2 5.3 Q79.05 4.1 78.1 3.6 L77.1 3.1 76.05 2.75 75.85 2.7 74.75 2.5 71.55 2.55 Q68.55 3.05 67 5.2 L66.5 5.9 Q64.1 12.45 66.5 22.5 L66.5 22.65 Q67.6 30.35 65 34.4 L64 35.75 63.9 35.8 63.1 36.5 62.85 36.7 61.45 37.5 61.3 37.6 60.8 37.65 60.55 37.7 58.6 37.9 Q57.25 37.8 56.05 37.25 52.6 35.55 50 29.4 L49.3 28.5 49.15 28.35 47.85 27.15 Q46.4 26.15 44.8 26.15 L44.4 26.15 41.95 26.5 Q40.7 26.95 39.8 27.6 L39.7 27.65 39.25 28.1 39.15 28.2 38.75 28.65 Q37.45 30.35 36.7 32.75 34.5 39.7 30.2 39.75 28.7 39.6 27.25 38.9 L26.45 38.45 24.85 37.05 Q22.6 34.5 22.4 29.1 L22.4 28.85 Q22.3 25.95 23 21.2 L23.35 19.05 23.4 18.3 Q23.65 14.4 22.8 11.3 20.95 6.9 18.05 5.65 L17.9 5.6 16.45 5.25 14.9 5.2 13.15 5.6 12.95 5.65 12.75 5.75 Q11.5 6.15 10.55 6.9 L9.4 7.85"/>
  </g>
</svg>