<svg width="78.3px" height="76.85px" viewBox="0 0 78.3 76.85" xmlns="http://www.w3.org/2000/svg" xmlns:xlink="http://www.w3.org/1999/xlink">
  <defs/>
  <g>
    <path stroke="none" fill="#000000" d="M73.15 4.85 L75.35 7.05 Q76.5 8.4 77.3 10.35 L77.75 11.95 77.8 12.1 77.95 13.35 78 13.45 Q78.05 15.35 77.6 17.45 L77.45 17.95 77.35 18.25 77.3 18.4 Q76.4 21.05 74.45 23.9 L73.35 25.3 73.15 25.5 70.9 28.2 65.7 34.35 64.1 36.15 63.45 36.9 63.5 36.9 63.85 37.25 64.05 37.5 Q67.5 41.35 70.55 45.55 L73.45 50 73.7 50.35 74 50.85 74.55 51.8 75.45 53.5 77.3 58 77.95 60.25 Q78.45 62.65 78.2 64.95 78.05 66.65 77.3 68.45 L75.6 71.2 73.65 73.15 73.15 73.6 Q68.2 77.45 62.75 75.55 60.25 74.65 57.7 72.5 L57.6 72.4 56.6 71.45 56 70.8 52.15 67.25 50.5 65.85 48.7 64.45 47.3 63.35 46.1 62.45 44.9 61.55 43.2 60.4 42.1 59.65 40.4 61.4 36.1 65.7 33.55 68.25 31.1 70.65 30.25 71.45 29.5 72.1 29.45 72.2 Q27.3 73.95 25.2 75.15 L22.75 76.25 19.5 76.85 Q17.9 76.85 16.45 76.25 L15.3 75.65 Q13.85 74.7 12.65 73.2 L11.2 71.05 10.2 68.55 Q9.65 66.65 9.65 64.8 9.65 63 10.15 60.75 L10.2 60.65 10.3 60.15 Q11.2 56.85 13.6 52.65 L14.7 50.85 14.8 50.7 14.85 50.6 14.9 50.5 18.15 45.6 18.9 44.45 15.1 41.3 14.15 40.35 12.45 38.65 10.4 36.4 8.8 34.25 Q7.05 31.9 6.05 29.75 L5.25 27.85 Q4.25 25.1 4.05 23.35 3.55 19.6 4.85 16.65 5.9 14.35 7.95 12.6 L8.9 11.8 9.8 11.2 10.75 10.65 Q13.1 9.3 15.8 8.9 20.05 8.2 24.95 9.6 27.1 10.2 29.15 11.1 L29.25 11.15 29.9 11.45 31.95 12.4 Q35.45 14.1 38.65 16.1 L38.7 16.15 38.9 16.25 41.35 17.85 41.95 17.3 43.1 16.2 47.25 12.65 47.35 12.55 48.1 11.95 48.95 11.25 52.25 8.85 Q54.6 7.25 56.5 6.15 L57.95 5.4 Q60.25 4.15 62.8 3.4 68.95 1.7 73.15 4.85"/>
    <path stroke="none" fill="#ffa97b" d="M20.7 10.7 L20.7 8 Q22.65 8.55 24.75 9.45 L24.75 10.7 20.7 10.7"/>
    <path stroke="none" fill="#ff6600" d="M12.05 7.35 Q15.95 6.7 20.7 8.05 L20.7 10.75 12.05 10.75 12.05 7.35"/>
    <path stroke="none" fill="#ffef62" d="M20.7 14.35 L20.7 10.75 24.75 10.75 24.75 14.35 20.7 14.35"/>
    <path stroke="none" fill="#ffa97b" d="M20.7 10.75 L20.7 14.35 12.05 14.35 12.05 10.75 20.7 10.75"/>
    <path stroke="none" fill="#ff6600" d="M24.7 9.45 L25.5 9.8 27.5 10.7 24.7 10.7 24.7 9.45"/>
    <path stroke="none" fill="#ffa97b" d="M24.7 10.75 L27.5 10.75 Q30.7 12.3 34.05 14.35 L24.7 14.35 24.7 10.75"/>
    <path stroke="none" fill="#b84a10" d="M34.1 14.35 L34.3 14.35 34.3 14.45 34.1 14.35"/>
    <path stroke="none" fill="#b84a10" d="M34.05 14.35 L34.25 14.45 34.25 20.4 24.7 20.4 24.7 14.35 34.05 14.35"/>
    <path stroke="none" fill="#efab2e" d="M20.7 14.35 L24.75 14.35 24.75 20.4 20.7 20.4 20.7 14.35"/>
    <path stroke="none" fill="#b84a10" d="M7.45 8.9 L7.45 10.7 4.85 10.7 5.75 10 6.55 9.45 7.45 8.9"/>
    <path stroke="none" fill="#ffa97b" d="M7.45 10.75 L7.45 8.9 Q9.55 7.75 12.05 7.35 L12.05 10.75 7.45 10.75"/>
    <path stroke="none" fill="#ffef62" d="M7.45 10.75 L12.05 10.75 12.05 14.35 7.45 14.35 7.45 10.75"/>
    <path stroke="none" fill="#efab2e" d="M7.45 14.35 L12.05 14.35 12.05 20.4 7.45 20.4 7.45 14.35"/>
    <path stroke="none" fill="#efab2e" d="M4.9 10.75 L7.45 10.75 7.45 14.35 2.1 14.35 Q3 12.4 4.9 10.75"/>
    <path stroke="none" fill="#9d2902" d="M2.1 14.35 L7.45 14.35 7.45 20.4 1.4 20.4 Q0.9 17 2.1 14.35"/>
    <path stroke="none" fill="#ffef62" d="M7.45 20.4 L12.05 20.4 12.05 24.65 7.45 24.65 7.45 20.4"/>
    <path stroke="none" fill="#ffa97b" d="M12.05 24.65 L12.05 20.4 20.7 20.4 20.7 24.65 12.05 24.65"/>
    <path stroke="none" fill="#efab2e" d="M7.45 20.4 L7.45 24.65 2.5 24.65 Q1.65 22.4 1.35 20.4 L7.45 20.4"/>
    <path stroke="none" fill="#efab2e" d="M7.45 24.6 L12.05 24.6 12.05 30.7 7.45 30.7 7.45 24.6"/>
    <path stroke="none" fill="#9d2902" d="M3.3 26.4 L2.5 24.6 7.45 24.6 7.45 30.7 5.9 30.7 Q4.3 28.6 3.3 26.4"/>
    <path stroke="none" fill="#ffa97b" d="M9.45 35 L12.05 35 12.05 37.6 9.45 35"/>
    <path stroke="none" fill="#ffef62" d="M12.05 35 L9.45 35 7.45 32.8 7.45 30.7 12.05 30.7 12.05 35"/>
    <path stroke="none" fill="#ffa97b" d="M12.05 35 L12.05 30.7 20.7 30.7 20.7 35 12.05 35"/>
    <path stroke="none" fill="#efab2e" d="M7.45 30.7 L7.45 32.8 5.9 30.7 7.45 30.7"/>
    <path stroke="none" fill="#b84a10" d="M12.05 30.7 L12.05 24.6 20.7 24.6 20.7 30.7 12.05 30.7"/>
    <path stroke="none" fill="#ffef62" d="M12.05 48.4 L12.05 48.7 11.85 48.7 12.05 48.4"/>
    <path stroke="none" fill="#ffa97b" d="M12.05 48.7 L12.05 48.4 15.25 43.5 20.7 43.5 20.7 48.7 12.05 48.7"/>
    <path stroke="none" fill="#ffa97b" d="M11.9 48.7 L12.05 48.7 12.05 57.75 7.6 57.75 Q8.5 54.4 10.8 50.5 L11.9 48.7"/>
    <path stroke="none" fill="#ff6600" d="M12.05 37.6 L12.05 35 20.7 35 20.7 43.5 15.25 43.5 16.7 41.4 12.05 37.6"/>
    <path stroke="none" fill="#ffef62" d="M38.9 20.4 L38.9 24.65 34.25 24.65 34.25 20.4 38.9 20.4"/>
    <path stroke="none" fill="#ffa97b" d="M34.25 20.4 L34.25 24.65 24.7 24.65 24.7 20.4 34.25 20.4"/>
    <path stroke="none" fill="#ffef62" d="M24.75 20.4 L24.75 24.65 20.7 24.65 20.7 20.4 24.75 20.4"/>
    <path stroke="none" fill="#ffa97b" d="M24.7 35 L24.7 30.7 34.25 30.7 34.25 35 24.7 35"/>
    <path stroke="none" fill="#ffef62" d="M24.75 30.7 L24.75 35 20.7 35 20.7 30.7 24.75 30.7"/>
    <path stroke="none" fill="#ffef62" d="M38.9 30.7 L38.9 35 34.25 35 34.25 30.7 38.9 30.7"/>
    <path stroke="none" fill="#b84a10" d="M24.7 24.6 L34.25 24.6 34.25 30.7 24.7 30.7 24.7 24.6"/>
    <path stroke="none" fill="#ff6600" d="M24.7 35 L34.25 35 34.25 43.5 24.7 43.5 24.7 35"/>
    <path stroke="none" fill="#efab2e" d="M38.9 24.6 L38.9 30.7 34.25 30.7 34.25 24.6 38.9 24.6"/>
    <path stroke="none" fill="#efab2e" d="M24.75 24.6 L24.75 30.7 20.7 30.7 20.7 24.6 24.75 24.6"/>
    <path stroke="none" fill="#ffef62" d="M20.7 48.7 L20.7 43.5 24.75 43.5 24.75 48.7 20.7 48.7"/>
    <path stroke="none" fill="#ffef62" d="M38.9 43.5 L38.9 48.7 34.25 48.7 34.25 43.5 38.9 43.5"/>
    <path stroke="none" fill="#ffa97b" d="M34.25 43.5 L34.25 48.7 24.7 48.7 24.7 43.5 34.25 43.5"/>
    <path stroke="none" fill="#ff6600" d="M24.7 48.7 L34.25 48.7 34.25 57.75 24.7 57.75 24.7 48.7"/>
    <path stroke="none" fill="#ffa97b" d="M20.7 35 L24.75 35 24.75 43.5 20.7 43.5 20.7 35"/>
    <path stroke="none" fill="#ffa97b" d="M38.9 35 L38.9 43.5 34.25 43.5 34.25 35 38.9 35"/>
    <path stroke="none" fill="#ffa97b" d="M20.7 48.7 L24.75 48.7 24.75 57.75 20.7 57.75 20.7 48.7"/>
    <path stroke="none" fill="#b84a10" d="M12.05 20.4 L12.05 14.35 20.7 14.35 20.7 20.4 12.05 20.4"/>
    <path stroke="none" fill="#ff6600" d="M12.05 48.7 L20.7 48.7 20.7 57.75 12.05 57.75 12.05 48.7"/>
    <path stroke="none" fill="#efab2e" d="M38.9 15.4 L38.9 20.4 34.25 20.4 34.25 14.5 37.55 16.65 38.9 15.4"/>
    <path stroke="none" fill="#ffa97b" d="M68.5 3.05 L70.5 5 Q71.65 6.45 72.25 8 L72.25 10.7 68.5 10.7 68.5 3.05"/>
    <path stroke="none" fill="#ffa97b" d="M72.2 10.75 L72.8 10.75 Q72.9 12.5 72.45 14.35 L72.2 14.35 72.2 10.75"/>
    <path stroke="none" fill="#ff6600" d="M72.8 10.7 L72.2 10.7 72.2 8 72.6 9.45 72.8 10.7"/>
    <path stroke="none" fill="#ffef62" d="M68.5 10.75 L72.25 10.75 72.25 14.35 68.5 14.35 68.5 10.75"/>
    <path stroke="none" fill="#efab2e" d="M72.25 14.35 L72.25 15.2 Q71.4 17.65 69.55 20.4 L68.5 20.4 68.5 14.35 72.25 14.35"/>
    <path stroke="none" fill="#b84a10" d="M72.2 15.2 L72.2 14.35 72.45 14.35 72.2 15.2"/>
    <path stroke="none" fill="#ffa97b" d="M68.5 10.75 L68.5 14.35 59.25 14.35 59.25 10.75 68.5 10.75"/>
    <path stroke="none" fill="#ff6600" d="M59.25 1.8 Q64.75 0.25 68.5 3.05 L68.5 10.75 59.25 10.75 59.25 1.8"/>
    <path stroke="none" fill="#ffa97b" d="M54.6 3.75 Q57.05 2.4 59.25 1.8 L59.25 10.75 54.6 10.75 54.6 3.75"/>
    <path stroke="none" fill="#b84a10" d="M53.2 4.45 L54.6 3.75 54.6 10.75 49.05 10.75 49.05 7.15 53.2 4.45"/>
    <path stroke="none" fill="#ffef62" d="M44.15 10.8 L44.15 10.75 44.2 10.75 44.15 10.8"/>
    <path stroke="none" fill="#ffa97b" d="M44.2 10.7 L45.75 9.45 Q47.4 8.2 49.05 7.1 L49.05 10.7 44.2 10.7"/>
    <path stroke="none" fill="#ffef62" d="M44.15 10.8 L44.2 10.75 49.05 10.75 49.05 14.35 44.15 14.35 44.15 10.8"/>
    <path stroke="none" fill="#9d2902" d="M38.9 15.4 L40 14.35 44.15 14.35 44.15 20.4 38.9 20.4 38.9 15.4"/>
    <path stroke="none" fill="#efab2e" d="M40 14.35 L44.15 10.8 44.15 14.35 40 14.35"/>
    <path stroke="none" fill="#efab2e" d="M49.05 14.35 L49.05 10.75 54.6 10.75 54.6 14.35 49.05 14.35"/>
    <path stroke="none" fill="#9d2902" d="M49.05 14.35 L54.6 14.35 54.6 20.4 49.05 20.4 49.05 14.35"/>
    <path stroke="none" fill="#ffef62" d="M59.25 14.35 L54.6 14.35 54.6 10.75 59.25 10.75 59.25 14.35"/>
    <path stroke="none" fill="#efab2e" d="M54.6 14.35 L59.25 14.35 59.25 20.4 54.6 20.4 54.6 14.35"/>
    <path stroke="none" fill="#efab2e" d="M44.15 14.35 L49.05 14.35 49.05 20.4 44.15 20.4 44.15 14.35"/>
    <path stroke="none" fill="#ffef62" d="M59.25 20.4 L59.25 24.65 54.6 24.65 54.6 20.4 59.25 20.4"/>
    <path stroke="none" fill="#ffa97b" d="M59.25 24.65 L59.25 20.4 68.5 20.4 68.5 21.75 68.3 21.9 66.05 24.65 59.25 24.65"/>
    <path stroke="none" fill="#efab2e" d="M49.05 24.65 L49.05 20.4 54.6 20.4 54.6 24.65 49.05 24.65"/>
    <path stroke="none" fill="#ffef62" d="M49.05 20.4 L49.05 24.65 44.15 24.65 44.15 20.4 49.05 20.4"/>
    <path stroke="none" fill="#9d2902" d="M49.05 24.6 L54.6 24.6 54.6 30.7 49.05 30.7 49.05 24.6"/>
    <path stroke="none" fill="#efab2e" d="M54.6 30.7 L54.6 35 49.05 35 49.05 30.7 54.6 30.7"/>
    <path stroke="none" fill="#ffef62" d="M54.6 35 L54.6 30.7 59.25 30.7 59.25 32.55 57.85 34.1 58.7 35 54.6 35"/>
    <path stroke="none" fill="#ffef62" d="M49.05 30.7 L49.05 35 44.15 35 44.15 30.7 49.05 30.7"/>
    <path stroke="none" fill="#b84a10" d="M49.05 35 L54.6 35 54.6 43.5 49.05 43.5 49.05 35"/>
    <path stroke="none" fill="#b84a10" d="M60.9 30.7 L59.25 30.7 59.25 24.6 66.05 24.6 60.9 30.7"/>
    <path stroke="none" fill="#ffa97b" d="M59.25 30.7 L60.9 30.7 59.25 32.55 59.25 30.7"/>
    <path stroke="none" fill="#ffa97b" d="M54.6 35 L58.7 35 59.25 35.6 59.25 43.5 54.6 43.5 54.6 35"/>
    <path stroke="none" fill="#efab2e" d="M59.25 24.6 L59.25 30.7 54.6 30.7 54.6 24.6 59.25 24.6"/>
    <path stroke="none" fill="#efab2e" d="M49.05 24.6 L49.05 30.7 44.15 30.7 44.15 24.6 49.05 24.6"/>
    <path stroke="none" fill="#efab2e" d="M44.15 20.4 L44.15 24.65 38.9 24.65 38.9 20.4 44.15 20.4"/>
    <path stroke="none" fill="#efab2e" d="M38.9 35 L38.9 30.7 44.15 30.7 44.15 35 38.9 35"/>
    <path stroke="none" fill="#9d2902" d="M44.15 24.6 L44.15 30.7 38.9 30.7 38.9 24.6 44.15 24.6"/>
    <path stroke="none" fill="#b84a10" d="M38.9 35 L44.15 35 44.15 43.5 38.9 43.5 38.9 35"/>
    <path stroke="none" fill="#efab2e" d="M44.15 43.5 L44.15 48.7 38.9 48.7 38.9 43.5 44.15 43.5"/>
    <path stroke="none" fill="#ffef62" d="M44.15 48.7 L44.15 43.5 49.05 43.5 49.05 48.7 44.15 48.7"/>
    <path stroke="none" fill="#b84a10" d="M38.9 48.7 L44.15 48.7 44.15 57.75 41.75 57.75 38.9 55.8 38.9 48.7"/>
    <path stroke="none" fill="#ff6600" d="M59.25 43.5 L59.25 35.6 Q62.85 39.6 65.65 43.5 L59.25 43.5"/>
    <path stroke="none" fill="#ffef62" d="M54.6 43.5 L59.25 43.5 59.25 48.7 54.6 48.7 54.6 43.5"/>
    <path stroke="none" fill="#ffa97b" d="M59.25 48.7 L59.25 43.5 65.65 43.5 68.5 47.85 68.5 48.7 59.25 48.7"/>
    <path stroke="none" fill="#ffa97b" d="M54.6 48.7 L59.25 48.7 59.25 57.75 54.6 57.75 54.6 48.7"/>
    <path stroke="none" fill="#efab2e" d="M49.05 48.7 L49.05 43.5 54.6 43.5 54.6 48.7 49.05 48.7"/>
    <path stroke="none" fill="#b84a10" d="M49.05 48.7 L54.6 48.7 54.6 57.75 49.05 57.75 49.05 48.7"/>
    <path stroke="none" fill="#ffa97b" d="M44.15 48.7 L49.05 48.7 49.05 57.75 44.15 57.75 44.15 48.7"/>
    <path stroke="none" fill="#ffa97b" d="M49.05 43.5 L44.15 43.5 44.15 35 49.05 35 49.05 43.5"/>
    <path stroke="none" fill="#ffef62" d="M69.55 20.4 L68.5 21.75 68.5 20.4 69.55 20.4"/>
    <path stroke="none" fill="#ffef62" d="M68.5 47.85 L69.05 48.7 68.5 48.7 68.5 47.85"/>
    <path stroke="none" fill="#ffa97b" d="M68.5 48.7 L69.05 48.7 70.45 51.3 Q71.6 53.5 72.25 55.6 L72.25 57.75 68.5 57.75 68.5 48.7"/>
    <path stroke="none" fill="#b84a10" d="M59.25 20.4 L59.25 14.35 68.5 14.35 68.5 20.4 59.25 20.4"/>
    <path stroke="none" fill="#ff6600" d="M59.25 48.7 L68.5 48.7 68.5 57.75 59.25 57.75 59.25 48.7"/>
    <path stroke="none" fill="#ffa97b" d="M35.6 57.75 L34.25 57.75 34.25 48.7 38.9 48.7 38.9 55.8 38.05 55.2 35.6 57.75"/>
    <path stroke="none" fill="#ffef62" d="M72.25 57.75 L72.25 62.05 68.5 62.05 68.5 57.75 72.25 57.75"/>
    <path stroke="none" fill="#ffa97b" d="M72.2 62.05 L72.2 57.75 72.8 57.75 Q73.25 60.05 73.05 62.05 L72.2 62.05"/>
    <path stroke="none" fill="#efab2e" d="M68.5 62.05 L72.25 62.05 72.25 65.2 70.75 67.65 68.5 67.65 68.5 62.05"/>
    <path stroke="none" fill="#ffa97b" d="M68.5 57.75 L68.5 62.05 59.25 62.05 59.25 57.75 68.5 57.75"/>
    <path stroke="none" fill="#b84a10" d="M72.2 62.05 L73.05 62.05 72.2 65.2 72.2 62.05"/>
    <path stroke="none" fill="#ff6600" d="M72.8 57.75 L72.2 57.75 72.2 55.6 72.8 57.75"/>
    <path stroke="none" fill="#ffa97b" d="M68.5 67.65 L68.5 69.8 Q64.05 73.35 59.25 71.55 L59.25 67.65 68.5 67.65"/>
    <path stroke="none" fill="#ffef62" d="M68.5 69.8 L68.5 67.65 70.75 67.65 68.9 69.45 68.5 69.8"/>
    <path stroke="none" fill="#b84a10" d="M68.5 62.05 L68.5 67.65 59.25 67.65 59.25 62.05 68.5 62.05"/>
    <path stroke="none" fill="#efab2e" d="M49.05 57.75 L54.6 57.75 54.6 62.05 49.05 62.05 49.05 57.75"/>
    <path stroke="none" fill="#ffef62" d="M49.05 57.75 L49.05 62.05 47.3 62.05 44.15 59.55 44.15 57.75 49.05 57.75"/>
    <path stroke="none" fill="#9d2902" d="M49.05 63.55 L49.05 62.05 54.6 62.05 54.6 67.65 53.45 67.65 53.05 67.25 49.05 63.55"/>
    <path stroke="none" fill="#efab2e" d="M49.05 62.05 L49.05 63.55 47.3 62.05 49.05 62.05"/>
    <path stroke="none" fill="#ffef62" d="M59.25 62.05 L54.6 62.05 54.6 57.75 59.25 57.75 59.25 62.05"/>
    <path stroke="none" fill="#efab2e" d="M54.6 62.05 L59.25 62.05 59.25 67.65 54.6 67.65 54.6 62.05"/>
    <path stroke="none" fill="#efab2e" d="M41.75 57.75 L44.15 57.75 44.15 59.55 41.75 57.75"/>
    <path stroke="none" fill="#efab2e" d="M54.6 67.65 L54.6 68.75 53.45 67.65 54.6 67.65"/>
    <path stroke="none" fill="#ffef62" d="M54.6 68.75 L54.6 67.65 59.25 67.65 59.25 71.55 Q56.95 70.75 54.6 68.75"/>
    <path stroke="none" fill="#ffef62" d="M34.25 57.75 L35.6 57.75 34.25 59.1 34.25 57.75"/>
    <path stroke="none" fill="#ffa97b" d="M34.25 57.75 L34.25 59.1 31.3 62.05 24.7 62.05 24.7 57.75 34.25 57.75"/>
    <path stroke="none" fill="#b84a10" d="M24.7 62.05 L31.3 62.05 26.25 67 25.55 67.65 24.7 67.65 24.7 62.05"/>
    <path stroke="none" fill="#ffef62" d="M24.75 57.75 L24.75 62.05 20.7 62.05 20.7 57.75 24.75 57.75"/>
    <path stroke="none" fill="#ffa97b" d="M20.7 57.75 L20.7 62.05 12.05 62.05 12.05 57.75 20.7 57.75"/>
    <path stroke="none" fill="#ffef62" d="M20.7 71.25 L20.7 67.65 24.75 67.65 24.75 68.45 20.7 71.25"/>
    <path stroke="none" fill="#ffa97b" d="M20.7 67.65 L20.7 71.25 18.45 72.3 13 72.3 12.05 71.8 12.05 67.65 20.7 67.65"/>
    <path stroke="none" fill="#b84a10" d="M13 72.3 L18.45 72.3 Q15.45 73.3 13 72.3"/>
    <path stroke="none" fill="#ffa97b" d="M24.7 68.45 L24.7 67.65 25.55 67.65 24.7 68.45"/>
    <path stroke="none" fill="#efab2e" d="M20.7 67.65 L20.7 62.05 24.75 62.05 24.75 67.65 20.7 67.65"/>
    <path stroke="none" fill="#b84a10" d="M20.7 62.05 L20.7 67.65 12.05 67.65 12.05 62.05 20.7 62.05"/>
    <path stroke="none" fill="#ffef62" d="M7.45 58.25 L7.45 57.75 7.55 57.75 7.45 58.25"/>
    <path stroke="none" fill="#ffef62" d="M7.45 58.25 L7.55 57.75 12.05 57.75 12.05 62.05 7.45 62.05 7.45 58.25"/>
    <path stroke="none" fill="#efab2e" d="M7.5 62.05 L7 62.05 Q7 60.25 7.5 58.25 L7.5 62.05"/>
    <path stroke="none" fill="#9d2902" d="M7 62.05 L7.5 62.05 7.5 65.45 Q7 63.8 7 62.05"/>
    <path stroke="none" fill="#efab2e" d="M7.45 62.05 L12.05 62.05 12.05 67.65 8.35 67.65 7.45 65.45 7.45 62.05"/>
    <path stroke="none" fill="#ffef62" d="M12.05 67.65 L12.05 71.8 Q10.75 71 9.7 69.65 L8.35 67.65 12.05 67.65"/>
    <path stroke="none" fill="#9d2902" d="M69.5 5.8 L67.75 4.05 Q64.5 1.6 59.6 3 57.25 3.65 55.2 4.8 L55.1 4.85 53.9 5.5 49.75 8.15 46.55 10.45 45.8 11.05 45.05 11.65 44.95 11.75 40.85 15.25 39.8 16.25 39.1 16.9 38.45 17.5 Q37.75 18.15 36.9 17.65 L33.6 15.55 33.55 15.5 33.35 15.35 26.95 11.85 25 10.95 24.2 10.6 20.35 9.2 Q16 7.95 12.25 8.6 10 8.9 8.1 10 L7.2 10.55 6.55 11 5.65 11.7 Q4.05 13.05 3.25 14.85 2.2 17.2 2.6 20.2 2.8 21.75 3.7 24.2 L4.45 25.85 Q5.3 27.8 6.9 29.95 L8.45 32.05 10.35 34.1 12.05 35.8 12.95 36.7 17.45 40.4 Q18.3 41.1 17.75 42.1 L16.25 44.25 13.15 49 12.9 49.4 11.85 51.15 Q9.65 54.95 8.8 58.05 L8.75 58.25 8.7 58.55 Q8.25 60.5 8.25 62 8.25 63.5 8.7 65.05 8.95 66.05 9.5 67.1 L10.65 68.85 Q11.65 70.05 12.75 70.75 L13.5 71.15 Q15.5 71.95 18.05 71.1 L20.1 70.15 Q21.95 69.1 23.9 67.5 L24.8 66.65 25.4 66.1 27.9 63.65 30.45 61.15 34.7 56.85 37.2 54.3 Q37.9 53.7 38.7 54.15 L39.25 54.5 39.55 54.75 40.7 55.5 42.5 56.75 43.7 57.65 44.95 58.55 46.4 59.7 48.05 61.05 49.95 62.65 53.9 66.35 54.1 66.5 54.15 66.6 54.25 66.7 55.45 67.8 Q57.6 69.65 59.7 70.4 63.85 71.9 67.7 68.85 L67.8 68.75 68 68.55 68.1 68.5 69.75 66.85 71.1 64.65 71.85 61.9 Q72 60 71.6 58 L71.05 55.95 Q70.5 54.1 69.3 51.85 L68.45 50.25 67.95 49.25 67.7 48.95 67.4 48.5 64.65 44.2 58.35 36.45 58.05 36.1 57.85 35.85 57.35 35.35 57 34.95 Q56.25 34.15 56.95 33.25 L57.65 32.45 58.3 31.75 59.95 29.85 65.1 23.8 67.3 21.15 67.4 21 67.55 20.85 68.5 19.65 Q70.25 17.15 71 14.85 L71.15 14.35 71.25 14.1 71.6 10.85 71.4 9.7 71.05 8.45 Q70.45 6.9 69.5 5.8 M73.85 9.15 L73.9 9.3 74.05 10.55 74.1 10.65 Q74.15 12.55 73.7 14.65 L73.55 15.15 73.45 15.45 73.4 15.6 Q72.5 18.25 70.55 21.1 L69.45 22.5 69.35 22.6 69.25 22.7 67 25.4 61.8 31.55 60.2 33.35 59.55 34.1 59.6 34.1 59.95 34.45 60.15 34.7 Q63.6 38.55 66.65 42.75 L69.55 47.2 69.8 47.55 70.1 48.05 70.65 49.05 71.55 50.7 Q72.8 53.15 73.45 55.2 L74.05 57.45 Q74.55 59.85 74.3 62.15 74.15 63.85 73.4 65.65 L71.7 68.4 69.75 70.35 69.25 70.8 Q64.3 74.65 58.85 72.75 56.35 71.85 53.8 69.7 L53.7 69.6 52.7 68.65 52.1 68 48.25 64.45 46.5 63 44.85 61.65 43.4 60.55 42.2 59.65 41 58.75 39.3 57.55 38.2 56.85 36.5 58.6 32.2 62.9 29.65 65.4 27.2 67.85 26.35 68.65 25.6 69.3 25.55 69.4 21.3 72.35 18.85 73.45 15.6 74.05 12.55 73.45 11.4 72.85 Q9.95 71.95 8.75 70.4 L7.3 68.25 Q6.65 66.95 6.3 65.75 5.75 63.85 5.75 62 5.75 60.2 6.25 57.95 L6.3 57.85 6.4 57.35 Q7.3 54 9.7 49.85 L10.8 48.05 10.9 47.9 10.95 47.8 11 47.7 14.25 42.8 15 41.65 11.2 38.5 10.3 37.6 8.55 35.85 6.5 33.6 6.45 33.55 4.9 31.45 Q3.15 29.1 2.15 26.95 L1.35 25.05 Q0.35 22.3 0.15 20.55 -0.35 16.8 0.95 13.85 2 11.55 4.05 9.8 L5 9.05 5.95 8.4 6.85 7.85 Q9.2 6.5 11.9 6.1 16.15 5.4 21.05 6.8 23.2 7.45 25.25 8.3 L26 8.65 28 9.6 Q31.55 11.3 34.75 13.3 L34.8 13.35 35 13.45 37.45 15.05 38.05 14.5 39.2 13.4 43.35 9.85 43.45 9.75 44.25 9.1 45.05 8.45 48.35 6.05 Q50.7 4.45 52.6 3.35 L54.05 2.6 Q56.35 1.35 58.9 0.6 65.05 -1.1 69.25 2.05 L71.45 4.25 Q72.6 5.6 73.4 7.55 L73.85 9.15"/>
  </g>
</svg>