<svg width="67.7px" height="106.3px" viewBox="0 0 67.7 106.3" xmlns="http://www.w3.org/2000/svg" xmlns:xlink="http://www.w3.org/1999/xlink">
  <defs/>
  <g>
    <path stroke="none" fill="#000000" d="M61.7 9.2 L63.35 13.2 64.6 17.6 Q65.35 21.05 65.9 25.2 L66.35 29.25 66.75 35.35 66.95 37.7 66.95 37.85 67 38.15 67.35 44.4 67.55 49.8 67.6 52.3 67.65 53.05 67.65 53.25 67.7 60.5 Q67.65 64.3 67.15 67.9 L67.15 68.2 66.75 71.15 66.65 71.75 65.75 76.15 65.3 77.9 64.85 79.55 64.35 81.15 63.85 82.6 63.85 82.7 63.45 83.85 63 85.05 62.8 85.55 62.6 86.05 60.65 90.2 58.6 93.65 56.05 96.95 55.9 97.05 53.6 99.35 Q51.5 101.3 48.4 102.85 L45.2 104.2 Q43 105.05 40.2 105.4 L40.05 105.45 32.3 106.3 31.7 106.25 31 106.25 Q27.45 106.1 24.95 104.95 23.2 104.25 22 102.9 19.9 100.85 19.35 97.3 19.15 96.25 19.2 94.9 L19.25 93.9 Q19.45 89.95 22.05 87.15 23.5 85.5 25.8 84.3 27.5 83.45 29.8 82.75 L32.9 82.05 33.85 82 Q42.05 80.85 44.1 72.9 44.75 70.1 44.75 66.5 L44.75 66.15 44.7 64.75 44.65 63.4 44 57.6 43.35 54.7 Q42.8 52.65 41.95 51 41.1 49.45 40.1 48.8 38.55 47.7 36.45 48.25 L31.5 49.1 29.1 49.55 25.9 49.75 25.65 49.8 25.6 49.8 19.8 49.2 Q17.6 48.65 16.2 47.95 L13.05 46.05 Q11.05 44.5 9.45 42.35 7.5 39.6 6.25 36.1 5.25 33.15 4.6 29.7 L4.1 26.3 4.05 25.4 Q3.75 22.05 4.1 19.3 4.45 17 4.9 15.35 5.6 12.75 6.5 10.9 L6.55 10.75 7.85 8.7 Q9.1 6.75 11 5.4 L11.25 5.25 Q14.35 3.05 18.8 2.85 L19 2.85 Q22.2 3.2 24.5 5 L25.15 5.5 Q28.8 8.7 29.75 16.2 L29.75 16.35 29.8 16.8 29.8 16.9 Q30.2 19.35 31.35 21.1 32.7 23.15 35.25 24 L36.9 24.4 Q42.6 23.4 42.8 18.5 L42.9 17.05 Q43 14.85 43.4 12.7 43.8 10.6 44.35 9.1 45.2 6.95 46.35 5.6 47.3 4.45 48.55 3.75 49.95 3 51.55 2.85 L52.65 2.8 52.95 2.8 Q55.35 2.8 57.3 4.1 L59.1 5.5 60.55 7.3 61.7 9.2"/>
    <path stroke="none" fill="#ffffff" d="M46.75 4.55 Q46.75 3.4 45.8 2.45 L45.3 2.05 Q46.45 1.4 47.8 1.3 L48.8 1.25 Q49.8 2.8 49.8 4.7 49.8 7.25 47.95 8.95 46.25 10.8 43.65 10.8 42.1 10.75 40.75 10.1 41.1 8.2 41.65 6.75 42.55 7.55 43.7 7.6 45 7.6 45.8 6.7 46.7 5.85 46.75 4.55"/>
    <path stroke="none" fill="#ffffff" d="M27.5 28 Q26.25 28.05 25.35 28.85 24.5 29.75 24.5 31.05 24.5 32.25 25.35 33.1 26.25 34 27.5 34 28.75 34 29.55 33.1 30.5 32.25 30.45 31.05 30.5 29.75 29.55 28.85 28.75 28.05 27.5 28 M27.4 25 Q30 25 31.75 26.75 33.55 28.55 33.55 31.1 33.55 33.7 31.75 35.45 30 37.25 27.4 37.25 24.85 37.25 23.05 35.45 L22 34.15 Q21.3 32.8 21.3 31.1 21.3 29.5 22 28.15 22.45 27.4 23.05 26.75 24.85 25 27.4 25"/>
    <path stroke="none" fill="#ffffff" d="M6.4 31.1 Q6.4 28.55 8.15 26.75 9.95 25 12.5 25 15.1 25 16.85 26.75 18.65 28.55 18.65 31.1 18.65 33.7 16.85 35.45 15.1 37.25 12.5 37.25 9.95 37.25 8.15 35.45 6.4 33.7 6.4 31.1 M10.45 28.85 Q9.6 29.75 9.6 31.05 9.6 32.25 10.45 33.1 11.35 34 12.6 34 13.85 34 14.65 33.1 15.6 32.25 15.55 31.05 15.6 29.75 14.65 28.85 13.85 28.05 12.6 28 11.35 28.05 10.45 28.85"/>
    <path stroke="none" fill="#ffffff" d="M52.25 15.75 Q51.45 14.95 50.15 15 48.95 14.95 48.05 15.75 47.2 16.75 47.2 17.95 47.2 19.2 48.05 20 48.95 20.95 50.15 20.95 51.45 20.95 52.25 20 53.2 19.2 53.15 17.95 53.2 16.75 52.25 15.75 M54.4 13.65 Q56.25 15.45 56.25 18.05 56.25 20.6 54.4 22.35 52.7 24.15 50.1 24.15 47.55 24.15 45.7 22.35 44 20.6 44 18.05 44 15.45 45.7 13.65 47.55 11.9 50.1 11.9 52.7 11.9 54.4 13.65"/>
    <path stroke="none" fill="#ffffff" d="M42.3 28 Q41.15 28.05 40.15 28.85 39.35 29.75 39.35 31.05 39.35 32.25 40.15 33.1 41.15 34 42.3 34 43.55 34 44.35 33.1 45.3 32.25 45.25 31.05 45.3 29.75 44.35 28.85 43.55 28.05 42.3 28 M37.85 26.75 Q39.65 25 42.25 25 44.8 25 46.55 26.75 48.35 28.55 48.35 31.1 48.35 33.7 46.55 35.45 44.8 37.25 42.25 37.25 39.65 37.25 37.85 35.45 36.1 33.7 36.1 31.1 36.1 28.55 37.85 26.75"/>
    <path stroke="none" fill="#ffffff" d="M48.75 41.3 Q47.6 41.35 46.6 42.15 45.8 43.05 45.8 44.35 45.8 45.55 46.6 46.4 47.6 47.3 48.75 47.3 50 47.3 50.8 46.4 51.75 45.55 51.7 44.35 51.75 43.05 50.8 42.15 50 41.35 48.75 41.3 M48.7 38.3 Q51.25 38.3 53 40 54.8 41.85 54.8 44.4 54.8 47 53 48.7 51.25 50.55 48.7 50.55 46.1 50.55 44.3 48.7 42.55 47 42.55 44.4 42.55 41.85 44.3 40 46.1 38.3 48.7 38.3"/>
    <path stroke="none" fill="#ffffff" d="M56.1 51.55 Q58.7 51.55 60.4 53.3 62.25 55.1 62.25 57.7 62.25 60.25 60.4 62 58.7 63.8 56.1 63.8 53.55 63.8 51.7 62 L50.7 60.7 Q50 59.35 50 57.7 50 56 50.7 54.7 L51.7 53.3 Q53.55 51.55 56.1 51.55 M58.25 55.45 Q57.45 54.65 56.2 54.65 54.95 54.65 54.05 55.45 53.2 56.4 53.2 57.6 53.2 58.85 54.05 59.65 54.95 60.6 56.2 60.6 57.45 60.6 58.25 59.65 59.2 58.85 59.15 57.6 59.2 56.4 58.25 55.45"/>
    <path stroke="none" fill="#ffffff" d="M50.8 70.9 Q50.85 69.6 49.9 68.7 49.1 67.9 47.85 67.95 46.6 67.9 45.7 68.7 44.9 69.6 44.9 70.9 44.9 72.15 45.7 72.95 46.6 73.85 47.85 73.85 49.1 73.85 49.9 72.95 50.85 72.15 50.8 70.9 M47.8 64.85 Q50.35 64.85 52.1 66.6 53.9 68.4 53.9 70.95 53.9 73.55 52.1 75.3 50.35 77.1 47.8 77.1 45.2 77.1 43.4 75.3 41.65 73.55 41.65 70.95 L41.7 70.45 Q41.85 68.2 43.4 66.6 45.2 64.85 47.8 64.85"/>
    <path stroke="none" fill="#ffffff" d="M37 84 Q37 85.2 37.85 86.05 38.75 86.95 40 86.95 41.25 86.95 42.05 86.05 42.95 85.2 43 84 43 82.7 42.05 81.8 41.25 81 40 80.95 38.75 81 37.85 81.8 37 82.7 37 84 M35.55 79.65 Q37.35 77.95 39.9 77.95 42.5 77.95 44.25 79.65 46.05 81.55 46.05 84.05 46.05 86.65 44.25 88.35 42.5 90.2 39.9 90.2 37.35 90.2 35.55 88.35 33.8 86.65 33.8 84.05 33.8 81.5 35.55 79.65"/>
    <path stroke="none" fill="#ffffff" d="M16 2.45 Q15.2 1.6 13.95 1.6 12.7 1.6 11.8 2.45 11 3.35 11 4.55 11 5.85 11.8 6.65 12.7 7.55 13.95 7.6 15.2 7.6 16 6.65 16.95 5.85 16.9 4.55 16.95 3.35 16 2.45 M19.8 3.15 L19.95 3.65 20 4.7 Q20 7.25 18.2 8.95 16.45 10.75 13.9 10.8 11.3 10.8 9.5 8.95 7.75 7.2 7.75 4.7 L7.85 3.6 Q10.65 1.5 14.95 1.3 17.75 1.55 19.8 3.15"/>
    <path stroke="none" fill="#ffffff" d="M2.2 12.85 Q3.65 11.9 5.55 11.9 8.15 11.9 9.85 13.65 11.7 15.45 11.7 18.05 11.7 20.6 9.85 22.35 8.15 24.15 5.55 24.15 3.45 24.15 1.75 22.9 L1.4 22.6 Q1.1 19.45 1.45 16.65 1.75 14.6 2.2 12.85 M8.6 17.95 Q8.6 16.75 7.7 15.75 6.9 14.95 5.6 15 4.4 14.95 3.5 15.75 2.65 16.75 2.65 17.95 2.65 19.2 3.5 20 4.4 20.95 5.6 20.95 6.9 20.95 7.7 20 8.65 19.2 8.6 17.95"/>
    <path stroke="none" fill="#ffffff" d="M23.4 17.95 Q23.45 16.75 22.5 15.75 21.7 14.95 20.45 15 19.2 14.95 18.3 15.75 17.5 16.75 17.5 17.95 17.5 19.2 18.3 20 19.2 20.95 20.45 20.95 21.7 20.95 22.5 20 23.45 19.2 23.4 17.95 M24.65 13.6 L24.7 14.3 Q25.15 17.15 26.45 19 26.15 20.95 24.7 22.35 22.95 24.15 20.4 24.15 17.8 24.15 16 22.35 14.25 20.6 14.25 18.05 14.25 15.45 16 13.65 17.8 11.9 20.4 11.9 22.9 11.9 24.65 13.6"/>
    <path stroke="none" fill="#ffffff" d="M1.9 26.65 L1.95 26.7 Q3.8 28.5 3.75 31.05 L3.55 32.85 Q2.55 30.05 1.9 26.65"/>
    <path stroke="none" fill="#ffffff" d="M8.4 40 Q9.4 41.05 9.85 42.25 8 40.8 6.55 38.8 L8.4 40"/>
    <path stroke="none" fill="#ffffff" d="M18.95 38.3 Q21.55 38.3 23.3 40 25.1 41.85 25.1 44.4 L25.05 45.5 21.65 45.7 22 44.35 Q22.05 43.05 21.1 42.15 20.3 41.35 19.05 41.3 17.8 41.35 16.9 42.15 16.05 43.05 16.05 44.35 L16.15 45.2 12.85 44.05 Q12.95 41.75 14.6 40 16.4 38.3 18.95 38.3"/>
    <path stroke="none" fill="#ffffff" d="M40.1 15.75 L40.25 14.35 Q41.4 15.9 41.4 18.05 41.4 20.6 39.6 22.3 37.85 24.1 35.3 24.15 32.75 24.1 30.95 22.4 L33 22.85 Q39.85 21.7 40.1 15.75"/>
    <path stroke="none" fill="#ffffff" d="M33.85 38.3 Q36.45 38.3 38.2 40 40 41.85 40 44.4 40 46.2 39.15 47.6 38.15 45.75 36.85 44.95 L36.9 44.35 Q36.95 43.05 36 42.15 35.2 41.35 33.95 41.3 32.7 41.35 31.8 42.15 30.95 43.05 30.95 44.35 L30.95 44.45 27.8 45 27.75 44.4 Q27.75 42.8 28.45 41.45 28.9 40.6 29.45 40 31.3 38.3 33.85 38.3"/>
    <path stroke="none" fill="#ffffff" d="M56.65 7 Q57.55 8.65 58.3 10.8 55.8 10.7 54.05 9 L53 7.7 Q52.3 6.35 52.3 4.7 52.3 3.45 52.7 2.35 53.55 2.9 54.3 3.6 L55.6 5.25 Q55.8 6.05 56.35 6.7 L56.65 7"/>
    <path stroke="none" fill="#ffffff" d="M59.45 21.05 Q58.75 19.7 58.75 18.05 58.75 16.45 59.45 15.1 L60.75 22.6 60.5 22.35 59.45 21.05"/>
    <path stroke="none" fill="#ffffff" d="M57.1 28 Q55.85 28.05 54.95 28.85 54.1 29.75 54.1 31.05 54.1 32.25 54.95 33.1 55.85 34 57.1 34 58.35 34 59.15 33.1 60.1 32.25 60.05 31.05 60.1 29.75 59.15 28.85 58.35 28.05 57.1 28 M50.9 31.1 Q50.9 29.5 51.6 28.15 52.05 27.4 52.65 26.75 54.45 25 57 25 59.45 25 61.15 26.55 L61.6 32.65 61.75 35 61.35 35.45 Q59.6 37.25 57 37.25 54.45 37.25 52.65 35.45 L51.6 34.15 Q50.9 32.8 50.9 31.1"/>
    <path stroke="none" fill="#ffffff" d="M58.15 41.45 L59.15 40 Q60.4 38.85 62.05 38.5 L62.25 41.7 61.45 42.2 Q60.6 43.1 60.6 44.35 60.6 45.55 61.45 46.4 L62.4 47.05 62.45 49.6 62.55 50.5 Q60.6 50.25 59.15 48.7 L58.15 47.5 Q57.4 46.15 57.4 44.4 57.4 42.8 58.15 41.45"/>
    <path stroke="none" fill="#ffffff" d="M58.2 66.65 Q59.9 65.05 62.05 64.95 L61.65 68.15 Q61 68.3 60.55 68.75 59.7 69.65 59.7 70.9 59.7 72.15 60.55 73 L60.65 73.1 59.75 76.5 58.2 75.35 57.2 74.05 Q56.5 72.7 56.5 71 56.5 69.35 57.2 68.05 57.65 67.3 58.2 66.65"/>
    <path stroke="none" fill="#ffffff" d="M49.35 81.1 Q49.75 80.25 50.3 79.65 52.1 77.95 54.7 77.95 57.05 77.95 58.75 79.45 L57.9 81.8 57.55 82.8 56.9 81.8 Q56.05 81 54.75 80.95 53.55 81 52.65 81.8 51.85 82.7 51.8 84 51.85 85.2 52.65 86.05 53.6 86.95 54.75 86.95 L55.6 86.8 53.6 90.15 Q51.75 89.75 50.3 88.35 L49.35 87.1 Q48.55 85.75 48.55 84.05 48.55 82.45 49.35 81.1"/>
    <path stroke="none" fill="#ffffff" d="M51.1 93.4 L48.9 95.6 48.5 95.15 Q47.7 94.35 46.45 94.35 45.2 94.35 44.3 95.15 43.45 96.1 43.45 97.35 43.45 98.25 43.95 99 L40.9 100.25 Q40.25 98.95 40.25 97.4 40.25 94.8 42 93 43.8 91.25 46.35 91.25 48.95 91.25 50.7 93 L51.1 93.4"/>
    <path stroke="none" fill="#ffffff" d="M41.35 54.65 L41.3 54.65 40.65 51.6 41.3 51.55 Q43.85 51.55 45.6 53.3 47.4 55.1 47.4 57.7 47.4 60.25 45.6 62 44.15 63.5 42.1 63.75 L42.1 63.4 42 60.55 Q42.8 60.35 43.45 59.65 44.35 58.85 44.35 57.6 44.35 56.4 43.45 55.45 42.65 54.65 41.35 54.65"/>
    <path stroke="none" fill="#ffffff" d="M19.7 87.15 Q19.15 86.25 19.05 85.2 20.4 83.7 22.5 82.6 22.2 83.25 22.2 84 22.2 85.2 23.05 86.05 23.95 86.95 25.15 86.95 26.4 86.95 27.2 86.05 28.2 85.2 28.15 84 28.2 82.75 27.2 81.85 L26.25 81.15 29.25 80.5 30.05 80.45 Q31.2 82 31.2 84.05 31.2 86.65 29.35 88.35 27.65 90.25 25.1 90.25 22.45 90.25 20.7 88.35 L19.7 87.15"/>
    <path stroke="none" fill="#ffffff" d="M16.5 92.1 L16.55 91.25 16.6 91.25 Q19.15 91.25 20.9 93 22.7 94.8 22.7 97.4 22.7 99.5 21.5 101.05 20 100.35 18.95 99.3 19.7 98.45 19.7 97.35 19.7 96.1 18.8 95.15 17.95 94.35 16.7 94.35 L16.5 92.1"/>
    <path stroke="none" fill="#ffffff" d="M36.15 101.4 L36 101.4 27.8 102.25 27.15 101.7 26.2 100.5 Q25.4 99.05 25.4 97.4 25.4 95.7 26.2 94.45 26.55 93.65 27.15 93 28.95 91.25 31.55 91.25 34.1 91.25 35.85 93 37.65 94.8 37.65 97.4 37.65 99.65 36.15 101.4 M33.65 99.4 Q34.65 98.55 34.65 97.35 34.65 96.1 33.65 95.15 32.85 94.35 31.6 94.35 30.45 94.35 29.45 95.15 28.65 96.1 28.65 97.35 28.65 98.55 29.45 99.4 30.45 100.3 31.6 100.3 32.85 100.3 33.65 99.4"/>
    <path stroke="none" fill="#0c6674" d="M39.9 77.95 Q37.35 77.95 35.55 79.65 33.85 81.55 33.8 84.05 33.85 86.65 35.55 88.35 37.35 90.25 39.9 90.2 42.55 90.25 44.25 88.35 46.05 86.65 46.05 84.05 46.05 81.55 44.25 79.65 42.55 77.95 39.9 77.95 M52.1 66.6 Q50.35 64.9 47.8 64.85 45.2 64.9 43.4 66.6 42.6 67.55 42.15 68.6 41.8 69.45 41.7 70.5 L41.65 70.95 Q41.65 73.6 43.4 75.3 45.2 77.1 47.8 77.1 50.35 77.1 52.1 75.3 53.9 73.6 53.9 70.95 53.9 69.7 53.5 68.6 L52.1 66.6 M60.4 53.3 Q58.75 51.55 56.15 51.55 53.6 51.55 51.75 53.3 L50.75 54.65 Q50.05 56 50.05 57.7 50.05 59.35 50.75 60.7 L51.75 61.95 Q53.6 63.8 56.15 63.8 58.75 63.8 60.4 61.95 62.3 60.25 62.3 57.7 62.3 55.05 60.4 53.3 M27.4 24.95 Q24.9 25 23.05 26.75 L22.05 28.1 Q21.3 29.45 21.3 31.05 21.3 32.8 22.05 34.15 L22.6 34.95 23.05 35.4 Q24.9 37.2 27.4 37.25 30.05 37.25 31.75 35.4 L32.25 34.95 Q33.6 33.3 33.55 31.05 33.55 28.55 31.75 26.75 30.05 25 27.4 24.95 M7.75 34.95 L8.15 35.4 Q9.95 37.2 12.5 37.25 15.15 37.25 16.85 35.4 L17.35 34.95 Q18.7 33.3 18.65 31.05 18.65 28.55 16.85 26.75 15.15 25 12.5 24.95 9.95 25 8.15 26.75 6.45 28.55 6.4 31.05 6.4 33.3 7.75 34.95 M48.7 38.3 Q46.1 38.3 44.3 40 42.6 41.9 42.55 44.4 42.6 47 44.3 48.7 46.1 50.6 48.7 50.55 51.25 50.6 53 48.7 54.8 47 54.8 44.4 54.8 41.9 53 40 51.25 38.3 48.7 38.3 M42.25 24.95 Q39.65 25 37.85 26.75 36.1 28.55 36.1 31.05 36.1 33.3 37.45 34.95 L37.85 35.4 Q39.65 37.2 42.25 37.25 44.8 37.25 46.55 35.4 L47.05 34.95 Q48.35 33.3 48.35 31.05 48.35 28.55 46.55 26.75 44.8 25 42.25 24.95 M56.25 18.05 Q56.25 15.4 54.4 13.65 52.7 11.9 50.1 11.9 47.6 11.9 45.7 13.65 44 15.4 44 18.05 44 20.6 45.7 22.3 47.6 24.15 50.1 24.15 52.7 24.15 54.4 22.3 56.3 20.6 56.25 18.05 M54.1 9 Q55.85 10.7 58.3 10.8 L59.5 15.1 Q58.8 16.4 58.8 18.05 58.8 19.7 59.5 21.05 L60.55 22.3 60.8 22.55 61.2 26.55 Q59.5 25 57.05 24.95 54.5 25 52.7 26.75 L51.65 28.1 Q50.95 29.45 50.95 31.05 50.95 32.8 51.65 34.15 L52.2 34.95 52.7 35.4 Q54.5 37.2 57.05 37.25 59.65 37.25 61.4 35.4 L61.8 35 61.85 35.4 62.05 38.5 Q60.45 38.85 59.15 40 L58.15 41.45 Q57.4 42.8 57.4 44.4 57.4 46.15 58.15 47.5 L59.15 48.7 Q60.6 50.25 62.55 50.5 L62.6 57.7 62.05 64.95 Q59.9 65.05 58.2 66.6 L57.25 68 57 68.6 Q56.5 69.7 56.5 70.95 56.5 72.7 57.25 74.05 L58.2 75.3 59.75 76.45 58.8 79.45 Q57.1 77.95 54.75 77.95 52.15 77.95 50.35 79.65 49.8 80.3 49.4 81.1 48.6 82.45 48.6 84.05 48.6 85.75 49.4 87.15 L50.35 88.35 Q51.8 89.8 53.65 90.15 L51.2 93.35 50.7 93 Q49 91.25 46.35 91.25 43.85 91.25 42 93 40.3 94.8 40.25 97.4 40.3 98.95 40.95 100.25 38.7 101.05 36.15 101.4 37.7 99.65 37.65 97.4 37.65 94.8 35.85 93 34.1 91.25 31.6 91.25 28.95 91.25 27.15 93 26.55 93.6 26.2 94.45 25.4 95.7 25.4 97.4 25.4 99.05 26.2 100.45 L27.15 101.7 27.85 102.2 27.1 102.2 Q23.8 102.05 21.55 101 22.75 99.5 22.75 97.4 22.75 94.8 20.95 93 19.2 91.25 16.65 91.25 L16.6 91.25 Q16.8 87.65 19.1 85.2 19.2 86.2 19.75 87.15 L20.7 88.35 Q22.5 90.25 25.1 90.2 27.65 90.25 29.4 88.35 31.2 86.65 31.2 84.05 31.25 81.95 30.05 80.45 39.2 79.2 41.4 70.4 L41.8 68.6 Q42.15 66.35 42.15 63.7 44.2 63.5 45.65 61.95 47.45 60.25 47.45 57.7 47.45 55.05 45.65 53.3 43.9 51.55 41.35 51.55 L40.7 51.6 39.2 47.6 Q40 46.25 40.05 44.4 40.05 41.9 38.2 40 36.5 38.3 33.85 38.3 31.35 38.3 29.45 40 L28.5 41.45 Q27.8 42.8 27.75 44.4 L27.85 45 25.05 45.5 25.1 44.4 Q25.1 41.9 23.3 40 21.6 38.3 18.95 38.3 16.45 38.3 14.6 40 13 41.75 12.85 44.05 11.3 43.25 9.9 42.25 9.45 41.05 8.45 40 7.6 39.2 6.6 38.8 5.35 37.05 4.4 34.95 L3.55 32.9 Q3.85 32.05 3.8 31.05 3.8 28.55 2 26.75 L1.95 26.65 1.45 23.3 1.4 22.55 1.75 22.85 Q3.5 24.15 5.55 24.15 8.15 24.15 9.85 22.3 11.75 20.6 11.7 18.05 11.75 15.4 9.85 13.65 8.15 11.9 5.55 11.9 3.7 11.85 2.25 12.85 2.85 10.5 3.75 8.6 L5 6.55 Q6.2 4.75 7.85 3.6 L7.9 3.6 7.8 4.7 Q7.8 7.25 9.55 9 11.35 10.8 13.95 10.8 16.5 10.8 18.25 9 20.05 7.25 20.05 4.7 L20 3.65 19.85 3.2 20.4 3.6 Q23.75 6.6 24.65 13.55 22.9 11.85 20.4 11.9 17.8 11.9 16 13.65 14.25 15.4 14.25 18.05 14.25 20.6 16 22.3 17.8 24.15 20.4 24.15 22.95 24.15 24.7 22.3 26.15 20.95 26.45 19 28.1 21.4 30.95 22.4 32.8 24.1 35.3 24.15 37.85 24.15 39.6 22.3 41.4 20.6 41.4 18.05 41.45 15.9 40.25 14.35 40.35 12 40.75 10.15 42.1 10.75 43.65 10.8 46.25 10.8 47.95 9 49.8 7.25 49.8 4.7 49.8 2.8 48.8 1.25 50.95 1.15 52.75 2.35 52.3 3.45 52.35 4.7 52.35 6.35 53.05 7.7 L54.1 9"/>
    <path stroke="none" fill="#0c6674" d="M25.35 28.85 Q26.25 28 27.5 28 28.75 28 29.55 28.85 30.5 29.75 30.45 31 30.5 32.25 29.55 33.05 28.75 33.95 27.5 34 26.25 34 25.35 33.05 24.5 32.25 24.5 31 24.5 29.75 25.35 28.85"/>
    <path stroke="none" fill="#0c6674" d="M10.45 28.85 Q11.35 28 12.6 28 13.85 28 14.65 28.85 15.6 29.75 15.55 31 15.6 32.25 14.65 33.05 13.85 33.95 12.6 34 11.35 34 10.45 33.05 9.6 32.25 9.6 31 9.6 29.75 10.45 28.85"/>
    <path stroke="none" fill="#0c6674" d="M52.25 19.95 Q51.45 20.95 50.15 20.9 48.95 20.95 48.05 19.95 47.2 19.15 47.2 17.9 47.2 16.75 48.05 15.75 48.95 14.95 50.15 14.95 51.45 14.95 52.25 15.75 53.2 16.75 53.15 17.9 53.2 19.15 52.25 19.95"/>
    <path stroke="none" fill="#0c6674" d="M40.15 28.85 Q41.15 28 42.3 28 43.55 28 44.35 28.85 45.25 29.75 45.25 31 45.25 32.25 44.35 33.05 43.55 33.95 42.3 34 41.15 34 40.15 33.05 39.35 32.25 39.35 31 39.35 29.75 40.15 28.85"/>
    <path stroke="none" fill="#0c6674" d="M48.75 41.35 Q50 41.35 50.8 42.2 51.7 43.1 51.7 44.35 51.7 45.6 50.8 46.4 50 47.35 48.75 47.3 47.6 47.35 46.6 46.4 45.8 45.6 45.8 44.35 45.8 43.1 46.6 42.2 47.6 41.35 48.75 41.35"/>
    <path stroke="none" fill="#0c6674" d="M54.05 55.45 Q54.95 54.6 56.2 54.6 57.45 54.6 58.25 55.45 59.2 56.35 59.15 57.55 59.2 58.8 58.25 59.6 57.45 60.6 56.2 60.6 54.95 60.6 54.05 59.6 53.2 58.8 53.2 57.55 53.2 56.35 54.05 55.45"/>
    <path stroke="none" fill="#0c6674" d="M45.7 68.75 Q46.6 67.95 47.85 67.95 49.1 67.95 49.9 68.75 50.8 69.65 50.8 70.9 50.8 72.15 49.9 72.95 49.1 73.85 47.85 73.85 46.6 73.85 45.7 72.95 44.9 72.15 44.9 70.9 44.9 69.65 45.7 68.75"/>
    <path stroke="none" fill="#0c6674" d="M37.85 81.85 Q38.75 81 40 81 41.25 81 42.05 81.85 42.95 82.75 43 84 43 85.25 42.05 86.05 41.25 87 40 86.95 38.75 87 37.85 86.05 37 85.25 37 84 37 82.75 37.85 81.85"/>
    <path stroke="none" fill="#0c6674" d="M46.7 4.6 Q46.7 5.85 45.8 6.7 45 7.6 43.7 7.6 42.55 7.6 41.65 6.75 42.4 4.85 43.4 3.6 44.25 2.6 45.25 2.05 L45.8 2.45 Q46.7 3.4 46.7 4.6"/>
    <path stroke="none" fill="#0c6674" d="M16.05 6.7 Q15.25 7.65 14 7.6 12.75 7.65 11.85 6.7 11.05 5.9 11.05 4.6 11.05 3.4 11.85 2.5 12.75 1.65 14 1.65 15.25 1.65 16.05 2.5 16.95 3.4 16.95 4.6 16.95 5.9 16.05 6.7"/>
    <path stroke="none" fill="#0c6674" d="M8.6 17.9 Q8.65 19.15 7.7 19.95 6.9 20.95 5.6 20.9 4.4 20.95 3.5 19.95 2.65 19.15 2.65 17.9 2.65 16.75 3.5 15.75 4.4 14.95 5.6 14.95 6.9 14.95 7.7 15.75 8.65 16.75 8.6 17.9"/>
    <path stroke="none" fill="#0c6674" d="M17.5 17.9 Q17.5 16.75 18.3 15.75 19.2 14.95 20.45 14.95 21.7 14.95 22.5 15.75 23.4 16.75 23.4 17.9 23.4 19.15 22.5 19.95 21.7 20.95 20.45 20.9 19.2 20.95 18.3 19.95 17.5 19.15 17.5 17.9"/>
    <path stroke="none" fill="#0c6674" d="M19.05 41.35 Q20.3 41.35 21.1 42.2 22.05 43.1 22 44.35 22.05 45.1 21.65 45.75 L16.15 45.2 16.05 44.35 Q16.05 43.1 16.9 42.2 17.8 41.35 19.05 41.35"/>
    <path stroke="none" fill="#0c6674" d="M33.95 41.35 Q35.2 41.35 36 42.2 36.95 43.1 36.9 44.35 L36.85 44.95 Q34.95 43.6 32.3 44.25 L30.95 44.5 30.95 44.35 Q30.95 43.1 31.8 42.2 32.7 41.35 33.95 41.35"/>
    <path stroke="none" fill="#0c6674" d="M55.65 5.25 L56.7 7 56.35 6.7 Q55.85 6.05 55.65 5.25"/>
    <path stroke="none" fill="#0c6674" d="M54.1 31 Q54.1 29.75 54.95 28.85 55.85 28 57.1 28 58.35 28 59.15 28.85 60.1 29.75 60.05 31 60.1 32.25 59.15 33.05 58.35 33.95 57.1 34 55.85 34 54.95 33.05 54.1 32.25 54.1 31"/>
    <path stroke="none" fill="#0c6674" d="M61.45 42.2 L62.25 41.7 62.4 47.05 61.45 46.4 Q60.6 45.55 60.6 44.35 60.6 43.1 61.45 42.2"/>
    <path stroke="none" fill="#0c6674" d="M60.55 73 Q59.7 72.15 59.7 70.95 59.7 69.65 60.55 68.75 61 68.3 61.65 68.15 L60.65 73.1 60.55 73"/>
    <path stroke="none" fill="#0c6674" d="M52.7 81.85 Q53.6 81 54.8 81 56.1 81 56.9 81.85 L57.6 82.8 55.65 86.85 54.8 86.95 Q53.6 87 52.7 86.05 51.85 85.25 51.85 84 51.85 82.75 52.7 81.85"/>
    <path stroke="none" fill="#0c6674" d="M44.35 57.55 Q44.35 58.8 43.45 59.6 42.85 60.35 42 60.5 L41.35 54.6 41.4 54.6 Q42.65 54.6 43.45 55.45 44.35 56.35 44.35 57.55"/>
    <path stroke="none" fill="#0c6674" d="M28.15 84 Q28.2 85.2 27.2 86.05 26.4 86.95 25.15 86.95 23.95 86.95 23.05 86.05 22.2 85.2 22.2 84 22.2 83.2 22.5 82.6 24.15 81.8 26.25 81.15 L27.2 81.8 Q28.2 82.7 28.15 84"/>
    <path stroke="none" fill="#0c6674" d="M19 99.3 Q17.1 97.4 16.7 94.35 18 94.35 18.8 95.2 19.7 96.1 19.7 97.35 19.7 98.45 19 99.3"/>
    <path stroke="none" fill="#0c6674" d="M34.65 97.35 Q34.65 98.6 33.65 99.4 32.85 100.35 31.6 100.3 30.45 100.35 29.45 99.4 28.65 98.6 28.65 97.35 28.65 96.1 29.45 95.2 30.45 94.35 31.6 94.35 32.85 94.35 33.65 95.2 34.65 96.1 34.65 97.35"/>
    <path stroke="none" fill="#0c6674" d="M44.3 95.2 Q45.2 94.35 46.45 94.35 47.7 94.35 48.5 95.2 L48.9 95.6 Q46.6 97.65 43.95 99 43.45 98.3 43.45 97.35 43.45 96.1 44.3 95.2"/>
    <path stroke="none" fill="#0b5a66" d="M53.4 4.5 L52.05 3.4 Q50.6 2.45 48.8 2.5 L48.05 2.55 47.85 2.55 Q46.8 2.65 45.85 3.15 L44.35 4.4 Q43.45 5.45 42.8 7.2 42.3 8.5 41.95 10.35 41.55 12.4 41.5 14.4 L41.5 14.55 41.35 15.75 Q41.35 18.3 39.65 20.7 37.95 23.15 33.2 24.1 L32.8 24.1 30.7 23.6 30.55 23.55 Q27.2 22.4 25.4 19.7 23.95 17.5 23.45 14.55 L23.35 13.65 Q22.5 7.2 19.55 4.55 L19.15 4.25 Q17.35 2.8 14.9 2.55 11.15 2.75 8.65 4.6 L8.4 4.75 Q6.95 5.8 6.05 7.25 L4.85 9.2 Q4.05 10.9 3.45 13.15 3 14.75 2.7 16.8 2.35 19.3 2.6 22.45 L2.65 22.55 2.65 22.95 2.7 23.15 Q2.85 24.85 3.15 26.45 3.75 29.7 4.75 32.45 5.85 35.65 7.6 38.05 8.95 39.95 10.65 41.25 L13.45 42.95 16.5 44 21.65 44.5 21.8 44.45 24.9 44.25 27.15 43.85 32.05 43 33.9 42.75 Q35.95 42.8 37.6 43.95 39.1 44.9 40.25 47 41.25 48.9 41.9 51.3 L42.55 54.4 43.25 60.4 43.3 61.9 43.35 63.3 43.35 63.7 Q43.35 67.6 42.6 70.7 40.1 80.3 30.2 81.65 L29.55 81.7 29.45 81.75 26.55 82.35 23.05 83.75 Q21.15 84.7 20 86.05 17.95 88.2 17.85 91.3 L17.8 91.5 17.75 92.1 17.95 94.1 Q18.3 96.85 19.9 98.4 L22 99.85 Q24.2 100.8 27.15 100.95 L27.8 100.95 28.4 101 35.8 100.15 36 100.15 36.05 100.15 40.5 99.05 43.35 97.85 Q46.1 96.45 48.05 94.65 L50.2 92.55 50.25 92.5 52.6 89.45 54.55 86.25 56.4 82.3 56.55 81.9 56.75 81.35 57.15 80.25 57.6 79.05 58.05 77.55 58.55 76.1 59 74.35 59.45 72.75 60.25 68.5 60.4 67.9 60.75 65.05 60.8 64.8 Q61.25 61.3 61.3 57.65 L61.25 50.8 61.25 50.65 61.2 49.6 61.15 47.05 60.95 41.75 60.8 38.55 60.6 35.65 60.55 35 60.35 32.75 59.95 26.65 59.55 22.75 Q59 18.65 58.25 15.35 L57.1 11.2 Q56.4 9.1 55.55 7.6 L55.5 7.5 54.6 5.95 53.4 4.5 M56.65 4.5 L57.75 6.4 Q58.75 8.15 59.45 10.4 L60.7 14.8 Q61.45 18.25 62 22.4 L62.45 26.45 62.85 32.55 63.05 34.85 63.05 35 63.1 35.35 63.3 38.4 63.45 41.6 63.65 47 63.7 49.5 63.75 50.25 63.75 50.45 63.75 50.75 63.8 57.7 Q63.75 61.5 63.25 65.1 L63.25 65.35 62.85 68.35 62.75 68.95 61.85 73.35 61.4 75 60.95 76.75 60.45 78.35 59.95 79.8 59.95 79.9 59.5 81.05 59.1 82.25 58.9 82.75 58.75 83.25 56.75 87.4 54.7 90.85 52.15 94.15 52.05 94.25 49.7 96.55 Q47.55 98.5 44.5 100.05 43.05 100.8 41.3 101.4 39.1 102.25 36.3 102.6 L36.15 102.65 28.4 103.5 27.8 103.45 27.1 103.45 Q23.55 103.3 21.05 102.15 19.3 101.45 18.1 100.1 16 98.05 15.45 94.5 15.3 93.45 15.3 92.1 L15.35 91.1 Q15.55 87.15 18.15 84.35 19.55 82.75 21.9 81.5 23.65 80.65 25.9 79.95 L29 79.25 29.95 79.2 Q38.15 78.05 40.2 70.1 40.85 67.3 40.85 63.7 L40.85 63.35 40.8 62 40.75 60.6 40.1 54.8 39.45 51.9 Q38.9 49.8 38.05 48.2 37.2 46.65 36.2 46 34.65 44.9 32.55 45.45 L27.65 46.3 25.2 46.75 21.95 46.95 21.7 47 15.9 46.4 Q13.7 45.85 12.3 45.15 L9.15 43.25 Q7.15 41.7 5.55 39.55 3.6 36.8 2.35 33.3 1.35 30.35 0.7 26.9 L0.2 23.5 0.15 22.6 Q-0.15 19.25 0.2 16.5 0.55 14.2 1 12.5 1.7 9.95 2.6 8.1 L2.65 7.95 3.95 5.9 Q5.2 4 7.1 2.6 L7.35 2.45 Q10.45 0.25 14.9 0.05 L15.1 0.05 Q18.3 0.4 20.6 2.2 L21.25 2.75 Q24.9 5.9 25.85 13.4 L25.85 13.55 25.9 14 25.9 14.1 Q26.3 16.55 27.45 18.3 28.8 20.35 31.35 21.2 L33 21.6 Q38.7 20.6 38.9 15.7 L39 14.25 Q39.1 12.05 39.5 9.9 39.9 7.85 40.45 6.3 41.3 4.15 42.45 2.8 43.4 1.65 44.65 0.95 46.05 0.2 47.65 0.05 L48.75 0 49.05 0 Q51.45 0 53.4 1.3 L55.2 2.75 56.65 4.5"/>
  </g>
</svg>