<svg width="70.5px" height="71.25px" viewBox="0 0 70.5 71.25" xmlns="http://www.w3.org/2000/svg" xmlns:xlink="http://www.w3.org/1999/xlink">
  <defs/>
  <g>
    <path stroke="none" fill="#000000" d="M64.3 16.4 L64.3 16.7 63.85 19.8 Q62 26.05 53.85 33.1 50.15 36.2 45 39.6 41.05 42.2 39.85 43.7 L41.15 44.55 42.2 44.6 50.25 44.35 51.3 44.4 52.15 44.5 59.65 45.4 Q63 46.15 64.95 47.05 67.85 48.45 69.45 50.65 L69.55 50.85 Q72.25 56.5 67.35 62 L67.1 62.3 66.8 62.65 Q62.8 66.85 55.3 69 48.55 70.95 38.85 71.25 L36.6 71.25 31.1 71.2 30.95 71.15 30.85 71.15 22.75 70 Q13.55 68.1 8.85 64.3 4.65 60.8 3.95 55.65 3.4 50.05 8.75 44.4 11.55 41.3 16.35 38 L22.4 33.65 22.65 33.4 22.65 33.1 Q22.65 32.85 22.9 32.7 L26.65 30 28.8 27.65 Q29.95 25.75 29.6 25.75 29.85 25.55 27.6 25 L14.6 25.5 Q9.55 24.65 7.5 21.8 5.7 19.3 6.35 15.4 6.7 13.75 7.8 12.3 10.6 8.35 19.15 5.55 L22.5 4.65 29.75 3.55 38.8 2.75 40.45 2.75 Q49.1 2.75 55.45 5.4 L55.65 5.5 55.85 5.55 55.95 5.6 57.55 6.35 Q64 9.35 64.3 16.4"/>
    <path stroke="none" fill="#6699ff" d="M51.05 9.2 L42.75 14.2 34.9 9.1 34.9 1.25 Q44.4 1 51.05 3.8 L51.05 9.2"/>
    <path stroke="none" fill="#6699ff" d="M18.85 3.1 L18.85 8.95 10.75 14.1 4.9 10.3 Q7.55 6.55 15.65 3.95 L18.85 3.1"/>
    <path stroke="none" fill="#6699ff" d="M5.75 60.55 L11.25 57 19.05 62.15 19.1 66 Q10.2 64.2 5.75 60.55"/>
    <path stroke="none" fill="#6699ff" d="M59.05 46.35 L55.45 43.85 Q58.35 44.45 60.45 45.4 L59.05 46.35"/>
    <path stroke="none" fill="#6699ff" d="M34.9 67.25 L34.9 62.35 43 56.85 43.05 56.85 51.05 62.15 51.05 65.05 Q44.45 66.95 34.9 67.25"/>
    <path stroke="none" fill="#cedeff" d="M59.15 13.7 L59.15 13.95 58.65 14.25 51.05 9.15 51.05 3.8 51.55 4 53.05 4.7 Q58.9 7.45 59.15 13.7"/>
    <path stroke="none" fill="#00287d" d="M51.1 9.15 L58.7 14.2 58.75 16.7 Q57 22.6 49.15 29.35 L42.75 24.95 42.75 14.15 51.1 9.15"/>
    <path stroke="none" fill="#cedeff" d="M58.65 14.25 L59.15 13.95 58.7 16.75 58.65 14.25"/>
    <path stroke="none" fill="#00287d" d="M34.9 1.25 L34.9 9.1 27 14.15 18.85 8.95 18.85 3.1 25.95 2.05 34.9 1.25"/>
    <path stroke="none" fill="#cedeff" d="M42.75 14.15 L42.75 24.95 34.7 30.35 27 24.8 27 14.15 34.9 9.1 42.75 14.15"/>
    <path stroke="none" fill="#cedeff" d="M27 24.8 L25.9 25.65 Q28.8 21.6 23.65 21 L10.85 21.5 10.75 14.15 18.85 9 27 14.2 27 24.8"/>
    <path stroke="none" fill="#00287d" d="M25.9 25.65 L26.95 24.8 34.7 30.35 34.7 40.55 34.5 40.9 26.95 46.1 19.25 40.9 19.25 31.85 Q24.05 28.05 25.9 25.65"/>
    <path stroke="none" fill="#cedeff" d="M36.35 42.95 L38.3 43.05 43.1 46.35 43.1 56.75 43 56.85 34.9 62.3 27 56.75 27 46.1 34.55 40.9 Q33.75 42.5 36.35 42.95"/>
    <path stroke="none" fill="#cedeff" d="M36.35 42.95 Q33.75 42.5 34.55 40.9 L34.7 40.7 38.3 43.05 36.35 42.95"/>
    <path stroke="none" fill="#00287d" d="M34.75 40.75 L34.55 40.9 34.75 40.55 34.75 40.75"/>
    <path stroke="none" fill="#cedeff" d="M49.1 29.35 Q45.45 32.4 40.35 35.75 35.85 38.75 34.7 40.5 L34.7 30.3 42.75 24.95 49.1 29.35"/>
    <path stroke="none" fill="#cedeff" d="M47.25 42.9 L48.1 42.95 43.1 46.35 38.25 43.1 46.4 42.85 47.25 42.9"/>
    <path stroke="none" fill="#00287d" d="M43.1 56.75 L43.1 46.35 48.1 42.95 55.5 43.85 59.1 46.35 59.1 56.9 59.05 56.95 51.1 62.15 43.05 56.85 43.1 56.75"/>
    <path stroke="none" fill="#00287d" d="M10.9 21.45 Q2.45 20.15 3.7 12.85 4 11.5 4.9 10.3 L10.75 14.1 10.9 21.45"/>
    <path stroke="none" fill="#cedeff" d="M13.15 36.25 L19.25 31.85 19.25 40.9 11.25 46.2 5.75 42.45 Q8.55 39.4 13.15 36.25"/>
    <path stroke="none" fill="#00287d" d="M19.25 31.85 L19.25 30.35 25.9 25.65 Q24.05 28.1 19.25 31.85"/>
    <path stroke="none" fill="#00287d" d="M19.05 66 L19 62.1 26.95 56.75 34.85 62.3 34.85 67.2 27.05 67.15 19.05 66"/>
    <path stroke="none" fill="#00287d" d="M11.25 46.2 L11.25 57 5.75 60.55 Q1.9 57.3 1.3 52.7 0.8 47.75 5.75 42.45 L11.25 46.2"/>
    <path stroke="none" fill="#cedeff" d="M11.25 57 L11.25 46.2 19.3 40.9 27 46.1 27 56.75 19.05 62.15 11.25 57"/>
    <path stroke="none" fill="#cedeff" d="M62 59.05 L59.1 57.1 59.1 46.35 60.5 45.45 Q63.2 46.75 64.55 48.65 66.9 53.55 62.55 58.45 L62 59.05"/>
    <path stroke="none" fill="#cedeff" d="M59 56.95 L59.1 57.05 61.95 59 Q58.2 62.95 51.05 65.05 L51.05 62.15 59 56.95"/>
    <path stroke="none" fill="#001031" d="M59.25 16.7 Q59.2 17.15 58.75 17.2 58.25 17.15 58.25 16.7 L58.2 14.5 51.05 9.75 43.25 14.45 43.25 24.7 49.4 28.95 Q49.8 29.25 49.55 29.65 49.25 30 48.85 29.8 L42.75 25.55 35.2 30.6 35.2 40.45 43.1 45.75 47.85 42.55 48.55 42.65 Q48.75 43.1 48.4 43.35 L43.6 46.6 43.6 56.6 51.05 61.55 58.6 56.65 58.6 46.6 55.2 44.25 Q54.85 44 55.05 43.6 55.35 43.2 55.75 43.45 L59.1 45.75 60.2 45 Q60.6 44.8 60.9 45.15 61.1 45.55 60.75 45.85 L59.6 46.6 59.6 56.8 62.25 58.6 Q62.65 58.9 62.4 59.3 L61.7 59.4 58.95 57.6 51.55 62.4 51.55 65.05 Q51.55 65.5 51.05 65.55 50.6 65.5 50.55 65.05 L50.55 62.4 43 57.4 35.4 62.6 35.4 67.2 Q35.35 67.65 34.9 67.7 34.45 67.65 34.4 67.2 L34.4 62.6 27 57.4 19.55 62.4 19.6 66 Q19.55 66.45 19.1 66.5 18.65 66.45 18.6 66 L18.55 62.4 11.25 57.6 6 61 Q5.6 61.2 5.35 60.85 5.1 60.45 5.45 60.15 L10.75 56.75 10.75 46.5 5.45 42.9 Q5.1 42.6 5.35 42.2 5.6 41.85 6.05 42.05 L11.25 45.6 18.75 40.65 18.75 30.35 Q18.75 30.1 19 29.95 L26.5 24.55 26.5 14.45 18.85 9.55 11.25 14.4 11.35 21.45 Q11.35 21.9 10.9 21.95 L10.85 21.95 Q10.45 21.95 10.35 21.45 L10.25 14.4 4.65 10.7 Q4.25 10.45 4.5 10.05 4.75 9.65 5.15 9.9 L10.75 13.5 18.35 8.7 18.35 3.1 Q18.4 2.65 18.85 2.6 19.3 2.65 19.35 3.1 L19.35 8.7 27 13.55 34.4 8.8 34.4 1.25 Q34.45 0.8 34.9 0.75 35.35 0.8 35.4 1.25 L35.4 8.8 42.75 13.6 50.55 8.85 50.55 3.8 Q50.6 3.3 51.05 3.3 51.55 3.3 51.55 3.8 L51.55 8.9 58.7 13.65 58.9 13.5 Q59.3 13.3 59.6 13.65 59.8 14.05 59.4 14.35 L59.2 14.5 59.25 16.7 M42.25 14.45 L34.9 9.7 27.5 14.45 27.5 24.55 34.7 29.75 42.25 24.7 42.25 14.45 M19.75 30.6 L19.75 40.65 27 45.5 34.2 40.5 34.2 30.6 27 25.4 19.75 30.6 M26.5 56.5 L26.5 46.35 19.25 41.5 11.75 46.5 11.75 56.75 19 61.55 26.5 56.5 M27.5 56.5 L34.9 61.7 42.6 56.5 42.6 46.6 34.75 41.35 27.5 46.35 27.5 56.5"/>
    <path stroke="none" fill="#1246a7" d="M60.4 13.95 L59.95 17.05 Q58.1 23.3 49.95 30.35 46.25 33.45 41.1 36.85 36.85 39.6 35.8 41.2 L35.65 41.45 35.65 41.5 36.55 41.75 38.3 41.85 39.8 41.85 46.35 41.6 47.4 41.65 48.25 41.75 55.75 42.65 Q59.1 43.4 61.05 44.3 63.95 45.7 65.55 47.9 L65.65 48.1 Q68.35 53.75 63.45 59.25 L63.2 59.55 62.9 59.9 Q58.9 64.1 51.4 66.25 44.65 68.2 34.95 68.5 L32.7 68.5 27.25 68.45 27.05 68.45 26.9 68.4 18.85 67.25 Q9.65 65.35 4.95 61.55 0.75 58.05 0.05 52.9 -0.5 47.3 4.85 41.65 7.65 38.55 12.45 35.25 L18.5 30.9 Q23.3 27.1 24.9 24.9 26.05 23 25.7 23 25.95 22.8 23.7 22.25 L10.7 22.75 Q5.65 21.9 3.6 19.05 1.8 16.55 2.45 12.65 2.8 11 3.9 9.55 6.7 5.6 15.25 2.8 L18.6 1.9 25.85 0.8 34.85 0 36.55 0 Q45.2 0 51.55 2.65 L51.8 2.75 51.95 2.8 52.05 2.85 53.6 3.6 Q60.1 6.6 60.4 13.65 L60.4 13.95 M51.1 5.15 L50.85 5.05 50.7 5 Q44.1 2.25 34.95 2.5 L26.15 3.3 19.1 4.35 16 5.2 Q8.3 7.7 5.95 11.05 5.1 12.1 4.9 13.1 4.45 15.95 5.65 17.6 7.05 19.6 11.1 20.25 L23.5 19.75 23.85 19.75 Q27.15 20.2 27.95 22 28.8 23.8 26.95 26.4 25.15 28.8 20.05 32.85 L13.9 37.3 Q9.3 40.45 6.65 43.35 2.1 48.2 2.55 52.65 3.05 56.75 6.55 59.65 10.75 63.05 19.35 64.8 L27.15 65.95 27.3 65.95 34.85 66 Q44.3 65.7 50.75 63.85 57.55 61.9 61.1 58.15 L61.3 57.9 61.65 57.55 Q65.35 53.4 63.45 49.3 62.25 47.65 59.95 46.6 58.3 45.75 55.2 45.1 L48.05 44.2 47.9 44.2 47.25 44.15 47 44.15 46.45 44.1 39.8 44.35 38.25 44.35 36.2 44.2 Q33.9 43.85 33.35 42.6 32.8 41.9 33.4 40.35 L33.6 40 33.65 39.9 Q34.95 37.9 39.7 34.75 44.75 31.4 48.35 28.45 55.9 21.9 57.55 16.35 L57.9 13.85 57.9 13.7 Q57.7 8.2 52.55 5.85 L51.1 5.15"/>
  </g>
</svg>