<svg width="39.25px" height="42.2px" viewBox="0 0 39.25 42.2" xmlns="http://www.w3.org/2000/svg" xmlns:xlink="http://www.w3.org/1999/xlink">
  <defs/>
  <g>
    <path stroke="none" fill="#7279b8" d="M27.25 5.15 Q28.85 9.85 30.05 14.75 L30.2 15.25 Q31.3 19.85 32.7 24.45 33.75 27.3 35.65 30.15 L35.8 30.45 Q37.5 30.5 38.6 32.05 39.75 33.05 38.9 36.1 37.55 38.5 35.6 39.45 31.6 41.55 27.55 41.4 L27.15 41.4 Q20.5 41.15 20.05 36.15 20 34.15 21.35 32.7 22.2 31.8 23.4 31.4 L23.1 31.05 21.3 30.8 20.5 30.8 19.85 30.8 17.25 31.2 Q18.95 32.45 19.25 34.7 19.5 37.1 17.2 39.45 14.4 42.2 9.5 42.2 L8 42.15 Q2.2 41.4 0.25 36.5 -0.5 34 1 31.75 2.7 29.55 5.3 29.5 L6.3 29.6 7.7 27.05 8.65 25.15 Q9.95 22.65 10.9 19.75 L11.55 18.05 13.15 14.1 14.75 10.2 15.1 9.3 Q16.25 5.95 17.8 2.6 L17.3 1.35 19.4 0.5 Q20.7 0 21.85 0 23.7 0 25.1 1.25 26.8 3.2 27.25 5.15 M18.6 20.45 L18.6 20.5 Q18 21.85 18 23 17.8 23.25 20.35 23.55 L20.65 23.6 21.3 23.45 Q21.7 23.35 20.6 20.15 L20.6 20.05 19.7 17.95 18.6 20.45"/>
    <path stroke="none" fill="#5f7ba6" d="M20.25 2.6 Q22.05 1.75 23.55 2.95 24.7 4.2 25.1 5.85 26.7 10.5 27.9 15.3 29.05 20.25 30.55 25.1 32.2 29.3 34.75 33.05 35.05 33.25 35.1 32.95 36.1 32.3 36.8 33.35 37.3 34.25 36.85 35.25 35.95 36.75 34.35 37.6 31.15 39.25 27.45 39.15 25.8 39.25 24.15 38.6 22.45 37.95 22.3 36.1 22.8 32.9 25.95 33.6 L26 33.6 26.2 33.55 26.25 33.4 Q26.05 31.05 24.55 29.35 22.35 28.2 19.8 28.55 15 28.2 13.7 32.55 13.8 32.9 14.05 32.7 L14.15 32.7 Q16.55 32.5 17.05 34.95 16.95 36.65 15.6 37.85 12.4 40.5 8.2 39.9 4.05 39.55 2.4 35.75 1.9 33.75 3.4 32.45 4.95 31.15 6.8 32.2 L6.95 32.2 7.2 32.15 Q9.25 29.4 10.65 26.25 12.4 22.65 13.65 18.85 L16.85 11 Q18.3 6.8 20.2 2.75 L20.25 2.6 M19.5 12.95 L16.5 19.65 Q15.15 22.1 16.25 24.4 17.9 25.85 20.2 25.8 21.75 26.05 22.95 25.05 24.25 22.25 22.7 19.3 L19.95 13 19.75 12.85 19.5 12.95"/>
    <path stroke="none" fill="#7dc8e8" d="M25.55 32.85 Q26.1 32.65 24.05 35 L23.2 36.05 27.7 33.35 32.4 30.55 Q33.45 29.95 33.55 30.05 L33.75 30.2 Q34.05 30.3 33.2 31 L28.55 34.65 25.1 37.3 27.55 35.8 Q33.35 32.15 32.85 32.8 L33.05 32.95 Q34.05 32.55 29.95 36.1 L27.95 37.95 Q29.25 37.15 30.65 36.3 L35 33.65 Q36 33.1 36.1 33.25 L36.3 33.35 Q37.2 33 33.45 36.4 L32.6 37.25 34.25 36.2 37.45 34.3 38.1 34.1 38.25 34.25 Q38.4 34.45 38.15 34.6 L38.05 34.65 34.55 36.7 Q30.3 39.3 30.9 38.75 L30.7 38.6 Q29.9 38.85 33.1 36 L34.7 34.5 30.95 36.75 26.4 39.35 26.3 39.35 26.15 39.2 Q25 39.65 29.6 35.7 L31.35 34.15 27.8 36.3 Q22.3 39.7 22.8 39.1 L22.65 38.95 Q22.3 38.85 23.2 38.1 L28.2 34.2 31.25 31.85 28 33.8 23.35 36.6 22.25 37.1 22.05 36.95 Q21.45 37.2 23.65 34.65 L24.2 33.95 23.5 34.25 23.3 34.15 Q23.2 33.9 23.4 33.75 L23.5 33.75 24.35 33.2 25.35 32.7 25.55 32.85"/>
    <path stroke="none" fill="#7dc8e8" d="M29.15 21.9 Q30.25 21.5 25.7 25.2 L24.15 26.45 26.2 25.25 30 23 Q30.75 22.55 30.8 22.65 L31 22.8 Q31.95 22.45 28.1 26 L26.85 27.25 28.45 26.25 Q32.05 24 31.65 24.5 L31.85 24.65 Q32.8 24.25 28.9 27.75 L27.5 29.05 27.9 28.75 Q30.85 26.9 30.6 27.3 L30.75 27.45 Q31.4 27.2 29 29.95 L28.35 30.7 29.35 30.1 32.15 28.55 32.3 28.7 Q32.45 28.95 32.2 29.1 L32.1 29.15 29.65 30.55 27.25 31.95 27.2 31.9 27 31.8 Q26.45 32 28.55 29.55 L29.5 28.45 28.2 29.25 Q25.5 31 25.75 30.6 L25.55 30.45 Q24.6 30.85 28.55 27.3 L29.95 26 28.75 26.75 25.4 28.6 25.2 28.45 Q24.35 28.8 27.7 25.6 L29.45 23.95 26.45 25.75 22.85 27.9 22.1 28.15 21.95 28.05 Q20.85 28.4 25.35 24.75 L27.05 23.35 23.1 25.7 17.25 29.2 15.8 29.85 15.6 29.7 Q15.5 29.5 15.7 29.35 L15.85 29.3 18.55 27.8 22.8 25.25 27.8 22.25 Q28.9 21.65 28.95 21.75 L29.15 21.9"/>
    <path stroke="none" fill="#7dc8e8" d="M27.45 8.5 Q27.7 8.6 27.1 9.2 L23.55 12.25 21.7 13.85 23.5 12.8 27.25 10.55 Q27.95 10.2 27.95 10.3 L28.15 10.45 Q29.2 10.05 24.95 13.75 L23.4 15.15 24.3 14.6 Q28.05 12.3 27.55 12.85 L27.7 12.95 Q28.55 12.65 25.3 15.8 L24.35 16.7 24.65 16.5 Q27 15.05 26.8 15.35 L27 15.5 Q27.9 15.15 24.2 18.65 L22.95 19.8 23.75 19.35 Q27.55 17 27 17.55 L27.2 17.65 Q27.85 17.4 25.4 20.1 L24.3 21.4 Q25.55 20.65 26.9 19.85 31.05 17.3 30.45 17.9 L30.65 18 Q31.75 17.6 27.15 21.35 L25.15 23.15 25.25 23.05 27.85 21.6 28.05 21.75 27.95 22.15 27.8 22.2 25.55 23.5 23 24.95 22.95 24.95 22.75 24.8 Q22.5 24.7 23.15 24.1 L26.8 20.95 28.35 19.65 27.2 20.3 23.85 22.3 23.2 22.55 23.05 22.4 Q22.35 22.7 25 19.75 L25.9 18.7 24.05 19.8 Q20.95 21.7 21.35 21.25 L21.2 21.15 Q20.3 21.45 23.8 18.25 L25.25 16.85 24.95 17 Q22.65 18.45 22.85 18.15 L22.7 18 Q21.9 18.25 24.9 15.4 L26.15 14.15 24.6 15.1 Q21.25 17.15 21.7 16.7 L21.5 16.55 Q20.5 16.95 24.55 13.35 L26.35 11.7 23.8 13.25 20.4 15.3 19.75 15.5 19.55 15.4 Q19.3 15.3 19.9 14.7 L23.2 11.85 25.35 10 24.25 10.7 Q19.8 13.4 20.35 12.85 L20.15 12.7 Q20.05 12.5 20.25 12.35 L20.4 12.3 23.95 10.2 Q27.85 7.85 27.3 8.35 L27.45 8.5"/>
    <path stroke="none" fill="#7dc8e8" d="M20 25.85 L11.9 31.35 5.3 35.75 7.95 34.15 12.75 31.3 Q13.7 30.75 13.75 30.9 L13.9 31 Q14.15 31.15 13.55 31.7 L9.9 34.6 7.45 36.55 9.25 35.4 Q13.6 32.65 13.3 33.15 L13.45 33.3 Q13.75 33.4 13.1 34 L9.3 37.05 7.2 38.7 11 36.4 Q14.8 34.05 15.95 33.45 17.05 32.8 17.1 32.95 L17.3 33.05 Q17.55 33.2 16.95 33.75 L13.3 36.7 10.65 38.75 13.7 36.95 17.5 34.7 Q18.2 34.3 18.2 34.4 L18.4 34.55 18.3 34.95 18.15 35 14 37.4 Q8.25 40.9 8.75 40.4 L8.65 40.4 8.5 40.3 Q8.2 40.15 8.9 39.55 L12.95 36.25 15.05 34.6 Q13.25 35.65 11.3 36.85 L6.25 39.9 5.05 40.4 4.85 40.25 Q4.6 40.15 5.25 39.55 L8.95 36.6 11 35 9.55 35.9 Q5.1 38.75 5.4 38.2 L5.2 38.1 Q4.95 37.95 5.6 37.35 6.3 36.7 9.55 34.15 L11.5 32.65 8.25 34.6 3.3 37.55 2.25 38 2.05 37.85 Q1.6 37.75 3.2 36.55 L11.55 30.9 17.85 26.7 Q15.45 28.1 12.6 29.85 L4.8 34.5 Q2.75 35.7 2.6 35.55 L2.4 35.4 Q2.05 35.6 3.3 33.4 L3.6 32.8 3.25 33 2 33.65 1.85 33.5 Q1.75 33.25 1.95 33.1 L2 33.1 2.95 32.55 Q4.45 31.6 4.3 31.85 L4.5 31.95 Q4.8 31.8 3.75 33.65 L3.2 34.75 12.3 29.4 19.15 25.25 Q20.75 24.4 20.75 24.55 L20.95 24.7 Q21.4 24.8 20 25.85"/>
    <path stroke="none" fill="#7dc8e8" d="M24.9 9.05 L20.2 12.65 16.45 15.45 17 15.1 Q20.1 13.2 19.7 13.65 L19.85 13.8 Q20.1 13.9 19.5 14.45 L16.1 17.45 15.1 18.3 15.2 18.25 Q18.35 16.3 17.95 16.75 L18.1 16.9 Q19.3 16.45 14.5 20.5 L13.05 21.8 13.1 21.8 Q15.6 20.25 15.3 20.6 L15.45 20.75 Q15.95 20.55 14.25 22.7 L13.55 23.65 Q14.55 23 14.65 23.15 L14.8 23.25 Q15.75 22.9 12 26.45 L10.9 27.55 12.1 26.8 Q16.1 24.35 15.65 24.85 L15.85 25 Q16.15 25.1 15.35 25.8 L10.85 29.4 9.15 30.7 13.15 28.3 18.55 25.05 Q19.8 24.35 19.85 24.5 L20 24.65 Q20.15 24.85 19.9 25 L19.75 25.05 13.4 28.75 8.25 31.85 Q6.95 32.6 6.85 32.55 L6.8 32.5 6.6 32.4 Q6.35 32.25 6.95 31.75 7.55 31.2 10.5 28.95 L13.4 26.7 12.4 27.3 Q8.9 29.45 9.35 28.95 L9.2 28.85 Q8.35 29.15 11.6 26.05 L13.05 24.65 12.6 24.8 12.4 24.65 Q11.85 24.9 13.8 22.4 L14.35 21.7 13.4 22.25 Q10.8 23.85 11.1 23.45 L10.95 23.35 Q9.9 23.7 14.15 20.1 L16.15 18.35 15.5 18.75 Q12.55 20.55 12.9 20.15 L12.75 20 Q11.75 20.35 15.75 17.05 L17.7 15.35 17.3 15.6 Q13.4 17.95 13.95 17.4 L13.8 17.3 Q13.45 17.2 14.4 16.35 L19.85 12.2 22.45 10.25 20.85 11.2 16.15 14.05 14.95 14.55 14.8 14.4 Q14.5 14.3 15.2 13.65 L19.2 10.45 21.05 9 Q17.85 11 18.05 10.65 L17.9 10.5 Q17 10.8 20.45 7.7 L21.5 6.75 21.1 7 18.95 8.15 18.8 8 Q18.2 8.25 20.3 5.8 L21.15 4.8 Q20.55 5.2 20.4 5.1 L20.2 4.95 Q19.8 5.2 21.05 3.05 L21.4 2.45 20.6 2.85 20.65 2.55 20.55 2.3 21.2 1.95 Q22.25 1.3 22.2 1.45 L22.35 1.6 21.55 3.35 21.1 4.15 21.25 4.05 Q22.25 3.35 22.35 3.5 22.45 3.5 22.55 3.65 23.15 3.35 20.75 6.15 L20.05 7 20.8 6.5 Q23.35 4.9 23.2 5.2 L23.4 5.35 Q24.25 5.05 20.8 8.15 L19.7 9.2 20.9 8.45 Q24 6.45 23.7 6.9 L23.9 7 Q24.15 7.1 23.5 7.75 L19.55 10.9 16.95 12.9 20.6 10.75 24.4 8.45 Q25.2 8 25.2 8.1 L25.4 8.25 Q25.7 8.35 24.9 9.05"/>
    <path stroke="none" fill="#fac49d" d="M8.25 30.7 Q8.65 31.05 8.4 31.5 L7.6 32.5 Q7.3 32.8 6.95 32.75 L6.85 32.8 6.45 32.65 5.5 32.3 Q5 32.2 5 31.65 5.1 31.15 5.6 31.15 L6.9 31.6 7.5 30.85 Q7.8 30.45 8.25 30.7"/>
    <path stroke="none" fill="#fac49d" d="M18.85 7.2 L17.7 10.3 16.65 9.9 17.8 6.8 Q18.05 6.35 18.55 6.5 19 6.7 18.85 7.2 M16.2 12.65 Q16.65 12.9 16.5 13.4 L15.75 15.2 15.2 16.4 Q15.05 16.75 14.7 16.75 L14.5 16.7 Q14.05 16.5 14.2 16 L14.7 14.75 15.45 12.95 Q15.7 12.5 16.2 12.65 M12.5 20.35 L12.95 19.05 Q13.2 18.6 13.7 18.75 14.15 18.95 14 19.45 L13.55 20.7 12.9 22.55 Q12.7 22.9 12.35 22.9 L12.15 22.9 Q11.7 22.65 11.85 22.15 L12.5 20.35 M11.55 25.65 L11.1 26.5 10.2 28.3 10.05 28.55 9.55 28.9 9.3 28.8 Q8.9 28.55 9.05 28.05 L9.2 27.8 10.15 25.95 10.55 25.15 Q10.85 24.7 11.3 24.9 11.75 25.15 11.55 25.65"/>
    <path stroke="none" fill="#fac49d" d="M21.7 2.8 L20.7 3.05 20.1 4.2 Q19.95 4.55 19.6 4.55 L19.4 4.5 Q18.9 4.2 19.1 3.75 L19.65 2.6 19.7 2.4 20 2.1 21.6 1.7 Q22.15 1.7 22.2 2.25 22.2 2.75 21.7 2.8"/>
    <path stroke="none" fill="#fac49d" d="M26.05 8.9 Q26.55 8.75 26.75 9.25 L27.6 12.2 Q27.7 12.7 27.2 12.85 L27.05 12.9 26.55 12.5 25.7 9.6 Q25.6 9.05 26.05 8.9 M25.85 6.35 Q25.95 6.85 25.5 7.05 L25.3 7.1 24.75 6.7 24.55 6.05 23.7 4 Q23.45 3.55 23.85 3.25 24.3 3 24.65 3.4 L25.6 5.7 25.85 6.35 M27.7 14.75 Q28.25 14.65 28.4 15.15 L28.55 15.65 29.15 18.1 Q29.2 18.6 28.75 18.75 L28.6 18.8 Q28.2 18.75 28.05 18.35 L27.45 15.95 27.3 15.4 Q27.25 14.9 27.7 14.75 M29.2 20.6 Q29.75 20.55 29.9 21 L30.75 23.9 Q30.85 24.45 30.35 24.6 L30.2 24.65 29.65 24.25 28.8 21.3 Q28.75 20.8 29.2 20.6 M31.7 26.7 L33.1 29.35 Q33.35 29.8 32.9 30.1 L32.65 30.2 Q32.3 30.2 32.15 29.9 L30.7 27.15 Q30.55 26.7 31 26.45 31.45 26.25 31.7 26.7"/>
    <path stroke="none" fill="#fac49d" d="M33.8 32.5 Q33.55 32.05 33.95 31.75 34.45 31.5 34.75 31.9 L35 32.4 Q36 31.85 36.85 32.6 37.2 32.95 36.9 33.4 L36.1 33.45 35.6 33.35 35.15 33.7 34.95 33.75 34.3 33.4 33.8 32.5"/>
    <path stroke="none" fill="#fac49d" d="M25.45 30.5 Q25.95 30.35 26.2 30.85 L26.6 32.55 26.8 33.3 26.8 33.45 26.7 33.85 Q26.5 34.2 26.1 34.2 25.55 34.2 25.5 33.65 L25.65 33.3 25.5 32.75 25.15 31.2 Q25 30.7 25.45 30.5 M21.35 28 Q22.65 27.95 24.1 28.45 24.55 28.7 24.4 29.2 L23.9 29.55 23.65 29.5 21.35 29.1 21.15 29.1 Q20.65 29.1 20.6 28.55 20.6 28.05 21.15 28 L21.35 28 M18.9 28.6 Q18.95 29.15 18.45 29.25 16.95 29.45 16 30 L15.7 30.1 15.25 29.8 Q15 29.35 15.4 29.05 16.6 28.35 18.3 28.15 18.8 28.1 18.9 28.6 M23.7 34.4 Q22.85 35 22.85 36 L22.85 36.1 22.85 36.25 Q22.9 36.8 22.35 36.9 L22.3 36.9 Q21.85 36.85 21.75 36.4 L21.75 36.1 21.75 36 Q21.75 34.4 23.1 33.45 23.55 33.2 23.85 33.6 24.1 34.05 23.7 34.4 M23.4 38.2 Q23.65 37.8 24.15 38 L26.6 38.6 Q27.15 38.65 27.15 39.2 L26.6 39.7 26.55 39.7 Q25.25 39.7 23.65 39 23.2 38.7 23.4 38.2 M34.35 36.95 L36.2 35.3 Q36.5 34.85 37 35.1 37.4 35.35 37.2 35.85 36.3 37.15 34.95 37.9 L34.65 38 34.2 37.75 Q33.95 37.25 34.35 36.95 M32.65 38.45 Q32.75 38.95 32.25 39.1 L29.45 39.6 29.35 39.6 Q28.9 39.6 28.8 39.1 28.8 38.6 29.3 38.5 L31.95 38.05 Q32.5 37.95 32.65 38.45"/>
    <path stroke="none" fill="#fac49d" d="M15.55 33.4 L15.3 33.35 14.3 33.2 13.7 33.3 Q13.1 33.1 13.15 32.45 L13.4 31.4 Q13.65 30.95 14.15 31.1 14.6 31.3 14.45 31.8 L14.4 32.1 15.75 32.3 Q16.2 32.55 16.05 33.05 15.9 33.4 15.55 33.4"/>
    <path stroke="none" fill="#fac49d" d="M16 38.25 L15.95 38.3 Q15.8 38.5 15.55 38.5 15.35 38.5 15.15 38.3 14.85 37.9 15.15 37.5 L15.2 37.5 Q16.45 36.25 16.5 35.3 16.55 34.75 17.1 34.75 17.6 34.85 17.6 35.35 17.5 36.75 16 38.25 M3.25 32.55 Q3.65 32.9 3.35 33.35 2.85 34.05 2.8 34.9 L2.95 35.6 2.95 35.7 Q3.1 36.2 2.65 36.45 L2.45 36.45 Q2.05 36.45 1.9 36.1 L1.9 36 1.7 34.9 Q1.7 33.7 2.5 32.65 L3.25 32.55 M3.75 38 L4.55 37.9 Q5.65 38.8 7.05 39.15 7.55 39.35 7.45 39.85 7.35 40.25 6.9 40.25 L6.8 40.25 Q5.1 39.8 3.85 38.8 3.5 38.4 3.75 38 M13.5 39.3 Q13.6 39.8 13.15 40 L10 40.55 9.95 40.55 Q9.45 40.5 9.4 40 9.45 39.5 9.95 39.45 L12.8 38.95 Q13.3 38.85 13.5 39.3"/>
    <path stroke="none" fill="#fac49d" d="M21.2 14.5 Q21.35 15 20.9 15.25 L20.7 15.3 Q20.3 15.3 20.15 15 L19.65 13.75 19.15 13.75 Q18.75 13.55 18.9 13.05 L19 12.75 Q19.25 12.25 19.8 12.3 20.3 12.35 20.5 12.8 L21.2 14.5 M18.75 16 L18.7 16.05 17.6 18.45 17.1 18.8 16.85 18.75 Q16.4 18.5 16.55 18 L17.7 15.6 17.75 15.5 Q18 15.05 18.5 15.25 18.95 15.5 18.75 16 M16.6 21 L16.25 22.8 16.35 23.4 Q16.4 23.9 15.95 24.05 L15.8 24.05 Q15.4 24.05 15.25 23.65 L15.15 22.8 Q15.15 21.85 15.55 20.65 15.75 20.15 16.25 20.3 16.75 20.5 16.6 21 M23.25 19.1 L23.4 19.6 Q23.55 20.1 23.05 20.3 L22.9 20.35 22.35 20 22.15 19.5 21.35 17.5 Q21.15 17 21.6 16.75 22.1 16.55 22.35 17 L23.25 19.1 M24.15 22.4 L24.15 23.05 Q24.15 24.55 23.35 25.4 L22.9 25.6 22.55 25.45 Q22.2 25.05 22.5 24.65 L22.55 24.6 Q23.05 24.1 23.05 23.05 L23 22.5 Q23 22 23.5 21.9 24 21.9 24.15 22.4 M20.4 25.25 Q20.9 25.35 20.95 25.85 20.85 26.35 20.35 26.4 L20.15 26.4 17.5 25.9 Q17 25.65 17.15 25.15 17.35 24.7 17.85 24.85 L20.25 25.25 20.4 25.25"/>
  </g>
</svg>