<svg width="34.75px" height="46.85px" viewBox="0 0 34.75 46.85" xmlns="http://www.w3.org/2000/svg" xmlns:xlink="http://www.w3.org/1999/xlink">
  <defs/>
  <g>
    <path stroke="none" fill="#7279b8" d="M29.35 21.4 Q32.8 23.1 34.2 27.1 35.55 31.55 33.65 35.55 31.8 38.65 28.95 39.7 L24.6 40.9 20.45 41.25 19.1 41.35 16.05 41.6 12 41.9 11.95 41.9 Q12.1 43.7 10.9 45.2 9.65 46.8 7.4 46.85 L6.1 46.7 Q3.25 45.6 2.25 43.55 1.35 42.2 0.45 39.6 -0.45 36.95 0.5 34.2 1.7 31.6 4.55 31.5 L6.1 31.75 6.15 25 6.05 22.35 5.85 19.2 5.6 16.15 5.55 14.8 5.5 13.05 Q1.05 12.75 0.45 8.25 0.9 2.55 6.1 0.85 8.35 0 11.5 0 L14.9 0.2 Q19.15 0.65 22.75 1.7 32.35 4.7 33 12.15 33 17.8 28.85 21.15 L29.35 21.4 M20.75 15.15 Q20.4 13.75 17.25 12.85 L17.25 12.8 Q16.45 15.9 17.25 17.6 17.25 17.85 18.1 17.95 19.45 17.85 20.4 16.7 20.9 16.15 20.75 15.15 M17.2 27.95 L17.05 27.9 17.2 29.4 17.25 30.4 Q17.35 31.9 17.75 32.9 L18.45 33.2 20.2 32.65 Q21.55 31.75 21.85 30.5 L21.65 29.55 Q20.8 28.8 19.9 28.6 L17.2 27.95"/>
    <path stroke="none" fill="#5f7ba6" d="M30.75 12.2 Q30.65 18.75 24.55 20.7 24.3 20.8 24.5 21 24.1 21.85 25 22.3 L28.4 23.35 Q31.35 24.95 32.2 28.25 33.05 31.55 31.65 34.45 29 38.25 24.25 38.6 L18.95 39.05 11.85 39.6 8.15 39.7 8.05 39.7 7.9 39.7 Q7.5 39.85 7.8 40.05 10.7 41.05 9.15 43.8 8.1 44.85 6.6 44.45 5 43.85 4.15 42.3 1.75 38.85 2.6 35.05 4.85 32.4 7.55 35.15 7.8 35.3 7.85 35 L7.85 34.95 Q8.9 28.7 8.3 22.3 L7.85 16 Q7.95 13.3 7.4 10.65 L7.35 10.65 7.15 10.4 Q3.5 11.7 2.7 8.05 3.05 4.2 6.9 2.9 10.7 1.8 14.7 2.4 18.45 2.75 22.1 3.8 25.25 4.65 27.85 6.7 30.45 8.8 30.75 12.2 M15.9 10.15 Q15.8 10.1 15.75 10.25 14.6 12.7 14.65 16.2 14.65 19.75 18.1 20.15 20.3 20.05 21.9 18.4 23.45 16.75 22.9 14.5 20.75 10.8 16.15 9.95 L15.9 10.15 M23.4 28.1 Q22.25 26.9 20.65 26.45 L15.3 25.1 Q15.05 25.1 15.05 25.3 L14.95 25.45 Q14.65 27.95 15.05 30.5 15.1 32.2 15.7 33.75 18 36.6 21.4 34.5 25.25 32 23.4 28.1"/>
    <path stroke="none" fill="#7dc8e8" d="M30.65 16.4 Q30.95 16.5 30 17.25 L24.5 21.25 21.4 23.5 24.9 21.55 25.1 21.65 Q25.9 21.35 22.7 24.5 L21.25 25.95 22.5 25.2 Q25.9 23.05 25.55 23.5 L25.75 23.65 Q26.2 23.45 24.5 25.75 L23.7 26.8 25.4 25.8 Q29.25 23.45 28.7 23.95 L28.9 24.1 Q29.65 23.8 26.7 26.8 L26 27.5 28 26.3 Q32.4 23.6 31.8 24.2 L31.95 24.35 Q32.2 24.45 31.6 25.05 L28 28.1 25.7 30.05 27.25 29.1 Q31.3 26.55 30.85 27.1 L31.05 27.25 30.95 27.6 30.8 27.65 27.55 29.55 23.9 31.65 23.85 31.65 23.65 31.5 Q23.4 31.4 24 30.8 L27.65 27.65 29.85 25.85 28.3 26.8 Q24.05 29.4 24.65 28.8 L24.45 28.7 Q23.8 28.9 26.3 26.4 L27.45 25.2 25.7 26.3 22.85 27.85 22.65 27.7 Q22.1 28 24.05 25.4 L24.7 24.5 22.8 25.65 19.9 27.25 19.7 27.1 Q18.85 27.5 22.3 24.1 L23.55 22.8 21.5 24.05 Q17.3 26.65 17.8 26.1 L17.65 25.95 Q17.3 25.85 18.3 25.05 19.3 24.25 24.15 20.8 L27.25 18.6 24.1 20.5 17.65 24.35 16.05 25.1 15.85 24.95 Q15.75 24.7 15.95 24.55 L16.1 24.5 19.1 22.9 23.8 20 29.3 16.75 Q30.45 16.1 30.45 16.25 L30.65 16.4"/>
    <path stroke="none" fill="#7dc8e8" d="M18.85 37.05 L18.2 38 Q20.9 36.55 25.6 33.6 L31.8 29.85 Q33.35 28.95 33.5 29.1 L33.7 29.25 Q34.05 29.35 33.05 30.15 L27.45 34.3 23.75 36.95 25.9 35.6 Q32.1 31.75 31.6 32.4 L31.8 32.55 Q32.75 32.2 29.1 35.6 L28.1 36.5 28.6 36.2 Q31.6 34.3 31.3 34.75 L31.5 34.85 31.4 35.25 31.25 35.3 Q30.5 35.65 28.85 36.7 26.15 38.4 26.45 38 L26.25 37.9 Q25.45 38.2 28.7 35.15 L30.35 33.55 26.2 36.1 22 38.65 20.9 39.05 20.75 38.95 Q20.4 38.85 21.4 38.05 L27.1 33.8 31.1 30.9 25.9 34.1 19.4 38 17.55 38.8 17.35 38.65 Q16.95 38.9 18.35 36.75 L19.05 35.65 16.3 37.3 Q12.15 39.85 12.75 39.25 L12.55 39.1 Q12 39.35 14.15 36.95 L14.85 36.1 12.05 37.8 7.05 40.6 6.95 40.6 6.8 40.5 Q6.7 40.25 6.9 40.1 L7.05 40.05 11.75 37.3 15.25 35.2 15.95 34.95 16.15 35.1 Q16.75 34.85 14.55 37.3 L13.85 38.1 16 36.8 Q20.4 34.1 19.8 34.7 L19.95 34.85 Q20.45 34.6 18.85 37.05"/>
    <path stroke="none" fill="#7dc8e8" d="M8.2 33.8 Q9.1 33.45 5.6 36.75 L4.2 38.15 8.65 35.5 Q12.9 32.9 14.15 32.2 15.4 31.5 15.45 31.65 L15.6 31.8 Q15.95 31.9 15.05 32.7 L9.65 36.65 6.7 38.8 9.2 37.3 13.65 34.6 Q14.65 34.05 14.75 34.2 L14.9 34.3 Q15.25 34.4 14.3 35.2 L8.7 39.4 6.2 41.25 Q7.25 40.65 7.2 40.8 L7.4 40.95 Q7.7 40.75 6.65 42.75 L6.2 43.7 8.5 42.35 Q11.75 40.3 11.3 40.8 L11.5 40.9 11.4 41.3 11.3 41.35 Q10.6 41.7 8.75 42.8 L5.65 44.6 5.55 44.55 5.4 44.45 Q5.05 44.65 6.15 42.5 L6.55 41.7 4.9 42.7 2.8 43.85 2.6 43.7 Q2.3 43.6 3.2 42.85 L8.4 38.95 12.35 36.05 9.5 37.8 5.1 40.4 4.05 40.85 3.85 40.7 Q3.55 40.6 4.4 39.9 L9.35 36.2 13.15 33.45 8.95 35.95 3.9 38.95 Q2.9 39.55 2.9 39.4 L2.7 39.25 Q1.85 39.6 5.2 36.35 L6.6 35 4.65 36.15 1.35 38 1.15 37.85 Q0.5 38.15 3.05 35.35 L4.05 34.2 3.4 34.45 3.25 34.35 Q3.15 34.1 3.35 33.95 L3.4 33.9 4.3 33.4 Q5.3 32.75 5.3 32.9 L5.45 33.05 Q6.15 32.75 3.45 35.7 L2.5 36.8 4.4 35.65 Q8.65 33.05 8.05 33.65 L8.2 33.8"/>
    <path stroke="none" fill="#7dc8e8" d="M28.7 5.05 Q28.95 5.15 28.3 5.75 L24.45 8.9 21.9 10.95 23.85 9.8 Q26.6 8.1 27.25 7.75 27.9 7.4 27.9 7.5 L28.1 7.65 Q28.9 7.4 25.8 10.25 L24.55 11.5 25.65 10.8 Q28.55 8.9 28.35 9.3 28.5 9.3 28.55 9.45 29.65 9.05 25.2 12.7 L23.65 14 26.3 12.4 30.2 10.05 31.05 9.75 31.2 9.85 Q31.45 10 30.85 10.55 L27.15 13.5 24.45 15.65 27.45 13.8 31.2 11.6 Q31.9 11.2 31.95 11.3 L32.1 11.45 32 11.85 31.9 11.9 Q30.85 12.4 27.75 14.3 L22.5 17.3 22.45 17.3 22.25 17.15 Q21.95 17.05 22.7 16.4 L26.8 13.05 28.7 11.55 26.55 12.85 22.6 15.25 21.75 15.6 21.55 15.45 Q20.5 15.8 24.85 12.25 L26.25 11.05 25.95 11.25 Q22.95 13.2 23.1 12.8 L22.9 12.7 Q22.05 12.95 25.4 9.85 L26.4 8.9 24.1 10.3 20.55 12.4 19.85 12.65 19.65 12.5 Q19.4 12.4 20.1 11.75 L24.1 8.5 26.35 6.7 24.2 7.95 19.8 10.6 18.85 10.95 18.65 10.85 Q17.65 11.25 21.75 7.5 L23.05 6.3 19.6 8.35 15.8 10.65 15.05 10.9 14.9 10.8 Q14.8 10.55 15 10.4 L15.1 10.35 19.35 7.9 23.65 5.35 24.55 4.95 24.75 5.1 Q25.6 4.8 22.15 7.95 L20.25 9.7 23.95 7.5 27.8 5.2 Q28.5 4.8 28.5 4.9 L28.7 5.05"/>
    <path stroke="none" fill="#7dc8e8" d="M28.55 17.5 L19 23.85 Q15.6 26 12.5 28.05 15.25 26.4 14.9 26.8 L15.1 26.9 Q16.05 26.55 12.15 29.95 L11.05 31 11.15 30.95 Q14.3 28.95 14 29.35 L14.2 29.5 14.1 29.9 13.95 29.95 Q13.15 30.3 11.45 31.4 L9.1 32.75 9 32.75 8.85 32.6 Q7.85 32.95 11.75 29.55 L13.15 28.3 11.6 29.25 Q7.3 31.85 7.95 31.25 L7.75 31.15 Q7.25 31 9.05 29.7 10.9 28.4 18.7 23.35 L27.1 17.85 20.05 22.15 11.5 27.3 9 28.45 8.8 28.3 Q8.55 28.2 9.15 27.6 L12.7 24.7 16.15 21.9 12.4 24.2 8.35 26.6 7.5 26.95 7.3 26.8 Q7 26.7 7.8 26.05 L12.25 22.6 14.95 20.6 12.8 21.9 8.6 24.4 7.7 24.75 7.5 24.65 Q6.6 24.95 10.35 21.7 L12.65 19.6 11.1 20.55 8.25 22.1 8.05 21.95 Q7.25 22.3 10.5 19.2 L12.1 17.65 11.65 17.9 Q9.55 19.25 9.65 18.95 L9.5 18.85 Q8.7 19.15 11.65 16.1 L12.5 15.2 10.45 16.45 6.75 18.5 6.6 18.35 Q6.3 18.25 7 17.6 L10.85 14.45 13.85 12.1 11.6 13.45 Q6.75 16.45 7.35 15.85 L7.15 15.7 Q6.75 15.6 7.95 14.7 L14.65 10.15 21.25 5.7 Q19.2 6.9 16.9 8.35 L9.4 12.8 Q7.45 13.9 7.3 13.75 L7.1 13.65 Q6.7 13.55 7.8 12.65 L14 8.05 17.2 5.75 14.35 7.45 8.25 11.1 Q6.8 11.95 6.7 11.8 L6.5 11.65 Q6.2 11.55 7 10.85 L11.45 7.4 14.05 5.4 11.6 6.9 Q5.4 10.8 5.85 10.15 L5.65 10 Q5.4 9.9 6.05 9.35 6.65 8.75 9.7 6.4 L11.85 4.7 8.95 6.5 Q3.85 9.65 4.35 9.1 L4.15 8.95 Q3.2 9.3 7.05 5.95 L9 4.2 7.7 5 Q3.95 7.4 4.2 6.95 L4 6.8 Q3.25 7.1 6.1 4.15 L6.9 3.3 6.55 3.5 Q4.55 4.75 4.8 4.45 L4.6 4.3 Q4.5 4.1 4.7 3.95 L4.8 3.9 6.25 3.05 Q8.55 1.65 8.25 1.95 L8.45 2.1 Q9.15 1.85 6.5 4.55 L5.3 5.8 7.4 4.5 Q10.85 2.3 10.6 2.75 L10.8 2.9 Q11.9 2.45 7.4 6.35 L5.95 7.65 8.65 6 Q14.25 2.5 13.85 3.1 L14.05 3.25 Q14.3 3.35 13.7 3.9 L10 6.85 7.85 8.55 11.35 6.45 Q17 2.9 16.45 3.55 L16.65 3.7 Q16.95 3.8 16.2 4.45 L11.8 7.85 8.65 10.25 14.1 7 Q18.05 4.55 19.05 4 20.1 3.4 20.1 3.55 L20.3 3.7 Q20.6 3.8 19.7 4.55 L14.35 8.5 9.05 12.35 16.6 7.85 22.75 4.15 Q24.1 3.4 24.15 3.55 L24.3 3.7 Q24.8 3.75 23.35 4.9 L14.95 10.65 12.75 12.1 Q16.15 10 15.8 10.45 L16 10.6 Q16.3 10.7 15.55 11.4 L11.2 14.9 9.05 16.6 10.15 15.95 Q14.35 13.4 13.75 13.95 L13.95 14.1 Q14.6 13.85 12.05 16.45 L10.95 17.7 11.35 17.45 Q13.6 15.95 13.5 16.25 L13.7 16.4 Q14.65 16 10.85 19.6 L9.75 20.7 10.8 20.05 Q14.55 17.7 14.15 18.2 L14.35 18.35 Q14.55 18.45 14 19.05 L10.7 22.1 9.35 23.3 12.5 21.45 16.75 18.9 Q17.6 18.45 17.6 18.55 L17.8 18.7 Q18.1 18.8 17.3 19.5 L12.6 23.05 10.35 24.75 12.1 23.7 16.75 20.9 Q17.8 20.35 17.9 20.45 L18.05 20.6 Q18.35 20.7 17.6 21.4 L13.05 25.15 10.55 27.2 19.75 21.65 Q25.4 18.2 27.4 17.05 29.4 15.9 29.5 16.05 L29.7 16.2 Q30.2 16.3 28.55 17.5"/>
    <path stroke="none" fill="#fac49d" d="M25 21.2 L25 21.3 Q24.75 21.45 25.2 21.8 25.65 22.1 25.4 22.55 L24.95 22.85 24.65 22.75 Q23.55 22.1 23.85 21.05 L23.9 20.65 Q24 20.25 24.45 20.15 L25.4 19.9 Q25.9 19.75 26.15 20.2 26.25 20.7 25.8 20.95 L25 21.2"/>
    <path stroke="none" fill="#fac49d" d="M29.55 8.6 L29.2 8.7 Q28.95 8.7 28.75 8.5 27.95 7.45 26.75 6.6 26.35 6.25 26.6 5.8 L27.4 5.7 29.65 7.8 Q29.9 8.25 29.55 8.6 M29.95 10.9 Q29.9 10.4 30.35 10.2 30.9 10.1 31.05 10.6 L31.3 12.2 31.3 12.6 31.25 13.75 Q31.15 14.2 30.7 14.2 L30.6 14.2 Q30.1 14.1 30.1 13.6 L30.2 12.6 30.2 12.25 29.95 10.9 M29.3 16.2 Q29.6 15.75 30.05 15.95 30.5 16.2 30.3 16.7 29.6 18.15 28.5 19.2 L28.1 19.4 27.7 19.2 Q27.4 18.8 27.7 18.4 28.7 17.45 29.3 16.2 M27.2 22.95 Q27.4 22.5 27.9 22.6 L28.6 22.85 Q29.7 23.4 30.6 24.25 30.9 24.7 30.6 25.05 L30.2 25.25 Q29.95 25.25 29.8 25.05 L28.15 23.9 27.55 23.65 Q27.1 23.45 27.2 22.95 M24.3 5.2 L21.95 4.35 21.6 4.25 Q21.15 4.05 21.2 3.55 21.4 3.05 21.9 3.15 L22.25 3.25 Q23.6 3.65 24.75 4.15 25.2 4.45 25.05 4.9 L24.55 5.25 24.3 5.2 M18.8 3.55 L15.95 3.1 Q15.45 3 15.45 2.5 15.55 1.95 16.1 2 L19 2.45 Q19.5 2.6 19.45 3.15 19.35 3.55 18.9 3.6 L18.8 3.55 M13.1 2.85 L13.05 2.85 10.2 2.8 Q9.7 2.8 9.6 2.3 9.6 1.8 10.1 1.7 L13.1 1.7 Q13.65 1.8 13.65 2.3 L13.1 2.85 M7.1 2.25 Q7.6 2.15 7.8 2.6 7.95 3.1 7.45 3.3 L7.1 3.45 Q5.95 3.9 5.05 4.6 L4.7 4.7 4.25 4.5 Q3.95 4.05 4.35 3.7 5.4 2.9 6.7 2.4 L7.1 2.25 M6.9 11.1 L5.35 11.3 Q4.85 11.25 4.85 10.75 4.9 10.2 5.4 10.2 L5.5 10.2 6.95 9.9 Q7.75 9.75 7.95 10.55 L8.1 11.25 Q8.15 11.8 7.65 11.95 L7.55 11.95 Q7.15 11.9 7 11.5 L6.9 11.1 M8.35 14.7 L8.4 16 8.45 17.2 Q8.45 17.7 7.95 17.8 L7.9 17.8 Q7.45 17.75 7.35 17.3 L7.25 16.05 7.25 14.7 7.25 14.3 Q7.3 13.8 7.8 13.75 8.3 13.8 8.35 14.3 L8.35 14.7 M8.75 20.1 L8.85 22.3 8.9 23.1 8.35 23.65 8.3 23.65 Q7.8 23.6 7.75 23.1 L7.75 22.3 7.6 20.2 Q7.6 19.7 8.15 19.6 8.65 19.6 8.75 20.1 M8.45 29.55 Q7.95 29.45 7.9 28.95 L7.9 28.7 7.85 26.05 Q7.9 25.55 8.4 25.45 8.9 25.5 9 26 L9.05 28.7 9.05 28.95 Q9 29.5 8.45 29.55 M7.9 35.35 L7.75 35.35 Q7.25 35.15 7.35 34.65 L7.8 31.85 Q7.85 31.35 8.4 31.35 8.9 31.45 8.9 31.95 L8.45 34.9 7.9 35.35 M13.75 39.5 Q13.75 38.95 14.25 38.85 L17.15 38.65 Q17.7 38.65 17.75 39.15 17.75 39.7 17.25 39.75 L14.35 40 14.3 40 Q13.8 39.95 13.75 39.5 M10 40.2 L8.45 40.25 8.4 40.25 Q7.9 40.2 7.85 39.7 7.9 39.2 8.4 39.15 L9.95 39.1 11.35 39.05 Q11.85 39.1 11.9 39.6 11.9 40.1 11.35 40.2 L10 40.2 M9 40.5 Q9.45 40.25 9.8 40.65 10.25 41.35 10.3 42.25 10.25 43.2 9.7 44.05 L9.2 44.25 8.9 44.15 Q8.5 43.85 8.75 43.4 9.15 42.85 9.15 42.25 L8.85 41.3 Q8.6 40.85 9 40.5 M7.1 44.6 Q7 45 6.55 45 L6.45 45 Q4.65 44.3 3.9 42.95 3.65 42.5 4.05 42.15 4.5 41.9 4.85 42.3 5.75 43.7 6.7 43.9 7.2 44.1 7.1 44.6 M25.85 37.75 L28.45 36.8 Q28.95 36.6 29.2 37.05 29.4 37.5 28.95 37.8 27.75 38.45 26.1 38.85 L25.95 38.85 Q25.55 38.85 25.4 38.4 25.35 37.9 25.85 37.75 M23.65 38.7 Q23.65 39.25 23.15 39.35 L20.35 39.55 20.15 39.55 Q19.65 39.5 19.6 39.05 19.6 38.5 20.1 38.45 L20.3 38.45 23 38.2 Q23.5 38.2 23.65 38.7 M31.95 30 Q31.8 28.6 31.3 27.3 31.1 26.85 31.55 26.6 32.05 26.4 32.3 26.9 32.9 28.3 33.05 29.9 33.05 30.4 32.55 30.5 L32.5 30.5 Q32 30.45 31.95 30 M31.7 32.7 Q31.9 32.25 32.4 32.3 32.9 32.5 32.8 33 L32.15 34.75 31.45 35.85 31 36.05 30.65 35.9 Q30.3 35.55 30.55 35.15 L31.15 34.25 31.7 32.7 M3.5 9.05 Q3.7 9.55 3.25 9.8 L3 9.85 Q2.7 9.85 2.5 9.55 2.2 8.9 2.15 8.1 L2.1 7.8 2.4 6.25 Q2.6 5.8 3.1 5.9 3.6 6.15 3.45 6.65 L3.25 7.8 3.25 8 Q3.3 8.6 3.5 9.05 M5.85 33.4 Q6.3 33.6 6.2 34.1 6 34.55 5.5 34.45 L4.55 34.3 Q3.8 34.3 3.4 34.8 L2.95 35 2.6 34.85 Q2.25 34.45 2.55 34.05 3.3 33.15 4.55 33.15 L5.85 33.4 M3.5 39.8 Q3.65 40.3 3.2 40.55 L3 40.6 Q2.6 40.6 2.45 40.25 1.8 38.65 1.7 37.25 1.7 36.7 2.2 36.65 2.75 36.65 2.8 37.15 2.9 38.35 3.5 39.8"/>
    <path stroke="none" fill="#fac49d" d="M15.45 24.6 L16.5 24.85 Q17 25.05 16.95 25.55 16.75 26.05 16.25 25.95 L15.45 25.75 15.35 26.8 14.8 27.35 Q14.3 27.25 14.25 26.75 L14.4 25.35 14.55 25.05 14.8 24.7 15.45 24.6"/>
    <path stroke="none" fill="#fac49d" d="M24.7 30.2 Q24.7 31.75 23.6 33.25 L23.15 33.5 22.85 33.4 Q22.45 33.05 22.7 32.6 23.55 31.4 23.6 30.2 L23.55 30 Q23.6 29.45 24.1 29.4 24.6 29.4 24.7 29.9 L24.7 30.2 M22.5 27.9 L22.2 27.8 Q21.3 27.25 20.45 27 L19.4 26.7 Q18.9 26.55 19 26 19.2 25.55 19.7 25.6 L20.85 25.95 22.8 26.85 Q23.2 27.2 23 27.65 L22.5 27.9 M18.45 36 L17.45 35.85 Q17 35.7 17.05 35.2 17.2 34.7 17.7 34.8 L18.45 34.85 20.5 34.4 Q21 34.25 21.25 34.7 21.4 35.2 20.95 35.45 L18.45 36 M14.45 30.05 Q14.45 29.5 14.95 29.45 15.5 29.45 15.55 29.95 L15.6 30.5 16.05 32.95 Q16.15 33.5 15.65 33.7 L15.5 33.7 14.95 33.3 Q14.55 31.95 14.5 30.6 L14.45 30.05"/>
    <path stroke="none" fill="#fac49d" d="M17 10.95 L16.2 10.6 16.15 10.65 15.8 11.6 Q15.65 12 15.25 12 L15.1 12 Q14.6 11.8 14.75 11.3 L15.2 10 15.5 9.7 15.7 9.5 16.4 9.45 17.4 9.85 Q17.85 10.1 17.7 10.6 17.5 11.05 17 10.95"/>
    <path stroke="none" fill="#fac49d" d="M20.25 10.95 Q21.95 11.75 22.75 12.9 23 13.35 22.65 13.7 L22.3 13.8 Q22.05 13.8 21.85 13.55 21.2 12.65 19.75 11.95 19.3 11.7 19.5 11.25 19.75 10.75 20.25 10.95 M15.25 14.4 L15.15 15.65 15.3 17.15 Q15.4 17.7 14.9 17.85 L14.75 17.85 14.2 17.4 14.05 15.65 14.1 14.3 Q14.25 13.8 14.75 13.8 15.25 13.9 15.25 14.4 M16.6 19.25 L18.1 19.6 19.05 19.5 Q19.55 19.4 19.7 19.9 19.8 20.4 19.3 20.6 L18.1 20.7 Q16.9 20.7 16 20.2 15.6 19.9 15.8 19.4 16.15 19 16.6 19.25 M23.6 16.1 Q23.4 17.7 22.1 19 L21.7 19.15 21.3 19 Q21 18.6 21.3 18.2 22.3 17.2 22.5 15.95 22.6 15.45 23.1 15.5 23.6 15.6 23.6 16.1"/>
  </g>
</svg>