<svg width="34.05px" height="39.75px" viewBox="0 0 34.05 39.75" xmlns="http://www.w3.org/2000/svg" xmlns:xlink="http://www.w3.org/1999/xlink">
  <defs/>
  <g>
    <path stroke="none" fill="#7279b8" d="M33.45 12.45 Q31.6 16.2 26.75 17.3 L24.25 17.6 Q20.9 17.55 18.9 15.5 16.3 12.6 17.8 9.6 16.65 10.25 15.4 11.65 13.5 13.9 13.25 16.7 13.15 18.3 13.5 20.35 L13.65 21.9 13.9 23.85 Q14.35 27.1 16 28.5 17.1 29.5 19.4 29.55 L19.75 29.5 22.35 29.15 24.05 28.65 25.45 28.15 27.15 27.9 Q29.75 27.95 31.1 30 32.45 32.25 31.2 34.95 L30.15 36.3 29.55 36.95 29.3 36.95 Q28.4 37.15 27.6 37.65 L27.5 37.65 26.3 38.15 Q25.85 38.3 25.45 38.5 22.45 39.65 20.2 39.7 L18.85 39.75 Q14.85 39.75 10.6 37.95 2.6 34.35 0.75 26.75 -0.3 22.05 0.15 17.45 0.85 12.4 3.2 8.4 4.3 6.2 5.8 4.65 8.05 2.6 10.35 1.85 13.8 0.45 17.15 0.1 L19.5 0 24.9 0.6 Q27.95 1.25 29.9 3.4 30.7 4.35 31 6.1 32.25 6.5 33.3 7.75 34.7 9.75 33.45 12.45"/>
    <path stroke="none" fill="#5f7ba6" d="M31.4 11.5 Q29.65 14.45 26.25 15.1 22.95 16 20.45 13.95 18.9 12.4 19.85 10.55 20.9 9.4 22.4 8.95 L22.5 8.7 Q22.85 8.8 22.8 8.45 21.2 6.4 18.6 7 15.6 7.75 13.65 10.2 11.3 12.9 10.95 16.5 10.85 18.6 11.2 20.65 L11.65 24.2 Q11.95 27.7 14.45 30.15 16.8 31.95 19.8 31.7 L22.7 31.35 26 30.3 Q27.95 29.7 29.15 31.2 29.85 32.6 29.15 33.95 L28.6 34.6 28.5 34.65 Q27.65 35.3 26.7 35.55 L24.45 36.45 Q22.35 37.35 20 37.5 15.55 37.7 11.45 35.9 4.8 33.1 2.9 26.25 1.9 22.05 2.3 17.7 2.95 13.3 5.15 9.45 6 7.65 7.35 6.25 9.05 4.7 11.15 3.95 14.15 2.7 17.35 2.35 20.4 1.95 24.75 2.9 29.1 3.85 28.6 7.75 L28.85 8 28.9 8 Q30.45 8 31.45 9.1 32.1 10.3 31.4 11.5"/>
    <path stroke="none" fill="#7dc8e8" d="M30.95 8.6 L27.05 11.65 24.1 13.95 27.85 11.7 32.15 9.15 Q32.95 8.7 32.95 8.85 L33.15 9 Q34.25 8.6 29.75 12.3 L27.75 13.95 28 13.8 Q30.6 12.2 30.3 12.55 L30.5 12.7 30.4 13.1 30.25 13.1 28.3 14.25 Q25.75 15.85 25.85 15.65 L25.8 15.65 25.6 15.5 Q25.35 15.4 25.95 14.8 L29.35 11.85 31.05 10.45 28.15 12.2 23.25 15.1 Q22.15 15.75 22.1 15.6 L21.9 15.45 Q21.6 15.35 22.35 14.7 L26.75 11.25 28.95 9.5 25.5 11.6 20.6 14.55 19.45 15.05 19.25 14.9 Q19 14.8 19.6 14.2 L23.2 11.3 25.05 9.85 24.25 10.35 Q20.35 12.85 20.6 12.4 L20.4 12.25 Q20.15 12.1 20.75 11.55 L24.25 8.65 25.75 7.4 23.75 8.6 19.9 10.9 19.15 11.2 18.95 11.05 Q18.65 10.95 19.45 10.25 L23.9 6.7 26.25 4.9 25.7 5.2 22.4 7.15 21.75 7.4 21.55 7.25 Q21 7.55 23.1 4.9 L23.7 4.05 20.45 6 17.15 7.95 16.5 8.2 16.35 8.05 Q16.25 7.85 16.45 7.7 L16.55 7.65 20.15 5.55 23.9 3.3 Q24.6 2.9 24.65 3.05 L24.8 3.15 Q25.3 2.95 23.55 5.2 L22.65 6.4 25.4 4.75 Q29.35 2.3 28.8 2.85 L29 3 Q29.25 3.1 28.55 3.75 L24.25 7.15 21.35 9.4 23.45 8.1 27.2 5.9 27.9 5.65 28.1 5.8 Q29.2 5.4 24.6 9.1 L22.5 10.75 23.95 9.9 Q27.7 7.5 27.45 7.95 L27.6 8.1 Q27.85 8.2 27.25 8.75 L23.55 11.75 21.55 13.35 25.2 11.15 Q28.9 8.85 30 8.25 31.1 7.65 31.2 7.75 L31.35 7.9 Q31.65 8 30.95 8.6"/>
    <path stroke="none" fill="#7dc8e8" d="M22.6 3.35 L22.8 3.5 Q23.3 3.6 21.65 4.75 L12.4 10.85 5.4 15.45 7.4 14.2 11.35 11.85 12.2 11.5 12.35 11.65 Q12.65 11.75 11.9 12.4 L7.55 15.8 3.75 18.75 7.45 16.5 Q10.65 14.55 11.4 14.15 L12.15 13.85 Q12.25 13.85 12.35 14 12.65 14.1 11.75 14.85 L6.55 18.8 4.75 20.2 6.3 19.25 10.4 16.8 Q11.3 16.3 11.35 16.4 L11.55 16.55 Q11.85 16.65 11.05 17.4 L6.25 21.15 3.75 23.1 5.6 21.95 9.3 19.75 Q10.05 19.35 10.1 19.45 L10.25 19.6 Q11.15 19.3 7.65 22.4 L6 23.95 7 23.3 Q10.45 21.1 10.2 21.55 10.35 21.55 10.4 21.7 10.65 21.8 10.05 22.35 L6.75 25.35 5.25 26.65 6.65 25.8 Q11.3 22.95 10.75 23.55 L10.95 23.7 Q11.2 23.8 10.6 24.4 L6.95 27.65 5.55 28.9 8.35 27.2 12.5 24.75 Q13.35 24.3 13.35 24.4 L13.55 24.55 13.1 25.3 8.95 28.55 7.2 29.9 7.45 29.75 Q11.95 27 11.4 27.55 L11.6 27.7 Q12.35 27.35 9.3 30.65 L8.5 31.6 10.2 30.55 Q13.45 28.5 13 29 L13.2 29.1 Q14.05 28.8 10.7 32 L9.35 33.35 11.3 32.15 Q15.6 29.5 15 30.1 L15.15 30.25 Q15.9 30 13.15 32.75 L12.3 33.7 13.1 33.2 Q16.25 31.2 15.95 31.6 L16.15 31.75 Q16.5 31.55 15.2 33.75 L14.65 34.7 16.5 33.6 Q19.8 31.5 19.6 31.9 L19.75 32.05 Q20.35 31.8 18.15 34.25 L17.3 35.3 20.55 33.3 Q26.05 29.85 25.6 30.45 L25.8 30.6 Q26.05 30.7 25.45 31.3 L21.9 34.25 20.25 35.6 23.65 33.5 Q28.95 30.2 28.45 30.8 L28.65 30.95 Q28.9 31.05 28.3 31.65 L24.75 34.65 23.3 35.9 25.65 34.45 30.1 31.8 Q31 31.3 31.05 31.4 L31.25 31.55 31.15 31.95 31 31.95 25.95 34.9 21.3 37.6 21.2 37.55 21.05 37.45 Q19.95 37.8 24.35 34.25 L26.7 32.3 23.9 34 Q17.95 37.75 18.35 37.1 L18.2 37 Q17.1 37.3 21.55 33.8 L23.85 31.9 20.85 33.75 Q15.85 36.9 16.3 36.35 L16.1 36.2 Q15.5 36.4 17.75 33.9 L18.5 33 16.8 34.05 Q13.65 36.05 13.95 35.6 L13.8 35.5 Q13.4 35.7 14.7 33.5 L15.25 32.5 13.4 33.65 Q10.65 35.4 10.95 35 L10.75 34.85 Q10.05 35.1 12.75 32.35 L13.7 31.35 11.6 32.6 7.9 34.65 7.75 34.5 Q6.85 34.85 10.3 31.6 L11.55 30.35 10.5 31 Q6.9 33.25 7.3 32.75 L7.1 32.65 Q6.45 32.9 8.9 30.3 L10.3 28.7 7.75 30.25 Q3.9 32.6 4.45 32.05 L4.25 31.95 Q4 31.85 4.65 31.25 L8.6 28.1 10.95 26.3 8.65 27.7 4.55 30.1 Q3.75 30.55 3.7 30.45 L3.55 30.3 Q2.5 30.65 6.6 27.2 L9.2 24.95 6.95 26.3 Q2.85 28.85 3.45 28.25 L3.25 28.1 Q2.2 28.5 6.4 24.95 L8.6 23 7.3 23.75 4.4 25.35 4.25 25.25 Q3.25 25.6 7.3 22 L8.5 20.85 Q7.25 21.6 5.9 22.45 L2.15 24.7 1.35 25 1.15 24.85 Q0.85 24.75 1.6 24.1 L5.9 20.7 9.3 18.05 6.6 19.75 2.65 22.05 1.8 22.4 1.65 22.25 Q1.35 22.15 2.1 21.55 L6.25 18.35 9.6 15.85 7.7 17 2.8 19.9 1.75 20.35 1.55 20.2 Q1.25 20.1 2.1 19.3 L7.2 15.35 9.6 13.55 7.7 14.7 2.85 17.6 1.65 18.1 1.45 17.95 Q0.95 17.85 2.6 16.65 4.25 15.45 12.1 10.4 L19.5 5.55 14.05 8.9 6.35 13.55 4.15 14.55 3.95 14.4 Q3.55 14.3 4.75 13.35 L11.9 8.5 17.4 4.8 12.1 8 6.5 11.45 4.9 12.15 4.7 12 Q4.4 11.9 5.25 11.2 6.05 10.5 10 7.6 L13.95 4.65 11.85 5.95 Q6.4 9.45 6.6 8.95 L6.4 8.8 Q5.45 9.15 9.3 5.65 L10.4 4.65 10.25 4.75 Q8.1 6.1 8.3 5.8 L8.15 5.65 Q8.05 5.4 8.25 5.25 L8.35 5.25 9.95 4.25 12.15 3.1 12.3 3.25 Q13.2 2.95 9.7 6.1 L7.9 7.75 11.55 5.5 Q16.75 2.2 16.3 2.8 L16.5 2.95 Q16.85 3.05 15.9 3.85 L10.35 8.05 7.25 10.35 11.85 7.55 18.15 3.7 Q19.8 2.75 20 2.9 L20.2 3.05 Q20.6 3.15 19.35 4.1 L12.2 9 Q9.05 11.05 6.45 12.85 L13.75 8.4 20.7 4.25 Q22.45 3.2 22.6 3.35"/>
    <path stroke="none" fill="#fac49d" d="M27.8 34.55 Q28.25 34.3 28.55 34.75 28.8 35.2 28.35 35.5 L27 36.05 26.85 36.1 25.65 36.6 25.5 36.65 25.3 36.7 Q24.95 36.7 24.8 36.35 24.65 35.85 25.1 35.6 L25.25 35.55 26.45 35.05 26.6 35 26.65 35 27.8 34.55"/>
    <path stroke="none" fill="#fac49d" d="M31.8 8.65 Q32.1 9.05 31.75 9.45 L31.4 9.55 Q31.15 9.55 30.95 9.35 30.4 8.65 28.85 8.55 L28.8 8.55 28.35 8.4 Q27.95 8.05 28.25 7.6 28.5 7.3 28.9 7.45 L29 7.45 Q30.45 7.4 31.8 8.65 M28.6 5.55 L28.3 5.65 27.8 5.4 Q27.25 4.45 25.75 3.85 25.3 3.6 25.45 3.1 25.7 2.65 26.2 2.8 28 3.55 28.75 4.8 29 5.25 28.6 5.55 M31.75 12.05 Q31 13.45 29.5 14.4 L29.2 14.5 28.75 14.2 Q28.5 13.75 28.9 13.45 30.15 12.65 30.75 11.55 31.05 11.1 31.55 11.3 31.95 11.6 31.75 12.05 M20.15 1.7 L23.2 2 Q23.65 2.1 23.65 2.6 23.55 3.05 23.1 3.1 L23 3.1 20.1 2.8 Q19.6 2.75 19.55 2.25 19.6 1.75 20.15 1.7 M17.7 2.3 Q17.7 2.85 17.2 2.95 L14.35 3.45 14.2 3.5 13.65 3.05 Q13.6 2.55 14.05 2.4 L17.05 1.8 Q17.6 1.8 17.7 2.3 M11.6 4.35 L11.35 4.45 9 5.65 8.7 5.75 8.25 5.45 Q8 5 8.4 4.7 9.85 3.8 10.95 3.4 L11.15 3.35 Q11.65 3.2 11.9 3.65 12.05 4.15 11.6 4.35 M26.1 14.55 L26.35 14.5 Q26.85 14.45 27 14.95 27.1 15.45 26.6 15.6 L26.35 15.65 24.2 15.9 23.45 15.9 Q22.95 15.8 22.95 15.25 23.05 14.75 23.55 14.75 L26.1 14.55 M19.5 11.1 Q20 11.2 20.05 11.7 L20.05 11.75 Q20.05 12.7 20.85 13.55 L21.15 13.8 Q21.5 14.2 21.2 14.6 L20.75 14.8 20.4 14.7 20.05 14.35 Q18.95 13.15 18.9 11.75 L18.9 11.65 Q19 11.15 19.5 11.1 M13.5 37.25 Q13.05 37.05 13.15 36.55 13.35 36.05 13.85 36.15 L16.65 36.8 Q17.15 36.95 17.15 37.45 L16.6 37.9 16.5 37.9 13.5 37.25 M10.9 36.2 L10.65 36.15 Q9.25 35.45 8 34.6 7.6 34.25 7.85 33.8 8.2 33.4 8.65 33.65 L11.15 35.1 Q11.55 35.4 11.4 35.85 L10.9 36.2 M19.95 36.9 L22.4 36.55 Q22.9 36.5 23.05 37 23.1 37.5 22.65 37.65 L20.05 38.05 19.6 38.05 19.55 38.05 Q19.05 38.05 19 37.55 19 37 19.55 36.95 L19.95 36.9 M6.9 6.75 Q7.25 7.1 7 7.55 6.25 8.5 5.65 9.7 L5.5 10 5 10.3 4.75 10.25 Q4.3 9.95 4.5 9.5 L4.65 9.2 Q5.3 7.85 6.1 6.85 L6.9 6.75 M3.95 11.9 Q4.4 12.15 4.25 12.65 L3.3 15.4 2.8 15.85 2.65 15.8 Q2.15 15.65 2.25 15.1 L3.2 12.25 Q3.45 11.75 3.95 11.9 M1.65 20.2 L1.75 18.15 Q1.8 17.65 2.35 17.65 2.85 17.75 2.85 18.25 L2.75 20.2 2.8 21.15 Q2.75 21.7 2.25 21.75 L1.65 21.2 1.65 20.2 M3.65 26.9 Q3.75 27.4 3.25 27.6 L3.1 27.65 2.55 27.25 2.35 26.4 1.95 24.25 Q1.9 23.7 2.4 23.6 2.95 23.55 3.05 24.05 L3.45 26.15 3.65 26.9 M3.8 30.1 Q3.6 29.6 4 29.3 4.45 29.1 4.75 29.5 L6.5 31.8 Q6.8 32.2 6.45 32.6 L6.05 32.75 Q5.85 32.75 5.65 32.55 L3.8 30.1"/>
    <path stroke="none" fill="#fac49d" d="M23.3 8.2 Q23.6 8.7 23.2 9.15 L22.9 9.3 22.65 9.5 21.55 9.95 21.3 10.05 Q21 10 20.8 9.75 20.6 9.25 21.05 8.95 L22.05 8.55 22.05 8.45 21.8 8.2 Q21.45 7.8 21.75 7.4 L22.55 7.35 23.3 8.2"/>
    <path stroke="none" fill="#fac49d" d="M19.9 6.85 Q19.9 7.4 19.4 7.45 L18.75 7.55 Q17.75 7.75 16.8 8.3 L16.5 8.35 16 8.1 Q15.8 7.6 16.25 7.3 17.35 6.7 18.5 6.45 L19.3 6.35 Q19.85 6.35 19.9 6.85 M14.1 10.55 L12.85 12.35 Q12.7 12.65 12.35 12.65 L12.1 12.55 Q11.65 12.3 11.9 11.8 12.45 10.75 13.25 9.85 L13.75 9.3 14.55 9.25 Q14.9 9.65 14.6 10.05 L14.1 10.55 M11.8 15 L11.55 16.6 11.5 17.45 11.55 17.85 11 18.4 10.95 18.4 Q10.45 18.35 10.4 17.85 L10.4 17.45 10.45 16.5 Q10.5 15.6 10.7 14.75 10.9 14.25 11.4 14.3 11.9 14.5 11.8 15 M11.8 20.75 L11.95 22.1 12.15 23.75 Q12.2 24.25 11.7 24.4 L11.6 24.4 Q11.15 24.35 11.05 23.9 L10.85 22.25 10.7 20.9 Q10.7 20.4 11.2 20.3 11.7 20.25 11.8 20.75 M21.5 31.55 Q21.45 31.05 21.95 30.9 L22.6 30.8 24.6 30.25 24.75 30.15 Q25.25 30.05 25.45 30.5 25.6 31 25.15 31.25 L24.95 31.3 22.8 31.9 22.15 32.05 22.05 32.05 Q21.6 32 21.5 31.55 M19.6 31.75 L19.05 32.3 Q17.25 32.25 15.9 31.7 15.45 31.45 15.6 30.95 15.8 30.5 16.3 30.65 L19.05 31.15 Q19.6 31.25 19.6 31.75 M27.35 30.15 Q27.5 29.65 28 29.75 29.1 30 29.7 30.95 30.1 31.6 30.1 32.45 L30.1 32.5 29.55 33.05 29.5 33.05 Q29 33 28.95 32.5 L28.75 31.55 Q28.35 31 27.75 30.8 27.25 30.65 27.35 30.15 M12.1 26.25 Q12.6 26.1 12.8 26.6 13.3 28 14.15 29 14.45 29.45 14.1 29.8 L13.7 29.95 Q13.45 29.95 13.3 29.75 12.3 28.55 11.75 26.95 11.6 26.45 12.1 26.25"/>
  </g>
</svg>