<svg width="39.15px" height="41.45px" viewBox="0 0 39.15 41.45" xmlns="http://www.w3.org/2000/svg" xmlns:xlink="http://www.w3.org/1999/xlink">
  <defs/>
  <g>
    <path stroke="none" fill="#7279b8" d="M18.6 12.1 L18.75 14.7 18.9 17.4 18.9 21.55 Q18.75 23.95 18.95 26.2 19.15 28.3 20.4 29.7 20.7 30.3 22.2 30.4 L23.15 30.3 Q25.9 29.65 26.55 27.55 27.25 25.5 27.1 24.4 27.05 21.8 25.25 18.95 L23.9 16.85 23.2 15.85 21.95 14.65 20.95 13.8 Q20.05 12.9 18.85 12.25 L18.6 12.1 M23.5 1.15 Q32.05 3.35 36.05 9.65 40.65 17.55 38.45 26.7 36.7 33.3 30 37.45 24.7 40.75 16.75 41.3 L13.4 41.45 10.15 41.35 9.85 41.35 4.65 40.7 Q-0.25 39 0.75 34.25 1.5 31.6 4.6 30.5 L6.05 30.25 7.3 30.45 7.5 30 8.15 27.25 Q8.6 23.9 8.5 21.25 8.5 15.75 6.85 12.35 L5.55 12.45 3.5 12.2 Q-0.5 10.4 0.1 6.25 0.75 3.15 3.3 2 5.9 0.85 7.85 0.6 L14.3 0 Q18.95 0 23.5 1.15"/>
    <path stroke="none" fill="#5f7ba6" d="M25.05 14.6 Q23.95 13.25 22.5 12.15 21.35 11.1 19.95 10.3 L16.6 9.05 16.4 9.2 16.3 9.35 Q16.35 13.4 16.7 17.5 L16.7 26.4 Q16.95 29.15 18.75 31.2 20.75 33.15 23.5 32.55 29.6 30.8 29.35 24.35 29.15 20.75 27.2 17.75 L25.05 14.6 M16.6 39.1 Q13.45 39.3 10.25 39.1 L5.25 38.5 Q2.4 37.7 2.9 34.8 3.55 33.15 5.3 32.65 7.05 32.1 7.65 33.85 L7.7 33.9 8.05 33.95 9.55 30.9 10.4 27.6 10.75 21.2 Q11 15 7.9 9.6 L7.7 9.55 7.55 9.6 Q5.95 10.6 4.1 10 2 9 2.35 6.55 2.75 4.65 4.65 3.85 6.6 3.05 8.3 2.8 15.7 1.5 22.95 3.35 30.05 4.95 34.15 10.85 38.25 18.05 36.3 26.15 34.4 32.3 28.85 35.55 23.2 38.8 16.6 39.1"/>
    <path stroke="none" fill="#7dc8e8" d="M35.7 9.45 Q35.95 9.55 35.3 10.15 L31.4 13.25 28.5 15.55 29.7 14.85 Q34 12.2 33.4 12.8 L33.55 12.95 Q34.6 12.55 30.4 16.05 L28.65 17.55 30.3 16.55 Q34.8 13.75 34.3 14.35 L34.45 14.5 Q35.25 14.15 32.15 17.3 L30.9 18.6 32.2 17.8 Q36.15 15.35 35.85 15.8 L36.05 15.95 Q37.15 15.5 32.5 19.4 L30.4 21.2 33 19.65 37.25 17.15 38.05 16.85 38.2 17 Q38.5 17.1 37.8 17.75 L33.65 21.1 31.25 23.05 33.7 21.6 37.35 19.4 Q38.05 19.05 38.05 19.15 L38.2 19.3 Q38.5 19.4 37.8 20 L33.85 23.15 31.75 24.75 33.9 23.5 37.45 21.35 Q38.15 20.95 38.2 21.05 L38.4 21.2 Q38.65 21.3 38.05 21.85 L34.4 24.8 31.55 27.1 32.5 26.55 Q35.8 24.4 35.55 24.85 L35.75 24.95 35.65 25.35 35.5 25.4 Q34.7 25.8 32.8 27 29.5 29.1 29.55 28.85 L29.5 28.85 29.3 28.7 Q29 28.6 29.75 27.9 L34.05 24.35 35.9 22.9 34.15 23.95 30.3 26.25 29.45 26.6 29.25 26.45 Q29 26.35 29.65 25.75 L33.5 22.7 35.6 21.05 34 22.05 29.95 24.45 29.15 24.75 29 24.6 Q28.7 24.5 29.4 23.9 L33.3 20.65 36 18.5 33.25 20.15 29.3 22.5 28.55 22.8 28.4 22.65 Q28.15 22.55 28.75 21.95 L32.1 19 34.1 17.3 Q33.25 17.8 32.5 18.25 L29.65 19.85 29.45 19.75 Q28.65 20.05 31.75 16.9 L33.1 15.5 30.55 17.05 26.8 19.15 26.65 19 Q25.5 19.4 30.05 15.65 L31.45 14.45 30 15.3 Q25.75 17.95 26.25 17.4 L26.1 17.25 Q25.8 17.15 26.55 16.45 L31.05 12.85 33.1 11.2 30.85 12.55 26.25 15.3 25.25 15.7 25.1 15.6 Q24.05 16 28.25 12.2 L29.85 10.7 26.7 12.65 23.35 14.65 22.65 14.9 22.5 14.75 Q21.35 15.2 26.1 11.25 L28.3 9.35 26.85 10.25 Q22.9 12.75 23.3 12.2 L23.15 12.1 Q22.1 12.45 26.25 8.95 L28.1 7.35 Q26.85 8.1 25.5 8.95 L22.05 11 21.35 11.25 21.2 11.1 Q20.95 11 21.5 10.45 L24.85 7.55 27.1 5.6 Q25.4 6.65 23.4 7.85 L19.05 10.4 18.25 10.75 18.05 10.6 Q17.8 10.5 18.45 9.9 L22.05 6.9 24.5 4.85 22.35 6.15 Q16.7 9.65 17.2 9 L17.05 8.9 Q16.95 8.65 17.15 8.5 L17.3 8.45 22.05 5.65 25.65 3.5 26.45 3.2 26.6 3.35 Q26.9 3.45 26.25 4.1 L22.4 7.3 20.25 9.1 23.15 7.35 Q26.85 5.1 27.85 4.55 28.8 4.05 28.8 4.15 L29 4.3 Q29.25 4.4 28.65 5 L25.2 8 23.25 9.6 25.2 8.45 29 6.2 Q29.8 5.75 29.8 5.85 L30 6 Q31.1 5.6 26.65 9.4 L25.15 10.65 26.55 9.8 Q30.6 7.25 30.15 7.8 L30.35 7.9 Q30.6 8 30 8.6 L26.45 11.7 24.65 13.2 26.4 12.15 30.45 9.75 Q31.3 9.3 31.35 9.4 L31.5 9.55 Q32.5 9.15 28.6 12.65 L26.7 14.4 30.55 12.1 34.7 9.6 Q35.5 9.2 35.5 9.3 L35.7 9.45"/>
    <path stroke="none" fill="#7dc8e8" d="M25.35 32.3 L21.25 35.5 17.55 38.35 25.95 33.3 33.1 29 Q34.95 27.95 35.05 28.1 L35.25 28.25 Q35.7 28.35 34.4 29.35 L26.95 34.45 23.45 36.85 26.55 34.95 31.55 31.9 Q32.7 31.3 32.75 31.4 L32.95 31.55 32.85 31.95 32.7 31.95 26.85 35.4 21.35 38.75 19.9 39.35 19.7 39.2 Q19.35 39.1 20.4 38.3 21.5 37.45 26.65 34 L32.65 29.9 26.25 33.8 18.35 38.55 Q16.25 39.75 16.1 39.6 L15.9 39.45 Q15.6 39.35 16.35 38.65 L20.9 35.05 23.3 33.25 19.65 35.4 13.7 39 12.2 39.65 12 39.5 Q11.7 39.4 12.45 38.7 L16.85 35.25 19.15 33.45 14.85 36.1 9.5 39.3 8 40 7.95 40 7.75 39.85 Q7.45 39.75 8.2 39.1 L12.55 35.75 15.25 33.75 12.7 35.35 Q6.95 38.95 7.2 38.45 L7 38.3 Q6.7 38.2 7.5 37.45 L12.25 33.85 14.75 32 10.5 34.6 4.55 38.15 3.15 38.75 2.95 38.6 Q1.95 39 6 35.35 L7.45 34.05 6.55 34.6 Q2.6 37 3.15 36.45 L2.95 36.35 Q2.55 36.55 3.95 34.3 L4.3 33.65 3.75 33.95 Q2.25 34.9 2.35 34.7 L2.2 34.55 Q2.1 34.3 2.3 34.15 L2.35 34.15 Q2.7 33.95 3.5 33.5 5.2 32.4 5.05 32.65 L5.25 32.8 4.4 34.55 3.85 35.55 6.25 34.1 Q9.6 32.05 9.15 32.55 L9.3 32.65 Q10.3 32.3 6.4 35.75 L4.55 37.5 10.2 34.1 15.9 30.7 Q17.2 29.95 17.25 30.1 L17.4 30.25 Q17.7 30.35 16.95 31 L12.6 34.3 9.25 36.8 12.4 34.85 Q17.9 31.35 17.65 31.9 L17.85 32.05 Q18.15 32.15 17.35 32.8 L12.9 36.2 10.3 38.2 14.55 35.6 20 32.35 21.3 31.8 21.5 31.9 Q21.75 32.05 21.1 32.65 L17.2 35.7 14.05 38.15 19.35 34.95 24.55 31.85 Q25.6 31.25 25.6 31.4 L25.8 31.55 Q26.1 31.65 25.35 32.3"/>
    <path stroke="none" fill="#7dc8e8" d="M24.7 2.95 L24.9 3.05 Q25.35 3.15 24 4.2 L16.3 9.55 14.35 10.9 Q16.9 9.35 16.7 9.7 L16.85 9.8 Q17.1 9.9 16.5 10.55 L12.85 13.65 11.15 15.15 12.15 14.55 Q15.85 12.25 15.35 12.75 L15.55 12.9 Q16.1 12.7 14.1 15 L13.2 16.1 13.55 15.9 Q15.45 14.65 15.4 14.9 L15.55 15.05 Q16.4 14.7 13.05 18.05 L12.1 19.05 12.9 18.55 Q16.15 16.55 15.8 16.95 L16 17.1 Q17.05 16.65 12.8 20.6 L11.7 21.7 13.95 20.3 17.45 18.25 Q18.1 17.9 18.1 18 L18.3 18.15 Q18.55 18.25 17.9 18.85 L14 22 12.45 23.25 Q16.05 21 15.55 21.5 L15.75 21.65 Q16.6 21.25 13.2 24.8 L12.3 25.7 13.6 24.95 Q16.5 23.1 16.15 23.5 L16.35 23.65 Q17.4 23.25 13.05 27 L11.3 28.55 13 27.5 Q17.4 24.85 16.75 25.45 L16.95 25.55 Q18.1 25.15 13.4 28.95 L11.8 30.3 12.4 29.9 Q16.3 27.5 16 27.95 L16.2 28.05 16.1 28.45 15.95 28.5 12.7 30.4 Q9.6 32.35 9.75 32.1 L9.7 32.05 9.5 31.95 Q8.35 32.35 13.05 28.55 L14.7 27.15 13.3 28 Q8.9 30.65 9.55 30.1 L9.35 29.95 Q8.25 30.35 12.7 26.55 L14.3 25.15 13.85 25.4 Q10.65 27.45 10.95 27 L10.8 26.85 Q10.1 27.15 12.8 24.4 L14.35 22.7 12.55 23.8 9.75 25.35 9.6 25.2 Q9.35 25.1 9.95 24.5 L13.65 21.55 15.75 19.9 14.25 20.8 10.8 22.85 10.1 23.1 9.95 22.95 Q9.1 23.25 12.4 20.2 L14.4 18.3 13.2 19.05 Q10.35 20.8 10.7 20.4 L10.55 20.25 Q9.8 20.55 12.65 17.65 L14.05 16.2 13.85 16.35 Q12.05 17.5 12.15 17.25 L11.95 17.15 Q11.35 17.4 13.65 14.65 L14.3 13.9 Q13.4 14.4 12.4 15 L9.15 16.85 8.95 16.7 Q7.8 17.1 12.5 13.25 L14.9 11.2 13.05 12.35 Q8.75 15 9.35 14.4 L9.15 14.25 Q8.8 14.15 9.85 13.35 10.95 12.5 16 9.1 19.05 7 21.85 5.05 L17.85 7.5 10.7 11.75 8.75 12.65 8.55 12.5 Q8.2 12.4 9.15 11.55 L14.9 7.25 17.8 5.1 15 6.8 9.1 10.35 Q7.65 11.15 7.55 11 L7.35 10.85 Q7.1 10.75 7.8 10.1 L12 6.8 14.4 4.95 11.9 6.5 Q5.7 10.35 6.2 9.7 L6 9.55 Q5.75 9.45 6.35 8.9 6.9 8.35 9.8 6.05 L11.8 4.45 8.85 6.25 Q3.8 9.45 4.25 8.85 L4.05 8.75 Q3.2 9.05 6.65 5.9 L8.35 4.3 7.15 5.05 Q3.6 7.3 3.8 6.9 L3.6 6.75 Q3.05 7 5.1 4.5 L5.65 3.75 5.2 4 Q3.5 5.1 3.65 4.8 L3.5 4.7 Q3.4 4.45 3.6 4.3 L3.65 4.25 4.9 3.55 Q6.9 2.3 6.65 2.6 L6.85 2.75 Q7.35 2.55 5.5 4.8 L4.7 5.9 6.85 4.6 Q10.05 2.5 9.85 2.9 L10 3.05 Q11 2.65 7 6.3 L5.7 7.55 8.55 5.8 Q14.15 2.25 13.75 2.85 L13.95 3 Q14.2 3.1 13.6 3.65 L10.15 6.5 8.1 8.15 Q9.8 7.1 11.6 6 L15.7 3.55 Q16.6 3 16.7 3.1 L16.9 3.25 Q17.15 3.35 16.45 4 L12.35 7.25 9.45 9.5 14.7 6.35 19.5 3.45 Q20.5 2.9 20.5 3.05 L20.7 3.15 Q21 3.3 20.15 4 L15.25 7.7 Q12.65 9.6 10.5 11.25 L17.55 7 23.4 3.5 Q24.7 2.8 24.7 2.95"/>
    <path stroke="none" fill="#fac49d" d="M6.4 32.4 Q6.7 32 7.15 32.25 L7.9 33 8 32.8 Q8.25 32.35 8.75 32.55 9.2 32.85 9 33.3 L8.6 34.15 7.9 34.65 7.7 34.6 7.2 34.15 7.15 34 6.55 33.2 Q6.15 32.9 6.4 32.4"/>
    <path stroke="none" fill="#fac49d" d="M33.55 9.9 L33.2 10.05 Q32.9 10.05 32.75 9.85 L30.7 7.75 Q30.35 7.35 30.6 6.95 L31.4 6.85 33.6 9.1 Q33.9 9.55 33.55 9.9 M35.35 11.75 L36.55 14.65 Q36.65 15.2 36.15 15.35 L36 15.4 Q35.6 15.4 35.45 15 L34.35 12.3 Q34.15 11.8 34.55 11.55 35.05 11.35 35.35 11.75 M36.15 17.9 Q36.1 17.35 36.6 17.25 37.15 17.2 37.25 17.7 L37.5 20.85 Q37.5 21.35 36.95 21.4 36.45 21.35 36.4 20.85 L36.15 17.9 M23.45 3.45 L22.9 3.9 22.75 3.85 19.85 3.25 Q19.35 3.15 19.35 2.65 19.5 2.1 20 2.15 L23.05 2.8 Q23.55 2.95 23.45 3.45 M25.3 4.05 Q25.5 3.6 26 3.75 27.5 4.3 28.85 5.1 29.25 5.35 29.05 5.85 L28.55 6.15 28.25 6.05 25.6 4.75 Q25.15 4.55 25.3 4.05 M16.85 2.9 L13.85 2.85 Q13.35 2.8 13.3 2.25 13.35 1.75 13.85 1.7 L16.95 1.8 Q17.45 1.9 17.45 2.4 17.4 2.9 16.9 2.9 L16.85 2.9 M31.2 34.6 L29.15 36.05 28.65 36.35 28.35 36.4 Q28.05 36.4 27.85 36.15 27.65 35.65 28.05 35.35 L28.55 35.1 30.5 33.7 31.3 33.8 Q31.6 34.25 31.2 34.6 M20.3 38.65 Q20.3 39.2 19.8 39.3 L16.75 39.65 16.7 39.65 Q16.25 39.6 16.15 39.15 16.15 38.6 16.65 38.55 L19.65 38.2 Q20.15 38.15 20.3 38.65 M13.65 39.75 L13.4 39.75 10.6 39.7 Q10.1 39.65 10.05 39.1 10.15 38.6 10.65 38.6 L13.4 38.65 13.65 38.65 Q14.2 38.7 14.25 39.2 14.2 39.7 13.65 39.75 M26.15 37 Q26.25 37.45 25.8 37.7 L22.85 38.7 22.7 38.7 Q22.3 38.7 22.2 38.3 22.1 37.75 22.6 37.6 L25.4 36.65 Q25.9 36.55 26.15 37 M36.85 23.3 Q37.35 23.45 37.35 23.95 L36.85 26.3 36.65 27 36.1 27.4 35.95 27.4 Q35.45 27.15 35.6 26.65 L35.8 26 36.2 23.8 Q36.35 23.3 36.85 23.3 M33.1 32.65 L32.7 32.5 Q32.35 32.1 32.65 31.7 L34.4 29.35 Q34.7 28.9 35.15 29.15 35.6 29.45 35.35 29.9 L33.5 32.45 33.1 32.65 M11.35 2.4 Q11.4 2.9 10.9 3 L8.45 3.4 7.9 3.5 7.8 3.5 7.25 3.05 Q7.2 2.5 7.7 2.4 L8.2 2.25 10.75 1.9 Q11.25 1.9 11.35 2.4 M5.4 3.55 Q5.55 4.05 5.1 4.3 3.6 4.95 3.1 5.95 2.95 6.25 2.6 6.25 L2.35 6.2 Q1.95 5.95 2.1 5.45 2.75 4.1 4.65 3.25 5.15 3.1 5.4 3.55 M3.15 8.45 Q3.5 9.25 4.3 9.5 L5.1 9.65 Q5.65 9.75 5.6 10.25 L5.05 10.75 5 10.75 4 10.55 Q2.7 10.2 2.1 8.9 1.95 8.4 2.4 8.15 2.9 8 3.15 8.45 M8.4 9.3 L9.85 12.1 Q10 12.6 9.55 12.85 L9.3 12.85 Q8.95 12.85 8.8 12.5 L7.45 9.95 Q7.2 9.5 7.55 9.15 L8.35 9.25 8.4 9.3 M10.05 14.7 Q10.6 14.6 10.75 15.1 L11.2 18.2 Q11.2 18.7 10.7 18.8 L10.65 18.8 Q10.15 18.75 10.1 18.3 L9.65 15.35 Q9.6 14.85 10.05 14.7 M10.2 21.3 Q10.25 20.75 10.8 20.7 11.3 20.75 11.35 21.3 L11.35 21.75 11.3 24.35 10.75 24.9 10.7 24.9 Q10.2 24.8 10.15 24.3 L10.2 21.75 10.2 21.3 M10.55 26.8 Q11 26.9 11 27.45 L10.95 27.7 10.35 30.5 Q10.2 30.9 9.8 30.9 L9.65 30.85 Q9.15 30.65 9.3 30.15 L9.85 27.55 9.9 27.3 Q10 26.75 10.55 26.8 M3.65 32.9 L4.45 33 Q4.7 33.45 4.35 33.8 3.65 34.35 3.45 35 L3.35 35.7 3.35 35.95 Q3.4 36.45 2.85 36.55 L2.8 36.55 Q2.35 36.55 2.25 36.05 L2.25 35.7 Q2.25 35.2 2.4 34.7 2.65 33.65 3.65 32.9 M8.15 39 Q8.05 39.5 7.6 39.5 L7.5 39.5 5.15 39.05 4.4 38.8 Q3.95 38.55 4.1 38.05 4.35 37.6 4.85 37.8 L5.45 38 7.65 38.4 Q8.15 38.5 8.15 39"/>
    <path stroke="none" fill="#fac49d" d="M18.25 9.6 Q18.05 10.05 17.55 9.95 L16.9 9.7 16.9 10.65 Q16.85 11.15 16.3 11.2 15.8 11.2 15.75 10.65 L15.75 9.3 15.9 8.95 16.2 8.55 16.85 8.5 17.9 8.9 Q18.4 9.1 18.25 9.6"/>
    <path stroke="none" fill="#fac49d" d="M22.15 12.6 L20.2 11.1 Q19.8 10.8 20.05 10.3 20.35 9.9 20.8 10.15 L22.95 11.75 23.25 12.05 Q23.6 12.4 23.3 12.85 L22.9 13.05 22.5 12.9 22.15 12.6 M17.1 14.8 L17.25 16.65 Q17.2 17.15 16.7 17.25 L16.65 17.25 Q16.2 17.2 16.1 16.7 L16 14.9 15.9 13.7 Q15.9 13.2 16.4 13.1 16.95 13.1 17 13.65 L17.1 14.8 M17.25 21.45 L17.2 22.7 16.65 23.25 Q16.1 23.2 16.1 22.7 L16.15 21.45 16.2 19.7 Q16.2 19.15 16.75 19.15 17.25 19.2 17.3 19.7 L17.25 21.45 M24.6 14.85 Q24.35 14.4 24.75 14.05 25.2 13.8 25.5 14.2 L25.55 14.3 26.25 15.25 27.25 16.7 Q27.45 17.15 27.05 17.5 L26.75 17.6 26.3 17.3 25.3 15.9 24.65 14.9 24.6 14.85 M28 19.15 Q28.5 18.95 28.75 19.4 29.45 20.9 29.75 22.4 29.8 22.9 29.3 23.05 L29.2 23.05 Q28.75 23.05 28.65 22.6 L27.75 19.85 Q27.55 19.4 28 19.15 M29.9 25.55 Q29.8 27.2 29.2 28.65 L28.65 28.95 28.45 28.95 Q28 28.7 28.15 28.2 28.7 26.95 28.8 25.45 28.9 24.95 29.4 24.95 29.9 25 29.9 25.55 M24.55 32.85 L24.4 32.9 Q24 32.9 23.85 32.5 23.75 32 24.25 31.8 25.6 31.4 26.6 30.45 L27.4 30.5 Q27.7 30.9 27.35 31.3 26.15 32.4 24.55 32.85 M17.3 26.35 Q17.4 27.45 17.75 28.45 17.9 28.95 17.45 29.2 L17.25 29.2 Q16.85 29.2 16.7 28.85 16.3 27.7 16.2 26.45 L16.1 25.75 Q16.15 25.2 16.65 25.15 17.15 25.15 17.25 25.65 L17.3 26.35 M21.3 33.15 Q19.55 32.85 18.35 31.6 18.05 31.2 18.4 30.8 L19.2 30.85 Q20.1 31.8 21.5 32 22 32.15 21.95 32.65 21.85 33.1 21.4 33.15 L21.3 33.15"/>
  </g>
</svg>