<svg width="34.85px" height="43.25px" viewBox="0 0 34.85 43.25" xmlns="http://www.w3.org/2000/svg" xmlns:xlink="http://www.w3.org/1999/xlink">
  <defs/>
  <g>
    <path stroke="none" fill="#7279b8" d="M23.5 0.9 Q27.8 1.5 31.15 3.8 34.55 6.15 34.2 10.55 33.35 15.35 29 17.1 L28.55 17.25 28.85 17.65 Q31.55 22.15 29.4 26.75 L28.85 27.6 Q31.35 28.05 33.5 30.45 36.65 35 32.5 40 28.25 43.25 25.6 42.8 L21.15 42.9 18.5 42.95 16.2 43 12.6 43.1 11.85 43.15 8.7 43.25 7.4 43.25 Q1.5 42.7 0.8 38.15 0.85 34.55 3.6 32.85 4.55 32.25 5.8 32.25 L6.65 32.3 7.2 29.35 7.2 29.25 Q7.7 26.5 7.8 22.95 7.8 19.75 7.3 16.55 L7.3 16.4 6.55 13.1 5.65 13.15 Q2.6 13.1 0.75 10.3 -1.2 6 1.9 2.75 4.15 0.8 6.6 0.45 L9.5 0.15 11.05 0 11.4 0 22.45 0.85 22.5 0.75 23.5 0.9 M20.35 12.1 Q18.45 12.15 17.35 13.3 16.85 13.7 17.1 16.05 17.55 18.3 17.75 18.25 L18.2 18.5 18.2 18.55 19.3 18.95 Q19.8 16.25 21.2 15.45 L20.45 14.05 Q20.1 12.95 20.35 12.1 M19.3 25.95 L18.2 26.05 Q17.8 28.25 17.8 30.3 17.8 32.2 18.45 32.85 19.55 33.75 20.65 33.6 L21.55 33.55 Q20.85 31.85 21.9 29.65 L22 29.4 20.95 28.75 Q19.6 27.1 19.8 26 L19.3 25.95"/>
    <path stroke="none" fill="#5f7ba6" d="M32 10.25 Q31.4 13.6 28.3 15 L24.25 14.85 Q23 14.55 22.6 13.3 22.5 12 23.8 11.3 23.95 11.1 23.7 11 L23.7 10.95 Q21.95 9.6 19.55 9.9 17.15 10.2 15.65 11.8 14.3 13.9 14.9 16.4 15.05 18.7 16.6 20.2 L16.65 20.25 Q19.1 21.8 21.9 21.15 22.15 21 22 20.8 L21.95 20.65 Q21.6 20.25 21.55 19.75 L21.5 19.65 Q21.45 17.5 23.4 17.05 25.7 16.95 27 18.9 29 22.2 27.4 25.7 26.5 27.35 24.65 27.6 23.4 27.8 22.45 27.05 21.95 26.15 21.95 25.05 19.7 22.8 16.4 24.2 L16.25 24.4 Q15.55 27.35 15.6 30.35 15.45 32.55 16.75 34.3 20.3 37.1 24.45 34.95 L24.55 34.9 24.6 34.65 Q23.05 32.85 23.85 30.7 25 29.1 26.9 29.55 L27.05 29.55 Q29.85 29.75 31.7 31.85 33.8 35.4 30.8 38.5 28.6 40.6 25.5 40.55 L18.45 40.7 12.45 40.85 7.55 41 Q4.05 41.05 3.05 37.9 3.1 35.9 4.75 34.8 L7.75 35 7.9 34.9 8.05 34.85 Q9.2 32.3 9.45 29.55 9.95 26.3 10.05 23 10.05 19.55 9.5 16.15 9.05 13.1 7.95 10.25 L7.75 10.1 7.6 10.15 Q4.7 12.05 2.65 9.1 1.5 6.5 3.5 4.35 5.05 3 7.1 2.65 L11.4 2.25 23 3.2 23.15 3.15 Q26.15 3.5 29.15 5.15 32.2 6.8 32 10.25"/>
    <path stroke="none" fill="#7dc8e8" d="M26.7 28.85 Q27.25 28.6 25.25 31 L24.55 31.9 26.05 31 Q29.35 28.95 28.95 29.4 L29.1 29.55 Q29.95 29.2 26.6 32.45 L25.1 33.95 26.3 33.2 Q29.8 31 29.4 31.45 L29.6 31.6 29.5 32 29.35 32.05 Q28.5 32.45 26.6 33.65 L23.75 35.3 23.65 35.3 23.45 35.15 Q22.6 35.55 26.2 32.05 L27.45 30.8 26.35 31.45 23.5 33.05 23.3 32.9 Q22.75 33.15 24.85 30.65 L25.4 29.95 24.75 30.2 24.55 30.1 Q24.45 29.85 24.65 29.7 L24.75 29.7 25.6 29.2 26.55 28.7 26.7 28.85"/>
    <path stroke="none" fill="#7dc8e8" d="M32.75 31.6 L32.95 31.75 Q33.3 31.85 32.35 32.65 L26.95 36.6 23.25 39.3 25.8 37.75 30 35.2 Q30.95 34.65 31.05 34.8 L31.25 34.95 Q32.05 34.65 28.9 37.45 L27.3 39 29.85 37.4 33.05 35.5 33.7 35.3 33.85 35.45 33.75 35.8 33.65 35.85 30.15 37.9 26.6 40.05 25.8 40.3 25.65 40.2 Q24.65 40.55 28.55 37.05 L29.55 36.1 26.1 38.2 Q20.5 41.7 20.75 41.3 L20.65 41.3 20.5 41.15 Q20.15 41.05 21.1 40.25 22.05 39.45 26.65 36.15 L30.45 33.35 24.65 36.85 18.5 40.55 17.05 41.2 16.85 41.05 Q16.2 41.3 18.6 38.65 L19.75 37.3 17.2 38.85 Q12.65 41.75 13 41.2 L12.85 41.05 Q11.85 41.4 15.7 38 L17.1 36.7 14.4 38.35 Q9.85 41.2 10.4 40.6 L10.2 40.45 Q9.35 40.8 12.9 37.6 L14.7 35.9 11.15 38.1 Q5.8 41.45 6.25 40.85 L6.05 40.7 Q5.75 40.6 6.6 39.9 L11.45 36.15 14.5 33.85 11.4 35.75 6.45 38.75 Q5.3 39.4 5.2 39.25 L5 39.1 Q4.7 39 5.5 38.3 L10.25 34.7 14.3 31.65 10.15 34.15 5.15 37.15 Q4.1 37.7 4.1 37.55 L3.9 37.45 Q3.7 37.6 4.2 36.05 L4.35 35.5 4.15 35.65 3 36.2 2.85 36.05 Q2.75 35.85 2.95 35.7 L3 35.65 3.85 35.15 4.85 34.65 5.05 34.8 4.75 36.2 4.55 36.8 9.9 33.65 15.1 30.55 Q16.3 29.85 16.35 30 L16.5 30.15 Q16.85 30.25 15.95 31.05 L10.6 35.15 7.4 37.5 11.1 35.3 15.75 32.45 Q16.85 31.85 16.9 32 L17.1 32.15 Q17.4 32.25 16.6 32.95 L11.8 36.6 8.75 38.9 10.85 37.6 Q16.6 34.05 16.1 34.65 L16.3 34.8 Q17.3 34.4 13.25 38 L12.05 39.15 14.1 37.9 Q19.05 34.8 18.6 35.35 L18.8 35.5 Q19.7 35.2 16.1 38.4 L14.5 39.9 16.9 38.4 Q21.2 35.7 20.8 36.2 L21 36.35 Q21.7 36.05 19.05 39 L18.05 40.2 24.4 36.4 31.1 32.35 Q32.7 31.45 32.75 31.6"/>
    <path stroke="none" fill="#7dc8e8" d="M23.4 16.7 Q24.4 16.05 24.4 16.2 L24.55 16.35 Q25.2 16.05 22.7 18.9 L21.85 19.95 23.65 18.85 Q27.75 16.4 27.15 16.95 L27.3 17.05 Q27.55 17.15 27 17.75 L23.65 20.7 21.8 22.25 23.3 21.35 Q26.1 19.65 26.75 19.3 L27.45 19.05 27.65 19.2 Q28.55 18.85 24.95 22.15 L23.9 23.15 24.4 22.85 Q27.15 21.1 26.9 21.5 L27.1 21.6 Q28.15 21.2 23.8 25 L22.35 26.3 23.15 25.8 26.75 23.85 26.95 24 Q27.35 23.75 25.85 26 L25.2 27 26.5 26.25 Q28.95 24.75 28.65 25.1 L28.8 25.25 28.7 25.6 28.65 25.65 26.8 26.7 24.45 28 24.4 28 24.2 27.9 Q23.75 28.1 25.4 25.7 L25.95 24.8 23.45 26.3 Q20.1 28.4 20.55 27.9 L20.35 27.8 Q19.35 28.15 23.4 24.6 L25.15 23.05 24.7 23.3 22.3 24.65 22.1 24.5 Q21.25 24.75 24.55 21.75 L26 20.4 23.6 21.85 19.9 23.9 19.7 23.75 Q18.55 24.2 23.25 20.25 L25.3 18.55 23.95 19.35 Q20.2 21.6 20.75 21.1 L20.55 20.95 Q19.9 21.25 22.3 18.55 L23.2 17.45 22.55 17.75 22.4 17.6 Q22.25 17.35 22.5 17.2 L22.55 17.2 23.4 16.7"/>
    <path stroke="none" fill="#7dc8e8" d="M27.75 4.7 Q28.55 4.4 25.4 7.35 L23.75 8.95 27.15 6.9 30.75 4.75 Q31.45 4.4 31.45 4.5 L31.65 4.65 Q31.95 4.75 31.25 5.4 L27.15 8.65 24.4 10.8 26.4 9.6 30 7.5 Q30.65 7.1 30.65 7.25 L30.85 7.35 Q31.9 7 27.55 10.55 L25.65 12.15 27.15 11.2 Q30.95 8.8 30.65 9.25 L30.85 9.4 Q31.1 9.5 30.5 10.05 L27.2 12.85 25.55 14.2 27.9 12.75 31.75 10.5 Q32.5 10.05 32.55 10.15 L32.7 10.3 Q33.5 10.05 30.45 12.85 L29.45 13.9 Q31.45 12.65 31.25 12.95 L31.4 13.1 31.3 13.5 31.25 13.5 29.75 14.35 27.7 15.45 27.5 15.35 Q26.65 15.65 30.05 12.45 L31.05 11.5 28.2 13.25 Q23.15 16.35 23.55 15.9 L23.45 15.9 23.3 15.75 Q22.15 16.15 26.85 12.4 L28.55 11 27.45 11.7 Q23.55 14.15 23.85 13.7 L23.65 13.55 Q22.5 13.95 27.2 10.1 L28.65 8.9 26.7 10.1 22.95 12.3 22.25 12.6 22.05 12.45 Q21.75 12.35 22.5 11.65 L26.8 8.25 29.15 6.4 27.45 7.4 23.3 9.85 22.4 10.2 22.25 10.1 Q21.3 10.45 25 6.95 L26.15 5.8 22.05 8.3 17.75 10.8 16.95 11.15 16.8 11 Q16.7 10.75 16.9 10.6 L17 10.6 Q18.15 10 21.75 7.8 L26.55 4.95 Q27.55 4.4 27.55 4.55 L27.75 4.7"/>
    <path stroke="none" fill="#7dc8e8" d="M24.9 2.7 Q25.35 2.8 23.95 3.85 L15.9 9.4 11.8 12.2 17.25 8.9 24.7 4.4 Q26.7 3.3 26.85 3.45 L27.05 3.6 Q27.5 3.65 26 4.85 L17.2 10.8 13.05 13.55 Q14.15 12.95 14.1 13.1 L14.25 13.25 Q14.75 13.05 13 15.25 L12.3 16.25 13.7 15.5 13.85 15.65 Q14.6 15.35 11.9 18.35 L11.1 19.25 11.8 18.85 Q14.6 17.1 14.25 17.5 L14.45 17.65 Q15.35 17.25 11.75 20.85 L10.8 21.85 13.15 20.45 Q15.9 18.75 16.55 18.4 L17.2 18.15 17.35 18.3 Q17.65 18.4 17 19 L13.2 22.1 11.6 23.35 12.1 23.05 Q16.6 20.3 16.05 20.85 L16.25 21 Q17.3 20.55 13 24.5 L11.7 25.75 14.95 23.8 18.55 21.6 Q19.3 21.2 19.35 21.3 L19.55 21.45 Q19.85 21.55 19.05 22.25 L14.35 25.85 11.5 28.05 12.4 27.5 Q16.7 24.85 16.1 25.45 L16.25 25.6 Q17.3 25.2 13.15 28.75 L11.95 29.8 Q15.1 27.85 14.8 28.25 L14.95 28.4 Q15.85 28.05 12.4 31.35 L11.1 32.65 11.9 32.15 Q14.9 30.25 14.7 30.6 L14.9 30.75 14.8 31.15 14.65 31.15 12.2 32.6 9.7 34.05 9.65 34 9.45 33.9 Q8.6 34.2 12 30.95 L13.4 29.6 12.25 30.3 Q9.55 32 9.85 31.6 L9.65 31.45 Q8.65 31.85 12.8 28.3 L14.25 27.05 12.7 27.95 Q8.35 30.65 8.95 30.05 L8.8 29.9 Q8.5 29.8 9.3 29.1 L14.05 25.4 16.9 23.25 15.25 24.25 Q9.8 27.65 10.3 27.05 L10.1 26.9 Q9.25 27.2 12.6 24.1 L14.65 22.15 12.4 23.55 9.05 25.4 8.85 25.25 Q8.6 25.15 9.25 24.55 L12.85 21.65 14.85 20.05 13.4 20.9 10.05 22.9 9.4 23.15 9.2 23 Q8.5 23.3 11.35 20.45 L13 18.75 12.05 19.35 9.95 20.5 9.75 20.35 Q9.15 20.6 11.45 18 L12.55 16.75 11.3 17.4 11.1 17.25 Q10.55 17.5 12.55 14.95 L13.15 14.2 11.4 15.25 Q7.85 17.4 8.3 16.95 L8.15 16.8 Q7.7 16.7 9.05 15.7 L16.9 10.35 24.95 4.9 17.55 9.35 10.55 13.6 Q8.75 14.6 8.65 14.45 L8.45 14.3 Q8.05 14.2 9.2 13.35 L15.6 8.95 21.85 4.7 17.55 7.3 10.2 11.7 Q8.25 12.8 8.1 12.65 L7.9 12.5 Q7.55 12.4 8.55 11.55 L14.35 7.2 17.25 5.05 14.55 6.7 8.65 10.25 Q7.25 11.05 7.15 10.9 L6.95 10.75 Q6.7 10.65 7.4 10 L11.45 6.75 13.75 4.95 11.05 6.6 6.4 9.4 Q5.3 10.05 5.15 9.9 L5 9.75 Q4.75 9.65 5.35 9.1 L8.9 6.2 11 4.55 8.35 6.2 Q3.45 9.25 3.9 8.7 L3.7 8.55 Q2.85 8.85 6.25 5.75 L7.9 4.15 6.85 4.85 Q3.5 7 3.7 6.6 L3.5 6.45 Q2.9 6.7 5.15 4.05 L5.75 3.3 5.45 3.5 3.95 4.3 3.75 4.15 Q3.65 3.95 3.85 3.8 L3.95 3.75 5.15 3 Q7.1 1.85 6.9 2.1 L7.1 2.25 Q7.65 2.05 5.6 4.45 L4.65 5.55 6.55 4.35 Q9.6 2.4 9.4 2.8 L9.6 2.9 Q10.6 2.55 6.65 6.15 L5.35 7.35 8.05 5.75 Q13.4 2.35 13.05 2.9 L13.2 3.05 Q13.45 3.2 12.85 3.75 L9.25 6.65 7.15 8.35 10.75 6.15 14.9 3.6 Q15.85 3.05 15.95 3.2 L16.15 3.35 Q16.4 3.45 15.75 4.05 L11.8 7.2 9 9.4 14.25 6.25 19 3.35 20 2.95 20.2 3.1 Q20.5 3.2 19.65 3.95 L14.65 7.65 9.85 11.25 17.3 6.8 23.35 3.15 Q24.7 2.4 24.75 2.55 L24.9 2.7"/>
    <path stroke="none" fill="#fac49d" d="M5.95 34.45 Q6.1 33.95 6.65 34.05 L7.65 34.35 8.05 33.45 Q8.25 32.95 8.75 33.1 9.25 33.3 9.1 33.8 L8.55 35.1 8.2 35.4 7.8 35.55 7.55 35.5 6.4 35.15 Q5.9 34.95 5.95 34.45"/>
    <path stroke="none" fill="#fac49d" d="M18.95 2.1 Q19.45 2.25 19.45 2.75 19.35 3.2 18.9 3.25 L18.8 3.25 16 3 Q15.5 2.9 15.5 2.4 15.6 1.9 16.1 1.9 L18.95 2.1 M11.4 1.7 L13.25 1.75 Q13.75 1.8 13.8 2.3 13.7 2.85 13.2 2.85 L11.45 2.8 10.45 2.9 10.4 2.9 Q9.9 2.9 9.85 2.4 9.85 1.9 10.35 1.8 L11.3 1.7 11.4 1.7 M4.6 2.9 Q5.95 2.3 7 2.1 L7.5 2.05 Q8 2 8.15 2.5 8.15 3 7.65 3.15 L7.25 3.2 Q6.25 3.4 5.1 3.9 L4.85 3.95 4.35 3.65 Q4.2 3.15 4.6 2.9 M6.3 10.3 Q6.8 10.15 7 10.65 7.1 11.15 6.65 11.35 L5.65 11.5 Q4.5 11.5 3.45 10.75 3.1 10.45 3.35 10 3.65 9.6 4.1 9.85 5.2 10.6 6.3 10.3 M3.1 4.8 Q3.5 5.1 3.3 5.55 2.8 6.5 2.75 7.45 L2.8 7.9 Q2.85 8.45 2.35 8.55 L2.25 8.55 Q1.8 8.55 1.7 8.1 L1.65 7.45 Q1.65 6.2 2.3 5 2.6 4.6 3.1 4.8 M9.7 13.85 Q9.75 14.35 9.25 14.55 L9.15 14.55 Q8.7 14.55 8.6 14.15 L7.8 11.45 Q7.65 10.95 8.15 10.75 8.65 10.65 8.85 11.1 L9.7 13.85 M10.5 19.55 Q10.5 20.05 10 20.15 L9.95 20.15 Q9.45 20.15 9.35 19.65 L9.05 16.85 Q9.05 16.35 9.55 16.25 10.05 16.2 10.15 16.7 L10.5 19.55 M10.65 22.6 L10.65 23 10.55 25.3 Q10.45 25.8 9.95 25.8 9.4 25.75 9.4 25.2 L9.5 23 9.5 22.6 9.5 22.45 Q9.55 21.9 10.1 21.85 10.6 21.9 10.65 22.4 L10.65 22.6 M9.75 27.5 Q10.25 27.65 10.2 28.15 L10 29.65 10 29.75 9.8 30.95 Q9.7 31.4 9.25 31.45 L9.15 31.45 Q8.65 31.3 8.7 30.8 L8.9 29.6 8.9 29.5 9.1 28 Q9.25 27.5 9.75 27.5"/>
    <path stroke="none" fill="#fac49d" d="M24.55 3.95 L23.25 3.7 22.95 3.75 21.65 3.55 Q21.15 3.45 21.15 2.95 21.25 2.45 21.8 2.45 L23 2.6 23.25 2.6 24.8 2.85 Q25.25 3.05 25.2 3.55 25.1 3.95 24.65 4 L24.55 3.95"/>
    <path stroke="none" fill="#fac49d" d="M27.6 3.75 Q29.15 4.4 30.25 5.25 30.65 5.55 30.35 6 L29.9 6.25 29.6 6.1 Q28.6 5.35 27.2 4.8 26.75 4.55 26.9 4.05 27.1 3.6 27.6 3.75 M31.5 7.4 Q32 7.25 32.25 7.7 32.6 8.6 32.6 9.6 L32.55 10.3 32.45 10.85 Q32.35 11.3 31.9 11.3 L31.8 11.3 Q31.3 11.1 31.35 10.6 L31.45 10.2 31.5 9.6 31.2 8.1 Q31.05 7.65 31.5 7.4 M19.5 9.9 Q19.6 10.4 19.1 10.55 17.7 10.85 16.7 11.6 L16.35 11.75 15.9 11.5 Q15.65 11.05 16 10.7 17.25 9.8 18.85 9.45 19.35 9.4 19.5 9.9 M22 9.5 Q23.15 9.8 23.95 10.5 24.4 10.7 24.4 11.15 L24.1 11.8 23.85 11.95 23.5 12.1 23.05 11.85 Q22.85 11.55 23.05 11.2 22.5 10.75 21.7 10.55 21.2 10.4 21.3 9.9 21.45 9.4 22 9.5 M23.35 13.65 Q23.7 14.15 24.4 14.3 L25.55 14.6 Q26.05 14.7 26 15.2 L25.45 15.7 25.35 15.7 24.1 15.4 Q23 15.1 22.45 14.3 22.2 13.85 22.55 13.5 23.05 13.25 23.35 13.65 M14.95 13 Q15.45 13.15 15.4 13.65 L15.3 14.75 15.45 16.3 Q15.5 16.85 15 17 L14.9 17 Q14.45 16.95 14.35 16.55 L14.35 16.5 14.2 14.75 14.3 13.45 Q14.45 12.95 14.95 13 M16.2 18.95 L16.9 19.7 17 19.8 18.2 20.4 Q18.65 20.6 18.5 21.1 18.35 21.45 18 21.45 L17.8 21.45 16.35 20.7 16.25 20.6 Q15.65 20.25 15.25 19.5 15 19 15.45 18.7 15.9 18.5 16.2 18.95 M31.05 13.65 Q29.95 15 28.5 15.5 L28.3 15.55 27.8 15.15 Q27.65 14.65 28.15 14.45 29.3 14.05 30.2 12.95 L31 12.9 Q31.35 13.25 31.05 13.65"/>
    <path stroke="none" fill="#fac49d" d="M22.35 18.4 Q22.15 18.8 22.1 19.5 L22.15 19.75 22.35 20.25 22.55 20.65 22.6 21.15 22.05 21.65 20.9 21.85 20.85 21.85 Q20.4 21.85 20.3 21.35 20.3 20.85 20.8 20.75 L21.3 20.7 21 19.9 20.95 19.6 Q21 18.6 21.3 17.95 21.55 17.5 22.05 17.65 22.5 17.9 22.35 18.4"/>
    <path stroke="none" fill="#fac49d" d="M26.25 18.9 Q25.35 17.8 24.15 17.6 23.65 17.5 23.7 17 23.8 16.45 24.35 16.5 25.95 16.75 27.15 18.15 27.4 18.6 27.05 18.95 L26.7 19.1 26.25 18.9 M28.65 22.75 L28.55 24.15 28 24.6 27.9 24.6 Q27.4 24.45 27.45 23.9 L27.55 22.75 27.4 21.25 Q27.3 20.75 27.8 20.6 28.3 20.5 28.45 21 L28.65 22.75 M24.55 27.05 Q25.65 26.9 26.35 26.2 L27.15 26.25 Q27.45 26.6 27.15 27 26.15 28 24.7 28.15 L24.15 28.2 24.1 28.2 Q23.55 28.15 23.55 27.65 23.6 27.1 24.1 27.1 L24.15 27.1 24.55 27.05 M19.95 23.7 Q20.2 23.25 20.65 23.35 21.95 23.75 22.45 24.85 L22.65 25.9 22.65 26.05 22.1 26.6 22.05 26.6 Q21.55 26.6 21.5 26.05 L21.5 25.95 21.45 25.3 Q21.1 24.65 20.35 24.4 19.85 24.25 19.95 23.7"/>
    <path stroke="none" fill="#fac49d" d="M18.15 23.8 Q18.2 24.3 17.7 24.45 L16.8 24.7 16.5 25.95 15.95 26.45 15.85 26.45 Q15.35 26.3 15.4 25.75 L15.7 24.3 Q15.75 23.85 16.25 23.7 L17.5 23.35 Q18 23.3 18.15 23.8"/>
    <path stroke="none" fill="#fac49d" d="M27.55 29.6 Q27.7 29.1 28.2 29.2 29.95 29.6 31.1 30.45 31.45 30.8 31.2 31.25 L30.75 31.45 30.4 31.35 Q29.5 30.6 27.95 30.3 27.5 30.1 27.55 29.6 M25.75 29.4 Q25.85 29.95 25.4 30.15 24.65 30.4 24.35 30.95 L24.1 31.85 Q24 32.3 23.5 32.35 22.95 32.25 22.95 31.75 23 31.1 23.35 30.45 23.9 29.45 25.05 29.05 25.55 28.95 25.75 29.4 M24.95 34.2 L25.05 34.35 25.15 34.75 24.95 35.25 24.7 35.45 22.3 36.25 22.2 36.25 Q21.75 36.25 21.65 35.8 21.6 35.3 22.1 35.15 L23.95 34.6 Q23.9 34.25 24.2 34 24.65 33.8 24.95 34.2 M31.9 33.4 Q31.8 32.9 32.25 32.7 32.75 32.6 32.95 33.1 L33.15 34.4 32.8 36.3 32.25 36.7 32.05 36.65 Q31.6 36.4 31.75 35.9 L32.05 34.4 31.9 33.4 M16.15 28.8 L16.1 30 16.1 30.3 16.2 31.6 Q16.2 32.15 15.7 32.25 L15.65 32.25 Q15.2 32.2 15.1 31.75 L15 30.35 15 30 15.05 28.75 Q15.1 28.2 15.65 28.2 16.15 28.3 16.15 28.8 M17.2 34 Q18 34.9 19.4 35.2 19.9 35.35 19.85 35.85 L19.3 36.3 19.15 36.3 Q17.4 35.9 16.35 34.7 16.05 34.3 16.4 33.95 L17.2 34 M20.05 40.65 Q20.05 41.2 19.5 41.25 L18.4 41.25 16.6 41.3 16.55 41.3 Q16.05 41.25 16 40.75 16.05 40.2 16.55 40.15 L18.4 40.15 19.5 40.1 Q20 40.15 20.05 40.65 M22.45 40.1 L25.35 40 Q25.85 40.05 25.9 40.55 25.9 41.05 25.4 41.15 L22.45 41.2 Q21.9 41.2 21.85 40.65 21.9 40.15 22.45 40.1 M31.15 38.95 Q30.1 40.1 28.4 40.65 L28.25 40.65 Q27.85 40.65 27.7 40.25 27.6 39.75 28.1 39.55 29.45 39.1 30.3 38.2 L31.1 38.15 Q31.45 38.55 31.15 38.95 M3.45 35.2 Q3.8 34.8 4.25 35.1 4.6 35.45 4.3 35.9 3.6 36.8 3.55 37.65 L3.6 37.8 3.65 38.1 Q3.7 38.65 3.2 38.8 L3.1 38.8 Q2.65 38.8 2.55 38.4 L2.45 37.95 2.45 37.65 Q2.45 36.4 3.45 35.2 M11.65 40.35 L12.4 40.3 13.6 40.2 Q14.15 40.25 14.2 40.75 14.2 41.3 13.65 41.35 L12.45 41.4 11.75 41.45 10.75 41.5 10.7 41.5 Q10.25 41.45 10.15 41 10.2 40.45 10.7 40.4 L11.65 40.35 M5.2 39.85 L7.55 40.45 7.8 40.45 Q8.35 40.5 8.35 41.05 8.3 41.5 7.8 41.55 L7.75 41.55 7.5 41.55 4.7 40.9 Q4.25 40.6 4.45 40.15 4.7 39.7 5.2 39.85"/>
  </g>
</svg>