<svg width="33.85px" height="43.1px" viewBox="0 0 33.85 43.1" xmlns="http://www.w3.org/2000/svg" xmlns:xlink="http://www.w3.org/1999/xlink">
  <defs/>
  <g>
    <path stroke="none" fill="#7279b8" d="M19.2 17.85 Q19.65 17.2 20.25 16.7 18.35 16.05 17.65 13.75 17.4 13.05 18.1 11.65 L17.2 11.75 17 12.6 16.8 13.35 16.7 15.35 16.65 15.6 Q16.55 17.75 17.1 19.05 17.25 19.65 18.35 19.75 L18.6 19.75 Q18.65 18.7 19.2 17.85 M29.95 20.8 Q30.35 22.8 30.35 25.15 30.55 28.35 28.45 30.9 26.9 32.4 24.05 32.4 L23.15 32.35 22.3 32.25 Q24.25 33.35 24.65 34.65 25.55 37.45 24.55 38.8 22.15 42 18.25 42.4 L9 43.1 7.5 43.1 Q1.55 42.95 0.05 37.5 -0.15 35.6 0.95 34.1 2.05 32.75 3.75 32.55 L4.35 32.5 5 32.55 5.05 32.4 5.45 31.1 6.2 27.85 6.2 27.65 Q6.75 24.95 6.5 21.35 L6.05 15.7 5.55 13.2 5.25 13.25 Q3.5 13.2 1.85 11.85 -1.05 9.1 0.95 5.3 4.75 0.85 8.8 0.5 L14.15 0 16.6 0.05 23.8 0.55 Q28.6 1.35 31.4 4.15 34.75 7.75 33.55 12.35 33.1 15.15 28.1 16.95 29.8 19.05 29.95 20.8 M18.45 27.35 L16.85 27.55 Q16.35 29.6 16.8 32.2 L19.8 31.75 21.35 31.9 Q20.1 31.35 19.35 30.15 18.5 28.75 18.7 27.35 L18.45 27.35"/>
    <path stroke="none" fill="#5f7ba6" d="M20.5 12.4 L22.1 11.85 22.15 11.55 22.15 11.45 22.15 11.3 Q21.35 9.5 19.2 9.45 16.95 9.1 15.25 10.35 L15.25 10.4 15.15 10.5 14.65 12.9 Q14.4 14.25 14.45 15.6 14.25 17.9 15.1 20 17.25 23.15 20.85 21.4 L20.95 21.25 21 21.05 Q20.45 18 23.7 17.7 24.95 17.6 26.1 18.2 27.55 19.35 27.75 21.3 L28.1 25.1 Q28.25 27.5 26.9 29.3 25.3 30.4 23.3 30.15 22 30.05 21.25 28.95 20.45 27.65 21.5 26.6 L21.55 26.4 21.45 26.25 Q20.1 25.2 18.45 25.1 16.75 25.05 15.3 25.75 L15.25 25.8 15.1 25.9 Q13.7 30.3 14.95 34.95 L15.1 35.1 15.25 35.15 Q16.85 34.35 19.2 34.05 21.55 33.7 22.6 35.55 23.35 37.8 21.55 38.85 19.75 39.9 17.9 40.2 L7.55 40.85 Q3.5 40.85 2.25 37.25 2.15 35.25 4.05 34.75 L6.3 35.05 6.45 35 6.65 34.85 7.65 31.7 8.45 28.1 Q9.05 24.65 8.75 21.2 L8.25 15.45 Q8.1 12.85 6.75 10.65 6.75 10.3 6.45 10.45 4.85 11.6 3.35 10.15 1.65 8.5 2.9 6.5 5.3 3.3 9.25 2.7 L16.55 2.3 23.45 2.8 Q27.15 3.25 29.85 5.75 32.25 8.3 31.4 11.7 29.45 15.2 25.2 15.15 L21.95 14.95 Q21 14.7 20.2 14 19.35 13.25 20.5 12.4"/>
    <path stroke="none" fill="#7dc8e8" d="M21.65 33.1 L21.8 33.25 Q22.1 33.35 21.4 34 L17.4 37.3 14.6 39.5 17.1 38 Q22.05 34.9 21.6 35.45 L21.8 35.6 Q22.65 35.3 19.25 38.4 L18.3 39.3 19.7 38.45 Q23.2 36.3 22.7 36.8 L22.9 36.95 22.8 37.3 22.65 37.35 20 38.95 16.7 40.75 16.5 40.6 Q15.7 40.9 18.85 38 L20.15 36.8 17.4 38.45 Q12.6 41.45 12.8 41.1 L12.75 41.1 12.55 40.95 Q12.25 40.85 12.95 40.2 L17.05 36.85 19.75 34.65 15.5 37.2 10.45 40.25 9.4 40.65 9.2 40.55 Q8.4 40.8 11.6 37.95 L13.15 36.45 9.9 38.45 6.4 40.55 5.65 40.8 5.45 40.7 Q5.2 40.6 5.85 39.95 L9.5 36.8 11.6 35.05 8 37.25 3.75 39.8 2.7 40.25 2.5 40.1 Q2.15 40 3.15 39.2 L8.8 34.95 12.35 32.25 8.65 34.5 3.55 37.6 Q2.35 38.25 2.3 38.1 L2.1 38 Q1.55 38.2 3.45 35.8 L3.95 35.15 3.35 35.4 3.2 35.3 Q3.05 35.05 3.3 34.9 L3.35 34.85 4.1 34.4 Q5.05 33.85 5.05 34 L5.2 34.1 Q5.7 33.9 3.9 36.15 L3.15 37.2 8.35 34.05 13.5 30.95 Q14.7 30.25 14.8 30.4 L14.95 30.55 Q15.3 30.65 14.4 31.4 L9.1 35.4 5.2 38.3 7.7 36.8 12.2 34.05 Q13.2 33.5 13.3 33.6 L13.5 33.75 Q14.65 33.35 9.9 37.25 L7.5 39.25 9.6 37.95 Q12.85 35.95 13.7 35.5 14.55 35.05 14.6 35.15 L14.8 35.3 Q15.7 34.95 11.95 38.35 L10.95 39.3 15.2 36.75 20.4 33.65 Q21.6 33 21.65 33.1"/>
    <path stroke="none" fill="#7dc8e8" d="M26.55 19.35 Q27.55 19 23.75 22.3 L22.5 23.4 24.3 22.3 Q27.05 20.65 27.7 20.3 28.35 19.95 28.35 20.05 L28.55 20.2 Q29.55 19.8 25.55 23.45 L24.25 24.7 25.8 23.75 29 22 29.2 22.15 Q29.4 22.25 28.85 22.8 L25.45 25.7 23.65 27.25 24.15 26.9 Q27.55 24.8 27.3 25.2 L27.5 25.35 Q28.1 25.05 25.85 27.7 L25.25 28.45 25.7 28.15 Q28 26.7 27.8 27.05 L28 27.2 27.9 27.55 27.75 27.6 26 28.65 24.25 29.65 24.15 29.65 24 29.5 Q23.45 29.7 25.4 27.35 L26.3 26.25 24.45 27.4 Q21.2 29.45 21.5 29 L21.35 28.9 Q21.1 28.8 21.7 28.2 L25.1 25.25 26.9 23.75 26.1 24.25 Q22.35 26.6 22.75 26.1 L22.55 25.95 Q21.7 26.3 25.2 23.05 L26.95 21.35 24.6 22.8 21.35 24.7 20.75 24.95 20.55 24.8 Q19.6 25.1 23.35 21.9 L24.7 20.65 21.35 22.7 16.25 25.75 14.95 26.3 14.8 26.15 Q14.7 25.9 14.9 25.75 L15.05 25.75 21.05 22.2 Q24.55 20.05 25.45 19.6 26.35 19.1 26.4 19.2 L26.55 19.35"/>
    <path stroke="none" fill="#7dc8e8" d="M21.8 18.2 L22.9 17.55 Q24.15 16.75 24.1 16.95 L24.25 17.1 Q25 16.8 22.2 19.7 L21.3 20.7 23.35 19.45 26.65 17.5 27.25 17.3 27.45 17.4 27.35 17.8 27.25 17.85 Q26.25 18.35 23.6 19.95 L20.1 21.95 20.05 21.95 19.85 21.8 Q19.15 22.05 21.8 19.35 L22.75 18.3 21.8 18.75 21.65 18.6 Q21.55 18.35 21.75 18.2 L21.8 18.2"/>
    <path stroke="none" fill="#7dc8e8" d="M30.35 3.65 L30.55 3.8 Q30.8 3.9 30.1 4.55 L26 7.8 23.25 10 25.35 8.75 28.95 6.6 29.65 6.3 29.85 6.45 Q30.1 6.6 29.45 7.15 L25.75 10.1 23.15 12.1 25.5 10.7 Q30.25 7.65 29.9 8.2 L30.1 8.35 Q30.35 8.45 29.65 9.1 L25.5 12.3 23.25 14.05 26.5 12.1 31.2 9.3 Q32.25 8.7 32.3 8.8 L32.5 8.95 Q33.6 8.6 29.05 12.2 L26.95 14 29.05 12.75 Q33.2 10.15 32.6 10.75 L32.8 10.85 32.7 11.25 32.6 11.3 29.3 13.2 25.75 15.35 25.05 15.6 24.85 15.45 Q24.6 15.35 25.2 14.75 L28.7 11.8 30.4 10.35 26.8 12.55 20.95 15.9 20.9 15.9 20.7 15.75 Q20.45 15.65 21.15 15 L25.15 11.85 27.5 10.1 25.8 11.15 21.2 13.75 21 13.6 Q20.7 13.5 21.4 12.85 L25.45 9.65 27.2 8.25 25.65 9.2 21.85 11.45 21.1 11.75 20.95 11.6 Q20.65 11.5 21.4 10.8 L25.65 7.4 28.05 5.5 26.05 6.75 21.6 9.4 20.65 9.75 20.45 9.6 Q19.45 10.05 23.55 6.3 L24.85 5.05 20.65 7.6 16.3 10.2 15.45 10.5 15.3 10.35 Q15.2 10.15 15.4 10 L15.55 9.95 20.4 7.1 25.3 4.15 Q26.35 3.6 26.35 3.75 L26.55 3.9 Q27.4 3.55 23.9 6.7 L22.05 8.45 25.75 6.25 29.6 3.95 30.35 3.65"/>
    <path stroke="none" fill="#7dc8e8" d="M25.55 4.05 L16.25 10.35 14.05 11.8 Q15.3 11 15.3 11.2 L15.5 11.35 Q15.75 11.45 15.1 12.1 L11.25 15.35 9.45 16.85 10.3 16.3 Q14 14.05 13.5 14.55 L13.7 14.7 Q14.25 14.5 12.2 16.85 L11.3 17.9 Q11.45 17.85 11.55 17.75 13.4 16.55 13.35 16.8 L13.55 16.95 Q14.4 16.6 11.1 19.9 L10.15 20.9 10.95 20.4 Q14.2 18.4 13.85 18.85 L14.05 18.95 Q15.1 18.55 10.85 22.45 L9.7 23.55 12.35 21.95 16.15 19.7 16.85 19.45 17.05 19.6 Q17.3 19.7 16.6 20.35 L12.35 23.65 10.5 25.1 11.25 24.65 Q14.2 22.85 15 22.4 L15.8 22.1 16 22.25 Q16.25 22.35 15.65 22.95 L12 26.2 10.15 27.8 17.8 23.25 24.3 19.3 Q25.95 18.35 26.05 18.5 L26.25 18.65 Q26.7 18.75 25.25 19.85 L16.85 25.5 Q13.95 27.4 11.25 29.25 15.2 26.85 14.65 27.4 L14.8 27.5 Q15.95 27.1 11.3 30.9 L9.8 32.15 10.15 31.95 Q13.85 29.65 13.45 30.1 L13.65 30.25 13.55 30.65 13.4 30.7 10.45 32.4 7.75 34 7.65 33.95 7.5 33.85 Q6.35 34.2 10.95 30.45 L12.6 29.05 11.05 30 7.8 31.95 7.2 32.15 7 32 Q6.55 31.95 8 30.8 L16.55 25.05 23.35 20.5 18.1 23.7 10.85 28.05 Q8.95 29.15 8.75 29 L8.55 28.85 Q7.55 29.25 11.65 25.75 L14.25 23.5 11.55 25.1 8.35 27 7.75 27.25 7.55 27.1 Q7.3 27 8 26.4 8.65 25.75 12 23.2 L14.35 21.4 12.65 22.45 8.9 24.7 8.15 24.95 8 24.8 Q7.15 25.1 10.45 22.05 L12.45 20.15 11.25 20.9 Q8.45 22.65 8.75 22.25 L8.6 22.1 Q7.85 22.4 10.7 19.55 L12.05 18.1 11.85 18.25 Q10.15 19.35 10.2 19.1 L10.05 18.95 Q9.4 19.25 11.75 16.5 L12.4 15.7 10.6 16.8 Q6.8 19.1 7.3 18.6 L7.15 18.45 Q6.9 18.35 7.5 17.8 L10.9 14.9 13.45 12.8 11.6 13.9 Q7.2 16.6 7.8 16 L7.65 15.85 Q7.2 15.75 8.5 14.8 9.8 13.85 15.95 9.85 L23.65 4.7 18.3 7.95 9.85 13 Q7.65 14.3 7.5 14.1 L7.3 13.95 Q6.9 13.85 8.1 12.9 L15.2 7.8 Q17.3 6.35 19.15 5.05 L15.5 7.25 8.55 11.45 Q6.7 12.5 6.55 12.35 L6.35 12.2 Q6 12.1 6.95 11.35 7.85 10.55 12.2 7.4 L15.4 5.1 12.55 6.8 Q5.75 11.1 6.1 10.5 L5.9 10.35 Q5.6 10.2 6.3 9.6 L10.35 6.45 12.85 4.55 9.5 6.6 Q3.85 10.15 4.35 9.5 L4.2 9.4 Q3.15 9.75 7.4 6.2 L9.6 4.3 7.95 5.3 Q3.75 8 3.9 7.55 L3.7 7.4 Q2.9 7.75 6 4.65 L6.85 3.8 6.5 4 4.65 4.95 4.5 4.85 Q4.4 4.6 4.6 4.45 L4.7 4.4 6.2 3.5 8.25 2.4 8.45 2.55 Q9.2 2.3 6.4 5.05 L5.05 6.45 7.65 4.85 Q11.6 2.3 11.3 2.8 L11.5 2.95 Q11.75 3.05 11.15 3.6 L7.75 6.6 6.1 8.05 9.2 6.15 Q15.25 2.35 15 2.9 L15.2 3 Q15.45 3.15 14.75 3.75 L10.7 6.9 8.15 8.85 12.3 6.35 Q15.85 4.1 16.95 3.55 18 2.95 18.05 3.05 L18.25 3.2 Q18.6 3.3 17.7 4.05 L12.55 7.85 8.55 10.75 15.2 6.8 20.85 3.4 Q22.15 2.65 22.15 2.8 L22.35 2.95 Q22.7 3.05 21.65 3.9 L15.55 8.25 9.2 12.75 18 7.5 Q23.35 4.25 24.9 3.35 26.45 2.5 26.45 2.65 L26.65 2.8 Q27.15 2.85 25.55 4.05"/>
    <path stroke="none" fill="#fac49d" d="M21.85 9.75 Q22.6 10.35 22.75 11.25 L22.75 11.4 22.8 11.9 22.25 12.4 21.35 12.65 21.15 12.65 20.65 12.3 Q20.5 11.8 21 11.6 L21.6 11.4 21.6 11.3 21.15 10.65 Q20.8 10.3 21.05 9.85 L21.85 9.75"/>
    <path stroke="none" fill="#fac49d" d="M18.45 10 L18.2 9.95 Q16.65 10 15.85 10.55 L15.5 10.65 15.05 10.45 Q14.8 10 15.2 9.65 16.7 8.75 18.2 8.85 L18.5 8.85 Q19.05 8.9 19.05 9.45 19 9.95 18.45 10 M15.15 13.1 Q14.95 14.15 15 15.3 L14.95 16.1 Q14.95 16.6 14.4 16.65 13.9 16.6 13.85 16.1 L13.85 15.3 14.05 12.9 Q14.2 12.4 14.7 12.45 15.2 12.6 15.15 13.1 M14.6 18.65 Q15.1 18.55 15.3 19 L15.55 19.75 Q16 20.7 16.8 21.1 17.25 21.35 17.05 21.85 L16.55 22.15 16.3 22.1 Q15.15 21.5 14.55 20.25 L14.2 19.35 Q14.1 18.8 14.6 18.65"/>
    <path stroke="none" fill="#fac49d" d="M20.95 19.2 Q21.4 19.35 21.4 19.85 21.3 20.3 21.5 20.85 L21.45 21.45 21.1 21.85 19.75 22.35 19.6 22.35 Q19.2 22.35 19.05 21.95 19 21.45 19.5 21.25 L20.4 20.95 Q20.2 20.3 20.3 19.65 20.4 19.2 20.95 19.2"/>
    <path stroke="none" fill="#fac49d" d="M26.3 18.25 Q26.15 18.55 25.8 18.6 L25.55 18.55 23.8 18.25 23.05 18.35 Q22.55 18.45 22.35 18 22.25 17.45 22.75 17.3 L23.7 17.1 Q24.9 17 26 17.5 26.45 17.75 26.3 18.25 M27 20.45 Q26.9 19.9 27.35 19.75 27.9 19.65 28.05 20.1 L28.3 21.15 28.6 23.15 Q28.6 23.65 28.1 23.75 L28.05 23.75 Q27.55 23.7 27.5 23.25 L27.2 21.4 27 20.45 M27.65 29.25 Q27.5 29.5 27.2 29.5 L26.9 29.4 Q26.5 29.05 26.75 28.6 27.4 27.8 27.5 26.1 27.6 25.6 28.1 25.6 28.6 25.65 28.65 26.2 28.45 28.2 27.65 29.25 M19.8 24.7 Q20.8 25.05 21.75 25.75 L22.1 26.25 22.15 26.45 21.9 27 21.7 27.2 21.2 27.45 20.9 27.35 Q20.5 27 20.75 26.55 L20.85 26.45 19.45 25.75 Q18.95 25.6 19.1 25.05 19.25 24.6 19.8 24.7 M21.35 29.15 L22.15 29.1 Q22.55 29.5 23.35 29.55 L24.55 29.55 Q25.1 29.55 25.15 30.05 25.15 30.6 24.65 30.65 L24.05 30.7 23.3 30.65 Q22.1 30.55 21.4 29.95 21.05 29.6 21.35 29.15"/>
    <path stroke="none" fill="#fac49d" d="M17.2 25.15 Q17.25 25.65 16.75 25.8 16.05 25.95 15.6 26.2 L15.5 26.25 15.15 27.25 Q15 27.6 14.6 27.65 L14.45 27.65 Q14 27.45 14.05 26.95 14.25 26.25 14.6 25.6 L15 25.25 16.5 24.7 Q17.05 24.65 17.2 25.15"/>
    <path stroke="none" fill="#fac49d" d="M22.3 34.15 L23.1 35.3 23.45 36.7 23.3 37.55 22.75 37.95 22.6 37.9 Q22.1 37.7 22.2 37.2 L22.3 36.7 22.1 35.75 21.55 35.05 Q21.2 34.65 21.5 34.25 L22.3 34.15 M19.55 33.95 Q19.6 34.5 19.05 34.6 17.8 34.7 16.25 35.3 L16.05 35.35 15.55 35 Q15.4 34.45 15.85 34.25 L18.95 33.45 Q19.45 33.45 19.55 33.95 M17.8 39.6 L20.35 38.85 Q20.8 38.7 21.1 39.15 21.25 39.65 20.8 39.9 L18 40.7 17.7 40.75 17.65 40.75 Q17.2 40.75 17.05 40.3 17.05 39.8 17.55 39.65 L17.8 39.6 M13.8 30.15 Q13.8 29.6 14.35 29.55 14.85 29.55 14.9 30.1 15 31.55 15.25 33.05 15.3 33.6 14.8 33.7 L14.7 33.7 Q14.25 33.7 14.15 33.25 L13.8 30.15 M2.85 37.15 Q2.9 37.9 3.4 38.5 3.65 38.95 3.3 39.3 L2.95 39.4 Q2.7 39.4 2.5 39.2 1.85 38.3 1.7 37.25 L1.7 36.9 Q1.7 36.3 1.95 35.75 2.2 35.3 2.7 35.45 3.15 35.7 3 36.2 L2.8 36.9 2.85 37.15 M4.95 40.3 Q5.15 39.85 5.65 39.95 L7.6 40.3 8.5 40.3 Q9 40.35 9.05 40.85 L8.5 41.4 7.55 41.4 5.3 41 Q4.85 40.8 4.95 40.3 M15.15 40.55 Q15.15 41.05 14.65 41.15 L11.55 41.35 Q11.05 41.35 11 40.85 11 40.3 11.55 40.25 L14.55 40.05 Q15.05 40.05 15.15 40.55"/>
    <path stroke="none" fill="#fac49d" d="M7.15 33.15 Q7.65 33.35 7.5 33.85 L7.2 35 6.7 35.55 6.3 35.65 6.2 35.6 5.7 35.5 4.95 35.35 Q4.4 35.25 4.45 34.75 4.6 34.2 5.1 34.25 L5.95 34.4 6.15 34.45 6.45 33.5 Q6.65 33 7.15 33.15"/>
    <path stroke="none" fill="#fac49d" d="M7.7 15.1 Q7.65 14.55 8.15 14.45 8.65 14.45 8.8 14.95 L8.85 15.35 9.1 18.1 Q9.1 18.6 8.6 18.7 L8.55 18.7 Q8.1 18.65 8 18.2 L7.75 15.5 7.7 15.1 M8.75 20.7 Q9.25 20.75 9.35 21.25 L9.4 23.45 9.4 24.45 8.85 25 8.8 25 Q8.3 24.9 8.3 24.4 L8.3 23.45 8.25 21.3 Q8.25 20.8 8.75 20.7 M8.95 28.4 L8.45 30.75 Q8.35 31.2 7.9 31.2 L7.8 31.2 Q7.3 31.05 7.35 30.5 L7.85 28.2 7.9 27.95 8 27.45 Q8.1 26.95 8.65 27 9.15 27.15 9.1 27.65 L9 28.2 8.95 28.4"/>
    <path stroke="none" fill="#fac49d" d="M6.95 9.9 L7.3 10.45 7.95 11.75 Q8.1 12.2 7.65 12.45 L7.45 12.5 Q7.1 12.5 6.9 12.15 L6.4 11.15 5.75 11.45 Q5.25 11.55 5.05 11.05 5 10.55 5.5 10.4 L6 10.05 Q6.45 9.65 6.95 9.9"/>
    <path stroke="none" fill="#fac49d" d="M30.8 5.95 Q31.05 6.4 30.7 6.75 L30.35 6.85 Q30.1 6.85 29.9 6.65 L29.45 6.15 27.75 4.85 Q27.35 4.55 27.55 4.05 27.9 3.65 28.35 3.85 L30.25 5.35 30.8 5.95 M31.45 8.5 Q32 8.45 32.1 8.95 L32.2 10.05 31.95 11.85 31.85 12.2 31.3 12.6 31.1 12.55 Q30.65 12.3 30.8 11.8 L30.9 11.55 31.1 10.05 31 9.15 Q31 8.6 31.45 8.5 M25.25 3.75 L25.1 3.75 23.4 3.35 22.25 3.2 Q21.75 3.05 21.75 2.55 21.85 2.05 22.35 2.05 L23.55 2.25 25.45 2.65 Q25.9 2.85 25.8 3.35 25.7 3.75 25.25 3.75 M19.3 2.95 L19.25 2.95 16.55 2.85 16.25 2.85 Q15.75 2.8 15.7 2.25 15.75 1.75 16.3 1.7 L16.6 1.75 19.3 1.85 Q19.85 1.9 19.85 2.4 L19.3 2.95 M23.35 15.75 L23.3 15.75 21.85 15.5 Q21.1 15.3 20.2 14.7 19.8 14.35 20.05 13.9 L20.85 13.8 22.15 14.4 23.4 14.65 Q23.9 14.7 23.9 15.25 23.85 15.7 23.35 15.75 M26.35 15.6 Q25.9 15.55 25.8 15.1 25.8 14.6 26.3 14.45 L29 13.65 Q29.45 13.45 29.75 13.9 29.95 14.35 29.5 14.65 28.25 15.3 26.45 15.6 L26.35 15.6 M13.8 2.25 L13.25 2.8 10.3 3.05 10.2 3.05 9.65 2.6 Q9.65 2.1 10.15 1.95 L13.2 1.7 Q13.75 1.75 13.8 2.25 M7.5 3.8 Q6 4.3 4.95 5.1 L4.6 5.2 Q4.35 5.2 4.15 5 3.9 4.55 4.3 4.2 5.45 3.3 7.1 2.7 7.6 2.6 7.8 3.05 7.95 3.55 7.5 3.8 M2.2 6.7 Q2.4 6.25 2.9 6.4 3.35 6.65 3.2 7.15 2.95 7.7 2.95 8.2 3 8.85 3.45 9.4 3.7 9.85 3.35 10.2 L3 10.35 Q2.75 10.35 2.55 10.15 1.85 9.3 1.85 8.2 1.85 7.45 2.2 6.7"/>
  </g>
</svg>