<svg width="36.55px" height="39.25px" viewBox="0 0 36.55 39.25" xmlns="http://www.w3.org/2000/svg" xmlns:xlink="http://www.w3.org/1999/xlink">
  <defs/>
  <g>
    <path stroke="none" fill="#7279b8" d="M30.1 1.25 Q33.3 2.9 34.15 6.5 35 10.5 32.5 13.85 31.4 15.2 29.8 15.9 31.4 16.1 32.7 16.65 37.15 18.7 36.45 23.25 35.7 26.55 32.5 27.75 33 30.45 32.45 33.25 31.8 35.9 29.7 37.45 27.2 39 24.75 38.9 L24.4 38.95 18.65 39.25 15.9 39.15 Q11.4 38.8 7.15 35.4 3.6 32.55 1.85 29.15 0.2 25.9 0 21.45 -0.25 13.2 5.75 7 9.8 2.95 16.7 0.95 L22.95 0.05 24.05 0 Q27.6 0 30.1 1.25 M21.05 10.95 Q17.8 10.85 15.35 13.3 12.1 17.85 12.9 22.25 13.25 27.55 17.8 29.95 L18.45 30.05 Q19.2 30 19.8 29.45 20.05 29 19.85 27.9 17.5 27.85 15.7 26.35 12.35 23 14.95 19 18.85 15.65 23.35 16 L23.9 15.95 24.75 15.9 Q22.85 14.6 22.15 12.95 L22.05 13 Q21.4 12.15 21.1 10.95 L21.05 10.95"/>
    <path stroke="none" fill="#5f7ba6" d="M23 8.35 Q17.5 7.4 13.7 11.5 9.9 16.25 10.7 22.35 11.15 29.1 17.05 32 19.5 32.8 21.4 31 22.8 28.5 21.7 25.6 L21.45 25.4 Q19.1 26.15 17.15 24.65 15.25 22.7 16.75 20.4 19.85 17.9 24.05 18.2 28.05 17.6 31.9 18.7 34.6 19.9 34.25 22.8 33.35 25.85 30.1 25.95 29.85 26.05 30 26.3 L30 26.35 Q30.8 29.55 30.25 32.8 29.85 34.55 28.4 35.65 26.5 36.75 24.2 36.7 20.15 37.15 16.05 36.9 11.85 36.45 8.55 33.65 5.6 31.4 3.85 28.15 2.35 24.95 2.25 21.4 2.1 13.9 7.4 8.6 11.6 4.6 17.3 3.15 L23.05 2.3 Q26.25 2 29.1 3.25 31.7 4.7 32.05 7.45 32.45 10.15 30.75 12.45 28.9 14.6 26.1 14.05 24.65 13.25 24 11.6 23.2 10.2 23.15 8.55 L23 8.35"/>
    <path stroke="none" fill="#7dc8e8" d="M28.45 18.65 L24.25 22 21.95 23.75 Q23.35 22.9 24.85 22 28.2 19.9 29.2 19.35 30.25 18.8 30.3 18.9 L30.5 19.05 Q30.8 19.15 30 19.9 L25.25 23.6 22.65 25.6 25.3 24 30.7 20.8 Q31.95 20.1 32 20.25 L32.2 20.35 Q32.5 20.45 31.7 21.15 L27.3 24.6 23.65 27.45 29.15 24.15 34.55 20.9 Q35.8 20.2 35.85 20.35 L36 20.5 Q36.4 20.6 35.25 21.45 L28.8 26 22.95 30.05 26.1 28.15 31.05 25.2 Q32.15 24.55 32.2 24.7 L32.4 24.8 32.3 25.2 32.15 25.25 Q30.65 26 26.4 28.6 19.85 32.6 20.3 32.1 L20.25 32.1 20.05 31.95 Q19.6 31.85 20.9 30.85 L28.45 25.55 32.4 22.8 29.45 24.6 23.35 28.25 21.8 28.9 21.65 28.8 Q21.35 28.7 22.15 27.95 L26.95 24.15 30 21.85 25.6 24.45 21.1 27.15 20.2 27.55 20 27.4 Q19.7 27.3 20.5 26.6 L24.9 23.15 28.2 20.6 25.15 22.5 20.85 25.05 19.75 25.5 19.6 25.35 Q19.3 25.25 20 24.65 L23.9 21.55 26.75 19.35 22.8 21.7 18.2 24.45 17.25 24.85 17.05 24.7 Q16.8 24.6 17.45 24 18.05 23.4 21.1 20.95 L23.65 18.85 20.2 20.9 15.95 23.45 15.15 23.75 14.95 23.6 Q14.1 23.95 17.4 20.8 L18.7 19.5 17.5 20.05 17.35 19.95 Q17.2 19.7 17.45 19.55 L17.5 19.5 18.8 18.75 Q20.35 17.8 20.2 18.05 L20.4 18.15 Q21.25 17.8 17.8 21.2 L16.5 22.5 19.9 20.45 Q23.55 18.2 24.5 17.7 L25.45 17.3 25.65 17.45 25.25 18.2 21.45 21.35 19.2 23.2 22.5 21.2 27.55 18.2 Q28.65 17.6 28.75 17.7 L28.9 17.85 Q29.2 17.95 28.45 18.65"/>
    <path stroke="none" fill="#7dc8e8" d="M16.5 9.65 L16.35 9.55 Q16.25 9.3 16.45 9.15 L16.6 9.1 21.5 6.25 26.45 3.25 Q27.5 2.7 27.5 2.85 L27.7 2.95 Q28.45 2.7 25.5 5.55 L23.95 7.1 27.35 5.1 30.9 2.95 31.6 2.7 31.8 2.85 Q32.05 2.95 31.35 3.6 L27.25 6.85 Q25.85 7.95 24.55 9 L26.5 7.85 30.05 5.75 Q30.7 5.35 30.7 5.5 L30.9 5.6 Q31.85 5.3 28.1 8.5 L26.55 9.9 27.7 9.2 Q30.9 7.1 30.65 7.55 L30.85 7.65 Q32 7.25 27.3 11.05 L25.7 12.35 28.1 10.9 Q31.15 9.05 31.9 8.65 32.7 8.2 32.75 8.35 L32.9 8.45 Q33.95 8.15 29.9 11.5 L28.15 13.05 29.6 12.2 Q33 10.05 32.55 10.55 L32.7 10.7 Q32.85 10.9 32.6 11.05 L32.5 11.1 29.85 12.65 Q26.15 14.95 26.4 14.6 L26.35 14.6 26.15 14.45 Q25.05 14.9 29.55 11.1 L30.95 9.85 28.4 11.4 24.5 13.7 23.65 14.05 23.5 13.9 Q22.35 14.3 26.95 10.6 L28.5 9.35 28 9.65 Q24.7 11.75 24.9 11.35 L24.7 11.2 Q23.7 11.6 27.75 8.1 L28.95 7 26.8 8.3 23.1 10.5 22.4 10.75 22.2 10.65 Q21.9 10.55 22.65 9.85 L26.9 6.45 29.25 4.6 27.65 5.55 23.55 8 22.7 8.35 22.5 8.2 Q21.6 8.55 25.1 5.15 L26.2 4.05 Q24.25 5.2 21.8 6.7 L17.4 9.3 Q16.55 9.8 16.5 9.65"/>
    <path stroke="none" fill="#7dc8e8" d="M22.65 4.2 L13.8 10 6.05 15.1 15.5 9.4 23.75 4.4 Q25.9 3.15 26.05 3.35 L26.25 3.5 Q26.8 3.55 24.95 4.9 L14.1 11.85 5.8 17.15 7.05 16.4 10.85 14.1 Q11.6 13.7 11.6 13.8 L11.8 13.95 Q12.05 14.05 11.35 14.7 L7.25 17.95 3.75 20.7 7.3 18.55 11.1 16.25 Q11.85 15.85 11.85 16 L12 16.15 Q12.35 16.25 11.5 17 L6.55 20.8 4.85 22.1 6.25 21.25 10.2 18.9 Q11 18.45 11.05 18.55 L11.25 18.7 Q11.55 18.8 10.75 19.5 L6.35 23.05 4.1 24.85 5.65 23.9 9 21.9 9.65 21.65 9.85 21.8 Q10.55 21.55 7.8 24.3 L6.5 25.6 7.2 25.15 Q9.95 23.4 9.75 23.75 L9.95 23.9 Q10.9 23.5 7.15 27.1 L6.05 28.2 7.15 27.5 Q10.95 25.15 10.55 25.65 L10.75 25.75 Q11.7 25.35 7.7 29.2 L6.65 30.2 9.15 28.7 12.85 26.5 Q13.55 26.15 13.55 26.25 L13.7 26.4 13.35 27.05 9.9 29.95 8.65 31.05 Q12.45 28.7 11.95 29.25 L12.1 29.35 Q12.7 29.05 10.6 31.85 L10.05 32.65 11.55 31.7 Q14.3 30 13.95 30.4 L14.15 30.55 Q14.85 30.25 12.2 33.1 L11.15 34.25 13 33.15 Q16.85 30.75 16.3 31.3 L16.5 31.45 Q17.1 31.2 14.95 33.7 L14.25 34.55 15.15 33.95 Q18.15 32.05 17.85 32.5 L18.05 32.6 Q18.35 32.4 17.45 34.4 L17.05 35.35 22.55 32.05 28 28.75 29.4 28.15 29.6 28.3 Q29.9 28.45 29.15 29.1 L24.8 32.4 22.05 34.5 24.3 33.1 Q30.1 29.45 29.65 30.05 L29.85 30.2 Q30.1 30.3 29.55 30.9 L26.15 33.75 24.75 34.9 26.5 33.85 30 31.9 30.2 32 Q30.95 31.75 28.1 34.7 L27.4 35.45 28.25 34.95 Q31.45 32.95 31 33.4 L31.2 33.55 31.1 33.95 31 33.95 28.5 35.4 26.1 36.75 26.05 36.75 25.85 36.6 Q25.25 36.85 27.65 34.3 L28.85 33.05 26.75 34.3 22.75 36.55 22.55 36.45 Q21.5 36.75 25.75 33.35 L28 31.5 Q26.35 32.45 24.6 33.55 19.25 36.9 19.75 36.3 L19.55 36.2 Q19.25 36.05 20 35.4 L24.5 31.95 27.4 29.75 22.85 32.5 17.8 35.6 Q16.6 36.25 16.55 36.1 L16.35 35.95 Q16.1 36.15 16.95 34.2 L17.3 33.3 15.45 34.45 Q12.8 36.1 13.1 35.7 L12.95 35.55 Q12.35 35.8 14.5 33.35 L15.25 32.45 13.3 33.6 Q9.4 36 9.95 35.45 L9.75 35.3 Q9.05 35.6 11.75 32.7 L12.75 31.65 11.85 32.2 9.15 33.65 9 33.5 Q8.5 33.75 10.15 31.55 L11.1 30.2 8.9 31.55 6.1 33.05 5.95 32.95 Q4.75 33.35 9.55 29.55 L11.4 28 9.45 29.2 5.85 31.35 5.15 31.6 4.95 31.45 Q4.15 31.75 7.3 28.8 L9.2 26.9 7.45 28 Q4.1 30.05 4.55 29.6 L4.35 29.45 Q3.55 29.75 6.75 26.7 L8.4 25.1 7.5 25.65 5.15 26.9 5 26.75 Q4.15 27.1 7.4 23.9 L8.3 22.95 5.9 24.4 Q1.2 27.3 1.8 26.7 L1.6 26.55 Q1.35 26.45 2 25.8 L6 22.65 9.05 20.2 Q7.85 20.9 6.55 21.7 L2.85 23.95 2.05 24.25 1.85 24.1 Q1.6 24 2.25 23.4 L6.2 20.35 9.4 17.95 7.6 19.05 2.85 21.85 1.8 22.25 1.65 22.1 Q1.35 22 2.15 21.3 2.95 20.55 6.9 17.5 L9.15 15.75 7.35 16.85 2.7 19.65 1.55 20.1 1.35 19.95 Q0.8 19.9 2.7 18.55 4.65 17.15 13.8 11.4 L23.4 5.25 15.8 9.85 Q3.75 17.3 3.9 16.65 L3.7 16.5 Q3.2 16.4 4.75 15.3 L13.5 9.55 21.2 4.55 13.6 9.15 6.55 13.4 Q4.75 14.45 4.6 14.3 L4.4 14.15 Q4.05 14.05 5.1 13.2 L11.3 8.85 17 4.8 13.45 7 Q6.25 11.6 6.5 11 L6.3 10.85 Q6 10.7 6.7 10.1 L10.7 6.85 12.35 5.5 12.25 5.55 Q9.35 7.35 9.7 6.95 L9.55 6.8 Q9.4 6.6 9.65 6.45 L9.75 6.4 11.95 5.1 Q15.3 3 14.85 3.5 L15.05 3.65 Q15.3 3.75 14.7 4.3 L11.05 7.3 Q9.4 8.55 8.05 9.7 L13.15 6.55 Q19.8 2.35 19.45 2.95 L19.65 3.1 Q20.05 3.2 18.8 4.2 L11.6 9.3 7.15 12.4 13.3 8.65 Q23.55 2.25 23.5 2.85 L23.7 3 Q24.2 3.1 22.65 4.2"/>
    <path stroke="none" fill="#fac49d" d="M31.3 26.4 L30.6 26.55 30.85 27.7 Q30.85 28.25 30.35 28.35 L30.3 28.35 Q29.8 28.35 29.7 27.9 L29.5 26.55 29.45 25.95 Q29.6 25.5 30.1 25.45 L31.05 25.3 Q31.55 25.25 31.7 25.75 31.8 26.25 31.3 26.4"/>
    <path stroke="none" fill="#fac49d" d="M23.1 1.7 L26.2 1.85 Q26.75 1.95 26.7 2.45 26.6 2.95 26.15 2.95 L26.05 2.95 23.15 2.85 Q22.65 2.8 22.6 2.3 22.6 1.8 23.1 1.7 M20.7 2.5 Q20.7 3 20.2 3.1 L17.45 3.7 17.35 3.7 17.2 3.75 Q16.8 3.7 16.65 3.35 16.55 2.8 17.05 2.65 L17.15 2.6 20.05 2 Q20.6 2 20.7 2.5 M14.55 4.65 Q13.15 5.25 11.9 5.9 L11.65 6 Q11.3 5.95 11.15 5.7 10.95 5.2 11.35 4.95 12.65 4.2 14.15 3.6 14.65 3.5 14.85 3.95 15 4.4 14.55 4.65 M18.7 9 Q18.3 8.95 18.15 8.55 18.1 8.05 18.55 7.9 L21.75 7.6 Q22.25 7.65 22.25 8.2 22.15 8.7 21.65 8.7 L18.85 8.95 18.7 9 M16.25 10.1 Q15.1 10.85 14.15 11.9 L14.1 11.95 13.65 12.1 13.3 11.95 Q12.95 11.6 13.25 11.2 L13.3 11.15 Q14.4 9.95 15.65 9.15 16.15 8.9 16.45 9.35 16.65 9.8 16.25 10.1 M23.2 9.4 Q23.7 9.35 23.85 9.8 L24.45 11.35 24.65 11.65 25.05 12.35 Q25.3 12.85 24.9 13.15 L24.6 13.25 Q24.3 13.2 24.1 12.95 L23.65 12.15 23.5 11.9 22.75 10.1 Q22.7 9.55 23.2 9.4 M29.35 2.75 Q30.85 3.5 31.7 4.9 31.95 5.35 31.55 5.65 L31.25 5.75 Q30.95 5.75 30.75 5.5 30.05 4.4 28.85 3.75 L28.75 3.75 Q28.35 3.45 28.5 3 28.8 2.55 29.25 2.75 L29.35 2.75 M31.6 8.4 L31.55 8.05 Q31.6 7.55 32.1 7.5 32.6 7.5 32.7 8 L32.7 8.4 Q32.7 9.85 32.15 11.2 31.95 11.55 31.6 11.55 L31.4 11.5 Q30.95 11.25 31.1 10.75 31.55 9.65 31.6 8.4 M6.95 8.2 Q7.8 7.35 8.75 6.6 L9.55 6.7 Q9.85 7.15 9.45 7.5 L7.75 9 7.3 9.45 6.9 9.65 6.5 9.5 Q6.2 9.15 6.5 8.7 L6.95 8.2 M11.5 17 Q11.4 17.4 10.95 17.4 L10.85 17.4 Q10.35 17.25 10.4 16.75 10.8 15.15 11.5 13.8 11.75 13.35 12.25 13.55 12.65 13.8 12.5 14.3 11.85 15.55 11.5 17 M5.35 11 Q5.75 11.3 5.5 11.75 L4.1 14.3 3.6 14.65 3.4 14.6 Q2.9 14.35 3.1 13.85 L4.55 11.15 Q4.9 10.75 5.35 11 M10.6 19.3 Q11.15 19.35 11.15 19.85 L11.15 20.45 11.25 22.3 11.3 22.8 Q11.3 23.3 10.8 23.4 L10.75 23.4 Q10.3 23.4 10.2 22.9 L10.15 22.4 10.05 20.45 10.05 19.85 Q10.1 19.3 10.6 19.3 M2.8 16.4 Q3.25 16.55 3.2 17.1 L2.8 19.95 2.25 20.5 Q1.7 20.4 1.7 19.9 1.75 18.35 2.1 16.85 2.3 16.35 2.8 16.4 M2.3 22.4 Q2.85 22.35 2.95 22.85 3.1 24.4 3.5 25.7 3.6 26.25 3.1 26.4 L2.95 26.45 2.4 26.05 1.8 23 Q1.8 22.5 2.3 22.4 M3.85 28.15 Q4.3 27.95 4.6 28.4 L6.3 30.75 Q6.55 31.15 6.2 31.55 L5.85 31.65 Q5.6 31.65 5.45 31.45 L3.6 28.95 Q3.4 28.45 3.85 28.15 M11.25 25.25 Q11.75 25.1 11.95 25.6 L13.2 28.2 Q13.4 28.65 13 28.95 L12.7 29.05 12.25 28.8 Q11.4 27.5 10.9 25.95 10.75 25.45 11.25 25.25 M7.65 33.65 Q7.25 33.25 7.55 32.85 L8.35 32.8 8.9 33.25 10.7 34.5 Q11.15 34.85 10.9 35.3 L10.4 35.55 10.1 35.45 8.2 34.1 7.65 33.65 M14.25 30.35 L15.05 30.3 17.25 31.5 17.5 31.55 Q18 31.75 17.9 32.25 L17.35 32.65 17.2 32.65 16.85 32.55 Q15.5 32.05 14.35 31.15 14 30.8 14.25 30.35 M30.15 13.8 Q28.8 14.75 27.15 14.75 L26.95 14.75 Q26.45 14.7 26.45 14.15 26.5 13.65 27 13.65 28.35 13.65 29.5 12.9 L30.3 13 Q30.55 13.45 30.15 13.8 M27.15 18.05 L26.6 18.6 24.95 18.7 24.1 18.8 23.55 18.8 Q23.1 18.8 23 18.3 23.05 17.75 23.55 17.7 L24 17.65 24.85 17.6 26.55 17.5 Q27.05 17.5 27.15 18.05 M29.65 17.6 Q31 17.75 32.1 18.2 L32.75 18.5 Q33.15 18.85 32.95 19.3 L32.45 19.55 32.15 19.5 31.65 19.25 29.5 18.7 Q29 18.6 29.05 18.05 29.15 17.55 29.65 17.6 M33.75 22.05 L33.7 21.45 Q33.65 20.95 34.1 20.75 34.65 20.7 34.8 21.2 L34.9 22.05 34.8 22.9 34.15 24.5 33.7 24.75 33.35 24.65 Q33 24.35 33.2 23.9 L33.7 22.7 33.75 22.05 M17.45 19.05 Q18.6 18.3 20.5 18 21 17.95 21.15 18.45 21.15 18.95 20.65 19.1 19 19.35 18.05 20 L17.75 20.05 Q17.45 20.05 17.25 19.8 17.05 19.35 17.45 19.05 M15.55 21.8 Q15.65 21.3 16.15 21.35 16.7 21.45 16.65 21.95 L16.65 22.35 Q16.65 23.45 17.45 24.2 17.8 24.55 17.5 25 L17.05 25.2 16.7 25.05 Q15.55 23.95 15.5 22.35 L15.55 21.8 M22.35 25.9 L22.45 26.45 Q22.5 27 22 27.15 L21.9 27.15 21.35 26.7 21.25 26.15 21.2 26.1 19.95 26.25 19.8 26.25 Q19.3 26.15 19.25 25.65 19.35 25.15 19.85 25.1 L19.95 25.1 21.3 24.9 21.5 24.85 Q22.15 24.9 22.25 25.55 L22.35 25.9 M22.2 29 Q22.7 29.15 22.65 29.65 22.45 30.7 21.75 31.4 L20.55 32.3 20.3 32.35 19.8 32.05 Q19.6 31.6 20 31.3 L21 30.6 21.55 29.45 Q21.7 28.95 22.2 29 M31.05 30.8 L30.8 32.9 30.45 33.95 29.95 34.3 29.7 34.25 Q29.25 34 29.45 33.5 L29.7 32.65 29.9 30.75 Q30 30.25 30.5 30.2 31 30.3 31.05 30.8 M25.1 37.2 L25.05 37.2 Q24.6 37.15 24.5 36.7 24.5 36.15 25 36.1 26.45 36.05 27.7 35.45 28.2 35.25 28.45 35.65 28.7 36.15 28.25 36.45 L25.1 37.2 M22.65 36.85 Q22.6 37.35 22.1 37.45 L19.05 37.55 Q18.55 37.5 18.5 37 18.55 36.5 19.05 36.45 L22.05 36.3 Q22.55 36.35 22.65 36.85 M16 37.45 L12.95 36.85 Q12.45 36.6 12.6 36.1 12.8 35.65 13.3 35.75 L16.1 36.35 Q16.6 36.45 16.6 36.95 L16.05 37.45 16 37.45"/>
  </g>
</svg>