<svg width="41.75px" height="43.55px" viewBox="0 0 41.75 43.55" xmlns="http://www.w3.org/2000/svg" xmlns:xlink="http://www.w3.org/1999/xlink">
  <defs/>
  <g>
    <path stroke="none" fill="#7279b8" d="M31.8 0.05 Q36.05 -0.45 40.3 3.25 42.4 6.1 40.9 9.55 39.35 12.55 36.2 12.65 L36.05 12.65 36 12.8 Q35.15 14.45 34.75 16.1 34.15 19.4 34.35 22 34.7 25.15 35.6 28.1 36.15 30.5 37.05 32.4 L37.1 32.4 Q39.05 32.4 40.4 33.6 41.7 34.85 41.7 36.6 41.1 39.8 39.6 40.8 35.7 43.7 31.1 43.4 L30.95 43.4 26.1 42.95 25.9 42.9 Q23.05 42.95 20.45 40.25 L20.4 40.15 19.75 40.9 Q15.9 43.8 11.8 43.3 L10.4 43.35 9.45 43.4 7.2 43.5 Q4.8 43.8 1.85 41.8 -1.05 38.85 0.6 35 2.15 32.25 5.25 32.1 L5.55 31.45 5.9 30.7 6.7 28.15 Q7.25 25.7 6.9 22.6 L5.95 16.55 5.8 15.4 5.25 12.85 Q3.2 12.8 1.7 11.15 -0.05 8.95 0.25 6.15 1.15 1.25 8.55 0.3 L11.8 0.1 Q15.7 0.1 18.35 1.6 19.85 2.45 20.65 4.05 L21.4 3.15 Q23.7 1.4 26.1 0.9 L26.35 0.85 Q28.95 0.1 31.55 0.05 L31.8 0.05 M20.95 10.95 L20.6 10.55 20.05 11.2 Q18.75 12.5 17.05 12.65 16.7 15.1 17.4 16.65 18.75 18.6 20.15 18.35 L20.25 18.35 Q22.3 18.25 23.45 16.9 24.55 15.05 24.3 12.5 22.25 12.3 20.95 10.95 M20.3 25.45 Q18.3 25.1 16.25 28.1 15.6 30.25 16.25 32.35 L17 32.3 Q18.85 32.3 20.2 33.4 L20.9 34.1 Q22.5 32.35 24.85 32.3 L25.1 32.3 Q25.5 30.45 24.45 27.7 23.55 25.4 20.8 25.4 L20.3 25.45"/>
    <path stroke="none" fill="#5f7ba6" d="M38.7 8.85 Q37.5 11 34.95 10.15 34.65 10.1 34.65 10.35 L34.65 10.4 Q33.25 12.95 32.55 15.65 31.9 18.9 32.1 22.15 32.45 25.5 33.45 28.75 34.25 31.8 35.6 34.65 L35.85 34.85 Q37.5 34.25 38.85 35.25 40.2 37.35 38.1 39 34.9 41.25 30.95 40.9 L26.35 40.6 Q23.9 40.6 22.3 38.95 21.2 37 22.6 35.55 24.05 34.05 26.05 34.8 L26.3 34.6 Q28.45 30.95 26.55 26.9 24.65 22.8 20.15 23.2 15.8 23.5 14.15 27.4 12.8 31.45 15.15 34.85 L15.35 34.9 15.5 34.85 Q17.25 34.1 18.8 35.15 20.2 37.3 18.15 39.3 14.65 41.6 10.25 41.1 6.5 41.9 3.35 40.1 1.6 38.3 2.6 36 4.05 33.7 6.5 34.7 L6.8 34.5 Q7.2 33 7.95 31.6 L8.9 28.65 Q9.55 25.55 9.15 22.35 L8.2 16.15 Q7.9 13.2 6.75 10.6 L6.55 10.35 6.35 10.4 Q4.5 11.05 3.4 9.65 2.3 8.25 2.5 6.45 2.95 4.4 4.95 3.55 6.9 2.7 8.8 2.55 13.25 1.75 17.25 3.55 19.25 5 19.2 7.55 18.85 10.95 15.65 10.15 L15.4 10.25 15.2 10.4 Q14.15 14 15.3 17.55 16.75 20.5 20.05 20.6 23.25 20.6 25.25 18.2 27.4 14.6 26.15 10.55 L26 10.25 Q24 10.65 22.55 9.35 20.95 6.95 22.95 4.8 24.75 3.45 27 3 L31.6 2.3 Q35.65 2 38.55 4.65 39.95 6.75 38.7 8.85"/>
    <path stroke="none" fill="#7dc8e8" d="M5.6 33.9 Q6.05 33.7 4.5 35.85 L3.7 37 7.4 34.75 12.05 31.95 Q13.15 31.35 13.3 31.45 L13.45 31.6 Q13.75 31.7 13.1 32.3 L9.3 35.2 6.55 37.35 9.05 35.8 13.35 33.2 14.4 32.8 14.6 32.95 Q14.9 33.05 14.1 33.75 L9.35 37.25 6.2 39.6 9.3 37.7 13.9 34.95 Q14.95 34.35 15.05 34.45 L15.2 34.6 Q15.45 34.7 14.9 35.3 L11.45 38.15 9.1 40.1 13.35 37.55 Q17.05 35.3 17.95 34.8 18.9 34.25 18.95 34.4 L19.1 34.55 Q20.25 34.1 15.55 38.1 L13.55 39.85 16 38.4 Q19.95 35.9 19.4 36.45 L19.6 36.6 19.5 37 19.4 37 16.25 38.85 Q11.35 41.9 11.95 41.25 L11.75 41.15 Q10.65 41.55 15.15 37.7 L17.3 35.85 13.65 38 Q7.15 42 7.4 41.6 L7.35 41.55 7.2 41.45 Q6.95 41.3 7.55 40.75 L11.1 37.75 13.25 35.95 9.6 38.15 4.95 40.95 3.85 41.45 3.65 41.3 Q3.35 41.2 4.15 40.45 L9.05 36.8 11.9 34.75 9.35 36.25 5.25 38.75 Q4.35 39.25 4.25 39.15 L4.1 39 Q3.8 38.9 4.55 38.2 L8.95 34.8 11.05 33.2 7.7 35.25 2.95 37.95 2.75 37.8 Q2.25 38.05 4.05 35.5 L4.5 34.85 Q3.7 35.35 3.7 35.2 L3.55 35.1 Q3.45 34.85 3.65 34.7 L3.7 34.65 4.4 34.25 Q5.5 33.55 5.45 33.75 L5.6 33.9"/>
    <path stroke="none" fill="#7dc8e8" d="M33.85 31.7 L29.45 34.9 25.4 37.8 28.75 35.8 33.15 33.15 Q34.1 32.6 34.2 32.7 L34.35 32.85 Q34.65 32.95 33.9 33.65 L29.6 37.15 27 39.25 30.25 37.3 34.45 34.8 Q35.3 34.3 35.3 34.45 L35.5 34.55 Q36.5 34.2 32.5 37.75 L30.55 39.5 33.4 37.8 37.05 35.6 Q37.8 35.2 37.85 35.3 L38.05 35.45 Q38.95 35.1 35.25 38.4 L33.9 39.7 35.5 38.7 Q39.45 36.25 39 36.75 L39.2 36.9 39.1 37.25 38.95 37.3 Q38.05 37.75 35.8 39.15 32.25 41.4 32.4 41.1 L32.35 41.1 32.15 40.95 Q31.2 41.3 34.9 38 L36.35 36.65 33.7 38.25 29.9 40.55 29.1 40.85 28.9 40.7 Q27.85 41.1 32.15 37.3 L33.75 35.8 30.55 37.75 26 40.5 Q25.05 41 25 40.9 L24.8 40.75 Q24.55 40.65 25.25 40 L29.25 36.7 32.25 34.3 29.05 36.25 24.25 39.15 23.1 39.6 22.9 39.5 Q22.55 39.4 23.5 38.55 L29.15 34.45 31.05 33.05 27.6 35.15 21.9 38.55 20.55 39.15 20.35 39 Q19.85 39.2 21.65 36.95 L22.45 35.95 21.6 36.35 21.4 36.25 Q21.3 36 21.5 35.85 L21.55 35.8 22.35 35.35 Q23.55 34.6 23.5 34.8 L23.65 34.9 Q24.25 34.65 22.1 37.3 L21.45 38.15 27.3 34.65 32.8 31.35 Q34.05 30.65 34.1 30.8 L34.3 30.95 Q34.6 31.05 33.85 31.7"/>
    <path stroke="none" fill="#7dc8e8" d="M33.85 14.5 Q34.15 14.6 33.25 15.3 L28.2 19.1 24.8 21.55 27.15 20.1 31.55 17.45 Q32.55 16.9 32.65 17 L32.8 17.15 Q33.05 17.25 32.4 17.85 L28.5 21.1 25.85 23.25 26.9 22.6 Q31.05 20 30.65 20.5 L30.85 20.65 Q31.65 20.35 28.65 23.3 L27.25 24.7 28.4 24 Q32.1 21.75 31.6 22.25 L31.8 22.4 Q32.55 22.1 29.55 25.1 L28.85 25.8 30.3 24.95 Q34.1 22.6 33.55 23.15 L33.75 23.3 Q34.8 22.9 30.55 26.6 L28.8 28.2 29.4 27.8 31.95 26.4 32.15 26.55 Q33 26.25 29.6 29.35 L28.7 30.2 30.05 29.35 Q33.5 27.25 33.05 27.7 L33.25 27.85 Q34.2 27.55 30.4 30.8 L28.1 32.85 30.4 31.4 34.5 29 Q35.3 28.55 35.35 28.65 L35.5 28.8 Q35.65 29.05 35.4 29.2 L35.3 29.25 Q34 29.9 30.7 31.9 L26.5 34.3 26.45 34.3 26.25 34.15 Q26 34.05 26.6 33.45 L30 30.35 31.1 29.4 30.35 29.85 Q26.55 32.2 27.05 31.65 L26.9 31.5 Q26.05 31.8 29.25 28.9 L30.35 27.9 29.7 28.25 Q26.8 30.1 27.1 29.7 L26.9 29.55 Q25.85 29.95 30.15 26.15 L31.85 24.65 30.55 25.45 27.45 27.15 27.25 27 Q26.6 27.25 29.15 24.7 L30.3 23.5 28.65 24.5 Q25.5 26.45 25.9 26 L25.7 25.9 Q24.9 26.25 28.25 22.9 L29.4 21.75 27.2 23.05 Q23.2 25.55 23.65 25.05 L23.5 24.9 Q23.2 24.8 23.95 24.15 L28.1 20.65 30.6 18.65 27.45 20.6 23.1 23.2 22 23.65 21.85 23.5 Q21.5 23.4 22.45 22.65 L27.85 18.6 30.75 16.55 Q28.95 17.6 27.05 18.75 L20.35 22.75 Q18.7 23.7 18.65 23.5 L18.45 23.4 Q18.35 23.15 18.55 23 L18.75 22.95 21.8 21.25 26.75 18.3 32.35 14.9 Q33.6 14.2 33.65 14.35 L33.85 14.5"/>
    <path stroke="none" fill="#7dc8e8" d="M36.75 10.9 Q36.65 10.65 36.85 10.5 L36.95 10.45 39.3 9.1 Q41.85 7.5 41.55 7.85 L41.75 8 41.65 8.4 41.55 8.4 Q40.95 8.7 39.6 9.55 L37 11 36.9 11 36.75 10.9"/>
    <path stroke="none" fill="#7dc8e8" d="M36.2 3.9 Q36.5 4 35.6 4.75 L30.4 8.75 27.45 10.95 30.25 9.25 35.9 5.9 Q37.2 5.15 37.3 5.25 L37.5 5.4 Q37.8 5.5 37 6.25 L32.2 9.9 28.1 12.95 33.9 9.5 39.55 6.1 Q40.85 5.4 40.9 5.55 L41.05 5.7 Q41.45 5.8 40.35 6.65 L34 11.1 Q31.4 12.85 29.05 14.55 32.85 12.2 32.3 12.75 L32.5 12.85 32.4 13.25 32.25 13.3 29.15 15.15 25.7 17.1 25.65 17.05 25.45 16.95 Q25.05 16.85 26.3 15.85 L33.65 10.65 Q35.75 9.2 37.6 7.9 L34.2 10 27.85 13.8 Q26.35 14.6 26.25 14.45 L26.05 14.35 Q25.75 14.25 26.65 13.45 L31.85 9.45 35.2 6.9 30.55 9.7 25.8 12.55 24.85 12.95 24.65 12.8 Q24.35 12.7 25.2 12 L30.05 8.3 33.7 5.55 30.95 7.2 26.75 9.75 25.75 10.15 25.55 10 Q25.25 9.9 25.95 9.3 L30 6.1 33 3.8 Q31 5 28.75 6.35 L23.95 9.25 22.95 9.65 22.75 9.5 Q22.45 9.4 23.2 8.75 L27.45 5.35 30.5 2.95 26.55 5.35 21.85 8.15 20.9 8.55 20.7 8.4 Q19.85 8.75 23.25 5.5 L24.65 4.15 23.35 4.8 23.15 4.65 Q23.05 4.45 23.25 4.3 L23.35 4.25 24.75 3.45 Q26.35 2.45 26.2 2.7 L26.35 2.8 Q27.3 2.45 23.65 5.9 L22.25 7.25 26.25 4.85 31.4 1.8 Q32.5 1.2 32.5 1.35 L32.7 1.5 Q33 1.6 32.2 2.3 L27.8 5.8 25.1 7.95 28.45 5.9 33.75 2.75 Q34.95 2.05 35 2.2 L35.2 2.35 Q35.5 2.45 34.75 3.15 L30.35 6.55 28 8.35 30.65 6.75 Q33.95 4.7 34.95 4.15 35.95 3.6 36 3.75 36.15 3.75 36.2 3.9"/>
    <path stroke="none" fill="#7dc8e8" d="M14.65 11.1 L14.55 11.1 14.4 10.95 Q14.3 10.75 14.5 10.6 L14.6 10.55 16.35 9.5 Q19.1 7.8 18.75 8.2 L18.9 8.35 Q19.05 8.6 18.8 8.75 L18.7 8.75 Q18.1 9.1 16.65 9.95 14.55 11.3 14.65 11.1"/>
    <path stroke="none" fill="#7dc8e8" d="M15.3 4.05 Q15.55 4.15 14.85 4.75 L10.85 7.95 8.1 10.1 12.45 7.5 16.75 4.9 Q17.65 4.4 17.65 4.55 L17.85 4.7 Q18.15 4.8 17.35 5.45 L12.95 8.9 8.95 11.95 14.1 8.85 18.85 6 Q19.8 5.45 19.85 5.6 L20 5.75 Q20.4 5.85 19.3 6.7 L13.1 11.25 11.25 12.6 Q16.15 9.6 15.55 10.2 L15.7 10.35 Q16 10.45 15.3 11.1 L11.25 14.45 9.3 16.05 10.35 15.4 Q14.3 13 13.75 13.55 L13.95 13.65 Q14.55 13.45 12.35 15.9 L11.35 17 11.7 16.8 Q13.75 15.45 13.7 15.75 L13.85 15.9 Q14.75 15.5 11.35 18.9 L10.35 19.95 11.35 19.3 Q14.85 17.15 14.5 17.6 L14.65 17.75 Q15.75 17.3 11.35 21.3 L10.15 22.45 13 20.7 17.05 18.3 17.8 18 18 18.15 Q18.3 18.25 17.55 18.9 L13.15 22.35 11.15 23.85 12.15 23.25 16.1 20.9 17 20.55 17.15 20.7 Q17.4 20.8 16.8 21.45 L13 24.75 11.2 26.3 15.65 23.6 Q19.15 21.45 20.2 20.85 L21.3 20.4 21.45 20.55 Q21.8 20.65 20.8 21.5 L14.85 25.8 11.2 28.4 Q15 26.1 14.45 26.6 L14.65 26.75 Q15.7 26.4 11.45 29.95 L10.15 31.1 Q13.1 29.2 12.85 29.6 L13.05 29.75 12.95 30.15 12.8 30.15 10.4 31.6 8.2 32.85 8.1 32.85 7.9 32.7 Q6.9 33.05 11.1 29.5 L12.55 28.25 11.35 28.95 Q7.4 31.4 7.95 30.85 L7.8 30.7 Q7.4 30.6 8.45 29.75 9.5 28.9 14.5 25.35 L18.55 22.5 15.95 24.1 10.85 27.15 Q9.65 27.8 9.55 27.65 L9.35 27.55 Q8.3 27.9 12.6 24.35 L15.35 21.95 Q13.95 22.8 12.45 23.75 L9 25.8 Q8.35 26.15 8.35 26 L8.15 25.9 Q7.85 25.8 8.6 25.15 L12.8 21.9 15.25 20 13.3 21.2 9.3 23.55 8.55 23.85 8.4 23.7 Q7.5 24.05 10.95 20.9 L13.05 18.95 11.65 19.8 Q8.55 21.7 8.95 21.25 L8.75 21.15 Q8 21.4 10.95 18.5 L12.35 17.05 12 17.25 Q10.1 18.5 10.2 18.25 L10 18.1 Q9.35 18.4 11.9 15.5 L12.65 14.7 10.65 15.9 7.15 17.85 6.95 17.7 Q6.7 17.6 7.3 17 L10.9 14 13.65 11.8 11.5 13.1 Q6.9 15.9 7.5 15.35 L7.3 15.2 Q7 15.1 7.85 14.4 L12.8 10.8 17.1 7.7 14.4 9.35 8.55 12.8 7.1 13.45 6.9 13.3 Q6.6 13.2 7.45 12.4 L12.6 8.45 15.1 6.55 12.75 7.95 7.5 11.1 6.15 11.7 5.95 11.55 Q5.7 11.45 6.4 10.8 L10.5 7.55 12.8 5.75 10.75 7 Q5.1 10.55 5.55 9.9 L5.35 9.75 Q5.1 9.65 5.7 9.1 L9.1 6.3 11.05 4.75 8.5 6.3 Q3.85 9.25 4.25 8.7 L4.05 8.55 Q3.2 8.9 6.55 5.8 L8.2 4.25 7.1 4.9 Q3.75 7.1 3.95 6.65 L3.75 6.5 Q3.15 6.75 5.35 4.2 L5.95 3.45 5.55 3.65 3.95 4.5 3.8 4.35 Q3.7 4.15 3.9 4 L3.95 3.95 5.25 3.2 Q7.25 1.95 7 2.25 L7.2 2.4 Q7.75 2.2 5.75 4.55 L4.85 5.65 6.8 4.45 9.65 2.85 9.85 3 Q10.85 2.6 6.95 6.2 L5.7 7.4 8.2 5.85 Q13.4 2.55 13 3.15 L13.2 3.3 Q13.45 3.4 12.85 3.95 L9.45 6.75 7.5 8.3 10.45 6.5 Q15.55 3.35 15.1 3.9 L15.3 4.05"/>
    <path stroke="none" fill="#fac49d" d="M26.85 34.85 L26.6 35.2 26.15 35.35 25.8 35.3 25 35.05 Q24.45 35 24.45 34.5 24.55 33.95 25.05 33.95 L25.95 34.15 26.6 33.1 Q26.8 32.65 27.3 32.8 27.8 33 27.65 33.5 L26.85 34.85"/>
    <path stroke="none" fill="#fac49d" d="M18.8 23.95 Q17.3 24.35 16.2 25.25 L15.85 25.4 15.4 25.2 Q15.1 24.8 15.45 24.4 16.75 23.3 18.55 22.85 19.05 22.75 19.2 23.25 19.3 23.75 18.8 23.95 M21.95 22.65 Q23.8 22.9 25.15 24 25.5 24.35 25.2 24.8 L24.8 25 24.45 24.85 Q23.3 24 21.75 23.75 21.3 23.65 21.3 23.15 21.4 22.65 21.95 22.65 M14.6 27.65 Q14.25 28.95 14.2 30.35 L14.25 30.65 13.7 31.2 13.65 31.2 Q13.15 31.2 13.1 30.65 L13.1 30.35 Q13.1 28.75 13.55 27.3 13.75 26.85 14.25 26.95 14.75 27.15 14.6 27.65 M26.05 27.25 Q25.95 26.75 26.4 26.5 26.9 26.35 27.1 26.85 27.75 28.45 27.95 30.1 27.95 30.6 27.45 30.7 L27.35 30.7 Q26.9 30.65 26.8 30.2 26.65 28.7 26.05 27.25"/>
    <path stroke="none" fill="#fac49d" d="M16.75 33.95 Q17.25 33.95 17.35 34.45 17.3 34.95 16.8 35.05 L15.75 35.35 15.4 35.4 15.25 35.4 Q14.95 35.4 14.75 35.2 L13.9 34 Q13.7 33.55 14.15 33.25 14.65 33.05 14.9 33.5 L15.4 34.25 16.75 33.95"/>
    <path stroke="none" fill="#fac49d" d="M2.25 37.3 Q1.75 37.1 1.8 36.6 L2.15 35.75 Q2.7 34.6 3.9 34.05 4.4 33.9 4.65 34.35 4.8 34.85 4.35 35.1 3.55 35.45 3.15 36.25 L2.9 36.85 Q2.8 37.3 2.35 37.3 L2.25 37.3 M6.25 34.45 L6.25 34.35 Q6.55 33.15 7.1 32.15 L7.35 31.55 Q7.65 31.15 8.1 31.3 8.55 31.55 8.4 32.05 L8.1 32.65 7.35 34.6 6.8 35.05 Q6.3 35 6.25 34.5 L6.25 34.45 M8.5 14.65 L8.55 14.95 8.75 16 9 17.5 Q9.05 18.05 8.55 18.15 L8.45 18.15 7.9 17.7 7.65 16.2 7.45 15.1 7.4 14.85 Q7.4 14.35 7.9 14.2 8.4 14.15 8.5 14.65 M8.4 20.55 Q8.35 20 8.85 19.9 9.4 19.9 9.5 20.4 L9.75 22.25 9.8 23.3 Q9.8 23.8 9.3 23.9 L9.25 23.9 Q8.8 23.85 8.7 23.35 L8.6 22.4 8.4 20.55 M9.35 29.2 Q9.25 29.6 8.8 29.65 L8.7 29.6 Q8.2 29.45 8.25 28.95 L8.35 28.5 8.7 26.2 Q8.8 25.65 9.3 25.65 9.8 25.75 9.8 26.25 L9.45 28.75 9.35 29.2 M18.8 35.95 Q18.6 35.45 19.05 35.2 19.5 35 19.8 35.45 L20 36.5 Q20 37.55 19.3 38.7 L18.85 39 18.55 38.9 Q18.1 38.6 18.35 38.15 18.9 37.25 18.9 36.5 L18.8 35.95 M13.35 41 Q13.3 40.45 13.85 40.4 L16.45 39.8 Q16.95 39.6 17.2 40.05 17.35 40.55 16.9 40.8 15.75 41.35 13.95 41.5 L13.9 41.5 Q13.4 41.45 13.35 41 M11 40.5 Q11.5 40.5 11.55 41.05 L11 41.6 10.3 41.65 9.35 41.7 8.15 41.8 8.1 41.8 Q7.6 41.75 7.55 41.25 7.55 40.75 8.1 40.65 L9.25 40.6 10.25 40.5 11 40.5 M5.1 41.6 Q3.85 41.25 3 40.5 L2.4 39.8 Q2.15 39.4 2.55 39.05 3 38.8 3.3 39.2 L3.75 39.65 Q4.4 40.25 5.4 40.5 5.85 40.65 5.8 41.15 5.65 41.6 5.25 41.6 L5.1 41.6"/>
    <path stroke="none" fill="#fac49d" d="M7.5 12.45 L7.3 12.5 6.75 12.1 6.3 11 5.45 11.15 Q4.9 11.15 4.85 10.6 4.85 10.1 5.4 10.05 L6.05 9.9 6.6 9.75 7.15 10.05 7.25 10.4 7.85 11.75 Q7.95 12.25 7.5 12.45"/>
    <path stroke="none" fill="#fac49d" d="M17.2 4.15 L17 4 Q16 3.45 14.75 3.2 14.3 3 14.35 2.5 14.5 2 15 2.1 16.4 2.4 17.55 3.05 L17.85 3.2 Q18.2 3.55 17.95 4 17.8 4.25 17.5 4.25 L17.2 4.15 M12.1 1.75 Q12.6 1.8 12.65 2.3 12.6 2.85 12.05 2.9 L9.3 3 9.25 3 Q8.8 3 8.7 2.5 8.7 2 9.2 1.9 L12.1 1.75 M19.55 5.85 L19.8 7.5 19.8 7.65 19.5 9 19 9.35 18.75 9.3 Q18.3 9.05 18.45 8.55 L18.65 7.65 18.65 7.55 18.45 6.15 Q18.4 5.65 18.85 5.45 19.35 5.4 19.55 5.85 M7 2.8 Q7.1 3.3 6.6 3.5 5.15 3.9 4.25 4.6 L3.9 4.7 3.45 4.5 Q3.2 4.05 3.55 3.7 4.65 2.9 6.3 2.4 6.8 2.3 7 2.8 M3 7 Q3.05 8.05 3.6 8.9 3.8 9.4 3.4 9.7 L3.1 9.8 2.65 9.5 Q1.9 8.35 1.9 7 L1.95 6.45 Q2.05 5.95 2.55 5.95 3.05 6.05 3.05 6.6 L3 7"/>
    <path stroke="none" fill="#fac49d" d="M15.95 9.65 L16.8 9.85 Q17.3 9.85 17.35 10.4 17.35 10.9 16.85 10.95 L15.7 10.75 15.5 11.7 14.95 12.15 14.85 12.15 Q14.35 12 14.4 11.5 L14.7 10.25 Q14.75 9.9 15.1 9.75 L15.35 9.6 15.95 9.65"/>
    <path stroke="none" fill="#fac49d" d="M25.8 17.85 L25.55 17.8 Q25.1 17.5 25.3 17.05 25.8 15.95 25.95 14.6 26.1 14.1 26.6 14.1 27.1 14.25 27.1 14.75 L26.3 17.5 25.8 17.85 M24.55 19 Q24.8 19.45 24.4 19.8 L21.75 20.95 21.6 20.95 Q21.2 20.95 21.05 20.5 21 20 21.5 19.85 22.75 19.6 23.75 18.85 24.2 18.6 24.55 19 M18.8 20.95 Q17.25 20.6 16.15 19.6 15.8 19.25 16.1 18.8 16.5 18.45 16.9 18.8 17.8 19.55 19.05 19.85 19.55 20 19.45 20.5 19.35 20.95 18.9 20.95 L18.8 20.95 M14.15 14.25 Q14.2 13.75 14.7 13.7 15.2 13.75 15.25 14.25 15.3 15.6 15.65 16.75 15.75 17.25 15.3 17.45 L15.1 17.5 14.6 17.1 Q14.15 15.8 14.15 14.25"/>
    <path stroke="none" fill="#fac49d" d="M26.6 10.05 L26.7 10.55 27.05 11.95 Q27.1 12.45 26.6 12.55 L26.5 12.55 Q26.05 12.55 25.95 12.1 L25.65 10.85 24.9 10.9 Q24.4 10.8 24.35 10.3 24.4 9.8 24.95 9.75 L25.9 9.7 Q26.4 9.65 26.6 10.05"/>
    <path stroke="none" fill="#fac49d" d="M37.45 4.35 Q36.55 3.6 35.05 3.2 34.55 3.05 34.65 2.5 34.85 2.05 35.35 2.15 37.05 2.6 38.15 3.5 38.55 3.85 38.25 4.25 L37.8 4.5 37.45 4.35 M31.6 2.8 L29.45 3 29.4 3 Q28.95 2.95 28.85 2.5 28.8 2 29.3 1.9 L31.6 1.7 31.8 1.7 32.3 1.7 Q32.85 1.75 32.85 2.3 L32.3 2.85 31.8 2.8 31.6 2.8 M38.7 6.45 Q38.7 5.9 39.2 5.8 39.7 5.8 39.8 6.3 L39.85 6.8 Q39.8 8.3 38.95 9.45 L38.5 9.7 38.2 9.6 Q37.8 9.25 38.05 8.8 38.7 7.9 38.7 6.8 L38.7 6.45 M26.7 3.6 L24.1 4.6 23.8 4.7 Q23.5 4.7 23.3 4.4 23.1 3.95 23.55 3.65 24.9 2.95 26.4 2.55 26.9 2.45 27.1 2.95 27.15 3.45 26.7 3.6 M22.5 6.5 L22.35 7.4 Q22.4 8.2 22.8 8.75 23.05 9.2 22.7 9.55 L22.35 9.65 Q22.1 9.65 21.9 9.45 21.25 8.6 21.25 7.4 L21.45 6.15 Q21.65 5.65 22.15 5.8 22.65 5.95 22.5 6.5"/>
    <path stroke="none" fill="#fac49d" d="M35.15 9.6 L36 9.85 Q36.5 9.9 36.55 10.45 36.45 10.95 35.95 10.95 L35.05 10.8 34.5 11.95 34 12.25 33.75 12.2 Q33.35 11.95 33.5 11.45 L34.1 10.2 34.1 10.15 34.4 9.7 35.15 9.6"/>
    <path stroke="none" fill="#fac49d" d="M33.15 15.75 L32.9 17.25 Q32.8 17.7 32.35 17.75 L32.25 17.75 Q31.75 17.6 31.8 17.1 31.85 16.35 32.05 15.55 L32.4 14.2 Q32.6 13.7 33.1 13.85 33.55 14.05 33.45 14.55 L33.15 15.75 M31.5 20.6 L31.5 20.05 Q31.6 19.5 32.1 19.5 32.6 19.55 32.65 20.05 L32.65 20.6 32.7 22.1 32.75 22.85 Q32.8 23.4 32.25 23.5 L32.2 23.5 Q31.75 23.45 31.65 23 L31.6 22.2 31.5 20.6 M33.25 25.65 L33.95 28.4 Q34.05 28.9 33.55 29.1 L33.4 29.1 32.9 28.7 32.15 25.9 Q32.1 25.35 32.6 25.2 33.1 25.15 33.25 25.65 M34.8 31.15 L35.85 33.75 Q36 34.25 35.55 34.5 L35.3 34.55 34.8 34.2 33.75 31.5 Q33.6 31 34.1 30.8 34.55 30.65 34.8 31.15 M37.1 34.55 Q37.25 34.1 37.75 34.1 38.65 34.25 39.25 34.85 40.05 35.55 40.05 36.55 L40.05 36.6 39.5 37.15 39.45 37.15 Q38.95 37.1 38.9 36.55 38.9 36.05 38.5 35.65 L37.55 35.2 Q37.05 35.1 37.1 34.55 M22.85 35.3 Q23.2 35.65 22.9 36.05 22.4 36.7 22.35 37.45 L22.5 38.2 Q22.7 38.7 22.2 38.95 L22 38.95 21.5 38.6 21.25 37.45 Q21.25 36.3 22.05 35.35 L22.85 35.3 M27.05 40.1 Q27.55 40.2 27.55 40.75 L27 41.25 26.9 41.25 26.3 41.15 26.15 41.15 24 40.75 Q23.5 40.5 23.6 40 23.8 39.55 24.3 39.65 L26.3 40 26.45 40.05 27.05 40.1 M38.45 39.45 Q37.35 40.45 35.75 40.9 L35.6 40.95 35.05 40.55 Q34.95 40.05 35.4 39.85 36.8 39.4 37.7 38.6 L38.5 38.65 Q38.8 39.05 38.45 39.45 M31.1 40.3 L32.7 40.25 Q33.2 40.3 33.3 40.8 33.3 41.3 32.75 41.4 L31.1 41.45 30.95 41.45 29.85 41.4 Q29.35 41.35 29.3 40.85 29.35 40.35 29.85 40.3 L30.95 40.3 31.1 40.3"/>
  </g>
</svg>