<svg width="23.95px" height="44.3px" viewBox="0 0 23.95 44.3" xmlns="http://www.w3.org/2000/svg" xmlns:xlink="http://www.w3.org/1999/xlink">
  <defs/>
  <g>
    <path stroke="none" fill="#7279b8" d="M22.5 10.4 Q20.65 12.7 17.75 12.65 L17.7 12.65 Q16.95 17.35 16.8 22.7 16.55 27.5 17.5 32.55 L17.6 32.55 17.65 32.8 Q20.75 33.15 21.95 35.85 23.05 40.2 19.2 42.9 16.2 44.5 13.8 44.25 L11.1 44.1 10.25 44.05 9.75 44 Q5.7 44.2 1.85 41.6 -1.35 38.4 1 34.65 2.6 32.6 5.3 32.55 L5.6 32.55 6.55 28.6 6.8 26.8 Q7.2 24.25 7.2 21.85 L7.15 20.25 Q7.3 16.2 6.15 12.9 L5.45 12.9 Q2.55 12.9 1.05 10.4 -1.05 6.2 2.85 3 5.3 1.45 7.85 1.05 L12.7 0.15 14.8 0 Q20.05 0.05 22.85 3.55 25.2 6.8 22.5 10.4"/>
    <path stroke="none" fill="#5f7ba6" d="M15.85 10.65 Q14.7 16.7 14.55 22.85 14.2 29 15.8 34.9 15.85 35.05 16 35 L16.2 35.15 Q18.7 34.6 19.9 36.75 20.35 39.45 18 41 14.4 42.6 10.4 41.8 6.5 42 3.35 39.95 1.5 38.15 2.8 36 4.5 34.15 6.8 35.15 L7.05 35.05 7.1 34.95 Q8.35 32 8.8 28.85 L9.45 21.8 Q9.95 15.85 7.45 10.6 7.55 10.35 7.25 10.35 4.6 11.45 2.95 9.25 1.75 6.55 4.15 4.8 6.05 3.6 8.3 3.25 L13.05 2.4 Q17.8 1.5 21.1 4.95 22.45 7.15 20.75 9.25 18.95 11.4 16.3 10.5 L16.1 10.55 Q15.9 10.5 15.85 10.65"/>
    <path stroke="none" fill="#7dc8e8" d="M3.5 35.25 L4.55 34.6 Q5.75 33.85 5.7 34.05 L5.85 34.15 Q6.65 33.85 3.7 36.95 L2.55 38.2 8.3 34.75 14.65 30.95 Q16.1 30.15 16.15 30.3 L16.3 30.45 Q16.65 30.55 15.7 31.4 L9.95 35.6 6.35 38.25 9.15 36.55 14.35 33.45 Q15.55 32.8 15.6 32.9 L15.75 33.05 Q16.05 33.15 15.3 33.85 L10.8 37.35 8.5 39.1 10.35 38 Q15.45 34.8 15 35.4 L15.15 35.5 Q15.45 35.6 14.75 36.25 L10.95 39.5 8.9 41.15 Q10.15 40.4 11.5 39.55 L16.45 36.6 Q17.6 36 17.65 36.1 L17.85 36.25 Q18.8 35.9 15 39.35 L13.1 41.1 16.85 38.85 20.9 36.45 21.65 36.15 21.85 36.3 Q22.75 35.95 19.15 39.2 L17.35 40.85 17.4 40.85 17.6 41 17.5 41.35 17.4 41.4 16.8 41.8 15.85 42.25 15.65 42.1 Q14.65 42.5 18.75 38.75 L20.05 37.6 17.15 39.3 12.65 42 11.7 42.4 11.5 42.25 Q10.5 42.65 14.6 38.9 L16.3 37.35 11.8 40.05 Q6.45 43.35 6.9 42.9 L6.8 42.85 6.65 42.75 Q6.4 42.65 7 42.05 L10.55 39.05 13.1 36.95 10.65 38.45 Q5.6 41.6 6.1 41 L5.9 40.9 Q5.6 40.75 6.3 40.15 L10.45 36.9 13.5 34.55 9.45 37 4.7 39.85 3.7 40.25 3.55 40.1 Q3.2 40 4.15 39.2 L9.65 35.15 14 31.95 8.6 35.25 2.75 38.7 1.45 39.3 1.25 39.15 Q0.55 39.45 3.3 36.55 L4.35 35.35 3.5 35.8 3.3 35.65 Q3.2 35.4 3.4 35.25 L3.5 35.25"/>
    <path stroke="none" fill="#7dc8e8" d="M17.8 9.3 Q21.75 6.95 21.2 7.45 L21.35 7.6 Q21.5 7.85 21.25 8 L21.15 8 18.1 9.8 15.25 11.45 15.15 11.4 15 11.3 Q14.9 11.05 15.1 10.9 L15.2 10.85 17.8 9.3"/>
    <path stroke="none" fill="#7dc8e8" d="M11.05 3.2 Q12.15 2.75 7.7 6.65 L6.25 8 9.25 6.1 Q15.25 2.35 14.85 3 L15.05 3.1 Q15.3 3.25 14.65 3.8 L10.85 6.85 8.6 8.6 11.95 6.55 16.05 4.05 17.05 3.65 17.2 3.8 Q17.5 3.9 16.75 4.55 L12.3 8 9.15 10.4 14.05 7.45 18.75 4.6 19.75 4.2 19.9 4.35 Q20.25 4.45 19.4 5.15 L14.55 8.8 10.05 12.2 16 8.65 21.25 5.5 Q22.35 4.9 22.35 5.05 L22.5 5.2 Q22.9 5.25 21.75 6.2 L14.85 11.1 12.95 12.45 Q16.6 10.2 16.2 10.7 16.3 10.7 16.4 10.85 16.65 10.95 16 11.55 L12.15 14.85 10.3 16.35 11.15 15.8 Q14.95 13.5 14.4 14.05 L14.6 14.15 Q15.15 13.95 13.05 16.35 L12.1 17.45 12.25 17.35 Q14.05 16.2 14 16.45 L14.2 16.55 Q15 16.2 11.75 19.55 L10.8 20.5 11.4 20.15 Q14.4 18.3 14.05 18.75 L14.2 18.85 Q15.2 18.45 11.25 22.25 L10.25 23.25 12.3 22 15.5 20.1 16.15 19.85 16.3 20 Q16.55 20.1 15.95 20.7 L12.3 23.7 10.8 24.9 Q13.95 23 13.55 23.4 L13.7 23.55 Q14.5 23.2 11.4 26.55 L10.6 27.4 11.75 26.7 Q14.5 25 14.15 25.4 L14.35 25.55 Q15.35 25.15 11.25 28.75 L9.6 30.25 11.2 29.3 Q15.35 26.75 14.75 27.3 L14.95 27.45 Q15.95 27.1 11.75 30.65 L10.55 31.8 10.75 31.6 Q14.25 29.4 13.9 29.9 L14.1 30 14 30.4 13.85 30.45 Q13 30.85 11.05 32.1 L8.5 33.55 8.4 33.55 8.2 33.4 Q7.2 33.75 11.4 30.25 L12.85 28.95 11.5 29.75 Q7.3 32.35 7.9 31.75 L7.7 31.6 Q6.7 32 10.85 28.35 L12.35 27 12.05 27.2 Q9.05 29.05 9.35 28.65 L9.2 28.5 Q8.55 28.75 11 26.15 L12.4 24.6 10.8 25.55 Q7.9 27.35 8.25 26.95 L8.05 26.8 Q7.8 26.7 8.4 26.15 L11.9 23.3 13.85 21.75 12.55 22.5 9.35 24.4 8.75 24.6 8.55 24.5 Q7.8 24.75 10.85 21.85 L12.7 20.05 11.7 20.65 9.45 21.85 9.25 21.75 Q8.5 22 11.35 19.15 L12.7 17.75 12.55 17.85 Q10.9 18.9 10.95 18.65 L10.8 18.55 Q10.1 18.8 12.6 16 L13.3 15.2 11.45 16.3 Q7.65 18.65 8.15 18.1 L7.95 18 Q7.7 17.9 8.3 17.3 L11.75 14.4 14.35 12.25 12.45 13.45 9.25 15.35 8.6 15.55 8.45 15.4 Q8.1 15.3 9.05 14.55 L14.55 10.65 19.5 7.15 16.25 9.15 9.8 13 Q8.25 13.85 8.2 13.7 L8 13.55 Q7.65 13.45 8.6 12.6 L14.25 8.35 17.05 6.3 14.35 7.9 8.6 11.35 7.1 12 6.9 11.85 Q6.6 11.75 7.4 11.1 L11.95 7.55 14.55 5.6 12.25 7 Q6.1 10.85 6.55 10.2 L6.35 10.1 Q6.1 9.95 6.75 9.4 L10.5 6.4 12.8 4.6 Q11.2 5.55 9.55 6.6 4.15 9.95 4.65 9.35 L4.45 9.25 Q3.5 9.55 7.3 6.25 L9.25 4.5 7.8 5.4 Q3.85 7.9 4.1 7.45 L3.9 7.3 Q3.25 7.55 5.6 4.9 L6.25 4.1 5.8 4.4 Q3.95 5.55 4.1 5.3 L3.95 5.15 Q3.85 4.9 4.05 4.75 L4.15 4.75 5.5 3.9 Q7.65 2.6 7.4 2.9 L7.6 3.05 Q8.15 2.8 6.05 5.25 L5.05 6.45 7.5 4.9 Q11.1 2.6 10.85 3.05 L11.05 3.2"/>
    <path stroke="none" fill="#fac49d" d="M16.55 9.95 L17.6 10.2 Q18.1 10.3 18.1 10.8 18.05 11.3 17.5 11.35 L16.35 11.1 16.2 11.95 15.65 12.4 15.55 12.4 Q15.05 12.25 15.1 11.75 L15.35 10.55 Q15.4 10.2 15.7 10.05 L15.95 9.95 16.55 9.95"/>
    <path stroke="none" fill="#fac49d" d="M14.8 18.65 Q14.3 18.55 14.3 18.05 L14.6 14.9 Q14.75 14.4 15.25 14.4 15.75 14.5 15.75 15.05 L15.4 18.15 Q15.3 18.6 14.85 18.65 L14.8 18.65 M14.55 24.9 Q14.05 24.85 14 24.35 L14 22.85 14.1 21.2 Q14.15 20.7 14.65 20.65 15.2 20.75 15.2 21.25 L15.15 22.9 15.1 24.35 Q15.1 24.9 14.55 24.9 M14.3 30.7 Q14.1 29.25 14.05 27.55 14.05 27 14.6 26.95 15.1 26.95 15.15 27.5 L15.45 30.55 Q15.45 31.05 14.95 31.2 L14.85 31.2 Q14.4 31.15 14.3 30.7"/>
    <path stroke="none" fill="#fac49d" d="M18 35.1 Q17.9 35.6 17.4 35.6 L16.35 35.7 16.2 35.75 15.7 35.55 15.25 35.05 14.9 33.85 Q14.85 33.35 15.3 33.15 15.85 33.1 16 33.55 L16.3 34.55 17.5 34.5 Q18 34.6 18 35.1"/>
    <path stroke="none" fill="#fac49d" d="M3.95 34.45 Q4.45 34.35 4.7 34.8 4.8 35.3 4.35 35.5 3.7 35.75 3.25 36.3 L2.85 37.2 Q2.75 37.65 2.3 37.7 L2.2 37.65 Q1.7 37.55 1.75 37 1.9 36.25 2.35 35.65 3 34.8 3.95 34.45 M9.9 17.65 Q9.9 18.2 9.35 18.25 8.85 18.2 8.8 17.7 L8.5 14.85 Q8.45 14.35 8.95 14.2 9.45 14.15 9.6 14.65 L9.9 17.65 M8.85 20.65 Q8.9 20.15 9.4 20.1 9.95 20.15 10 20.65 L10 21.8 10 22.3 9.95 23.65 Q9.9 24.1 9.4 24.15 L9.35 24.15 Q8.85 24.1 8.85 23.55 L8.9 22.3 8.9 21.8 8.85 20.65 M9.35 28.9 L9.3 29.55 8.75 30 8.65 30 Q8.15 29.9 8.15 29.35 L8.25 28.75 8.45 27 8.55 26.45 Q8.65 25.95 9.2 25.95 9.65 26.1 9.65 26.6 L9.6 27.15 9.35 28.9 M8.2 31.8 Q8.7 32 8.6 32.5 L7.65 35.15 7.45 35.45 7 35.65 6.65 35.5 Q6.3 35.15 6.6 34.75 L6.65 34.65 7.5 32.15 Q7.7 31.7 8.2 31.8 M19.4 36.95 L19.35 36.8 Q19.15 36.3 19.6 36.05 20.05 35.85 20.35 36.3 L20.45 36.5 20.65 37.6 Q20.65 38.6 20.05 39.65 L19.55 39.9 19.25 39.85 Q18.85 39.55 19.05 39.05 19.55 38.3 19.55 37.6 L19.4 36.95 M14.6 42.55 Q14.1 42.5 14 42 14.05 41.5 14.55 41.45 16.15 41.35 17.2 40.85 17.65 40.65 17.95 41.1 18.1 41.55 17.7 41.85 16.4 42.45 14.6 42.55 M11.65 41.35 Q12.2 41.45 12.2 41.95 12.1 42.4 11.65 42.45 L11.25 42.45 10.4 42.35 9.85 42.35 8.65 42.25 Q8.15 42.15 8.15 41.65 8.2 41.1 8.75 41.1 L9.95 41.2 10.45 41.25 11.35 41.3 11.65 41.35 M5.6 41.75 Q4.05 41.25 2.95 40.35 L2.8 40.2 Q2.5 39.8 2.8 39.4 3.2 39.1 3.6 39.4 L3.7 39.5 Q4.6 40.25 5.95 40.65 6.4 40.85 6.3 41.35 6.2 41.75 5.8 41.75 L5.6 41.75"/>
    <path stroke="none" fill="#fac49d" d="M7.9 10.05 L8.05 10.5 8.75 11.7 Q8.9 12.2 8.45 12.45 L8.2 12.5 7.7 12.2 7.1 11.05 6.35 11.2 Q5.85 11.25 5.7 10.75 5.65 10.2 6.15 10.1 L7.1 9.85 Q7.55 9.7 7.9 10.05"/>
    <path stroke="none" fill="#fac49d" d="M13.15 2.95 L11.15 3.25 11.05 3.25 Q10.6 3.25 10.5 2.8 10.45 2.3 10.95 2.15 L13 1.8 14.2 1.7 Q14.7 1.7 14.8 2.25 L14.25 2.8 13.15 2.95 M8.45 3.2 Q8.5 3.75 8 3.9 6.6 4.15 5.15 4.9 L4.85 4.95 4.35 4.65 Q4.15 4.2 4.6 3.9 6.2 3.1 7.75 2.8 8.25 2.7 8.45 3.2 M21.75 6.15 Q22.25 6.2 22.3 6.75 22.3 8.15 21.2 9.6 L20.85 10 20.45 10.15 20.05 10 Q19.75 9.6 20.05 9.2 L20.35 8.9 Q21.15 7.8 21.2 6.75 21.2 6.2 21.75 6.15 M19.9 4.45 Q18.8 3.5 17.25 3.1 16.8 2.95 16.85 2.4 17.05 1.95 17.55 2 19.35 2.5 20.6 3.6 20.95 3.95 20.65 4.35 20.5 4.55 20.25 4.55 L19.9 4.45 M2.9 6.2 Q3.4 6.4 3.25 6.9 L3.1 7.7 Q3.15 8.35 3.5 8.95 L3.75 9.35 Q4.05 9.75 3.7 10.15 L3.35 10.3 2.9 10.1 2.5 9.5 Q2 8.65 2 7.7 L2.2 6.55 Q2.4 6.05 2.9 6.2"/>
  </g>
</svg>