<svg width="32.15px" height="42.1px" viewBox="0 0 32.15 42.1" xmlns="http://www.w3.org/2000/svg" xmlns:xlink="http://www.w3.org/1999/xlink">
  <defs/>
  <g>
    <path stroke="none" fill="#7279b8" d="M28.25 11.6 L28.45 18.75 28.45 20.85 Q28.6 24.4 28.2 28.1 L28.15 28.6 28.05 28.7 Q26.3 35.8 19.15 40.1 L19.1 40.2 18.45 40.5 Q15 42.05 11.15 42.1 4.15 42 1.2 37.05 -0.3 34.4 0.1 31.3 0.45 28.15 3 26.25 4.4 25.35 6.1 25.3 9.4 25.45 11.1 28.25 12.25 30.3 12.5 32.5 L12.65 32.5 13.15 32.55 14.55 32.2 Q16.9 30.3 16.75 27.75 17 23.3 16.75 18.75 L16.75 17.95 Q16.75 14.75 16.1 11.85 L14.65 11.95 Q12.4 11.95 10.9 10.75 8.15 7.75 10.05 4.3 13.55 -0.1 18.8 0.1 L21.45 0 23.15 0.05 Q26.15 -0.1 29.2 1.15 32.55 2.95 32.1 7.1 31.4 10.5 28.25 11.6"/>
    <path stroke="none" fill="#5f7ba6" d="M28.25 3.15 Q30.25 4.4 29.9 6.8 29.15 9.75 26.15 9.55 25.9 9.35 25.85 9.65 26.2 14.2 26.2 18.8 26.4 23.3 26 27.8 L25.95 27.85 Q24.1 34.95 17.6 38.4 L17.5 38.5 Q13.95 40.1 9.7 39.75 5.45 39.45 3.15 35.95 0.85 31.5 4.25 28.15 7.25 26.6 9.15 29.35 10.35 31.35 10.3 33.7 L10.3 33.95 Q11.15 34.75 12.4 34.75 14.05 34.95 15.55 34.2 18.95 32.05 19 27.95 19.25 22.9 19 17.85 19.15 13.55 17.65 9.55 L17.45 9.45 17.25 9.4 Q14.6 10.25 12.3 9 10.95 7.35 12.05 5.4 14.65 2.2 18.95 2.35 21.05 2.2 23.1 2.3 25.8 2.2 28.25 3.15"/>
    <path stroke="none" fill="#7dc8e8" d="M9.85 29.7 Q10.85 29.35 6.7 32.95 L5.45 34.05 6.15 33.6 Q9.4 31.6 9.05 32.05 L9.25 32.15 Q10.3 31.75 5.9 35.6 L4.45 36.9 5.3 36.4 Q9.55 33.8 8.95 34.4 L9.15 34.5 Q9.7 34.25 7.6 36.8 L6.6 38.05 10.15 35.95 13.65 33.85 14.35 33.6 14.5 33.75 Q15.5 33.35 11.55 36.8 L9.3 38.8 15.85 34.9 22.4 30.95 Q23.9 30.15 23.95 30.3 L24.1 30.45 Q24.45 30.55 23.45 31.35 L17.7 35.45 13.45 38.45 16.3 36.7 21.4 33.6 Q22.6 32.95 22.65 33.1 L22.85 33.25 Q23.7 32.95 20.4 35.95 L19.2 37.1 19.35 37.25 19.25 37.6 19.15 37.65 18.55 38.05 17.75 38.4 17.55 38.3 Q16.7 38.55 20 35.55 L21.35 34.3 16.6 37.15 Q10.3 41.05 10.7 40.55 L10.6 40.55 10.45 40.4 Q10.05 40.3 11.15 39.45 L17.35 35 21.2 32.3 16.1 35.35 9.5 39.35 Q8 40.2 7.9 40.05 L7.75 39.9 Q6.6 40.35 11.2 36.35 L12.55 35.15 10.4 36.45 6.45 38.75 Q5.65 39.2 5.65 39.1 L5.45 38.95 Q4.85 39.25 7.15 36.45 L7.95 35.45 5.6 36.85 2.6 38.5 2.4 38.4 Q1.4 38.75 5.5 35.2 L7.35 33.55 6.45 34.1 Q3.3 36.05 3.65 35.65 L3.45 35.5 Q2.5 35.85 6.35 32.5 L8 31.05 6.05 32.2 Q2 34.7 2.55 34.15 L2.4 34 Q1.3 34.4 5.75 30.6 L7.75 28.9 5.35 30.35 2 32.3 1.35 32.55 1.15 32.45 Q0.3 32.75 3.6 29.6 L4.9 28.25 4.15 28.6 4 28.45 Q3.85 28.25 4.1 28.1 L4.15 28.05 5.25 27.4 6.45 26.8 6.6 26.95 Q7.5 26.6 4 30 L2.75 31.25 5.05 29.85 8.75 27.65 Q9.45 27.3 9.45 27.4 L9.6 27.55 Q10.75 27.1 6.1 31.05 L4.4 32.55 5.75 31.7 9 29.8 9.65 29.55 9.85 29.7"/>
    <path stroke="none" fill="#7dc8e8" d="M24.9 10.45 L24.75 10.3 Q24.65 10.05 24.85 9.9 L24.95 9.9 26.8 8.8 Q29.6 7.05 29.25 7.45 L29.4 7.6 29.3 8 29.2 8 27.05 9.25 25 10.45 24.9 10.45"/>
    <path stroke="none" fill="#7dc8e8" d="M30.1 5.7 L23.85 10.2 22 11.55 Q26.75 8.6 26.2 9.25 L26.35 9.35 Q26.65 9.45 25.95 10.15 L21.9 13.5 19.85 15.15 21.25 14.3 Q25.6 11.65 25 12.25 L25.15 12.35 Q25.9 12.1 23.1 14.85 L21.85 16.15 22.5 15.75 24.95 14.4 25.15 14.55 Q26.2 14.1 21.95 17.95 L20.7 19.15 21.75 18.5 Q25.8 16 25.35 16.5 L25.5 16.65 Q25.75 16.75 25.15 17.35 L21.6 20.55 20.25 21.8 22.85 20.2 26.85 17.85 Q27.6 17.45 27.6 17.55 L27.75 17.7 Q28.05 17.8 27.3 18.45 L22.95 21.85 21.1 23.25 21.2 23.2 Q25.65 20.5 25.1 21.05 L25.3 21.2 Q26.3 20.75 22.15 24.65 L21.05 25.7 22.7 24.7 Q26.15 22.55 25.8 23 L25.95 23.15 Q26.2 23.25 25.65 23.8 L22.25 26.7 20.15 28.45 22.15 27.25 25.6 25.2 Q26.25 24.85 26.3 24.95 L26.45 25.1 Q26.7 25.2 26.1 25.8 L22.5 28.75 20.9 30.1 21.35 29.8 Q25.45 27.25 25.1 27.7 L25.3 27.85 25.2 28.25 25.05 28.25 Q24 28.8 21.6 30.3 L18.5 32.05 18.45 32.05 18.25 31.9 Q18 31.8 18.6 31.2 L22.15 28.3 24.1 26.75 22.45 27.75 18.95 29.8 Q18.25 30.2 18.25 30.05 L18.1 29.95 Q17.85 29.85 18.4 29.25 L21.9 26.3 23.75 24.7 23 25.2 19.5 27.1 19.35 26.95 Q18.5 27.25 21.75 24.25 L23.75 22.3 21.5 23.7 Q17.65 26.05 18.15 25.55 L18 25.4 Q17.7 25.3 18.45 24.65 L22.6 21.4 25.05 19.55 23.15 20.7 19.2 23.05 18.45 23.35 18.25 23.2 Q17.25 23.55 21.25 20.15 L23.75 17.95 22.05 18.95 19 20.65 18.85 20.5 Q17.9 20.85 21.55 17.55 L23.45 15.8 22.8 16.25 Q20.3 17.8 20.5 17.45 L20.35 17.35 Q19.5 17.65 22.7 14.45 L23.65 13.5 21.55 14.8 18.35 16.7 17.7 16.9 17.5 16.8 Q17.25 16.65 17.9 16.1 L21.55 13.05 24.25 10.85 22.2 12.1 Q17.65 14.9 18.2 14.3 L18.05 14.15 Q17.75 14.05 18.6 13.35 L23.55 9.75 27.85 6.65 25.15 8.3 19.35 11.75 Q17.95 12.55 17.85 12.4 L17.7 12.25 Q17.35 12.15 18.25 11.4 L23.25 7.45 25.7 5.6 Q24.6 6.25 23.45 7 L18.3 10.05 16.95 10.6 16.8 10.45 Q16.55 10.35 17.15 9.75 17.8 9.15 20.95 6.7 L23 5 20.85 6.35 Q15.25 9.85 15.7 9.25 L15.5 9.1 Q14.4 9.45 18.9 5.85 L20.65 4.35 17.85 6.1 Q13.05 9.1 13.5 8.55 L13.3 8.4 Q12.45 8.75 15.75 5.65 L17.35 4.1 16.2 4.85 Q12.8 7.05 13 6.6 L12.8 6.5 Q12.15 6.75 14.5 4.05 L15.15 3.3 14.8 3.5 Q13.05 4.6 13.2 4.35 L13.05 4.2 Q12.95 3.95 13.15 3.8 L13.2 3.8 14.55 3 Q16.55 1.75 16.35 2.05 L16.5 2.2 Q17.1 1.95 14.95 4.4 L13.95 5.55 15.9 4.35 Q19 2.35 18.8 2.75 L19 2.9 Q19.95 2.5 16.15 6.1 L14.9 7.25 17.55 5.65 Q22.9 2.3 22.45 2.9 L22.65 3 Q23.75 2.65 19.25 6.3 L17.5 7.75 20.55 5.85 Q25.6 2.7 25.15 3.3 L25.35 3.4 Q25.6 3.55 24.95 4.1 L21.3 7.1 18.8 9.1 23.15 6.5 27.35 4 Q28.2 3.5 28.2 3.65 L28.4 3.75 Q28.7 3.85 27.95 4.55 L23.6 7.9 19.7 10.9 24.85 7.8 29.65 4.95 Q30.6 4.45 30.6 4.55 L30.8 4.7 Q31.15 4.8 30.1 5.7"/>
    <path stroke="none" fill="#fac49d" d="M10.75 32.1 L10.9 33.75 11.5 34 Q11.95 34.2 11.85 34.7 L11.35 35.1 11.2 35.1 Q10.3 34.85 9.85 34.3 L9.7 33.75 9.75 33.5 9.65 32.3 Q9.6 31.8 10.1 31.65 10.65 31.6 10.75 32.1"/>
    <path stroke="none" fill="#fac49d" d="M19.5 17.05 Q19.5 17.6 18.95 17.65 18.45 17.6 18.4 17.1 L18.15 13.95 Q18.15 13.4 18.65 13.3 19.2 13.3 19.3 13.8 L19.5 17.05 M18.5 20.35 Q18.5 19.85 19.05 19.75 19.55 19.8 19.6 20.3 L19.7 23.55 Q19.65 24.1 19.1 24.15 18.6 24.1 18.55 23.55 L18.5 20.35 M19.6 26.85 L19.55 27.95 19.2 30.15 18.65 30.6 18.5 30.55 Q18.05 30.4 18.1 29.85 L18.45 27.9 18.5 26.8 Q18.55 26.25 19.1 26.25 19.6 26.3 19.6 26.85 M14.65 35.15 L14.5 35.15 13.95 34.75 Q13.9 34.2 14.35 34.05 L15.3 33.7 16.8 32.5 17.6 32.45 Q17.95 32.85 17.65 33.25 L15.8 34.7 14.65 35.15"/>
    <path stroke="none" fill="#fac49d" d="M15.9 9.05 L16.9 8.85 17.15 8.8 17.55 8.85 17.75 8.9 18.15 9.3 18.6 10.5 Q18.7 11 18.25 11.2 L18.05 11.25 17.55 10.85 17.2 9.95 17.1 9.95 16.05 10.15 Q15.55 10.15 15.4 9.65 15.4 9.15 15.9 9.05"/>
    <path stroke="none" fill="#fac49d" d="M27.6 3.4 L27.4 3.4 24.55 2.85 Q24.05 2.8 24.05 2.25 24.15 1.75 24.65 1.75 26.5 1.9 27.75 2.35 28.25 2.55 28.1 3.05 L27.6 3.4 M29.2 5 Q29.1 4.5 29.55 4.3 30.05 4.2 30.25 4.65 L30.5 6.1 30.45 6.85 30.05 8.05 29.55 8.35 29.25 8.3 Q28.85 8 29.05 7.5 L29.35 6.65 29.4 6.1 29.2 5 M21.55 2.75 L21.45 2.75 19 2.85 18.6 2.9 18.5 2.9 Q18.05 2.85 17.95 2.4 17.95 1.85 18.45 1.8 L18.9 1.75 21.45 1.65 21.55 1.65 Q22.1 1.7 22.1 2.2 22.05 2.75 21.55 2.75 M25.3 9.65 L25.3 9.6 Q25.35 8.9 26 8.85 L26.4 8.95 27.1 9 Q27.6 8.95 27.75 9.45 27.75 9.95 27.25 10.1 L26.45 10.1 26.55 11.1 Q26.5 11.65 26 11.7 L25.95 11.7 Q25.5 11.7 25.4 11.2 L25.3 9.65 M12.45 4.65 Q12.15 4.25 12.5 3.85 13.55 2.85 15.35 2.3 15.9 2.25 16.05 2.7 16.15 3.2 15.7 3.4 14.1 3.85 13.25 4.7 L12.85 4.85 Q12.65 4.85 12.45 4.65 M12.1 7.2 Q12.1 8.1 12.65 8.55 L13.2 8.85 Q13.65 9.1 13.5 9.6 L13 9.95 12.75 9.9 11.95 9.4 Q11 8.65 11 7.2 L11 6.9 Q11.1 6.4 11.6 6.4 12.1 6.45 12.1 7 L12.1 7.2 M9.65 29 L9.7 29.3 Q9.7 29.8 9.15 29.85 8.8 29.85 8.65 29.55 8 28.4 6.65 28.15 6.15 28 6.2 27.5 6.35 27 6.85 27.05 8.7 27.4 9.65 29 M3.55 27.9 L4.35 28 Q4.65 28.4 4.3 28.8 3.3 29.6 2.95 31.05 2.85 31.45 2.4 31.5 L2.3 31.5 Q1.8 31.3 1.85 30.8 2.3 29 3.55 27.9 M2.3 33.4 Q2.8 33.35 2.95 33.85 L3.65 35.65 4.1 36.35 Q4.4 36.8 4 37.15 L3.65 37.25 Q3.4 37.25 3.25 37.05 L2.65 36.2 Q2.1 35.25 1.85 34.05 1.8 33.55 2.3 33.4 M20.6 37.05 Q19.4 38 18 38.8 L17.75 38.85 17.25 38.55 Q17 38.1 17.45 37.8 L19.9 36.15 20.7 36.25 Q20.95 36.7 20.6 37.05 M26.2 17.8 Q25.65 17.75 25.6 17.25 L25.55 14.2 Q25.6 13.7 26.1 13.65 26.6 13.65 26.7 14.2 L26.75 17.25 26.2 17.8 M25.65 20.85 L25.65 20.3 Q25.7 19.8 26.2 19.7 26.7 19.8 26.75 20.3 L26.8 20.85 26.8 23.3 Q26.75 23.85 26.25 23.9 25.75 23.85 25.7 23.35 L25.65 20.85 M26.55 27.85 L26.5 28 26.1 29.5 25.55 29.9 25.4 29.85 Q24.9 29.65 25.05 29.15 L25.4 27.7 25.45 27.65 25.45 27.6 25.6 26.3 Q25.65 25.8 26.2 25.8 26.7 25.9 26.7 26.4 L26.55 27.85 M22.9 34.9 L22.5 35.1 22.1 34.95 Q21.75 34.55 22.05 34.15 L23.8 31.8 Q24.1 31.4 24.6 31.6 25 31.9 24.75 32.4 L22.9 34.9 M14.75 38.8 Q15.25 38.7 15.45 39.2 15.5 39.7 15 39.9 L11.9 40.35 Q11.4 40.3 11.3 39.8 11.35 39.3 11.85 39.25 L14.75 38.8 M8.95 39.05 Q9.45 39.2 9.4 39.7 L8.85 40.15 8.75 40.15 Q7.05 39.85 5.7 39.15 5.3 38.85 5.5 38.35 5.75 37.95 6.25 38.15 7.45 38.8 8.95 39.05"/>
  </g>
</svg>