<svg width="40.05px" height="42.85px" viewBox="0 0 40.05 42.85" xmlns="http://www.w3.org/2000/svg" xmlns:xlink="http://www.w3.org/1999/xlink">
  <defs/>
  <g>
    <path stroke="none" fill="#7279b8" d="M35.65 0.95 Q38.25 1.85 39.45 5.15 40 8.15 38.35 10.35 36.9 12.15 34.95 12.15 L33.35 11.85 32.55 12.1 Q30.45 13.15 28.8 14.75 27.7 15.8 26.8 17.25 L26.7 17.4 26.1 18.6 26.7 19.1 27.65 19.9 Q29.2 21.6 29.95 23.4 L30.35 24.3 31.7 27.1 32.35 28.5 33.3 30.25 33.8 31.15 34.6 31.1 Q37.95 31.4 38.95 32.75 41 35.15 39.25 38.6 37.85 41.1 35 42.15 33 42.85 30.45 42.85 L25.85 42.35 Q21.35 41.45 20.75 38.05 L20.7 37.55 20.15 39.1 Q18.5 41.65 15.9 42.25 L11.55 42.75 11.05 42.75 Q6.7 43.2 2.45 40.05 -0.55 36.8 2.05 33 2.85 31.85 5.3 31.6 L5.4 31.6 Q6.6 27 6.3 22.25 6.3 17.25 5.3 11.95 L4.55 12 Q2.75 12 1.45 10.7 -1.55 7.25 1.65 3.5 6.2 0.05 10.9 0.6 L11 0.6 Q15.3 0.05 19.45 2.55 L20.55 3.75 21.7 2.55 Q24.65 0 29.7 0 L31.35 0.05 Q33.05 0.05 35.65 0.95 M20 10.05 Q18.8 11.45 16.8 11.9 15.95 14.85 16.7 17.55 18.7 16.5 19.85 15.15 L22.15 12.4 22.55 11.75 Q21 11.35 20 10.05 M17.05 31.95 Q19.05 32.3 20.15 34.1 20.8 35.3 20.8 36.7 21.5 34.65 23 33.6 23.3 30.5 21.75 28.25 20.6 26.65 19.3 25.95 L17.4 25.55 17.3 25.9 16.9 25.85 16.7 28.4 Q16.65 30.4 17.05 31.95"/>
    <path stroke="none" fill="#5f7ba6" d="M36.5 9.05 Q35.4 10.65 33.75 9.45 L33.6 9.45 33.4 9.35 Q29.9 10.6 27.25 13.15 25.85 14.5 24.9 16.1 23.8 17.5 23.85 19.2 24.65 20.6 26.1 21.55 27.55 23.25 28.4 25.35 L30.3 29.45 32.4 33.35 32.5 33.45 Q32.55 33.6 32.75 33.6 35.3 32.85 37.3 34.35 38.3 35.9 37.3 37.55 36.2 39.35 34.25 40.05 30.3 41.1 26.3 40.2 23.8 39.9 22.95 37.75 23.3 35.8 25.1 34.85 L25.15 34.55 Q25.9 30.4 23.55 26.9 22.3 25.15 20.45 24 18.25 23.1 15.8 23.35 15.65 23.35 15.6 23.45 15.5 23.45 15.45 23.55 14.3 25.8 14.5 28.4 14.3 31.3 15.35 33.95 15.3 34.25 15.6 34.25 17.4 33.9 18.15 35.15 18.95 36.45 18.2 38 15.6 41 11.5 40.5 7.3 40.95 4.05 38.5 2.3 36.65 3.7 34.65 5 33.7 6.65 34.25 L6.85 34.1 6.95 34 Q9 28.35 8.55 22.3 8.6 15.9 7.05 9.7 L6.95 9.6 6.8 9.5 Q4.75 10.25 3.05 9.15 1.4 7 3.25 5 6.65 2.4 11 2.7 14.85 2.35 18.05 4.25 19.65 5.85 18.75 7.95 17.6 9.85 15.35 9.85 L15.3 9.85 15.1 9.95 Q13.05 14.85 15.2 19.6 L15.3 19.7 15.45 19.95 Q19.05 19.7 21.45 16.75 L24 13.65 Q25.1 11.8 25.7 9.8 L25.6 9.6 25.4 9.35 Q23.2 10.3 21.7 8.6 20.75 6 23.2 4.25 26.75 1.7 31.2 2.3 35.6 2.1 37.3 5.8 37.65 7.45 36.5 9.05"/>
    <path stroke="none" fill="#7dc8e8" d="M14.5 31.05 L9.55 34.9 5.9 37.65 8.2 36.25 Q14 32.6 13.5 33.25 L13.7 33.4 Q14.75 33 10.3 36.75 L8.1 38.65 10.55 37.15 14.75 34.65 15.8 34.2 16 34.35 Q17.05 33.95 12.65 37.7 L11.55 38.7 14.25 37.05 18.4 34.6 Q19.25 34.1 19.3 34.25 L19.45 34.35 Q20.55 33.95 16.25 37.7 L14.45 39.3 15.1 38.9 Q17.9 37.15 17.6 37.55 L17.8 37.65 17.7 38.05 17.55 38.1 15.4 39.4 12.85 40.85 12.75 40.8 12.6 40.7 Q11.5 41.1 15.85 37.3 L17.7 35.6 14.5 37.55 10.5 39.9 9.7 40.25 9.5 40.1 Q8.55 40.45 12.3 37.3 L14.2 35.6 10.85 37.65 7.15 39.85 6.35 40.15 6.15 40.05 Q5.9 39.95 6.5 39.35 L9.95 36.3 11.85 34.65 8.5 36.7 Q3 40.15 3.5 39.55 L3.3 39.4 Q3 39.3 3.9 38.5 L9.2 34.45 12.5 31.95 9.1 34.05 4.25 36.95 3.05 37.45 2.85 37.3 Q2.35 37.55 4.2 35.15 L4.7 34.5 4.1 34.75 3.95 34.6 Q3.85 34.35 4.05 34.2 L4.1 34.2 4.85 33.75 Q5.75 33.15 5.75 33.35 L5.9 33.45 Q6.4 33.25 4.65 35.5 L3.9 36.5 8.8 33.55 13.65 30.6 Q14.8 30 14.9 30.1 L15.05 30.25 Q15.35 30.35 14.5 31.05"/>
    <path stroke="none" fill="#7dc8e8" d="M21.3 21.95 Q21.9 21.6 22.55 21.2 25.85 19.15 25.4 19.65 L25.6 19.75 Q26.15 19.5 24.1 22.15 L23.45 23.05 24.85 22.2 27.3 20.85 27.5 21 Q28.2 20.7 25.4 23.6 L24.4 24.65 24.6 24.55 Q26.75 23.15 26.6 23.45 L26.8 23.6 Q27.1 23.4 26.05 25.45 L25.75 26.05 26.35 25.7 28.15 24.75 28.35 24.85 Q28.95 24.65 26.55 27.2 L25.7 28.2 26.05 28 Q27.9 26.8 27.8 27.05 L27.95 27.2 Q28.55 26.95 26.45 29.6 L25.75 30.5 27.45 29.5 Q31.15 27.2 30.65 27.7 L30.85 27.85 Q31.8 27.5 27.9 30.95 L26.45 32.25 26.85 32 Q29.4 30.4 29.15 30.75 L29.35 30.9 Q30.1 30.65 27.25 33.3 L25.75 34.75 28.9 32.85 Q33.65 29.9 33.05 30.5 L33.25 30.65 Q33.55 30.75 32.75 31.45 L27.95 35.05 25.3 37.05 26.8 36.1 30.7 33.8 Q31.5 33.35 31.55 33.5 L31.7 33.6 Q32.9 33.2 28.05 37.05 L24.95 39.6 30.4 36.35 35.7 33.2 Q36.8 32.6 36.8 32.75 L36.95 32.85 Q37.25 33 36.5 33.6 L32.15 36.9 29.05 39.2 32.6 37.1 37.45 34.2 38.35 33.85 38.5 33.95 Q38.8 34.1 38.05 34.75 L33.65 38.15 31.45 39.8 33.7 38.45 37.2 36.35 Q37.9 35.95 37.9 36.1 L38.1 36.2 38 36.6 37.85 36.65 34 38.9 Q28.5 42.25 28.95 41.8 L28.9 41.75 28.7 41.65 Q28.4 41.5 29.15 40.9 L33.3 37.7 35.85 35.8 32.85 37.55 27.65 40.65 26.6 41.1 26.4 40.95 Q26.1 40.85 26.95 40.1 L31.8 36.45 34.1 34.8 30.7 36.85 24.75 40.35 23.35 41 23.15 40.85 Q22.9 40.75 23.6 40.1 L27.7 36.65 29.45 35.2 27.1 36.6 23.25 38.9 22.5 39.2 22.3 39.05 Q22 38.95 22.85 38.25 L27.65 34.6 30.15 32.75 29.2 33.3 25.3 35.65 24.45 36 24.25 35.85 Q23.35 36.2 26.85 32.9 L27.55 32.25 27.1 32.5 24.7 33.8 24.5 33.65 Q23.55 34.05 27.5 30.5 L28.9 29.25 27.75 29.95 Q24.35 32.05 24.8 31.55 L24.65 31.45 Q24.1 31.65 26 29.25 L26.85 28.15 26.35 28.45 Q24.3 29.75 24.45 29.45 L24.3 29.3 Q23.6 29.6 26.15 26.85 L26.9 26 26.65 26.15 Q24.9 27.25 25.05 27 L24.9 26.85 Q24.6 27.05 25.55 25.2 L25.95 24.35 24.9 25 Q22.9 26.3 23.05 26 L22.85 25.9 Q22.1 26.15 25 23.25 L25.95 22.15 25.15 22.7 Q22.25 24.5 22.55 24.1 L22.35 23.95 Q21.85 24.2 23.65 21.85 L24.5 20.65 22.85 21.65 Q19.75 23.6 20.15 23.15 L20 23 Q19.4 23.2 21.5 20.85 L22.15 20.05 19.6 21.6 15.75 23.9 14.9 24.2 14.75 24.05 Q14.65 23.85 14.85 23.7 L15 23.65 19.3 21.1 22.6 19.15 Q23.2 18.8 23.25 18.9 L23.4 19.05 Q24 18.85 21.9 21.2 L21.3 21.95"/>
    <path stroke="none" fill="#7dc8e8" d="M35.7 7.5 Q38.85 5.55 38.45 6 L38.65 6.15 38.5 6.55 38.4 6.55 36 8 Q32.7 10.05 32.9 9.75 L32.8 9.75 32.65 9.6 Q32.55 9.35 32.75 9.2 L32.85 9.2 35.7 7.5"/>
    <path stroke="none" fill="#7dc8e8" d="M33.3 2.95 Q34.35 2.65 30.15 6.1 L28.15 7.75 30.4 6.35 Q34.8 3.55 34.45 4.05 L34.65 4.2 Q34.95 4.3 34.15 5 L29.25 8.65 26.3 10.85 30.6 8.2 Q34.95 5.55 36.25 4.85 37.55 4.1 37.6 4.25 L37.8 4.4 Q38.15 4.5 37.05 5.35 L30.7 9.75 24.8 13.85 31.2 10 37.2 6.4 Q38.55 5.65 38.55 5.8 L38.75 5.95 38.65 6.3 38.5 6.35 31.45 10.5 24.6 14.6 Q22.85 15.6 22.65 15.5 L22.6 15.5 22.4 15.35 Q22 15.25 23.25 14.3 24.45 13.35 30.4 9.3 L34.45 6.5 30.9 8.7 25.2 12.1 23.8 12.7 23.6 12.55 Q23.3 12.45 24.15 11.75 L28.9 8.2 31.45 6.35 30.7 6.8 Q26.2 9.7 26.5 9.2 L26.3 9.05 Q25.2 9.4 29.75 5.65 L31.3 4.35 27.55 6.6 22.5 9.6 21.45 10.05 21.25 9.9 Q20.95 9.8 21.8 9.05 L26.7 5.3 29.55 3.15 27.45 4.45 22.65 7.3 21.6 7.7 21.45 7.55 Q20.75 7.85 23.3 4.95 L23.95 4.2 23.55 4.4 21.95 5.25 21.8 5.15 Q21.65 4.9 21.9 4.75 L21.95 4.7 23.3 3.95 Q25.35 2.65 25.1 2.95 L25.3 3.1 Q25.85 2.85 23.7 5.3 L22.6 6.65 27.15 3.95 31.3 1.45 32.1 1.15 32.25 1.3 Q32.55 1.4 31.75 2.1 L27.05 5.75 23.65 8.3 27.25 6.15 32.1 3.25 Q33.1 2.7 33.1 2.85 L33.3 2.95"/>
    <path stroke="none" fill="#7dc8e8" d="M15.35 4.3 Q15.65 4.4 14.95 5 L11.1 8.1 8.5 10.2 12.75 7.6 16.95 5.1 Q17.8 4.6 17.8 4.75 L18 4.9 Q18.3 5 17.55 5.65 L13.1 9.05 9.15 12.15 14.15 9.1 18.85 6.3 Q19.8 5.75 19.85 5.9 L20 6.05 Q20.35 6.15 19.3 7 L13.2 11.5 11.4 12.8 Q15.5 10.25 15.05 10.8 L15.2 10.9 Q15.45 11 14.85 11.65 L11 14.9 9.2 16.4 10 15.9 13.15 14.15 13.35 14.3 Q13.9 14.1 11.9 16.45 L11 17.5 11.25 17.35 Q13.05 16.15 13 16.4 L13.2 16.55 Q14.05 16.2 10.75 19.55 L9.8 20.5 10.7 19.95 Q14.05 17.9 13.7 18.35 L13.9 18.45 Q14.95 18 10.6 22 L9.45 23.15 12.2 21.5 16.1 19.15 Q16.85 18.75 16.85 18.9 L17 19 Q17.3 19.1 16.55 19.75 L12.25 23.15 9.9 24.95 14.65 22.1 Q19.7 19 21.5 18 23.3 16.95 23.4 17.1 L23.6 17.25 Q24 17.35 22.75 18.35 L15.35 23.7 13 25.35 Q14.6 24.4 14.5 24.6 L14.7 24.75 Q15.8 24.35 11.15 28.2 L9.25 29.85 Q10.1 29.4 10.9 28.9 L14.6 26.8 14.8 26.95 Q15.85 26.6 11.45 30.25 L10 31.45 10.35 31.25 Q13.95 29 13.6 29.5 L13.75 29.6 13.65 30 13.5 30.05 10.65 31.7 Q7.9 33.45 8.05 33.2 L7.95 33.2 7.8 33.05 Q6.7 33.45 11.1 29.8 L12.65 28.45 11.15 29.35 Q6.8 32.05 7.4 31.45 L7.25 31.3 Q6.1 31.75 10.8 27.8 L12.55 26.3 12 26.65 Q8.45 28.85 8.85 28.35 L8.65 28.25 Q8.3 28.15 9.3 27.35 10.3 26.55 15.05 23.25 L21.5 18.6 14.95 22.55 9 26.15 7.6 26.75 7.4 26.6 Q7.1 26.5 7.85 25.9 L11.95 22.7 14.3 20.85 12.5 21.95 8.65 24.25 7.9 24.55 7.7 24.4 Q6.85 24.7 10.25 21.6 L12.25 19.7 11 20.45 Q8.1 22.25 8.45 21.85 L8.3 21.7 Q7.55 22 10.35 19.15 L11.7 17.75 11.55 17.85 9.95 18.7 9.75 18.55 Q9.15 18.8 11.45 16.1 L12.1 15.3 10.3 16.4 Q6.6 18.65 7.1 18.15 L6.9 18 Q6.65 17.9 7.25 17.35 L10.65 14.45 13.2 12.35 11.35 13.5 Q6.95 16.15 7.6 15.55 L7.4 15.4 Q7.1 15.3 7.95 14.6 L12.85 11.05 17.1 8 14.45 9.6 8.7 13 7.3 13.65 7.1 13.5 Q6.75 13.4 7.65 12.6 L12.8 8.65 15.25 6.75 13.05 8.1 7.9 11.15 Q6.65 11.85 6.55 11.75 L6.4 11.6 Q6.1 11.5 6.8 10.85 L10.75 7.7 12.8 6.05 11.7 6.75 Q7.1 9.65 7.45 9.1 L7.25 8.95 Q6.35 9.25 10 6.1 L11.4 4.85 Q10 5.65 8.55 6.6 4.05 9.4 4.45 8.9 L4.25 8.75 Q3.45 9.05 6.6 6.1 L8.1 4.55 Q7.55 4.95 6.95 5.3 3.55 7.5 3.75 7.05 L3.55 6.95 Q2.9 7.2 5.25 4.5 L5.95 3.75 5.5 4 Q3.7 5.1 3.9 4.85 L3.7 4.7 Q3.6 4.45 3.8 4.3 L3.9 4.3 5.25 3.5 Q7.3 2.2 7.1 2.5 L7.25 2.65 Q7.85 2.4 5.7 4.85 L4.75 6.05 6.65 4.85 Q9.7 2.85 9.5 3.25 L9.7 3.4 Q10.6 3 6.95 6.5 L5.85 7.6 8.25 6.1 Q13.3 2.95 12.95 3.5 L13.1 3.65 Q14.05 3.35 10.35 6.5 L9.05 7.7 11.4 6.25 Q15.55 3.65 15.2 4.15 L15.35 4.3"/>
    <path stroke="none" fill="#fac49d" d="M25.85 33.1 L25.7 34.45 25.75 34.75 25.4 35.3 24.55 36 24.15 36.1 Q23.9 36.1 23.75 35.9 23.45 35.5 23.8 35.15 L24.55 34.55 24.55 34.45 24.7 33.05 Q24.8 32.5 25.3 32.5 25.8 32.55 25.85 33.1"/>
    <path stroke="none" fill="#fac49d" d="M19.65 24.25 Q19.2 24 19.35 23.5 19.55 23.05 20.05 23.2 L20.75 23.5 22.6 24.95 Q22.9 25.3 22.6 25.75 L22.2 25.9 Q21.95 25.9 21.8 25.75 L20.15 24.5 19.65 24.25 M24.45 27.25 Q25.25 28.55 25.6 30.1 25.65 30.6 25.15 30.75 L25.05 30.75 Q24.6 30.75 24.5 30.35 24.2 28.95 23.5 27.85 23.3 27.4 23.7 27.1 24.15 26.85 24.45 27.25"/>
    <path stroke="none" fill="#fac49d" d="M16.75 23.9 L16 23.9 15.85 23.95 15.45 24.9 Q15.3 25.25 14.9 25.25 L14.75 25.25 Q14.25 25.05 14.4 24.55 14.6 23.8 14.95 23.25 L15.3 22.95 15.8 22.75 16.75 22.75 17.05 22.75 Q17.55 22.8 17.6 23.35 L17.05 23.9 16.75 23.9"/>
    <path stroke="none" fill="#fac49d" d="M14.5 26.75 Q15 26.8 15.05 27.35 L15 28.4 15 28.75 15.05 29.9 Q15 30.45 14.5 30.5 14 30.45 13.95 29.95 L13.9 28.75 13.9 28.4 13.9 27.3 Q14 26.75 14.5 26.75"/>
    <path stroke="none" fill="#fac49d" d="M15.85 33.6 L16.7 33.6 Q17.2 33.75 17.2 34.25 17.05 34.75 16.55 34.75 L15.75 34.8 15.55 34.8 Q15.15 34.8 14.95 34.55 14.8 34.3 14.8 34.05 L14.3 32.7 Q14.25 32.2 14.7 32 15.25 31.95 15.4 32.4 L15.85 33.6"/>
    <path stroke="none" fill="#fac49d" d="M19.1 36.6 Q19.1 37.5 18.65 38.3 L18 39.2 17.6 39.4 17.2 39.25 Q16.85 38.85 17.2 38.45 L17.7 37.75 18 36.6 17.95 36.25 Q17.95 35.75 18.45 35.6 18.95 35.55 19.05 36.05 L19.1 36.6 M15.55 40.05 Q15.65 40.55 15.15 40.75 L12.15 41.1 12.1 41.1 Q11.6 41.05 11.55 40.55 11.6 40 12.1 39.95 L14.9 39.65 Q15.4 39.55 15.55 40.05 M9.75 40.5 Q9.65 41 9.2 41 L9.15 41 6.1 40.4 Q5.65 40.2 5.8 39.7 6 39.2 6.5 39.35 L9.25 39.9 Q9.75 40 9.75 40.5 M3.3 35 Q3.8 35.2 3.7 35.7 L3.6 36.25 Q3.65 37.15 4.3 37.95 4.6 38.35 4.25 38.7 L3.85 38.85 Q3.6 38.85 3.45 38.65 2.5 37.55 2.5 36.25 L2.6 35.4 Q2.8 34.95 3.3 35"/>
    <path stroke="none" fill="#fac49d" d="M7.95 32.95 L7.5 34.25 7.2 34.55 6.7 34.8 6.5 34.75 5.4 34.6 Q4.9 34.55 4.85 34.05 4.9 33.55 5.4 33.5 L5.45 33.5 6.5 33.6 6.9 32.6 Q7.1 32.1 7.6 32.25 8.05 32.45 7.95 32.95"/>
    <path stroke="none" fill="#fac49d" d="M13.75 3.35 L13.7 3.35 11.05 3.25 10.65 3.25 Q10.15 3.25 10.1 2.7 10.15 2.2 10.65 2.15 L11 2.15 13.8 2.25 Q14.3 2.35 14.3 2.85 14.25 3.3 13.75 3.35 M16.25 3.25 Q16.5 2.8 17 2.95 17.8 3.3 18.4 3.8 19.15 4.4 19.5 5.35 19.6 5.85 19.1 6.05 L18.95 6.1 18.4 5.7 Q18.2 5.05 17.7 4.65 17.2 4.25 16.55 4 16.1 3.75 16.25 3.25 M7.7 3.5 Q6.1 3.8 4.95 4.45 L4.65 4.5 4.2 4.2 Q3.95 3.75 4.4 3.45 5.7 2.75 7.5 2.4 8 2.4 8.15 2.85 8.2 3.4 7.7 3.5 M7.6 9.5 L8 11.15 Q8.1 11.7 7.6 11.85 L7.5 11.85 Q7.05 11.85 6.95 11.4 L6.6 10.05 5.85 10.2 Q5.35 10.25 5.2 9.75 5.15 9.25 5.65 9.1 L6.8 8.9 7.4 9.15 7.6 9.5 M15.75 10.4 Q15.3 10.35 15.2 9.9 15.2 9.35 15.7 9.25 17.2 9.1 18 8.1 L18.8 8 Q19.15 8.35 18.9 8.8 17.8 10.15 15.8 10.4 L15.75 10.4 M14.95 12.4 Q14.65 13.75 14.65 15.15 L14.65 15.3 Q14.65 15.85 14.1 15.9 13.6 15.85 13.55 15.35 L13.55 15.15 Q13.55 13.65 13.85 12.15 14.05 11.65 14.55 11.7 15 11.85 14.95 12.4 M8.9 17.35 Q8.85 17.9 8.35 17.95 7.85 17.95 7.75 17.45 L7.45 14.4 Q7.45 13.9 7.95 13.8 8.45 13.75 8.6 14.25 L8.9 17.35 M8.45 19.95 Q9 19.95 9.05 20.5 L9.1 22.25 9.15 23.6 8.6 24.15 8.55 24.15 Q8.05 24.1 8 23.6 L8 22.3 7.95 20.5 Q7.95 20 8.45 19.95 M8.75 29.85 L8.2 30.3 8.1 30.3 Q7.6 30.2 7.6 29.65 L7.95 26.65 Q8.05 26.15 8.55 26.1 9.05 26.2 9.05 26.7 L8.75 29.85 M3.05 6.3 L2.8 7.3 Q2.85 8.05 3.35 8.6 3.6 9.05 3.25 9.4 L2.9 9.55 Q2.65 9.55 2.5 9.35 1.7 8.5 1.7 7.3 1.7 6.6 2 5.85 2.25 5.45 2.75 5.6 3.2 5.85 3.05 6.3"/>
    <path stroke="none" fill="#fac49d" d="M14.4 17.9 Q14.95 17.75 15.15 18.2 L15.6 19.25 15.8 19.4 15.8 19.45 16.5 19.35 Q17.05 19.35 17.15 19.85 17.2 20.35 16.7 20.5 L15.9 20.55 15.4 20.55 Q15.1 20.5 14.9 20.2 L14.8 20 14.7 19.9 14.1 18.6 Q13.95 18.1 14.4 17.9"/>
    <path stroke="none" fill="#fac49d" d="M23.75 13 Q24.05 12.6 24.5 12.85 24.95 13.15 24.7 13.6 L24.5 13.95 23.15 15.75 22.7 15.95 22.35 15.8 Q21.95 15.45 22.25 15 L23.55 13.35 23.75 13 M20.55 16.85 Q20.95 16.5 21.35 16.85 21.65 17.25 21.35 17.65 L19.25 19.35 18.95 19.45 18.5 19.2 Q18.25 18.75 18.65 18.4 L20.55 16.85"/>
    <path stroke="none" fill="#fac49d" d="M25.9 8.95 L26.15 9.35 Q26.35 9.65 26.2 10 L26.05 10.4 25.8 11.15 Q25.65 11.55 25.25 11.55 L25.1 11.5 Q24.6 11.3 24.75 10.8 L25 10.1 24.4 10.2 Q23.85 10.2 23.75 9.7 23.75 9.2 24.25 9.1 L25.2 8.85 25.9 8.95"/>
    <path stroke="none" fill="#fac49d" d="M36.35 5.05 Q36.15 4.55 36.55 4.25 37 4.05 37.3 4.45 L37.85 5.65 37.95 6.5 37.65 8.05 37.15 8.45 36.95 8.4 Q36.5 8.2 36.6 7.7 L36.85 6.5 36.75 5.95 36.35 5.05 M34.25 3.4 L34.1 3.35 31.15 2.9 31 2.85 Q30.5 2.8 30.5 2.25 30.6 1.75 31.1 1.75 L31.25 1.75 34.45 2.3 Q34.9 2.5 34.8 3 L34.25 3.4 M28.35 2.3 Q28.35 2.8 27.85 2.95 26.2 3.15 24.9 3.8 L24.65 3.85 24.15 3.5 Q24 3.05 24.4 2.75 25.85 2.05 27.7 1.8 28.25 1.8 28.35 2.3 M22.6 5.65 Q21.85 6.6 21.85 7.35 L22.05 8.1 Q22.25 8.55 21.8 8.85 L21.55 8.9 Q21.2 8.9 21.05 8.6 20.75 8 20.75 7.35 20.75 6.2 21.7 4.95 L22.5 4.9 Q22.9 5.25 22.6 5.65"/>
    <path stroke="none" fill="#fac49d" d="M31.7 10.05 Q31.55 9.6 32 9.35 32.6 9.05 33.2 8.85 L33.8 8.9 34.15 9.05 Q34.55 9.45 34.95 9.45 35.45 9.5 35.5 10 35.45 10.55 34.95 10.55 L34.9 10.55 Q34.2 10.55 33.5 10 L33.4 9.95 32.45 10.35 Q31.95 10.5 31.7 10.05"/>
    <path stroke="none" fill="#fac49d" d="M29.85 11.05 Q30.15 11.5 29.75 11.8 L27.6 13.55 27.35 13.75 Q27.2 13.95 26.95 13.95 L26.6 13.75 Q26.25 13.4 26.6 13 L26.8 12.75 29.1 10.9 Q29.55 10.65 29.85 11.05 M24.4 15.85 L24.55 15.55 Q24.85 15.15 25.3 15.4 25.75 15.7 25.5 16.15 L25.35 16.4 25.25 16.55 Q24.55 17.55 24.3 18.75 L23.75 19.3 Q23.25 19.2 23.2 18.7 23.45 17.15 24.3 15.95 L24.4 15.85 M25.7 21.95 L25.25 21.6 Q24.9 21.2 25.15 20.8 25.55 20.4 25.95 20.7 L26.45 21.1 Q27.5 22.2 28 23.4 28.2 23.85 27.75 24.15 L27.5 24.2 27 23.9 Q26.55 22.85 25.7 21.95 M28.7 25.95 Q29.15 25.8 29.45 26.25 L30.15 27.8 30.75 29.1 Q30.9 29.6 30.45 29.85 L30.25 29.9 Q29.9 29.9 29.7 29.6 L29.1 28.25 28.4 26.7 Q28.25 26.2 28.7 25.95"/>
    <path stroke="none" fill="#fac49d" d="M32.25 31.9 L32.85 33 32.85 33.05 33.8 32.9 Q34.35 32.9 34.45 33.4 34.45 33.9 33.95 34 L32.85 34.2 32.7 34.2 32.25 34.05 32.05 33.8 31.9 33.6 31.25 32.45 Q31.05 31.95 31.5 31.65 31.95 31.45 32.25 31.9"/>
    <path stroke="none" fill="#fac49d" d="M36.95 33.4 Q37.4 33.6 37.7 33.95 38.35 34.6 38.35 35.65 L38.25 36.45 37.7 36.9 37.6 36.9 Q37.1 36.75 37.15 36.2 L37.2 35.65 Q37.25 35.1 36.9 34.7 L36.4 34.35 Q36 34.05 36.2 33.6 36.5 33.15 36.95 33.4 M36.7 38.45 Q37 38.85 36.65 39.2 35.65 40.15 34.4 40.6 L33.9 40.75 33.75 40.75 Q33.35 40.75 33.2 40.35 33.1 39.85 33.6 39.65 L34.05 39.5 35.9 38.4 36.7 38.45 M30.4 41.15 L27.9 41 Q27.4 40.9 27.4 40.4 27.55 39.85 28.05 39.9 L30.85 40.05 Q31.4 40.1 31.45 40.6 L30.9 41.15 30.4 41.15 M25.65 40.05 Q25.5 40.45 25.15 40.45 L24.95 40.4 Q22.95 39.65 22.45 38.2 22.4 37.7 22.85 37.5 23.35 37.4 23.55 37.85 24.1 39 25.3 39.35 25.8 39.55 25.65 40.05"/>
  </g>
</svg>