<svg width="31.45px" height="41px" viewBox="0 0 31.45 41" xmlns="http://www.w3.org/2000/svg" xmlns:xlink="http://www.w3.org/1999/xlink">
  <defs/>
  <g>
    <path stroke="none" fill="#7279b8" d="M0.45 5.95 Q0.9 3.3 2.6 2.15 4.8 0.75 7.15 0.45 L11.85 0.05 12.15 0 13.05 0 Q18.35 0.05 21.05 2.7 23 4.85 21.9 7.7 20.35 11 17 11.2 L16.55 11.2 Q15.6 14.8 15.5 18.75 L15.35 21 Q14.45 26.95 16.9 31.1 L17.8 31.25 18.45 31.2 Q18.05 29.85 18.65 28.55 19.55 26.65 22.5 25.9 L24.6 25.65 Q27.25 25.65 29.2 26.8 31.4 28.3 31.45 30.6 31.45 32.9 31 34.45 L30.95 34.65 Q29.95 39.05 25.95 40.3 L21.7 40.9 20.05 40.85 18.7 40.8 16.05 40.9 14.3 40.95 12.6 41 Q6.4 41 2.65 39 L1.55 38.4 1.5 38.2 Q-0.4 36.5 0.1 33.95 1.3 30.25 4.9 29.9 L4.95 29.9 5.6 26.2 Q5.95 23.1 5.95 19.5 L5.8 14.25 5.7 12.9 5.45 10.9 5.4 10.9 Q3.2 10.8 1.55 9.1 0.3 7.8 0.45 5.95"/>
    <path stroke="none" fill="#5f7ba6" d="M3.95 3.9 Q5.6 2.9 7.55 2.65 L12.25 2.25 Q16.3 1.85 19.45 4.3 20.75 6.1 19.2 7.9 17.6 9.65 15.75 8.5 L15.6 8.45 15.25 8.4 Q13.05 14.35 13.15 20.8 11.95 27.4 15.4 32.85 L15.45 32.85 15.5 32.9 Q18.9 34.1 22.35 32.5 L22.45 32.3 22.4 32 Q20.25 31.5 20.7 29.5 21.55 28.3 23.05 28.05 25.7 27.5 28.1 28.75 30.05 31.05 28.8 34.15 28.2 37.2 25.3 38.15 L20.2 38.6 14.25 38.75 Q8.7 39.2 3.7 37 L3.6 36.9 Q1.25 35.25 2.95 33.3 4.65 31.4 6.35 33.1 6.65 33.3 6.65 32.95 L6.7 32.9 7.8 26.5 Q8.2 23.05 8.2 19.55 L7.95 12.7 Q8.1 10.3 6.75 8.4 L6.7 8.35 Q6.65 8.15 6.4 8.2 4.55 8.8 3.15 7.45 2 5.4 3.95 3.9"/>
    <path stroke="none" fill="#7dc8e8" d="M25.85 28.6 L24.55 29.4 Q21.55 31.2 21.95 30.8 L21.75 30.65 21.7 29.6 21.65 29.05 Q21.4 29.2 21.1 29.4 L19.75 30.1 19.6 29.95 Q19.5 29.7 19.7 29.55 L19.75 29.55 20.85 28.9 Q22.05 28.15 22 28.3 L22.15 28.45 22.25 29.55 22.25 30.1 24.25 28.9 27 27.4 27.15 27.55 Q27.8 27.3 25.45 29.9 L24.85 30.6 26.45 29.65 Q29.65 27.65 29.25 28.1 L29.45 28.25 29.35 28.6 29.2 28.65 26.7 30.15 23.8 31.8 23.7 31.8 23.55 31.65 Q22.95 31.85 25.05 29.55 L25.85 28.6"/>
    <path stroke="none" fill="#7dc8e8" d="M5.8 31.6 Q6.55 31.25 3.7 34.3 L2.6 35.55 7.65 32.5 13.4 29.1 Q14.7 28.35 14.75 28.5 L14.95 28.65 Q15.25 28.75 14.45 29.5 L9.55 33.25 6.65 35.45 8.95 34.05 Q12.65 31.8 13.6 31.3 14.55 30.75 14.6 30.9 L14.75 31.05 Q15 31.15 14.4 31.75 L10.75 34.75 9.05 36.2 10.45 35.3 Q14.85 32.6 14.35 33.15 L14.55 33.3 Q15.65 32.85 11.1 36.8 L9.45 38.2 11.65 36.9 15.95 34.35 Q16.85 33.85 16.85 34 L17.05 34.1 Q17.75 33.85 15.1 36.65 L13.7 38.2 22.05 33.25 Q27.3 30.05 28.85 29.15 L30.45 28.45 30.65 28.6 Q31 28.7 30 29.5 L24.3 33.6 19.45 37.05 22.15 35.45 Q25.75 33.25 26.7 32.7 L27.65 32.3 27.85 32.45 Q28.1 32.55 27.5 33.1 L24.15 35.9 22.1 37.55 23.45 36.75 Q28 33.9 27.45 34.5 L27.65 34.65 27.2 36.25 26.9 37 27.05 37.1 26.95 37.5 26.85 37.55 26.8 37.6 26.4 37.75 26.2 37.6 Q25.95 37.8 26.65 36.05 L26.95 35.3 23.75 37.2 Q19.45 39.9 19.95 39.3 L19.8 39.2 Q19.55 39.05 20.15 38.5 L23.8 35.5 25.65 33.95 22.4 35.9 17.8 38.65 Q16.85 39.2 16.8 39.05 L16.65 38.95 Q16.25 38.85 17.4 37.9 L24 33.15 27.75 30.45 22.35 33.75 14.85 38.2 Q12.9 39.3 12.75 39.15 L12.6 39.05 Q11.85 39.35 14.7 36.3 L15.8 35.05 11.95 37.4 7.75 39.75 7.7 39.75 7.5 39.65 Q6.45 40 10.7 36.35 L12.7 34.6 10.75 35.8 Q6.4 38.5 6.9 37.9 L6.75 37.8 Q6.5 37.65 7.05 37.15 L10.4 34.35 12.75 32.45 9.25 34.55 5.1 37 4.25 37.35 4.05 37.2 Q3.75 37.1 4.55 36.4 5.35 35.7 9.25 32.8 L12.75 30.1 7.95 33 2.6 36.2 1.5 36.65 1.3 36.5 Q0.6 36.8 3.3 33.95 L4.35 32.75 3.55 33.15 3.35 33 Q3.25 32.8 3.45 32.65 L3.55 32.6 4.55 32 Q5.7 31.25 5.65 31.45 L5.8 31.6"/>
    <path stroke="none" fill="#7dc8e8" d="M14.35 8.75 L16.6 7.45 Q20.05 5.35 19.55 5.8 L19.75 5.95 19.65 6.35 19.55 6.35 Q18.75 6.8 16.9 7.9 L14.4 9.35 14.3 9.3 14.15 9.2 Q14.05 8.95 14.25 8.8 L14.35 8.75"/>
    <path stroke="none" fill="#7dc8e8" d="M5.1 3.05 Q7 1.9 6.8 2.15 L7 2.3 Q7.45 2.1 5.8 4.3 L5.1 5.3 6.8 4.25 Q9.5 2.45 9.35 2.8 L9.55 2.95 Q10.25 2.65 7.5 5.65 L6.65 6.6 8.9 5.2 Q13.4 2.4 13.05 2.9 L13.25 3.05 Q14.1 2.75 10.8 5.75 L9.6 6.9 11.85 5.5 Q15.8 3 15.45 3.5 L15.65 3.6 Q15.9 3.7 15.25 4.3 L11.4 7.45 8.8 9.5 13.15 6.85 Q16.55 4.8 17.4 4.3 L18.3 3.95 18.5 4.1 Q18.8 4.2 18 4.85 L13.45 8.35 9.3 11.55 14.8 8.25 Q18.75 5.8 19.8 5.25 L20.8 4.85 21 4.95 Q21.35 5.05 20.25 6 L13.6 10.75 11.75 12.05 Q15 10.05 14.65 10.5 L14.85 10.6 Q15.1 10.7 14.45 11.35 L10.75 14.55 9 16 9.7 15.55 12.7 13.9 12.9 14.05 Q13.4 13.85 11.55 16.15 L10.8 17.1 Q12.4 16.05 12.35 16.3 L12.55 16.4 Q13.35 16.1 10.25 19.3 L9.4 20.25 9.95 19.9 Q12.8 18.1 12.5 18.55 L12.65 18.65 Q13.6 18.25 9.8 22 L8.8 22.95 10.8 21.75 14.55 19.7 Q14.65 19.7 14.75 19.85 15 19.95 14.35 20.5 L10.8 23.45 9.4 24.6 Q12.25 22.85 11.9 23.25 L12.1 23.4 Q12.85 23.05 9.95 26.3 L9.2 27.15 10.25 26.45 Q12.8 24.85 12.55 25.25 L12.7 25.4 Q13.7 25 9.75 28.5 L8.2 29.95 9.8 29 Q13.85 26.55 13.25 27.1 L13.45 27.2 13.35 27.6 13.2 27.65 Q12.35 28.1 10.05 29.5 L6.65 31.45 6.55 31.4 6.4 31.3 Q5.4 31.65 9.4 28.1 L10.8 26.85 10.55 26.95 8 28.35 7.85 28.2 Q7.25 28.45 9.5 25.9 L10.8 24.4 9.35 25.3 Q6.55 27 6.9 26.6 L6.75 26.5 Q6.5 26.4 7.1 25.85 L10.45 23 12.3 21.5 11.1 22.25 Q6.75 24.9 7.35 24.3 L7.2 24.2 Q6.4 24.45 9.4 21.6 L11.15 19.85 10.25 20.4 8.1 21.55 7.9 21.4 Q7.2 21.7 9.85 18.9 L11.1 17.6 9.7 18.3 9.5 18.2 Q8.9 18.45 11.1 15.8 L11.7 15 10 16.05 Q6.45 18.25 6.9 17.75 L6.75 17.6 Q5.55 18.05 10.4 14.1 L12.8 12.05 11.15 13.1 Q6.95 15.65 7.55 15.05 L7.35 14.95 Q7.05 14.85 7.95 14.1 L13.25 10.3 18 6.95 15.1 8.7 9 12.35 7.45 13.05 7.25 12.9 Q6.9 12.8 7.85 12 L13.1 7.9 15.7 6 13.45 7.35 8.25 10.45 Q7 11.15 6.9 11.05 L6.7 10.9 Q6.45 10.8 7.1 10.15 L11.05 7 13.05 5.4 12.15 5.95 Q7.8 8.7 8.15 8.2 L7.95 8.05 Q7.1 8.35 10.4 5.35 L11.65 4.2 9.2 5.7 Q5.2 8.25 5.55 7.75 L5.35 7.6 Q4.7 7.85 7.1 5.3 L8.25 4 7.1 4.7 4.25 6.25 4.05 6.1 Q3.55 6.35 5.35 3.95 L5.85 3.25 5.4 3.55 3.85 4.35 3.7 4.2 Q3.6 3.95 3.8 3.8 L3.85 3.8 5.1 3.05"/>
    <path stroke="none" fill="#fac49d" d="M20.9 31.3 Q21.25 30.9 21.7 31.15 L22.5 31.5 23.05 32 22.95 32.6 22.5 33.05 22.25 33.15 21.25 33.45 21.1 33.45 Q20.7 33.45 20.55 33.05 20.5 32.55 20.95 32.35 L21.35 32.25 21.05 32.05 Q20.65 31.75 20.9 31.3"/>
    <path stroke="none" fill="#fac49d" d="M23.15 28.65 Q21.8 29 21.3 29.55 21.1 29.75 20.85 29.75 L20.5 29.6 Q20.15 29.2 20.45 28.8 21.5 27.8 22.85 27.55 L23.3 27.45 Q23.8 27.4 23.95 27.9 24 28.45 23.5 28.55 L23.15 28.65 M25.65 27.95 Q25.8 27.45 26.3 27.55 27.45 27.75 28.35 28.3 L29.1 29 Q29.4 29.4 29 29.75 L28.65 29.9 28.2 29.65 27.75 29.25 Q27.05 28.85 26.05 28.6 25.6 28.5 25.65 27.95 M29.7 32.1 L29.35 34.1 29.3 34.3 29.1 34.95 28.6 35.35 28.4 35.3 Q27.95 35.15 28.05 34.6 L28.2 34.05 28.25 33.85 28.6 31.95 Q28.7 31.45 29.2 31.45 29.7 31.6 29.7 32.1 M27.5 37.6 Q26.65 38.35 25.4 38.75 L24.75 38.9 24.6 38.9 Q24.2 38.9 24.1 38.5 24 38 24.5 37.8 L25.1 37.65 Q26.1 37.35 26.75 36.75 L27.55 36.8 Q27.85 37.2 27.5 37.6 M22.4 38.65 Q22.35 39.2 21.85 39.25 L21.65 39.25 20.1 39.2 19 39.15 Q18.5 39.1 18.45 38.55 18.5 38.05 19 38 L20.2 38.05 21.65 38.1 21.8 38.1 Q22.35 38.15 22.4 38.65 M16.75 38.65 Q16.75 39.15 16.2 39.2 L15.95 39.25 14.2 39.3 13.4 39.35 Q12.85 39.3 12.8 38.8 12.85 38.25 13.35 38.2 L14.2 38.2 15.85 38.1 16.15 38.1 Q16.7 38.1 16.75 38.65 M7.2 38.3 Q7.35 37.8 7.85 37.85 L10.6 38.15 Q11.1 38.25 11.1 38.75 L10.55 39.3 7.65 38.95 Q7.15 38.8 7.2 38.3"/>
    <path stroke="none" fill="#fac49d" d="M2.25 35.6 Q2.7 35.35 3 35.75 L3.85 36.4 4.1 36.6 5.25 37.1 Q5.7 37.35 5.55 37.85 5.4 38.2 5.05 38.2 L4.85 38.15 3.4 37.5 3.2 37.35 2.1 36.4 Q1.85 35.95 2.25 35.6"/>
    <path stroke="none" fill="#fac49d" d="M2.2 34.7 Q1.75 34.45 1.9 33.95 2.35 32.85 3.4 32.2 3.9 31.95 4.2 32.35 4.4 32.85 4 33.15 3.25 33.6 2.95 34.35 2.75 34.7 2.4 34.7 L2.2 34.7"/>
    <path stroke="none" fill="#fac49d" d="M5.1 32.2 Q5.4 31.75 5.85 31.95 L6.2 32.15 6.4 31.35 Q6.5 30.85 7.05 30.9 7.55 31.05 7.5 31.55 L7.2 32.95 Q7.25 33.4 6.8 33.65 L6.45 33.75 5.85 33.4 5.35 32.95 Q4.9 32.65 5.1 32.2"/>
    <path stroke="none" fill="#fac49d" d="M8.55 14.15 L8.65 15.85 8.1 16.4 8.05 16.4 Q7.55 16.35 7.5 15.85 L7.45 14.2 7.35 12.75 Q7.4 12.2 7.9 12.15 L7.95 12.15 Q8.45 12.2 8.5 12.7 L8.55 14.15 M7.55 22.1 L7.6 19.65 7.6 19 Q7.65 18.5 8.15 18.45 8.65 18.45 8.7 19 L8.7 19.65 8.65 22.15 8.1 22.7 Q7.55 22.6 7.55 22.1 M7.35 25.2 Q7.45 24.7 7.95 24.7 8.45 24.8 8.45 25.3 L8.35 26.55 8.05 28.45 Q7.95 28.9 7.5 28.95 L7.4 28.95 Q6.95 28.8 6.95 28.3 L7.25 26.45 7.35 25.2"/>
    <path stroke="none" fill="#fac49d" d="M4.75 8.4 Q4.8 7.9 5.35 7.9 L6.15 7.7 6.85 7.75 7.15 8.05 7.2 8.1 8 9.45 Q8.15 9.95 7.7 10.15 L7.45 10.2 Q7.1 10.2 6.95 9.85 L6.35 8.85 5.3 9 Q4.8 8.95 4.75 8.4"/>
    <path stroke="none" fill="#fac49d" d="M4.4 3.6 Q4.65 4 4.3 4.35 3.35 5.05 3.2 6.25 L3.25 6.55 Q3.35 7.1 2.9 7.25 L2.75 7.3 2.2 6.9 2.1 6.25 Q2.3 4.4 3.6 3.45 L4.4 3.6 M13.45 1.7 L16.8 2.2 Q17.3 2.4 17.2 2.9 L16.65 3.3 16.5 3.25 13.45 2.8 Q12.9 2.75 12.9 2.25 12.95 1.75 13.45 1.7 M10.75 2.35 Q10.75 2.85 10.25 2.95 L7.65 3.2 7.1 3.35 7 3.35 Q6.55 3.3 6.45 2.9 6.35 2.35 6.85 2.25 L7.45 2.1 10.15 1.8 Q10.7 1.85 10.75 2.35 M19.05 3.9 L19.85 3.95 Q20.6 4.7 20.6 5.8 20.6 6.7 20.05 7.6 L19.6 7.9 19.3 7.8 Q18.9 7.5 19.1 7.05 19.5 6.4 19.5 5.8 19.5 5.15 19.05 4.7 18.75 4.3 19.05 3.9"/>
    <path stroke="none" fill="#fac49d" d="M15.35 9.6 Q15.15 9.95 14.8 9.95 L14.6 9.9 Q14.15 9.65 14.3 9.15 L14.75 8.15 Q14.95 7.75 15.45 7.75 15.7 7.75 15.9 7.95 L16.1 8.05 Q16.5 8.4 16.95 8.4 17.5 8.5 17.5 9 17.45 9.5 16.9 9.55 16.2 9.5 15.55 9.05 L15.35 9.6"/>
    <path stroke="none" fill="#fac49d" d="M13.4 16.85 Q13.9 16.95 13.9 17.45 L13.85 18.7 13.75 20.2 Q13.65 20.7 13.2 20.7 L13.15 20.7 Q12.65 20.65 12.6 20.1 L12.7 18.6 12.8 17.4 Q12.85 16.9 13.4 16.85 M13.5 15.25 Q13 15.15 13.05 14.65 13.2 13.15 13.5 11.9 13.65 11.4 14.15 11.45 14.65 11.6 14.55 12.15 L14.15 14.75 Q14.05 15.25 13.6 15.25 L13.5 15.25 M13 22.3 Q13.55 22.4 13.55 22.9 L13.5 24.45 13.55 25.6 Q13.5 26.1 13 26.2 12.5 26.15 12.45 25.65 L12.4 24.45 12.45 22.85 Q12.5 22.35 13 22.3 M13.85 28.2 Q14.15 29.55 14.7 30.65 14.85 31.15 14.4 31.4 L14.2 31.45 Q13.85 31.45 13.65 31.15 L12.75 28.45 Q12.7 27.95 13.2 27.8 13.7 27.7 13.85 28.2 M15.25 32.85 Q15.55 32.4 16 32.6 L18.4 32.9 Q18.9 32.9 19 33.45 19 33.95 18.5 34.05 L17.8 34.05 15.5 33.6 Q15.1 33.3 15.25 32.85"/>
  </g>
</svg>