<svg width="47.7px" height="42.45px" viewBox="0 0 47.7 42.45" xmlns="http://www.w3.org/2000/svg" xmlns:xlink="http://www.w3.org/1999/xlink">
  <defs/>
  <g>
    <path stroke="none" fill="#7279b8" d="M47.7 6.65 Q47.75 8.55 46.5 9.85 45.25 11.1 43.25 11.4 L43 15.55 Q42.7 18.65 42.7 21.6 L42.65 23.15 Q42.55 27.3 43.1 31.1 44.5 31.3 45.65 32.25 48.1 34.65 46.25 38 44.7 40.25 42.5 40.75 L39.25 41.15 37.8 41.1 37.4 41.1 36.35 41.1 35.1 41.15 34.5 41.15 Q31.75 41 29.65 39.15 26.75 36.35 28.9 32.8 30.6 31.25 31.8 31.45 32.05 28.4 31.9 25.15 L31.9 24.75 31.85 23.8 30.65 26.8 29.6 29.25 28.95 31.4 27.55 35.15 Q26.2 37.65 23.2 37.7 L21.9 37.55 Q19.75 37.1 18.2 35.25 18.55 36.7 18.2 38.25 17.15 41 14.65 41.75 12.15 42.55 10.8 42.45 L10.7 42.45 6.4 41.75 Q3.95 41.6 1.35 39.55 -0.65 37.4 0.3 34.75 1.55 32.15 4.45 31.5 4.55 29.6 4.8 27.85 L4.85 27.25 5.3 21 5.35 15.15 5.15 12.45 5.05 12.45 Q3.9 12.35 2.75 11.6 -0.3 9.65 0.45 5.75 1.4 2 5.1 0.6 6.75 0 8.8 0 12.15 0.05 15.3 1.35 19 3.4 19.65 6.15 L21.3 11 21.55 11.9 22.7 15.4 24.2 20.15 24.35 19.6 Q25.05 16.6 26.1 12.95 L26.5 11.5 Q27.15 8.9 28.25 6.25 30.05 2.1 34.4 1.5 L37.35 1.3 41.65 1.7 Q47.5 2.7 47.7 6.65 M15.35 28.55 L14.8 26.35 13.95 24.15 13.2 22.35 13.15 24.1 13.45 28.45 13.55 29.15 13.6 30 13.75 31.55 13.8 31.55 13.8 31.6 Q15.4 31.95 16.8 33.1 15.8 30.8 15.35 28.55"/>
    <path stroke="none" fill="#5f7ba6" d="M41.05 9.45 L40.45 21.6 Q40.1 27.6 41.3 33.4 L41.5 33.5 41.6 33.5 Q43.05 33 44.2 34 45.35 35.35 44.3 36.9 41.8 39.55 37.95 38.9 L34.65 38.95 Q32.65 38.8 31.15 37.5 29.65 36.05 30.65 34.3 32.05 33.5 33.75 33.65 L33.85 33.3 Q34.4 29.05 34.15 24.7 L33.95 20.05 Q34 18 33.5 16 L33.35 15.85 33.15 15.85 33 15.9 32.95 15.9 Q31.25 18.35 30.4 21.3 L27.55 28.45 25.6 34.15 Q24.45 35.9 22.4 35.4 20.35 34.85 19.3 32.95 17.65 29.5 16.95 25.7 L15.05 20.85 13.7 16.8 Q13.4 15.55 12.35 15.05 L12.25 15.15 Q12.15 15.1 12.1 15.2 11.7 15.85 11.65 16.6 L11.3 19.3 Q10.85 21.7 10.95 24.2 11 26.8 11.3 29.4 11.3 31.5 11.95 33.5 L12.1 33.6 12.25 33.7 Q13.8 33.7 15.1 34.65 16.4 35.55 16.05 37.3 14.2 39.9 10.7 39.45 L6.75 39.15 Q4.6 39.05 2.95 37.75 1.55 36 3.05 34.65 4.55 33.25 6.4 33.75 L6.6 33.65 6.7 33.5 Q6.65 30.5 7.05 27.5 L7.5 21.1 7.6 14.95 Q7.65 12.1 6.9 9.4 6.85 9.15 6.55 9.25 5.3 10.3 3.85 9.5 2.1 8.25 2.6 6.2 3.35 3.6 5.85 2.7 10.2 1.6 14.4 3.45 16.75 4.5 17.55 6.95 L19.45 12.6 23.05 24.15 23.1 24.25 Q23.5 25.75 24.65 25.15 26.2 22.9 26.55 20.2 L28.25 13.6 Q29.1 10.35 30.3 7.2 31.55 4.2 34.7 3.75 38 3.35 41.25 3.9 44.5 4.1 45.45 6.75 44.7 9.8 41.4 9.15 41.25 9.1 41.2 9.25 L41.05 9.45"/>
    <path stroke="none" fill="#7dc8e8" d="M16.6 35.3 Q17.1 35.05 15.3 37.45 L14.75 38.2 Q15.55 37.7 15.55 37.85 L15.7 38 Q15.85 38.2 15.6 38.35 L15.55 38.4 14.9 38.75 Q13.75 39.5 13.8 39.3 L13.65 39.2 Q13.15 39.4 14.85 37.1 L15.55 36.2 13.3 37.5 10.05 39.45 9.4 39.65 9.25 39.55 Q8.35 39.85 11.85 36.6 L13.2 35.3 10.25 37.1 Q5.35 40.1 5.7 39.7 L5.6 39.7 5.4 39.55 Q4.3 39.95 8.9 36.2 L10.5 34.85 8.9 35.85 5.25 37.85 5.05 37.75 Q4.05 38.1 8.25 34.5 L9.45 33.45 6.85 35 Q2.7 37.65 3.2 37.1 L3 36.95 Q2.5 37.2 4.2 34.7 L4.65 34.05 Q3.6 34.75 3.6 34.55 L3.45 34.4 Q3.35 34.2 3.55 34.05 L3.6 34 4.4 33.55 Q5.6 32.8 5.55 33 L5.7 33.1 Q6.15 32.95 4.7 35.05 L3.95 36.15 6.55 34.55 Q11.5 31.45 11.1 32 L11.3 32.15 Q12.2 31.85 8.6 34.9 L7 36.35 8.6 35.35 Q12.9 32.7 12.4 33.25 L12.6 33.4 Q13.7 33 9.25 36.65 L7.45 38.15 9.95 36.6 Q12.95 34.75 13.75 34.35 14.5 33.9 14.55 34.05 L14.75 34.15 Q15.6 33.85 12.2 37 L10.85 38.35 13 37.05 Q17 34.6 16.4 35.15 L16.6 35.3"/>
    <path stroke="none" fill="#7dc8e8" d="M30.05 34.3 Q30.9 33.75 30.9 33.9 L31.1 34.05 30.15 36.05 29.75 36.75 34.85 33.7 39.7 30.8 Q40.7 30.25 40.7 30.4 L40.9 30.55 Q41.15 30.65 40.55 31.2 L37 33.95 34.05 36.2 36.25 34.85 39.75 32.75 Q40.45 32.35 40.5 32.45 L40.7 32.6 Q41.85 32.15 37.15 36.2 L35.3 37.85 38.4 35.95 Q41.45 34.1 42.2 33.7 L43.05 33.4 43.2 33.5 Q44 33.25 40.95 36.25 L39.6 37.65 41.05 36.75 Q44.35 34.7 43.95 35.2 L44.1 35.3 Q44.55 35.15 43.15 37.15 L42.8 37.7 43.35 37.5 43.55 37.6 43.45 38 43.35 38.05 42.8 38.4 Q41.95 38.95 41.9 38.8 41.75 38.8 41.7 38.65 41.3 38.85 42.7 36.85 L43.15 36.15 41.35 37.25 38.3 38.9 38.15 38.75 Q37.3 39.1 40.55 35.85 L41.75 34.6 38.7 36.45 Q33.35 39.75 33.75 39.3 L33.7 39.25 33.5 39.15 Q32.4 39.55 36.8 35.75 L38.9 33.9 36.55 35.35 Q31.35 38.55 31.85 37.95 L31.65 37.8 Q31.35 37.7 32.15 37 L36.65 33.5 38.05 32.4 35.15 34.2 30.15 37.2 Q29.1 37.75 29.05 37.6 L28.9 37.45 Q28.55 37.65 29.65 35.75 L30.15 34.9 29.55 35.15 29.35 35.05 Q29.25 34.8 29.45 34.65 L29.5 34.65 30.05 34.3"/>
    <path stroke="none" fill="#7dc8e8" d="M41.75 11.4 L38.1 14.35 35.95 16.05 37.25 15.25 Q41.75 12.45 41.2 13.05 L41.4 13.2 Q41.65 13.3 41.05 13.9 L37.45 16.9 35.1 18.9 Q35.5 18.6 35.9 18.4 39.7 16 39.3 16.5 L39.5 16.65 Q40.35 16.35 37 19.45 L35.45 20.95 36.6 20.25 Q40.45 17.9 40 18.4 L40.2 18.5 Q41.1 18.2 37.4 21.55 L36.55 22.35 38 21.45 Q42.25 18.9 41.65 19.45 L41.85 19.6 Q42.1 19.7 41.5 20.3 L38.05 23.25 35.9 25.05 36.7 24.6 Q39.9 22.55 39.6 23 L39.75 23.1 Q40.75 22.8 36.8 26.2 L35.65 27.2 37.05 26.35 40.25 24.55 40.45 24.7 Q41.4 24.35 37.6 27.6 L35.3 29.65 37.4 28.4 41.3 26.1 Q42 25.7 42 25.8 L42.2 25.95 Q43.35 25.55 38.7 29.25 L36.5 31.1 37.9 30.2 Q41.3 28.15 40.85 28.6 L41 28.75 Q41.15 28.95 40.9 29.1 L40.8 29.15 38.2 30.7 Q34.45 33.05 34.65 32.7 L34.55 32.7 34.4 32.55 Q34.15 32.45 34.75 31.85 L38.35 28.8 39.95 27.5 37.7 28.85 34.35 30.85 33.65 31.1 33.5 30.95 Q33.25 30.85 33.85 30.25 L37.2 27.2 38.35 26.2 37.35 26.8 Q33.25 29.35 33.8 28.75 L33.65 28.6 Q32.7 28.95 36.4 25.75 L37.75 24.6 37 25.05 34 26.7 33.8 26.55 Q33.55 26.45 34.15 25.85 L37.7 22.85 39.75 21.1 38.3 21.95 Q34.25 24.45 34.85 23.85 L34.65 23.75 Q33.85 24 37 21.15 L38.45 19.8 36.9 20.75 33.95 22.35 33.8 22.2 Q32.85 22.6 36.6 19.05 L37.85 17.85 36.2 18.85 Q32.65 21.1 33.05 20.6 32.9 20.6 32.85 20.45 32.6 20.35 33.25 19.75 33.9 19.1 37.1 16.5 L39.2 14.75 37.55 15.7 Q33.1 18.5 33.65 17.9 L33.45 17.75 Q33.2 17.65 33.85 17.05 L37.75 13.9 39.45 12.55 38.45 13.15 34.65 15.4 Q33.85 15.85 33.8 15.75 L33.65 15.6 Q33.5 15.35 33.75 15.2 L33.9 15.2 38.15 12.7 41.3 10.8 Q41.9 10.45 41.95 10.55 L42.1 10.7 Q42.35 10.8 41.75 11.4"/>
    <path stroke="none" fill="#7dc8e8" d="M43 8.65 L40.55 10 40.45 10 40.3 9.9 Q40.2 9.65 40.4 9.5 L40.5 9.45 42.7 8.15 Q45.15 6.65 44.85 7 L45 7.15 Q45.15 7.4 44.9 7.55 L44.8 7.55 43 8.65"/>
    <path stroke="none" fill="#7dc8e8" d="M43.15 5.2 Q43.6 5.3 42.2 6.35 L34.2 11.9 Q31.35 13.8 28.95 15.45 L33.8 12.55 41.75 7.8 Q43.85 6.6 44 6.75 L44.2 6.9 Q44.6 7 43.3 8 L35.75 13.2 Q31.65 15.9 28.55 18.1 L34.85 14.3 41.1 10.55 Q42.55 9.75 42.6 9.9 L42.75 10.05 Q43.15 10.15 41.95 11.05 L34.95 15.9 29.45 19.6 29.7 19.6 29.9 19.7 Q30.8 19.4 27.25 22.55 L25.95 23.75 26.35 23.5 Q29.3 21.7 28.95 22.1 L29.1 22.25 Q29.25 22.45 29 22.6 L28.9 22.65 26.65 24 24.3 25.3 24.25 25.3 24.05 25.15 Q23.1 25.5 26.9 22.15 L27.95 21.2 27.85 21.2 25.7 22.4 25.5 22.25 Q25.05 22.15 26.45 21.1 L34.6 15.45 39.2 12.3 35.15 14.75 28.2 18.95 Q26.5 19.9 26.4 19.75 L26.2 19.6 Q25.75 19.5 27.2 18.4 L35.4 12.7 41.85 8.35 34.1 13 27.35 17.05 Q25.85 17.9 25.8 17.75 L25.6 17.6 Q25.2 17.5 26.45 16.55 L33.9 11.4 40.35 7 35.95 9.7 30.15 13.15 Q28.85 13.9 28.75 13.75 L28.6 13.6 Q28.25 13.5 29.2 12.7 L34.9 8.65 39.4 5.45 35.2 8 30.1 11.05 29.05 11.5 28.85 11.35 Q28.55 11.25 29.35 10.55 L34 6.95 37.35 4.4 34.05 6.35 29.65 9 Q28.8 9.45 28.8 9.3 L28.6 9.2 Q27.65 9.55 31.5 6.1 L33 4.65 32.15 5.05 31.95 4.95 Q31.85 4.7 32.05 4.55 L32.15 4.5 33.4 3.8 Q34.85 2.85 34.75 3.1 L34.9 3.25 Q35.95 2.85 31.85 6.5 L30.3 7.95 33.75 5.9 38.5 3.05 39.5 2.65 39.7 2.8 Q40 2.9 39.15 3.65 L34.35 7.4 31.3 9.7 34.9 7.5 40.5 4.15 Q41.8 3.45 41.85 3.6 L42.05 3.75 Q42.4 3.85 41.35 4.7 L35.2 9.1 31.4 11.8 35.65 9.2 41.45 5.7 Q42.85 4.9 42.95 5.05 L43.15 5.2"/>
    <path stroke="none" fill="#7dc8e8" d="M18.8 11.5 Q19.5 11.2 16.65 14.05 L15.2 15.55 17.7 14 Q21.8 11.5 21.25 12.1 L21.4 12.2 Q21.65 12.3 21.05 12.9 L17.55 15.85 15.4 17.65 16.45 17 Q20.15 14.75 19.65 15.25 L19.85 15.4 Q20.5 15.15 18 17.7 L17.05 18.7 17.55 18.4 Q19.6 17.05 19.55 17.35 L19.7 17.5 Q20.65 17.15 17.05 20.35 L15.9 21.4 18.05 20.1 21.35 18.15 Q22 17.8 22 17.9 L22.2 18.05 Q23.2 17.7 19.25 21.05 L17.45 22.6 19.6 21.3 23.1 19.35 23.3 19.5 Q24.35 19.15 20.1 22.7 L18.2 24.35 19.15 23.75 21.9 22.25 22.1 22.4 Q23.1 22 19.05 25.55 L18.15 26.35 19.1 25.75 Q22.2 23.85 21.8 24.25 L22 24.4 Q22.45 24.2 20.75 26.5 L20 27.55 21.95 26.4 Q25.55 24.15 25.05 24.65 L25.25 24.8 Q26.35 24.4 21.9 28.05 L19.85 29.75 23.25 27.7 28.2 24.75 Q29.3 24.15 29.35 24.25 L29.55 24.4 Q29.85 24.5 29.1 25.15 L25 28.5 22.6 30.45 24.05 29.6 Q29.65 26.1 29.1 26.75 L29.3 26.85 Q30.45 26.5 25.7 30.2 L23.9 31.65 Q25.5 30.65 25.4 30.9 L25.6 31.05 Q26.1 30.85 24.4 33 L23.75 33.9 24.7 33.3 Q27.3 31.7 27 32.05 L27.2 32.2 27.1 32.6 26.95 32.6 Q26.35 32.95 25 33.8 L22.9 35 22.8 34.95 22.65 34.85 Q22.1 35.05 23.95 32.65 L24.45 32 23.75 32.45 Q21.35 33.95 21.5 33.65 L21.3 33.5 Q21.05 33.4 21.7 32.8 L25.35 29.75 27.05 28.4 Q25.7 29.2 24.3 30.05 L21 32.05 20.35 32.3 20.15 32.15 Q19.9 32.05 20.6 31.4 L24.65 28.1 27.45 25.85 Q25.6 26.95 23.5 28.2 L19 30.9 18.05 31.25 17.9 31.15 Q17.65 31.05 18.2 30.45 L21.55 27.6 23 26.4 22.25 26.85 19.15 28.55 18.95 28.4 Q18.45 28.65 20.3 26.15 L20.9 25.3 19.4 26.25 Q15.95 28.35 16.35 27.9 L16.15 27.8 Q15.3 28.05 18.7 25.1 L20.15 23.8 19.45 24.25 Q16 26.35 16.4 25.9 L16.2 25.75 Q15.05 26.2 19.75 22.25 L21.15 21.05 19.9 21.8 16.4 23.85 15.75 24.1 15.55 23.95 Q14.5 24.35 18.9 20.6 L20.2 19.45 18.3 20.6 14.9 22.6 14.25 22.85 14.05 22.7 Q13.2 23.05 16.65 19.95 L17.7 19 15.8 20 15.6 19.85 Q14.9 20.1 17.6 17.35 L18.35 16.5 16.75 17.5 Q12.85 19.85 13.4 19.35 L13.2 19.2 Q12.95 19.1 13.55 18.5 14.2 17.9 17.2 15.4 L19.15 13.85 18 14.5 14.55 16.55 13.9 16.8 13.7 16.65 Q12.85 17 16.25 13.65 L17.25 12.65 14.9 14.05 Q10.8 16.6 11.35 16 L11.2 15.9 Q11.1 15.65 11.3 15.5 L11.4 15.45 14.6 13.6 17.95 11.6 Q18.6 11.25 18.6 11.35 L18.8 11.5"/>
    <path stroke="none" fill="#7dc8e8" d="M15.9 5.15 L16.1 5.25 Q16.35 5.4 15.7 6 L11.95 9.05 8.7 11.65 13.15 9 17.45 6.4 Q18.25 5.95 18.25 6.1 L18.45 6.25 Q18.8 6.35 17.8 7.15 L12.2 11.35 10.05 12.95 12.45 11.45 17.3 8.55 Q18.4 7.95 18.45 8.05 L18.65 8.2 Q19 8.3 18 9.15 L12.25 13.45 Q10.55 14.7 8.95 15.9 L12 14.05 16.65 11.25 Q17.7 10.65 17.75 10.8 L17.95 10.95 Q18.2 11.05 17.55 11.6 L13.95 14.55 10.6 17.2 10.7 17.3 Q11.3 17 9.1 19.75 L8.5 20.55 8.7 20.45 Q10.65 19.2 10.5 19.5 L10.65 19.6 Q11.4 19.3 8.55 22.5 L7.85 23.3 9.4 22.4 Q12.9 20.25 12.4 20.75 L12.6 20.85 Q13.6 20.5 9.45 24.05 L8.35 25 Q9.95 24 9.85 24.25 L10 24.4 Q10.5 24.1 8.75 26.75 L8.3 27.45 8.95 27 Q10.75 25.9 10.6 26.15 L10.75 26.3 Q11.5 26 8.65 28.95 L7.55 30.1 8.65 29.45 Q11.7 27.6 11.3 28 L11.45 28.15 Q12.15 27.9 9.6 30.6 L8.85 31.4 Q10.5 30.35 10.45 30.55 L10.65 30.7 10.55 31.1 10.4 31.15 9 32 7.55 32.8 7.5 32.75 7.3 32.65 Q6.65 32.85 9.15 30.2 L10 29.3 8.95 29.95 Q5.85 31.85 6.25 31.4 L6.1 31.25 Q5.3 31.55 8.25 28.55 L9.2 27.5 7.45 28.45 7.25 28.3 Q6.85 28.5 8.25 26.45 L9.05 25.25 8.05 25.85 Q6.05 27.1 6.25 26.8 L6.05 26.65 Q5.1 27 9.05 23.6 L10.5 22.4 9.7 22.85 6.7 24.5 6.5 24.35 Q5.95 24.6 8.15 22.1 L9.35 20.65 Q9.15 20.8 9 20.9 7.3 22 7.45 21.7 L7.25 21.6 Q6.75 21.8 8.65 19.4 L9.5 18.35 9.1 18.45 8.9 18.3 Q8.6 18.2 9.35 17.55 L13.6 14.1 15.6 12.5 12.3 14.5 7.5 17.4 6.4 17.85 6.2 17.7 Q5.85 17.6 6.75 16.85 L11.9 13 16.3 9.8 12.75 11.95 8.15 14.7 7.1 15.15 6.9 15 Q6.6 14.9 7.4 14.25 L11.85 10.9 15.6 8.15 13.45 9.45 8.2 12.55 6.95 13.1 6.75 12.95 Q6.45 12.85 7.2 12.15 L11.6 8.6 13.6 7 11.85 8.05 7.45 10.7 6.35 11.15 6.15 11 Q5 11.45 9.75 7.55 L11.5 6.1 10.05 7 Q5.5 9.85 5.85 9.3 L5.65 9.15 Q4.7 9.5 8.55 6.2 L9.95 4.95 7.85 6.3 Q3.9 8.75 4.2 8.3 L4.05 8.15 Q3.3 8.45 6.2 5.6 L7.6 4.15 6.75 4.7 Q3.85 6.55 4 6.2 L3.8 6.05 Q3.2 6.35 5.45 3.7 L6.1 2.9 5.85 3.05 4.4 3.85 4.2 3.7 Q4.1 3.45 4.3 3.3 L4.4 3.3 5.55 2.6 Q7.45 1.45 7.25 1.7 L7.4 1.85 Q8 1.65 5.9 4.05 L4.95 5.15 6.45 4.2 Q9.1 2.5 8.95 2.85 L9.15 3 Q10 2.6 6.6 5.95 L5.55 7.05 7.55 5.8 Q11.95 3.05 11.6 3.55 L11.8 3.7 Q12.8 3.35 8.9 6.65 L7.5 7.9 9.75 6.5 Q13.85 3.9 13.5 4.4 L13.65 4.55 Q14.8 4.15 10.15 7.95 L8.1 9.7 11.55 7.6 15.2 5.4 Q15.9 5 15.9 5.15"/>
    <path stroke="none" fill="#fac49d" d="M41.5 8.55 L42.55 8.65 Q43.1 8.65 43.15 9.15 43.15 9.65 42.65 9.75 L41.6 9.7 41.55 10.7 41 11.25 Q40.5 11.15 40.45 10.65 L40.45 9.4 Q40.5 9.05 40.8 8.8 41.05 8.5 41.5 8.55"/>
    <path stroke="none" fill="#fac49d" d="M29.75 34.75 Q29.95 34.25 30.45 34.35 30.95 34.55 30.85 35.05 L30.75 35.45 Q30.8 36.35 31.55 37.05 31.9 37.45 31.6 37.85 L31.15 38.05 30.8 37.9 Q29.7 36.85 29.65 35.45 L29.75 34.75 M41.25 16.5 Q41.15 16.95 40.7 17 L40.65 17 Q40.1 16.9 40.1 16.4 L40.2 15.35 40.35 13.5 Q40.4 13 40.95 13 41.45 13.1 41.45 13.6 L41.3 15.45 41.25 16.5 M39.9 21.5 L39.95 19.3 Q40 18.75 40.5 18.75 41.05 18.8 41.05 19.35 L41 21.5 41 22.2 40.45 22.75 Q39.9 22.7 39.9 22.2 L39.9 21.5 M41.35 30.75 L41.8 33 42.1 33.55 Q42 34.05 41.55 34.05 L41.5 34.05 41.4 34.05 Q40.95 33.95 40.8 33.5 40.45 32.3 40.25 30.9 40.2 30.4 40.7 30.25 41.25 30.25 41.35 30.75 M40.55 28.5 L40.5 28.5 Q40 28.45 39.95 28 L39.85 25.05 Q39.95 24.55 40.45 24.5 40.95 24.55 41 25.05 L41.05 27.9 Q41.05 28.45 40.55 28.5 M44.6 33.6 Q45.35 34.3 45.4 35.35 L44.95 36.9 Q44.8 37.2 44.45 37.2 L44.2 37.15 Q43.75 36.85 43.95 36.4 L44.25 35.35 Q44.25 34.8 43.85 34.45 43.5 34.05 43.8 33.65 L44.6 33.6 M42.85 38.25 Q42.95 38.8 42.5 39 L39.5 39.45 39.45 39.45 Q38.95 39.4 38.9 38.9 38.95 38.4 39.45 38.35 L42.1 37.95 Q42.6 37.8 42.85 38.25 M36.3 39.45 L35.1 39.5 34.6 39.5 33.6 39.35 Q33.1 39.2 33.15 38.65 33.35 38.2 33.85 38.25 L34.65 38.35 36.25 38.35 36.55 38.3 Q37.1 38.35 37.15 38.85 37.15 39.35 36.6 39.45 L36.3 39.45"/>
    <path stroke="none" fill="#fac49d" d="M34.4 33.25 L34.4 33.65 33.9 34.15 32.9 34.3 32.6 34.25 Q32.1 34.2 32.05 33.7 32.1 33.2 32.65 33.15 L33.25 33.15 33.45 31.75 Q33.55 31.25 34.05 31.25 34.6 31.35 34.55 31.85 L34.4 33.25"/>
    <path stroke="none" fill="#fac49d" d="M33.3 15.3 Q33.9 15.35 34.05 15.9 L34.3 16.95 Q34.35 17.5 33.85 17.6 L33.75 17.6 33.2 17.15 33.1 16.6 32.7 17.2 31.95 17.35 Q31.55 17.05 31.75 16.6 L32.5 15.55 32.75 15.35 33.05 15.3 33.3 15.3 M29.85 21.1 L30.15 20.3 30.5 19.4 Q30.7 18.9 31.2 19.05 31.65 19.3 31.55 19.75 L31.2 20.65 30.9 21.5 30.5 22.55 Q30.35 22.9 30 22.9 L29.8 22.9 Q29.35 22.65 29.45 22.15 L29.85 21.1 M34.5 20.05 L34.55 21.85 34.6 22.95 Q34.6 23.45 34.1 23.55 L34.05 23.55 Q33.55 23.5 33.5 23 L33.45 21.9 33.35 20.1 Q33.4 19.55 33.9 19.5 34.4 19.5 34.5 20 L34.5 20.05 M15.45 22.05 L15.25 22.05 Q14.9 22.05 14.75 21.7 L14.5 21 13.85 18.85 Q13.7 18.35 14.2 18.15 14.7 18.05 14.9 18.5 L15.55 20.65 15.8 21.3 Q15.9 21.8 15.45 22.05 M16.9 24 L17.45 25.55 17.85 26.9 Q17.9 27.45 17.4 27.6 L17.3 27.6 Q16.85 27.6 16.75 27.2 L16.4 25.9 15.85 24.45 Q15.7 23.95 16.15 23.7 16.65 23.55 16.9 24 M17.85 29.4 Q18.35 29.3 18.55 29.75 18.95 31.35 19.55 32.4 19.8 32.85 19.35 33.15 L19.1 33.25 18.6 32.95 Q17.9 31.75 17.45 30.1 17.35 29.55 17.85 29.4 M22.5 34.85 L23.75 34.9 Q24.25 34.8 24.4 35.3 24.5 35.8 24 35.95 L23.2 36.05 22.25 35.95 Q21.45 35.8 20.75 35.35 20.35 35 20.55 34.55 20.9 34.15 21.35 34.4 L22.5 34.85 M34.7 25.9 L34.75 28.2 34.75 28.9 34.2 29.45 34.15 29.45 Q33.65 29.4 33.6 28.9 L33.6 28.2 33.6 25.95 Q33.6 25.45 34.15 25.35 34.65 25.4 34.7 25.9 M29.05 26.2 L28.3 28.05 Q28.15 28.4 27.75 28.4 L27.55 28.35 Q27.1 28.15 27.25 27.65 L28 25.75 28.4 24.9 Q28.6 24.45 29.1 24.6 29.55 24.85 29.4 25.3 L29.05 26.2 M27.35 30.8 L27.3 31 26.4 33.65 Q26.25 34 25.9 34 L25.65 33.95 Q25.2 33.75 25.35 33.25 L26.2 30.65 26.25 30.5 Q26.45 30 26.95 30.1 27.45 30.3 27.35 30.8"/>
    <path stroke="none" fill="#fac49d" d="M11.95 14.65 Q12.1 14.5 12.3 14.5 13.2 14.45 13.8 15.65 14 16.15 13.55 16.4 13.05 16.6 12.8 16.15 L12.45 15.65 Q12.25 16.05 12.2 16.55 12.15 17 11.65 17.05 L11.6 17 Q11.1 16.9 11.1 16.4 11.15 15.7 11.6 14.9 L11.95 14.65"/>
    <path stroke="none" fill="#fac49d" d="M10.9 23.25 Q10.4 23.2 10.35 22.7 L10.65 19.45 Q10.8 19 11.3 19 11.8 19.15 11.75 19.65 L11.45 22.75 Q11.4 23.2 10.9 23.25 M11.55 25.85 L11.75 28.65 11.8 28.95 Q11.8 29.5 11.3 29.6 L11.25 29.6 Q10.75 29.55 10.7 29.05 L10.65 28.75 10.4 25.9 Q10.45 25.4 10.95 25.3 11.45 25.35 11.55 25.85"/>
    <path stroke="none" fill="#fac49d" d="M14.05 34 L13.5 34.45 13.35 34.4 12.25 34.25 11.7 34 11.45 33.75 11 32.3 Q10.95 31.8 11.45 31.65 11.95 31.6 12.1 32.1 L12.4 33.15 13.65 33.35 Q14.1 33.5 14.05 34"/>
    <path stroke="none" fill="#fac49d" d="M44.3 4.8 Q44.65 4.45 45.05 4.8 45.95 5.55 46 6.7 L46 6.85 45.7 8.15 Q45.5 8.4 45.2 8.45 L44.95 8.35 Q44.5 8.05 44.7 7.6 L44.9 6.85 44.9 6.75 Q44.85 6.1 44.3 5.6 44 5.25 44.3 4.8 M41.9 4.6 L41.2 4.45 39.1 4.2 Q38.55 4.1 38.55 3.55 38.65 3.05 39.15 3.05 L41.4 3.35 42.15 3.5 Q42.65 3.65 42.6 4.15 L42.05 4.6 41.9 4.6 M36.2 4.15 L34.8 4.3 33.5 4.6 33.3 4.65 32.8 4.3 Q32.65 3.8 33.1 3.55 L34.65 3.15 36.15 3 Q36.7 3.05 36.75 3.55 36.75 4.05 36.2 4.15 M15.4 3.9 L16.15 3.8 Q17.3 4.75 18 6.45 18.15 6.9 17.7 7.15 L17.45 7.2 16.95 6.85 Q16.35 5.45 15.45 4.7 15.1 4.3 15.4 3.9 M17.9 9.6 Q17.8 9.1 18.3 8.85 18.8 8.75 19 9.25 L19.7 11.45 19.9 12.05 Q20 12.55 19.5 12.75 L19.35 12.75 Q18.95 12.75 18.8 12.4 L18.6 11.8 17.9 9.6 M31.35 5.4 Q31.75 5.75 31.5 6.2 31.1 6.7 30.85 7.4 L30.3 8.7 29.8 9.05 29.6 9.05 Q29.1 8.8 29.25 8.3 L29.8 6.95 30.55 5.55 Q30.9 5.15 31.35 5.4 M28.35 11.15 Q28.55 10.7 29.05 10.75 29.55 10.95 29.45 11.45 L29.25 12.25 28.8 13.75 28.65 14.3 28.1 14.7 27.95 14.7 Q27.5 14.5 27.6 14 L27.75 13.45 28.15 11.95 28.35 11.15 M27.5 16.45 Q27.95 16.6 27.9 17.1 L27.15 19.95 26.6 20.4 26.5 20.35 Q26 20.2 26.1 19.7 L26.8 16.85 Q27 16.35 27.5 16.45 M26.1 22.15 Q26.55 22.35 26.45 22.85 25.95 24.6 25.1 25.5 L24.9 25.65 24.55 25.8 Q24.3 25.8 24.1 25.55 23.85 25.15 24.2 24.8 L24.3 24.7 Q24.95 24.05 25.4 22.5 25.6 22.05 26.1 22.15 M21.15 18.35 Q20.75 18.35 20.6 17.95 L19.7 15.2 Q19.6 14.65 20.05 14.45 20.55 14.35 20.75 14.85 L21.65 17.65 Q21.8 18.1 21.3 18.35 L21.15 18.35 M22.55 20.45 L23.4 23.25 Q23.5 23.75 23 23.95 L22.85 24 22.3 23.55 21.5 20.75 Q21.4 20.25 21.85 20.05 22.35 19.95 22.55 20.45 M16.7 36.55 L16.6 37.4 15.9 38.6 15.5 38.75 15.1 38.6 Q14.75 38.2 15.1 37.8 L15.5 37.1 15.6 36.55 15.4 35.75 Q15.15 35.25 15.6 35 16.1 34.75 16.35 35.2 16.7 35.8 16.7 36.55 M2.3 5.3 Q2.55 4.85 3.05 5 3.5 5.2 3.35 5.7 L3.2 6.3 3.1 7 Q3.1 7.65 3.35 8.1 3.5 8.6 3.05 8.85 L2.85 8.95 2.3 8.6 Q2 7.9 1.95 7 L2.1 6.05 2.3 5.3 M4.2 3.6 Q3.95 3.1 4.35 2.8 4.95 2.4 5.65 2.15 L7.35 1.75 Q7.85 1.75 7.95 2.25 8 2.75 7.5 2.85 L6.05 3.2 Q5.45 3.4 5 3.75 L4.65 3.85 4.2 3.6 M13.2 3.5 L13.05 3.45 10.3 2.85 Q9.75 2.75 9.8 2.25 9.9 1.75 10.4 1.75 L13.4 2.4 Q13.85 2.6 13.75 3.1 L13.2 3.5 M7.45 9.3 L7.7 10.2 Q7.75 10.7 7.25 10.85 L7.15 10.85 Q6.7 10.85 6.6 10.45 L6.5 10 5.25 10.35 Q4.7 10.35 4.65 9.85 4.65 9.3 5.15 9.25 L6.2 8.8 6.7 8.6 Q7.35 8.7 7.45 9.3 M7 13.25 Q7 12.75 7.5 12.65 8.05 12.65 8.1 13.15 L8.15 14.9 8.15 16.15 7.6 16.7 Q7.1 16.65 7.05 16.15 L7.05 14.9 7 13.25 M6.95 21.05 L7.05 19.05 Q7.05 18.55 7.6 18.5 8.1 18.6 8.15 19.1 L8.1 21.1 8.05 22.05 7.5 22.6 7.45 22.6 Q6.95 22.5 6.95 22 L6.95 21.05 M4.25 33.8 Q4.5 34.25 4.05 34.55 2.85 35.25 2.8 36.25 L2.85 36.35 Q2.8 36.85 2.3 36.95 L2.25 36.95 Q1.8 36.95 1.7 36.45 L1.7 36.25 Q1.75 34.65 3.5 33.6 3.95 33.35 4.25 33.8 M7.65 27.55 L7.6 27.95 Q7.5 28.4 7.05 28.45 L7 28.45 Q6.45 28.3 6.5 27.8 L6.5 27.45 6.75 24.9 Q6.85 24.4 7.35 24.4 7.85 24.45 7.85 25 L7.65 27.55 M7.3 30.85 L7.25 32.65 7.25 33.45 7.05 34.05 6.6 34.25 6.25 34.15 Q5.9 33.8 6.1 33.4 L6.15 33.35 6.15 32.65 6.2 30.75 Q6.3 30.25 6.8 30.25 7.3 30.3 7.3 30.85 M10.8 38.85 L12.75 38.75 Q13.25 38.7 13.4 39.2 13.4 39.75 12.9 39.85 L10.8 39.95 10.7 39.95 9.9 39.95 Q9.35 39.9 9.35 39.4 9.4 38.85 9.9 38.85 L10.7 38.85 10.8 38.85 M6.65 39.7 L3.9 39 Q3.45 38.75 3.6 38.3 3.85 37.8 4.35 38 L6.8 38.6 7.05 38.6 Q7.55 38.75 7.55 39.25 L6.95 39.75 6.9 39.75 6.65 39.7"/>
  </g>
</svg>