<svg width="39.75px" height="40.45px" viewBox="0 0 39.75 40.45" xmlns="http://www.w3.org/2000/svg" xmlns:xlink="http://www.w3.org/1999/xlink">
  <defs/>
  <g>
    <path stroke="none" fill="#7279b8" d="M31.85 0 Q36.1 0 38.35 2.1 40.95 5 38.65 8.45 37.5 10 35.55 10.55 35.45 11.4 35.5 12.4 L35.35 16.05 35.25 17.3 Q35.1 21.65 35.4 26.1 L35.4 26.85 35.6 31.55 35.65 32.4 Q35.9 34.55 35.4 36.9 34.25 40.2 30.15 40.35 L29.6 40.35 Q26.45 39.85 24.9 38.1 L24.85 38.1 24.75 38 24.7 38 Q22.3 36.1 20.85 33.7 L20.2 32.75 18.75 30.75 16.3 27.4 14.15 24.15 12.9 22.1 12.9 24.1 Q13.05 27.5 13.6 30.45 16.05 30.85 17.35 32.35 18.5 33.45 18.25 36.35 17.45 39.15 15.05 39.8 12.6 40.5 10.95 40.4 L10.6 40.4 9.6 40.45 5.85 40.2 Q3.55 40.1 1.4 38.45 -0.05 37.1 0 35 0.15 32.9 1.75 31.6 2.95 30.75 4.35 30.55 L4.6 28.4 4.85 26.45 Q5.2 23.9 5.1 20.6 5.2 15.45 4.15 10.75 2.5 10.75 0.95 8.9 -0.55 6.75 0.8 4 1.95 2.05 3.75 1.45 L6.45 0.9 7.95 0.85 Q10.1 0.8 11.95 1.45 15 2.35 17.4 5.7 L18.85 7.95 20.25 10.1 22.7 14 23.35 15.05 26.45 20.15 26.8 15.6 26.85 15 Q27.2 12.4 26.6 10.4 L26.55 10.4 26.15 10.4 24.9 10.35 Q20.9 9 21.25 4.8 21.7 2.65 23.3 1.8 24.9 0.9 25.85 0.75 L30.15 0.1 30.2 0.1 31.85 0"/>
    <path stroke="none" fill="#5f7ba6" d="M36.75 3.75 Q38.1 5.4 36.85 7.1 35.6 8.55 33.7 8.5 33.45 8.6 33.55 8.8 33.05 10.6 33.2 12.4 L32.95 17.15 Q32.8 22.05 33.15 26.95 L33.35 31.65 Q33.6 34 33.2 36.3 32.15 38.4 29.7 38.1 27.7 37.85 26.35 36.45 L26.25 36.35 26.1 36.25 26.05 36.2 25.95 36.15 Q23.55 34.1 21.95 31.4 L18.05 26.05 14.6 20.65 13.25 18.65 Q12.85 17.75 12.05 17.25 L11.8 17.3 Q11.65 17.25 11.6 17.4 10.25 20.65 10.6 24.2 10.8 28.35 11.7 32.45 L11.8 32.55 11.85 32.6 11.9 32.6 Q15.9 32.25 16 35.95 15.5 37.55 13.7 37.9 L10.5 38.2 6.1 38 Q4.3 37.9 2.85 36.8 1.45 35 3.05 33.4 4.4 32.6 5.95 32.7 L6.25 32.65 7.05 26.75 7.3 20.55 Q7.5 14.5 5.8 8.75 L5.65 8.65 5.5 8.55 Q3.8 8.85 2.7 7.6 2 6.3 2.75 5.05 4.2 3.15 6.65 3.15 L11.25 3.55 Q13.95 4.6 15.5 7 L18.4 11.4 21.4 16.25 Q24.4 21.4 27.75 26.4 28.05 26.6 28.1 26.25 L28.1 26.2 29 15.8 Q29.8 11.75 27.95 8.3 L27.7 8.2 27.65 8.2 25.2 8.1 Q23.25 7.3 23.4 5.1 24.25 3.25 26.4 2.9 L30.35 2.3 Q33.9 1.75 36.75 3.75"/>
    <path stroke="none" fill="#7dc8e8" d="M14.35 33.55 Q14.9 33.35 12.85 35.85 L12.3 36.6 13.3 35.95 Q16.25 34.15 15.95 34.55 L16.15 34.7 16.05 35.05 15.9 35.1 13.6 36.45 11.3 37.7 11.1 37.6 Q10.6 37.8 12.4 35.55 L13.25 34.4 10.55 36.05 Q6.9 38.4 7 38.1 L6.95 38.1 6.75 37.95 Q5.7 38.35 9.95 34.7 L11.55 33.2 9.45 34.5 Q4.75 37.45 5.15 36.9 L4.95 36.8 Q3.9 37.15 8.25 33.5 L10.55 31.5 7.8 33.15 4.15 35.35 3.4 35.6 3.25 35.45 3.25 34.25 3.3 33.75 2.9 34 1.6 34.65 1.45 34.5 Q1.35 34.3 1.55 34.15 L1.6 34.1 2.6 33.5 Q3.75 32.8 3.7 33 L3.85 33.1 3.85 34.3 3.8 34.9 7.5 32.65 11.35 30.35 12.15 30.05 12.35 30.2 Q12.6 30.3 12 30.9 L8.6 33.9 6.85 35.45 9.2 34.05 Q13.8 31.15 13.25 31.75 L13.45 31.9 Q14.5 31.5 10.3 35.1 L8.65 36.6 10.25 35.6 Q14.5 32.95 14.15 33.45 L14.35 33.55"/>
    <path stroke="none" fill="#7dc8e8" d="M35 2.4 Q36.05 2 31.8 5.65 L30.4 6.9 31.9 5.95 Q36 3.4 35.55 3.95 L35.7 4.1 Q35.95 4.2 35.3 4.8 34.65 5.45 31.4 8.1 L29.45 9.7 31.1 8.7 35.25 6.25 Q36.1 5.75 36.15 5.9 L36.3 6 Q37.45 5.6 32.8 9.45 L30.65 11.3 31.9 10.55 Q35.35 8.45 34.9 8.95 L35.05 9.05 Q36 8.75 32.2 12.05 L30.5 13.6 Q31.75 12.85 31.7 13.05 L31.85 13.15 Q32.5 12.95 30.15 15.45 L29.35 16.4 29.75 16.15 Q32.05 14.7 31.8 15.05 L32 15.15 Q32.4 14.95 31.05 17.15 L30.55 18.05 30.9 17.85 Q32.65 16.7 32.6 16.95 L32.75 17.1 Q33.55 16.75 30.5 19.8 L29.3 21.1 30.85 20.15 Q34.85 17.75 34.25 18.3 L34.45 18.4 Q35.5 18 31.25 21.75 L29.7 23.15 31.05 22.35 Q34.55 20.25 34.05 20.7 L34.2 20.85 Q34.35 21.1 34.1 21.25 L34 21.25 31.35 22.85 Q27.85 24.95 28.1 24.65 L28.05 24.65 27.85 24.5 Q26.85 24.9 30.9 21.35 L32.6 19.75 31.15 20.65 27.95 22.4 27.75 22.25 Q26.95 22.6 30.1 19.4 L31.2 18.3 Q29.75 19.25 29.8 19 L29.65 18.9 Q29.25 19.1 30.55 16.9 L31.1 15.95 30.05 16.6 28.1 17.65 27.95 17.5 Q27.25 17.75 29.75 15.05 L30.45 14.3 30.35 14.35 Q28.5 15.55 28.65 15.25 L28.5 15.1 Q27.4 15.55 31.8 11.65 L33.05 10.55 32.2 11.05 Q28.3 13.45 28.85 12.9 L28.65 12.75 Q28.4 12.65 29 12.05 L32.45 9.05 34.45 7.35 31.35 9.2 27.9 11.25 27.25 11.5 27.05 11.35 Q26.8 11.25 27.45 10.65 L31.05 7.65 33.5 5.65 32.2 6.45 Q28.2 8.9 28.65 8.4 L28.45 8.25 Q27.5 8.6 31.4 5.25 L33.2 3.65 29.9 5.65 26 7.95 25.25 8.25 25.1 8.1 Q23.95 8.5 28.6 4.65 L30.7 2.8 27.45 4.75 23.45 7.15 22.7 7.45 22.5 7.3 Q21.8 7.6 24.5 4.75 L25.55 3.55 Q24.3 4.35 24.35 4.15 L24.2 4 Q24.1 3.8 24.3 3.65 L24.4 3.6 25.55 2.9 Q26.95 2 26.85 2.25 L27.05 2.35 Q27.75 2.05 24.9 5.1 L23.85 6.25 27.15 4.3 31.5 1.7 Q32.35 1.25 32.4 1.35 L32.55 1.5 Q33.75 1.05 28.95 5.1 L27.05 6.7 29.6 5.15 Q33 3.1 33.9 2.6 34.8 2.15 34.8 2.25 L35 2.4"/>
    <path stroke="none" fill="#7dc8e8" d="M34.2 26.4 L30.2 29.5 27.6 31.5 28.45 30.95 Q32.1 28.65 31.7 29.15 L31.9 29.3 Q32.8 29 29.15 32.2 L27.5 33.7 29.8 32.25 Q34.6 29.25 34.15 29.8 L34.35 29.95 Q34.6 30.05 34 30.65 L30.3 33.7 28.5 35.15 29.6 34.5 33.85 32.1 34.05 32.25 Q34.95 31.95 31.35 35.15 L30.05 36.35 31.35 35.55 Q35.35 33.1 34.8 33.65 L35 33.8 Q35.85 33.5 32.35 36.65 L31.5 37.5 Q32.15 37.05 32.15 37.2 L32.35 37.3 32.25 37.7 32.15 37.75 31.05 38.4 29.75 39.1 29.7 39.1 29.5 38.95 Q28.7 39.25 32 36.25 L33.2 35.1 31.65 36.05 Q27.9 38.35 28.4 37.8 L28.2 37.7 Q27.3 38 31 34.75 L32.3 33.5 29.9 35 Q25.65 37.6 26.25 37 L26.05 36.85 Q25.8 36.75 26.4 36.2 27 35.6 29.95 33.3 L32.2 31.45 30.1 32.75 Q25.35 35.7 25.9 35.1 L25.7 34.95 Q24.7 35.3 28.75 31.75 L29.95 30.7 28.75 31.45 Q24.75 33.95 25.1 33.5 L24.9 33.35 Q24.6 33.25 25.35 32.55 L29.85 29.05 32.1 27.35 28.65 29.45 24.75 31.75 23.95 32.1 23.75 31.95 Q23.5 31.85 24.2 31.2 L28.45 27.8 31.35 25.45 27.1 28 22.3 30.85 21.3 31.3 21.15 31.15 Q20 31.55 24.65 27.7 L26.1 26.5 25.1 27.1 Q21.35 29.4 21.85 28.85 L21.7 28.75 Q21.1 29 23.25 26.35 L24 25.4 22.05 26.6 Q17.9 29.15 18.4 28.6 L18.2 28.5 Q17.25 28.8 21.05 25.65 L22.75 24.2 21.6 24.85 17.9 26.9 17.75 26.8 Q17.5 26.7 18.1 26.1 L21.65 23.05 23.3 21.7 21.7 22.65 17.7 25 16.85 25.35 16.7 25.2 Q16.45 25.1 17 24.5 L20.45 21.6 21.95 20.3 19.7 21.7 15.9 23.95 Q15.1 24.4 15.1 24.25 L14.9 24.15 Q13.9 24.45 17.85 21.1 L19.15 20 18.9 20.15 Q16.15 21.95 16.3 21.6 L16.1 21.45 Q15.3 21.75 18.45 18.7 L19.4 17.8 17.4 19 14.1 20.95 13.45 21.2 13.3 21.05 Q13 20.95 13.7 20.3 L17.7 17.05 19.85 15.3 18.3 16.2 14.45 18.5 13.6 18.85 13.45 18.7 Q12.45 19.1 16.35 15.5 L17.5 14.4 14.8 16 11.5 17.95 10.85 18.2 10.7 18.05 Q10.6 17.85 10.8 17.7 L10.9 17.65 14.5 15.5 18.3 13.3 Q19 12.9 19 13 L19.2 13.15 Q20.05 12.85 16.75 15.9 L15 17.55 18 15.75 21.4 13.75 Q22.05 13.4 22.05 13.5 L22.2 13.65 Q22.5 13.75 21.85 14.35 L18.05 17.45 15.55 19.45 Q16.35 19 17.1 18.5 21.5 15.85 20.85 16.45 L21.05 16.6 Q21.8 16.3 18.85 19.1 L17.7 20.25 18.6 19.7 Q21.25 18 21.1 18.35 L21.3 18.45 Q22.3 18.1 18.25 21.55 L16.9 22.75 19.4 21.2 23.15 19 Q23.9 18.55 23.95 18.7 L24.1 18.8 Q25.2 18.45 20.8 22.05 L18.65 23.8 21.4 22.2 Q24.1 20.55 24.75 20.2 25.4 19.8 25.4 19.95 L25.6 20.05 Q26.75 19.65 22.05 23.45 L19.8 25.35 21.3 24.4 Q25.2 22 24.65 22.55 L24.85 22.7 Q25.95 22.25 21.4 26.05 L20.35 26.95 21.75 26.15 Q25.5 23.8 25 24.35 L25.15 24.45 Q25.75 24.25 23.7 26.7 L22.85 27.8 24.8 26.6 Q28.6 24.25 28.1 24.8 L28.3 24.95 Q29.35 24.55 25.05 28.1 L23.05 29.8 26.8 27.55 Q30.85 25.05 32.05 24.4 L33.3 23.9 33.5 24 Q33.75 24.1 33.05 24.8 L28.8 28.25 26.2 30.25 28.35 28.95 Q32 26.7 33.15 26.1 34.3 25.45 34.4 25.55 L34.6 25.7 Q34.85 25.8 34.2 26.4"/>
    <path stroke="none" fill="#7dc8e8" d="M6.35 2.65 L5.3 4.55 4.7 5.45 5.85 4.75 Q7.95 3.35 7.85 3.65 L8.05 3.8 Q8.6 3.5 6.6 6.15 L6 6.95 7.45 6.05 10.4 4.4 10.6 4.55 Q11.2 4.35 9 6.75 L8.3 7.55 9.55 6.8 Q12.2 5.1 11.95 5.45 L12.15 5.6 Q13.15 5.25 9.05 8.75 L7.3 10.3 10.35 8.45 13.6 6.5 Q14.25 6.15 14.25 6.25 L14.45 6.4 14.1 7.05 10.8 9.9 8 12.2 12.1 9.75 Q15.3 7.8 16.05 7.4 L16.8 7.1 17 7.25 Q17.3 7.35 16.45 8.1 L11.3 12.05 9.35 13.5 11.7 12.1 16.3 9.3 17.4 8.85 17.6 9 Q17.95 9.1 17 9.9 L11.6 14.05 8.5 16.3 11.5 14.5 16.15 11.7 Q17.1 11.2 17.15 11.35 L17.3 11.45 Q17.55 11.6 16.95 12.15 L13.5 15 10.75 17.15 13.1 15.75 Q18.55 12.35 18.1 12.95 L18.25 13.1 Q18.6 13.2 17.7 14 L12.45 18.05 10 19.9 10.05 19.9 10.25 20.05 Q10.95 19.7 8.35 22.8 L7.7 23.55 9.15 22.7 Q12.5 20.65 12.05 21.1 L12.25 21.25 Q13.2 20.9 9.2 24.35 L8.2 25.3 Q9.65 24.35 9.55 24.6 L9.75 24.75 8.55 27.05 8.1 27.7 8.8 27.3 Q10.5 26.2 10.35 26.45 L10.55 26.6 Q11.3 26.3 8.4 29.25 L7.3 30.45 8.45 29.75 Q11.55 27.85 11.15 28.3 L11.3 28.4 Q11.45 28.65 11.2 28.8 L11.1 28.85 8.7 30.25 6.05 31.75 6 31.75 5.8 31.6 Q5.05 31.9 8 28.9 L9 27.85 Q7.15 29 7.3 28.7 L7.1 28.6 Q6.75 28.75 8.05 26.75 L8.8 25.55 7.85 26.15 6.15 27.05 6 26.9 Q5 27.25 8.85 23.95 L10.2 22.75 9.45 23.15 Q6.15 25.2 6.6 24.7 L6.45 24.6 Q5.9 24.8 7.9 22.4 L9.05 21.05 8.7 21.25 Q7.2 22.2 7.3 21.95 L7.1 21.85 Q6.8 21.75 7.6 21.05 8.4 20.4 12.1 17.6 L16.05 14.6 13.4 16.25 Q8.4 19.35 8.85 18.75 L8.65 18.65 Q8.4 18.55 9.1 17.85 9.75 17.2 13.15 14.55 L15.05 13 11.8 14.95 7.15 17.75 Q6.1 18.35 6.05 18.2 L5.85 18.1 Q5.55 18 6.4 17.25 L11.25 13.6 15.3 10.55 12 12.55 7.65 15.15 6.6 15.6 6.45 15.45 Q6.15 15.35 6.85 14.75 7.55 14.1 10.95 11.6 L14.3 9.1 12.35 10.25 7.4 13.2 Q6.4 13.75 6.35 13.6 L6.2 13.5 Q5.9 13.4 6.6 12.75 L10.45 9.45 12.15 8 10.65 8.9 Q5.2 12.3 5.7 11.7 L5.5 11.55 Q4.45 11.95 8.7 8.35 L10 7.2 9.85 7.25 Q7 9.1 7.2 8.7 L7 8.6 Q6.4 8.8 8.6 6.4 L9.35 5.55 7.75 6.5 Q4.9 8.35 5.1 7.95 L4.9 7.85 Q4.45 8.05 6.15 5.8 L6.95 4.7 6.15 5.2 Q3.85 6.75 3.95 6.4 L3.75 6.3 Q3.3 6.5 4.85 4.2 L5.3 3.55 4.9 3.8 3.55 4.5 3.4 4.35 Q3.3 4.1 3.5 3.95 L3.55 3.95 4.65 3.3 Q6.3 2.25 6.15 2.5 L6.35 2.65"/>
    <path stroke="none" fill="#fac49d" d="M34.1 9.05 L33.8 10.35 Q33.75 10.85 33.25 10.85 L33.2 10.85 Q32.7 10.75 32.7 10.25 L33 8.85 Q32.95 8.6 33.05 8.4 33.25 7.95 33.7 7.95 L34.65 7.85 Q35.15 7.8 35.3 8.3 35.4 8.8 34.9 8.95 L34.1 9.05"/>
    <path stroke="none" fill="#fac49d" d="M33.6 15.9 L33.6 16.3 Q33.5 16.75 33.05 16.8 L33 16.8 Q32.5 16.75 32.45 16.2 L32.5 15.85 32.65 13.25 Q32.7 12.75 33.2 12.7 33.7 12.75 33.75 13.25 L33.6 15.9 M33.45 20 L33.5 22.25 32.95 22.8 Q32.4 22.75 32.35 22.25 L32.35 20 32.35 19.25 Q32.4 18.75 32.9 18.7 33.4 18.75 33.45 19.25 L33.45 20 M32.55 26.95 L32.5 25.25 Q32.5 24.75 33 24.7 33.55 24.7 33.6 25.2 L33.7 26.9 33.75 28.2 Q33.75 28.7 33.2 28.8 32.7 28.75 32.65 28.25 L32.55 26.95 M33.3 30.65 Q33.8 30.7 33.9 31.2 L33.9 31.6 33.95 32.5 34 34.1 34 34.2 Q33.95 34.75 33.45 34.8 32.9 34.7 32.9 34.2 L32.9 34.1 32.8 32.55 32.8 31.65 32.75 31.25 Q32.8 30.75 33.3 30.65 M30.1 37.55 Q31.6 37.5 32.3 36.7 L33.1 36.65 Q33.5 37 33.2 37.45 32.15 38.65 30.1 38.65 L30 38.65 Q29.5 38.6 29.45 38.1 29.55 37.55 30.05 37.55 L30.1 37.55 M15.05 20.35 L16.55 22.65 16.65 22.85 Q16.85 23.3 16.45 23.6 L16.15 23.7 15.7 23.45 15.55 23.25 14.15 20.95 14.1 20.95 Q13.85 20.5 14.25 20.15 14.7 19.9 15 20.3 L15.05 20.35 M17.35 26 Q17.05 25.55 17.45 25.2 17.9 24.95 18.25 25.35 L18.5 25.65 20 27.75 Q20.3 28.2 19.9 28.55 L19.55 28.65 19.1 28.4 17.6 26.35 17.35 26 M22.4 31.05 L23.15 32.1 23.5 32.65 Q23.75 33.05 23.35 33.4 L23.05 33.5 Q22.75 33.5 22.6 33.25 L22.2 32.7 21.5 31.75 20.85 30.85 Q20.6 30.4 21 30.05 21.4 29.8 21.75 30.2 L22.4 31.05 M26.55 35.85 L26.8 36.1 27.55 36.7 Q27.95 37.05 27.7 37.5 L27.25 37.7 Q27.05 37.75 26.9 37.6 L25.95 36.85 25.85 36.75 25.75 36.65 25.7 36.65 25.6 36.6 24.55 35.7 Q24.2 35.25 24.55 34.9 24.9 34.55 25.35 34.9 L26.2 35.6 26.45 35.75 26.45 35.8 26.5 35.85 26.55 35.85"/>
    <path stroke="none" fill="#fac49d" d="M12.5 18.4 L12 17.9 11.7 18.75 11.15 19.15 11 19.1 Q10.5 18.9 10.65 18.4 L11.1 17.15 Q11.3 16.8 11.7 16.75 L12.3 16.75 13.45 17.8 Q13.7 18.25 13.3 18.55 12.85 18.85 12.5 18.4"/>
    <path stroke="none" fill="#fac49d" d="M6.8 12.45 Q7.3 12.45 7.4 12.95 L7.75 16.05 Q7.7 16.55 7.2 16.65 L7.15 16.65 Q6.7 16.6 6.6 16.1 L6.3 13.1 Q6.3 12.6 6.8 12.45 M7.9 21.65 L7.9 22.25 Q7.85 22.8 7.35 22.8 6.8 22.75 6.8 22.25 L6.8 21.65 6.75 20.55 6.75 19.2 Q6.75 18.65 7.3 18.6 7.8 18.65 7.85 19.15 L7.9 20.5 7.9 21.65 M7.6 26.8 L7.4 28.5 6.85 28.95 6.75 28.95 Q6.25 28.85 6.25 28.35 L6.5 26.65 6.65 25.3 Q6.7 24.8 7.25 24.8 7.75 24.85 7.75 25.4 L7.6 26.8 M11.2 21.6 L11.15 22.7 11.2 24.15 11.2 24.6 Q11.2 25.15 10.7 25.2 L10.65 25.2 Q10.15 25.2 10.1 24.7 L10.05 24.2 10.05 22.7 10.05 21.55 Q10.15 21.05 10.65 21 11.15 21.1 11.2 21.6 M10.85 27.15 Q11.35 27.15 11.45 27.65 L11.9 30.7 Q11.95 31.2 11.45 31.35 L11.35 31.35 Q10.95 31.3 10.8 30.9 L10.35 27.8 Q10.35 27.3 10.85 27.15 M16 34.45 L15.7 34.55 15.25 34.3 Q14.65 33.4 13 33.15 12.5 33.05 12.5 32.55 12.6 32.05 13.15 32.05 15.35 32.35 16.2 33.7 16.45 34.15 16 34.45 M10.2 38.15 Q10.15 38.7 9.65 38.75 L9.55 38.75 6.5 38.55 Q6 38.45 6 37.95 6.1 37.45 6.65 37.45 L9.55 37.6 9.65 37.6 Q10.15 37.65 10.2 38.15 M12.75 38.6 Q12.25 38.55 12.2 38.1 12.15 37.6 12.65 37.45 14.5 37.25 15.1 36.5 L15.9 36.45 Q16.25 36.85 15.95 37.25 15.05 38.3 12.8 38.6 L12.75 38.6 M5.8 32.1 L5.9 31.4 Q6 30.9 6.5 30.9 7.05 31.05 7 31.55 L6.8 32.7 Q6.7 33.25 6.1 33.3 L5.8 33.25 4.5 33.35 4.4 33.35 3.85 32.9 Q3.8 32.4 4.3 32.25 L5.8 32.1 M3.3 37.75 L2.5 37.2 Q1.65 36.4 1.65 35.2 L1.7 34.65 Q1.85 34.15 2.35 34.2 2.85 34.35 2.8 34.85 L2.75 35.2 Q2.8 35.9 3.25 36.35 L3.85 36.8 Q4.3 37.05 4.1 37.55 L3.6 37.85 3.3 37.75"/>
    <path stroke="none" fill="#fac49d" d="M6.35 8.6 L6.8 9.85 Q6.85 10.35 6.4 10.55 L6.25 10.55 Q5.85 10.55 5.7 10.15 L5.4 9.15 4.1 9.05 Q3.6 8.95 3.65 8.4 3.8 7.9 4.3 7.95 L5.55 8 6 8.15 6.35 8.6"/>
    <path stroke="none" fill="#fac49d" d="M10.9 3.4 L10.35 3.85 10.2 3.85 7.2 3.65 6.6 3.1 Q6.65 2.6 7.15 2.5 L10.45 2.75 Q10.95 2.9 10.9 3.4 M4.6 3.5 Q4.8 4 4.35 4.25 3.65 4.65 3.3 5.25 L2.95 6.3 2.4 6.85 2.35 6.85 Q1.85 6.75 1.85 6.2 1.9 5.5 2.3 4.75 2.8 3.8 3.85 3.25 4.35 3.05 4.6 3.5 M18.9 12.65 L18.45 12.4 17.95 11.7 16.65 9.75 Q16.45 9.3 16.85 9 17.3 8.75 17.6 9.15 L18.85 11.05 19.35 11.8 Q19.6 12.25 19.2 12.55 L18.9 12.65 M21.05 14.5 L21.25 14.85 21.9 15.9 22.65 17.2 Q22.9 17.7 22.45 18 L22.2 18.05 21.7 17.8 20.95 16.5 20.3 15.4 20.1 15.05 Q19.85 14.6 20.3 14.3 20.75 14.1 21.05 14.5 M14.95 7.15 L12.9 5 Q12.5 4.65 12.75 4.2 L13.55 4.1 Q14.75 4.95 15.85 6.5 16.1 6.9 15.75 7.25 L15.4 7.4 14.95 7.15 M23.55 19.75 Q24 19.5 24.3 19.9 L25.95 22.6 Q26.2 23.05 25.8 23.35 L25.5 23.45 25 23.2 23.35 20.5 Q23.1 20.05 23.55 19.75"/>
    <path stroke="none" fill="#fac49d" d="M28.25 24.2 Q28.8 24.3 28.8 24.8 L28.65 26.25 Q28.7 26.75 28.25 26.95 L27.9 27.05 27.3 26.7 26.75 25.9 Q26.5 25.45 26.9 25.1 L27.6 25.2 27.65 24.7 Q27.75 24.2 28.25 24.2"/>
    <path stroke="none" fill="#fac49d" d="M29.1 21.3 L29.05 21.7 Q29 22.15 28.5 22.2 L28.45 22.2 Q27.95 22.1 27.95 21.6 L28 21.2 28.25 18.5 Q28.35 18 28.85 18 29.35 18.1 29.35 18.6 L29.1 21.3 M29.65 15.2 L29.6 15.5 Q29.55 16 29.05 16 L29 16 Q28.5 15.95 28.5 15.4 L28.5 15.1 28.6 12.75 28.6 12.4 Q28.65 11.85 29.15 11.8 29.7 11.8 29.75 12.35 L29.75 12.75 29.65 15.2"/>
    <path stroke="none" fill="#fac49d" d="M26.25 7.6 L26.5 7.6 27.75 7.65 27.8 7.65 Q28.15 7.65 28.4 7.95 L29.1 9.15 Q29.3 9.65 28.85 9.9 L28.6 9.95 28.1 9.6 27.65 8.75 27.55 8.75 26.55 8.75 26.25 8.75 Q25.75 8.7 25.7 8.15 25.75 7.65 26.25 7.6"/>
    <path stroke="none" fill="#fac49d" d="M34.7 3.2 L34.55 3.15 31.85 2.8 Q31.35 2.8 31.3 2.25 31.35 1.75 31.85 1.7 L34.85 2.1 Q35.35 2.3 35.25 2.8 L34.7 3.2 M29.1 3 L26.6 3.45 26.35 3.5 26.2 3.55 25.7 3.15 Q25.6 2.6 26.05 2.45 L26.3 2.35 28.95 1.9 Q29.5 1.9 29.6 2.4 29.6 2.9 29.1 3 M37.05 7.35 L36.8 7.3 Q36.35 7 36.6 6.55 L36.9 5.4 36.6 4.45 Q36.35 4 36.75 3.65 37.2 3.4 37.55 3.8 38.05 4.5 38.05 5.4 38.05 6.25 37.55 7.1 37.4 7.35 37.05 7.35 M23.95 5.45 Q24 6.1 24.35 6.75 24.55 7.25 24.1 7.55 L23.85 7.6 Q23.5 7.6 23.35 7.3 22.85 6.4 22.85 5.45 L22.9 5.05 Q22.95 4.45 23.3 4 L24.1 3.9 Q24.5 4.25 24.2 4.65 L24 5.2 23.95 5.45"/>
  </g>
</svg>