<svg width="33.2px" height="40px" viewBox="0 0 33.2 40" xmlns="http://www.w3.org/2000/svg" xmlns:xlink="http://www.w3.org/1999/xlink">
  <defs/>
  <g>
    <path stroke="none" fill="#7279b8" d="M9.55 0.35 L18.1 0.5 Q22.45 0.5 26.9 2.2 31.15 4.15 32.7 9.25 33.3 11.2 33.15 13.6 L33.15 13.95 Q33.2 16.3 32.3 18.85 30.45 22.95 25.35 25.2 21.2 26.95 17.05 27.1 L16.65 27.15 16.05 27.1 Q15.95 28.25 16.25 29.75 L16.45 29.75 Q17.8 29.75 19.05 30.35 20.65 31.15 21.2 32.85 21.75 34.8 20.75 36.7 19.3 39 16.65 39.55 L12.3 40 12 40 8.6 39.8 7.55 39.7 6.75 39.65 3.65 39.2 Q-0.35 37.75 0.4 33.65 1.45 30.5 4.5 29.9 L4.95 27.25 5.05 26.5 Q5.45 23.45 5.35 20.45 L5.35 19.85 Q5.4 14.65 4.55 9.75 L4.2 9.8 2.9 9.65 Q1.25 9.2 0.45 7.7 -0.45 5.2 0.45 3.25 1.65 0.9 3.95 0.4 L7.5 0 8.7 0.2 9.45 0.35 9.55 0.35 M18.1 10.85 L17.1 10.35 16.4 10 Q15.75 13.45 16.25 16.85 16.35 17.7 17.15 17.65 17.8 17.65 18.5 17.25 20.15 15.75 19.55 12.95 19.35 11.75 18.1 10.85"/>
    <path stroke="none" fill="#5f7ba6" d="M18 2.6 Q22.15 2.65 25.95 4.2 29.5 5.95 30.55 9.85 31.05 11.6 30.95 13.45 31 15.8 30.25 17.95 28.35 21.6 24.45 23.15 20.9 24.7 17 24.9 L14.7 24.7 Q14.5 24.5 14.4 24.7 13.15 28.35 14.55 32.1 14.6 32.25 14.75 32.2 L14.95 32.25 18.05 32.4 Q19.85 33.6 18.8 35.6 17.9 37.05 15.85 37.4 L12.25 37.8 7.75 37.45 4.25 37.05 Q2.2 36.35 2.6 34.25 3.45 31.75 5.85 32.3 L6.1 32.1 Q7.05 29.55 7.3 26.8 7.7 23.65 7.6 20.45 7.8 13.9 6.3 7.6 L6.05 7.35 6.05 7.3 5.85 7.25 3.4 7.45 Q1.6 6.35 2.55 4.15 3.45 2.5 5.65 2.35 L9.5 2.3 18 2.6 M17.15 7.85 L15 6.9 14.8 7.05 14.65 7.15 Q13.4 12.2 14.05 17.25 15.6 21.4 19.7 19.15 22.75 16.55 21.75 12.5 21.3 10.35 19.45 9.05 L17.15 7.85"/>
    <path stroke="none" fill="#7dc8e8" d="M17.8 35.7 L15.95 36.8 13.7 38.1 13.6 38.05 13.45 37.95 Q12.55 38.25 15.95 35.05 L17.15 33.9 14.9 35.3 Q10.9 37.75 11.4 37.25 L11.2 37.1 Q10.55 37.35 13.1 34.7 L14.35 33.35 11.35 35.2 7.25 37.45 7.05 37.35 Q6.8 37.25 7.45 36.65 L11.1 33.55 13.25 31.8 10.55 33.45 Q7.25 35.45 6.3 36 L5.25 36.45 5.05 36.3 Q4.8 36.2 5.45 35.55 L9.45 32.35 12.7 29.75 9.1 31.95 4.6 34.65 3.65 35 3.45 34.9 Q3.35 35.05 3.6 33.6 L3.7 33.1 3.4 33.25 Q2.15 34.05 2.2 33.85 L2.05 33.75 Q1.95 33.5 2.15 33.35 L2.2 33.3 3.1 32.8 Q4.2 32.1 4.15 32.25 L4.35 32.4 4.15 33.7 4.05 34.3 8.8 31.45 13.6 28.6 14.6 28.2 14.8 28.35 Q15.1 28.45 14.3 29.15 L9.8 32.8 7.3 34.8 10.25 33 Q15.8 29.5 15.25 30.15 L15.45 30.3 15.05 31 11.45 34 9.3 35.8 11.05 34.7 Q15.85 31.7 15.45 32.25 L15.65 32.4 Q16.4 32.05 13.5 35.1 L12.65 36 14.6 34.8 Q19.05 32.05 18.55 32.6 L18.75 32.75 Q19.55 32.45 16.35 35.45 L15.1 36.65 15.65 36.3 Q18.1 34.8 17.85 35.1 L18.05 35.25 17.95 35.65 17.8 35.7"/>
    <path stroke="none" fill="#7dc8e8" d="M15.25 24.1 L18.55 22.25 24.05 18.9 30.4 15.1 Q31.85 14.3 31.9 14.45 L32.1 14.6 Q32.5 14.7 31.3 15.65 L24.65 20.4 20.35 23.45 23.95 21.25 29.9 17.7 Q31.3 16.95 31.35 17.1 L31.5 17.25 Q31.65 17.45 31.4 17.6 L31.25 17.65 28.6 19.1 24.25 21.75 19 24.9 Q17.7 25.65 17.6 25.55 L17.55 25.55 17.35 25.4 Q17 25.3 18.05 24.45 L24.3 19.95 29.55 16.25 24.35 19.4 17.2 23.7 15.15 24.65 14.95 24.5 Q14.85 24.25 15.05 24.1 L15.25 24.1"/>
    <path stroke="none" fill="#7dc8e8" d="M26.4 2.65 Q26.65 2.75 26.05 3.35 L22.6 6.25 20.35 8.15 22.25 6.95 25.6 5 Q26.2 4.65 26.25 4.75 L26.4 4.9 Q27.2 4.65 24.2 7.45 L23 8.65 24.25 7.85 Q27.2 5.95 27.05 6.35 L27.2 6.45 Q28.35 6.1 23.85 9.75 L22.25 11.05 25.1 9.35 29.2 6.9 30.05 6.55 30.25 6.7 29.85 7.4 26.2 10.35 23.55 12.45 26.8 10.5 30.65 8.2 31.4 7.9 31.6 8.05 Q31.85 8.15 31.15 8.8 L26.8 12.15 23.55 14.6 25.9 13.2 29.4 11.05 Q30.15 10.65 30.2 10.8 L30.35 10.9 Q30.5 11.15 30.25 11.3 L30.1 11.35 26.15 13.65 21.45 16.35 21.4 16.35 21.2 16.2 Q20.9 16.1 21.7 15.4 L26.45 11.7 28.75 9.95 27.05 11 22.5 13.7 21.55 14.1 21.35 13.95 Q21.05 13.85 21.75 13.2 L25.85 9.9 27.8 8.4 25.4 9.85 21.25 12.3 Q20.4 12.8 20.35 12.65 L20.15 12.5 Q19.1 12.9 23.45 9.3 L24.9 8.1 24.55 8.35 Q21.45 10.35 21.65 9.95 L21.45 9.8 Q20.6 10.1 23.85 7.05 L24.75 6.1 22.55 7.45 19.1 9.5 18.45 9.75 18.25 9.6 Q18 9.5 18.6 8.9 L22.25 5.85 Q23.25 5 24.2 4.2 L22.4 5.3 18.4 7.65 17.55 8 17.4 7.85 Q16.65 8.15 19.45 5.1 L20.3 4.2 17.6 5.8 Q13.35 8.4 13.95 7.85 L13.8 7.7 Q13.7 7.45 13.9 7.3 L14 7.3 17.3 5.35 20.8 3.25 Q21.45 2.9 21.5 3 L21.65 3.15 Q22.3 2.9 19.9 5.5 L18.65 6.85 22.1 4.8 25.55 2.75 Q26.2 2.4 26.2 2.5 L26.4 2.65"/>
    <path stroke="none" fill="#7dc8e8" d="M6 1.8 Q6.4 1.6 5.1 3.65 L4.55 4.55 5.6 3.85 Q7.65 2.5 7.55 2.8 L7.75 2.95 Q8.3 2.65 6.35 5.25 L5.8 6.05 7.7 4.85 Q11.35 2.55 11.1 2.95 L11.3 3.1 Q11.95 2.9 9.55 5.4 L8.75 6.3 10.95 4.95 Q14.5 2.7 14.2 3.15 L14.4 3.3 Q14.65 3.4 14 4 L10.35 6.95 7.85 9 12.9 5.95 17.5 3.2 Q18.45 2.65 18.5 2.8 L18.65 2.95 Q18.95 3.05 18.15 3.75 L13.2 7.45 9 10.6 11.4 9.1 14.7 7.15 Q15.35 6.8 15.35 6.9 L15.55 7.05 Q15.85 7.15 15.1 7.8 L10.85 11.3 9.45 12.4 10.45 11.75 Q15.1 8.9 14.55 9.5 L14.7 9.65 Q15 9.75 14.3 10.4 L10.4 13.7 Q9.4 14.45 8.5 15.25 L9.5 14.65 Q13.4 12.2 12.85 12.75 L13.05 12.9 Q13.65 12.7 11.35 15.2 L10.3 16.35 10.65 16.1 Q12.8 14.75 12.7 15.05 L12.9 15.15 Q13.8 14.8 10.15 18.3 L9.1 19.4 10 18.8 Q13.55 16.6 13.2 17.05 L13.35 17.2 Q14.5 16.75 9.85 20.9 L8.6 22.05 Q9.9 21.25 11.35 20.4 L15.35 18 Q16.1 17.6 16.1 17.75 L16.3 17.85 Q16.6 17.95 15.85 18.65 L11.4 22.05 9.4 23.6 10.4 22.95 14.45 20.55 15.35 20.25 15.5 20.35 Q15.75 20.45 15.1 21.1 L11.25 24.5 9.05 26.35 Q13.15 24.05 19.65 20 25.95 16.15 28.15 14.9 30.35 13.65 30.45 13.8 L30.65 13.95 Q31.2 14.05 29.2 15.5 L18.65 22.35 10.95 27.25 Q14.6 25.05 14.1 25.55 L14.25 25.7 Q14.4 25.9 14.15 26.05 L14.05 26.1 10.35 28.25 6.4 30.55 6.3 30.5 6.15 30.4 Q5.6 30.25 7.6 28.8 L18.35 21.85 28.25 15.5 19.95 20.5 10.7 26.05 Q8 27.6 7.75 27.45 L7.55 27.3 Q6.45 27.7 10.85 24.05 L13.7 21.65 10.7 23.45 7.25 25.5 6.55 25.75 6.4 25.65 Q6.1 25.55 6.85 24.9 L11.05 21.6 13.55 19.75 11.65 20.85 7.7 23.2 6.95 23.5 6.75 23.35 Q5.85 23.7 9.5 20.5 L11.7 18.45 10.3 19.3 Q7.2 21.25 7.6 20.8 L7.4 20.65 Q6.6 20.95 9.75 17.9 L11.3 16.4 10.95 16.6 Q9.05 17.85 9.1 17.6 L8.95 17.45 Q8.2 17.75 10.9 14.8 L11.7 13.95 9.8 15.1 Q5.8 17.6 6.35 17 L6.15 16.9 Q5.9 16.8 6.5 16.2 L10 13.25 12.65 11.1 10.75 12.25 7.55 14.15 6.9 14.4 6.75 14.25 Q6.5 14.15 7.1 13.6 L10.5 10.85 13.1 8.75 11.7 9.6 7.6 12.05 Q6.75 12.5 6.7 12.4 L6.5 12.25 Q6.15 12.15 7.15 11.3 L12.85 7 15.75 4.9 13.2 6.45 Q8.9 9.05 7.55 9.8 6.15 10.6 6.05 10.45 L5.9 10.3 Q5.65 10.2 6.25 9.6 6.9 9 10 6.55 L11.85 5.05 11.25 5.45 Q7.35 7.9 7.6 7.45 L7.4 7.3 Q6.8 7.5 9.15 5 L10 4.1 8 5.35 4.9 7.05 4.75 6.9 Q4.25 7.1 5.9 4.9 L6.7 3.85 5.95 4.3 Q3.7 5.75 3.8 5.45 L3.6 5.35 Q3.2 5.55 4.6 3.35 L5 2.7 4.65 2.9 3.3 3.6 3.15 3.45 Q3.05 3.25 3.25 3.1 L3.3 3.05 4.35 2.45 Q6 1.4 5.85 1.65 L6 1.8"/>
    <path stroke="none" fill="#fac49d" d="M13.65 31.05 Q13.6 30.55 14.1 30.35 14.6 30.3 14.75 30.75 L15 31.65 16.2 31.45 Q16.7 31.5 16.75 32 16.75 32.5 16.25 32.6 L15.15 32.8 14.9 32.85 14.55 32.75 Q14.15 32.65 14 32.25 L13.65 31.05"/>
    <path stroke="none" fill="#fac49d" d="M7.1 11.15 Q7.6 11.15 7.7 11.65 L8 14.8 Q8 15.3 7.45 15.35 6.95 15.35 6.9 14.85 L6.6 11.8 Q6.6 11.25 7.1 11.15 M7 17.95 Q7.05 17.4 7.55 17.35 8.05 17.4 8.1 17.9 L8.15 19.75 8.15 20.4 8.15 21.05 7.6 21.6 Q7.1 21.55 7.05 21.05 L7.05 20.45 7 19.8 7 17.95 M8.1 24.15 L7.85 26.9 7.8 27.3 7.2 27.8 7.15 27.8 Q6.65 27.65 6.65 27.15 L6.75 26.7 7 24.1 Q7.05 23.6 7.55 23.6 8.1 23.65 8.1 24.15 M19.4 32.95 Q19.75 33.5 19.75 34.25 L19.3 35.9 18.9 36.45 18.45 36.65 18.1 36.5 Q17.75 36.15 18.05 35.7 L18.3 35.35 18.6 34.25 18.45 33.45 Q18.2 33 18.65 32.7 19.15 32.5 19.4 32.95 M6.7 32.25 Q6.5 32.85 5.95 32.9 L5.6 32.8 5.05 32.7 Q4.55 32.6 4.5 32.1 4.6 31.6 5.1 31.55 L5.7 31.65 6.15 30.15 Q6.35 29.7 6.85 29.75 7.3 29.9 7.25 30.45 L6.7 32.25 M7.7 38 L6.85 37.95 6.4 37.9 Q5.85 37.85 5.85 37.3 5.95 36.8 6.45 36.8 L6.95 36.85 7.8 36.9 8.9 37 9.6 37.05 Q10.1 37.15 10.1 37.7 10 38.15 9.5 38.2 L9.45 38.2 8.8 38.1 7.7 38 M12.05 37.8 Q12.1 37.25 12.6 37.2 L15.6 36.9 Q16.1 36.85 16.25 37.35 16.35 37.85 15.85 38 L12.65 38.3 Q12.1 38.3 12.05 37.8 M2.95 33.35 Q3.4 33.6 3.25 34.1 L3.15 34.35 3.05 34.9 Q3.1 35.7 3.75 36.2 4.15 36.55 3.9 37 L3.45 37.2 3.1 37.1 Q2 36.3 1.95 34.9 L2.05 34.1 2.2 33.65 Q2.45 33.2 2.95 33.35"/>
    <path stroke="none" fill="#fac49d" d="M5.75 7.85 L4.6 8.05 Q4.1 8.05 4 7.55 4 7.05 4.5 6.95 L5.65 6.7 6.1 6.7 Q6.35 6.75 6.5 6.95 L6.5 7 6.6 7.1 6.8 7.4 7.1 8.5 Q7.2 9 6.7 9.15 L6.55 9.2 Q6.15 9.15 6.05 8.75 L5.8 7.85 5.75 7.85"/>
    <path stroke="none" fill="#fac49d" d="M21.15 2.3 Q21.7 2.45 21.65 2.95 L21.1 3.45 21 3.45 18.05 3.15 Q17.55 3.1 17.5 2.55 17.6 2.05 18.1 2.05 L21.15 2.3 M15.6 2.45 L15.05 3 15 3 12 2.9 Q11.5 2.8 11.45 2.3 11.5 1.8 12.05 1.75 L15.1 1.9 Q15.6 1.95 15.6 2.45 M8.7 1.7 L9 1.75 Q9.5 1.8 9.55 2.3 L9 2.85 8.65 2.85 7.5 2.8 6 2.9 5.95 2.9 Q5.5 2.85 5.4 2.4 5.4 1.85 5.9 1.75 L7.5 1.7 8.7 1.7 M3.05 4.4 Q2.85 4.95 2.8 5.6 L2.85 6 Q2.9 6.55 2.4 6.65 L2.3 6.7 Q1.85 6.65 1.75 6.2 L1.7 5.6 Q1.7 4.7 2.05 3.95 L2.75 2.9 3.55 2.95 Q3.9 3.35 3.55 3.75 L3.05 4.4 M25.75 4.7 L23.9 4.05 Q23.4 3.85 23.5 3.35 23.7 2.85 24.2 2.95 L26.2 3.7 27.15 4.2 Q27.55 4.5 27.35 4.95 L26.85 5.2 26.55 5.15 25.75 4.7 M14.8 25.15 Q14.35 26.25 14.35 27.7 L14.35 27.9 13.8 28.45 Q13.3 28.4 13.25 27.9 L13.25 27.7 Q13.25 26 13.8 24.7 14 24.25 14.5 24.4 14.95 24.65 14.8 25.15 M17.1 25.45 Q16.6 25.4 16.55 24.9 16.55 24.4 17.1 24.35 L20 23.95 Q20.5 23.9 20.65 24.4 20.7 24.9 20.25 25.05 L17.15 25.45 17.1 25.45 M26.1 23 L24.7 23.65 23.2 24.25 23.05 24.25 Q22.65 24.25 22.5 23.9 22.4 23.4 22.85 23.2 L24.25 22.65 25.55 22 Q26 21.8 26.3 22.2 26.5 22.7 26.1 23 M29.5 6.4 Q30.4 7.6 30.95 9.25 31.05 9.7 30.6 9.95 L30.4 9.95 29.9 9.6 Q29.4 8.15 28.6 7.05 28.35 6.6 28.7 6.25 29.15 6 29.5 6.4 M30.4 12.85 L30.4 12.4 Q30.4 11.9 30.95 11.8 31.45 11.85 31.5 12.35 L31.5 12.85 31.5 13.5 31.5 13.85 31.4 15.45 Q31.3 15.95 30.85 15.95 L30.8 15.95 Q30.25 15.85 30.25 15.35 L30.35 13.8 30.4 13.45 30.4 12.85 M30.3 17.8 Q30.75 18.1 30.6 18.55 29.85 20 28.65 21.15 L28.25 21.3 Q28.05 21.3 27.85 21.1 27.55 20.7 27.85 20.3 28.95 19.3 29.55 18.05 29.85 17.65 30.3 17.8"/>
    <path stroke="none" fill="#fac49d" d="M15.15 6.4 L16.4 6.85 Q16.85 7.1 16.65 7.6 16.4 8.05 15.9 7.85 L15.15 7.55 14.95 8.55 Q14.85 9 14.4 9 L14.3 9 Q13.8 8.85 13.85 8.35 L14.1 7.05 14.4 6.6 14.6 6.45 15.15 6.4"/>
    <path stroke="none" fill="#fac49d" d="M19.8 8.6 Q20.75 9.3 21.3 10.15 21.6 10.55 21.2 10.9 L20.85 11 20.4 10.8 19.15 9.5 18.45 9.1 Q18.05 8.85 18.2 8.35 18.5 7.9 18.95 8.1 L19.8 8.6 M21.3 13.2 Q21.25 12.65 21.8 12.55 22.3 12.55 22.4 13.05 L22.5 14.35 22.3 16.05 21.8 16.5 21.65 16.5 Q21.15 16.35 21.25 15.85 L21.4 14.35 21.3 13.2 M13.75 14.65 Q13.25 14.6 13.2 14.1 L13.4 11.2 Q13.5 10.65 14 10.7 14.55 10.8 14.5 11.3 L14.3 14.1 Q14.3 14.6 13.75 14.65 M14.55 17.15 Q14.8 18.35 15.6 18.9 16 19.25 15.75 19.7 L15.3 19.95 14.95 19.85 Q13.8 19 13.45 17.35 L13.4 17.05 Q13.4 16.5 13.85 16.4 14.4 16.35 14.5 16.85 L14.55 17.15 M20.9 18.05 Q21.25 18.45 20.9 18.85 L20 19.6 18.15 20.35 18.05 20.35 Q17.6 20.35 17.5 19.95 17.4 19.4 17.9 19.25 18.7 19.1 19.4 18.65 L20.1 18.1 20.9 18.05"/>
  </g>
</svg>