<svg width="42.5px" height="48.9px" viewBox="0 0 42.5 48.9" xmlns="http://www.w3.org/2000/svg" xmlns:xlink="http://www.w3.org/1999/xlink">
  <defs/>
  <g>
    <path stroke="none" fill="#7279b8" d="M29.1 1.75 Q32.05 3.05 34.25 5.3 37 8.7 37.7 12.05 39.65 19.35 36.55 27.95 34.5 33.35 29.7 36.1 L29.8 36.15 30.8 36.25 33.3 35.95 34 35.8 36.15 35.6 Q40.9 36.1 41.85 38.75 43.6 42.55 40.55 46.15 38.3 48.5 33.9 48.9 L33.15 48.9 Q28.85 48.55 26.35 46.8 23.2 45 21.15 42.5 L20.65 41.85 19.2 40.25 19.05 40.35 18.5 39.9 16.95 40.05 Q13.95 39.85 11.95 38.75 9.25 37.55 6.45 35.2 0.95 30.3 0.05 21.6 -0.55 13 5.1 6.25 9.95 0.85 16.65 0.35 L17.15 0.2 17.35 0.25 20.6 0 Q25.05 0 29.1 1.75 M18.85 12.7 Q18.05 13.9 17.4 15.45 L17.45 15.55 16.95 16.7 Q13.5 23.7 16.45 27.2 L17.2 27.8 Q18 27 19.25 26.55 L20.65 26.3 Q21.8 26.35 22.8 26.85 23.55 25.6 23.5 23.3 23.45 20.55 22.25 17 21.2 14.15 19.35 12.25 L19.3 12.2 18.85 12.7"/>
    <path stroke="none" fill="#5f7ba6" d="M17.1 2.55 L17.2 2.55 Q22.9 1.55 28.2 3.8 30.7 4.9 32.6 6.85 34.75 9.4 35.55 12.65 37.25 20.05 34.45 27.2 32.15 33.2 26.1 35.25 25.85 35.45 26.1 35.6 25.85 35.7 25.95 35.95 27.25 37.6 29.15 38.3 L34.4 38.05 Q37.85 37.1 39.85 39.8 40.9 42.5 38.9 44.6 36.75 46.55 33.75 46.65 30.35 46.7 27.45 44.85 24.8 43.4 22.85 41.05 21.4 39 19.35 37.45 L19.15 37.45 18.95 37.4 Q15.85 38.35 12.9 36.75 10.2 35.45 7.9 33.45 2.8 28.6 2.25 21.4 1.8 14.55 5.85 8.9 9.95 3.2 17.05 2.6 L17.1 2.55 M24.35 16.3 Q23.3 13.1 20.95 10.65 18.75 8.95 17.05 11.35 15.75 13.4 14.9 15.65 L14.9 15.85 Q13.4 19 12.9 22.45 12.35 25.9 14.85 28.75 16.2 30.1 18.15 30.55 18.4 30.75 18.5 30.4 18.55 29.05 20 28.7 21.7 28.3 22.8 29.7 L23 29.8 23.1 29.75 24.45 28.45 Q25.95 26.1 25.75 23.25 25.6 19.7 24.35 16.3"/>
    <path stroke="none" fill="#7dc8e8" d="M30.2 3.5 Q30.5 3.6 29.75 4.3 L25.15 7.95 22.5 10.05 25.75 8.1 30.95 4.95 Q32.05 4.35 32.05 4.5 L32.25 4.65 Q32.55 4.75 31.8 5.45 L27.4 8.9 Q26.1 9.95 24.85 10.95 L27.25 9.5 31.75 6.8 Q32.65 6.3 32.7 6.45 L32.9 6.6 Q33.15 6.7 32.45 7.35 L28.35 10.6 26.3 12.25 28.1 11.1 Q33.05 8.05 32.6 8.6 L32.8 8.75 Q33.1 8.85 32.3 9.55 L27.6 13.25 25.05 15.2 27.2 13.9 32.05 11 Q33.2 10.4 33.25 10.5 L33.45 10.65 Q33.7 10.75 33.05 11.35 L29.25 14.5 26.25 16.9 30.95 14.1 35.85 11.15 Q36.85 10.6 36.9 10.75 L37.05 10.9 Q37.35 11 36.5 11.7 L31.5 15.45 27.45 18.4 29.45 17.2 33.4 14.85 Q34.25 14.4 34.25 14.5 L34.45 14.65 Q34.7 14.75 34 15.4 L29.9 18.6 27.15 20.65 29.45 19.25 33.7 16.75 Q34.65 16.2 34.75 16.3 L34.9 16.45 Q35.15 16.55 34.55 17.15 L31 20.2 28.75 22.1 30.6 20.95 Q36.25 17.45 35.75 18.05 L35.95 18.2 Q36.25 18.3 35.4 19.05 L30.6 22.75 27.1 25.35 30.7 23.2 36.25 19.95 Q37.35 19.3 37.35 19.45 L37.55 19.6 37.45 19.95 37.3 20 Q35.7 20.8 31 23.7 L26.1 26.6 24.85 27.2 24.8 27.2 24.6 27.05 Q24.3 26.95 25.15 26.2 26.05 25.45 30.25 22.3 L33.55 19.8 30.9 21.4 Q26.3 24.3 26.85 23.7 L26.65 23.55 Q26.4 23.45 27 22.85 L30.6 19.8 33.05 17.75 29.75 19.75 24.85 22.5 24.65 22.35 Q24.35 22.25 25.1 21.6 L29.55 18.15 31.75 16.45 29.75 17.65 25.8 20.05 24.9 20.4 24.75 20.25 Q24.4 20.15 25.4 19.3 L31.2 15 34 12.9 31.25 14.55 25.85 17.8 24.55 18.35 24.35 18.2 Q24.1 18.1 24.8 17.45 L28.9 14.05 31.4 12.05 27.5 14.4 23.45 16.8 22.6 17.15 22.4 17 Q22.1 16.9 22.85 16.25 L27.25 12.8 30.35 10.4 28.4 11.6 Q23.55 14.6 24 14.05 L23.8 13.9 Q23.55 13.8 24.2 13.2 L28 10.2 30.65 8.1 27.5 10 23.4 12.45 22.65 12.75 22.45 12.6 Q22.15 12.5 22.9 11.85 23.6 11.2 27.1 8.5 L30.1 6.1 26 8.55 21.25 11.4 20.25 11.8 20.1 11.65 Q19.8 11.55 20.55 10.9 L24.8 7.5 27.9 5.1 25.4 6.6 20.75 9.4 19.55 9.9 19.4 9.75 Q19.3 9.5 19.5 9.35 L19.65 9.35 25.1 6.15 29.15 3.7 Q30 3.25 30.05 3.35 L30.2 3.5"/>
    <path stroke="none" fill="#7dc8e8" d="M19.9 28.85 L19.8 29.25 19.75 29.25 18.7 29.85 17.6 30.45 17.5 30.45 17.35 30.35 Q17.25 30.1 17.45 29.95 L17.5 29.9 18.4 29.4 Q19.85 28.5 19.75 28.7 L19.9 28.85"/>
    <path stroke="none" fill="#7dc8e8" d="M23.4 3.4 L23.6 3.55 Q24.1 3.6 22.45 4.85 L12.8 11.15 Q7.1 14.75 3.35 17.3 L15.6 10 Q22.15 6 24.4 4.7 26.65 3.4 26.75 3.6 L26.9 3.75 Q27.45 3.8 25.7 5.1 23.9 6.4 15.35 11.75 8.3 16.2 3.75 19.3 L10.45 15.3 Q14.9 12.55 16.15 11.85 L17.45 11.25 17.65 11.4 Q18.1 11.5 16.75 12.55 L9 17.95 5.7 20.15 8.4 18.55 Q12.75 15.85 14.15 15.1 15.5 14.3 15.6 14.45 L15.8 14.6 Q16.2 14.7 15.05 15.65 L8.35 20.45 4.45 23.2 7.3 21.5 12 18.65 Q13.05 18.05 13.1 18.2 L13.3 18.35 Q13.55 18.45 12.95 19 L9.5 21.85 6.9 23.9 8.2 23.15 Q12.5 20.4 12.15 20.9 L12.35 21.05 Q12.6 21.15 11.95 21.8 L7.95 25.15 6.15 26.65 7.55 25.8 Q10.45 24 11.25 23.6 L12.05 23.3 12.25 23.4 Q12.5 23.5 11.85 24.2 L7.9 27.6 6.3 28.95 9.25 27.2 13.55 24.6 Q14.45 24.1 14.5 24.25 L14.65 24.4 Q14.95 24.5 14.2 25.15 L9.85 28.55 7.95 29.95 8.35 29.75 Q13.15 26.8 12.55 27.4 L12.75 27.55 Q13.6 27.15 10.15 30.65 L9.2 31.65 11.2 30.45 Q14.8 28.2 14.4 28.7 L14.55 28.85 Q15.55 28.45 11.7 31.95 L10.1 33.4 12.45 32 15.95 29.9 16.65 29.65 16.8 29.8 Q17.7 29.5 14.2 32.65 L12.95 33.85 15.65 32.2 Q21.55 28.55 21 29.2 21.15 29.2 21.2 29.35 22.3 28.9 17.8 32.8 L15.5 34.85 23.9 29.8 Q30.05 26 32.3 24.75 34.5 23.45 34.7 23.65 L34.9 23.8 Q35.35 23.9 33.95 24.95 L25.85 30.35 Q21.8 32.95 18.7 35.05 L24.65 31.4 31.95 27 Q33.9 25.9 34.1 26.05 L34.3 26.2 Q34.7 26.3 33.45 27.3 L26 32.4 21.5 35.4 26.5 32.35 32 29.05 Q33.4 28.25 33.5 28.35 L33.7 28.5 Q34.1 28.6 33 29.5 L26.6 34.1 23.7 36.15 26.15 34.65 31.7 31.35 Q32.95 30.65 33.05 30.75 L33.2 30.9 Q33.55 31 32.55 31.8 L26.75 36.05 24.05 37.9 26.2 36.8 26.4 36.9 Q27 36.7 24.65 39.25 L23.9 40.05 25.55 39.05 Q28.9 37 28.45 37.5 L28.65 37.6 Q29.3 37.35 26.8 40.05 L26.1 40.8 27.9 39.75 Q32.3 37 31.75 37.6 L31.95 37.7 Q33.05 37.3 28.45 41.1 L26.7 42.6 31.25 39.9 35.7 37.25 36.6 36.85 36.8 37 Q37.1 37.1 36.3 37.8 L31.75 41.4 28.85 43.65 33 41.15 37.85 38.25 Q38.9 37.65 38.95 37.75 L39.15 37.9 Q39.45 38 38.65 38.7 L33.9 42.35 30.7 44.75 34.2 42.65 38.35 40.15 Q39.15 39.7 39.2 39.8 L39.35 39.95 Q39.6 40.05 39 40.65 L35.35 43.65 Q34.1 44.6 33 45.5 L36.2 43.55 39.95 41.3 40.7 41.05 40.9 41.2 Q41.7 40.85 38.45 44.05 L37.9 44.6 38.25 44.55 38.45 44.65 38.35 45.05 38.2 45.1 37.35 45.6 Q36.3 46.35 36.25 46.15 L36.05 46.05 Q35.35 46.25 38.05 43.65 L39.4 42.3 36.5 44.05 Q30.7 47.6 31.05 47.15 L30.95 47.15 30.8 47 Q30.55 46.9 31.2 46.3 L35 43.2 36.95 41.65 34.5 43.1 29.65 46 Q28.5 46.65 28.45 46.5 L28.25 46.4 Q27.95 46.3 28.75 45.55 29.6 44.85 33.55 41.9 L36.6 39.65 33.3 41.65 28.05 44.75 26.8 45.3 26.6 45.15 Q26.3 45.05 27.05 44.4 L31.4 40.95 34.25 38.7 31.55 40.4 26.25 43.55 24.95 44.05 24.75 43.95 Q23.7 44.3 28.1 40.7 L29.85 39.2 28.15 40.2 24.85 42.05 24.7 41.9 Q24.05 42.15 26.4 39.65 L27.2 38.7 25.85 39.55 Q22.2 41.8 22.7 41.3 L22.5 41.15 Q21.9 41.4 24.2 38.9 L25 38 23.45 38.95 20.2 40.75 20.05 40.6 Q19.7 40.5 20.7 39.7 L26.4 35.55 30.25 32.85 26.45 35.1 21.6 38.05 20.45 38.55 20.25 38.4 Q19.9 38.3 20.85 37.55 L26.3 33.65 31.2 30.15 26.8 32.85 20.55 36.65 Q18.9 37.55 18.7 37.45 L18.5 37.3 Q18.15 37.2 19.25 36.35 L25.65 31.95 32.2 27.5 Q29.05 29.35 24.95 31.9 L18.25 35.95 Q16.5 36.95 16.35 36.8 L16.15 36.65 Q15.7 36.5 17.25 35.35 L25.55 29.85 32.65 25.15 24.2 30.3 16.4 35 Q14.35 36.15 14.2 36 L14.05 35.85 Q12.9 36.25 17.45 32.35 L19.55 30.5 Q17.85 31.5 15.95 32.65 L12.25 34.9 11.45 35.2 Q11.3 35.2 11.25 35.05 10.4 35.4 13.85 32.25 L15.1 31.05 12.75 32.45 9.2 34.55 8.55 34.8 8.35 34.65 Q7.35 35.05 11.3 31.5 L12.75 30.15 11.5 30.95 Q7.5 33.4 7.95 32.9 L7.75 32.75 Q7.05 33.05 9.75 30.3 L11.4 28.55 8.65 30.2 Q4.5 32.75 5.1 32.2 L4.9 32.05 Q4.65 31.95 5.35 31.3 L9.5 28.1 12 26.15 9.55 27.65 5.25 30.2 4.35 30.55 4.2 30.45 Q3.1 30.8 7.55 27.2 L10.45 24.7 7.85 26.25 4.65 28.2 4 28.4 3.85 28.3 Q3.6 28.15 4.2 27.6 L7.6 24.75 10.4 22.4 8.45 23.6 Q4.5 26.1 4.85 25.65 L4.65 25.5 Q4.4 25.4 5.1 24.75 L9.15 21.4 11.05 19.85 7.6 21.95 2.75 24.85 1.6 25.35 1.4 25.2 Q1.05 25.1 2.1 24.25 3.1 23.45 8.05 20 L13.45 16.1 8.7 19 3.25 22.25 1.95 22.85 1.75 22.7 Q1.4 22.6 2.45 21.75 L8.65 17.5 14.55 13.45 10.7 15.75 3.6 20 Q1.85 21 1.8 20.8 L1.6 20.7 Q1 20.55 3.25 18.95 5.5 17.35 15.05 11.3 L23.8 5.7 15.9 10.5 5.15 16.95 Q1.95 18.8 1.6 18.6 L1.4 18.45 Q0.9 18.4 2.6 17.15 4.3 15.9 12.5 10.7 L20.4 5.55 14.45 9.2 Q3.95 15.7 4.05 15.1 L3.85 14.95 Q3.4 14.85 4.7 13.85 6 12.9 12.25 8.8 L18.3 4.8 Q15.6 6.4 12.45 8.35 L6.45 11.95 4.8 12.7 4.6 12.55 Q4.3 12.45 5.15 11.75 L10.25 7.95 14.55 4.8 12.25 6.25 Q6.5 9.9 6.65 9.4 L6.5 9.25 Q6.25 9.15 6.8 8.55 L10.2 5.65 11.6 4.5 9.55 5.55 9.4 5.4 Q9.3 5.2 9.5 5.05 L9.6 5 11.4 3.95 Q14.1 2.25 13.75 2.65 L13.95 2.8 Q15.05 2.4 10.55 6.1 L8.2 8.1 Q9.95 7 11.95 5.8 17.2 2.45 16.95 2.95 L17.15 3.05 Q17.5 3.15 16.5 4 L10.55 8.4 7.2 10.9 12.15 7.85 18.85 3.8 Q20.65 2.8 20.8 2.95 L21 3.1 Q21.45 3.2 20.15 4.15 L12.55 9.25 6.35 13.4 14.15 8.7 21.35 4.35 Q23.25 3.25 23.4 3.4"/>
    <path stroke="none" fill="#fac49d" d="M17.15 37.85 Q17.15 37.35 17.65 37.25 L18.7 36.9 19.15 36.85 19.65 37 20.7 37.85 Q21.1 38.2 20.75 38.65 L20.35 38.8 19.95 38.65 19.15 38 19 38 17.8 38.35 Q17.3 38.35 17.15 37.85"/>
    <path stroke="none" fill="#fac49d" d="M23.65 1.95 L26.7 2.65 Q27.2 2.9 27.05 3.35 L26.55 3.75 26.35 3.75 23.5 3.05 Q23 2.9 23 2.4 23.15 1.9 23.65 1.95 M21.1 2.25 L20.55 2.8 17.6 3.1 17.5 3.1 16.95 2.65 Q16.95 2.1 17.45 2 L20.55 1.7 Q21.05 1.75 21.1 2.25 M29.6 3.9 L32.2 5.7 Q32.55 6.05 32.25 6.5 L31.8 6.65 31.45 6.55 29.05 4.85 Q28.65 4.6 28.85 4.1 29.1 3.7 29.6 3.9 M11.65 4.55 L11.15 4.2 Q11 3.75 11.4 3.45 12.85 2.75 14.4 2.4 14.9 2.3 15.05 2.8 15.15 3.3 14.65 3.5 13.25 3.8 11.9 4.45 L11.65 4.55 M33.5 7.95 Q33.95 7.7 34.25 8.1 35.05 9.35 35.6 11 35.75 11.45 35.25 11.7 L35.1 11.7 Q34.7 11.7 34.55 11.35 L33.3 8.7 Q33.1 8.25 33.5 7.95 M35.8 13.55 Q36.3 13.5 36.45 14 L36.8 17.1 36.25 17.65 Q35.7 17.65 35.65 17.15 L35.35 14.2 Q35.3 13.7 35.8 13.55 M36.7 20.2 L36.2 23.25 35.65 23.7 35.55 23.7 Q35.05 23.55 35.1 23.05 L35.55 20.1 Q35.65 19.6 36.2 19.6 36.7 19.7 36.7 20.2 M35 27.4 L34.2 29.15 33.7 29.45 33.45 29.4 Q33 29.1 33.2 28.65 L33.95 27 34.3 25.9 Q34.5 25.45 35 25.55 35.5 25.75 35.4 26.25 L35 27.4 M9.55 5.25 Q9.8 5.65 9.45 6 L7.3 8.05 6.9 8.2 6.5 8.1 Q6.15 7.7 6.45 7.3 7.55 6.1 8.75 5.15 L9.55 5.25 M5.55 10.4 Q4.75 11.65 4.2 13 L3.7 13.35 3.45 13.3 Q3 13.1 3.15 12.6 3.8 11.15 4.6 9.8 4.9 9.4 5.35 9.65 5.8 9.95 5.55 10.4 M2.2 19.25 Q1.7 19.15 1.7 18.65 1.8 17.1 2.2 15.55 2.35 15.05 2.85 15.15 3.35 15.3 3.3 15.8 2.9 17.3 2.8 18.75 2.75 19.2 2.25 19.25 L2.2 19.25 M2.85 25.3 Q2.4 25.25 2.3 24.85 L1.75 21.8 Q1.75 21.25 2.25 21.15 2.75 21.15 2.85 21.65 L3.35 24.6 Q3.45 25.1 2.95 25.25 L2.85 25.3 M4.3 27.4 Q4.85 28.8 5.65 30 5.9 30.45 5.5 30.8 L5.15 30.85 4.7 30.6 3.25 27.85 Q3.1 27.35 3.55 27.1 4.05 26.95 4.3 27.4 M6.65 32.3 Q7.05 31.95 7.45 32.3 L8.3 33.05 9.7 34.2 Q10.1 34.5 9.85 34.95 L9.4 35.2 9.05 35.1 7.55 33.9 6.65 33.05 Q6.35 32.7 6.65 32.3 M32.45 31.8 L30.1 33.9 29.75 34 29.3 33.8 Q29.05 33.35 29.45 33 L31.6 31.05 32.35 31 Q32.75 31.35 32.45 31.8 M13.15 36.25 L14.9 36.9 Q15.4 37.1 15.3 37.6 L14.75 38 14.6 38 12.7 37.25 11.7 36.75 Q11.25 36.5 11.45 36 11.75 35.55 12.2 35.75 L13.15 36.25"/>
    <path stroke="none" fill="#fac49d" d="M25.4 35.45 Q25.4 34.9 25.95 34.7 L26.85 34.4 Q27.35 34.25 27.6 34.7 27.7 35.2 27.25 35.45 L26.65 35.65 26.65 35.7 26.6 35.85 27.05 36.3 Q27.4 36.7 27.05 37.1 L26.65 37.25 26.3 37.1 25.55 36.3 Q25.25 35.95 25.4 35.5 L25.4 35.45"/>
    <path stroke="none" fill="#fac49d" d="M36.15 37.3 Q38 37.3 39.15 38.15 39.55 38.5 39.25 38.95 39.1 39.15 38.8 39.15 L38.5 39.05 Q37.6 38.4 36.15 38.4 L35.8 38.45 Q35.25 38.4 35.2 37.9 35.2 37.4 35.7 37.3 L36.15 37.3 M33.15 38.25 Q33.15 38.8 32.65 38.9 L30.8 39.1 29.25 38.9 Q28.75 38.75 28.85 38.25 29 37.75 29.5 37.8 30.6 38.1 32.5 37.8 33 37.75 33.15 38.25 M40.8 41.35 L40.8 41.45 Q40.8 43.15 39.6 44.65 L39.2 44.85 38.85 44.75 Q38.45 44.4 38.75 43.95 39.65 42.75 39.7 41.45 L39.7 41.35 Q39.7 40.85 40.25 40.8 40.75 40.85 40.8 41.35 M37.1 45.9 Q37.2 46.4 36.75 46.6 L33.75 47.2 33.45 47.25 33.4 47.25 Q32.9 47.2 32.85 46.7 32.9 46.15 33.4 46.1 L33.7 46.1 36.35 45.55 Q36.85 45.45 37.1 45.9 M27.7 44.35 L30.45 45.6 Q30.9 45.85 30.8 46.35 L30.25 46.7 30.1 46.7 27.2 45.35 27.1 45.3 Q26.65 45 26.85 44.5 27.15 44.1 27.65 44.3 L27.7 44.35 M23.3 40.7 L25.1 42.55 Q25.45 42.9 25.15 43.3 L24.7 43.5 24.35 43.4 22.45 41.45 22.1 41 Q21.8 40.55 22.15 40.2 22.6 39.9 22.95 40.3 L23.3 40.7"/>
    <path stroke="none" fill="#fac49d" d="M14.85 14.25 Q15.1 13.8 15.6 13.95 16.05 14.2 15.9 14.7 L15.8 14.85 15.45 15.75 15.4 16.05 14.85 17.45 14.3 17.8 14.1 17.75 Q13.65 17.5 13.8 17 L14.3 15.8 Q14.25 15.6 14.35 15.4 L14.8 14.4 14.85 14.25"/>
    <path stroke="none" fill="#fac49d" d="M13.55 19.4 Q14 19.6 13.95 20.1 13.5 21.6 13.4 22.85 L12.85 23.4 12.8 23.4 Q12.3 23.3 12.3 22.8 12.4 21.4 12.85 19.8 13.05 19.35 13.55 19.4 M12.95 25.15 Q13.45 25.1 13.65 25.55 14 26.85 14.9 27.9 15.15 28.35 14.8 28.7 L14.45 28.85 14 28.65 Q13 27.4 12.55 25.85 12.5 25.35 12.95 25.15"/>
    <path stroke="none" fill="#fac49d" d="M19.15 29.85 Q18.95 30.05 19 30.3 19.1 30.9 18.55 31.15 L18.25 31.2 17.85 31.05 16.5 30.6 Q16 30.35 16.2 29.85 16.45 29.4 16.95 29.55 L17.9 29.9 18.25 29.15 19.05 29.05 Q19.4 29.4 19.15 29.85"/>
    <path stroke="none" fill="#fac49d" d="M24.6 28.35 Q24.95 28.7 24.65 29.15 L23.45 30.2 23.4 30.25 23.35 30.25 23.05 30.35 22.9 30.35 22.85 30.3 22.4 30.05 21.6 29.35 Q21.15 29.1 21.35 28.6 21.65 28.2 22.15 28.4 L23.05 29.1 23.8 28.4 24.6 28.35"/>
    <path stroke="none" fill="#fac49d" d="M21.35 11.05 Q21.75 10.75 22.15 11.15 23.1 12.3 23.9 13.8 24.1 14.25 23.65 14.55 L23.4 14.6 Q23.1 14.6 22.9 14.3 L21.25 11.85 Q21 11.4 21.35 11.05 M19.75 9.85 Q19.75 10.4 19.25 10.45 18.35 10.55 17.5 11.7 L17.3 12 16.8 12.25 16.5 12.15 Q16.1 11.85 16.35 11.4 L16.6 11 Q17.75 9.5 19.15 9.35 19.65 9.35 19.75 9.85 M24.8 20 L24.05 17.05 Q23.9 16.6 24.4 16.35 24.9 16.25 25.1 16.75 L25.9 19.75 Q25.95 20.3 25.45 20.45 L25.35 20.45 24.8 20 M25.7 22.35 Q26.25 22.4 26.3 22.9 L26.3 23.25 26.3 23.55 26.05 26.1 25.5 26.55 25.4 26.55 Q24.9 26.4 24.95 25.9 L25.2 23.55 25.2 23.25 25.2 22.95 Q25.2 22.45 25.7 22.35"/>
  </g>
</svg>