<svg width="34.8px" height="42.75px" viewBox="0 0 34.8 42.75" xmlns="http://www.w3.org/2000/svg" xmlns:xlink="http://www.w3.org/1999/xlink">
  <defs/>
  <g>
    <path stroke="none" fill="#7279b8" d="M26.65 27.5 Q27.75 29.2 28.9 29.85 L29.05 29.7 Q29.85 28.9 31.05 28.85 31.75 28.85 32.45 29.2 L32.55 29.25 32.7 29.3 34.05 30.55 Q34.8 32 34.8 33 34.95 34.85 34.1 36.9 32.8 39.95 29.5 41.75 27.6 42.75 25.45 42.75 L22.25 42.1 Q19.9 41.05 19.2 38.55 L18.65 39.15 Q16.9 40.6 15.2 40.85 L10.85 41.65 9.2 41.7 Q5.55 41.7 3.05 40.1 0 38 0.55 34.65 1.4 31.75 4.35 31.1 L4.45 30.7 4.65 30.75 4.85 27.95 4.95 26.4 5.15 21.1 5.1 19.5 5.1 17.85 5.2 16.1 5.25 14.95 Q5.25 13.15 4.65 11.55 L4.6 11.55 Q3.25 11.9 0.8 9.2 -1 6 1.2 3.15 5.15 -0.25 9.1 0.1 L12.4 0 Q18.95 0 24.2 1.45 27.5 2 30.55 5.4 32.7 8.25 33.2 11.75 33.55 15.75 31.1 18.95 28.65 22.1 25.05 23.9 25.4 25.9 26.65 27.5 M15.95 11.9 Q15.55 14.7 15.9 17.75 L16.05 18.5 16.35 18.55 17 18.4 Q19.3 16.85 18.7 14.65 18.4 13.2 15.95 11.9 M15.8 26.85 Q15.35 28.7 15.8 30.85 18.35 31 19.55 33.7 L19.9 34.7 21.2 33.65 20.7 31.85 Q19.95 30.3 18.5 28.9 17.3 27.55 16.1 26.95 L15.8 26.85"/>
    <path stroke="none" fill="#5f7ba6" d="M28.75 6.8 Q30.55 9.15 30.95 12.05 31.25 15.55 28.85 18.25 26.45 20.9 23.4 22.25 L23.2 22.35 Q22.25 25.85 24.75 28.8 26.65 32.05 30.25 32.6 L30.4 32.5 30.45 32.25 Q30.35 30.8 31.6 31.3 L32.15 31.85 Q32.55 32.5 32.55 33.25 32.65 34.7 32.05 36.1 30.9 38.55 28.45 39.8 25.85 41.15 23.1 40.1 21.4 39.25 21.25 37.3 21.45 35.65 23.15 35.3 L23.25 35.2 23.45 35.05 Q23.6 32.9 22.75 30.95 21.8 28.95 20.15 27.4 18.8 25.8 16.95 24.9 L14.3 24.85 14.25 24.95 14.15 25.05 Q12.45 29.2 14.2 33.4 L14.55 33.5 14.6 33.45 Q16.55 32.6 17.4 34.35 18.25 36.1 17.05 37.6 16 38.5 14.65 38.75 L10.65 39.45 Q7.2 39.9 4.25 38.25 2.5 37.15 2.75 35.15 3.6 32.9 5.75 33.6 L6 33.5 6.2 33.4 Q7.15 30.8 7.1 28 L7.35 21.15 7.35 17.9 7.5 14.7 Q7.45 11.7 6.3 8.9 L6.2 8.85 6.05 8.7 Q4 9.25 2.7 7.75 1.7 6.05 2.9 4.5 5.55 2.1 9.25 2.35 16.5 1.8 23.6 3.65 26.75 4.35 28.75 6.8 M18.55 10.95 L14.9 8.55 Q14.75 8.4 14.65 8.55 L14.4 8.7 Q13.05 13.25 13.65 18.05 13.7 19.5 14.8 20.4 L17.95 20.5 Q21.55 18.45 20.9 14.35 20.4 12.15 18.55 10.95"/>
    <path stroke="none" fill="#7dc8e8" d="M18.9 33.9 Q19.6 33.6 16.8 36.55 L15.8 37.7 Q16.5 37.2 16.55 37.35 L16.75 37.5 16.65 37.85 16.55 37.9 15.7 38.4 14.5 39.05 14.3 38.9 Q13.55 39.2 16.4 36.2 L17.55 34.9 14.4 36.8 10.7 39 10 39.3 9.8 39.15 Q8.9 39.45 12.5 36.35 L14.35 34.75 10.85 36.85 Q6.05 39.8 6.4 39.4 L6.3 39.4 6.15 39.25 Q5.1 39.65 9.4 35.85 L11 34.35 7.85 36.3 Q2.8 39.45 3.25 38.9 L3.05 38.75 Q2.75 38.65 3.6 37.9 L8.5 34.05 11.5 31.75 8.35 33.65 3.8 36.4 2.7 36.85 2.5 36.7 Q1.95 36.95 4.05 34.45 L4.55 33.8 3.85 34.1 3.7 33.95 Q3.55 33.7 3.8 33.55 L3.85 33.55 4.75 33.05 Q5.75 32.35 5.7 32.55 L5.9 32.7 Q6.45 32.45 4.45 34.8 L3.6 35.85 8.05 33.2 12.65 30.4 13.75 29.95 13.95 30.1 Q14.25 30.2 13.45 30.9 L8.85 34.5 5.55 37.05 7.55 35.8 Q12.95 32.45 12.5 33.05 L12.65 33.2 Q13.65 32.85 9.75 36.25 L7.85 38 10.55 36.35 14.85 33.8 Q15.8 33.25 15.9 33.4 L16.05 33.5 Q17.1 33.15 12.85 36.8 L11.8 37.7 14.1 36.35 17.9 34.1 Q18.7 33.65 18.7 33.75 L18.9 33.9"/>
    <path stroke="none" fill="#7dc8e8" d="M29.5 32.4 L29.45 32.35 29.5 32.1 29.4 31.85 29.9 31.55 Q30.55 31.15 30.55 31.25 L30.5 31.55 30.6 31.8 30.2 32.05 29.5 32.4"/>
    <path stroke="none" fill="#7dc8e8" d="M31.65 14.95 Q32.05 15.05 30.9 16 L24.05 20.85 19.95 23.75 22 22.5 26.95 19.55 Q28 19 28 19.15 L28.2 19.25 Q28.45 19.4 27.8 20 L23.9 23.25 22 24.8 Q23.1 24.1 23.05 24.3 L23.25 24.45 Q23.6 24.2 22.4 26.3 L22.1 26.85 22.4 26.8 22.6 26.9 Q23 26.7 21.6 28.95 L21.15 29.7 21.45 29.55 Q23.25 28.4 23.1 28.7 L23.25 28.8 23.1 30.2 23 31 Q23.8 30.5 24.85 29.9 27.5 28.3 27.15 28.65 L27.35 28.8 Q28 28.55 25.45 31.25 L24.3 32.45 Q25.55 31.7 25.45 31.9 L25.65 32 Q26.45 31.75 23.3 34.65 L22.05 35.9 23.75 34.85 Q27.95 32.25 27.45 32.8 L27.65 32.95 Q28.45 32.6 25.35 35.75 L24.05 37.1 26.7 35.5 Q32.45 31.9 32.05 32.5 L32.2 32.65 Q32.5 32.75 31.8 33.4 L27.7 36.7 24.9 38.9 27.9 37.1 Q31.75 34.8 32.75 34.25 33.75 33.7 33.75 33.85 L33.9 33.95 Q35.1 33.55 30.35 37.55 L28.7 39 29.15 38.7 Q31.9 37 31.55 37.4 L31.75 37.55 31.65 37.9 31.55 37.95 29.45 39.2 26.8 40.65 26.6 40.5 Q25.5 40.9 30 37.1 L32.1 35.25 28.2 37.6 22.85 40.65 22.75 40.65 22.6 40.5 Q22.3 40.4 23.05 39.75 L27.35 36.25 30.1 34.05 27 35.95 Q22.25 38.95 22.8 38.3 L22.65 38.2 Q21.85 38.5 24.95 35.35 L26.25 34 24.05 35.35 Q20.15 37.75 20.6 37.25 L20.4 37.1 Q19.55 37.45 22.9 34.25 L23.75 33.45 23 33.8 22.8 33.65 Q22.05 34 25 30.85 L25.8 30 25.15 30.35 Q22.2 32.2 22.6 31.75 L22.4 31.65 Q22.3 31.85 22.55 30.15 L22.65 29.45 21.7 30.05 20.35 30.75 20.15 30.6 Q19.8 30.8 21.1 28.7 L21.6 27.85 21.35 27.9 21.15 27.75 Q20.8 27.9 21.9 26 L22.35 25.25 Q21.85 25.5 21.4 25.8 19.4 27.05 19.6 26.75 L19.4 26.65 Q19.15 26.55 19.8 25.9 L23.55 22.8 26.2 20.65 22.3 23 17.75 25.7 Q16.85 26.2 16.8 26.1 L16.65 25.95 Q16.25 25.85 17.35 24.95 L23.75 20.4 29.05 16.65 24.4 19.5 17.6 23.6 Q15.8 24.6 15.65 24.45 15.5 24.45 15.45 24.3 15.35 24.1 15.55 23.95 L15.75 23.9 18.9 22.2 24.1 19.05 30.1 15.4 Q31.45 14.65 31.5 14.8 L31.65 14.95"/>
    <path stroke="none" fill="#7dc8e8" d="M30.15 8.65 L25.95 11.85 22.7 14.35 26.5 12.05 Q30 9.9 30.85 9.45 L31.65 9.15 31.85 9.3 Q32.15 9.4 31.3 10.1 L26.25 13.85 22.2 16.8 25.3 14.9 29.35 12.45 30.35 12.05 30.55 12.2 30.45 12.6 30.3 12.6 25.6 15.4 20.05 18.55 19.95 18.55 19.8 18.4 Q19.45 18.3 20.4 17.5 L25.95 13.4 28.7 11.4 26.75 12.55 21.75 15.5 Q20.65 16.15 20.6 16 L20.4 15.9 Q20.1 15.8 20.9 15.05 L25.6 11.4 27.95 9.65 25.15 11.35 20.6 14.1 19.5 14.55 19.3 14.4 Q19.05 14.3 19.7 13.7 L23.3 10.8 25.15 9.35 24.35 9.8 Q20.5 12.3 20.75 11.85 L20.55 11.7 Q19.5 12.05 23.8 8.45 L25.15 7.3 22.5 8.85 18.4 11.3 17.55 11.65 17.35 11.5 Q17.05 11.4 17.85 10.7 L22.35 7.15 24.95 5.15 22.7 6.5 17.9 9.35 Q16.9 9.9 16.9 9.75 L16.7 9.65 Q15.65 10.05 19.95 6.2 L21.3 5 18.1 6.9 14.4 9.15 13.65 9.4 13.5 9.25 Q13.4 9.05 13.6 8.9 L13.7 8.85 17.8 6.45 22 3.95 Q22.9 3.45 22.9 3.6 L23.1 3.7 Q24 3.4 20.35 6.65 L18.35 8.45 22.4 6.05 26.55 3.55 27.35 3.25 27.5 3.4 Q27.8 3.5 27.05 4.15 L22.7 7.6 19.7 9.9 22.2 8.4 26.2 6 27 5.7 27.15 5.85 Q28.15 5.55 24.2 8.85 L22.45 10.4 24.1 9.35 Q27.8 6.95 27.55 7.4 L27.75 7.55 Q28 7.65 27.35 8.25 L23.65 11.25 21.65 12.8 24.85 10.9 29.35 8.2 Q30.35 7.65 30.4 7.75 L30.6 7.9 Q30.9 8 30.15 8.65"/>
    <path stroke="none" fill="#7dc8e8" d="M22.95 4.1 L14.6 9.85 12.55 11.2 Q14.3 10.15 14.2 10.4 L14.4 10.5 14 11.25 10.15 14.5 8.3 16.05 9.25 15.45 Q13.05 13.15 12.55 13.65 L12.7 13.8 Q13.35 13.55 11.05 16.05 L10.05 17.2 10.4 17 Q12.45 15.65 12.4 15.9 L12.55 16.05 Q13.5 15.7 9.85 19.2 L8.8 20.25 9.7 19.7 Q13.2 17.5 12.8 18 L13 18.1 Q14.1 17.65 9.5 21.8 L8.25 22.95 10.95 21.3 14.9 19 15.65 18.7 15.8 18.85 15.35 19.6 11 23 9.05 24.5 10.1 23.85 14.05 21.5 Q14.9 21.05 14.95 21.15 L15.1 21.3 Q15.4 21.4 14.75 22.05 L11 25.35 8.9 27.15 19.5 20.8 27.95 15.7 Q30.15 14.45 30.3 14.6 L30.5 14.75 Q31 14.85 29.05 16.3 L18.6 23.05 11.2 27.8 Q13.9 26.15 13.6 26.55 L13.8 26.65 Q14.85 26.3 10.5 29.9 L9.15 31.1 9.35 30.95 Q12.75 28.85 12.4 29.3 L12.6 29.4 12.5 29.8 12.35 29.85 9.65 31.45 Q7.05 33.05 7.15 32.85 L7.1 32.85 6.9 32.7 Q5.85 33.1 10.15 29.5 L11.7 28.15 10.15 29.1 Q5.8 31.75 6.4 31.15 L6.25 31 Q5.7 30.9 7.7 29.45 L18.3 22.55 28.05 16.3 19.8 21.3 10.6 26.85 Q7.9 28.4 7.6 28.25 L7.4 28.1 Q6.35 28.45 10.6 24.9 L13.35 22.55 10.35 24.35 6.95 26.4 6.25 26.65 6.1 26.5 Q5.8 26.4 6.5 25.75 L10.65 22.55 13.1 20.7 11.25 21.8 7.35 24.1 6.65 24.4 6.45 24.25 Q5.55 24.55 9.15 21.4 L11.3 19.35 10 20.15 Q6.95 22.1 7.3 21.65 L7.15 21.5 Q6.35 21.8 9.45 18.8 L11 17.25 10.7 17.45 8.9 18.4 8.7 18.3 Q8 18.55 10.65 15.7 L11.35 14.85 Q10.5 15.35 9.55 15.95 L6.2 17.8 6 17.65 Q5.75 17.55 6.35 17 6.95 16.4 9.8 14.1 L12.35 12 10.65 13 7 15.05 6.8 14.9 Q6.45 14.8 7.6 13.9 8.75 13.05 14.25 9.35 L20.85 4.9 16.45 7.55 8.95 12.05 Q6.95 13.2 6.8 13.05 L6.6 12.9 Q6.25 12.8 7.3 11.9 L13.45 7.35 16.6 5.1 13.7 6.85 7.6 10.5 6.05 11.15 5.85 11 Q5.55 10.9 6.3 10.25 L10.65 6.85 12.95 5.1 11.8 5.8 Q7 8.85 7.35 8.3 L7.15 8.15 Q6.3 8.45 9.75 5.35 L11.05 4.15 8.45 5.75 Q4.2 8.45 4.55 7.95 L4.4 7.8 Q3.7 8.1 6.35 5.35 L7.6 4 6.6 4.65 Q3.65 6.55 3.8 6.15 L3.6 6 Q3.05 6.25 5.05 3.8 L5.6 3.05 5.2 3.3 3.65 4.1 3.5 3.95 Q3.4 3.75 3.6 3.6 L3.65 3.55 4.9 2.8 6.65 1.9 6.8 2.05 Q7.3 1.85 5.5 4.1 L4.7 5.15 6.3 4.15 8.8 2.75 9 2.9 Q9.8 2.6 6.75 5.75 L5.8 6.75 8.15 5.3 Q12.9 2.3 12.55 2.85 L12.75 3 Q13.6 2.7 10.15 5.8 L8.85 6.95 11.55 5.3 Q15.9 2.6 15.5 3.1 L15.7 3.25 Q16 3.35 15.25 4 L11 7.3 7.95 9.65 13.45 6.35 18.4 3.35 Q19.45 2.8 19.45 2.95 L19.65 3.05 Q19.95 3.15 19.05 3.95 L13.75 7.85 8.55 11.65 16.15 7.1 22.35 3.4 Q23.7 2.6 23.75 2.75 L23.95 2.9 Q24.4 3 22.95 4.1"/>
    <path stroke="none" fill="#fac49d" d="M16.15 24.6 Q16.05 25.1 15.55 25.1 15 25 14.7 25.25 L14.55 25.4 14.15 26.45 13.6 26.85 13.45 26.8 Q13 26.65 13.05 26.1 L13.65 24.75 13.8 24.55 13.95 24.4 Q14.6 23.85 15.65 23.95 16.15 24.05 16.15 24.6"/>
    <path stroke="none" fill="#fac49d" d="M13.3 28.8 Q13.8 28.85 13.9 29.35 13.95 30.85 14.4 32.25 14.5 32.75 14.05 32.95 L13.85 33 13.35 32.6 Q12.85 31.05 12.75 29.4 12.8 28.85 13.3 28.8 M16.35 32.65 Q18.1 33.35 18.3 35.65 18.3 36.2 17.8 36.25 L17.75 36.25 Q17.25 36.2 17.2 35.7 17.05 34.2 16 33.7 15.55 33.5 15.65 33 15.85 32.55 16.35 32.65 M14.5 38.15 L16 37.65 Q16.45 37.5 16.75 37.95 16.9 38.4 16.45 38.7 L14.8 39.25 13.35 39.6 13.25 39.6 Q12.8 39.55 12.7 39.15 12.6 38.65 13.1 38.5 L14.5 38.15 M4.45 37.7 Q4.85 38 4.6 38.45 L4.15 38.7 3.85 38.6 Q2.15 37.45 2.15 35.7 L2.15 35.5 Q2.25 35 2.75 35 3.25 35.05 3.3 35.55 L3.25 35.7 Q3.55 37.25 4.45 37.7 M6.5 39.2 Q6.6 38.7 7.15 38.75 L10.1 38.9 Q10.65 38.9 10.7 39.4 10.7 39.95 10.15 40 L9.2 40.05 6.95 39.85 Q6.4 39.7 6.5 39.2"/>
    <path stroke="none" fill="#fac49d" d="M6.7 33.6 L6.3 33.95 Q6.2 34.05 6.05 34.1 L5.8 34.15 5.4 34 4.7 33.85 Q4.2 33.9 4.05 33.4 4 32.9 4.5 32.75 L5.75 32.9 6.05 32 Q6.2 31.55 6.75 31.6 7.2 31.8 7.1 32.3 L6.7 33.6"/>
    <path stroke="none" fill="#fac49d" d="M28 6.75 Q27.7 6.35 28.05 5.95 L28.85 6 29.15 6.4 30.55 8.75 Q30.7 9.2 30.25 9.45 L30.05 9.5 Q29.7 9.5 29.5 9.2 L28.25 7.1 28 6.75 M23.4 4.15 L23 4.05 Q22.5 3.85 22.6 3.35 22.8 2.85 23.3 2.95 L23.7 3.05 26.25 4 Q26.7 4.3 26.5 4.8 26.35 5.05 26 5.1 L25.75 5 23.4 4.15 M31.45 11.8 L31.5 11.95 31.55 12.9 31.2 15.05 30.65 15.45 30.5 15.45 Q30.05 15.25 30.15 14.75 L30.4 12.9 30.35 12.1 30.35 11.95 Q30.3 11.45 30.8 11.3 31.35 11.3 31.45 11.8 M29.75 17.95 L27.55 20.25 27.2 20.35 Q26.9 20.4 26.75 20.15 26.45 19.75 26.8 19.4 L28.85 17.25 29.6 17.15 Q30 17.5 29.75 17.95 M25.15 21.25 Q25.35 21.75 24.95 22.05 L23.6 22.75 Q23.4 23.15 23.35 23.65 23.25 24.15 22.75 24.15 L22.7 24.15 Q22.2 24.05 22.2 23.55 22.3 22.75 22.7 22.05 22.85 21.75 23.2 21.65 L24.4 21.05 Q24.85 20.85 25.15 21.25 M23.95 26.3 L25.2 28.45 25.5 28.85 Q25.75 29.3 25.35 29.6 L25 29.75 24.55 29.5 24.25 29.05 22.95 26.8 Q22.75 26.3 23.2 26.05 23.7 25.85 23.95 26.3 M33.1 33.65 L33.05 34.35 32.5 34.8 32.45 34.8 Q31.9 34.7 31.95 34.2 L31.95 33.65 31.95 33.25 31.7 32.15 31.65 32.1 31.45 31.85 Q31.05 31.5 31.35 31.05 L32.15 30.95 32.6 31.5 Q33.1 32.35 33.05 33.15 L33.1 33.65 M29.85 33.1 Q28.2 32.9 26.75 31.85 26.4 31.5 26.65 31.05 27 30.65 27.45 30.95 28.65 31.85 29.95 32 30.45 32.1 30.45 32.6 30.35 33.05 29.9 33.1 L29.85 33.1 M23.25 30.7 Q23.75 31.85 23.9 33.15 23.95 33.65 23.45 33.8 L23.35 33.8 Q22.9 33.75 22.8 33.3 L22.2 31.15 21.95 30.6 Q21.75 30.1 22.15 29.85 22.65 29.65 22.9 30.05 L23.25 30.7 M23.65 39.65 L26.4 39.85 Q26.9 39.85 27.05 40.3 27.1 40.85 26.6 40.95 L25.4 41.1 23.3 40.75 Q22.8 40.55 22.95 40.05 23.15 39.55 23.65 39.65 M31.75 36.65 Q32.15 36.95 31.9 37.4 31.05 38.75 29.6 39.7 L29.3 39.8 28.8 39.55 Q28.55 39.1 28.95 38.75 30.25 37.9 30.95 36.8 31.3 36.4 31.75 36.65 M10.45 2.25 Q10.5 1.7 11 1.65 L14.1 1.7 Q14.6 1.75 14.65 2.25 L14.1 2.8 14.05 2.8 11.05 2.8 Q10.5 2.75 10.45 2.25 M8.55 2.35 Q8.5 2.85 8 2.95 L5.2 3.5 5 3.55 Q4.6 3.55 4.45 3.2 4.3 2.7 4.8 2.45 6.55 1.85 7.9 1.8 8.45 1.85 8.55 2.35 M17.2 1.85 L20.25 2.3 Q20.75 2.4 20.7 2.95 L20.15 3.4 20.05 3.4 17.05 3 Q16.55 2.9 16.55 2.4 16.65 1.85 17.2 1.85 M1.65 6.15 Q1.65 5.3 2.1 4.5 2.45 4.1 2.9 4.35 3.3 4.65 3.05 5.1 L2.75 6.15 Q2.8 6.8 3.15 7.4 3.4 7.85 2.95 8.2 L2.65 8.25 2.2 8 Q1.65 7.15 1.65 6.15 M6.55 8.4 L6.75 8.65 7.45 10.7 Q7.55 11.2 7.05 11.4 L6.9 11.4 6.35 11 5.8 9.25 5.4 9.25 Q4.85 9.25 4.8 8.7 4.8 8.2 5.35 8.15 L6 8.1 Q6.35 8.15 6.55 8.4 M6.9 14.5 L6.9 13.9 Q6.9 13.4 7.4 13.3 7.9 13.3 8 13.85 L8 14.5 8 14.7 7.95 16.3 7.9 16.95 Q7.85 17.45 7.35 17.45 L7.3 17.45 Q6.8 17.4 6.8 16.9 L6.8 16.2 6.9 14.65 6.9 14.5 M7.9 20.7 L7.9 21.15 7.85 23.05 7.3 23.6 7.25 23.6 Q6.75 23.5 6.75 23 L6.75 21.1 6.75 20.7 6.75 20 Q6.8 19.45 7.3 19.4 L7.35 19.4 Q7.85 19.45 7.9 19.95 L7.9 20.7 M7.2 25.5 Q7.7 25.6 7.7 26.1 L7.6 28.05 7.55 29.15 7 29.7 Q6.45 29.6 6.45 29.1 L6.5 28 6.6 26.05 Q6.65 25.55 7.2 25.5 M20.5 26.95 L21 27.5 Q21.35 27.9 21 28.3 L20.6 28.45 Q20.35 28.45 20.2 28.25 L19.7 27.75 18.05 26.2 Q17.7 25.85 17.95 25.4 L18.75 25.3 20.5 26.95 M22.8 35.35 Q23 35.8 22.55 36.1 21.75 36.5 21.75 37.15 L21.75 37.25 21.9 38 Q22 38.45 21.55 38.7 L21.35 38.7 Q21 38.7 20.85 38.35 L20.65 37.3 20.65 37.15 Q21.1 35.25 22.05 35.1 22.55 34.9 22.8 35.35"/>
    <path stroke="none" fill="#fac49d" d="M15.25 8.1 L16.15 8.75 Q16.6 9.05 16.35 9.5 16 9.9 15.55 9.65 L14.8 9.15 14.6 9.95 14.05 10.4 13.95 10.35 Q13.45 10.2 13.5 9.7 L13.85 8.5 Q14 8.05 14.45 8 L15.25 8.1"/>
    <path stroke="none" fill="#fac49d" d="M13 12.95 Q13.1 12.45 13.6 12.45 14.1 12.55 14.1 13.05 L14 15.05 14.05 16.2 Q14 16.7 13.5 16.8 13 16.75 12.95 16.25 L12.9 15.05 13 12.95 M18.1 10.65 Q18.45 10.25 18.9 10.5 20.6 11.75 21.15 13.2 21.3 13.65 20.85 13.9 L20.65 13.95 Q20.25 13.95 20.1 13.6 19.65 12.45 18.25 11.4 17.85 11.05 18.1 10.65 M21 16 Q21.45 16.15 21.45 16.65 21.1 18.55 19.85 19.8 L19.45 19.95 19.05 19.8 Q18.75 19.4 19.05 19 20.05 18 20.35 16.5 20.45 16 21 16 M13.75 18.9 Q14.25 18.75 14.5 19.2 L15.1 19.95 16.6 20.25 Q17.1 20.25 17.2 20.75 17.2 21.3 16.65 21.35 L16.35 21.4 Q15.3 21.4 14.5 20.9 13.85 20.45 13.45 19.65 13.3 19.15 13.75 18.9"/>
  </g>
</svg>