<svg width="30.75px" height="40.85px" viewBox="0 0 30.75 40.85" xmlns="http://www.w3.org/2000/svg" xmlns:xlink="http://www.w3.org/1999/xlink">
  <defs/>
  <g>
    <path stroke="none" fill="#7279b8" d="M19.9 0 Q28.3 0.2 30.6 5.85 31.1 9.05 29.65 11.35 28.25 14.35 25.15 15.35 L23.1 15.75 23.95 16.25 Q28.55 19.3 29.1 25.05 29.5 30.2 27.35 33.95 25.2 37.55 20.75 39.55 18.8 40.4 16.45 40.75 L14.45 40.85 13.15 40.8 11.9 40.75 11.4 40.75 Q9 40.95 6.25 39.8 4.35 38.8 2.7 37.05 -1.05 32.95 0.4 27.4 2.9 23.3 7.4 23.5 L7.95 23.55 Q10.7 23.75 12.55 25.55 13.95 27.05 13.8 29.2 L13.3 30.95 13.9 30.85 Q15.9 30.5 17.1 28.6 17.55 27.8 17.35 27.6 17.15 26.5 13.4 24.65 10.9 23.75 7.3 21 3.65 18.25 3.6 13.05 4 8.55 7.45 4.6 11.15 1.15 15.9 0.45 L19.9 0 M15.05 11.85 L16.7 12.75 17 12.9 16.65 11.6 Q16.55 10.9 16.75 10.2 L16.65 10.25 Q15.5 10.5 15.1 11.8 L15.05 11.85"/>
    <path stroke="none" fill="#5f7ba6" d="M24.5 13.25 L20.15 13 Q17.7 11.3 19.95 9.25 L20 9.1 20.05 8.85 Q18.5 7.3 16.15 8.05 13.7 8.7 12.95 11.2 12.75 14.05 15.85 14.85 L19.25 16.5 Q21.1 17.2 22.75 18.15 26.5 20.75 26.85 25.25 27.3 29.25 25.45 32.8 23.4 36.05 19.85 37.5 18.1 38.25 16.15 38.5 L11.85 38.55 Q9.45 38.75 7.25 37.8 5.6 36.95 4.4 35.55 1.5 32.35 2.5 28.3 4.35 25.45 7.8 25.8 9.65 25.9 10.95 27.15 12.4 29.4 10.35 31.2 10.15 31.35 10.35 31.5 L10.3 31.65 Q11.55 33.85 14.3 33.1 17.35 32.45 19 29.8 20.45 27.15 18.5 25.35 16.6 23.5 14.3 22.6 11.2 21.35 8.5 19.05 5.85 16.8 5.85 13.15 6.4 9.15 9.15 6.1 12.2 3.25 16.4 2.6 19.55 1.85 23.3 2.6 27.05 3.35 28.45 6.6 28.65 8.65 27.6 10.5 26.65 12.55 24.5 13.25"/>
    <path stroke="none" fill="#7dc8e8" d="M6.35 25.2 L6.55 25.35 Q7.4 24.95 3.9 28.4 L2.6 29.65 5.45 27.95 9.65 25.45 10.45 25.15 10.6 25.3 Q10.85 25.4 10.25 26 L6.65 29.05 4.65 30.75 6.6 29.55 10.5 27.25 Q11.25 26.85 11.3 26.95 L11.5 27.1 Q11.75 27.2 11.15 27.8 L7.6 30.75 6 32.1 7 31.45 Q10.9 29 10.5 29.55 L10.65 29.65 Q10.9 29.75 10.3 30.4 L6.65 33.5 4.95 34.95 5.5 34.6 Q9.75 32 9.15 32.6 L9.35 32.7 Q9.95 32.5 7.7 35.1 L6.65 36.35 10.05 34.3 13.5 32.25 14.2 32 14.35 32.15 Q15.35 31.8 11.3 35.25 L8.95 37.35 16.4 32.9 23.6 28.6 Q25.35 27.6 25.4 27.8 L25.6 27.9 Q26 28 24.8 28.9 L18.1 33.55 12.7 37.25 17.25 34.45 23.55 30.7 Q25.15 29.75 25.3 29.9 L25.5 30.05 Q25.8 30.15 25.05 30.8 L20.8 34.25 18.05 36.4 19.85 35.3 Q25.65 31.7 25.25 32.3 L25.45 32.45 25.35 32.8 25.15 32.85 20.15 35.8 16.65 37.9 15.9 38.2 15.7 38.05 Q15.4 37.95 16.15 37.25 L20.45 33.8 23.7 31.25 17.55 34.95 Q9.8 39.75 10.05 39.25 L10 39.25 9.8 39.1 Q9.4 39 10.65 38.05 L17.8 33.05 22.55 29.85 16.7 33.4 9.4 37.75 Q7.65 38.75 7.6 38.55 L7.4 38.4 Q6.25 38.9 10.95 34.85 L12.35 33.6 10.35 34.8 6.4 37.15 5.65 37.4 5.5 37.3 Q4.85 37.55 7.25 34.75 L8.15 33.65 5.8 35.1 Q2.3 37.25 2.8 36.75 L2.6 36.6 Q2.35 36.5 2.95 35.95 L6.3 33.05 8.55 31.15 7.3 31.95 3.85 33.85 3.7 33.7 Q2.5 34.1 7.25 30.3 L9.4 28.55 6.9 30.05 3.35 32.15 2.7 32.4 2.5 32.25 Q2.25 32.15 2.85 31.6 L6.3 28.65 8.6 26.7 5.75 28.45 1.9 30.7 1.2 31 1 30.85 Q0.15 31.15 3.5 28 L4.8 26.65 3.75 27.15 3.6 27.05 Q3.45 26.8 3.7 26.65 L3.75 26.6 5 25.9 Q6.45 24.95 6.35 25.2"/>
    <path stroke="none" fill="#7dc8e8" d="M28.35 3.15 Q28.65 3.25 27.9 3.95 L23.35 7.45 20.2 9.85 22.6 8.4 Q25.85 6.45 26.6 6.05 L27.35 5.75 27.55 5.9 Q28.6 5.55 24.2 9.1 23.25 9.9 22.25 10.75 L23.75 9.8 Q27.5 7.4 27.25 7.85 L27.4 8 Q28.55 7.6 23.9 11.35 L22.35 12.65 24.3 11.45 27.9 9.3 28.6 9.05 28.75 9.2 28.65 9.6 28.55 9.6 24.6 11.95 Q19.95 14.75 20.35 14.35 L20.25 14.35 20.05 14.2 Q18.95 14.6 23.55 10.9 L25.2 9.55 24.05 10.25 Q20.15 12.75 20.4 12.3 L20.2 12.15 Q19.95 12.05 20.55 11.5 21.1 10.9 23.85 8.65 L25.35 7.4 22.9 8.9 18.8 11.35 Q17.95 11.8 17.9 11.7 L17.75 11.55 Q17.45 11.45 18.25 10.7 19.05 10 23 7 L25.6 5.05 24.45 5.75 20.55 8.05 19.7 8.4 19.5 8.25 Q18.7 8.6 21.95 5.35 L22.95 4.3 19.25 6.5 15.45 8.75 14.7 9.05 14.55 8.9 Q14.45 8.65 14.65 8.5 L14.75 8.5 19 6 23.3 3.45 Q24.15 2.95 24.2 3.1 L24.4 3.2 Q25.1 2.95 22.35 5.7 L20.9 7.2 24.15 5.25 27.55 3.25 Q28.15 2.9 28.2 3 L28.35 3.15"/>
    <path stroke="none" fill="#7dc8e8" d="M20.5 4.15 L14.2 8.55 11.75 10.2 12.4 10 12.55 10.15 Q13.65 9.75 9.15 13.45 L7.35 15 9.15 13.9 Q12.75 11.7 12.25 12.2 L12.4 12.35 Q13.3 12 9.9 15.15 L8.1 16.9 11.05 15.15 Q15.3 12.5 14.7 13.1 L14.85 13.25 Q15.1 13.35 14.55 13.95 L11.15 16.9 10 17.9 11.8 16.8 Q14.65 15.05 15.4 14.65 L16.15 14.35 16.35 14.5 Q16.6 14.6 16 15.2 L12.55 18.2 10.85 19.7 12.9 18.45 16.3 16.45 17 16.2 17.15 16.35 Q17.75 16.1 15.6 18.5 L14.65 19.7 16 18.85 Q19.2 16.8 18.95 17.2 L19.15 17.35 Q20 17 16.6 20.4 L15.55 21.5 17.35 20.35 Q22 17.5 21.45 18.1 L21.65 18.25 Q22.7 17.8 18.4 21.75 L17.2 22.9 20.4 20.95 24.6 18.45 Q25.45 18 25.5 18.1 L25.65 18.25 25.25 19 21.3 22.15 19.8 23.4 20.1 23.2 Q24.7 20.35 24.15 20.95 L24.3 21.1 Q25.15 20.7 21.85 24.15 L20.95 25.1 22.75 24 Q26.1 21.9 25.75 22.35 L25.95 22.5 Q27 22.1 22.6 25.85 L20.8 27.45 22.8 26.25 Q25.5 24.6 26.15 24.25 L26.8 24 27 24.15 26.9 24.5 26.75 24.55 23.1 26.7 19.15 28.95 19.05 28.95 18.9 28.8 Q17.75 29.25 22.25 25.4 L23.9 23.95 23.05 24.45 Q19.3 26.8 19.7 26.3 L19.55 26.2 Q18.85 26.45 21.45 23.75 L23 22.1 20.4 23.65 Q16.45 26.1 17 25.55 L16.8 25.4 Q16.55 25.3 17.2 24.7 L20.95 21.7 23.2 19.95 20.7 21.45 16.55 23.9 15.7 24.25 15.5 24.1 Q14.65 24.45 18 21.35 L20.1 19.35 17.65 20.85 14.15 22.8 14 22.65 Q13.2 22.95 16.2 20 L17.7 18.45 16.3 19.3 Q13.3 21.25 13.6 20.8 L13.4 20.65 Q12.75 20.95 15.2 18.15 L15.9 17.3 13.2 18.95 Q8.4 21.9 9 21.3 L8.85 21.15 Q7.7 21.55 12.2 17.8 L14.5 15.8 12.1 17.25 Q7.4 20.15 8 19.55 L7.85 19.4 Q6.85 19.75 10.8 16.45 L12.8 14.7 11.35 15.6 7.5 17.9 6.75 18.15 6.55 18.05 Q5.6 18.45 9.5 14.75 L10.65 13.65 9.45 14.4 Q4.95 17.15 5.5 16.6 L5.3 16.45 Q4.2 16.85 8.8 13.05 L10.25 11.8 10.05 11.9 7.1 13.55 6.9 13.4 Q6.55 13.3 7.6 12.45 L13.9 8.1 18.45 4.95 13.85 7.75 Q6.8 12.15 7.2 11.55 L7.05 11.4 Q6.75 11.3 7.5 10.65 L11.85 7.25 15.4 4.55 13.5 5.75 Q8.35 9.05 8.5 8.55 L8.35 8.4 Q7.35 8.75 11.2 5.3 L12.15 4.4 10.3 5.35 10.1 5.25 Q10 5 10.2 4.85 L10.3 4.8 11.85 3.9 Q14.25 2.4 14 2.75 L14.15 2.9 Q15.05 2.6 11.55 5.7 L9.8 7.35 13.2 5.3 Q18.05 2.2 17.65 2.75 L17.85 2.9 Q18.2 3 17.3 3.75 L12.2 7.7 9.5 9.75 13.55 7.3 19.3 3.8 Q20.85 2.9 21 3.05 L21.2 3.2 Q21.6 3.3 20.5 4.15"/>
    <path stroke="none" fill="#fac49d" d="M19.35 7.55 L20.5 8.55 Q20.75 9 20.5 9.35 L20.25 9.65 19.55 10.5 Q19.4 10.8 19.05 10.8 L18.8 10.75 Q18.4 10.5 18.55 10 L19.4 8.95 18.9 8.6 Q18.45 8.3 18.6 7.85 18.85 7.4 19.35 7.55"/>
    <path stroke="none" fill="#fac49d" d="M16.65 7.95 Q16.75 8.45 16.25 8.6 14.9 8.9 14.1 10.05 13.9 10.25 13.65 10.25 L13.3 10.15 Q12.9 9.8 13.2 9.35 14.25 7.9 16 7.5 16.5 7.45 16.65 7.95 M15.3 14 Q15.7 14.3 15.55 14.75 15.4 15.1 15.05 15.1 L14.8 15.05 Q12.75 14.05 12.35 12.7 12.2 12.2 12.7 12 13.2 11.9 13.4 12.35 13.7 13.25 15.3 14 M21.05 17.3 Q20.9 17.65 20.55 17.65 L20.3 17.6 19.8 17.35 19 17 17.55 16.3 Q17.1 16.05 17.3 15.55 17.55 15.1 18.05 15.3 L19.45 16 20.25 16.35 20.75 16.55 Q21.25 16.8 21.05 17.3 M22.75 18.2 Q23.1 17.8 23.55 18.05 24.85 19.05 25.75 20.4 26 20.85 25.6 21.15 L25.3 21.25 24.8 21 Q24.05 19.8 22.9 18.95 22.5 18.65 22.75 18.2 M27.4 25.2 L27.45 26.45 Q27.4 27 26.9 27.05 26.4 27 26.35 26.45 L26.25 25.3 26 23.6 Q25.9 23.1 26.4 22.9 26.9 22.85 27.05 23.3 L27.4 25.2 M5.75 26.5 Q4.6 26.7 3.45 27.8 L3 28 2.65 27.85 Q2.3 27.45 2.6 27.05 3.65 25.9 5.5 25.45 6 25.35 6.2 25.85 6.25 26.35 5.75 26.5 M8.1 25.8 Q8.25 25.3 8.75 25.35 10.3 25.75 11.35 26.75 L11.65 27.15 Q11.9 27.65 11.5 27.95 L11.2 28.05 10.7 27.8 10.55 27.55 Q9.7 26.75 8.5 26.45 8.05 26.3 8.1 25.8 M4.05 36.1 Q3.75 35.65 4.1 35.3 L4.9 35.35 Q5.95 36.45 7.1 37.15 7.55 37.4 7.3 37.9 L6.85 38.2 6.55 38.1 4.05 36.1 M2.85 33.75 L2.3 33.4 Q1.6 31.8 1.55 30.25 1.6 29.75 2.1 29.7 2.6 29.75 2.65 30.25 2.7 31.5 3.35 32.95 3.5 33.45 3.05 33.7 L2.85 33.75 M9.15 38.45 Q9.25 37.95 9.75 37.95 L11.35 38 11.9 38 12.75 38.05 Q13.25 38.1 13.3 38.6 L12.75 39.15 12.7 39.15 11.9 39.15 11.35 39.15 9.65 39.05 Q9.15 39 9.15 38.45 M26.15 32.6 L25.65 32.9 25.4 32.85 Q24.95 32.6 25.15 32.1 L26.05 29.4 Q26.2 28.9 26.75 28.95 27.2 29.1 27.15 29.6 26.85 31.25 26.15 32.6 M24.25 34.4 Q24.6 34.8 24.25 35.2 L21.75 37.15 21.5 37.2 21 36.95 Q20.8 36.5 21.2 36.2 L23.45 34.4 Q23.85 34.05 24.25 34.4 M15.7 38 L16.05 37.95 18.55 37.4 Q19.05 37.3 19.25 37.75 19.4 38.25 18.9 38.45 L16.2 39.1 15.85 39.15 15.75 39.15 Q15.3 39.1 15.2 38.65 15.2 38.1 15.7 38"/>
    <path stroke="none" fill="#fac49d" d="M9.7 31.65 L9.65 31.35 Q9.65 30.95 10 30.7 L10.55 30.05 Q10.9 29.65 11.35 29.9 11.75 30.2 11.55 30.65 L10.85 31.45 10.85 31.65 11.3 32.25 Q11.7 32.6 11.45 33.05 L11 33.3 10.7 33.2 Q9.9 32.65 9.7 31.75 L9.7 31.65"/>
    <path stroke="none" fill="#fac49d" d="M19.9 1.7 Q20.45 1.75 20.5 2.25 20.45 2.8 19.9 2.8 L17.1 3.05 17 3.05 16.45 2.6 Q16.45 2.1 16.9 1.95 L19.9 1.7 M29.1 7.3 L29 8.2 28.45 8.65 28.35 8.6 Q27.85 8.5 27.9 7.95 L27.95 7.3 27.9 6.8 27.3 5.65 Q27.05 5.2 27.45 4.9 L28.2 5 28.95 6.45 29.1 7.3 M25.3 3.95 Q24.2 3.4 22.7 3.1 22.2 2.95 22.25 2.45 22.4 1.95 22.95 2 24.55 2.3 25.85 3 26.25 3.25 26.05 3.75 L25.55 4.05 25.3 3.95 M25.15 12.35 Q26.3 11.7 26.95 10.55 27.2 10.1 27.7 10.3 28.1 10.6 27.9 11.05 27.15 12.55 25.7 13.35 L25.4 13.4 24.9 13.1 Q24.7 12.65 25.15 12.35 M14.35 3.75 Q12.85 4.2 11.75 4.8 L11.5 4.85 Q11.15 4.85 11 4.55 10.8 4.05 11.25 3.8 12.4 3.15 14.05 2.65 14.55 2.55 14.75 3.05 14.85 3.55 14.35 3.75 M20.15 12.35 L20.4 12.5 22.55 13 22.6 13 Q23.1 13 23.15 13.55 23.15 14.05 22.6 14.1 L22.55 14.1 Q21.05 14.1 19.85 13.5 L19.5 13.3 Q19.1 13 19.35 12.5 19.65 12.1 20.15 12.35 M12.95 22.6 L10.35 21.2 Q9.95 20.85 10.2 20.4 10.5 20 10.95 20.25 L13.45 21.6 Q13.9 21.85 13.7 22.35 13.55 22.65 13.2 22.65 L12.95 22.6 M15.55 23.85 Q15.15 23.55 15.35 23.1 15.65 22.65 16.1 22.9 17.65 23.7 18.6 24.65 18.95 25.05 18.6 25.45 L18.2 25.65 17.8 25.45 Q16.95 24.65 15.55 23.85 M9.5 6.45 Q8.65 7.45 7.95 8.65 L7.45 8.9 7.15 8.85 Q6.75 8.55 6.95 8.1 7.7 6.8 8.7 5.7 L8.75 5.65 9.55 5.6 Q9.9 6 9.6 6.4 L9.5 6.45 M6.4 10.45 Q6.9 10.7 6.8 11.2 6.45 12.25 6.4 13.2 L6.35 13.65 6.4 13.85 5.85 14.45 5.8 14.45 Q5.3 14.4 5.25 13.9 L5.25 13.65 5.25 13.15 5.7 10.85 Q5.9 10.35 6.4 10.45 M8.35 19.5 L7.95 19.35 Q6.75 18.2 6.05 16.9 5.85 16.45 6.3 16.15 6.8 16 7.05 16.4 7.65 17.5 8.75 18.55 9.05 18.95 8.75 19.35 L8.35 19.5 M20.15 27.85 Q20.15 29 19.45 30.15 L19.15 30.6 18.65 30.8 18.35 30.7 Q17.95 30.4 18.2 29.95 L18.5 29.55 Q19.05 28.65 19.05 27.85 L19 27.6 Q19 27.1 19.5 27 20.05 27 20.15 27.5 L20.15 27.85 M16.85 32.7 Q15.7 33.4 14.4 33.65 L13.9 33.7 13.85 33.75 Q13.35 33.7 13.25 33.25 13.25 32.7 13.75 32.6 L14.15 32.55 Q15.3 32.35 16.25 31.75 16.75 31.55 17.05 31.95 17.25 32.4 16.85 32.7"/>
  </g>
</svg>