<svg width="36.3px" height="39.3px" viewBox="0 0 36.3 39.3" xmlns="http://www.w3.org/2000/svg" xmlns:xlink="http://www.w3.org/1999/xlink">
  <defs/>
  <g>
    <path stroke="none" fill="#7279b8" d="M9.1 0.3 L13.7 0.1 16.65 0.15 19.2 0.15 20 0.2 24.3 0.2 29.15 0.15 29.7 0.15 Q32.3 0.15 34 1.55 36 3.35 36.25 6.1 36.45 8.85 35.6 10.85 33.85 14.55 28.25 14.65 26.45 14.95 24.05 13.1 L23.8 12.8 23.55 18.3 23.5 19 Q23.35 22.2 23.75 25.1 L23.9 26.85 24.2 29.2 Q25.85 29.25 26.95 30.65 28.5 32.85 28.05 35.4 27.95 38.7 21.25 39.3 L19.2 39.2 16.85 39.15 14.8 39.1 Q11.95 39.25 9.3 37.35 7.65 35.85 7.8 33.7 8.1 31.5 10 30.3 11.15 29.6 12.65 29.6 13.25 27.6 13.45 25.65 L13.6 23.3 13.8 19.3 13.35 13.3 13.3 12.75 Q12.25 14.4 9.9 15.15 L7.65 15.5 Q3.35 15.35 1.1 11.8 -1.45 7.15 1.85 2.85 4.55 0.8 7.5 0.6 L7.7 0.55 7.75 0.45 7.85 0.45 8.3 0 9.1 0.3"/>
    <path stroke="none" fill="#5f7ba6" d="M14.25 7.55 Q11.8 6.5 9.5 8.05 L9.45 8.25 9.6 8.5 Q11.55 8.45 11.8 10.35 11.45 12.45 9.2 13 5.3 13.95 3.05 10.65 1.25 7.35 3.45 4.5 5.85 2.85 8.85 2.65 L8.95 2.65 9.1 2.6 Q14.1 2.2 19.2 2.45 L29.7 2.4 Q31.3 2.35 32.6 3.3 34.95 6.3 33.55 10 31.7 12.7 28.25 12.5 25.85 12.65 25.45 10.55 26 8.95 27.6 8.25 27.85 8 27.55 7.9 L27.5 7.85 Q25.15 6.4 22.6 7.4 L22.55 7.5 22.5 7.55 Q21.55 10.05 21.6 12.7 L21.3 18.9 Q21.1 22.15 21.5 25.4 21.65 28.6 22.6 31.65 L22.9 31.75 23.15 31.75 Q24.6 30.95 25.35 32.3 26.1 33.6 25.85 34.9 25.25 36.7 23.1 36.95 L19.4 37 14.9 36.85 Q12.6 36.95 10.8 35.65 9.2 33.75 11.15 32.25 12.6 31.55 14.15 32 L14.35 31.8 14.35 31.75 Q15.35 28.85 15.7 25.8 L16.05 19.25 15.6 13.1 Q15.4 10.35 14.35 7.75 L14.25 7.55"/>
    <path stroke="none" fill="#7dc8e8" d="M20.65 29.1 L16.9 31.4 12.25 34.15 11.3 34.55 11.1 34.4 11.05 33.3 11.05 32.8 10.65 33 Q9.4 33.8 9.45 33.6 L9.3 33.5 Q9.2 33.25 9.4 33.1 L9.45 33.05 10.35 32.55 Q11.4 31.85 11.35 32.05 L11.55 32.2 11.6 33.3 11.6 33.85 16.6 30.9 21.4 28.05 Q22.5 27.45 22.55 27.55 L22.75 27.7 Q23.05 27.8 22.25 28.5 L17.7 32.2 15.15 34.2 18.15 32.35 Q23.7 28.9 23.2 29.5 L23.35 29.65 Q23.6 29.75 23 30.35 L19.3 33.4 17.05 35.25 18.8 34.15 Q23.7 31.1 23.3 31.65 L23.45 31.8 Q24.2 31.5 21.45 34.4 L20.65 35.3 22.1 34.4 Q25.9 32.05 25.5 32.55 L25.7 32.65 Q26.35 32.45 23.75 35.1 L22.8 36.15 23 36.05 Q24.75 34.9 24.65 35.15 L24.8 35.3 24.7 35.65 24.6 35.7 23.3 36.5 21.6 37.45 21.5 37.45 21.35 37.3 Q20.6 37.55 23.35 34.75 L24.3 33.75 22.4 34.85 19.45 36.5 19.25 36.4 Q18.6 36.6 21.05 34.05 L22.2 32.75 19.1 34.65 15 36.95 14.8 36.8 Q14.55 36.7 15.2 36.1 L18.95 33 21.15 31.15 18.45 32.85 14.15 35.4 13.1 35.85 12.9 35.7 Q12.65 35.6 13.3 34.95 L17.35 31.75 20.65 29.1"/>
    <path stroke="none" fill="#7dc8e8" d="M33.95 6.1 L30.6 9 29.05 10.25 29.85 9.8 Q33.4 7.55 33 8.05 33.15 8.05 33.2 8.2 34 7.85 30.8 11.05 L29.85 12.05 Q32.25 10.6 32 10.95 L32.15 11.05 32.05 11.45 31.95 11.5 30.15 12.55 28.45 13.5 28.35 13.5 28.2 13.35 Q27.4 13.65 30.4 10.65 L31.75 9.3 Q30.9 9.8 30.15 10.25 L27 12 26.8 11.85 Q25.7 12.25 30.2 8.55 L32.25 6.85 29.75 8.35 26.3 10.45 25.6 10.7 25.45 10.55 Q25.15 10.45 25.85 9.8 26.5 9.2 29.7 6.65 L32.25 4.6 30 5.95 26.5 8 25.85 8.25 25.65 8.1 Q24.65 8.5 28.8 4.9 L30.7 3.15 28.55 4.45 24.65 6.8 23.75 7.15 23.6 7 Q23.5 6.75 23.7 6.6 L23.85 6.55 28.25 4 Q31 2.3 31.65 1.95 L32.3 1.7 32.5 1.85 Q33.6 1.4 29.15 5.3 L27.55 6.75 29.7 5.45 33.55 3.2 Q34.25 2.8 34.25 2.9 L34.45 3.05 Q34.7 3.15 34.05 3.8 L30.05 7.1 27.75 8.9 29.45 7.9 33.25 5.6 Q34.05 5.2 34.1 5.3 L34.25 5.45 Q34.5 5.55 33.95 6.1"/>
    <path stroke="none" fill="#7dc8e8" d="M15.75 6.6 L20 4.05 24.05 1.6 24.85 1.3 25.05 1.45 Q25.35 1.55 24.5 2.25 L19.75 5.95 16.2 8.6 20.3 6.1 Q24.45 3.6 25.55 3 26.6 2.4 26.6 2.55 L26.8 2.7 Q27.1 2.8 26.35 3.45 L21.85 6.85 Q19.85 8.25 18.15 9.55 L22.8 6.7 Q29.7 2.35 29.35 3 L29.55 3.15 Q29.95 3.25 28.75 4.15 L21.95 8.85 18.8 10.95 Q23.2 8.3 22.6 8.9 L22.75 9 Q23.9 8.65 19.4 12.3 L17.3 14.05 19.3 12.8 Q23.45 10.3 22.85 10.85 L23 11 Q24.15 10.6 19.55 14.35 L17.45 16.1 18.25 15.6 Q21.35 13.65 20.95 14.1 L21.15 14.25 Q22.2 13.85 17.95 17.5 L17 18.3 17.65 17.9 Q20.65 16.05 20.25 16.5 L20.45 16.65 Q20.95 16.4 19.1 18.8 L18.3 19.85 19.6 19.05 Q22.55 17.25 22.2 17.65 L22.35 17.8 Q23.4 17.45 19.2 20.95 L17.5 22.35 18.2 21.95 Q22.05 19.6 21.5 20.15 L21.7 20.25 Q22.5 19.95 19.35 23.1 L18.2 24.3 19.2 23.7 Q23 21.35 22.55 21.85 L22.75 22 Q23.7 21.65 19.95 24.85 L18.55 26.1 Q19.95 25.2 19.95 25.4 L20.1 25.55 Q20.85 25.3 18.05 28 L16.85 29.25 18.8 28.05 Q23 25.45 22.5 26 L22.7 26.1 22.6 26.5 22.45 26.55 Q21.45 27.05 19.1 28.5 L15.6 30.5 15.55 30.5 15.35 30.35 Q14.55 30.65 17.65 27.65 L18.4 26.85 Q16.5 28.1 16.55 27.85 L16.4 27.7 Q15.35 28.05 19.55 24.45 L20.7 23.45 19.5 24.2 16.85 25.65 16.65 25.5 Q15.85 25.85 18.95 22.7 L20.2 21.4 18.5 22.4 Q15.1 24.5 15.55 24.05 L15.4 23.9 Q14.25 24.3 18.85 20.5 L20.15 19.4 19.9 19.55 17.35 20.9 17.15 20.8 Q16.6 21.05 18.65 18.45 L19.3 17.55 17.95 18.4 15.05 20 14.9 19.85 Q13.95 20.15 17.55 17.1 L19.1 15.75 18.5 16.1 Q15.15 18.2 15.5 17.75 L15.3 17.6 Q15.05 17.5 15.65 16.9 L19.15 13.9 20.7 12.6 19.6 13.3 16.05 15.4 15.4 15.65 15.2 15.5 Q14.95 15.4 15.55 14.8 L19 11.85 20.55 10.6 18.7 11.7 15.1 13.85 14.4 14.1 14.25 13.95 Q13.85 13.85 15 12.95 L21.65 8.4 26.35 5.15 23.1 7.2 Q16 11.65 16.3 11.05 L16.1 10.9 Q15.8 10.8 16.6 10.05 L21.5 6.4 24 4.55 20.6 6.6 15.15 9.85 14 10.3 13.85 10.15 Q13.5 10.05 14.4 9.3 L19.4 5.45 22.25 3.3 20.3 4.55 15.6 7.35 14.55 7.7 14.4 7.6 Q13.6 7.95 16.75 4.7 L17.75 3.65 14.2 5.75 10.55 7.95 9.8 8.25 9.65 8.1 Q9.55 7.85 9.75 7.7 L9.85 7.7 13.95 5.3 18.1 2.8 Q18.95 2.35 19 2.45 L19.15 2.6 Q19.85 2.35 17.15 5.1 L15.75 6.6"/>
    <path stroke="none" fill="#7dc8e8" d="M10.85 3.1 Q11.15 3.2 10.45 3.8 L6.4 6.95 3.9 8.85 8.05 6.35 Q11.65 4.1 12.7 3.5 L13.85 3.05 14.05 3.2 Q14.4 3.3 13.4 4.1 L7.75 8.2 4.5 10.5 4.6 10.45 Q8 8.35 7.55 8.8 L7.75 8.95 Q8.35 8.7 6.05 11.3 L4.95 12.6 7.1 11.3 9.9 9.75 10.1 9.9 10 10.3 9.9 10.3 7.4 11.8 3.95 13.75 3.9 13.7 3.7 13.6 Q3.05 13.9 5.65 10.9 L6.4 10 4.9 10.9 Q0.7 13.5 1.2 13 L1 12.85 Q0.65 12.75 1.65 11.95 2.65 11.1 7.45 7.75 L10.95 5.2 8.35 6.8 Q1.5 11.1 1.85 10.5 L1.65 10.35 Q1.4 10.25 2.05 9.6 L6.1 6.5 8.45 4.7 5.75 6.35 Q0.65 9.55 1.1 8.95 L0.9 8.85 Q0 9.15 3.55 6 L5.25 4.35 4.25 5 Q0.95 7.15 1.1 6.75 L0.95 6.6 Q0.35 6.8 2.4 4.35 L2.95 3.6 2.6 3.8 1.15 4.55 0.95 4.45 Q0.85 4.2 1.05 4.05 L1.15 4 2.3 3.35 Q4.15 2.2 3.95 2.45 L4.15 2.6 Q4.65 2.4 2.85 4.65 L2 5.75 Q2.95 5.15 3.95 4.5 7 2.55 6.8 2.95 L7 3.1 Q8 2.7 3.9 6.4 L2.6 7.65 5.45 5.9 Q11.05 2.35 10.65 2.95 L10.85 3.1"/>
    <path stroke="none" fill="#fac49d" d="M9.25 3.15 L8.85 3.25 7.95 3.4 7.45 3.5 7.35 3.5 Q6.9 3.45 6.8 3.05 6.75 2.5 7.25 2.4 L7.75 2.3 8.65 2.15 8.8 2.1 8.95 2.05 10.5 1.9 Q11 1.9 11.1 2.4 11.05 2.95 10.55 3 L9.25 3.15"/>
    <path stroke="none" fill="#fac49d" d="M19.6 2.45 Q19.65 1.95 20.15 1.9 L23.4 1.9 Q23.9 1.95 23.95 2.45 23.9 2.95 23.35 3 L20.15 3 Q19.65 2.95 19.6 2.45 M17.55 2.4 Q17.45 2.95 16.95 2.95 L16.55 2.95 13.75 2.9 Q13.25 2.9 13.2 2.35 13.25 1.85 13.75 1.8 L16.6 1.85 17 1.85 Q17.5 1.9 17.55 2.4 M33.45 6.4 Q33.2 4.7 32.35 3.85 32 3.5 32.35 3.05 32.7 2.75 33.1 3.05 34.45 4.65 34.55 6.3 34.55 6.8 34.05 6.9 L34 6.9 Q33.5 6.9 33.45 6.4 M34.05 10.25 Q33.45 11.6 31.9 12.35 L31.65 12.4 31.15 12.05 Q30.95 11.6 31.4 11.3 32.6 10.75 33.05 9.8 L33.2 9.35 Q33.4 8.9 33.9 9 34.35 9.2 34.25 9.7 L34.05 10.25 M29.8 1.85 Q30.3 1.9 30.35 2.45 30.3 2.95 29.8 2.95 L29.75 2.95 29.7 3 26.6 3 Q26.05 2.95 26 2.45 26.05 1.95 26.6 1.9 L29.65 1.85 29.8 1.85 M25.3 11 Q25.8 10.8 26.1 11.2 26.8 11.95 28.25 11.95 L28.5 11.95 Q29.05 11.95 29.1 12.45 29.05 13 28.55 13.05 L28.25 13.05 Q26.3 13.15 25.15 11.8 24.9 11.35 25.3 11"/>
    <path stroke="none" fill="#fac49d" d="M27.8 7.4 L28.2 7.95 Q28.3 8.45 27.8 8.7 L27 9.2 26.7 9.3 26.25 9.1 Q25.95 8.65 26.35 8.3 L26.75 8.05 26 7.75 Q25.5 7.55 25.6 7.05 25.85 6.55 26.35 6.65 L27.75 7.35 27.8 7.4"/>
    <path stroke="none" fill="#fac49d" d="M20.65 20.95 L20.7 18.85 20.7 18.6 Q20.8 18.1 21.3 18.05 21.8 18.15 21.85 18.65 L21.85 18.9 21.75 20.95 21.8 21.6 Q21.75 22.15 21.25 22.2 L21.2 22.2 Q20.7 22.15 20.65 21.65 L20.65 20.95 M23.05 6.65 Q23.6 6.6 23.75 7.05 23.85 7.55 23.35 7.75 L22.95 7.9 Q22.6 8.75 22.4 9.75 22.3 10.15 21.85 10.2 L21.75 10.2 Q21.25 10.05 21.3 9.55 21.55 8.35 21.95 7.35 L22.1 7.1 22.35 6.9 23.05 6.65 M21 12.6 Q21.1 12.1 21.6 12.05 22.1 12.15 22.15 12.65 L22.15 12.7 22 15.65 21.45 16.2 21.4 16.2 Q20.9 16.1 20.9 15.6 L21 12.65 21 12.6 M21.35 24.05 Q21.85 24.05 21.95 24.55 L22.05 25.35 22.25 27.05 22.3 27.55 Q22.3 28.1 21.8 28.2 L21.75 28.2 Q21.25 28.15 21.2 27.65 L21.1 27.15 20.95 25.5 20.85 24.7 Q20.85 24.15 21.35 24.05"/>
    <path stroke="none" fill="#fac49d" d="M24.85 31.6 Q24.7 32.05 24.15 32 23.85 31.95 23.4 32.2 L23 32.35 22.85 32.3 22.55 32.3 Q22.2 32.2 22.05 31.85 L21.65 30.7 Q21.6 30.2 22.05 30 22.55 29.95 22.75 30.4 L23 31.15 Q23.9 30.7 24.4 30.9 24.9 31.05 24.85 31.6"/>
    <path stroke="none" fill="#fac49d" d="M15.4 11.55 Q15.95 11.55 16.05 12.05 L16.2 13.05 16.35 15.05 Q16.35 15.55 15.85 15.65 L15.8 15.65 Q15.3 15.6 15.25 15.1 L15.05 13.2 14.95 12.2 Q14.9 11.65 15.4 11.55 M16.6 19.25 L16.6 19.95 16.6 21.05 16.05 21.6 16 21.6 Q15.5 21.5 15.5 21 L15.5 19.95 15.5 19.3 15.45 18.1 Q15.45 17.55 15.95 17.5 16.5 17.5 16.55 18 L16.6 19.25 M15.25 23.95 Q15.35 23.45 15.85 23.45 16.35 23.55 16.35 24.05 L16.25 25.85 16.1 27.05 15.55 27.55 15.5 27.55 Q15 27.4 15 26.9 L15.1 25.8 15.25 23.95 M14.15 30.5 L14.35 29.7 Q14.55 29.25 15.05 29.35 15.55 29.5 15.45 30.05 L15.2 30.8 14.9 31.85 Q14.85 32.55 14.2 32.6 L13.95 32.55 13.45 32.45 Q13 32.35 13 31.8 13.15 31.3 13.65 31.35 L13.9 31.4 14.15 30.5 M10.6 34.1 L10.9 34.95 Q11.15 35.4 10.75 35.75 L10.4 35.8 9.95 35.6 Q9.5 34.9 9.5 34.1 9.5 32.95 10.35 32.15 10.8 31.8 11.15 32.15 11.5 32.6 11.15 32.95 10.65 33.45 10.6 34.1 M12.4 36.55 Q12.55 36.1 13.1 36.15 L14.95 36.35 15.95 36.35 Q16.45 36.4 16.5 36.95 L15.95 37.5 15.9 37.5 14.9 37.45 12.85 37.25 Q12.35 37.05 12.4 36.55 M19.45 36.45 L21.85 36.5 Q22.35 36.55 22.45 37.05 22.4 37.55 21.9 37.65 L21.25 37.65 19.35 37.55 18.9 37.55 Q18.35 37.45 18.35 36.95 18.45 36.45 18.95 36.4 L19.45 36.45 M25.35 34.3 L25.35 33.9 Q25.3 33.4 25.8 33.25 26.35 33.25 26.45 33.75 L26.5 34.3 26.4 35.05 Q26.15 36.2 25.05 36.85 L24.75 36.95 24.3 36.65 Q24.05 36.2 24.45 35.9 25.15 35.5 25.3 34.8 L25.35 34.3"/>
    <path stroke="none" fill="#fac49d" d="M14.5 7.05 L14.9 7.7 15.35 9 Q15.5 9.5 15 9.7 L14.85 9.75 14.3 9.35 13.8 8 13.75 7.95 13 7.7 Q12.45 7.6 12.5 7.1 12.65 6.55 13.15 6.6 L14.5 7.05"/>
    <path stroke="none" fill="#fac49d" d="M11.8 9.85 L11.5 9.95 Q11.2 9.9 11 9.65 10.6 9 9.65 9.05 8.95 9.05 8.85 8.3 L8.9 8.2 8.9 8.15 Q8.9 7.8 9.15 7.6 L9.6 7.25 Q10.1 7.05 10.4 7.45 L10.4 8 Q11.45 8.2 12 9.1 12.2 9.55 11.8 9.85 M11.05 12.7 L9.4 13.55 7.65 13.8 Q7.1 13.75 7.05 13.25 7.1 12.7 7.65 12.65 L9.05 12.45 10.4 11.8 11.15 11.9 Q11.45 12.35 11.05 12.7 M3.95 3.35 Q4.45 3.15 4.7 3.6 4.95 4.05 4.5 4.35 L3.8 4.85 Q3.15 5.5 2.9 6.55 2.8 7 2.35 7 L2.25 7 Q1.75 6.85 1.8 6.3 2.15 4.95 3.05 4.05 L3.95 3.35 M3.5 10.35 L4.85 11.8 Q5.25 12.15 5 12.6 L4.55 12.8 4.2 12.7 Q3.15 12 2.55 10.9 L2.05 9.85 Q1.95 9.35 2.4 9.15 2.9 9.05 3.1 9.5 L3.5 10.35"/>
  </g>
</svg>