<svg width="38px" height="38.95px" viewBox="0 0 38 38.95" xmlns="http://www.w3.org/2000/svg" xmlns:xlink="http://www.w3.org/1999/xlink">
  <defs/>
  <g>
    <path stroke="none" fill="#7279b8" d="M26.25 0.2 L26.75 0.15 29.65 0 Q33.95 0 36.3 1.8 39.1 4.2 37.35 7.9 36.35 9.85 34.35 10.25 L34.4 15.65 34.3 18.6 34.35 20.8 34.35 24.15 Q34.35 26.6 33.8 28.25 L33.7 28.7 32.55 31.3 32.6 31.5 31.8 32.4 30.75 33.45 30.5 33.7 Q27.8 36.35 24.3 37.85 21.75 38.95 18.3 38.95 L16.5 38.85 Q12.7 38.65 8.75 35.2 4.05 31.1 3.35 21.7 L3.3 21 Q3 17.85 3 14.65 L3.15 12.85 3.2 11.4 3.2 10.55 3.15 9.8 Q2.15 9.6 1.2 8.8 -0.1 7.65 0 5.9 1 2.45 3.1 1.4 5.15 0.35 7.05 0.25 L7.5 0.2 10.2 0.05 12.25 0.1 12.55 0.1 Q16.2 -0.2 19.7 2.65 21 1.15 23 0.7 L26.25 0.2 M23.45 24.35 Q24.05 17.25 23.95 10.1 21.1 10.05 19.8 8.2 18.15 9.7 16.15 9.9 15.4 16.8 16.35 23.35 17 28.65 19.6 29.45 L20.5 29.55 Q21.65 29.55 22.5 28.7 23.35 27.5 23.4 25.25 L23.45 24.35"/>
    <path stroke="none" fill="#5f7ba6" d="M35.35 6.9 Q34.65 8.25 33.1 8.05 32.5 7.9 31.9 8.05 L31.75 8.25 31.75 8.35 Q32.55 13.45 32.05 18.65 L32.15 24.15 Q32.15 25.95 31.7 27.6 L31.65 27.7 Q31.3 29.4 30.2 30.7 L30.15 30.9 28.95 32.1 Q26.5 34.45 23.4 35.75 20.15 37 16.7 36.65 13 36.15 10.25 33.5 5.65 28.5 5.6 21.55 L5.25 14.7 5.45 11.45 Q5.25 9.8 5.55 8.2 L5.5 8 5.35 7.9 Q3.9 7.9 2.65 7.15 1.85 6.25 2.65 5 3.45 3.8 4.25 3.3 5.95 2.55 7.85 2.45 L12.15 2.35 Q16.15 1.95 18.45 4.9 18.9 6.55 17.35 7.25 15.75 7.9 14.4 7.6 L14.3 7.6 Q14.1 7.55 14.05 7.8 13.1 15.8 14.15 23.75 14.35 29.25 19 31.6 21.9 32.35 24.1 30.3 25.85 27.8 25.7 24.6 26.35 16.3 26.2 7.95 L26.15 7.8 Q26.1 7.65 25.95 7.65 L25.85 7.7 25.7 7.65 Q22.05 8.85 21.15 5.45 21.25 3.45 23.3 2.95 L26.95 2.4 Q31.25 1.6 34.95 3.6 36.45 5.05 35.35 6.9"/>
    <path stroke="none" fill="#7dc8e8" d="M35.1 6.05 L35.3 6.2 35.2 6.6 35.1 6.6 33.45 7.6 31.2 8.85 31.1 8.85 30.95 8.7 Q30.85 8.5 31.05 8.35 L31.15 8.3 33.15 7.1 Q35.35 5.75 35.1 6.05"/>
    <path stroke="none" fill="#7dc8e8" d="M33.7 8.25 Q34.85 7.85 30.1 11.7 L27.8 13.6 Q27.95 13.55 28.05 13.45 31.05 11.6 30.65 12.05 L30.85 12.15 Q31.7 11.85 28.25 14.95 L26.95 16.2 27.85 15.65 Q31.25 13.55 30.85 14 L31.05 14.1 Q31.7 13.85 29.2 16.65 L28.25 17.8 29 17.3 Q31.95 15.45 31.7 15.85 L31.9 16 Q32.9 15.6 28.8 19.2 L27 20.8 29.05 19.6 32.7 17.45 Q33.35 17.1 33.35 17.2 L33.55 17.35 Q33.8 17.45 33.2 18.05 L29.5 21.2 27.45 22.9 29.4 21.75 32.55 19.85 33.2 19.6 33.35 19.75 Q33.6 19.85 33 20.45 L29.55 23.3 27.85 24.65 29.55 23.65 32.75 21.75 Q33.35 21.4 33.35 21.5 L33.55 21.65 Q34.6 21.3 30.3 24.85 L28.1 26.75 28.5 26.5 Q31.1 24.8 30.95 25.15 L31.15 25.3 31.05 25.7 30.9 25.7 28.8 26.95 26.3 28.4 26.2 28.4 26.05 28.25 Q25.8 28.15 26.4 27.55 L29.95 24.45 31.4 23.2 29.85 24.1 Q25.15 27 25.75 26.4 L25.55 26.25 Q25.3 26.15 25.85 25.6 L29.2 22.85 30.95 21.45 29.7 22.2 26.15 24.3 25.45 24.55 25.3 24.4 Q25.05 24.3 25.65 23.7 L29.15 20.75 31.45 18.85 29.35 20.05 26 22.05 25.35 22.3 25.15 22.15 Q24.1 22.6 28.4 18.8 L30 17.35 29.3 17.8 Q26.85 19.35 27.15 18.95 L26.95 18.85 Q26.3 19.1 28.8 16.3 L29.8 15.1 28.15 16.1 Q24.9 18.15 25.3 17.7 L25.1 17.55 Q24.2 17.85 27.9 14.55 L28.95 13.55 28.35 13.9 Q25.35 15.8 25.7 15.35 L25.55 15.2 Q25.3 15.1 25.95 14.5 L29.75 11.25 31.35 9.9 30.1 10.7 26.55 12.8 25.85 13.05 25.65 12.9 Q25.4 12.8 26.1 12.15 26.75 11.5 30.1 8.8 L32.5 6.85 29.1 8.9 25.3 11.2 24.55 11.45 24.35 11.35 Q24.1 11.25 24.75 10.6 L28.6 7.45 31.2 5.4 30.15 6 Q26.35 8.4 26.75 7.9 L26.6 7.75 Q25.7 8.05 29.25 4.9 L30.85 3.45 27.6 5.4 23.85 7.6 23.1 7.9 22.95 7.75 Q21.9 8.15 26.1 4.5 L28.05 2.75 24.95 4.65 21.1 6.9 20.4 7.15 20.2 7.05 Q19.5 7.3 22.15 4.5 L23.2 3.35 Q22.05 4.05 22.1 3.85 L21.95 3.7 Q21.8 3.5 22.05 3.35 L22.1 3.3 23.25 2.65 24.45 2 24.65 2.15 Q25.4 1.85 22.55 4.85 L21.55 6 24.65 4.15 28.85 1.65 Q29.6 1.25 29.6 1.35 L29.8 1.5 Q30.9 1.1 26.5 4.9 L24.8 6.4 27.3 4.9 31.45 2.45 Q32.3 1.95 32.3 2.1 L32.5 2.25 Q33.45 1.9 29.6 5.3 L28.4 6.45 29.9 5.55 Q33.8 3.1 33.35 3.6 L33.55 3.75 Q33.8 3.85 33.1 4.5 L28.95 7.9 26.8 9.65 28.8 8.45 Q32.25 6.3 33.3 5.75 34.3 5.2 34.4 5.3 L34.55 5.45 Q34.8 5.55 34.2 6.15 L30.45 9.25 27.8 11.4 29.8 10.2 Q34.15 7.55 33.55 8.15 L33.7 8.25"/>
    <path stroke="none" fill="#7dc8e8" d="M18.15 5.8 L18.05 5.8 15.65 7.2 Q13.2 8.75 13.35 8.5 L13.25 8.5 13.1 8.4 Q13 8.15 13.2 8 L13.3 7.95 15.35 6.75 Q18.5 4.8 18.1 5.25 L18.25 5.4 18.15 5.8"/>
    <path stroke="none" fill="#7dc8e8" d="M17.5 4.3 Q17.85 4.4 16.95 5.15 L11.75 9 7.1 12.4 10.3 10.45 14.05 8.2 Q14.8 7.8 14.8 7.95 L14.95 8.1 Q15.3 8.2 14.4 8.95 L9.4 12.8 7.65 14.15 9.2 13.15 Q14.75 9.75 14.25 10.35 L14.4 10.5 Q14.7 10.6 13.9 11.35 L9.1 15.15 6.6 17.05 8.35 16 11.95 13.85 Q12.7 13.45 12.7 13.55 L12.9 13.7 Q13.8 13.4 10.3 16.5 L8.65 18.05 9.5 17.5 Q12.75 15.4 12.55 15.8 L12.75 15.95 Q13 16.05 12.4 16.65 L9 19.65 7.55 21 8.8 20.2 Q13.35 17.4 12.85 17.95 L13 18.1 Q13.3 18.2 12.6 18.85 L8.75 22.2 7.2 23.55 10.05 21.85 Q13.4 19.8 14.3 19.3 15.15 18.85 15.2 18.95 L15.35 19.1 Q15.65 19.2 14.85 19.9 L10.35 23.35 8.4 24.85 8.65 24.7 Q13.45 21.75 12.85 22.35 L13.05 22.5 Q14 22.05 10 25.9 L8.9 26.95 10.65 25.9 Q14.2 23.65 13.8 24.15 13.95 24.15 14 24.3 15.05 23.9 10.75 27.6 L8.95 29.15 10.85 28 14.15 26.1 Q14.75 25.75 14.75 25.85 L14.95 26 Q15.85 25.65 12.3 28.9 L11.15 29.95 11.55 29.7 Q14.65 27.75 14.35 28.15 L14.55 28.3 Q15.05 28.05 13.15 30.55 L12.4 31.6 13.2 31.1 Q15.5 29.65 15.35 29.95 L15.55 30.1 Q16 29.9 14.45 32.05 L13.85 32.8 14.65 32.3 Q16.9 30.85 16.8 31.15 L17 31.3 Q17.55 31.1 15.55 33.5 L15.05 34.15 16.7 33.15 Q19.55 31.3 19.3 31.7 L19.45 31.85 Q20.25 31.55 17.3 34.6 L16.3 35.6 23.55 31.25 31.25 26.65 Q33.25 25.5 33.4 25.65 L33.6 25.8 Q34 25.9 32.7 26.85 L25.2 32 20.3 35.35 23.75 33.25 29.3 29.95 Q30.55 29.2 30.6 29.35 L30.8 29.5 Q31.05 29.6 30.45 30.15 L26.95 33.05 25.55 34.2 Q28 32.65 27.7 33 L27.9 33.15 27.8 33.55 27.7 33.55 25.65 34.8 Q22.7 36.6 23.05 36.2 L22.9 36.05 Q22.65 35.95 23.25 35.4 L26.6 32.6 28.65 30.95 24.05 33.7 18.45 37.1 16.9 37.8 16.85 37.8 Q16.7 37.8 16.65 37.65 16.25 37.6 17.5 36.6 L24.9 31.55 30.8 27.55 23.85 31.75 17.05 35.85 Q15.3 36.8 15.2 36.65 L15.05 36.55 Q14.35 36.75 16.85 34.2 L18 33 17 33.6 Q13.8 35.6 14.05 35.25 L13.85 35.1 Q13.4 35.25 15.1 33.15 L15.85 32.25 14.95 32.8 13 33.85 12.8 33.7 Q12.35 33.9 13.95 31.7 L14.5 30.95 13.5 31.6 Q11.35 32.95 11.5 32.65 L11.3 32.5 Q10.8 32.75 12.7 30.25 L13.5 29.15 11.8 30.2 9.45 31.5 9.25 31.35 Q8.35 31.65 11.9 28.45 L13.2 27.3 Q12.2 27.85 11.15 28.5 L7.85 30.45 7.2 30.7 7.05 30.55 Q5.95 30.95 10.35 27.15 L12 25.7 Q11.5 26.05 10.95 26.35 7 28.8 7.45 28.3 L7.25 28.15 Q6.45 28.45 9.6 25.5 L11.55 23.6 8.95 25.15 Q4.85 27.7 5.4 27.15 L5.25 27 Q4.95 26.9 5.7 26.25 L10 22.9 12.6 20.95 10.35 22.3 6.2 24.8 Q5.35 25.25 5.3 25.15 L5.15 25 Q4.05 25.4 8.4 21.8 L11.2 19.4 9.1 20.7 Q5.1 23.15 5.65 22.6 L5.45 22.45 Q4.45 22.85 8.65 19.25 L10.85 17.3 9.8 17.95 Q6.75 19.9 7.05 19.45 L6.85 19.35 Q5.85 19.7 9.9 16.1 L11.1 14.95 8.65 16.45 5 18.65 4.2 18.95 4 18.8 Q3.7 18.7 4.45 18.05 L8.75 14.7 12.15 12.05 9.5 13.65 5.65 15.95 4.85 16.3 4.65 16.15 Q4.35 16.05 5.05 15.45 L9.05 12.35 12.3 9.9 Q11.45 10.45 10.55 10.95 L5.85 13.75 4.85 14.15 4.7 14 Q4.3 13.9 5.35 13.05 L11.4 8.55 14.45 6.35 11.95 7.85 6.2 11.3 Q4.8 12.1 4.7 11.95 L4.5 11.8 Q4.2 11.7 5 11 L9.55 7.5 11.9 5.7 11 6.25 Q6.3 9.25 6.65 8.7 L6.45 8.55 Q5.5 8.85 9.2 5.7 L10.55 4.5 8.85 5.55 Q5.3 7.8 5.6 7.35 L5.4 7.2 Q4.9 7.45 6.85 5.05 L7.8 3.9 6.55 4.65 Q3.7 6.5 3.85 6.15 L3.65 6 Q3.1 6.2 5 3.8 L5.55 3.1 Q5.4 3.15 5.3 3.25 L3.95 3.95 3.75 3.8 Q3.65 3.55 3.85 3.4 L3.95 3.4 5 2.75 Q6.7 1.7 6.55 1.95 L6.7 2.1 Q7.2 1.9 5.45 4.1 L4.7 5.15 6.25 4.15 Q8.9 2.45 8.75 2.8 L8.95 2.95 Q9.55 2.65 7.3 5.4 L6.6 6.25 8.55 5.05 Q12.45 2.6 12.15 3.05 L12.35 3.2 Q13.3 2.9 9.6 6.1 L8.25 7.3 10.7 5.8 Q15 3.1 14.6 3.6 L14.8 3.75 Q15.1 3.85 14.35 4.5 L9.9 7.95 6.75 10.35 11.65 7.35 16.35 4.55 Q17.3 4 17.3 4.15 L17.5 4.3"/>
    <path stroke="none" fill="#fac49d" d="M31.4 29.9 L30.65 31 30.55 31.3 29.55 32.25 29.45 32.35 Q29.3 32.55 29.05 32.55 28.85 32.55 28.65 32.35 28.35 31.95 28.65 31.55 L28.8 31.45 29.55 30.65 29.75 30.35 30.4 29.4 Q30.7 28.95 31.15 29.15 31.6 29.45 31.4 29.9"/>
    <path stroke="none" fill="#fac49d" d="M26.2 11.8 Q26.75 11.85 26.75 12.35 L26.75 15.4 26.2 15.95 Q25.65 15.85 25.6 15.35 L25.65 12.35 Q25.7 11.85 26.2 11.8 M26.15 17.85 Q26.65 17.9 26.65 18.4 L26.5 21.45 25.95 21.95 Q25.4 21.9 25.4 21.35 L25.55 18.35 Q25.6 17.85 26.15 17.85 M26.25 24.65 L26.2 25.5 25.95 27.5 25.4 27.95 25.3 27.95 Q24.85 27.85 24.85 27.3 L25.05 25.4 25.15 24.55 25.15 24.35 Q25.25 23.85 25.75 23.85 26.3 23.95 26.3 24.45 L26.25 24.65 M17.3 3.4 Q17.7 3.1 18.1 3.4 L18.95 4.7 19.15 5.6 Q19.15 6.25 18.75 6.85 L18.3 7.05 17.95 6.95 Q17.55 6.6 17.85 6.15 L18.05 5.6 17.95 5.1 17.35 4.2 Q17 3.85 17.3 3.4 M15.1 2.05 Q15.55 2.2 15.55 2.7 L15 3.2 14.85 3.15 12.4 2.9 11.95 2.9 Q11.45 2.8 11.4 2.3 11.5 1.8 12 1.75 L12.45 1.8 15.1 2.05 M16.15 7.65 Q16.15 8.15 15.65 8.25 L14.6 8.2 14.5 9.15 13.95 9.7 13.9 9.7 Q13.4 9.6 13.4 9.1 L13.5 7.75 Q13.6 7.1 14.25 7.05 L14.55 7.05 15.55 7.1 Q16.1 7.15 16.15 7.65 M14.3 12.15 L14.2 15.15 13.65 15.7 13.6 15.7 Q13.1 15.65 13.05 15.15 L13.2 12.1 Q13.25 11.6 13.8 11.6 14.3 11.65 14.3 12.15 M7.4 3.05 L6.1 3.25 5.95 3.25 5.4 2.8 Q5.35 2.3 5.85 2.15 L7.25 1.95 7.75 1.85 8.9 1.75 Q9.45 1.75 9.5 2.3 9.5 2.8 9 2.85 L7.95 3 7.4 3.05 M2.8 6.2 L2.9 6.5 Q3.05 7 2.65 7.25 L2.4 7.35 1.9 7 1.7 6.2 Q1.95 4.55 2.95 3.7 L3.75 3.65 Q4.1 4.05 3.75 4.45 2.85 5.5 2.8 6.2 M5.45 7.35 Q5.75 7.4 5.9 7.6 L6.15 8.15 6.1 8.35 Q5.95 8.85 5.95 9.5 L6 10.4 6 10.45 Q6 10.95 5.5 11.05 L5.45 11.05 Q4.95 11 4.9 10.55 L4.85 10.45 4.85 9.5 4.95 8.4 Q4.5 8.25 4.5 7.8 4.65 7.25 5.15 7.3 L5.45 7.35 M5.85 15.15 L5.85 16.5 Q5.85 17 5.3 17.1 4.8 17.05 4.75 16.55 L4.7 15.15 4.7 14.65 4.8 13.45 Q4.85 12.95 5.4 12.95 5.9 13.05 5.9 13.55 L5.85 14.7 5.85 15.15 M6.15 21.5 L6.25 22.5 Q6.25 23 5.75 23.1 L5.7 23.1 Q5.2 23.05 5.15 22.6 L5.05 21.55 5 20.8 4.9 19.55 Q4.9 19.05 5.4 18.95 5.95 19 6 19.5 L6.1 20.7 6.15 21.5 M6.7 25.4 L7.5 28.25 Q7.6 28.75 7.15 28.95 L6.95 29 6.45 28.6 Q5.9 27.25 5.6 25.65 5.55 25.1 6.05 24.95 6.55 24.9 6.7 25.4 M13.6 17.6 Q14.1 17.65 14.2 18.15 L14.35 21.1 Q14.4 21.65 13.85 21.75 L13.8 21.75 Q13.35 21.7 13.25 21.25 L13.05 18.2 Q13.1 17.65 13.6 17.6 M14.8 24.05 L15.45 26.9 Q15.6 27.45 15.1 27.65 L14.95 27.65 14.4 27.25 Q13.9 25.7 13.7 24.25 13.65 23.75 14.15 23.6 14.65 23.55 14.8 24.05 M15.95 29.35 L16.75 29.4 Q17.6 30.5 18.9 30.95 19.4 31.2 19.25 31.7 L18.7 32.05 18.55 32 Q16.95 31.45 15.85 30.1 15.6 29.7 15.95 29.35 M15.25 36.95 Q13.8 36.6 12.3 35.7 11.9 35.4 12.1 34.95 12.45 34.55 12.9 34.75 14.2 35.55 15.5 35.85 16 36.05 15.9 36.55 L15.35 37 15.25 36.95 M21.7 32.2 Q21.25 32.2 21.15 31.8 21.05 31.3 21.55 31.1 22.75 30.8 23.7 29.9 L23.85 29.75 Q24.2 29.4 24.6 29.75 25 30.1 24.65 30.5 L24.5 30.7 Q23.35 31.8 21.8 32.2 L21.7 32.2 M17.8 36.7 Q17.85 36.15 18.35 36.1 L21.25 35.85 Q21.75 35.8 21.9 36.3 21.95 36.8 21.45 36.95 L18.35 37.25 Q17.85 37.2 17.8 36.7 M7.95 30.65 Q8.4 30.45 8.75 30.85 9.5 32.1 10.55 33.05 10.9 33.4 10.6 33.8 L10.2 34 Q9.95 34 9.8 33.85 8.65 32.85 7.8 31.45 7.55 31 7.95 30.65 M24.2 36 L23.7 35.65 Q23.5 35.2 23.95 34.9 25.3 34.25 26.5 33.45 L27.25 33.55 Q27.5 34 27.15 34.35 L24.45 35.9 24.2 36"/>
    <path stroke="none" fill="#fac49d" d="M26.6 7.55 L26.75 7.95 26.75 9.3 26.2 9.85 Q25.65 9.8 25.65 9.3 L25.65 8.25 24.4 8.4 Q23.9 8.4 23.8 7.9 23.8 7.4 24.35 7.3 L25.6 7.1 25.85 7.1 Q26.35 7.05 26.6 7.55"/>
    <path stroke="none" fill="#fac49d" d="M32.4 3.1 L29.65 2.8 Q29.15 2.8 29.1 2.25 29.15 1.75 29.65 1.7 L32.65 2 Q33.15 2.15 33.1 2.65 L32.55 3.1 32.4 3.1 M36.05 6.7 L35.55 7.05 35.35 7 Q34.9 6.8 35.05 6.3 L35.25 5.3 Q35.25 4.65 34.75 4.2 34.4 3.8 34.75 3.4 35.15 3.05 35.55 3.4 36.35 4.2 36.35 5.3 L36.05 6.7 M33.3 8.65 L33 8.6 32.4 8.55 32.55 9.3 Q32.6 9.8 32.1 9.95 L32 9.95 Q31.55 9.95 31.45 9.5 L31.2 8.5 31.2 8.3 31.2 8.2 Q31.25 7.65 31.75 7.5 32.4 7.35 33.2 7.5 L33.4 7.5 Q33.9 7.6 33.9 8.1 33.85 8.6 33.3 8.65 M32.8 12.65 L32.7 15.25 32.15 15.8 Q31.6 15.7 31.6 15.2 L31.65 12.65 31.65 12.3 Q31.7 11.8 32.25 11.75 32.75 11.8 32.8 12.3 L32.8 12.65 M26.5 3 L23.95 3.35 23.85 3.35 23.3 2.9 Q23.2 2.4 23.7 2.25 L26.4 1.9 26.7 1.85 Q27.2 1.9 27.3 2.4 27.3 2.9 26.8 3 L26.5 3 M31.5 18.65 L31.5 18.15 Q31.55 17.6 32.05 17.55 32.55 17.65 32.6 18.15 L32.6 18.65 32.65 20.85 32.65 21.05 32.1 21.6 Q31.6 21.55 31.55 21.05 L31.55 20.85 31.5 18.65 M32.15 23.4 Q32.65 23.45 32.7 23.95 L32.7 24.15 32.4 27 31.85 27.45 31.75 27.4 Q31.25 27.25 31.3 26.75 L31.55 24.15 31.55 23.95 Q31.6 23.45 32.15 23.4 M21.7 5.3 L21.75 5.4 Q21.75 6.2 22.15 6.65 22.4 7.1 22.05 7.45 L21.7 7.6 21.25 7.35 Q20.7 6.65 20.6 5.5 L20.6 5.3 Q20.6 4.55 20.9 4 21.2 3.55 21.7 3.75 22.1 4.05 21.9 4.55 L21.7 5.3"/>
  </g>
</svg>