<svg width="52.4px" height="39.55px" viewBox="0 0 52.4 39.55" xmlns="http://www.w3.org/2000/svg" xmlns:xlink="http://www.w3.org/1999/xlink">
  <defs/>
  <g>
    <path stroke="none" fill="#7279b8" d="M13.05 0.45 Q16.2 -0.1 19.7 2 21.4 2.85 20.8 6.75 19.7 10 16.3 10.3 15.9 12.7 16.6 15.4 L16.7 15.9 17.65 20.3 Q18.15 16.75 19 13.4 19.4 9.85 23.45 6.95 25.6 5.8 28.15 5.8 L30.8 6.15 Q33.1 7 34 8.85 34.85 10.7 35.1 12 L35.65 15.25 35.9 17.05 36.6 20.75 36.95 18.45 Q37.5 14.75 37.7 9.9 36.15 9.7 34.8 8.85 32.8 7.45 32.75 5.1 32.9 2.55 35.1 1.15 37.75 -0.15 39.9 0.05 L42 0.15 43.2 0.2 Q46.8 0.1 50 1.4 53.2 3.15 52.1 6.35 50.2 9.75 47.45 9.95 45.85 12.95 45.3 16 L44.65 18.85 43.2 25.05 42.85 26.25 41.95 29.4 41.65 30.55 Q41.35 32.2 40.55 34.05 39.3 36.45 36.8 37.95 35.25 38.8 33.6 38.8 31.7 38.8 29.85 37.6 L27.2 36.7 28.4 35.05 27 29.95 26.35 27.6 25.3 24.5 23.85 29.35 23.65 30.05 23.1 31.9 21.5 36.45 Q19.9 39.45 16.6 39.55 14.7 39.55 12.9 38.45 9.25 35.3 8.95 31.45 7.95 26.85 7.5 22.7 7 18.55 6.1 15.7 L4.7 11.6 4.05 9.75 Q0.5 8.75 0 5.25 -0.2 2.45 2.75 1.1 4.5 0.5 5.85 0.4 L6 0.6 Q8.8 0.35 12.75 0.45 L13.05 0.45"/>
    <path stroke="none" fill="#5f7ba6" d="M13.05 2.2 Q15.9 1.95 18.2 3.4 19.2 4.55 18.65 6 17.6 8.55 14.9 7.85 14.5 7.9 14.8 8.2 13.15 12.05 14.45 16.25 L17.2 27.9 Q17.35 28.15 17.55 27.9 19 27.25 19.15 25.5 L19.8 20.85 Q20.3 17.35 21.2 13.9 21.75 10.65 24.5 8.9 27.2 7.55 30.15 8.3 32.6 9.55 32.9 12.5 L33.7 17.4 34.75 22.9 34.75 22.95 35.4 26.25 35.45 26.35 Q35.7 27.95 36.6 27.2 38.8 23.3 39.2 18.75 39.9 13.35 40 7.8 L39.8 7.65 39.7 7.65 Q37.7 8 36.05 6.95 33.9 4.9 36.25 3.05 39.5 1.85 43.1 2.4 46.2 2.3 49.05 3.45 50.5 4.05 50.05 5.5 48.75 7.8 46.05 7.9 45.85 8 45.95 8.2 43.8 11.55 43.1 15.5 L41.05 24.4 39.75 28.8 38.5 33.05 Q37.55 34.95 35.7 35.95 33.15 37.3 30.85 35.55 L30.8 35.5 30.85 35.35 28.5 27 Q27.25 22.95 25.6 19 L25.55 18.8 25.5 18.7 25.3 18.6 25.1 18.65 Q23.7 20.55 23.35 23 22.6 26.25 21.5 29.35 20.75 32.5 19.5 35.45 17.45 38.5 14.1 36.5 11.55 34.4 11.1 30.95 10.2 26.7 9.75 22.4 9.3 18.65 8.25 15 L5.85 8 5.75 7.75 5.45 7.7 Q2.8 7.6 2.25 5 2.25 3.6 3.75 3.15 L6.3 2.55 13.05 2.2"/>
    <path stroke="none" fill="#7dc8e8" d="M35.7 8 Q34.75 8.4 38.7 4.7 L40.15 3.35 38.5 4.35 Q34.5 6.8 35 6.3 L34.8 6.15 Q34.2 6.4 36.45 3.85 L37.05 3.15 36.2 3.55 36 3.4 Q35.9 3.15 36.1 3 L36.2 3 37.15 2.4 Q38.35 1.65 38.25 1.85 L38.45 2 Q39 1.75 36.9 4.2 L36.05 5.2 38.2 3.9 Q42.2 1.4 41.7 1.95 L41.9 2.05 Q42.85 1.7 39.1 5.15 L37.35 6.8 39.55 5.45 Q44.1 2.6 43.7 3.1 L43.9 3.25 Q44.55 3 42.15 5.65 L41 6.95 43.3 5.55 Q48.2 2.55 47.6 3.15 L47.8 3.3 Q48.05 3.4 47.45 4 L44 6.9 42.7 8 45.6 6.25 50.1 3.55 Q51.05 3.05 51.05 3.2 L51.25 3.35 Q51.55 3.45 50.7 4.2 L45.55 8.1 42.5 10.4 Q44.8 8.9 44.6 9.25 L44.8 9.4 Q45.75 9.05 42.05 12.3 L41.1 13.2 41.6 12.85 Q44.35 11.15 44 11.55 L44.15 11.7 Q44.95 11.45 42 14.25 L40.35 15.85 41.6 15.15 Q45.45 12.8 44.9 13.3 L45.1 13.45 Q45.9 13.15 42.7 16.1 L41.4 17.35 41.45 17.35 43.05 16.5 43.2 16.65 Q44.15 16.25 40.5 19.7 L39.25 20.9 39.95 20.5 42.45 19.15 42.6 19.25 Q43.4 18.95 40.35 22.1 L39.55 23 40.1 22.7 42.4 21.4 42.6 21.55 Q43.35 21.3 40.45 24.1 L39.65 24.9 41.4 23.95 41.6 24.1 41.5 24.5 41.4 24.5 39.95 25.35 38.2 26.35 38.15 26.35 37.95 26.2 Q37.25 26.45 40.05 23.7 L40.95 22.8 40.35 23.15 38.2 24.3 38.05 24.2 Q37.35 24.45 39.95 21.7 L41.15 20.4 40.25 21 37.65 22.35 37.5 22.25 Q36.6 22.6 40.1 19.3 L41.4 18.05 Q39.7 19.1 39.8 18.85 L39.65 18.7 Q38.75 19.05 42.35 15.7 L43.3 14.75 41.85 15.6 Q38.5 17.7 38.95 17.2 L38.8 17.1 Q37.85 17.45 41.6 13.85 L42.45 13 41.9 13.35 Q38.9 15.2 39.25 14.75 L39.1 14.65 Q38.2 14.9 41.65 11.9 L42.85 10.8 42.3 11.15 39.65 12.6 Q39.5 12.6 39.45 12.45 39.1 12.35 40 11.6 L45.25 7.65 48.7 5.05 45.85 6.75 41.55 9.3 Q40.65 9.8 40.65 9.7 L40.45 9.55 Q39.45 9.9 43.65 6.5 L45.7 4.75 43.6 6.05 Q39.3 8.7 39.9 8.1 L39.75 7.95 Q39 8.25 41.7 5.3 L42.65 4.2 39.85 5.95 Q35.4 8.7 35.9 8.15 L35.7 8"/>
    <path stroke="none" fill="#7dc8e8" d="M28.95 16.9 L25.1 19.15 24.25 19.5 24.1 19.35 Q24 19.1 24.2 18.95 L24.35 18.95 28.65 16.4 31.9 14.45 32.55 14.2 32.75 14.35 Q33.65 14.05 30 17.25 L28.85 18.3 Q29.6 17.85 30.4 17.35 34.8 14.65 34.2 15.25 L34.35 15.4 Q35.45 14.95 31.1 18.85 L29.65 20.2 31.35 19.15 Q35.25 16.7 34.8 17.2 L35 17.35 Q36.1 16.95 31.5 20.8 L29.75 22.3 30.3 21.95 Q33.6 19.85 33.35 20.25 L33.55 20.4 Q34.3 20.1 31.4 23.1 L30.55 23.95 31.55 23.4 Q34.8 21.3 34.45 21.75 L34.65 21.9 Q35.65 21.55 31.7 24.95 L30.1 26.35 31 25.8 Q33.95 23.95 33.65 24.35 L33.85 24.5 Q34.7 24.15 31.3 27.5 L30.15 28.65 32.1 27.5 35.45 25.5 Q36.05 25.15 36.1 25.25 L36.25 25.4 Q37.4 25 32.8 28.8 L30.7 30.6 Q32.3 29.6 34.15 28.5 39.85 24.9 39.35 25.55 L39.55 25.7 Q39.8 25.8 39.2 26.35 L35.85 29 32.95 31.3 36.6 29.1 40.8 26.6 41.7 26.2 41.85 26.35 Q42.2 26.45 41.3 27.2 L36 31.1 33 33.25 34.05 32.6 37.85 30.35 Q38.6 29.95 38.65 30.05 L38.8 30.2 Q40 29.8 35.2 33.6 L32.4 35.95 35.3 34.2 38.95 32.05 39.65 31.8 39.8 31.9 39.7 32.3 39.6 32.35 35.55 34.7 30.65 37.5 30.6 37.5 30.4 37.35 Q30.15 37.25 30.8 36.6 L34.85 33.2 36.55 31.75 34.35 33.1 30.6 35.35 29.9 35.6 29.7 35.45 Q29.35 35.35 30.3 34.6 31.2 33.85 35.65 30.65 L38.65 28.5 36.9 29.55 32.2 32.35 31.05 32.85 30.9 32.7 Q30.6 32.6 31.3 31.95 L35.5 28.6 37.05 27.35 34.45 28.95 30.15 31.55 29.05 32 28.85 31.85 Q27.7 32.3 32.45 28.4 L34.15 26.9 32.4 27.95 Q28.15 30.55 28.75 30 L28.55 29.85 Q27.8 30.15 30.9 27.1 L32.35 25.65 31.25 26.3 Q28.05 28.35 28.35 27.9 L28.2 27.75 Q27.15 28.1 31.3 24.55 L32.7 23.35 31.85 23.85 Q28.85 25.7 29.25 25.3 L29.05 25.15 Q28.35 25.4 30.95 22.7 L32.15 21.45 30.6 22.4 27.75 24 27.55 23.85 Q26.4 24.3 31.1 20.35 L32.85 18.9 31.65 19.6 Q27.6 22.15 28.05 21.6 L27.85 21.5 Q26.9 21.8 30.7 18.45 L32.65 16.65 30.7 17.85 Q26.5 20.4 27.1 19.85 L26.9 19.7 Q26 20 29.65 16.85 L30.85 15.75 28.95 16.9"/>
    <path stroke="none" fill="#7dc8e8" d="M23.9 9.7 L23.7 9.55 Q23.6 9.3 23.8 9.15 L23.9 9.15 25.3 8.35 Q26.85 7.35 26.75 7.6 L26.9 7.7 Q27.95 7.3 23.65 11.1 L22 12.6 25.35 10.6 30.1 7.75 31.1 7.35 31.3 7.5 Q31.6 7.6 30.8 8.3 L26.1 12 23.2 14.2 25.95 12.55 30.95 9.6 Q31.95 9 32 9.15 L32.15 9.3 Q32.5 9.4 31.6 10.15 L26.35 14.1 23.45 16.2 26 14.65 Q29.4 12.55 30.45 11.95 31.45 11.4 31.5 11.55 L31.7 11.65 Q32.1 11.75 31 12.65 L24.75 17.2 Q22.9 18.5 21.15 19.8 L24.1 18 Q28.7 15.2 30.15 14.35 31.6 13.55 31.7 13.7 L31.9 13.85 Q32.25 13.95 31.3 14.75 L25.9 18.75 21.95 21.6 22.45 21.3 Q26.05 19.1 25.55 19.6 L25.75 19.75 Q26.75 19.35 22.55 22.9 L20.65 24.55 Q21.8 23.85 21.75 24.05 L21.95 24.15 21.85 24.55 21.75 24.6 20.35 25.4 Q18.75 26.45 18.75 26.3 L18.65 26.3 18.5 26.15 Q18.25 26.05 18.85 25.45 L22.2 22.5 23.55 21.3 22.7 21.8 19.2 23.75 19 23.6 Q18.65 23.5 19.65 22.65 20.7 21.8 25.55 18.3 L29.5 15.4 24.4 18.5 19.25 21.55 18.2 22 18 21.85 Q17.65 21.75 18.65 20.95 L24.45 16.75 28.95 13.5 26.25 15.15 21.9 17.75 20.85 18.2 20.65 18.05 Q20.35 17.95 21.2 17.25 L26 13.6 29.6 11 26.25 13 21.8 15.65 20.9 16.05 20.7 15.9 Q20.4 15.8 21.2 15.1 L25.75 11.55 29 9.05 25.65 11.05 21.25 13.7 Q20.4 14.15 20.4 14 L20.25 13.9 Q19.2 14.25 23.25 10.7 L24.9 9.2 23.9 9.7"/>
    <path stroke="none" fill="#7dc8e8" d="M13.8 11.4 L13.65 11.25 Q13.55 11.05 13.75 10.85 L13.85 10.85 15.75 9.7 Q18.6 7.95 18.25 8.35 L18.4 8.5 Q18.55 8.75 18.3 8.9 L18.2 8.9 16 10.2 13.9 11.4 13.8 11.4"/>
    <path stroke="none" fill="#7dc8e8" d="M8 2.95 Q8.45 2.75 6.7 5.2 L6.15 6 8.15 4.75 Q11.95 2.4 11.7 2.8 L11.85 2.95 Q12.65 2.7 9.6 5.55 L8.55 6.6 10.95 5.15 Q14.85 2.65 14.55 3.1 L14.75 3.25 Q15 3.35 14.35 3.95 L10.4 7.1 7.7 9.25 12.25 6.5 16.65 3.85 Q17.55 3.35 17.55 3.5 L17.75 3.65 Q18.05 3.75 17.25 4.4 L12.75 7.9 8.6 11.05 13.8 7.95 18.6 5.05 Q19.55 4.5 19.55 4.65 L19.75 4.8 Q20.1 4.9 19.05 5.75 L12.95 10.25 11.2 11.5 Q14.8 9.3 14.4 9.75 L14.55 9.9 Q14.8 10 14.25 10.6 L10.8 13.6 9.2 15 10 14.5 Q13.4 12.45 12.95 12.9 L13.1 13.05 Q13.55 12.85 12 14.95 L11.35 15.9 11.55 15.8 Q13.05 14.8 13.1 15 L13.25 15.1 Q14 14.8 11.25 17.85 L10.5 18.75 11.2 18.3 13.75 16.9 13.95 17.05 Q14.85 16.65 11.3 20.25 L10.35 21.2 12.55 19.9 15.8 17.95 Q16.4 17.6 16.45 17.7 L16.6 17.85 16.25 18.5 12.8 21.45 11.4 22.6 Q14.75 20.5 14.3 21 L14.5 21.1 Q15.2 20.8 12.5 23.9 L11.8 24.75 13.1 23.95 Q15.8 22.25 15.45 22.65 L15.65 22.8 Q16.55 22.45 13 25.75 L11.55 27.15 13.15 26.2 Q17.05 23.8 16.5 24.35 L16.7 24.45 Q17.5 24.2 14.3 27.2 L13.3 28.15 13.5 28.05 Q16.2 26.35 15.95 26.7 L16.15 26.85 Q16.7 26.6 14.65 29.2 L13.75 30.35 17.05 28.35 Q22.35 25.05 21.9 25.65 L22.05 25.8 Q22.35 25.9 21.7 26.5 L17.9 29.5 15.7 31.25 17 30.45 Q21.5 27.6 21.15 28.1 L21.35 28.25 Q21.6 28.35 21 28.95 L17.35 32 15.85 33.15 17.35 32.25 Q21.25 29.8 20.85 30.3 L21 30.45 Q21.25 30.55 20.7 31.1 L17.35 34.05 16.1 35.1 17.65 34.15 Q20.5 32.4 21.25 32 22 31.6 22.05 31.75 L22.2 31.85 Q23.35 31.45 18.6 35.3 L17.15 36.5 Q19.15 35.3 18.95 35.55 L19.15 35.7 19.05 36.1 18.95 36.1 17.1 37.2 14.95 38.4 14.85 38.4 14.7 38.3 Q13.55 38.7 18.25 34.9 L20 33.4 17.95 34.65 14.7 36.55 14.05 36.8 13.9 36.65 Q12.85 37 17 33.6 L19 31.9 17.65 32.7 Q13.35 35.4 13.7 34.9 L13.5 34.8 Q12.35 35.15 16.95 31.55 L19.25 29.7 17.3 30.95 Q13.1 33.55 13.45 33.05 L13.3 32.9 Q13 32.8 13.65 32.2 L17.55 29.05 19.8 27.35 17.35 28.85 Q12.4 31.9 12.85 31.35 L12.7 31.2 Q12.1 31.45 14.2 28.85 L15 27.75 13.8 28.5 Q11.45 30 11.7 29.65 L11.5 29.5 Q10.7 29.8 13.9 26.8 L15 25.7 13.45 26.65 10.05 28.55 9.85 28.4 Q8.95 28.75 12.6 25.35 L13.9 24.1 13.4 24.45 Q10.4 26.3 10.7 25.9 L10.55 25.75 Q9.95 26 12.1 23.55 L13.3 22.1 11.55 23.15 Q8.6 24.95 8.95 24.55 L8.8 24.4 Q7.65 24.85 12.45 21 L14.25 19.5 12.85 20.35 9.65 22.25 9 22.5 8.8 22.35 Q8.1 22.6 10.9 19.85 L12.5 18.15 11.5 18.75 Q9 20.35 9.3 19.95 L9.1 19.85 Q8.5 20.05 10.85 17.45 L11.95 16.2 11.85 16.25 10.45 17 10.3 16.85 Q9.8 17.05 11.55 14.65 L12.05 13.95 Q11.2 14.4 10.25 15 L7.25 16.65 7.05 16.5 Q6 16.95 10.45 13.2 L12.65 11.25 10.9 12.35 7.35 14.3 7.15 14.15 Q6.85 14.05 7.7 13.35 L12.6 9.8 16.85 6.75 14.1 8.4 8.2 11.9 6.75 12.55 6.55 12.4 Q6.25 12.3 7.15 11.5 L12.4 7.45 14.95 5.5 Q13.8 6.2 12.55 7 L7.15 10.2 5.8 10.8 5.6 10.65 Q5.35 10.55 6 9.9 L10.05 6.7 12.1 5.1 11.2 5.6 Q6.85 8.4 7.15 7.85 L7 7.75 Q6.2 8 9.2 5.15 L10.3 4.1 8.45 5.25 Q5.05 7.4 5.35 7 L5.15 6.85 Q4.7 7.05 6.25 4.9 L6.95 3.85 6.2 4.35 Q4 5.8 4.05 5.5 L3.85 5.35 Q3.55 5.55 4.55 3.6 L4.8 3 4.25 3.3 2.9 4 2.75 3.85 Q2.65 3.65 2.85 3.5 L2.9 3.45 3.95 2.85 Q5.6 1.8 5.45 2.05 L5.65 2.2 5.05 3.8 4.65 4.65 5.85 3.9 Q7.85 2.55 7.8 2.85 L8 2.95"/>
    <path stroke="none" fill="#fac49d" d="M44.65 9.2 L45.35 8.05 45.4 7.8 45.95 7.4 47.05 7.15 Q47.55 7.1 47.7 7.55 47.8 8.1 47.3 8.25 L46.45 8.45 46.35 8.55 45.65 9.75 Q45.5 10 45.15 10.05 L44.9 9.95 Q44.45 9.7 44.65 9.2"/>
    <path stroke="none" fill="#fac49d" d="M43.1 18.05 L43 18.5 42.5 20.9 41.95 21.35 41.8 21.35 Q41.35 21.2 41.4 20.7 L41.9 18.3 42 17.8 Q42.15 17.3 42.65 17.35 43.15 17.55 43.1 18.05 M43.15 15.6 L43.05 15.6 Q42.55 15.4 42.6 14.9 L43.45 12.05 Q43.65 11.55 44.15 11.7 44.6 11.9 44.5 12.4 L43.7 15.15 Q43.6 15.6 43.15 15.6 M41.8 23.8 L41.55 24.6 41.2 25.8 40.95 26.65 40.4 27.05 40.25 27.05 Q39.75 26.85 39.85 26.35 L40.15 25.45 40.5 24.3 40.7 23.5 Q40.9 23.05 41.4 23.1 41.85 23.3 41.8 23.8 M40 30.2 L39.4 32.35 Q39.25 32.7 38.85 32.75 L38.7 32.7 Q38.2 32.5 38.35 32 L38.9 29.95 39.05 29.2 Q39.25 28.7 39.75 28.8 40.25 28.95 40.15 29.45 L40 30.2 M37.75 34.25 Q38.1 34.65 37.75 35.05 L35.9 36.5 35.15 36.85 34.95 36.9 34.45 36.55 Q34.3 36.05 34.75 35.8 L35.35 35.5 36.95 34.3 37.75 34.25"/>
    <path stroke="none" fill="#fac49d" d="M32.3 35.75 Q32.75 36 32.6 36.5 L32.05 36.85 31.85 36.8 30.55 36.05 30.25 35.7 30.2 35.45 29.85 34.25 Q29.8 33.75 30.25 33.55 30.75 33.5 30.95 33.95 L31.35 35.2 31.35 35.25 32.3 35.75"/>
    <path stroke="none" fill="#fac49d" d="M7.65 11.5 L8.6 14.4 Q8.75 14.95 8.25 15.15 L8.1 15.15 7.55 14.75 6.6 11.9 Q6.45 11.4 6.9 11.2 7.45 11.05 7.65 11.5 M8.75 17 Q9.3 16.9 9.45 17.4 L10 20.45 Q10 20.95 9.5 21.1 L9.45 21.1 Q9 21.05 8.9 20.6 L8.35 17.65 Q8.25 17.15 8.75 17 M27.45 22.25 L28.5 25.15 Q28.6 25.65 28.15 25.85 L27.95 25.9 27.45 25.5 26.4 22.65 Q26.25 22.2 26.75 21.95 27.2 21.8 27.45 22.25 M26.15 19 L26.35 19.45 Q26.45 19.9 26 20.15 25.55 20.3 25.3 19.85 L25.15 19.45 24.7 20.2 24.2 20.55 24 20.5 Q23.55 20.25 23.7 19.75 24.1 18.9 24.65 18.3 24.95 17.95 25.35 18.05 25.75 18.1 25.95 18.45 L26.15 18.95 26.15 19 M29.65 29.25 L30.15 31.05 Q30.25 31.55 29.75 31.75 L29.6 31.75 Q29.2 31.75 29.05 31.35 L28.6 29.55 28.25 28.4 Q28.2 27.9 28.65 27.7 29.2 27.6 29.35 28.1 L29.65 29.25 M22.8 22.8 Q23 22.3 23.5 22.35 24 22.5 23.9 23.05 L23.9 23.15 23.15 26 Q23 26.4 22.6 26.4 L22.45 26.4 Q21.95 26.2 22.05 25.7 L22.8 22.9 22.8 22.8 M22 29.55 L21.45 31.5 21.35 31.8 20.8 32.25 20.65 32.2 Q20.2 32.05 20.25 31.5 L20.35 31.2 20.95 29.2 21.15 28.6 Q21.35 28.1 21.85 28.2 22.35 28.45 22.2 28.95 L22 29.55 M19 35.2 L19.35 34.35 Q19.6 33.9 20.1 34.05 20.55 34.3 20.4 34.8 L20 35.7 Q19.4 36.9 18.35 37.45 L18.1 37.5 17.6 37.2 Q17.4 36.75 17.8 36.45 L19 35.2 M10.4 23.45 L10.8 26.45 Q10.85 27 10.35 27.1 L10.25 27.1 Q9.8 27.1 9.7 26.65 L9.3 23.6 Q9.25 23.1 9.75 23 10.3 22.95 10.4 23.45 M10.7 29 Q11.2 28.95 11.35 29.45 L11.65 30.85 12 32.35 Q12.15 32.85 11.65 33.05 L11.5 33.05 Q11.1 33.05 10.95 32.65 L10.55 31.1 10.25 29.65 Q10.2 29.15 10.7 29 M12.4 34.8 Q12.85 34.55 13.2 34.95 L14.4 36.05 15.3 36.5 Q15.8 36.75 15.65 37.25 L15.15 37.6 14.95 37.6 13.8 37 Q12.9 36.5 12.25 35.6 12 35.15 12.4 34.8"/>
    <path stroke="none" fill="#fac49d" d="M5.3 8.25 L3.75 7.9 Q3.3 7.65 3.45 7.15 3.7 6.7 4.2 6.85 L5.3 7.15 5.65 7.1 6.15 7.35 6.4 7.95 6.6 8.65 Q6.75 9.1 6.25 9.35 L6.1 9.35 5.55 9 5.3 8.25"/>
    <path stroke="none" fill="#fac49d" d="M6.9 1.95 L9.9 1.7 Q10.45 1.75 10.5 2.25 10.45 2.75 9.95 2.85 L7 3.05 6.95 3.05 Q6.5 3.05 6.4 2.55 6.4 2.05 6.9 1.95 M12.95 2.75 Q12.4 2.75 12.35 2.2 12.45 1.7 12.95 1.65 L13.05 1.65 16.05 1.85 Q16.5 2 16.45 2.5 16.35 2.95 15.9 3 L15.8 2.95 13.05 2.75 12.95 2.75 M2.8 4.95 L2.8 5 Q2.8 5.55 2.3 5.65 L2.25 5.65 Q1.75 5.6 1.7 5.15 L1.65 5.05 1.65 4.8 Q1.4 3.55 3.85 2.5 4.35 2.4 4.55 2.85 4.65 3.35 4.15 3.55 2.45 4.4 2.75 4.8 L2.8 4.95 M18.95 3.5 Q19.35 4.1 19.35 4.9 L19.15 6.15 18.8 6.95 18.3 7.25 18.05 7.15 Q17.6 6.85 17.85 6.4 L18.05 5.85 18.2 4.9 18 4.1 Q17.8 3.65 18.2 3.35 18.65 3.1 18.95 3.5"/>
    <path stroke="none" fill="#fac49d" d="M15.15 8.6 L14.65 9.75 14.1 10.15 13.95 10.1 Q13.5 9.9 13.55 9.4 L14.1 8.2 14.1 7.8 Q14.35 7.2 15 7.35 L15.8 7.45 Q16.3 7.5 16.35 8.05 16.25 8.55 15.75 8.6 L15.2 8.5 15.15 8.6"/>
    <path stroke="none" fill="#fac49d" d="M14.45 13 L14.9 15.7 15.05 16.45 Q15.05 16.95 14.6 17.1 L14.45 17.1 13.9 16.65 13.8 15.9 Q13.5 14.6 13.35 13.1 13.35 12.6 13.85 12.5 14.35 12.5 14.45 13 M14.65 20.15 Q14.6 19.65 15.1 19.45 15.6 19.4 15.75 19.9 L16.6 23.3 Q16.65 23.8 16.2 24 L16.05 24 15.5 23.6 14.65 20.15"/>
    <path stroke="none" fill="#fac49d" d="M19.1 27.3 Q18.6 28.2 17.8 28.45 17.6 28.65 17.3 28.65 L17.2 28.6 Q16.75 28.55 16.6 28.05 L16.35 27.05 Q16.3 26.55 16.8 26.35 17.3 26.3 17.45 26.8 L17.6 27.35 18.1 26.75 Q18.4 26.35 18.9 26.55 19.3 26.85 19.1 27.3"/>
    <path stroke="none" fill="#fac49d" d="M35.55 4.85 L35.55 5.15 Q35.55 6 36.3 6.5 L36.65 6.7 Q37.05 6.95 36.85 7.45 36.7 7.75 36.35 7.75 L36.1 7.7 35.7 7.45 Q34.45 6.6 34.4 5.15 L34.45 4.6 Q34.65 4.1 35.15 4.15 35.65 4.3 35.55 4.85 M23.85 10.05 Q22.9 10.85 22.25 12.3 L21.75 12.65 21.55 12.6 Q21.1 12.35 21.25 11.85 21.95 10.2 23.15 9.2 L23.95 9.25 Q24.25 9.65 23.85 10.05 M20.35 14.9 Q20.5 14.4 21 14.45 21.5 14.65 21.45 15.15 L20.8 18.1 Q20.7 18.55 20.25 18.6 L20.15 18.55 Q19.65 18.45 19.7 17.9 L20.35 14.9 M32.3 9.35 Q33.15 10.8 33.4 12.4 33.45 12.9 33 13.05 L32.85 13.05 Q32.45 13.05 32.3 12.65 32.05 11.15 31.35 9.95 31.1 9.5 31.5 9.15 31.95 8.95 32.3 9.35 M29.2 8.7 L26.35 8.85 26.25 8.85 Q25.8 8.8 25.7 8.4 25.6 7.9 26.1 7.75 L29.35 7.6 Q29.85 7.7 29.85 8.25 L29.2 8.7 M32.8 15.65 L32.8 15.6 Q32.8 15.1 33.3 14.95 33.8 14.95 33.95 15.45 L33.95 15.5 34.2 17.35 34.4 18.45 Q34.45 18.95 33.95 19.1 L33.85 19.1 Q33.4 19.1 33.3 18.65 L33.1 17.5 32.8 15.65 M48.9 4.05 Q48.5 3.75 48.7 3.25 48.95 2.85 49.45 3.05 50.65 3.75 50.7 4.9 L50.55 5.75 50.15 6.4 Q50 6.65 49.7 6.65 L49.4 6.6 Q49 6.25 49.25 5.8 L49.5 5.3 49.55 4.9 Q49.45 4.3 48.9 4.05 M46.8 2.75 Q46.7 3.2 46.25 3.25 L46.15 3.2 43.2 3 Q42.65 2.95 42.65 2.45 42.7 1.9 43.2 1.9 L46.35 2.1 Q46.85 2.25 46.8 2.75 M40.7 2.3 Q40.65 2.85 40.15 2.85 L39.9 2.85 37.3 3.2 37.1 3.25 36.6 2.85 Q36.45 2.35 36.95 2.15 L39.9 1.75 40.15 1.75 Q40.65 1.8 40.7 2.3 M38.8 7.8 Q38.75 7.3 39.25 7.15 L39.55 7.1 39.8 7.1 Q40.45 7.15 40.55 7.85 L40.45 10.2 39.9 10.75 Q39.35 10.65 39.35 10.15 L39.4 8.3 Q38.9 8.3 38.8 7.8 M39.45 16.85 L39.4 16.85 Q38.9 16.7 38.9 16.2 L39.2 13.2 Q39.25 12.65 39.8 12.65 40.3 12.75 40.3 13.25 L40.05 16.35 Q39.95 16.8 39.45 16.85 M39.65 19.4 L39.1 22.45 Q38.95 22.85 38.55 22.9 L38.4 22.85 Q37.9 22.7 38 22.2 L38.55 19.25 Q38.65 18.7 39.15 18.75 39.65 18.9 39.65 19.4 M38.15 25.45 L37.05 27.5 37.05 27.55 36.95 27.65 Q36.55 28.1 36.1 28.1 35.8 28.1 35.55 27.9 35.15 27.55 35.45 27.1 35.7 26.8 36.1 26.95 L36.1 26.9 36.15 26.85 37.1 25.05 Q37.35 24.55 37.85 24.75 38.3 24.95 38.15 25.45 M34.15 22.95 L33.9 21.65 Q33.85 21.15 34.35 21 34.85 20.95 35 21.45 L35.25 22.8 35.3 22.9 35.55 24.45 Q35.6 24.95 35.1 25.1 L35 25.1 Q34.55 25.1 34.45 24.65 L34.2 23.15 34.15 22.95 M19.05 22.45 L19.2 20.95 Q19.35 20.45 19.85 20.5 20.35 20.6 20.3 21.1 L20.15 22.6 19.95 24.15 Q19.85 24.6 19.4 24.65 L19.35 24.65 Q18.85 24.5 18.85 24 L19.05 22.45"/>
  </g>
</svg>