<svg width="41.15px" height="40.65px" viewBox="0 0 41.15 40.65" xmlns="http://www.w3.org/2000/svg" xmlns:xlink="http://www.w3.org/1999/xlink">
  <defs/>
  <g>
    <path stroke="none" fill="#7279b8" d="M40.5 3.6 Q41.45 5.2 41.05 7.15 40.6 9.2 38.95 10.2 37.95 10.85 36.55 10.85 L35.15 10.7 33.4 12.1 Q28.65 15.1 27.95 19.15 28.4 22 30.9 24.55 L32.85 26.95 35.25 29.9 36 29.8 Q38.6 30.2 39.25 31.05 40.7 32.3 40.7 34.1 39.8 37.6 38.1 38.4 35.35 40.45 29.9 40.65 L29.35 40.65 25.45 40.25 Q23.25 40.05 21.25 38.95 19.6 37.95 19 36.4 L18.75 36.95 Q17.35 39.1 15.4 39.6 L12.9 39.95 11.75 39.9 11.35 39.9 7.2 39.5 6.7 39.45 Q3.4 39.6 0.6 36.65 -0.35 35.2 0.2 33.45 0.95 31.25 3.05 30.35 L4.75 30.1 6.25 30.25 8.9 27.85 9.05 27.65 9.25 27.45 10.1 26.35 11.75 24.35 Q12.75 23.25 13.15 22.2 13.65 21.05 13.25 20.1 L12.55 18.7 12.2 18.2 11.65 17.45 11.6 17.45 11.1 16.7 11.05 16.55 Q9.7 14.25 7.95 12.05 L7.85 12.15 6.85 10.9 Q3.45 10.6 2.25 7.45 1.45 4.55 3.95 2.6 6.35 1.3 8.45 1.25 L11.8 0.9 12.6 0.85 15.8 0.65 Q19.55 0.6 21.75 2.25 L22.35 2.8 22.75 2.35 Q25.05 0.4 27.45 0.3 L27.45 0.25 30.7 0 32.4 0.05 Q37.15 -0.15 40.5 3.6 M22.35 12.55 L22.6 12.8 23.7 11.85 24.8 10.35 Q23.9 10.1 23 9.35 L22.5 8.85 Q21.55 9.85 20.3 10.15 L20.85 11.05 22 12.25 22.35 12.55 M19.4 27.5 Q17.25 28.15 16.5 31.1 L16.5 31.2 Q18.1 31.85 18.85 33.4 L19.15 32.65 Q20.2 30.7 22.35 30.1 L21.5 28.3 Q20.95 27.5 19.8 27.5 L19.4 27.5"/>
    <path stroke="none" fill="#5f7ba6" d="M38.55 4.75 Q39.45 6.85 37.75 8.3 36.2 8.85 34.5 8.35 L34.3 8.45 Q31.65 10.55 28.75 13.05 25.85 15.5 25.7 19.2 26.25 23.15 29.15 26 31.7 29.4 34.6 32.45 L34.85 32.65 35.1 32.4 Q36.45 31.65 37.8 32.8 39.15 35 36.7 36.6 33.5 38.45 29.75 38.4 L25.75 38.05 Q23.95 37.85 22.3 37 20.35 35.8 21.1 33.65 22.25 31.85 24.3 32.35 L24.35 32.35 24.5 32.25 24.55 32.2 24.6 32.1 Q24.95 29.35 23.3 27.05 21.7 24.95 19 25.3 16.6 25.8 15.3 28.05 14 30.3 14 32.65 L14.15 32.85 14.35 33.05 Q16.15 32.95 16.85 34.55 16.95 36.8 14.7 37.5 L11.4 37.65 7.4 37.3 Q4.45 37.35 2.45 35.45 1.8 33.4 3.85 32.45 5.15 32.1 6.2 32.75 L6.4 32.75 6.55 32.75 Q8.75 31.35 10.5 29.4 L10.55 29.35 10.65 29.2 10.95 28.9 10.95 28.85 13.35 25.85 Q14.55 24.6 15.2 23.05 16 21.2 15.3 19.3 L14.45 17.6 13.15 15.65 13 15.55 12.9 15.4 Q10.75 11.8 8.05 8.65 7.9 8.5 7.8 8.65 L7.6 8.6 Q5.65 8.9 4.65 7.4 3.6 5.85 5.2 4.45 6.8 3.55 8.65 3.5 L12.8 3.05 Q16.85 2.25 20.4 4.05 21.95 5.5 20.85 7.3 19.6 8.35 17.9 8.2 17.65 8.25 17.7 8.45 L17.7 8.5 Q17.7 10.7 19 12.45 L20.45 13.9 22.35 15.4 Q22.9 15.45 23.35 15.05 L25.25 13.4 Q27.15 11.3 27.9 8.65 L27.95 8.55 Q28.1 8.3 27.8 8.2 27.7 8.2 27.65 8.3 L27.5 8.2 Q25.8 8.55 24.45 7.7 22.9 5.8 24.35 3.85 25.85 2.65 27.8 2.5 L32.2 2.3 Q36.05 2.2 38.55 4.75"/>
    <path stroke="none" fill="#7dc8e8" d="M15.65 27.6 L15.85 27.75 Q16.2 27.85 15.25 28.6 L9.95 32.6 6.1 35.45 7.85 34.4 Q13.3 31 12.8 31.6 L13 31.75 Q13.85 31.45 10.45 34.6 L8.85 36.15 10.35 35.25 Q14.7 32.55 14.2 33.1 L14.4 33.25 Q15 33 12.75 35.6 L12.2 36.25 Q13.15 35.65 14.25 35 18.35 32.5 17.8 33.05 L17.95 33.2 Q18.6 32.9 16.3 35.6 L15.4 36.7 15.5 36.7 15.65 36.85 15.55 37.2 15.45 37.25 15.05 37.5 14.4 37.85 14.35 37.85 14.15 37.7 Q13.55 37.95 15.85 35.25 L16.75 34.15 14.5 35.5 Q10.55 37.95 11.1 37.4 L10.95 37.25 Q10.4 37.45 12.3 35.25 L13.2 34.2 10.65 35.7 Q6.85 38.05 7.35 37.55 L7.15 37.4 Q6.2 37.8 10.05 34.2 L11.45 32.85 8.15 34.9 Q3 38.1 3.45 37.5 L3.3 37.35 Q2.95 37.25 3.95 36.45 4.9 35.6 9.6 32.15 L13.3 29.4 9.1 31.95 3.65 35.25 2.35 35.8 2.15 35.65 Q1.6 35.9 3.6 33.45 L4.15 32.8 3.45 33.05 3.3 32.95 Q3.15 32.7 3.4 32.55 L3.45 32.55 4.3 32.05 Q5.3 31.4 5.25 31.55 L5.45 31.7 Q5.95 31.5 4.05 33.8 L3.2 34.85 8.8 31.5 Q12.95 28.95 14.25 28.2 15.6 27.45 15.65 27.6"/>
    <path stroke="none" fill="#7dc8e8" d="M20.25 33.9 Q20.15 33.65 20.35 33.5 L20.4 33.5 21.35 32.95 Q22.5 32.2 22.45 32.4 L22.6 32.55 22.5 33.8 22.45 34.35 27 31.65 31.55 28.95 Q32.5 28.45 32.5 28.55 L32.7 28.7 Q33 28.8 32.25 29.5 L27.9 33 25.5 34.95 28.85 32.95 33.05 30.4 34.05 29.95 34.25 30.1 Q34.55 30.2 33.8 30.85 L29.7 34.15 27.2 36.15 28.95 35.05 Q34.05 31.85 33.65 32.45 L33.8 32.55 Q34.7 32.25 31.25 35.5 L30.2 36.55 32.65 35.05 Q37.9 31.8 37.45 32.4 L37.65 32.5 Q38.65 32.15 34.5 35.65 L32.8 37.15 34.1 36.35 Q37.55 34.2 37.15 34.65 L37.35 34.8 37.25 35.2 37.1 35.2 34.35 36.85 31.1 38.7 31.05 38.7 30.85 38.55 Q29.8 38.95 34.15 35.25 L35.8 33.8 32.95 35.5 28.75 37.9 28.6 37.75 Q27.8 38.05 30.85 35.1 L32.35 33.6 29.25 35.5 24.9 37.95 24.75 37.8 Q24.45 37.7 25.2 37.05 L29.35 33.7 31.9 31.7 29.1 33.4 24.7 36.1 23.55 36.55 23.4 36.4 Q23.15 36.3 23.8 35.7 L27.6 32.6 30.65 30.1 Q29.05 31.05 27.25 32.15 L22.95 34.7 22.05 35.05 21.9 34.95 Q21.75 35.1 21.95 33.7 L22.05 33.2 21.65 33.4 20.4 34.05 20.25 33.9"/>
    <path stroke="none" fill="#7dc8e8" d="M35.2 3.4 L37.65 2 Q40.35 0.3 40 0.7 L40.2 0.85 40.1 1.25 39.95 1.25 37.95 2.45 35.25 4 35.15 4 35 3.85 Q34.9 3.6 35.1 3.45 L35.2 3.4"/>
    <path stroke="none" fill="#7dc8e8" d="M32.6 1.1 L32.8 1.25 Q33.05 1.35 32.4 1.95 L28.6 5.1 26 7.2 Q27.4 6.35 28.9 5.45 L33.05 3 33.85 2.65 34 2.8 Q34.85 2.55 31.65 5.45 L30.25 6.75 32.1 5.6 Q35.75 3.3 35.45 3.75 L35.65 3.9 Q35.95 4 35.2 4.65 L30.75 8.05 28.15 10 32.3 7.5 37.65 4.3 Q38.85 3.6 38.9 3.75 L39.1 3.9 39 4.25 38.85 4.3 Q37.2 5.1 32.6 8 L27.35 11.1 25.9 11.8 25.85 11.8 25.65 11.65 Q25.35 11.55 26.1 10.9 L30.4 7.6 32.55 6 32.4 6.1 28.9 8.05 28.7 7.9 Q27.8 8.2 31.25 5.05 L32.35 4.05 Q30.85 4.9 29.2 5.9 L24.95 8.45 24.05 8.8 23.85 8.65 Q23.6 8.55 24.25 7.9 L28.25 4.65 30.4 2.9 28.8 3.9 24.85 6.25 24 6.55 23.85 6.4 Q23.5 6.65 24.65 4.45 L24.95 3.85 24.45 4.15 Q23.05 5.05 23.15 4.8 L23 4.7 Q22.9 4.45 23.1 4.3 L23.15 4.25 24.2 3.65 Q25.8 2.65 25.65 2.9 L25.85 3.05 25.15 4.7 24.65 5.7 28.5 3.4 Q31.3 1.7 31.95 1.35 32.6 1 32.6 1.1"/>
    <path stroke="none" fill="#7dc8e8" d="M22.1 5.4 L22.3 5.55 Q22.65 5.65 21.7 6.45 L16.3 10.5 14.7 11.7 Q18.8 9.15 18.3 9.7 L18.5 9.85 Q19.65 9.4 15.05 13.4 L13.5 14.75 14.65 14.05 Q18.25 11.8 17.75 12.35 L17.95 12.45 Q18.35 12.3 16.95 14.3 L16.35 15.25 17 14.85 Q18.95 13.55 18.9 13.85 L19.1 14 Q19.8 13.65 17 16.75 L16.2 17.7 17.5 16.9 Q21.15 14.6 20.75 15.1 L20.95 15.25 Q22 14.75 17.7 18.75 L16.35 20.05 22.4 16.4 Q27.25 13.45 28.7 12.65 30.15 11.85 30.2 12 L30.35 12.15 Q30.8 12.2 29.5 13.2 L22.25 18.2 18.8 20.5 19.15 20.3 23.95 17.45 Q25.1 16.8 25.15 16.95 L25.35 17.1 Q25.7 17.2 24.65 18.05 L18.55 22.65 15.6 24.85 19.45 22.5 24.15 19.7 Q25.2 19.1 25.25 19.2 L25.45 19.35 Q25.9 19.45 24.55 20.5 L16.75 25.8 10.3 30.2 16.9 26.25 24.35 21.8 Q26.15 20.75 26.2 20.95 L26.35 21.1 Q27 20.85 24.65 23.45 L23.9 24.25 24 24.2 Q26.15 22.85 25.95 23.15 L26.15 23.3 25.7 24.95 25.45 25.75 25.85 25.5 Q27.1 24.65 27.15 24.85 L27.35 24.95 26.7 26.6 26.4 27.25 26.85 26.95 Q28.3 26 28.35 26.2 28.45 26.2 28.55 26.35 29.05 26.1 27.1 28.55 L26.6 29.15 27.75 28.45 Q30.05 27 29.85 27.3 L30.05 27.45 29.95 27.85 29.8 27.85 Q29.3 28.15 28.05 28.95 25.4 30.6 25.6 30.25 L25.45 30.1 Q24.95 30.25 26.65 28.2 L27.35 27.35 27.15 27.45 25.8 28.15 25.6 28.05 Q25.3 28.2 26.2 26.35 L26.5 25.75 26.15 26 Q24.95 26.75 24.95 26.6 L24.75 26.45 Q24.5 26.65 25.2 24.8 L25.45 23.95 24.3 24.65 Q22.55 25.8 22.65 25.55 L22.45 25.4 Q21.85 25.65 24.2 23.05 L25.2 21.95 17.2 26.7 9.85 31.1 7.85 32.05 7.8 32.05 7.6 31.9 Q7.15 31.8 8.55 30.75 L16.45 25.35 22 21.6 19.75 23 14.5 26.15 13.15 26.7 12.95 26.55 Q12.65 26.45 13.45 25.75 L18.2 22.2 23.1 18.6 19.45 20.8 15.25 23.3 14.35 23.65 14.2 23.5 Q13.8 23.4 15 22.5 L21.9 17.75 27.1 14.2 22.7 16.9 16.45 20.6 Q15 21.4 14.95 21.25 L14.8 21.15 Q13.95 21.45 17.3 18.35 L19.35 16.4 17.8 17.35 Q14.6 19.35 15 18.9 L14.8 18.75 Q14.2 19 16.6 16.35 L17.75 15.05 17.3 15.35 Q15.45 16.5 15.55 16.25 L15.35 16.15 Q14.9 16.35 16.5 14 L16.95 13.3 Q16 13.85 14.95 14.55 11.25 16.8 11.75 16.3 L11.55 16.15 Q10.55 16.5 14.65 12.95 L16.7 11.15 14.85 12.25 Q10.8 14.75 11.35 14.2 L11.2 14.05 Q10.9 13.95 11.65 13.3 L15.95 10.05 19.6 7.4 Q18.35 8.1 17.05 8.9 L11.6 12.15 Q10.35 12.85 10.3 12.7 L10.1 12.55 Q9.8 12.45 10.6 11.75 L15.35 7.95 17.6 6.2 15.2 7.65 10.1 10.7 8.8 11.25 8.6 11.1 Q8.35 11 9 10.4 9.65 9.8 12.8 7.3 L14.75 5.75 13.7 6.4 Q9.3 9.15 9.65 8.65 L9.45 8.5 Q8.65 8.8 11.8 5.9 L12.95 4.8 10.75 6.15 Q6.95 8.55 7.3 8.05 L7.1 7.95 Q6.6 8.15 8.35 5.9 L9.2 4.8 8.3 5.35 Q5.95 6.9 6 6.6 L5.8 6.45 Q5.45 6.65 6.65 4.55 L7 3.95 6.5 4.25 Q5.05 5.15 5.15 4.9 L5 4.8 Q4.9 4.55 5.1 4.4 L5.15 4.35 6.2 3.75 Q7.9 2.7 7.75 2.95 L7.9 3.1 Q8.25 2.9 7.15 4.8 L6.65 5.7 8 4.85 10.1 3.7 10.3 3.85 Q10.85 3.6 8.8 6.2 L8.2 7.05 10.45 5.65 Q14.65 3 14.35 3.5 L14.55 3.65 Q15.35 3.35 12.2 6.3 L11.05 7.35 13.4 5.9 Q17.4 3.4 17.05 3.9 L17.25 4 Q17.5 4.15 16.85 4.7 L13.15 7.75 10.65 9.75 14.95 7.15 19.1 4.65 Q19.95 4.2 19.95 4.3 L20.15 4.45 19.75 5.2 15.65 8.4 12.1 11.2 16.8 8.4 21.3 5.75 22.1 5.4"/>
    <path stroke="none" fill="#fac49d" d="M8.5 8.3 L9.25 9.2 Q9.55 9.65 9.2 10 L8.85 10.1 Q8.55 10.15 8.4 9.9 L7.8 9.2 7.65 9.15 6.25 9.15 Q5.75 8.95 5.8 8.45 6 7.95 6.5 8.05 L7.5 8.05 7.8 8 7.95 8 8.5 8.3"/>
    <path stroke="none" fill="#fac49d" d="M21.25 7.15 L21.15 7.1 Q20.65 6.95 20.75 6.4 L20.8 6 Q20.75 5.1 20.05 4.55 L19.9 4.45 Q19.5 4.1 19.75 3.65 20.1 3.25 20.55 3.5 L20.75 3.65 Q21.85 4.55 21.9 6 L21.8 6.7 21.25 7.15 M24.9 13.05 L25.55 12.25 Q25.9 11.85 26.35 12.15 26.7 12.5 26.45 12.95 L25.7 13.8 24.2 15.1 23.9 15.25 23.45 15 Q23.15 14.6 23.55 14.25 L24.9 13.05 M21.75 15.1 Q21.6 15.3 21.35 15.3 L21 15.15 20.45 14.65 20.1 14.35 18.75 13 Q18.5 12.6 18.85 12.25 L19.65 12.3 20.85 13.55 21.2 13.85 21.7 14.3 Q22.05 14.7 21.75 15.1 M11.55 3.8 L8.75 4.1 8.6 4.1 8.5 3 8.6 2.95 11.45 2.65 Q11.95 2.65 12.05 3.15 12.05 3.7 11.55 3.8 M15.75 2.35 L17.5 2.45 Q18 2.55 18 3.1 17.9 3.55 17.45 3.6 L17.35 3.55 15.75 3.5 14.5 3.5 Q14 3.5 13.9 3 13.9 2.5 14.45 2.4 L15.75 2.35 M4.8 6.2 L4.85 6.5 Q4.95 7.05 4.45 7.2 L4.3 7.2 3.75 6.75 3.7 6.2 Q3.7 4.9 4.9 4.05 L5.4 3.75 Q5.85 3.55 6.15 4 6.35 4.45 5.9 4.75 L5.55 4.95 Q4.85 5.45 4.8 6.2 M19.05 8.75 L18.3 8.8 18.45 9.9 Q18.5 10.4 18 10.55 L17.9 10.6 Q17.45 10.55 17.35 10.15 L17.15 8.55 17.15 8.45 17.15 8.4 Q17.25 7.75 17.9 7.7 L18.9 7.6 Q19.45 7.6 19.55 8.1 19.55 8.6 19.05 8.75"/>
    <path stroke="none" fill="#fac49d" d="M28.5 8.7 L28.5 8.8 28 10.15 27.45 10.5 27.25 10.45 Q26.8 10.25 26.95 9.75 L27.3 8.8 26.2 8.85 Q25.7 8.75 25.65 8.25 25.7 7.75 26.2 7.7 L27.2 7.65 27.45 7.65 27.7 7.65 Q28.25 7.6 28.5 8.1 L28.5 8.7"/>
    <path stroke="none" fill="#fac49d" d="M33.1 2.95 Q32.6 2.85 32.6 2.35 32.7 1.8 33.2 1.85 35.05 2 36.35 2.5 36.8 2.7 36.65 3.2 L36.15 3.55 35.95 3.55 Q34.8 3.1 33.1 2.95 M38.2 4.3 Q38.65 4.05 39 4.45 L39.05 4.5 Q39.45 5.15 39.45 6.05 39.4 7.15 38.9 8 L38.4 8.25 38.1 8.15 Q37.7 7.8 37.95 7.35 38.3 6.8 38.3 6.05 L38.05 5.05 Q37.85 4.65 38.2 4.3 M24.2 5.8 L24.35 6.55 Q24.45 7 24 7.25 L23.8 7.3 23.3 6.9 23.1 5.8 Q23.1 4.45 23.95 3.5 L23.95 3.45 Q24.35 3.15 24.75 3.45 25.1 3.85 24.75 4.25 24.25 4.85 24.2 5.8 M30.7 2.25 L30.15 2.8 27.95 3.05 27.85 3.05 27.2 3.2 27.1 3.2 Q26.65 3.15 26.55 2.75 26.5 2.2 27 2.1 L27.65 1.95 27.75 1.95 30.1 1.7 Q30.6 1.7 30.7 2.25 M31.1 11 Q31.4 11.45 31.05 11.8 29.65 12.9 28.8 13.8 L28.4 13.95 28 13.8 Q27.7 13.4 28 13 28.9 12.1 30.35 10.95 L31.1 11 M27.05 16.05 Q26.35 17.35 26.25 18.75 26.2 19.2 25.7 19.25 L25.65 19.25 Q25.15 19.15 25.15 18.65 25.25 17.05 26.05 15.55 26.35 15.1 26.85 15.3 27.25 15.6 27.05 16.05 M36.25 8.6 Q36.15 9.15 35.6 9.1 L34.75 8.95 34.6 8.95 Q34.1 9.35 33.45 9.9 L33.1 10.05 Q32.8 10.05 32.65 9.85 32.35 9.4 32.75 9.05 L33.9 8.05 33.95 8 34.65 7.8 34.95 7.85 35.75 8 Q36.3 8.1 36.25 8.6 M32 28.7 Q32.3 29.15 31.9 29.5 L31.55 29.6 31.1 29.4 30.55 28.65 29.25 27 Q28.95 26.55 29.35 26.2 29.75 25.9 30.15 26.3 L31.45 28 32 28.7 M28.2 23.95 Q28.5 24.4 28.1 24.75 L27.75 24.85 27.3 24.6 25.7 21.9 Q25.55 21.4 26 21.15 26.5 21 26.75 21.45 27.2 22.6 28.2 23.95"/>
    <path stroke="none" fill="#fac49d" d="M36.4 32.7 Q35.9 32.55 35.65 32.7 L35.5 33 34.95 33.25 34.85 33.25 34.8 33.25 34.25 33 34.1 32.75 33.15 31.8 Q32.85 31.4 33.2 31 L33.95 31.05 34.85 31.9 Q35.55 31.35 36.65 31.6 37.15 31.75 37.05 32.3 36.9 32.75 36.4 32.7"/>
    <path stroke="none" fill="#fac49d" d="M21.1 33.55 Q21.6 33.75 21.5 34.25 L21.4 34.7 Q21.45 35.65 22.35 36.35 22.7 36.7 22.45 37.15 L22 37.35 21.65 37.25 Q20.35 36.2 20.3 34.7 L20.4 33.95 Q20.6 33.5 21.1 33.55 M25.85 37.5 L27.9 37.8 Q28.4 37.85 28.4 38.4 28.3 38.85 27.85 38.9 L27.8 38.9 25.7 38.65 24.7 38.45 Q24.2 38.3 24.25 37.8 24.4 37.3 24.9 37.35 L25.85 37.5 M30.85 37.8 L33.8 37.35 Q34.3 37.25 34.45 37.75 34.55 38.25 34.05 38.4 L30.95 38.9 30.9 38.9 Q30.4 38.85 30.35 38.4 30.35 37.85 30.85 37.8 M36.7 37.2 L36.25 36.95 Q36 36.55 36.4 36.2 37.55 35.35 37.85 34.15 37.95 33.65 38.45 33.65 39 33.75 38.95 34.25 38.5 36.05 37.05 37.1 L37 37.1 36.7 37.2"/>
    <path stroke="none" fill="#fac49d" d="M25.3 30.65 L25.2 32.2 25.1 32.45 25.05 32.5 24.45 32.9 24.2 32.9 24.15 32.85 23.3 32.8 Q22.8 32.8 22.65 32.3 22.65 31.8 23.15 31.7 L24.15 31.7 24.2 30.75 Q24.2 30.25 24.7 30.15 25.2 30.15 25.3 30.65"/>
    <path stroke="none" fill="#fac49d" d="M14.8 27.9 Q15.85 26.1 17.4 25.25 17.85 25.05 18.15 25.5 18.35 26 17.9 26.25 16.65 26.95 15.75 28.45 L15.25 28.75 15 28.65 Q14.55 28.35 14.8 27.9 M21.15 24.85 Q22.85 25.35 23.8 26.75 L24.1 27.2 Q24.3 27.65 23.9 27.95 L23.6 28.05 23.1 27.75 22.85 27.35 Q22.15 26.3 20.85 25.95 20.35 25.75 20.45 25.25 20.65 24.8 21.15 24.85"/>
    <path stroke="none" fill="#fac49d" d="M16.05 33.45 Q15.95 33.8 15.55 33.8 L15.35 33.75 14.35 33.6 Q14.05 33.6 13.85 33.4 L13.7 33.2 13.5 32.65 13.6 31.35 Q13.75 30.8 14.25 30.85 14.75 31 14.7 31.5 L14.65 32.5 15.75 32.7 Q16.2 32.95 16.05 33.45"/>
    <path stroke="none" fill="#fac49d" d="M10.85 37.1 Q11.35 37.15 11.35 37.65 L10.8 38.2 10.75 38.2 7.45 37.85 Q6.95 37.75 6.95 37.25 7.1 36.75 7.6 36.75 L10.85 37.1 M6.9 33.25 L6.45 33.35 6.35 33.35 5.8 33.1 4.7 32.9 4.5 32.9 Q3.95 32.9 3.9 32.4 3.9 31.85 4.4 31.8 L4.7 31.8 Q5.45 31.7 6.45 32.2 L7.1 31.7 Q7.55 31.45 7.9 31.85 8.15 32.25 7.8 32.6 L6.9 33.25 M1.65 34.4 Q1.75 33.9 2.3 33.9 2.8 34 2.8 34.55 L2.75 34.65 2.9 35.15 Q3.4 35.85 4.45 36.2 4.95 36.45 4.8 36.9 L4.25 37.3 4.1 37.25 Q2.65 36.8 2 35.75 1.65 35.25 1.65 34.65 L1.65 34.4 M17 35.35 Q17.45 35.65 17.25 36.1 16.3 37.65 14.85 38 L14.2 38.2 14.1 38.2 Q13.65 38.15 13.55 37.7 13.5 37.2 14 37.05 L14.5 36.95 Q15.6 36.6 16.25 35.6 16.5 35.2 17 35.35"/>
    <path stroke="none" fill="#fac49d" d="M12.25 27.25 Q12.6 27.6 12.35 28.05 L12.3 28.1 11.5 29.1 11.4 29.3 11.1 29.65 11 29.75 10.85 29.85 10.35 30.4 9.95 30.55 9.55 30.4 Q9.25 30 9.55 29.6 L10.1 29.05 10.2 28.95 10.3 28.85 10.45 28.65 10.55 28.55 11.4 27.45 11.45 27.35 12.25 27.25"/>
    <path stroke="none" fill="#fac49d" d="M16.2 21.4 L15.65 21.9 15.6 21.9 Q15.1 21.85 15.1 21.3 L15.1 21 14.85 19.55 14.65 19.15 Q14.5 18.65 14.95 18.4 15.4 18.25 15.7 18.7 L15.85 19.15 Q16.2 20 16.2 21 L16.2 21.4 M15.2 23.25 Q15.65 23.5 15.45 24 L13.9 26.15 13.45 26.3 13.1 26.2 Q12.75 25.8 13.05 25.4 L14.45 23.45 Q14.7 23.05 15.2 23.25"/>
    <path stroke="none" fill="#fac49d" d="M11.95 13.8 Q12.4 13.55 12.75 13.95 L13.45 15.1 13.7 15.45 14.35 16.4 Q14.6 16.85 14.25 17.2 L13.9 17.3 Q13.6 17.3 13.45 17.1 L12.7 16 12.55 15.8 12.45 15.7 11.8 14.55 Q11.55 14.1 11.95 13.8"/>
    <path stroke="none" fill="#fac49d" d="M10.45 10.75 L11.6 12.35 Q11.9 12.8 11.5 13.1 L11.15 13.25 10.7 13 9.55 11.45 Q9.3 11 9.65 10.65 L10.45 10.75"/>
  </g>
</svg>