<svg width="37.45px" height="40.65px" viewBox="0 0 37.45 40.65" xmlns="http://www.w3.org/2000/svg" xmlns:xlink="http://www.w3.org/1999/xlink">
  <defs/>
  <g>
    <path stroke="none" fill="#7279b8" d="M10.65 0.05 L11.25 0.05 Q15.25 -0.35 19.2 2.4 L20.2 3.7 Q21.5 2.1 23.6 1.7 L26.9 1.35 27.2 1.35 28.8 1.35 Q31.55 1.15 34.6 2.4 36.8 3.55 37.35 5.75 37.75 7.75 36.55 9.4 35.85 10.75 33.15 11.05 L33 11.05 29.95 14.5 28.9 15.6 Q26.75 18.1 25.35 20.75 23.75 23.75 23.45 26.6 23.2 29 23.55 30.65 24.75 30.6 26.15 31.2 27.85 32.05 28.25 34 28.7 36.65 27.1 38.75 24.15 41.05 22.3 40.6 L20.6 40.3 19.6 40.05 19.5 40.05 17.6 40.3 15.45 40.6 Q13.05 40.8 10.1 39.45 8.2 38.35 7.75 36.2 7.35 34 8.7 32.25 10.05 30.8 11.6 30.65 L11.7 30.1 11.85 28.95 Q11.9 27.9 11.55 26.6 10.8 23.9 9.3 21.15 L6.8 15.95 6.45 15.15 4.8 12.45 3.65 10.65 3.5 10.45 Q0.45 9.65 0 6.9 0 3.45 2.85 1.8 6.35 -0.15 10.65 0.05 M22.65 10.45 Q20.95 10.05 20.05 8.55 L19.75 9 Q19.1 9.9 17.35 10.45 L18.25 12.35 19.5 14.95 19.8 15.8 20.05 16.5 20.45 15.5 20.55 15.15 20.75 14.65 Q21.45 12.7 22.5 10.75 L22.65 10.45"/>
    <path stroke="none" fill="#5f7ba6" d="M10.65 2.3 Q14.55 1.95 17.65 4.05 19.2 5.7 17.95 7.6 16.65 8.65 14.95 8.25 L14.75 8.35 Q14.55 8.25 14.5 8.5 15.35 12.3 17.35 15.75 17.8 18.2 19.6 19.6 20.8 19.8 21.55 18.35 L22.6 15.95 Q23.35 13.85 24.4 11.85 25.6 10.4 25.75 8.55 25.65 8.3 25.4 8.45 L25.3 8.35 23.25 8.3 Q21.4 7.8 21.65 5.85 22.05 4.3 23.9 3.95 L27.1 3.6 Q30.45 3.25 33.55 4.4 35.85 5.65 34.75 7.85 33.6 8.75 32.1 8.4 L32 8.4 31.8 8.45 27.2 14.05 Q24.9 16.65 23.3 19.7 21.6 22.8 21.15 26.35 20.7 29.55 21.75 32.55 L21.9 32.65 22.05 32.9 25.1 33.2 Q26.95 35.05 25.3 37.3 22.8 38.9 19.6 38.2 15.2 38.9 11.15 37.45 9 35.9 10.4 33.65 11.7 32.6 13.45 32.8 L13.65 32.6 13.65 32.55 14.05 29.15 Q14.1 27.6 13.7 26.1 12.8 23 11.25 20.15 L8.4 14.2 5 8.55 4.8 8.45 4.65 8.35 Q2.7 8.35 2.15 6.6 2.3 4.65 4 3.65 7.15 2.1 10.65 2.3"/>
    <path stroke="none" fill="#7dc8e8" d="M21.5 29.15 L21.7 29.3 Q22 29.4 21.15 30.1 L16.35 33.8 12.9 36.45 15 35.15 Q20.6 31.7 20.1 32.3 L20.3 32.45 Q21.25 32.1 17.45 35.45 L15.6 37.15 18 35.75 22 33.35 Q22.85 32.85 22.9 33 L23.1 33.15 Q23.9 32.8 20.65 35.95 L19.85 36.75 22.35 35.25 26.05 33.05 26.85 32.75 27.05 32.85 Q27.95 32.5 24.4 35.85 L22.95 37.25 23.2 37.1 Q25.45 35.65 25.2 36 L25.4 36.15 25.3 36.55 25.15 36.55 23.5 37.55 21.55 38.7 21.45 38.65 21.25 38.55 Q20.35 38.9 24 35.45 L25.5 34 22.65 35.7 19.05 37.85 18.35 38.1 18.2 37.95 Q17.45 38.2 20.25 35.55 L21.6 34.2 18.25 36.2 Q13.45 39.2 14.05 38.55 L13.9 38.45 Q12.85 38.85 17.1 35.05 L18.65 33.6 15.3 35.65 Q10.05 38.95 10.5 38.35 L10.35 38.2 Q10 38.1 10.9 37.35 11.8 36.6 16 33.35 L19.2 30.95 15.8 33 11 35.9 9.85 36.4 9.65 36.25 Q9.1 36.5 11.1 34.05 L11.6 33.4 10.95 33.65 10.8 33.5 Q10.7 33.3 10.9 33.15 L10.95 33.1 11.75 32.65 Q12.75 32 12.7 32.2 L12.85 32.3 Q13.4 32.1 11.5 34.4 L10.75 35.4 15.5 32.55 20.3 29.65 Q21.4 29.05 21.5 29.15"/>
    <path stroke="none" fill="#7dc8e8" d="M29.65 2.65 L29.8 2.8 Q30.75 2.45 27.15 5.85 L25.8 7.15 27.9 5.9 31.45 3.75 Q32.15 3.4 32.15 3.5 L32.35 3.65 Q33.35 3.25 29.25 6.85 L27.95 8.05 29.45 7.1 Q33.55 4.55 33.1 5.1 L33.25 5.2 Q33.6 5.3 32.7 6.05 L27.65 9.95 24.9 12.05 27.3 10.6 Q31.35 8.15 32.55 7.45 L33.85 6.95 34 7.05 Q34.35 7.15 33.5 7.9 L28.5 11.7 24.8 14.45 26.35 13.5 Q28.9 11.95 29.5 11.65 30.1 11.3 30.1 11.4 L30.3 11.55 Q30.55 11.65 29.9 12.25 L25.9 15.4 23.35 17.4 23.7 17.3 23.85 17.45 23.75 17.85 23.65 17.85 22.35 18.65 20.75 19.55 20.7 19.5 20.5 19.4 Q20.2 19.3 21 18.55 L25.6 14.95 27.45 13.5 26.6 14 23 16.15 22.3 16.4 22.15 16.25 Q21.8 16.15 22.75 15.35 L28.15 11.25 31.6 8.65 27.6 11.1 23.2 13.7 Q22.3 14.2 22.3 14.1 L22.1 13.95 Q21.8 13.85 22.6 13.15 L27.3 9.5 30.5 7.1 29.75 7.55 Q25.8 10.05 26.25 9.5 L26.05 9.4 Q25.1 9.7 28.9 6.4 L30.55 4.95 28.15 6.35 24.95 8.25 24.35 8.5 24.15 8.35 Q23.3 8.7 26.75 5.45 L28.25 3.95 25.25 5.75 21.65 7.9 20.95 8.15 20.8 8 Q20.15 8.3 22.65 5.5 L23.6 4.4 22.65 4.85 22.45 4.75 Q22.35 4.5 22.55 4.35 L22.65 4.3 23.65 3.7 Q24.9 2.9 24.85 3.1 L25 3.25 Q25.7 2.95 23.05 5.9 L22.1 7 24.95 5.25 28.9 2.95 29.65 2.65"/>
    <path stroke="none" fill="#7dc8e8" d="M13.95 11.85 L13.85 11.8 13.7 11.7 Q13.6 11.45 13.8 11.3 L13.9 11.3 15.7 10.2 Q18.45 8.5 18.1 8.9 L18.25 9.05 Q18.4 9.3 18.15 9.45 L18.05 9.45 16 10.7 13.95 11.85"/>
    <path stroke="none" fill="#7dc8e8" d="M7.25 5.7 L6.35 6.65 8.5 5.35 Q12.85 2.6 12.55 3.1 L12.7 3.2 Q13.7 2.9 9.8 6.2 L8.4 7.45 10.8 5.95 Q15.05 3.3 14.7 3.8 L14.9 3.9 Q15.15 4.05 14.45 4.65 L10.45 7.85 7.65 10 12.1 7.35 16.4 4.75 Q17.3 4.25 17.3 4.4 L17.5 4.55 Q17.75 4.65 17.05 5.3 L12.75 8.65 Q10.9 10.05 9.2 11.4 L11.6 9.95 14.75 8.05 15.35 7.85 15.55 7.95 Q15.8 8.05 15.15 8.7 L11.45 11.85 10.2 12.85 11.4 12.15 Q15.9 9.35 15.35 9.95 L15.55 10.1 Q15.8 10.2 15.2 10.8 L11.7 13.85 10.05 15.3 11.35 14.5 Q15.3 12.05 14.75 12.6 L14.9 12.75 Q15.45 12.55 13.55 14.85 L12.65 15.9 13.35 15.5 Q15.6 14.05 15.5 14.35 L15.65 14.5 Q16.5 14.1 13.25 17.45 L12.3 18.45 13.4 17.75 Q17 15.55 16.65 16 L16.8 16.15 Q17.8 15.7 13.8 19.55 L12.75 20.6 15.25 19.1 18.85 16.95 Q19.55 16.55 19.55 16.65 L19.75 16.8 Q20 16.9 19.35 17.5 L15.7 20.5 14.2 21.7 14.45 21.6 Q18.55 19.05 18 19.6 L18.15 19.75 Q18.95 19.4 15.9 22.7 L15 23.75 18.8 21.4 22.6 19.15 Q23.4 18.7 23.45 18.8 L23.6 18.95 Q23.9 19.05 23.15 19.75 L18.65 23.25 15.75 25.45 17.8 24.25 21.7 21.95 Q22.45 21.5 22.45 21.65 L22.65 21.8 Q22.9 21.9 22.3 22.45 L18.85 25.3 17.3 26.6 17.4 26.55 Q21.05 24.25 20.65 24.75 L20.85 24.9 Q21.75 24.5 18.2 27.9 L16.75 29.35 17.55 28.85 Q20.5 26.95 20.3 27.3 L20.5 27.45 20.4 27.85 20.25 27.9 Q19.5 28.25 17.85 29.3 15.3 30.9 15.35 30.7 L15.3 30.7 15.1 30.55 Q14.2 30.9 17.8 27.5 L19.3 26 17.7 27 14.9 28.55 14.75 28.4 Q14.5 28.3 15.05 27.75 L18.5 24.9 20.4 23.35 18.1 24.7 14.15 27.05 13.4 27.35 13.25 27.2 Q12.95 27.1 13.75 26.4 14.5 25.7 18.3 22.8 L21.1 20.65 19.1 21.9 14.9 24.4 Q13.95 24.95 13.9 24.8 L13.7 24.7 Q13.05 24.9 15.45 22.35 L16.9 20.75 14.7 22.05 11.7 23.7 11.55 23.6 Q11.3 23.5 11.9 22.9 L15.35 20.05 17.35 18.45 15.5 19.55 11.95 21.7 11.25 21.95 11.05 21.8 Q10.25 22.1 13.4 19.15 L15.3 17.3 13.7 18.25 Q10.55 20.2 10.95 19.75 L10.8 19.6 Q10.05 19.9 12.85 17.05 L14.25 15.6 13.65 16 Q11.55 17.3 11.65 17.05 L11.5 16.9 Q10.85 17.15 13.1 14.5 L13.7 13.7 11.6 14.95 Q7.55 17.5 8.15 16.9 L7.95 16.75 Q6.85 17.2 11.35 13.4 L13.65 11.45 11.7 12.6 Q7.4 15.3 8 14.7 L7.8 14.55 Q6.75 14.9 11.1 11.4 L13.35 9.55 11.85 10.45 7.95 12.75 7.1 13.1 6.9 12.95 Q6.6 12.85 7.45 12.1 L12.4 8.2 14.85 6.35 12.35 7.85 7.05 11 5.7 11.6 5.5 11.45 Q5.25 11.35 5.95 10.7 L10.1 7.4 12.25 5.75 11.1 6.45 Q6.4 9.4 6.75 8.85 L6.55 8.75 Q5.6 9.05 9.45 5.75 L10.85 4.5 8.8 5.8 5.2 7.8 5 7.65 Q4.35 7.95 6.8 5.3 L8 4 6.75 4.75 Q3.65 6.75 3.8 6.4 L3.6 6.25 Q3.05 6.5 5.1 3.95 L5.7 3.2 5.25 3.45 3.7 4.3 3.55 4.15 Q3.45 3.9 3.65 3.75 L3.7 3.75 5 3 Q6.95 1.75 6.75 2.05 L6.95 2.2 Q7.45 2 5.55 4.3 L4.7 5.4 6.45 4.3 Q9.3 2.45 9.15 2.8 L9.35 2.95 Q10.05 2.65 7.25 5.7"/>
    <path stroke="none" fill="#fac49d" d="M23.85 32.9 Q23.8 33.45 23.3 33.5 L23.15 33.5 22.75 33.5 22 33.45 21.4 33.05 21.25 32.8 20.8 31.45 Q20.75 30.95 21.25 30.75 21.75 30.7 21.9 31.2 L22.25 32.25 22.35 32.35 23.1 32.35 23.25 32.35 Q23.8 32.4 23.85 32.9"/>
    <path stroke="none" fill="#fac49d" d="M6.9 11.55 Q7.35 11.3 7.7 11.7 L8.95 13.95 9.1 14.25 Q9.3 14.75 8.85 15 L8.6 15.05 8.1 14.75 7.95 14.4 6.75 12.3 Q6.5 11.85 6.9 11.55 M9.55 16.55 Q10.05 16.4 10.3 16.85 L11.55 19.4 Q11.7 19.85 11.3 20.15 L11.05 20.2 Q10.7 20.2 10.55 19.9 L9.3 17.3 Q9.1 16.85 9.55 16.55 M26.3 33.55 Q26.65 34.2 26.65 35.05 L26.3 36.8 Q26.1 37.15 25.75 37.15 L25.55 37.1 Q25.1 36.85 25.25 36.35 L25.55 35.05 25.35 34.1 Q25.1 33.65 25.55 33.35 26 33.15 26.3 33.55 M17.5 38.85 L15.4 38.9 15.05 38.9 Q14.55 38.85 14.5 38.35 14.55 37.8 15.05 37.8 L15.1 37.8 17.45 37.7 17.9 37.7 Q18.4 37.7 18.45 38.2 18.45 38.75 17.95 38.8 L17.5 38.85 M20.2 38.2 Q20.3 37.7 20.8 37.7 L22.25 37.75 23.5 37.65 Q24 37.65 24.15 38.1 24.2 38.65 23.7 38.75 L22.25 38.9 20.7 38.8 Q20.2 38.75 20.2 38.2 M13.9 24.65 Q14 25.15 13.55 25.35 L13.35 25.4 Q12.95 25.4 12.8 25 L11.8 22.45 Q11.6 21.95 12.05 21.7 12.55 21.5 12.8 21.95 L13.9 24.65 M14.6 27.5 L14.65 28.65 14.65 29.2 14.45 30.55 Q14.35 30.95 13.9 31 L13.8 31 Q13.3 30.85 13.35 30.35 L13.5 29.1 13.55 28.65 13.45 27.7 Q13.45 27.15 13.95 27.05 14.45 27 14.6 27.5 M13 33.35 Q11.8 33.25 10.9 33.95 L10.5 34.15 10.1 34 Q9.75 33.6 10.05 33.2 11.45 32.1 13 32.25 L13.15 32.25 Q13.65 32.3 13.7 32.8 L13.15 33.35 13 33.35 M9.85 35.75 Q10.35 35.6 10.6 36.05 10.85 36.65 11.4 36.95 L12.45 37.4 Q12.9 37.6 12.8 38.1 L12.25 38.5 12.1 38.45 10.9 37.95 Q9.95 37.45 9.55 36.45 9.4 36 9.85 35.75"/>
    <path stroke="none" fill="#fac49d" d="M5.55 8.25 L6.15 9.3 Q6.35 9.8 5.95 10.1 L5.65 10.2 5.2 9.9 4.65 8.95 4.55 8.9 3.2 8.6 Q2.75 8.3 2.9 7.85 3.15 7.4 3.65 7.55 L4.75 7.8 5 7.85 5.55 8.25"/>
    <path stroke="none" fill="#fac49d" d="M9.6 2.9 L6.85 3.2 6.75 3.25 Q6.35 3.2 6.2 2.8 6.15 2.25 6.65 2.1 L9.55 1.8 Q10.1 1.8 10.15 2.35 10.15 2.85 9.6 2.9 M15.1 3.35 L12.4 2.9 Q11.9 2.85 11.9 2.35 11.95 1.8 12.5 1.8 L15.4 2.25 Q15.9 2.45 15.8 2.95 15.65 3.35 15.25 3.35 L15.1 3.35 M1.75 5.6 Q2.75 3.65 3.7 3.25 L3.8 3.2 Q4.25 2.95 4.55 3.35 4.8 3.8 4.4 4.15 L4.35 4.15 Q3.3 4.8 2.8 5.95 L2.25 6.35 2.1 6.3 Q1.6 6.1 1.75 5.6 M19.1 6.05 L18.95 7 Q18.8 7.35 18.4 7.35 L18.25 7.35 Q17.75 7.1 17.9 6.65 L17.95 6.05 Q17.95 5.2 17.35 4.55 17 4.2 17.35 3.8 17.75 3.45 18.15 3.8 19.05 4.75 19.1 6.05"/>
    <path stroke="none" fill="#fac49d" d="M16.85 8.3 Q16.8 8.8 16.3 8.9 L15.15 8.85 15.3 9.5 Q15.35 10.05 14.85 10.2 L14.75 10.2 Q14.3 10.2 14.2 9.75 L14 8.55 Q14 8.15 14.25 7.95 L14.65 7.75 15.1 7.7 16.25 7.8 Q16.75 7.8 16.85 8.3"/>
    <path stroke="none" fill="#fac49d" d="M15.65 12.25 Q16.15 12.05 16.4 12.5 L16.75 13.1 17.9 15.55 17.9 15.6 Q18 16.15 17.5 16.3 L17.35 16.3 Q17 16.3 16.85 15.95 L15.75 13.65 15.4 13 Q15.2 12.5 15.65 12.25 M24.3 12.05 Q24.75 12.35 24.55 12.8 L23.35 15.65 23.25 15.85 Q23.1 16.2 22.75 16.2 L22.55 16.15 Q22.05 15.95 22.2 15.45 L22.3 15.25 Q22.85 13.75 23.55 12.3 23.8 11.9 24.3 12.05 M21.65 18.25 Q22.05 18.55 21.8 19 20.95 20.2 19.95 20.2 L19.45 20.15 Q18.75 19.9 18.2 19.15 17.95 18.75 18.35 18.4 18.75 18.1 19.1 18.5 L19.8 19.05 19.95 19.1 20.9 18.35 21.65 18.25"/>
    <path stroke="none" fill="#fac49d" d="M26.35 8.55 L26.2 9.8 Q26.05 10.2 25.65 10.2 L25.5 10.15 Q25 10 25.1 9.45 L25.2 8.95 24.7 8.95 23.95 8.9 Q23.4 8.85 23.4 8.35 23.45 7.8 24 7.8 L24.7 7.8 25.35 7.85 25.45 7.85 25.85 7.9 Q26.3 8.1 26.35 8.55"/>
    <path stroke="none" fill="#fac49d" d="M29.2 3.55 L28.65 4.1 27.25 4.15 26.95 4.15 25.7 4.2 25.65 4.2 Q25.2 4.2 25.1 3.7 25.1 3.2 25.6 3.1 L26.9 3.05 27.2 3.05 28.6 3 Q29.15 3.05 29.2 3.55 M31 3.65 Q31.15 3.2 31.65 3.2 L33.8 3.9 34.65 4.45 Q35 4.85 34.7 5.25 34.5 5.45 34.25 5.45 L33.9 5.3 33.3 4.9 31.45 4.3 Q31 4.2 31 3.65 M21.1 5.75 Q21.3 4.55 22.55 3.85 23 3.65 23.3 4.05 23.5 4.55 23.05 4.8 22.3 5.25 22.2 5.95 L22.2 6.25 22.25 6.7 Q22.3 7.2 21.85 7.35 L21.7 7.4 21.15 6.95 21.05 6.25 21.1 5.75 M26.85 14.45 Q27.2 14.8 26.9 15.25 L25.2 17.55 24.75 17.8 24.45 17.75 Q24 17.4 24.25 16.95 L26.05 14.5 26.85 14.45 M35.2 8.2 Q34.5 9 33.1 9 L32.25 8.95 Q31.75 8.85 31.75 8.35 31.9 7.8 32.4 7.85 33.9 8.05 34.3 7.5 L34.45 7.25 Q34.75 6.85 35.2 7.05 35.65 7.35 35.45 7.8 L35.2 8.2 M30.8 10.75 L28.85 13 Q28.65 13.2 28.45 13.2 L28.05 13.05 Q27.7 12.7 28 12.25 L29.9 10.05 30.7 9.95 Q31.1 10.35 30.8 10.75 M23.75 20.05 L22.6 22.7 22.05 23.1 21.9 23.05 Q21.4 22.85 21.55 22.35 22 20.95 22.75 19.55 23 19.1 23.5 19.3 23.95 19.6 23.75 20.05 M20.5 28.3 L20.6 26.3 20.75 25.3 Q20.9 24.8 21.4 24.85 21.9 24.95 21.85 25.5 L21.75 26.4 21.6 28.35 Q21.6 28.85 21.05 28.9 20.55 28.85 20.5 28.3"/>
  </g>
</svg>