<svg width="33.5px" height="41.15px" viewBox="0 0 33.5 41.15" xmlns="http://www.w3.org/2000/svg" xmlns:xlink="http://www.w3.org/1999/xlink">
  <defs/>
  <g>
    <path stroke="none" fill="#7279b8" d="M15.8 0 L18.15 0.1 19.65 0.2 Q23.45 0.25 27.3 1.65 33.15 4.65 31.65 10.5 29.55 14.7 25.6 15.85 L24.2 16.55 Q20.55 18.5 18.45 20.55 L16.45 22.85 Q15.9 23.65 15.5 25 L15.35 25.45 Q14.3 29.4 15.85 30.8 17.2 31.8 18.5 31.8 L18.95 31.75 20.1 31.6 19.7 30 Q19.55 27.1 22.5 25.7 23.75 25.2 25.1 25.2 28.05 25.25 30.85 27.35 34.35 30.35 33.2 34.8 32.15 37.4 30.5 38.5 29.05 39.45 27.85 39.75 L27.15 39.95 25.7 40.55 25.55 40.4 17.75 41.15 16.85 41.15 7.9 40.25 Q6.1 40 3.8 38.95 1.55 37.9 0.75 34.9 0.3 30.65 2.15 27.4 4.35 23.05 7.25 19.95 L9.25 17.7 12.9 13.5 14.9 11.4 12.25 11.55 Q12.45 12.7 11.8 14.05 10.45 16.45 7.35 16.5 L4.4 15.9 Q0.05 13.25 0 8.4 0.1 3.55 3.9 2.05 7.65 0.5 10.7 0.35 L10.9 0.35 15.8 0"/>
    <path stroke="none" fill="#5f7ba6" d="M17.95 2.3 Q22.3 2.3 26.4 3.65 30.45 5.5 29.5 9.8 28.8 11.7 26.8 12.7 L23.1 14.5 Q19.7 16.3 16.9 18.85 15.65 20.1 14.65 21.5 13.75 22.8 13.35 24.3 L13.25 24.45 13.15 24.95 Q11.65 29.4 14.55 32.6 16.6 34.15 19.15 33.95 21.5 33.9 23.1 32.25 L23.15 32.15 23.2 31.8 Q22.05 31.1 21.95 29.75 21.95 28.25 23.4 27.7 26.75 26.8 29.5 29.1 31.85 31.1 31.05 34.05 30.45 35.65 29.1 36.65 27.85 37.45 26.4 37.85 L26.4 37.8 25.45 38.1 16.9 38.85 8.3 38 Q4.3 37.8 2.95 34.4 2.6 31.2 4.2 28.3 6.05 24.5 8.95 21.4 L14.65 14.9 Q15.8 13.5 17.1 12.35 18.25 11.55 18.55 10.3 17.85 8.8 15.95 9.15 L9.8 9.65 Q9.65 9.7 9.7 9.9 L9.7 10 Q10.3 11.5 9.8 12.95 7.95 15 5.25 13.8 2.3 11.85 2.25 8.25 2.35 4.85 5.3 3.8 8.3 2.7 11.15 2.55 L17.95 2.3"/>
    <path stroke="none" fill="#7dc8e8" d="M25.05 26.7 L25.2 26.85 Q25.9 26.55 23.35 29.45 L22.45 30.5 Q23.45 29.85 24.65 29.15 L27.95 27.2 28.55 27 28.75 27.15 Q29.7 26.8 25.9 30.1 L24.75 31.2 25.85 30.5 29.4 28.55 Q29.55 28.55 29.6 28.7 L29.5 29.05 29.35 29.1 26.15 31 23.05 32.75 23 32.75 22.8 32.6 Q21.9 32.9 25.55 29.7 L26.9 28.45 24.9 29.65 21.35 31.65 21.15 31.5 Q20.5 31.8 22.9 29.05 L23.85 27.95 Q22.85 28.6 22.85 28.45 L22.7 28.3 Q22.6 28.05 22.8 27.9 L22.85 27.9 23.9 27.3 Q25.1 26.5 25.05 26.7"/>
    <path stroke="none" fill="#7dc8e8" d="M20.4 3.25 Q21.7 2.5 21.75 2.65 L21.95 2.8 Q22.95 2.45 18.9 5.9 L16.65 7.9 21.2 5.15 Q24.8 2.95 25.75 2.45 26.65 1.95 26.7 2.05 L26.85 2.2 Q27.15 2.3 26.4 2.95 L22.2 6.3 19.3 8.55 21.9 7 25.95 4.6 Q26.7 4.2 26.7 4.3 L26.9 4.45 Q27.15 4.55 26.55 5.1 L23.1 7.9 20.65 9.85 23.05 8.4 Q27.8 5.35 27.45 5.9 L27.6 6.05 Q28 6.15 26.85 7.05 L19.95 11.8 15.05 15.15 21.25 11.4 28.25 7.2 Q30.05 6.15 30.2 6.3 L30.4 6.45 Q30.85 6.55 29.35 7.65 L20.6 13.35 11.3 19.45 21.05 13.65 28.85 8.95 Q30.8 7.85 30.9 8 L31.1 8.15 Q31.6 8.25 29.65 9.65 L19.25 16.3 8.7 23.05 11.95 21.05 16.45 18.35 Q17.5 17.75 17.55 17.9 17.65 17.9 17.75 18.05 18.15 18.15 16.95 19.05 L10.1 23.85 8.05 25.35 8.55 25 Q11.6 23.1 12.4 22.7 13.15 22.25 13.2 22.35 L13.4 22.5 Q13.65 22.6 13 23.2 L9.25 26.3 6.6 28.45 9.15 26.9 13.2 24.5 Q14 24.05 14.05 24.15 L14.25 24.3 Q14.55 24.4 13.7 25.1 L8.7 28.8 5.3 31.25 7.4 30 12.1 27.2 Q13.05 26.65 13.1 26.8 L13.25 26.95 Q13.55 27.05 12.85 27.7 L8.9 30.95 Q7.65 31.95 6.5 32.9 L8.45 31.7 12.95 29 Q14 28.45 14.1 28.55 L14.25 28.7 Q14.5 28.8 13.9 29.35 L10.2 32.3 7.85 34.15 8.75 33.6 Q12.2 31.4 11.85 31.9 L12 32 Q12.8 31.75 9.75 34.6 L8.4 35.95 11 34.35 Q15.9 31.3 15.45 31.9 L15.6 32 Q16.8 31.6 12.05 35.45 L10.45 36.85 12.2 35.75 16.05 33.45 Q16.9 33.05 16.95 33.15 L17.1 33.3 Q17.95 33 14.6 36.05 L13.3 37.3 16.1 35.6 20.1 33.2 Q20.9 32.75 20.95 32.9 L21.15 33.05 20.8 33.7 17.25 36.7 15.05 38.5 21.2 34.8 27.8 30.8 Q29.5 29.85 29.65 30 L29.85 30.15 Q30.15 30.25 29.4 30.9 L25 34.35 21.95 36.75 26.8 33.85 Q30.4 31.6 31.45 31.05 32.5 30.45 32.55 30.55 L32.75 30.7 Q33 30.8 32.3 31.45 L28.2 34.75 26.05 36.4 27.35 35.6 Q31.3 33.15 30.85 33.65 L31.05 33.8 30.95 34.2 30.8 34.25 Q29.9 34.7 27.65 36.1 23.45 38.75 23.75 38.25 L23.6 38.1 Q23.3 38 24 37.4 L27.85 34.3 30.45 32.25 Q28.9 33.2 27.1 34.3 L21.6 37.6 20.15 38.2 19.95 38.1 Q19.65 37.95 20.4 37.3 L24.7 33.9 27.95 31.35 21.5 35.25 Q13.2 40.4 13.45 39.9 L13.4 39.85 13.2 39.7 Q12.95 39.6 13.55 39.05 L16.9 36.25 19.05 34.5 16.4 36.05 12.65 38.3 11.85 38.65 11.65 38.5 Q10.8 38.8 14.25 35.65 L15.5 34.45 12.5 36.25 9.15 38.25 8.5 38.5 8.3 38.35 Q7.2 38.75 11.7 35.05 L13.7 33.35 11.3 34.85 Q6.45 37.8 7.05 37.2 L6.85 37.05 Q6 37.4 9.35 34.2 L10.35 33.25 9 34.1 5.5 36 5.3 35.9 Q5.05 35.8 5.75 35.15 6.45 34.5 9.85 31.85 L11.85 30.3 8.75 32.2 5.1 34.4 4.35 34.65 4.2 34.5 Q3.9 34.4 4.6 33.8 L8.5 30.5 11.15 28.4 7.65 30.5 3.45 33 2.6 33.35 2.4 33.2 Q2.05 33.1 3 32.3 3.9 31.55 8.4 28.35 L11.15 26.35 9.45 27.35 5.5 29.75 4.65 30.05 4.45 29.95 Q4.2 29.8 4.85 29.15 L8.9 25.85 11.15 24.05 8.85 25.45 Q3.05 29.05 3.6 28.4 L3.4 28.3 Q3.05 28.2 4.05 27.4 L9.75 23.4 14.35 20.25 12.25 21.55 7.3 24.5 6 25.05 5.8 24.9 Q5.25 24.8 7.45 23.2 L18.95 15.85 27.65 10.3 21.3 14.15 12.1 19.65 Q9.65 21.05 9.5 20.85 9.35 20.85 9.3 20.7 8.8 20.6 10.6 19.25 12.45 17.95 20.3 12.9 L27.15 8.45 21.5 11.9 14.4 16.2 12.4 17.1 12.2 16.95 Q11.8 16.85 12.95 15.95 L19.65 11.35 22.65 9.3 Q18.6 11.85 18.75 11.4 L18.6 11.25 Q18.3 11.15 18.95 10.55 19.6 9.95 22.75 7.5 L24.45 6.1 22.2 7.5 18.05 9.95 17.15 10.3 17 10.15 Q16.7 10.05 17.45 9.35 L21.85 5.85 24.45 3.85 21.5 5.6 16.35 8.7 15.1 9.25 14.9 9.1 Q14.7 9 15.25 8.4 L18.55 5.45 20.15 4.05 15.1 7.05 10.1 10.05 9.05 10.5 8.85 10.35 Q8.75 10.1 9 9.95 L9.1 9.95 14.8 6.6 20.4 3.25"/>
    <path stroke="none" fill="#7dc8e8" d="M16.1 3.55 Q17.25 2.85 17.35 3 L17.55 3.15 Q17.9 3.25 16.85 4.1 L10.6 8.5 7.1 10.95 Q9.35 9.55 9.1 9.9 L9.3 10.05 Q9.85 9.8 7.8 12.25 L6.8 13.5 8.45 12.5 Q11.15 10.85 10.8 11.25 L11 11.35 10.9 11.75 10.8 11.75 8.75 13 5.85 14.6 5.8 14.6 5.6 14.45 Q4.95 14.75 7.35 11.9 L8.05 11.05 6.7 11.85 Q2.8 14.25 3.35 13.7 L3.15 13.55 Q2.8 13.45 3.9 12.6 5 11.7 10.25 8.05 L14.3 5.25 11.35 7.05 Q3.95 11.65 4.3 11.05 L4.1 10.9 Q3.8 10.8 4.6 10.15 L9.15 6.7 12 4.6 8.8 6.55 3.7 9.45 3.5 9.3 Q2.5 9.65 6.45 6.25 L8.45 4.5 7.25 5.25 Q3.5 7.65 3.75 7.2 L3.55 7.05 Q2.9 7.3 5.25 4.65 L5.85 3.85 Q5.7 4 5.5 4.1 L3.95 4.9 3.75 4.8 Q3.65 4.55 3.85 4.4 L3.95 4.35 5.25 3.6 Q7.25 2.35 7.05 2.65 L7.2 2.8 Q7.8 2.55 5.65 5 L4.7 6.15 6.95 4.75 Q10.35 2.55 10.15 3 L10.3 3.15 Q11.45 2.7 6.85 6.65 L5.3 8.05 8.55 6.05 Q14.6 2.25 14.35 2.8 L14.5 2.95 Q14.8 3.05 14.05 3.7 L9.45 7.15 6.5 9.35 Q8.6 8.1 11.05 6.6 L16.1 3.55"/>
    <path stroke="none" fill="#fac49d" d="M12.65 24.35 L12.8 24 13.3 22.7 Q13.55 22.25 14.05 22.4 14.5 22.65 14.3 23.15 L13.85 24.5 13.75 24.65 13.7 25.05 13.65 25.05 13.65 25.1 13.4 26.55 Q13.3 27 12.85 27 L12.8 27 Q12.25 26.9 12.3 26.35 L12.55 24.95 12.55 24.85 12.55 24.8 12.65 24.35"/>
    <path stroke="none" fill="#fac49d" d="M12.7 28.85 Q13.2 28.85 13.3 29.35 13.5 30.8 14.3 31.7 14.65 32.1 14.3 32.5 L13.9 32.65 13.5 32.45 Q12.4 31.3 12.2 29.5 12.2 28.95 12.7 28.85 M19.8 33.9 Q19.8 34.45 19.3 34.55 L19.2 34.55 18.5 34.6 16.15 34.15 Q15.7 33.95 15.85 33.45 16.05 32.95 16.55 33.1 L19.1 33.45 19.2 33.4 Q19.7 33.4 19.8 33.9"/>
    <path stroke="none" fill="#fac49d" d="M22.85 30.8 L23.45 31.35 Q23.85 31.65 23.8 32.1 L23.6 32.5 23.55 32.65 22.35 33.7 22.05 33.75 Q21.75 33.75 21.6 33.5 21.35 33 21.8 32.7 L22.55 32.1 21.95 31.45 Q21.65 31 22.05 30.65 22.5 30.4 22.85 30.8"/>
    <path stroke="none" fill="#fac49d" d="M25.8 27.45 Q25.7 27.95 25.2 28 L23.6 28.25 Q23.15 28.45 22.85 28.75 L22.45 28.9 22.05 28.75 Q21.75 28.35 22.05 27.95 22.5 27.5 23.2 27.25 24.15 26.8 25.25 26.85 25.75 26.9 25.8 27.45 M29.1 29.55 L27.8 28.75 Q27.4 28.45 27.6 27.95 27.85 27.55 28.35 27.75 29.1 28.15 29.8 28.7 L30.85 29.75 Q31.1 30.2 30.7 30.55 L30.4 30.65 29.95 30.4 29.1 29.55 M30.7 32.9 Q30.75 32.35 31.25 32.35 31.8 32.4 31.8 32.95 L31.55 34.25 30.6 36 30.2 36.2 29.8 36.05 Q29.45 35.7 29.75 35.3 L30.5 33.95 30.7 32.9"/>
    <path stroke="none" fill="#fac49d" d="M16.05 8.6 L16.85 8.65 Q17.35 8.7 17.35 9.25 17.3 9.7 16.8 9.75 L16.75 9.75 16.05 9.75 15.95 9.75 13.9 9.75 Q13.4 9.7 13.35 9.2 13.35 8.7 13.85 8.6 L15.95 8.6 16.05 8.6 M16.8 11.95 L17.9 10.7 Q18.15 10.25 18.6 10.4 19.05 10.65 18.9 11.15 L17.55 12.75 17.5 12.8 16.8 13.45 16.4 13.6 16 13.45 Q15.7 13 16 12.65 L16.75 12 16.8 11.95 M12.95 17.75 Q12.75 17.95 12.5 17.95 L12.15 17.8 Q11.8 17.45 12.1 17 L14 14.8 14.75 14.75 Q15.15 15.1 14.85 15.55 L12.95 17.75 M10.95 19.15 Q11.3 19.55 11 19.95 L9.35 21.8 9.1 22.15 8.65 22.35 8.3 22.2 Q7.9 21.8 8.25 21.4 L8.5 21.05 10.15 19.2 10.95 19.15 M22.6 38.65 Q22.6 39.15 22.1 39.25 L19.15 39.45 19.1 39.45 Q18.6 39.4 18.55 38.9 18.6 38.35 19.1 38.3 L21.95 38.1 Q22.5 38.15 22.6 38.65 M7.15 23.6 Q7.55 23.9 7.25 24.35 L5.65 26.75 5.15 27 4.9 26.9 Q4.45 26.6 4.7 26.15 L6.35 23.7 Q6.7 23.3 7.15 23.6 M4.35 29.25 Q3.75 30.75 3.5 31.9 L2.95 32.4 2.85 32.35 Q2.35 32.25 2.4 31.7 2.65 30.45 3.35 28.8 3.6 28.4 4.05 28.55 4.55 28.75 4.35 29.25 M8.4 37.5 L10.45 37.85 Q10.95 37.95 10.95 38.45 10.85 38.95 10.4 38.95 L10.3 38.95 8.2 38.6 7.4 38.45 Q6.9 38.25 6.95 37.75 7.1 37.3 7.65 37.35 L8.4 37.5 M2.85 34.15 Q3.35 34.1 3.55 34.55 3.85 35.75 5.05 36.45 5.45 36.75 5.25 37.2 L4.75 37.5 4.5 37.4 Q2.9 36.5 2.45 34.85 2.35 34.35 2.85 34.15 M12.7 38.65 Q12.8 38.15 13.35 38.15 L16.2 38.3 Q16.75 38.4 16.75 38.9 L16.2 39.45 13.25 39.25 Q12.75 39.2 12.7 38.65"/>
    <path stroke="none" fill="#fac49d" d="M9.2 9.5 Q9.3 9.2 9.65 9.1 L10.85 8.85 Q11.4 8.8 11.5 9.3 11.55 9.85 11.05 9.95 L10.25 10.1 10.3 10.3 10.55 11.25 Q10.55 11.8 10.05 11.9 L9.95 11.9 Q9.55 11.9 9.4 11.45 L9.25 10.6 9.1 10.15 9.1 9.9 9.2 9.5"/>
    <path stroke="none" fill="#fac49d" d="M12.95 1.8 L15.8 1.65 16 1.65 Q16.5 1.7 16.55 2.2 16.5 2.75 16 2.75 L15.8 2.75 13.05 2.9 13 2.9 Q12.5 2.85 12.45 2.4 12.45 1.85 12.95 1.8 M19.55 1.85 L22.05 2.05 Q22.55 2.15 22.55 2.7 22.45 3.15 22 3.2 L21.9 3.15 19.45 3 18.95 2.95 Q18.45 2.85 18.45 2.35 18.5 1.85 19.05 1.8 L19.55 1.85 M4 3.85 Q4.45 3.6 4.75 4.05 5 4.5 4.6 4.8 3.35 5.6 3 6.8 L2.45 7.15 2.25 7.15 Q1.8 6.95 1.9 6.45 2.4 4.85 4 3.85 M7.2 3.75 L7.05 3.75 Q6.65 3.75 6.5 3.35 6.45 2.85 6.9 2.65 L9.95 2.1 Q10.45 2.1 10.55 2.6 10.6 3.1 10.1 3.25 L7.2 3.75 M3.5 12.9 L3.05 12.65 Q2.05 11 1.85 9.7 1.8 9.15 2.3 9 2.8 8.95 2.95 9.45 3.15 10.6 4 12 4.25 12.5 3.85 12.8 L3.5 12.9 M9.35 13.65 Q9.55 14.1 9.1 14.4 L7.35 14.75 5.8 14.55 Q5.3 14.4 5.4 13.85 5.55 13.4 6.05 13.45 L7.35 13.65 8.6 13.4 Q9.1 13.2 9.35 13.65 M17.2 17.8 L18 17.85 Q18.3 18.3 17.95 18.65 L17.25 19.3 15.9 20.75 15.5 20.95 15.15 20.85 Q14.75 20.45 15.05 20.05 L16.5 18.45 17.2 17.8 M19.95 17 Q19.65 17 19.5 16.75 19.25 16.3 19.65 15.95 L22.25 14.35 Q22.7 14.15 23 14.6 23.2 15.05 22.8 15.35 L20.25 16.9 19.95 17 M25.1 2.6 L26.6 3.15 27.95 3.95 Q28.35 4.3 28.1 4.75 L27.65 4.95 27.3 4.85 26.15 4.2 24.75 3.7 Q24.3 3.5 24.4 3 24.55 2.5 25.1 2.6 M30 6.55 L30.3 8.3 30.1 9.85 29.55 10.25 29.4 10.2 Q28.9 10.05 29 9.5 L29.2 8.3 28.95 6.95 Q28.8 6.4 29.25 6.2 29.75 6.05 30 6.55 M28.15 12.5 L25.45 14.05 25.2 14.1 Q24.85 14.1 24.7 13.75 24.55 13.3 24.95 13 26.3 12.45 27.5 11.6 L28.25 11.7 Q28.55 12.15 28.15 12.5"/>
  </g>
</svg>