<?xml version="1.0" encoding="utf-8"?>
<!-- Generator: Adobe Illustrator 16.0.0, SVG Export Plug-In . SVG Version: 6.00 Build 0)  -->
<!DOCTYPE svg PUBLIC "-//W3C//DTD SVG 1.1//EN" "http://www.w3.org/Graphics/SVG/1.1/DTD/svg11.dtd">
<svg version="1.1" id="Layer_1" xmlns="http://www.w3.org/2000/svg" xmlns:xlink="http://www.w3.org/1999/xlink" x="0px" y="0px"
	 width="400px" height="400px" viewBox="0 0 400 400" enable-background="new 0 0 400 400" xml:space="preserve">
<g>
	<g>
		<path fill-rule="evenodd" clip-rule="evenodd" fill="#010101" d="M227.508,55.476h-40.625l-8.392,21.576h57.792l5.651,14.127
			h-68.922l-8.648,22.261h86.474l5.693,14.212h-38.057l8.477,23.032h38.785l5.693,14.212h-39.17l8.305,22.26h39.77l5.65,14.127
			h-40.197l8.391,22.688h-75.771l1.755-4.794h32.577l-16.524-44.437l3.597-9.846h-7.277l-3.853-10.359l-3.767,10.359h-40.668
			l-8.647,22.26h41.268l-5.094,14.127h-41.739l-8.905,23.116h174.104l5.65,14.127H115.563l-8.647,22.261h202.829L315.438,275H273.87
			l8.904,23.116h41.909l5.651,14.127H288.34l8.391,21.833h42.338l0.555,1.369c0.801,2.112,0.943,4.254,0.43,6.422
			c-0.686,2.055-1.885,3.796-3.597,5.223c-1.77,1.313-3.796,1.969-6.079,1.969h-60.959c-2.055,0-3.881-0.542-5.479-1.626
			c-1.827-1.257-3.054-2.825-3.683-4.71l-22.002-56.85H155.46L159.399,275h-57.964l-9.075,23.116h43.708l-5.095,14.127H86.795
			l-8.476,21.833h44.821l-3.04,8.477c-0.742,1.883-1.97,3.453-3.682,4.708c-1.712,1.199-3.595,1.798-5.65,1.798H51.093
			c-2.169,0-4.167-0.656-5.994-1.969c-1.77-1.313-2.939-3.054-3.51-5.223c-0.685-2.055-0.6-4.139,0.257-6.25l108.563-278.6
			c0.742-1.884,1.969-3.396,3.681-4.538c1.599-1.199,3.454-1.799,5.565-1.799h59.334c1.997,0,3.853,0.571,5.565,1.712
			C225.77,53.19,226.754,54.218,227.508,55.476z M204.862,150.684l8.39-23.032h-54.453l-9.075,23.032H204.862z"/>
		<path fill-rule="evenodd" clip-rule="evenodd" fill="#676767" d="M123.14,334.076H78.319l8.476-21.833h44.178h14.983
			l-7.962,21.833H123.14z M136.068,298.116H92.36L101.435,275h57.964l-3.938,10.873l-4.452,12.243H136.068z M339.068,334.076H296.73
			l-8.391-21.833h41.995h18.622l8.646,21.833H339.068z M236.283,77.052h-57.792l8.392-21.576h40.625h18.708l8.646,21.576H236.283z
			 M256.531,127.652h18.623l9.246,23.032h-18.664h-38.785l-8.477-23.032H256.531z M241.935,91.179h18.664l8.905,22.261h-18.666
			h-86.474l8.648-22.261H241.935z M271.43,164.896h18.622l8.903,22.26h-18.621h-39.77l-8.305-22.26H271.43z M300.882,238.526h18.622
			l8.904,22.261h-18.664H106.916l8.647-22.261H300.882z M285.984,201.283h18.623l9.246,23.116h-18.622H121.127l8.905-23.116h41.739
			h14.854l-6.464,17.895l-1.755,4.794h75.771l-8.391-22.688H285.984z M196.214,174.741l-4.538,12.415h-14.812h-41.268l8.647-22.26
			h40.668h7.62h7.277L196.214,174.741z M315.438,275h18.707l9.16,23.116h-18.621h-41.909L273.87,275H315.438z M204.862,150.684
			h-55.138l9.075-23.032h54.453L204.862,150.684z"/>
	</g>
</g>
</svg>
