<?xml version="1.0" encoding="utf-8"?>
<!-- Generator: Adobe Illustrator 16.0.0, SVG Export Plug-In . SVG Version: 6.00 Build 0)  -->
<!DOCTYPE svg PUBLIC "-//W3C//DTD SVG 1.1//EN" "http://www.w3.org/Graphics/SVG/1.1/DTD/svg11.dtd">
<svg version="1.1" id="Layer_1" xmlns="http://www.w3.org/2000/svg" xmlns:xlink="http://www.w3.org/1999/xlink" x="0px" y="0px"
	 width="400px" height="400px" viewBox="0 0 400 400" enable-background="new 0 0 400 400" xml:space="preserve">
<g>
	<g>
		<path fill-rule="evenodd" clip-rule="evenodd" fill="#010101" d="M281.881,77.052c3.986,4.184,7.61,8.893,10.873,14.127H101.398
			v22.261h56.251v-11.474h32.449c26.542,0,42.553,0.343,48.031,1.027c9.36,1.084,16.411,4.367,21.147,9.847
			c0.172,0.228,0.344,0.428,0.514,0.6h42.124c1.03,4.571,1.644,9.308,1.841,14.212h-37.714c0.285,1.883,0.429,3.91,0.429,6.078
			c0,6.508-1.457,12.158-4.367,16.954h39.17c-1.293,4.868-3.076,9.605-5.352,14.212h-57.364c-1.027,0.171-2.054,0.313-3.081,0.428
			c-5.309,0.742-18.979,1.113-41.011,1.113h-36.816v-1.541h-56.251v22.26h177.656c-0.785,0.702-1.584,1.386-2.396,2.055
			c6.356,3.39,12.008,7.414,16.951,12.072H101.398v23.116h56.251V212.67h45.378c25.685,0,42.38,1.37,50.086,4.109
			c5.252,1.884,9.646,4.424,13.186,7.62h44.007c2.092,4.492,3.732,9.2,4.923,14.127h-40.111c1.141,3.71,1.713,7.792,1.713,12.243
			c0,3.596-0.344,6.936-1.029,10.018h41.74c-0.105,4.774-0.592,9.512-1.457,14.213h-47.645c-5.252,5.536-11.901,9.019-19.949,10.445
			c-5.48,1.143-18.322,1.712-38.527,1.712h-52.313v-4.794h25.001c19.178,0,31.363-0.485,36.559-1.456
			c0.113-0.057,0.229-0.085,0.342-0.085c5.937-1.143,10.846-3.796,14.727-7.964c3.596-4.28,5.395-9.959,5.395-17.037
			c0-6.108-1.428-11.244-4.281-15.411c-3.025-4.167-7.278-7.248-12.758-9.246c-7.248-2.341-22.888-3.512-46.917-3.512H140.27v10.874
			h-38.871v22.261h38.871V275h-38.871v23.116h207.194c-0.251,0.544-0.507,1.085-0.77,1.628v0.17c-2.26,4.389-4.758,8.5-7.491,12.329
			H101.398v21.833h95.035c35.731-0.171,58.278-0.799,67.639-1.883c8.57-0.914,16.36-2.726,23.375-5.438
			c-2.18,1.993-4.463,3.862-6.85,5.607c-0.115,0-0.172,0.057-0.172,0.172c-11.529,7.934-25.686,12.842-42.467,14.726
			c-9.532,1.028-32.393,1.628-68.58,1.798H74.172c-2.74,0-5.081-0.941-7.021-2.825c-1.94-1.94-2.91-4.28-2.91-7.021v-278.6
			c0-2.74,0.97-5.052,2.91-6.936c1.941-1.998,4.281-2.997,7.021-2.997h111.474c22.889,0,39.955,1.028,51.199,3.083h-0.342
			c4.484,0.688,8.808,1.702,12.971,3.039c-9.677-0.884-21.877-1.327-36.602-1.327H101.398v21.576H281.881z M140.27,150.684v10.958
			h26.969c21.233,0,34.418-0.343,39.556-1.028c0.057-0.114,0.199-0.114,0.428,0c6.963-0.856,12.527-3.111,16.695-6.764
			c0-0.114,0.057-0.17,0.172-0.17c3.48-3.996,5.222-8.961,5.222-14.897c0-5.822-1.569-10.531-4.709-14.127
			c0-0.115-0.028-0.172-0.085-0.172c-3.425-3.596-8.363-5.765-14.813-6.506c-5.365-0.685-20.977-1.028-46.833-1.028H140.27v10.702
			h-38.871v23.032H140.27z"/>
		<path fill-rule="evenodd" clip-rule="evenodd" fill="#676767" d="M249.475,56.803c4.88,0.443,9.117,1,12.715,1.67
			c10.787,1.712,20.52,5.479,29.195,11.302c3.139,2.169,6.078,4.594,8.818,7.277h-18.322H101.398V55.476h111.475
			C227.598,55.476,239.798,55.918,249.475,56.803z M301.915,113.44h-42.124c-0.17-0.172-0.342-0.372-0.514-0.6
			c-4.736-5.48-11.787-8.762-21.147-9.847c-5.479-0.685-21.489-1.027-48.031-1.027h-32.449v11.474h-56.251V91.179h191.355h18.75
			c0.4,0.685,0.801,1.341,1.199,1.969c3.653,6.335,6.136,13.099,7.448,20.292H301.915z M303.756,127.652h17.424
			c-0.172,8.105-1.741,15.782-4.71,23.032h-15.196h-39.17c2.91-4.796,4.367-10.446,4.367-16.954c0-2.168-0.144-4.195-0.429-6.078
			H303.756z M293.609,201.283h18.066c3.596,3.025,6.82,6.422,9.675,10.188c3.081,4.053,5.679,8.362,7.791,12.928h-18.836h-44.007
			c-3.539-3.196-7.934-5.736-13.186-7.62c-7.706-2.739-24.401-4.109-50.086-4.109h-45.378v11.729h-56.251v-23.116H293.609z
			 M295.922,164.896h12.671c-6.849,9.133-15.696,16.152-26.541,21.062c1.256,0.399,2.483,0.799,3.682,1.198h-6.679H101.398v-22.26
			h56.251v1.541h36.816c22.033,0,35.703-0.371,41.011-1.113c1.027-0.115,2.054-0.257,3.081-0.428H295.922z M315.229,238.526h18.279
			c0.913,4.737,1.37,9.703,1.37,14.897c0,2.454-0.085,4.91-0.257,7.363h-17.08h-41.74c0.686-3.082,1.029-6.422,1.029-10.018
			c0-4.451-0.572-8.533-1.713-12.243H315.229z M140.27,127.652h17.38v23.032h-17.38h-38.871v-23.032H140.27z M140.27,238.526h17.38
			v22.261h-17.38h-38.871v-22.261H140.27z M140.27,275h17.38v7.363v4.794h52.313c20.205,0,33.047-0.569,38.527-1.712
			c8.048-1.427,14.697-4.909,19.949-10.445h47.645h15.884c-1.428,5.194-3.368,10.303-5.823,15.325
			c-1.426,2.739-2.882,5.337-4.365,7.791h-13.187H101.398V275H140.27z M300.332,312.243h9.889c-2.512,2.568-5.252,4.88-8.219,6.936
			c-4.41,3.036-9.262,5.563-14.555,7.577c-7.015,2.712-14.805,4.523-23.375,5.438c-9.36,1.084-31.907,1.712-67.639,1.883h-95.035
			v-21.833H300.332z"/>
	</g>
</g>
</svg>
