<?xml version="1.0" encoding="utf-8"?>
<!-- Generator: Adobe Illustrator 16.0.0, SVG Export Plug-In . SVG Version: 6.00 Build 0)  -->
<!DOCTYPE svg PUBLIC "-//W3C//DTD SVG 1.1//EN" "http://www.w3.org/Graphics/SVG/1.1/DTD/svg11.dtd">
<svg version="1.1" id="Layer_1" xmlns="http://www.w3.org/2000/svg" xmlns:xlink="http://www.w3.org/1999/xlink" x="0px" y="0px"
	 width="400px" height="400px" viewBox="0 0 400 400" enable-background="new 0 0 400 400" xml:space="preserve">
<g>
	<g>
		<path fill-rule="evenodd" clip-rule="evenodd" fill="#010101" d="M288.178,77.052c0.65,0.59,1.292,1.19,1.927,1.798l0.172,0.171
			c3.819,3.613,7.387,7.666,10.701,12.158H131.369c-6.05,6.735-11.302,14.156-15.754,22.261h66.867
			c11.416-9.646,25.486-14.47,42.21-14.47c14.84,0,27.568,4.166,38.187,12.5c0.797,0.627,1.598,1.284,2.396,1.97h48.416
			c1.979,4.472,3.807,9.21,5.479,14.212h-42.423c2.91,5.365,5.137,11.387,6.679,18.065l38.313-9.118
			c0.102,1.136,0.004,2.292-0.301,3.467c-0.455,1.712-1.341,3.225-2.654,4.538c-1.311,1.312-2.824,2.169-4.537,2.568l-55.736,13.271
			c-1.771,0.514-3.511,0.485-5.224-0.086c-1.712-0.57-3.168-1.484-4.367-2.74c-1.255-1.313-2.054-2.854-2.397-4.624
			c-2.738-12.1-8.418-21.661-17.037-28.682c-8.904-6.85-19.578-10.274-32.021-10.274c-14.97-0.097-27.498,4.44-37.587,13.614
			h-50.943c-2.91,7.249-5.278,14.926-7.105,23.032h42.937c-1.615,4.326-2.957,9.063-4.023,14.212H99.349
			c-1.085,7.078-1.77,14.498-2.055,22.26h40.753c-0.17,3.574-0.257,7.285-0.257,11.13c0,1.008,0,2.007,0,2.997H97.208
			c0.057,8.049,0.569,15.754,1.541,23.116h40.498c0.629,5.034,1.458,9.743,2.482,14.127h-40.583
			c1.713,7.878,3.938,15.297,6.678,22.261h42.338c1.391,2.355,2.889,4.525,4.496,6.506c2.446,2.908,5.071,5.477,7.877,7.707h-48.204
			c4.453,8.391,9.789,16.096,16.011,23.116h174.66c-3.032,5.064-6.314,9.772-9.848,14.127H145.067
			c21.861,17.751,48.232,26.628,79.111,26.628c20.922,0,39.287-3.61,55.096-10.831c-0.744,0.59-1.5,1.175-2.27,1.755
			c-21.119,16.097-47.831,24.145-80.138,24.145c-39.84-0.113-72.66-13.813-98.459-41.097
			c-25.685-26.941-38.528-63.785-38.528-110.532c0-49.316,12.929-87.53,38.785-114.642v-0.172
			c25.743-27.796,59.619-41.695,101.628-41.695c15.079,0,28.992,1.841,41.738,5.522c-4.693-0.428-9.531-0.643-14.513-0.643
			c-32.305,0-59.36,8.791-81.165,26.371H288.178z M316.175,275h-52.355c-0.571,0.57-1.142,1.084-1.712,1.541
			c-10.73,9.531-23.574,14.298-38.527,14.298c-9.47,0-18.074-1.599-25.815-4.794c11.782-0.297,21.986-4.236,30.609-11.815
			c9.132-8.448,15.782-21.661,19.949-39.642c0.399-1.883,1.256-3.482,2.567-4.795c1.313-1.313,2.883-2.226,4.709-2.739
			c1.771-0.457,3.539-0.343,5.309,0.343l35.146,11.13h-12.543c-2.34,8.505-5.309,15.925-8.904,22.261h46.361
			C319.511,265.725,317.912,270.463,316.175,275z"/>
		<path fill-rule="evenodd" clip-rule="evenodd" fill="#676767" d="M288.178,77.052H146.352
			c21.805-17.581,48.86-26.371,81.165-26.371c4.981,0,9.819,0.214,14.513,0.643c25.354,2.326,46.745,10.902,64.172,25.729H288.178z
			 M144.768,150.684h-42.937c1.827-8.105,4.195-15.783,7.105-23.032h50.943h9.847c-4.167,6.393-7.42,14.07-9.76,23.032H144.768z
			 M140.745,164.896h16.396c-1.029,6.792-1.656,14.212-1.885,22.26h-17.209H97.293c0.285-7.762,0.97-15.183,2.055-22.26H140.745z
			 M141.729,238.526h18.237c2.168,8.618,5.138,16.04,8.903,22.261h-18.707h-42.338c-2.739-6.964-4.965-14.383-6.678-22.261H141.729z
			 M137.79,201.283h17.466c0.229,8.333,0.914,16.039,2.055,23.116h-18.065H98.749c-0.971-7.362-1.483-15.067-1.541-23.116H137.79z
			 M162.534,275h17.979c5.175,4.738,10.925,8.42,17.251,11.045c7.741,3.195,16.346,4.794,25.815,4.794
			c14.953,0,27.797-4.767,38.527-14.298c0.57-0.457,1.141-0.971,1.712-1.541h52.355h14.255c-3.938,8.562-8.533,16.267-13.784,23.116
			h-11.644h-174.66c-6.222-7.021-11.559-14.726-16.011-23.116H162.534z M295.154,312.243h8.478c-1.77,1.599-3.597,3.111-5.479,4.538
			c-5.823,4.405-12.116,8.158-18.879,11.259c-15.809,7.221-34.174,10.831-55.096,10.831c-30.879,0-57.25-8.877-79.111-26.628
			H295.154z M321.74,136.599l-38.313,9.118c-1.542-6.678-3.769-12.7-6.679-18.065h42.423h18.452
			c0.512,1.598,0.998,3.196,1.454,4.794L321.74,136.599z M300.978,91.179h18.665c4.852,6.45,9.104,13.87,12.756,22.261h-18.707
			h-48.416c-0.799-0.686-1.6-1.343-2.396-1.97c-10.618-8.334-23.347-12.5-38.187-12.5c-16.724,0-30.794,4.824-42.21,14.47h-66.867
			c4.452-8.105,9.704-15.526,15.754-22.261H300.978z M296.055,238.526h11.174l32.534,10.36c-1.142,4.166-2.368,8.133-3.682,11.9
			h-15.112h-46.361c3.596-6.336,6.564-13.756,8.904-22.261H296.055z"/>
	</g>
</g>
</svg>
