<?xml version="1.0" encoding="utf-8"?>
<!-- Generator: Adobe Illustrator 16.0.0, SVG Export Plug-In . SVG Version: 6.00 Build 0)  -->
<!DOCTYPE svg PUBLIC "-//W3C//DTD SVG 1.1//EN" "http://www.w3.org/Graphics/SVG/1.1/DTD/svg11.dtd">
<svg version="1.1" id="Layer_1" xmlns="http://www.w3.org/2000/svg" xmlns:xlink="http://www.w3.org/1999/xlink" x="0px" y="0px"
	 width="400px" height="400px" viewBox="0 0 400 400" enable-background="new 0 0 400 400" xml:space="preserve">
<g>
	<g>
		<path fill-rule="evenodd" clip-rule="evenodd" fill="#010101" d="M270.803,77.052c2.91,2.501,5.706,5.183,8.391,8.048
			c1.89,1.958,3.717,3.984,5.48,6.079H101.538v22.261h56.25v-10.789h25.258c23.06,0,38.441,0.913,46.148,2.74
			c7.477,1.598,14.041,4.281,19.691,8.049h50.6c2.353,4.519,4.492,9.256,6.422,14.212h-42.979
			c3.424,4.965,6.251,10.902,8.477,17.808c0.57,1.599,1.111,3.339,1.626,5.224h39.813c0.979,4.538,1.806,9.274,2.481,14.212h-39.897
			c0.743,6.621,1.256,14.041,1.542,22.26h40.411c0.211,4.571,0.324,9.28,0.343,14.127h-40.754
			c-0.171,8.39-0.657,16.096-1.456,23.116h41.31c-0.405,4.87-0.961,9.579-1.668,14.127h-41.695c-0.686,2.74-1.371,5.31-2.055,7.706
			c-1.656,5.537-3.568,10.389-5.738,14.555h44.565c-0.449,1.507-0.921,2.99-1.413,4.453h-0.171c-1.176,3.35-2.432,6.604-3.768,9.76
			h-50.685c-5.594,4.338-12.415,7.505-20.464,9.503c-6.906,1.771-18.236,2.654-33.99,2.654h-41.953v-4.794h14.728
			c14.612,0,25.144-0.771,31.593-2.313v-0.085c7.477-1.884,13.67-4.966,18.578-9.247h0.086c4.737-4.737,8.705-12.187,11.9-22.346
			v0.256c3.426-11.93,5.138-28.082,5.138-48.459c0-20.206-1.655-35.703-4.966-46.49v0.17c-3.311-9.817-7.764-17.437-13.357-22.859
			h-0.085c-5.707-5.365-12.842-8.961-21.404-10.788l-0.342-0.085c-7.363-1.599-22.004-2.397-43.922-2.397h-15.24v9.932h-38.956
			v23.032h38.956v14.212h-38.956v22.26h38.956v14.127h-38.956v23.116h38.956v14.127h-38.956v22.261h38.956V275h-38.956v23.116
			h191.226c-3.291,5.071-6.857,9.78-10.702,14.127H101.538v21.833H207.36c20.834,0,37.415-1.941,49.743-5.822
			c5.009-1.58,9.704-3.35,14.086-5.309c-10.028,8.322-22.801,14.971-38.314,19.949c-13.129,4.109-30.709,6.164-52.74,6.164H74.312
			c-2.741,0-5.053-0.941-6.936-2.825c-1.997-1.94-2.997-4.28-2.997-7.021v-278.6c0-2.74,1-5.052,2.997-6.936
			c1.883-1.998,4.195-2.997,6.936-2.997h102.74c24.372,0,42.98,1.941,55.823,5.823c0.206,0.061,0.406,0.118,0.599,0.171
			c-8.498-0.798-18.231-1.198-29.196-1.198h-102.74v21.576H270.803z"/>
		<path fill-rule="evenodd" clip-rule="evenodd" fill="#676767" d="M270.803,77.052H101.538V55.476h102.74
			c10.965,0,20.698,0.4,29.196,1.198c9.446,0.907,17.381,2.305,23.802,4.196c11.644,3.481,22.089,8.875,31.337,16.182H270.803z
			 M305.906,127.652H324.4c0.569,1.369,1.112,2.769,1.626,4.195c1.941,5.879,3.597,12.157,4.966,18.836h-18.15h-39.813
			c-0.515-1.884-1.056-3.625-1.626-5.224c-2.226-6.906-5.053-12.843-8.477-17.808H305.906z M284.674,91.179h18.493
			c5.764,6.621,10.787,14.041,15.068,22.261h-18.751h-50.6c-5.65-3.768-12.215-6.451-19.691-8.049
			c-7.707-1.827-23.089-2.74-46.148-2.74h-25.258v10.789h-56.25V91.179H284.674z M315.323,164.896h17.895
			c0.857,6.964,1.429,14.383,1.713,22.26h-17.552h-40.411c-0.286-8.219-0.799-15.639-1.542-22.26H315.323z M317.722,201.283h17.381
			c-0.115,8.105-0.601,15.811-1.456,23.116h-16.825h-41.31c0.799-7.021,1.285-14.727,1.456-23.116H317.722z M315.153,238.526h16.268
			c-1.256,6.45-2.884,12.558-4.88,18.322c-0.457,1.313-0.915,2.626-1.371,3.938H310.23h-44.565c2.17-4.166,4.082-9.018,5.738-14.555
			c0.684-2.396,1.369-4.966,2.055-7.706H315.153z M140.493,127.652h17.294v23.032h-17.294h-38.956v-23.032H140.493z
			 M140.493,164.896h17.294v22.26h-17.294h-38.956v-22.26H140.493z M140.493,201.283h17.294v23.116h-17.294h-38.956v-23.116H140.493
			z M140.493,238.526h17.294v22.261h-17.294h-38.956v-22.261H140.493z M140.493,275h17.294v7.363v4.794h41.953
			c15.754,0,27.084-0.884,33.99-2.654c8.049-1.998,14.87-5.165,20.464-9.503h50.685h14.042c-4.337,8.562-9.305,16.267-14.898,23.116
			h-11.259H101.538V275H140.493z M282.062,312.243h7.406c-5.328,4.039-11.422,7.606-18.278,10.702
			c-4.382,1.959-9.077,3.729-14.086,5.309c-12.328,3.881-28.909,5.822-49.743,5.822H101.538v-21.833H282.062z"/>
	</g>
</g>
</svg>
