<?xml version="1.0" encoding="utf-8"?>
<!-- Generator: Adobe Illustrator 16.0.0, SVG Export Plug-In . SVG Version: 6.00 Build 0)  -->
<!DOCTYPE svg PUBLIC "-//W3C//DTD SVG 1.1//EN" "http://www.w3.org/Graphics/SVG/1.1/DTD/svg11.dtd">
<svg version="1.1" id="Layer_1" xmlns="http://www.w3.org/2000/svg" xmlns:xlink="http://www.w3.org/1999/xlink" x="0px" y="0px"
	 width="400px" height="400px" viewBox="0 0 400 400" enable-background="new 0 0 400 400" xml:space="preserve">
<g>
	<g>
		<path fill-rule="evenodd" clip-rule="evenodd" fill="#010101" d="M306.885,298.116v14.127H112.534v21.833h194.351v5.137
			c0,2.74-0.94,5.08-2.823,7.021c-1.998,1.884-4.367,2.825-7.107,2.825H85.308c-2.74,0-5.052-0.941-6.934-2.825
			c-1.998-1.94-2.997-4.28-2.997-7.021v-278.6c0-2.74,0.999-5.052,2.997-6.936c1.882-1.998,4.193-2.997,6.934-2.997h206.425
			c2.738,0,5.108,1,7.106,2.997c0.561,0.562,1.032,1.162,1.411,1.798H112.534v21.576h189.129v14.127H112.534v22.261h56.252v-10.789
			h132.877v5.137c0,2.74-0.94,5.109-2.824,7.106c-1.998,1.884-4.368,2.826-7.106,2.826H151.489v9.932h-38.955v23.032h38.955v9.075
			h129.884c2.739,0,5.108,1,7.105,2.997c0.662,0.661,1.204,1.375,1.626,2.141h-177.57v22.26h178.77v14.127h-178.77v23.116h56.252
			v-13.185h122.518v5.137c0,2.74-0.94,5.08-2.825,7.021c-1.997,1.884-4.366,2.825-7.105,2.825H151.489v12.329h-38.955v22.261h38.955
			V275h-38.955v23.116H306.885z M305.475,287.157H168.786v-4.794h128.168c2.74,0,5.109,0.998,7.107,2.996
			C304.621,285.92,305.093,286.52,305.475,287.157z"/>
		<path fill-rule="evenodd" clip-rule="evenodd" fill="#676767" d="M300.25,55.476h18.794v21.576h-17.381H112.534V55.476H300.25z
			 M301.663,102.651H168.786v10.789h-56.252V91.179h189.129h17.381v11.473H301.663z M151.489,150.684h-38.955v-23.032h38.955h17.297
			v23.032H151.489z M151.489,260.787h-38.955v-22.261h38.955h17.297v22.261H151.489z M291.304,187.156h-178.77v-22.26h177.57h18.581
			v22.26H291.304z M291.304,211.215H168.786v13.185h-56.252v-23.116h178.77h17.382v9.932H291.304z M168.786,282.363v4.794h136.688
			h18.792v10.959h-17.382H112.534V275h38.955h17.297V282.363z M306.885,334.076H112.534v-21.833h194.351h17.382v21.833H306.885z"/>
	</g>
</g>
</svg>
