<?xml version="1.0" encoding="utf-8"?>
<!-- Generator: Adobe Illustrator 16.0.0, SVG Export Plug-In . SVG Version: 6.00 Build 0)  -->
<!DOCTYPE svg PUBLIC "-//W3C//DTD SVG 1.1//EN" "http://www.w3.org/Graphics/SVG/1.1/DTD/svg11.dtd">
<svg version="1.1" id="Layer_1" xmlns="http://www.w3.org/2000/svg" xmlns:xlink="http://www.w3.org/1999/xlink" x="0px" y="0px"
	 width="400px" height="400px" viewBox="0 0 400 400" enable-background="new 0 0 400 400" xml:space="preserve">
<g>
	<g>
		<path fill-rule="evenodd" clip-rule="evenodd" fill="#010101" d="M295.959,77.052v14.127H122.24v22.261h56.337v-10.789h117.382
			v5.137c0,2.74-0.943,5.109-2.825,7.106c-1.998,1.884-4.368,2.826-7.107,2.826H161.195v9.932H122.24v23.032h38.955v13.099h106.254
			c2.738,0,5.106,0.97,7.104,2.911c0.587,0.586,1.085,1.214,1.498,1.883h-97.475v-3.681H122.24v22.26h155.14v14.127H122.24v23.116
			h56.337v-8.647h98.803v5.138c0,2.739-0.941,5.079-2.826,7.021c-1.998,1.883-4.366,2.826-7.104,2.826H161.195v7.79H122.24v22.261
			h38.955V275H122.24v23.116h38.955v14.127H122.24v21.833h38.955v5.137c0,2.74-0.941,5.08-2.824,7.021
			c-1.999,1.884-4.366,2.825-7.106,2.825H95.014c-2.741,0-5.052-0.941-6.934-2.825c-1.998-1.94-2.998-4.28-2.998-7.021v-278.6
			c0-2.74,1-5.052,2.998-6.936c1.882-1.998,4.192-2.997,6.934-2.997h191.013c2.739,0,5.109,1,7.107,2.997
			c0.56,0.562,1.031,1.162,1.412,1.798H122.24v21.576H295.959z"/>
		<path fill-rule="evenodd" clip-rule="evenodd" fill="#676767" d="M295.959,91.179h17.38v11.473h-17.38H178.577v10.789H122.24
			V91.179H295.959z M161.195,150.684H122.24v-23.032h38.955h17.382v23.032H161.195z M277.38,187.156H122.24v-22.26h56.337v3.681
			h97.475h18.708v18.579H277.38z M277.38,215.752h-98.803v8.647H122.24v-23.116h155.14h17.38v14.469H277.38z M161.195,298.116
			H122.24V275h38.955h17.382v23.116H161.195z M161.195,334.076H122.24v-21.833h38.955h17.382v21.833H161.195z M161.195,260.787
			H122.24v-22.261h38.955h17.382v22.261H161.195z M295.959,77.052H122.24V55.476h172.306h18.793v21.576H295.959z"/>
	</g>
</g>
</svg>
