<?xml version="1.0" encoding="utf-8"?>
<!-- Generator: Adobe Illustrator 16.0.0, SVG Export Plug-In . SVG Version: 6.00 Build 0)  -->
<!DOCTYPE svg PUBLIC "-//W3C//DTD SVG 1.1//EN" "http://www.w3.org/Graphics/SVG/1.1/DTD/svg11.dtd">
<svg version="1.1" id="Layer_1" xmlns="http://www.w3.org/2000/svg" xmlns:xlink="http://www.w3.org/1999/xlink" x="0px" y="0px"
	 width="400px" height="400px" viewBox="0 0 400 400" enable-background="new 0 0 400 400" xml:space="preserve">
<g>
	<g>
		<path fill-rule="evenodd" clip-rule="evenodd" fill="#010101" d="M294.836,77.052c4.7,4.338,8.94,9.047,12.715,14.127H124.457
			c-6.279,6.735-11.73,14.156-16.354,22.261h69.778c12.899-9.646,28.996-14.47,48.288-14.47c16.269,0,29.882,3.967,40.842,11.901
			c1.083,0.856,2.169,1.712,3.252,2.569h49.916c1.901,4.529,3.541,9.267,4.923,14.212h-42.68c2.739,4.624,4.907,9.761,6.507,15.411
			l38.229-7.105c0.351,1.655,0.25,3.311-0.302,4.965c-0.626,1.712-1.625,3.168-2.996,4.367c-1.313,1.142-2.854,1.912-4.623,2.311
			l-55.738,10.361c-2.511,0.457-4.85,0.028-7.02-1.285c-2.226-1.427-3.652-3.368-4.281-5.822
			c-3.311-11.359-9.417-20.291-18.321-26.798c-9.419-6.678-21.063-10.018-34.932-10.018c-17.569,0-32.182,4.538-43.838,13.614
			h-54.194c-3.197,7.363-5.852,15.04-7.964,23.032h44.137c-1.984,4.366-3.625,9.104-4.923,14.212H90.123
			c-1.141,7.192-1.855,14.612-2.141,22.26h40.926c-0.171,3.101-0.257,6.297-0.257,9.589c0,1.532,0.015,3.044,0.043,4.538H87.982
			c0.285,7.877,1.086,15.582,2.398,23.116h40.454c0.869,5,1.997,9.71,3.381,14.127H93.548c1.885,7.591,4.337,15.013,7.364,22.261
			h44.135c0.992,1.393,2.032,2.735,3.125,4.023h-0.17c3.552,3.947,7.404,7.343,11.559,10.189h-51.886
			c4.739,8.504,10.33,16.21,16.782,23.116h206.681v2.655c0,1.312-0.257,2.625-0.77,3.938c-0.516,1.256-1.256,2.34-2.229,3.253
			c-1.502,1.449-3.086,2.876-4.751,4.281H140.296c4.053,3.026,8.361,5.823,12.929,8.392c21.518,12.156,46.86,18.236,76.027,18.236
			c22.775,0,45.407-4.338,67.895-13.015c7.544-2.953,14.507-6.063,20.893-9.333c-11.646,8.736-26.457,16.613-44.438,23.632
			l-0.17,0.171c-23.631,9.076-47.433,13.613-71.404,13.613c-31.109,0-58.079-6.535-80.91-19.606
			c-23.744-13.3-41.41-32.192-52.998-56.679v0.171c-11.644-24.259-17.466-50.515-17.466-78.768c0-30.823,6.537-58.078,19.606-81.765
			c13.014-24.488,32.192-43.209,57.535-56.166c18.95-10.218,42.667-15.326,71.149-15.326c18.622,0,35.203,2.012,49.743,6.036
			c-7.111-0.771-14.617-1.157-22.519-1.157c-26.54,0-48.744,4.709-66.608,14.127c-6.965,3.597-13.443,7.678-19.436,12.244H294.836z
			 M331.138,238.526h-39.471v22.261h39.471V275h-51.372c-5.707,3.311-11.899,6.278-18.578,8.904
			c-11.93,4.623-23.802,6.935-35.616,6.935c-10.43,0-19.991-1.599-28.683-4.794c0.479,0.002,0.964,0.002,1.455,0
			c10.56,0,21.234-2.084,32.022-6.25h-0.172c9.189-3.711,17.266-7.963,24.229-12.758V246.66h-54.538
			c-2.74,0-5.051-0.941-6.935-2.824c-1.998-1.999-2.996-4.367-2.996-7.107V189.81c0-2.739,0.998-5.051,2.996-6.935
			c1.884-1.998,4.194-2.997,6.935-2.997h121.32c2.74,0,5.109,0.999,7.107,2.997c0.587,0.586,1.085,1.214,1.498,1.883H227.111v2.397
			h103.684c0.228,0.835,0.343,1.72,0.343,2.654v11.473H227.111v23.116h104.026V238.526z"/>
		<path fill-rule="evenodd" clip-rule="evenodd" fill="#676767" d="M294.836,77.052H140.125c5.992-4.566,12.471-8.647,19.436-12.244
			c17.864-9.417,40.068-14.127,66.608-14.127c7.901,0,15.407,0.386,22.519,1.157c24.022,2.554,43.544,9.446,58.563,20.676
			c1.94,1.427,3.823,2.939,5.65,4.538H294.836z M307.551,91.179h18.622c5.136,6.735,9.36,14.156,12.67,22.261h-18.664h-49.916
			c-1.083-0.856-2.169-1.712-3.252-2.569c-10.96-7.934-24.573-11.901-40.842-11.901c-19.292,0-35.389,4.824-48.288,14.47h-69.778
			c4.624-8.105,10.075-15.526,16.354-22.261H307.551z M325.102,127.652h18.364c0.399,1.655,0.8,3.339,1.199,5.051l-17.508,3.254
			l-38.229,7.105c-1.6-5.65-3.768-10.787-6.507-15.411H325.102z M331.138,201.283h17.295v23.116h-17.295H227.111v-23.116H331.138z
			 M196.889,286.045c8.691,3.195,18.253,4.794,28.683,4.794c11.814,0,23.687-2.312,35.616-6.935
			c6.679-2.626,12.871-5.594,18.578-8.904h51.372h17.295v20.634c-0.856,0.856-1.713,1.685-2.568,2.482h-14.727H124.457
			c-6.452-6.906-12.043-14.612-16.782-23.116h51.886h17.723C183.236,279.748,189.772,283.43,196.889,286.045z M323.389,312.243
			h2.525c-2.522,1.46-5.148,2.886-7.875,4.28c-6.386,3.27-13.349,6.38-20.893,9.333c-22.487,8.677-45.119,13.015-67.895,13.015
			c-29.167,0-54.51-6.08-76.027-18.236c-4.567-2.568-8.876-5.365-12.929-8.392H323.389z M130.835,224.399H90.381
			c-1.313-7.534-2.113-15.239-2.398-23.116h40.712h17.508c0.4,8.333,1.315,16.039,2.74,23.116H130.835z M132.162,164.896h16.095
			c-1.369,6.906-2.083,14.327-2.14,22.26h-17.209H87.982c0.285-7.648,1-15.068,2.141-22.26H132.162z M134.216,238.526h18.408
			c2.741,8.447,6.421,15.868,11.045,22.261h-18.622h-44.135c-3.027-7.248-5.479-14.67-7.364-22.261H134.216z M330.795,187.156
			H227.111v-2.397h102.699h18.622v2.397H330.795z M155.106,127.652h8.307c-5.023,6.564-8.961,14.241-11.816,23.032h-14.512H92.948
			c2.112-7.992,4.767-15.669,7.964-23.032H155.106z M331.138,260.787h-39.471v-22.261h39.471h17.295v22.261H331.138z"/>
	</g>
</g>
</svg>
