<?xml version="1.0" encoding="utf-8"?>
<!-- Generator: Adobe Illustrator 16.0.0, SVG Export Plug-In . SVG Version: 6.00 Build 0)  -->
<!DOCTYPE svg PUBLIC "-//W3C//DTD SVG 1.1//EN" "http://www.w3.org/Graphics/SVG/1.1/DTD/svg11.dtd">
<svg version="1.1" id="Layer_1" xmlns="http://www.w3.org/2000/svg" xmlns:xlink="http://www.w3.org/1999/xlink" x="0px" y="0px"
	 width="400px" height="400px" viewBox="0 0 400 400" enable-background="new 0 0 400 400" xml:space="preserve">
<g>
	<g>
		<path fill-rule="evenodd" clip-rule="evenodd" fill="#010101" d="M227.818,55.058h-37.543v21.576h38.957v14.127h-38.957v22.261
			h38.957v14.212h-38.957v23.031h38.957v14.212h-38.957v22.261h38.957v14.126h-38.957v23.118h38.957v14.126h-38.957v22.261h38.957
			v14.213h-38.957v23.117h38.957v14.127h-38.957v21.832h38.957v5.138c0,2.738-0.942,5.079-2.825,7.02
			c-1.998,1.884-4.367,2.826-7.106,2.826h-56.251c-2.74,0-5.052-0.942-6.935-2.826c-1.999-1.94-2.997-4.281-2.997-7.02V60.195
			c0-2.74,0.998-5.052,2.997-6.935c1.883-1.998,4.195-2.997,6.935-2.997H219.3c2.739,0,5.108,0.999,7.106,2.997
			C226.968,53.821,227.438,54.421,227.818,55.058z"/>
		<path fill-rule="evenodd" clip-rule="evenodd" fill="#676767" d="M229.231,76.634h-38.957V55.058h37.543h18.793v21.576H229.231z
			 M229.231,90.761h17.38v22.261h-17.38h-38.957V90.761H229.231z M229.231,127.234h17.38v23.031h-17.38h-38.957v-23.031H229.231z
			 M229.231,164.478h17.38v22.261h-17.38h-38.957v-22.261H229.231z M229.231,200.865h17.38v23.118h-17.38h-38.957v-23.118H229.231z
			 M229.231,238.108h17.38v22.261h-17.38h-38.957v-22.261H229.231z M229.231,274.582h17.38v23.117h-17.38h-38.957v-23.117H229.231z
			 M229.231,311.826h17.38v21.832h-17.38h-38.957v-21.832H229.231z"/>
	</g>
</g>
</svg>
