<?xml version="1.0" encoding="utf-8"?>
<!-- Generator: Adobe Illustrator 16.0.0, SVG Export Plug-In . SVG Version: 6.00 Build 0)  -->
<!DOCTYPE svg PUBLIC "-//W3C//DTD SVG 1.1//EN" "http://www.w3.org/Graphics/SVG/1.1/DTD/svg11.dtd">
<svg version="1.1" id="Layer_1" xmlns="http://www.w3.org/2000/svg" xmlns:xlink="http://www.w3.org/1999/xlink" x="0px" y="0px"
	 width="400px" height="400px" viewBox="0 0 400 400" enable-background="new 0 0 400 400" xml:space="preserve">
<g>
	<g>
		<path fill-rule="evenodd" clip-rule="evenodd" fill="#010101" d="M281.846,295.699c-2.033,4.989-4.458,9.697-7.277,14.127H148.582
			c0.971,1.256,1.998,2.426,3.083,3.51c8.961,9.418,20.32,15.953,34.076,19.606c8.79,2.34,18.55,3.51,29.282,3.51
			c16.431,0,30.615-2.382,42.551-7.147c-2.411,2.052-4.951,4.007-7.619,5.863c-15.639,10.902-36.359,16.354-62.159,16.354
			c-30.823,0-54.31-8.762-70.464-26.284v0.17c-16.723-16.894-25.17-41.723-25.342-74.487c0-2.568,0.857-4.793,2.569-6.678
			c1.598-1.998,3.681-3.082,6.25-3.253l52.997-6.079c1.884-0.285,3.682-0.028,5.394,0.77c1.656,0.801,3.025,1.998,4.11,3.598
			c0.442,0.719,0.785,1.488,1.027,2.311l-35.189,4.024c0,4.452,0.199,8.704,0.599,12.757h36.26
			c0.879,6.111,2.221,10.849,4.023,14.213h-38.313c1.712,8.504,4.252,16.21,7.62,23.117H281.846z M290.107,236.108H251.15
			c-0.057,8.62-0.513,16.039-1.368,22.261h39.513c-0.386,5.088-0.898,9.826-1.542,14.213h-41.396
			c-0.856,2.055-1.798,3.795-2.825,5.223c-5.194,7.078-14.042,10.617-26.542,10.617c-1.199,0-2.368-0.029-3.511-0.086
			c-6.03-0.517-11.253-2.343-15.667-5.479c4.553-0.983,8.064-2.896,10.53-5.736c3.768-6.508,5.652-19.493,5.652-38.956V58.195
			c0-2.74,0.998-5.052,2.996-6.935c1.884-1.998,4.195-2.997,6.935-2.997h56.251c2.74,0,5.109,0.999,7.106,2.997
			c0.562,0.561,1.032,1.16,1.413,1.797H251.15v21.576h38.957v14.127H251.15v22.261h38.957v14.212H251.15v23.031h38.957v14.212
			H251.15v22.261h38.957v14.126H251.15v23.118h38.957v12.585C290.107,235.084,290.107,235.598,290.107,236.108z"/>
		<path fill-rule="evenodd" clip-rule="evenodd" fill="#676767" d="M288.695,53.058h18.707v21.576h-17.295H251.15V53.058H288.695z
			 M290.107,111.021H251.15V88.761h38.957h17.295v22.261H290.107z M166.005,258.369h-36.26c-0.399-4.053-0.599-8.305-0.599-12.757
			l35.189-4.024l17.808-2.055c0.285,7.307,0.913,13.586,1.884,18.836H166.005z M290.107,148.265H251.15v-23.031h38.957h17.295
			v23.031H290.107z M290.107,184.738H251.15v-22.261h38.957h17.295v22.261H290.107z M290.107,221.982H251.15v-23.118h38.957h17.295
			v23.118H290.107z M197.812,282.856c4.415,3.137,9.637,4.963,15.667,5.479c1.143,0.057,2.312,0.086,3.511,0.086
			c12.5,0,21.348-3.539,26.542-10.617c1.027-1.428,1.969-3.168,2.825-5.223h41.396h16.311c-0.799,3.653-1.712,6.992-2.739,10.017
			c-1.484,4.624-3.369,8.989-5.651,13.101h-13.827H139.335c-3.368-6.907-5.908-14.613-7.62-23.117h38.313h18.622
			c0.115,0.285,0.257,0.514,0.428,0.685C191.513,277.239,194.423,280.436,197.812,282.856z M289.295,258.369h-39.513
			c0.855-6.222,1.312-13.641,1.368-22.261h38.957h17.295c-0.172,8.162-0.6,15.583-1.284,22.261H289.295z M257.572,329.305
			c-11.936,4.766-26.12,7.147-42.551,7.147c-10.731,0-20.492-1.17-29.282-3.51c-13.755-3.653-25.115-10.188-34.076-19.606
			c-1.084-1.084-2.112-2.254-3.083-3.51h125.987h10.916c-4.053,4.451-8.676,8.476-13.87,12.071
			C267.34,324.805,262.658,327.273,257.572,329.305z"/>
	</g>
</g>
</svg>
