<?xml version="1.0" encoding="utf-8"?>
<!-- Generator: Adobe Illustrator 16.0.0, SVG Export Plug-In . SVG Version: 6.00 Build 0)  -->
<!DOCTYPE svg PUBLIC "-//W3C//DTD SVG 1.1//EN" "http://www.w3.org/Graphics/SVG/1.1/DTD/svg11.dtd">
<svg version="1.1" id="Layer_1" xmlns="http://www.w3.org/2000/svg" xmlns:xlink="http://www.w3.org/1999/xlink" x="0px" y="0px"
	 width="400px" height="400px" viewBox="0 0 400 400" enable-background="new 0 0 400 400" xml:space="preserve">
<g>
	<g>
		<path fill-rule="evenodd" clip-rule="evenodd" fill="#010101" d="M309.275,76.634l-13.699,14.127h-65.455l-20.549,22.261h64.385
			l-13.783,14.212H196.56l-21.319,23.031h62.586l-13.784,14.212h-61.816l-13.185,14.298v-14.298H93.047v22.261h136.603l9.204,14.126
			H93.047v23.118h81.081l20.548-21.148l12.5,21.148h46.747l9.204,14.126h-47.732l13.015,22.261h49.187l9.247,14.213h-50.044
			l13.527,23.117h51.586l9.203,14.127h-52.569l12.758,21.832h54.024c1.187,1.985,1.644,4.154,1.369,6.508
			c-0.398,2.339-1.54,4.365-3.424,6.078c-1.885,1.598-4.053,2.397-6.508,2.397h-72.688c-1.713,0-3.312-0.429-4.796-1.284
			c-1.598-0.914-2.824-2.084-3.681-3.512l-70.207-119.607l-13.57,13.87H93.047v22.261h38.7v14.213h-38.7v23.117h38.7v14.127h-38.7
			v21.832h38.7v5.138c0,2.738-0.97,5.079-2.912,7.02c-1.94,1.884-4.281,2.826-7.02,2.826H65.821c-2.741,0-5.052-0.942-6.935-2.826
			c-1.998-1.94-2.997-4.281-2.997-7.02V60.195c0-2.74,0.999-5.052,2.997-6.935c1.883-1.998,4.194-2.997,6.935-2.997h55.994
			c2.739,0,5.08,0.999,7.02,2.997c0.579,0.561,1.063,1.16,1.456,1.797H93.047v21.576h38.7v14.127h-38.7v22.261h38.7v14.212h-38.7
			v23.031h38.7v8.219l7.576-8.219h9.719v-10.574l79.282-86.174c0.971-1.028,2.056-1.827,3.253-2.397
			c1.256-0.57,2.598-0.856,4.024-0.856h75.687c2.74,0,5.051,0.999,6.934,2.997c0.584,0.565,1.084,1.165,1.499,1.797h-56.894
			l-19.691,21.576H309.275z"/>
		<path fill-rule="evenodd" clip-rule="evenodd" fill="#676767" d="M319.72,55.058h18.794l-20.805,21.576h-8.434h-66.141
			l19.691-21.576H319.72z M295.576,90.761h8.348l-21.49,22.261h-8.477h-64.385l20.549-22.261H295.576z M131.747,113.021h-38.7
			V90.761h38.7h17.295v22.261H131.747z M131.747,76.634h-38.7V55.058h37.244h18.751v21.576H131.747z M260.174,127.234h8.476
			l-22.432,23.031h-8.392H175.24l21.319-23.031H260.174z M224.042,164.478h9.847l14.641,22.261h-18.88H93.047v-22.261h55.995v14.298
			l13.185-14.298H224.042z M238.854,200.865h18.923l14.981,23.118h-18.835h-46.747l-12.5-21.148l-20.548,21.148H93.047v-23.118
			H238.854z M263.127,238.108h18.879l14.384,22.261h-18.794h-49.187l-13.015-22.261H263.127z M286.843,274.582h18.792l14.984,23.117
			h-18.707h-51.586l-13.527-23.117H286.843z M311.115,311.826h18.752l14.125,21.832h-18.664h-54.024l-12.758-21.832H311.115z
			 M151.824,238.108h8.433l-11.215,11.387v10.874h-17.295h-38.7v-22.261H151.824z M131.747,274.582h17.295v23.117h-17.295h-38.7
			v-23.117H131.747z M131.747,127.234h17.295v12.457v10.574h-9.719h-7.576h-38.7v-23.031H131.747z M131.747,333.658h-38.7v-21.832
			h38.7h17.295v21.832H131.747z"/>
	</g>
</g>
</svg>
