<?xml version="1.0" encoding="utf-8"?>
<!-- Generator: Adobe Illustrator 16.0.0, SVG Export Plug-In . SVG Version: 6.00 Build 0)  -->
<!DOCTYPE svg PUBLIC "-//W3C//DTD SVG 1.1//EN" "http://www.w3.org/Graphics/SVG/1.1/DTD/svg11.dtd">
<svg version="1.1" id="Layer_1" xmlns="http://www.w3.org/2000/svg" xmlns:xlink="http://www.w3.org/1999/xlink" x="0px" y="0px"
	 width="400px" height="400px" viewBox="0 0 400 400" enable-background="new 0 0 400 400" xml:space="preserve">
<g>
	<g>
		<path fill-rule="evenodd" clip-rule="evenodd" fill="#010101" d="M157.846,56.456h-37.458v19.178h38.87v14.127h-38.87v22.261
			h38.87v14.212h-38.87v23.031h38.87v14.212h-38.87v22.261h38.87v14.126h-38.87v23.118h38.87v14.126h-38.87v22.261h38.87v14.213
			h-38.87v23.117h178.598v14.127H120.387v21.832h178.598v5.138c0,2.738-0.94,5.079-2.825,7.02c-1.998,1.884-4.366,2.826-7.105,2.826
			H93.076c-2.741,0-5.053-0.942-6.935-2.826c-2-1.94-2.997-4.281-2.997-7.02V61.593c0-2.741,0.998-5.051,2.997-6.935
			c1.882-1.998,4.194-2.997,6.935-2.997h56.25c2.739,0,5.108,0.999,7.105,2.997C156.994,55.219,157.464,55.818,157.846,56.456z
			 M297.572,285.739H176.638v-4.794h112.417c2.739,0,5.107,0.999,7.105,2.996C296.722,284.504,297.193,285.103,297.572,285.739z"/>
		<path fill-rule="evenodd" clip-rule="evenodd" fill="#676767" d="M159.257,75.634h-38.87V56.456h37.458h18.792v19.178H159.257z
			 M159.257,89.761h17.38v22.261h-17.38h-38.87V89.761H159.257z M159.257,126.234h17.38v23.031h-17.38h-38.87v-23.031H159.257z
			 M159.257,163.478h17.38v22.261h-17.38h-38.87v-22.261H159.257z M159.257,237.108h17.38v22.261h-17.38h-38.87v-22.261H159.257z
			 M159.257,199.865h17.38v23.118h-17.38h-38.87v-23.118H159.257z M159.257,273.582h17.38v7.363v4.794h120.935h18.794v10.96h-17.381
			H120.387v-23.117H159.257z M298.985,310.826h17.381v21.832h-17.381H120.387v-21.832H298.985z"/>
	</g>
</g>
</svg>
