<?xml version="1.0" encoding="utf-8"?>
<!-- Generator: Adobe Illustrator 16.0.0, SVG Export Plug-In . SVG Version: 6.00 Build 0)  -->
<!DOCTYPE svg PUBLIC "-//W3C//DTD SVG 1.1//EN" "http://www.w3.org/Graphics/SVG/1.1/DTD/svg11.dtd">
<svg version="1.1" id="Layer_1" xmlns="http://www.w3.org/2000/svg" xmlns:xlink="http://www.w3.org/1999/xlink" x="0px" y="0px"
	 width="400px" height="400px" viewBox="0 0 400 400" enable-background="new 0 0 400 400" xml:space="preserve">
<g>
	<g>
		<path fill-rule="evenodd" clip-rule="evenodd" fill="#010101" d="M334.053,55.058h-65.54l-5.65,21.576h72.604v14.127h-76.286
			l-5.822,22.261h82.108v14.212h-34.933v23.031h34.933v14.212h-34.933v22.261h34.933v14.126h-34.933v23.118h34.933v14.126h-34.933
			v22.261h34.933v14.213h-34.933v23.117h34.933v14.127h-34.933v21.832h34.933v5.138c0,2.738-0.943,5.079-2.826,7.02
			c-1.999,1.884-4.366,2.826-7.106,2.826h-52.228c-2.739,0-5.05-0.942-6.935-2.826c-1.997-1.94-2.996-4.281-2.996-7.02v-78.427
			h0.342l5.65-22.261h-5.992v-14.126h9.502l5.823-23.118h-15.325v-1.369l-0.344,1.369h-32.963l-6.077,23.118h33.177l-3.555,14.126
			h-33.391l-1.882,7.021l-1.799-7.021h-49.314l5.478,22.261h75.258l-3.595,14.213h-68.065l5.735,23.117h56.466l-3.554,14.127
			h-49.315l5.393,21.832h38.399l-1.926,7.535c-0.57,2.168-1.741,3.966-3.51,5.393c-1.827,1.37-3.854,2.056-6.079,2.056h-54.197
			c-2.226,0-4.252-0.686-6.079-2.056c-1.769-1.427-2.939-3.225-3.51-5.393l-20.248-80.824h2.269v-22.261h-7.834l-3.553-14.126
			h11.387v-23.118H118.98l-0.127-0.513v0.513H83.836v23.118h35.018v14.126H83.836v22.261h35.018v14.213H83.836v23.117h35.018v14.127
			H83.836v21.832h35.018v5.138c0,2.738-0.942,5.079-2.826,7.02c-1.998,1.884-4.365,2.826-7.106,2.826H56.609
			c-2.739,0-5.051-0.942-6.935-2.826c-1.999-1.94-2.997-4.281-2.997-7.02V60.195c0-2.74,0.998-5.052,2.997-6.935
			c1.883-1.998,4.195-2.997,6.935-2.997h84.078c2.226,0,4.252,0.713,6.079,2.141c0.973,0.746,1.771,1.63,2.396,2.654H83.836v21.576
			h71.49l3.769,14.127H83.836v22.261H165l3.768,14.212h-29.365l5.649,23.031h29.839l3.767,14.212h-30.01l5.65,22.261h30.268
			l3.724,14.126h-30.479l5.82,23.118h49.229l-6.248-23.118h-12.673l3.726-14.126h5.265l-2.654-9.889l31.507-119.223
			c0.572-2.168,1.74-3.909,3.512-5.222c1.713-1.427,3.708-2.141,5.993-2.141h84.247c2.74,0,5.107,0.999,7.106,2.997
			C333.202,53.821,333.673,54.421,334.053,55.058z M136.147,186.738v-22.261H83.836v22.261H136.147z M136.147,150.265v-23.031
			H83.836v23.031H136.147z M291.63,150.265l5.821-23.031h-47.944l-6.079,23.031H291.63z M282.383,186.738l5.565-22.261h-48.203
			l-5.907,22.261H282.383z"/>
		<path fill-rule="evenodd" clip-rule="evenodd" fill="#676767" d="M200.275,176.85l2.654,9.889h-5.265h-13.1h-30.268l-5.65-22.261
			h30.01h18.278L200.275,176.85z M193.939,200.865h12.673l6.248,23.118h-49.229l-5.82-23.118h30.479H193.939z M174.891,150.265
			h-29.839l-5.649-23.031h29.365h18.237l6.249,23.031H174.891z M263.032,200.865h0.344h15.325l-5.823,23.118h-9.502h-6.207h-33.177
			l6.077-23.118H263.032z M244.369,274.582h15.754l-5.822,23.117h-15.796h-56.466l-5.735-23.117H244.369z M263.376,260.369h-15.412
			h-75.258l-5.478-22.261h49.314l1.799,7.021l1.882-7.021h33.391h9.762h5.992l-5.65,22.261H263.376z M234.951,311.826h15.667
			l-5.479,21.832h-15.712h-38.399l-5.393-21.832H234.951z M118.854,311.826h17.294v21.832h-17.294H83.836v-21.832H118.854z
			 M334.053,55.058h18.794v21.576h-17.38h-72.604l5.65-21.576H334.053z M335.467,90.761h17.38v22.261h-17.38h-82.108l5.822-22.261
			H335.467z M335.467,127.234h17.38v23.031h-17.38h-34.933v-23.031H335.467z M335.467,164.478h17.38v22.261h-17.38h-34.933v-22.261
			H335.467z M335.467,200.865h17.38v23.118h-17.38h-34.933v-23.118H335.467z M335.467,238.108h17.38v22.261h-17.38h-34.933v-22.261
			H335.467z M335.467,274.582h17.38v23.117h-17.38h-34.933v-23.117H335.467z M335.467,311.826h17.38v21.832h-17.38h-34.933v-21.832
			H335.467z M155.326,76.634h-71.49V55.058h65.325h18.75l5.823,21.576H155.326z M159.095,90.761h18.32l5.908,22.261H165H83.836
			V90.761H159.095z M118.854,297.699H83.836v-23.117h35.018h17.294v23.117H118.854z M118.854,223.982H83.836v-23.118h35.018h0.127
			h17.167v23.118h-11.387H118.854z M118.854,238.108h9.46h7.834v22.261h-2.269h-15.025H83.836v-22.261H118.854z M136.147,150.265
			H83.836v-23.031h52.312V150.265z M136.147,186.738H83.836v-22.261h52.312V186.738z M282.383,186.738h-48.545l5.907-22.261h48.203
			L282.383,186.738z M291.63,150.265h-48.202l6.079-23.031h47.944L291.63,150.265z"/>
	</g>
</g>
</svg>
