<?xml version="1.0" encoding="utf-8"?>
<!-- Generator: Adobe Illustrator 16.0.0, SVG Export Plug-In . SVG Version: 6.00 Build 0)  -->
<!DOCTYPE svg PUBLIC "-//W3C//DTD SVG 1.1//EN" "http://www.w3.org/Graphics/SVG/1.1/DTD/svg11.dtd">
<svg version="1.1" id="Layer_1" xmlns="http://www.w3.org/2000/svg" xmlns:xlink="http://www.w3.org/1999/xlink" x="0px" y="0px"
	 width="400px" height="400px" viewBox="0 0 400 400" enable-background="new 0 0 400 400" xml:space="preserve">
<g>
	<g>
		<path fill-rule="evenodd" clip-rule="evenodd" fill="#010101" d="M310.282,55.058h-33.604v21.576h35.018v14.127h-35.018v22.261
			h35.018v14.212h-35.018v23.031h35.018v14.212h-35.018v22.261h35.018v14.126h-35.018v23.118h35.018v14.126h-35.018v2.997
			l-1.798-2.997h-61.387l13.784,22.261h84.418v14.213h-75.687l14.214,23.117h61.473v14.127h-52.654l13.442,21.832h39.212v5.138
			c0,2.738-0.941,5.079-2.824,7.02c-1.998,1.884-4.367,2.826-7.106,2.826h-56.593c-1.656,0-3.255-0.429-4.795-1.284
			c-1.484-0.799-2.655-1.912-3.511-3.34l-76.628-123.717v-19.436h-12.029l-5.351-8.646v8.646h-34.933v23.118h34.933v14.126h-34.933
			v22.261h34.933v14.213h-34.933v23.117h34.933v14.127h-34.933v21.832h34.933v5.138c0,2.738-0.942,5.079-2.826,7.02
			c-1.939,1.884-4.281,2.826-7.021,2.826H80.699c-2.74,0-5.051-0.942-6.936-2.826c-1.996-1.94-2.996-4.281-2.996-7.02V60.195
			c0-2.74,1-5.052,2.996-6.935c1.885-1.998,4.195-2.997,6.936-2.997h54.71c1.712,0,3.31,0.428,4.796,1.285
			c1.482,0.856,2.711,2.025,3.68,3.51h-35.959v21.576h49.188l8.648,14.127h-57.836v22.261h71.49l8.69,14.212h-80.181v23.031h94.264
			l8.691,14.212h-43.022l13.783,22.261h42.896l8.646,14.126h-42.81l14.384,23.118h61.474l-14.211-23.118h-12.5v-14.126h3.766
			l-3.766-6.165V60.195c0-2.74,0.998-5.052,2.996-6.935c1.883-1.998,4.194-2.997,6.935-2.997h52.313
			c2.739,0,5.108,0.999,7.106,2.997C309.432,53.821,309.903,54.421,310.282,55.058z M160.238,186.738v-22.261h-52.313v22.261
			H160.238z"/>
		<path fill-rule="evenodd" clip-rule="evenodd" fill="#676767" d="M239.521,180.574l3.766,6.165h-3.766h-14.983h-42.896
			l-13.783-22.261h43.022h18.793L239.521,180.574z M239.521,200.865h12.5l14.211,23.118h-61.474l-14.384-23.118h42.81H239.521z
			 M202.189,150.265h-94.264v-23.031h80.181h18.707l14.213,23.031H202.189z M179.416,113.021h-71.49V90.761h57.836h18.877
			l13.528,22.261H179.416z M311.695,76.634h-35.018V55.058h33.604h18.709v21.576H311.695z M311.695,90.761h17.296v22.261h-17.296
			h-35.018V90.761H311.695z M311.695,127.234h17.296v23.031h-17.296h-35.018v-23.031H311.695z M311.695,164.478h17.296v22.261
			h-17.296h-35.018v-22.261H311.695z M311.695,200.865h17.296v23.118h-17.296h-35.018v-23.118H311.695z M311.695,238.108h17.296
			v22.261h-17.296h-84.418l-13.784-22.261h61.387l1.798,2.997v-2.997H311.695z M311.695,274.582h17.296v23.117h-17.296h-61.473
			l-14.214-23.117H311.695z M143.885,55.058h18.751l13.185,21.576h-18.707h-49.188V55.058H143.885z M142.858,333.658h-34.933
			v-21.832h34.933h17.38v21.832H142.858z M142.858,297.699h-34.933v-23.117h34.933h17.38v23.117H142.858z M142.858,260.369h-34.933
			v-22.261h34.933h17.38v22.261H142.858z M142.858,223.982h-34.933v-23.118h34.933h5.351h12.029v19.436v3.682H142.858z
			 M311.695,311.826h17.296v21.832h-17.296h-39.212l-13.442-21.832H311.695z M160.238,186.738h-52.313v-22.261h52.313V186.738z"/>
	</g>
</g>
</svg>
