<?xml version="1.0" encoding="utf-8"?>
<!-- Generator: Adobe Illustrator 16.0.0, SVG Export Plug-In . SVG Version: 6.00 Build 0)  -->
<!DOCTYPE svg PUBLIC "-//W3C//DTD SVG 1.1//EN" "http://www.w3.org/Graphics/SVG/1.1/DTD/svg11.dtd">
<svg version="1.1" id="Layer_1" xmlns="http://www.w3.org/2000/svg" xmlns:xlink="http://www.w3.org/1999/xlink" x="0px" y="0px"
	 width="400px" height="400px" viewBox="0 0 400 400" enable-background="new 0 0 400 400" xml:space="preserve">
<g>
	<g>
		<path fill-rule="evenodd" clip-rule="evenodd" fill="#010101" d="M236.082,51.014c-6.017-0.627-12.225-0.941-18.621-0.941
			c-6.85,0-13.471,0.343-19.864,1.027c-14.727,1.598-28.11,4.995-40.154,10.188c-8.848,3.653-17.181,8.704-25,15.154H285.27
			c3.747,3.107,7.343,6.447,10.788,10.018l0.085,0.171c1.258,1.289,2.486,2.602,3.682,3.938h-182.28
			c-6.222,6.907-11.559,14.326-16.011,22.261h70.721c7.477-5.709,15.925-9.731,25.342-12.072c6.45-1.599,13.356-2.397,20.72-2.397
			c18.037,0,33.334,4.823,45.891,14.47h51.543c2.558,4.537,4.869,9.274,6.934,14.213h-44.605
			c4.736,6.506,8.476,14.184,11.215,23.031h40.883c1.133,4.599,2.09,9.336,2.869,14.213h-40.412
			c1.141,6.905,1.855,14.325,2.141,22.26h40.583c0.228,4.33,0.342,8.754,0.342,13.271c0,0.285,0,0.569,0,0.855h-40.925
			c-0.285,8.333-1.085,16.038-2.397,23.117h42.167c-0.509,4.832-1.165,9.542-1.969,14.127h-43.709
			c-2.739,8.448-6.336,15.867-10.787,22.261h49.016c-1.584,4.907-3.381,9.645-5.395,14.212h-56.978
			c-12.901,10.56-28.368,15.84-46.405,15.84c-7.306,0-14.213-0.857-20.72-2.569c-2.353-0.631-4.651-1.373-6.892-2.226
			c0.101,0,0.2,0,0.3,0c19.292,0,35.217-6.935,47.774-20.806c12.673-14.955,19.008-37.015,19.008-66.182
			c0-28.939-6.136-50.486-18.408-64.642c-12.214-13.585-28.339-20.377-48.374-20.377c-16.413,0-30.211,4.537-41.396,13.613H94.685
			c-3.025,7.077-5.422,14.754-7.192,23.031h44.564c-1.939,4.352-3.551,9.089-4.838,14.213H84.925
			c-0.914,7.076-1.513,14.498-1.799,22.26h40.754c-0.286,3.977-0.428,8.113-0.428,12.415c0,0.573,0,1.144,0,1.712H83.126
			c0.057,8.049,0.6,15.754,1.627,23.117h40.582c0.812,4.996,1.896,9.705,3.254,14.127H87.235c1.656,7.876,3.911,15.298,6.764,22.261
			h45.42c1.074,1.484,2.201,2.911,3.382,4.28c3.477,3.836,7.216,7.147,11.216,9.932h-53.512
			c4.567,8.391,10.046,16.097,16.439,23.117h191.656c-3.528,4.981-7.41,9.69-11.645,14.127H132.099
			c18.095,14.098,39.927,22.604,65.498,25.515c6.678,0.74,13.585,1.111,20.72,1.111c24.201,0,45.535-4.438,64-13.312
			c-24.275,18.921-54.713,28.38-91.312,28.38c-44.407,0-79.682-13.671-105.824-41.009c-26.256-26.998-39.384-64.071-39.384-111.219
			c0-30.022,4.538-55.194,13.613-75.515c6.564-15.239,15.754-28.854,27.569-40.84v-0.085c11.93-12.386,25.058-21.519,39.384-27.398
			c18.38-8.048,39.641-12.072,63.785-12.072C206.69,45.192,222.002,47.133,236.082,51.014z"/>
		<path fill-rule="evenodd" clip-rule="evenodd" fill="#676767" d="M282.316,324.949c-18.465,8.874-39.799,13.312-64,13.312
			c-7.135,0-14.042-0.371-20.72-1.111c-25.571-2.911-47.403-11.417-65.498-25.515h164.857h6.892
			C297.168,316.842,289.99,321.279,282.316,324.949z M308.601,297.508H116.945c-6.393-7.021-11.872-14.727-16.439-23.117h53.512
			h17.637c5.814,4.737,12.165,8.419,19.05,11.045c2.241,0.853,4.539,1.595,6.892,2.226c6.507,1.712,13.414,2.569,20.72,2.569
			c18.037,0,33.504-5.28,46.405-15.84h56.978h13.657c-4.624,8.391-10.074,16.097-16.354,23.117H308.601z M315.75,112.83h-51.543
			c-12.557-9.646-27.854-14.47-45.891-14.47c-7.363,0-14.27,0.799-20.72,2.397c-9.417,2.341-17.865,6.363-25.342,12.072h-70.721
			c4.453-7.935,9.79-15.354,16.011-22.261h182.28h18.494c6.164,6.735,11.502,14.155,16.01,22.261H315.75z M236.082,51.014
			c25.881,2.685,48.156,11.161,66.824,25.429H285.27H132.442c7.82-6.45,16.153-11.501,25-15.154
			c12.044-5.194,25.428-8.59,40.154-10.188c6.394-0.685,13.015-1.027,19.864-1.027C223.857,50.072,230.065,50.386,236.082,51.014z
			 M322.684,127.043h18.408c3.025,7.249,5.508,14.926,7.449,23.031h-18.365h-40.883c-2.739-8.848-6.479-16.525-11.215-23.031
			H322.684z M335.698,200.674h17.38c-0.285,8.049-0.913,15.754-1.883,23.117h-16.652h-42.167c1.313-7.079,2.112-14.784,2.397-23.117
			H335.698z M333.045,164.287h17.979c0.971,7.076,1.599,14.498,1.885,22.26h-17.552h-40.583c-0.285-7.935-1-15.354-2.141-22.26
			H333.045z M332.574,237.918h16.053c-1.77,7.876-4.024,15.298-6.765,22.261h-14.769h-49.016
			c4.451-6.394,8.048-13.813,10.787-22.261H332.574z M149.608,127.043h8.604c-4.909,6.506-8.733,14.184-11.474,23.031h-14.683
			H87.493c1.77-8.277,4.167-15.954,7.192-23.031H149.608z M123.452,200.674h17.466c0.286,8.22,1.142,15.925,2.568,23.117h-18.151
			H84.753c-1.027-7.363-1.57-15.068-1.627-23.117H123.452z M127.219,164.287h15.925c-1.199,6.905-1.94,14.325-2.226,22.26H123.88
			H83.126c0.286-7.762,0.885-15.184,1.799-22.26H127.219z M128.589,237.918h18.408c2.854,8.448,6.591,15.867,11.215,22.261h-18.793
			H94c-2.854-6.963-5.108-14.385-6.764-22.261H128.589z"/>
	</g>
</g>
</svg>
