<?xml version="1.0" encoding="utf-8"?>
<!-- Generator: Adobe Illustrator 16.0.0, SVG Export Plug-In . SVG Version: 6.00 Build 0)  -->
<!DOCTYPE svg PUBLIC "-//W3C//DTD SVG 1.1//EN" "http://www.w3.org/Graphics/SVG/1.1/DTD/svg11.dtd">
<svg version="1.1" id="Layer_1" xmlns="http://www.w3.org/2000/svg" xmlns:xlink="http://www.w3.org/1999/xlink" x="0px" y="0px"
	 width="400px" height="400px" viewBox="0 0 400 400" enable-background="new 0 0 400 400" xml:space="preserve">
<g>
	<g>
		<path fill-rule="evenodd" clip-rule="evenodd" fill="#010101" d="M249.658,56.322c-11.854-0.969-27.764-1.456-47.732-1.456h-90.24
			v21.576h169.779c2.785,2.814,5.44,5.868,7.963,9.161v-0.085c1.289,1.632,2.517,3.315,3.682,5.051H111.686v22.261h56.251v-10.788
			h27.055c20.434,0,33.991,0.657,40.668,1.97c7.306,1.255,13.642,4.195,19.007,8.818h48.716c1.332,4.508,2.359,9.245,3.083,14.213
			h-41.867c1.599,4.338,2.396,9.104,2.396,14.298c0,3.081-0.284,5.993-0.856,8.733h41.568c-0.149,4.955-0.549,9.692-1.199,14.213
			H259.89c-4.224,5.65-9.847,9.846-16.867,12.585c-7.478,2.854-22.261,4.28-44.35,4.28h-30.735v-4.88h3.51
			c20.32,0,33.905-1.17,40.754-3.51c5.479-2.169,9.788-5.508,12.928-10.018c3.197-4.681,4.766-10.131,4.709-16.354
			c0-7.248-2.084-13.327-6.25-18.235c-4.566-5.023-10.132-8.105-16.695-9.247c-0.115,0-0.229,0-0.343,0
			c-6.393-1.199-19.321-1.799-38.785-1.799h-17.209v9.933h-38.87v23.031h38.87v14.213h-38.87v22.26h188.873
			c-1.003,2.434-2.117,4.773-3.34,7.021c-1.276,2.468-2.618,4.837-4.023,7.106h-181.51v23.117h154.197
			c3.609-0.974,7.233-2.258,10.873-3.853c-2.009,1.712-4.092,3.311-6.25,4.794h-0.171c-10.845,7.306-21.604,12.186-32.278,14.641
			c-0.229-0.114-0.342-0.114-0.342,0c-13.984,2.74-34.104,4.109-60.36,4.109h-9.417v-5.564h-56.251v22.261h38.87v14.212h-38.87
			v23.117h38.87v14.127h-38.87v21.831h38.87v5.138c0,2.739-0.942,5.08-2.825,7.021c-1.941,1.885-4.281,2.825-7.021,2.825h-56.25
			c-2.74,0-5.08-0.94-7.021-2.825c-1.941-1.94-2.911-4.281-2.911-7.021v-278.6c0-2.739,0.97-5.051,2.911-6.935
			c1.941-1.998,4.281-2.997,7.021-2.997h90.24c35.39,0,58.563,1.541,69.522,4.624C246.068,55.183,247.881,55.724,249.658,56.322z"/>
		<path fill-rule="evenodd" clip-rule="evenodd" fill="#676767" d="M281.465,76.442H111.686V54.866h90.24
			c19.969,0,35.879,0.486,47.732,1.456c8.422,0.701,14.801,1.642,19.136,2.825c11.759,3.083,22.062,8.848,30.907,17.295H281.465z
			 M293.109,90.569h18.665c4.337,6.621,7.647,14.041,9.931,22.261h-18.322h-48.716c-5.365-4.623-11.701-7.563-19.007-8.818
			c-6.678-1.313-20.234-1.97-40.668-1.97h-27.055v10.788h-56.251V90.569H293.109z M306.466,127.043h17.894
			c0.457,4.338,0.686,8.846,0.686,13.526c0,3.311-0.086,6.48-0.258,9.505h-17.08h-41.568c0.572-2.74,0.856-5.652,0.856-8.733
			c0-5.194-0.798-9.96-2.396-14.298H306.466z M293.195,200.674h11.043c-3.652,4.167-7.705,7.763-12.156,10.787
			c-5.134,3.434-10.242,6.26-15.326,8.478c-3.64,1.595-7.264,2.879-10.873,3.853H111.686v-23.117H293.195z M306.508,164.287h16.311
			c-1.598,7.191-3.967,13.698-7.105,19.52c-0.457,0.972-0.914,1.885-1.37,2.74h-13.784H111.686v-22.26h38.87h17.381v11.985v4.88
			h30.735c22.089,0,36.873-1.427,44.35-4.28c7.021-2.739,12.644-6.935,16.867-12.585H306.508z M150.556,127.043h17.381v23.031
			h-17.381h-38.87v-23.031H150.556z M150.556,274.391h17.381v23.117h-17.381h-38.87v-23.117H150.556z M167.937,243.482v16.696
			h-17.381h-38.87v-22.261h56.251V243.482z M150.556,311.635h17.381v21.831h-17.381h-38.87v-21.831H150.556z"/>
	</g>
</g>
</svg>
