<?xml version="1.0" encoding="utf-8"?>
<!-- Generator: Adobe Illustrator 16.0.0, SVG Export Plug-In . SVG Version: 6.00 Build 0)  -->
<!DOCTYPE svg PUBLIC "-//W3C//DTD SVG 1.1//EN" "http://www.w3.org/Graphics/SVG/1.1/DTD/svg11.dtd">
<svg version="1.1" id="Layer_1" xmlns="http://www.w3.org/2000/svg" xmlns:xlink="http://www.w3.org/1999/xlink" x="0px" y="0px"
	 width="400px" height="400px" viewBox="0 0 400 400" enable-background="new 0 0 400 400" xml:space="preserve">
<g>
	<g>
		<path fill-rule="evenodd" clip-rule="evenodd" fill="#010101" d="M299.715,112.83c1.249,4.573,2.148,9.311,2.697,14.213H261.4
			c0.686,2.91,1.028,6.106,1.028,9.588c0,4.91-0.656,9.39-1.969,13.443h41.909c-0.541,4.937-1.425,9.674-2.654,14.213h-49.188
			c-2.738,2.055-5.906,3.709-9.502,4.964c-6.736,2.228-23.66,3.34-50.772,3.34h-41.61v-4.794h14.384
			c25.399,0,41.267-0.941,47.603-2.826c4.565-1.598,8.22-4.253,10.96-7.961c2.453-4.225,3.682-9.305,3.682-15.241
			c0-6.62-1.655-11.958-4.967-16.01c-3.709-4.11-8.817-6.708-15.325-7.792c-4.224-0.571-17.409-0.856-39.556-0.856h-34.161v9.933
			H92.392v23.031h38.871v14.213H92.392v22.26h197.435c-2.289,3.568-4.887,6.965-7.791,10.189c-1.209,1.355-2.466,2.669-3.766,3.938
			H92.392v23.117h56.251v-6.507h11.473c12.843,0,22.289,1.026,28.339,3.082c2.455,0.856,4.909,1.996,7.363,3.425h52.397
			c3.14,2.728,6.05,5.552,8.733,8.477l0.171,0.17c1.491,1.596,3.075,3.423,4.753,5.48h-51.328
			c4.052,5.193,9.36,12.613,15.924,22.261h51.586c2.922,4.344,6.003,9.082,9.246,14.212h-51.413l15.583,23.117h50.343l8.818,14.127
			h-49.658l14.727,21.831h48.546c1.131,2.064,1.531,4.291,1.197,6.68c-0.4,2.34-1.484,4.31-3.253,5.907
			c-1.885,1.598-4.054,2.396-6.507,2.396h-67.21c-0.742,0-1.456-0.028-2.14-0.085c-0.857-0.285-1.656-0.629-2.398-1.028
			c-1.484-0.74-2.711-1.826-3.682-3.252l-40.839-60.533c-13.87-21.062-23.346-34.332-28.425-39.813
			c-4.052-4.337-8.363-7.248-12.929-8.731l-0.085-0.171c-5.422-1.713-13.784-2.568-25.086-2.568h-1.627v5.65H92.392v22.261h38.871
			v14.212H92.392v23.117h38.871v14.127H92.392v21.831h38.871v5.138c0,2.739-0.941,5.08-2.826,7.021
			c-1.94,1.885-4.28,2.825-7.02,2.825H65.081c-2.74,0-5.052-0.94-6.936-2.825c-1.941-1.94-2.911-4.281-2.911-7.021v-278.6
			c0-2.739,0.97-5.051,2.911-6.935c1.884-1.998,4.196-2.997,6.936-2.997h118.323c27.634,0,48.625,2.126,62.972,6.379
			c-10.192-1.056-22.078-1.585-35.66-1.585H92.392v21.576h186.946c3.631,3.814,6.955,8.095,9.975,12.843l-0.17-0.085
			c0.293,0.453,0.578,0.911,0.855,1.369H92.392v22.261h56.251v-10.788h44.093c22.832,0,36.417,0.285,40.755,0.856
			c8.619,1.541,15.439,4.853,20.463,9.932H299.715z M255.451,215.956c-2.734-1.827-5.602-3.611-8.605-5.351
			c10.787-1.561,20.419-4.101,28.896-7.621C269.92,208.089,263.157,212.413,255.451,215.956z"/>
		<path fill-rule="evenodd" clip-rule="evenodd" fill="#676767" d="M299.715,112.83h-45.762c-5.023-5.079-11.844-8.391-20.463-9.932
			c-4.338-0.571-17.923-0.856-40.755-0.856h-44.093v10.788H92.392V90.569h197.606h18.75c4.339,6.907,7.449,14.326,9.332,22.261
			H299.715z M246.375,56.451c12.228,1.25,22.002,3.262,29.325,6.036c8.333,3.14,15.667,7.791,22.003,13.956h-18.365H92.392V54.866
			h118.323C224.297,54.866,236.183,55.395,246.375,56.451z M302.412,127.043h17.809c0.113,1.94,0.172,3.967,0.172,6.078
			c0,5.937-0.485,11.587-1.456,16.953h-16.567H260.46c1.313-4.054,1.969-8.533,1.969-13.443c0-3.481-0.343-6.678-1.028-9.588
			H302.412z M278.27,200.674h2.567c-1.653,0.812-3.351,1.582-5.095,2.311c-8.478,3.521-18.109,6.061-28.896,7.621
			c3.004,1.739,5.871,3.523,8.605,5.351c3.814,2.53,7.369,5.142,10.659,7.835h-17.895h-52.397c-2.454-1.429-4.908-2.568-7.363-3.425
			c-6.051-2.056-15.496-3.082-28.339-3.082h-11.473v6.507H92.392v-23.117H278.27z M299.715,164.287h15.112
			c-3.024,7.648-7.306,14.526-12.843,20.633c-0.514,0.57-1,1.114-1.455,1.627h-10.703H92.392v-22.26h38.871h17.38v3.51v4.794h41.61
			c27.112,0,44.036-1.112,50.772-3.34c3.596-1.255,6.764-2.909,9.502-4.964H299.715z M261.873,237.918h18.707
			c4.509,5.593,9.932,13.014,16.268,22.261h-18.793h-51.586c-6.563-9.647-11.872-17.067-15.924-22.261H261.873z M287.301,274.391
			h18.793c0.856,1.483,1.798,3.024,2.825,4.623l11.644,18.494h-18.749h-50.343l-15.583-23.117H287.301z M131.263,127.043h17.38
			v23.031h-17.38H92.392v-23.031H131.263z M131.263,237.918h17.38v22.261h-17.38H92.392v-22.261H131.263z M131.263,274.391h17.38
			v23.117h-17.38H92.392v-23.117H131.263z M131.263,333.466H92.392v-21.831h38.871h17.38v21.831H131.263z M310.632,311.635h18.664
			l13.614,21.831h-18.664H275.7l-14.727-21.831H310.632z"/>
	</g>
</g>
</svg>
