<?xml version="1.0" encoding="utf-8"?>
<!-- Generator: Adobe Illustrator 16.0.0, SVG Export Plug-In . SVG Version: 6.00 Build 0)  -->
<!DOCTYPE svg PUBLIC "-//W3C//DTD SVG 1.1//EN" "http://www.w3.org/Graphics/SVG/1.1/DTD/svg11.dtd">
<svg version="1.1" id="Layer_1" xmlns="http://www.w3.org/2000/svg" xmlns:xlink="http://www.w3.org/1999/xlink" x="0px" y="0px"
	 width="400px" height="400px" viewBox="0 0 400 400" enable-background="new 0 0 400 400" xml:space="preserve">
<g>
	<g>
		<path fill-rule="evenodd" clip-rule="evenodd" fill="#010101" d="M301.755,112.83c1.32,4.546,2.318,9.283,2.998,14.213h-40.156
			c0.971,3.082,1.741,6.478,2.313,10.188l38.699-1.885c0.07,1.302,0.129,2.614,0.171,3.938c0.113,2.684-0.714,5.052-2.484,7.106
			c-1.938,1.999-4.224,3.054-6.849,3.168l-56.25,2.655c-2.569,0.113-4.823-0.629-6.765-2.228c-1.998-1.654-3.194-3.709-3.595-6.164
			c-1.771-11.302-5.623-19.521-11.559-24.657c-6.736-4.909-16.582-7.364-29.537-7.364c-13.872,0-24.772,2.74-32.708,8.22
			c-2.513,1.828-4.024,4.169-4.536,7.021h-36.646c0,0.228,0,0.484,0,0.771c0,7.877,1.084,15.296,3.253,22.261h66.269
			c5.707,1.66,12.185,3.373,19.436,5.137c12.688,2.974,23.918,5.999,33.69,9.076H124.355c4.053,7.191,9.475,13.812,16.268,19.862
			c0.969,0.799,1.97,1.599,2.996,2.397h139.343c5.074,4.197,9.613,8.906,13.613,14.127H169.563
			c9.701,3.881,21.175,7.477,34.416,10.787c21.178,5.308,35.447,9.133,42.81,11.474c0.743,0.284,1.457,0.514,2.142,0.684
			c0.057,0.116,0.199,0.173,0.427,0.173h59.376c1.496,4.465,2.652,9.174,3.468,14.127H271.02c2.738,4.167,4.107,9.046,4.107,14.64
			c0,2.626-0.284,5.166-0.856,7.621h39.429c-0.14,4.822-0.64,9.56-1.499,14.212h-45.462c-1.6,1.77-3.396,3.51-5.395,5.223
			c-3.938,3.311-8.79,5.907-14.556,7.79c-7.362,2.342-16.21,3.512-26.541,3.512c-10.394,0-19.497-1.599-27.313-4.796h0.088
			c10.559,0,19.35-1.426,26.369-4.28c3.082-1.197,5.851-2.739,8.306-4.622l0.171-0.173c6.506-5.536,9.874-12.015,10.104-19.435
			c0.057-4.053-1.086-7.478-3.425-10.273l-0.173-0.173c-3.024-3.425-8.02-6.306-14.982-8.646c-0.284-0.114-0.57-0.199-0.855-0.256
			l-0.172-0.173c-6.393-2.169-21.09-6.135-44.092-11.9c-32.309-8.047-54.825-17.922-67.554-29.624h0.172
			c-19.463-17.351-29.196-38.557-29.196-63.614c0-16.152,4.624-31.222,13.871-45.205c8.961-13.984,22.003-24.573,39.127-31.764
			h0.085c16.098-7.192,35.56-10.788,58.392-10.788c18.286,0,34.381,1.969,48.288,5.908c-6.609-0.685-13.601-1.027-20.977-1.027
			c-21.346,0-39.556,3.311-54.623,9.931c-9.99,4.11-18.436,9.589-25.343,16.439h144.18c4.244,4.384,7.956,9.093,11.13,14.127
			H125.469c-4.338,7.077-7.364,14.498-9.076,22.261h55.396c1.426-2.284,3.311-4.281,5.649-5.993
			c9.306-6.679,22.176-10.018,38.614-10.018c15.64,0,27.484,3.168,35.53,9.504c2.342,1.769,4.425,3.938,6.252,6.507H301.755z
			 M304.665,297.508c-1.604,3.389-3.431,6.729-5.478,10.017l-0.173,0.172c-0.854,1.341-1.739,2.655-2.654,3.938H136.085
			c0.856,0.855,1.77,1.655,2.739,2.397c18.666,16.381,45.634,24.571,80.909,24.571c9.589,0,18.606-0.542,27.055-1.627
			c12.672-1.655,23.916-4.537,33.733-8.646c0.257-0.109,0.513-0.223,0.771-0.343c-7.009,5.906-15.029,10.814-24.059,14.727h-0.173
			c-10.957,4.508-23.516,7.647-37.671,9.419c-8.448,0.969-17.438,1.454-26.969,1.454c-38.071,0-67.153-8.989-87.245-26.97h-0.171
			c-20.777-17.637-33.192-43.466-37.244-77.484c-0.286-1.769-0.057-3.51,0.684-5.222c0.743-1.599,1.828-2.911,3.254-3.938
			c1.426-1.142,3.024-1.771,4.794-1.885l54.709-5.393c2.569-0.286,4.881,0.342,6.935,1.883c1.629,1.23,2.769,2.744,3.425,4.539
			l-36.815,3.68c0.799,6.107,1.855,11.902,3.167,17.382h39.898c2.604,5.65,5.83,10.387,9.676,14.212h-45.378
			c3.024,8.505,6.963,16.211,11.814,23.117H304.665z"/>
		<path fill-rule="evenodd" clip-rule="evenodd" fill="#676767" d="M301.755,112.83h-43.921c-1.827-2.568-3.91-4.738-6.252-6.507
			c-8.046-6.336-19.891-9.504-35.53-9.504c-16.438,0-29.309,3.339-38.614,10.018c-2.339,1.712-4.224,3.709-5.649,5.993h-55.396
			c1.712-7.763,4.738-15.184,9.076-22.261h166.354h18.75c4.224,6.792,7.422,14.213,9.59,22.261H301.755z M237.456,51.1
			c24.773,2.558,44.122,9.922,58.049,22.089c1.256,1.028,2.455,2.112,3.595,3.254h-18.406h-144.18
			c6.907-6.85,15.353-12.329,25.343-16.439c15.067-6.62,33.277-9.931,54.623-9.931C223.855,50.072,230.847,50.415,237.456,51.1z
			 M304.753,127.043h17.979c0.17,2.453,0.313,4.938,0.428,7.448l-17.552,0.855l-38.699,1.885c-0.571-3.711-1.342-7.106-2.313-10.188
			H304.753z M237.499,164.287h9.375c18.265,4.907,32.449,10.016,42.552,15.325c3.938,2.054,7.679,4.366,11.217,6.935h-17.681
			H143.619c-1.026-0.799-2.027-1.599-2.996-2.397c-6.793-6.051-12.215-12.671-16.268-19.862H237.499z M296.575,200.674h18.622
			c1.825,2.282,3.481,4.709,4.966,7.277c2.91,4.795,5.28,10.074,7.105,15.84h-18.536h-59.376c-0.228,0-0.37-0.057-0.427-0.173
			c-0.685-0.17-1.398-0.399-2.142-0.684c-7.362-2.341-21.632-6.166-42.81-11.474c-13.241-3.311-24.715-6.906-34.416-10.787H296.575z
			 M312.2,237.918h18.065c0.572,4.565,0.856,9.36,0.856,14.383c0,2.627-0.113,5.252-0.344,7.878h-17.079h-39.429
			c0.572-2.455,0.856-4.995,0.856-7.621c0-5.594-1.369-10.473-4.107-14.64H312.2z M312.2,274.391h15.925
			c-2.169,7.819-5.565,15.411-10.188,22.774c-0.114,0.113-0.172,0.229-0.172,0.343h-13.1H123.926
			c-4.851-6.906-8.79-14.612-11.814-23.117h45.378h18.32c1.199,1.313,2.455,2.54,3.768,3.683c3.93,3.329,8.384,6.013,13.355,8.046
			c7.816,3.197,16.92,4.796,27.313,4.796c10.331,0,19.179-1.17,26.541-3.512c5.766-1.883,10.617-4.479,14.556-7.79
			c1.998-1.713,3.795-3.453,5.395-5.223H312.2z M296.36,311.635h9.762c-7.006,6.727-15.282,12.179-24.829,16.353
			c-0.259,0.12-0.515,0.233-0.771,0.343c-9.817,4.109-21.062,6.991-33.733,8.646c-8.448,1.085-17.466,1.627-27.055,1.627
			c-35.274,0-62.243-8.19-80.909-24.571c-0.97-0.742-1.883-1.542-2.739-2.397H296.36z M147.814,260.179h-39.898
			c-1.313-5.479-2.369-11.274-3.167-17.382l36.815-3.68l12.244-1.199h5.822c1.483,8.448,3.738,15.867,6.763,22.261H147.814z
			 M151.497,127.043h17.465c0.686,5.365,3.338,10.073,7.962,14.127c3.482,2.853,9.561,5.821,18.238,8.904h-10.789h-66.269
			c-2.169-6.965-3.253-14.384-3.253-22.261c0-0.286,0-0.543,0-0.771H151.497z"/>
	</g>
</g>
</svg>
