<?xml version="1.0" encoding="utf-8"?>
<!-- Generator: Adobe Illustrator 16.0.0, SVG Export Plug-In . SVG Version: 6.00 Build 0)  -->
<!DOCTYPE svg PUBLIC "-//W3C//DTD SVG 1.1//EN" "http://www.w3.org/Graphics/SVG/1.1/DTD/svg11.dtd">
<svg version="1.1" id="Layer_1" xmlns="http://www.w3.org/2000/svg" xmlns:xlink="http://www.w3.org/1999/xlink" x="0px" y="0px"
	 width="400px" height="400px" viewBox="0 0 400 400" enable-background="new 0 0 400 400" xml:space="preserve">
<g>
	<g>
		<path fill-rule="evenodd" clip-rule="evenodd" fill="#010101" d="M310.161,54.866H107.718v21.576h203.856v14.127H107.718v11.473
			h82.451v10.788h56.249v-10.788h65.156v5.138c0,2.739-0.941,5.108-2.825,7.106c-1.998,1.883-4.368,2.824-7.107,2.824h-72.517v9.933
			h-38.956v23.031h38.956v14.213h-38.956v22.26h38.956v14.127h-38.956v23.117h38.956v14.127h-38.956v22.261h38.956v14.212h-38.956
			v23.117h38.956v14.127h-38.956v21.831h38.956v5.138c0,2.739-0.943,5.08-2.826,7.021c-1.998,1.885-4.366,2.825-7.106,2.825h-56.251
			c-2.738,0-5.052-0.94-6.935-2.825c-1.999-1.94-2.996-4.281-2.996-7.021V117.11h-72.52c-2.739,0-5.078-0.941-7.02-2.824
			c-1.941-1.998-2.912-4.367-2.912-7.106V60.003c0-2.739,0.971-5.051,2.912-6.935c1.941-1.998,4.28-2.997,7.02-2.997h221.15
			c2.739,0,5.109,0.999,7.107,2.997C309.309,53.631,309.78,54.229,310.161,54.866z"/>
		<path fill-rule="evenodd" clip-rule="evenodd" fill="#676767" d="M311.574,76.442H107.718V54.866h202.443h18.708v21.576H311.574z
			 M311.574,90.569h17.295v11.473h-17.295h-65.156v10.788h-56.249v-10.788h-82.451V90.569H311.574z M229.125,127.043h17.293v23.031
			h-17.293h-38.956v-23.031H229.125z M229.125,164.287h17.293v22.26h-17.293h-38.956v-22.26H229.125z M229.125,237.918h17.293
			v22.261h-17.293h-38.956v-22.261H229.125z M229.125,274.391h17.293v23.117h-17.293h-38.956v-23.117H229.125z M229.125,200.674
			h17.293v23.117h-17.293h-38.956v-23.117H229.125z M229.125,311.635h17.293v21.831h-17.293h-38.956v-21.831H229.125z"/>
	</g>
</g>
</svg>
