<?xml version="1.0" encoding="utf-8"?>
<!-- Generator: Adobe Illustrator 16.0.0, SVG Export Plug-In . SVG Version: 6.00 Build 0)  -->
<!DOCTYPE svg PUBLIC "-//W3C//DTD SVG 1.1//EN" "http://www.w3.org/Graphics/SVG/1.1/DTD/svg11.dtd">
<svg version="1.1" id="Layer_1" xmlns="http://www.w3.org/2000/svg" xmlns:xlink="http://www.w3.org/1999/xlink" x="0px" y="0px"
	 width="400px" height="400px" viewBox="0 0 400 400" enable-background="new 0 0 400 400" xml:space="preserve">
<g>
	<g>
		<path fill-rule="evenodd" clip-rule="evenodd" fill="#010101" d="M145.697,74.442v14.127h-38.955v22.261h38.955v14.213h-38.955
			v23.031h38.955v14.213h-38.955v22.26h38.955v14.127h-38.955v2.824c0,7.192,0.115,13.957,0.342,20.293h38.701
			c0.062,5.289,0.162,9.998,0.299,14.127H107.77c0.457,8.219,1.17,15.639,2.142,22.261h38.956
			c1.955,5.491,4.965,10.229,9.031,14.212h-45.591c1.884,7.935,5.28,15.64,10.188,23.117h178.599
			c-2.153,5.041-4.706,9.75-7.662,14.127H134.227c7.077,6.792,15.953,12.557,26.627,17.294c13.642,6.222,33.734,9.332,60.275,9.332
			c22.088,0,40.039-2.823,53.853-8.477c1.022-0.423,2.036-0.851,3.039-1.284c-7.421,6.131-16.255,11.324-26.498,15.584
			c-14.841,6.164-34.047,9.245-57.621,9.245c-28.368,0-49.829-3.425-64.384-10.274h0.17c-15.524-6.85-27.683-15.723-36.473-26.626
			v0.172c-9.132-11.246-15.067-22.917-17.81-35.018c-3.88-16.61-5.82-40.926-5.82-72.947V58.003c0-2.739,0.998-5.051,2.996-6.935
			c1.884-1.998,4.194-2.997,6.937-2.997h56.249c2.74,0,5.108,0.999,7.106,2.997c0.561,0.562,1.032,1.16,1.414,1.797h-37.545v21.576
			H145.697z M310.042,52.866h-37.457v21.576h38.87v14.127h-38.87v22.261h38.87v14.213h-38.87v23.031h38.87v14.213h-38.87v22.26
			h38.87v14.127h-38.87v8.39c0,5.253-0.058,10.161-0.173,14.728h38.915c-0.094,4.97-0.224,9.679-0.387,14.127h-38.957
			c-0.456,7.705-1.055,13.897-1.797,18.578c-0.228,1.256-0.514,2.483-0.855,3.683h40.197c-0.482,5.362-1.066,10.1-1.756,14.212
			h-45.976c-1.828,2.169-3.91,4.195-6.25,6.078c-8.105,6.507-20.148,9.762-36.13,9.762c-10.68,0-19.826-1.6-27.442-4.795
			c0.072,0,0.145,0,0.215,0c13.128,0,23.088-2.512,29.88-7.535c6.051-5.023,9.731-10.958,11.045-17.808
			c1.483-9.304,2.228-24.63,2.228-45.978V58.003c0-2.739,0.997-5.051,2.996-6.935c1.882-1.998,4.195-2.997,6.935-2.997h56.249
			c2.741,0,5.109,0.999,7.108,2.997C309.191,51.631,309.661,52.229,310.042,52.866z"/>
		<path fill-rule="evenodd" clip-rule="evenodd" fill="#676767" d="M145.697,74.442h-38.955V52.866h37.545h18.707v21.576H145.697z
			 M145.697,88.569h17.297v22.261h-17.297h-38.955V88.569H145.697z M278.021,326.5c-1.003,0.434-2.017,0.861-3.039,1.284
			c-13.813,5.653-31.765,8.477-53.853,8.477c-26.541,0-46.634-3.11-60.275-9.332c-10.674-4.737-19.55-10.502-26.627-17.294h159.206
			h9.974C296.547,316.338,288.085,321.96,278.021,326.5z M301.095,295.508H122.496c-4.908-7.478-8.305-15.183-10.188-23.117h45.591
			h18.281c1.882,1.998,3.908,3.824,6.077,5.479c2.902,2.207,6.141,4.063,9.718,5.565c7.616,3.195,16.763,4.795,27.442,4.795
			c15.981,0,28.024-3.255,36.13-9.762c2.34-1.883,4.422-3.909,6.25-6.078h45.976h16.098c-2.112,8.505-5.194,16.211-9.248,23.117
			H301.095z M311.455,74.442h-38.87V52.866h37.457h18.793v21.576H311.455z M311.455,88.569h17.38v22.261h-17.38h-38.87V88.569
			H311.455z M311.455,125.043h17.38v23.031h-17.38h-38.87v-23.031H311.455z M311.455,162.287h17.38v22.26h-17.38h-38.87v-22.26
			H311.455z M311.455,198.674h17.38v0.685c0,8.048-0.114,15.526-0.344,22.433h-17.164h-38.915c0.115-4.566,0.173-9.475,0.173-14.728
			v-8.39H311.455z M310.94,235.918h17.124c-0.457,8.505-1.057,15.924-1.799,22.261h-16.737h-40.197
			c0.342-1.199,0.628-2.427,0.855-3.683c0.742-4.681,1.341-10.873,1.797-18.578H310.94z M145.697,125.043h17.297v23.031h-17.297
			h-38.955v-23.031H145.697z M145.697,198.674h17.297v5.138c0,6.62,0.057,12.613,0.171,17.979h-17.38h-38.701
			c-0.227-6.336-0.342-13.101-0.342-20.293v-2.824H145.697z M145.697,162.287h17.297v22.26h-17.297h-38.955v-22.26H145.697z
			 M146.084,235.918h17.681c0.284,6.449,0.684,11.243,1.197,14.383c0.686,2.74,1.514,5.365,2.483,7.878h-18.578h-38.956
			c-0.972-6.622-1.685-14.042-2.142-22.261H146.084z"/>
	</g>
</g>
</svg>
