<?xml version="1.0" encoding="utf-8"?>
<!-- Generator: Adobe Illustrator 16.0.0, SVG Export Plug-In . SVG Version: 6.00 Build 0)  -->
<!DOCTYPE svg PUBLIC "-//W3C//DTD SVG 1.1//EN" "http://www.w3.org/Graphics/SVG/1.1/DTD/svg11.dtd">
<svg version="1.1" id="Layer_1" xmlns="http://www.w3.org/2000/svg" xmlns:xlink="http://www.w3.org/1999/xlink" x="0px" y="0px"
	 width="400px" height="400px" viewBox="0 0 400 400" enable-background="new 0 0 400 400" xml:space="preserve">
<g>
	<g>
		<path fill-rule="evenodd" clip-rule="evenodd" fill="#010101" d="M324.853,76.466l-5.05,14.128H276.18l-7.363,22.26h43.023
			l-5.052,14.215h-42.681l-7.62,23.029h42.081l-5.094,14.214h-41.696l-7.362,22.261h41.096l-5.052,14.127h-40.669l-7.705,23.116
			h40.111l-5.051,14.128h-39.684l-7.449,22.26h39.171l-5.095,14.213h-87.416l8.22,23.116h70.935l-5.051,14.128h-61.003l7.791,21.831
			h45.42l-3.04,8.478c-0.741,1.883-1.969,3.453-3.682,4.709c-1.712,1.197-3.596,1.797-5.65,1.797h-60.274
			c-2.055,0-3.938-0.6-5.651-1.797c-1.827-1.256-3.054-2.826-3.682-4.709l-99.488-278.6c-0.742-2.056-0.798-4.11-0.17-6.166
			c0.685-2.11,1.913-3.823,3.682-5.138c1.712-1.313,3.652-1.969,5.822-1.969h61.131c2.054,0,3.966,0.6,5.735,1.799
			c1.127,0.826,2.026,1.824,2.697,2.996H88.164l7.791,21.574h42.082l4.836,14.128H100.92l7.877,22.26h41.696l4.88,14.215h-41.439
			l8.305,23.029h41.01l4.881,14.214h-40.925l7.962,22.261h40.583l4.837,14.127h-40.283l8.22,23.116h39.983l3.853,11.302
			l3.725-11.302H207l-5.522-16.225L251.35,56.861c0.629-2.055,1.799-3.71,3.511-4.966c1.712-1.199,3.653-1.799,5.822-1.799h59.675
			c0.572-0.285,2.797,0.028,6.68,0.942c1.835,0.418,2.934,1.702,3.295,3.853h-42.423l-7.021,21.574H324.853z M219.5,260.203
			l-7.705-22.26h-58.22l7.962,22.26H219.5z"/>
		<path fill-rule="evenodd" clip-rule="evenodd" fill="#676767" d="M324.853,76.466h-43.964l7.021-21.574h42.423h17.253
			l-7.62,21.574H324.853z M138.036,76.466H95.954l-7.791-21.574h42.251h18.793l7.363,21.574H138.036z M168.13,164.312h18.665
			l7.449,22.261H175.75h-40.583l-7.962-22.261H168.13z M155.374,127.068h18.493l7.962,23.029h-18.579h-41.01l-8.305-23.029H155.374z
			 M180.587,200.699h18.537l2.354,6.892L207,223.815h-10.916h-7.578h-39.983l-8.22-23.116H180.587z M267.146,237.943h14.941
			l-7.878,22.26h-15.025h-39.171l7.449-22.26H267.146z M280.46,200.699h14.983l-8.219,23.116h-15.027h-40.111l7.705-23.116H280.46z
			 M142.872,90.594h18.665l7.535,22.26h-18.579h-41.696l-7.877-22.26H142.872z M319.803,90.594h15.025l-7.963,22.26H311.84h-43.023
			l7.363-22.26H319.803z M306.788,127.068h15.025l-8.219,23.029h-15.026h-42.081l7.62-23.029H306.788z M293.475,164.312h14.982
			l-7.877,22.261h-15.068h-41.096l7.362-22.261H293.475z M254.09,274.416h14.983l-8.391,23.116h-14.854h-70.935l-8.22-23.116H254.09
			z M240.777,311.66h14.854l-7.791,21.831h-14.854h-45.42l-7.791-21.831H240.777z M219.5,260.203h-57.963l-7.962-22.26h58.22
			L219.5,260.203z"/>
	</g>
</g>
</svg>
