<?xml version="1.0" encoding="utf-8"?>
<!-- Generator: Adobe Illustrator 16.0.0, SVG Export Plug-In . SVG Version: 6.00 Build 0)  -->
<!DOCTYPE svg PUBLIC "-//W3C//DTD SVG 1.1//EN" "http://www.w3.org/Graphics/SVG/1.1/DTD/svg11.dtd">
<svg version="1.1" id="Layer_1" xmlns="http://www.w3.org/2000/svg" xmlns:xlink="http://www.w3.org/1999/xlink" x="0px" y="0px"
	 width="400px" height="400px" viewBox="0 0 400 400" enable-background="new 0 0 400 400" xml:space="preserve">
<g>
	<g>
		<path fill-rule="evenodd" clip-rule="evenodd" fill="#010101" d="M80.601,76.466l3.083,14.128H44.855l5.395,22.26h38.314
			l3.082,14.215H53.675l5.479,23.029h37.544l3.082,14.214H62.578l5.224,22.261h36.858l3.082,14.127H71.227l5.479,23.116h54.282
			l-5.052-23.116h-14.084l3.768-14.127h7.149l-3.211-14.813l30.523-114.3c0.571-2.169,1.741-3.91,3.51-5.222
			c1.712-1.426,3.71-2.142,5.994-2.142h66.868c2.283,0,4.309,0.716,6.078,2.142c1.015,0.761,1.844,1.646,2.482,2.653H186.81
			l-5.651,21.574h59.718l3.554,14.128h-67.124l-5.908,22.26h78.597l3.553,14.215h-33.861l6.078,23.029h33.563l3.553,14.214h-33.262
			l5.994,22.261h32.833l3.553,14.127h-32.62l6.164,23.116h50.515l-5.737-23.116h-13.313l3.125-14.127h6.593l-3.554-13.913
			l25.215-114.771c0.457-2.283,1.599-4.139,3.425-5.564c1.771-1.486,3.825-2.228,6.164-2.228h56.68c1.085,0,2.083,0.144,2.996,0.429
			c0.285,0.057,0.628,0.199,1.028,0.429c1.199,0.739,2.225,1.626,3.08,2.653c0.338,0.409,0.651,0.838,0.943,1.284h-37.414
			l-4.709,21.574h40.324l-3.424,14.128h-39.984l-4.879,22.26h39.469l-3.468,14.215h-39.083l-5.139,23.029h38.656l-3.467,14.214
			h-38.271l-4.966,22.261h37.844l-3.425,14.127h-37.502l-5.137,23.116h37.029l-3.425,14.128h-36.688l-2.566,11.644l-2.826-11.644
			h-50.343l5.993,22.26h81.036l-3.467,14.213h-73.888l6.25,23.116h62.029l-3.425,14.128h-54.925l5.737,21.831h43.88l-1.842,7.534
			c-0.514,2.17-1.627,3.968-3.338,5.395c-1.6,1.199-3.396,1.884-5.394,2.055c-0.286,0-0.572,0-0.857,0h-59.676
			c-2.283,0-4.252-0.656-5.907-1.97c-1.826-1.426-3.025-3.224-3.596-5.394l-41.311-154.539h6.208l5.993-22.261h-51.199
			l-5.907,22.261h35.445l-3.724,14.127h-35.404l-6.25,23.116h35.532l-3.768,14.128h-35.446l-2.226,8.219l-1.712-8.219H80.13
			l5.394,22.26h82.107l-3.768,14.213H88.778l5.565,23.116H157.7l-3.767,14.128H97.682l5.309,21.831h45.164l-2.012,7.62
			c-0.685,2.17-1.884,3.968-3.596,5.394c-1.77,1.313-3.796,1.97-6.079,1.97H75.678c-2.283,0-4.309-0.685-6.079-2.055
			c-1.769-1.427-2.94-3.225-3.51-5.395L10.608,108.917c-0.057-0.514-0.143-0.999-0.257-1.455l-0.428-1.543v-0.17L-1.378,55.577
			c-0.97-2.911,2.797-4.708,11.302-5.396v-0.085h56.851c2.339,0,4.424,0.741,6.25,2.228c0.919,0.739,1.675,1.597,2.269,2.567H37.321
			l-0.513,0.17l4.623,21.404H80.601z M167.546,127.068l-6.08,23.029h51.028l6.251-23.029H167.546z"/>
		<path fill-rule="evenodd" clip-rule="evenodd" fill="#676767" d="M75.293,54.892H94l4.708,21.574H80.601h-39.17l-4.623-21.404
			l0.513-0.17H75.293z M83.684,90.594h18.107l4.88,22.26H88.564H50.25l-5.395-22.26H83.684z M91.646,127.068h18.108l5.137,23.029
			H96.697H59.153l-5.479-23.029H91.646z M99.779,164.312h18.194l1.583,7.448l3.211,14.813h-7.149H104.66H67.802l-5.224-22.261
			H99.779z M167.631,260.203H85.524l-5.394-22.26h54.025l1.712,8.219l2.226-8.219h35.446h15.668l-5.909,22.26H167.631z
			 M259.328,150.098h-33.563l-6.078-23.029h33.861h18.279l5.737,23.029H259.328z M167.546,127.068h51.2l-6.251,23.029h-51.028
			L167.546,127.068z M235.012,54.892h18.751l5.308,21.574h-18.193h-59.718l5.651-21.574H235.012z M111.851,200.699h14.084
			l5.052,23.116H76.705l-5.479-23.116h36.515H111.851z M244.431,90.594h18.237l5.649,22.26h-18.321h-78.597l5.908-22.26H244.431z
			 M262.881,164.312h18.195l2.096,8.348l3.554,13.913h-6.593h-11.687h-32.833l-5.994-22.261H262.881z M277.008,200.699h13.313
			l5.737,23.116h-50.515l-6.164-23.116h32.62H277.008z M336.341,260.203h-81.036l-5.993-22.26h50.343l2.826,11.644l2.566-11.644
			h36.688h15.884l-5.396,22.26H336.341z M345.159,223.815H308.13l5.137-23.116h37.502h15.925l-5.737,23.116H345.159z
			 M372.086,112.854h-39.469l4.879-22.26h39.984h15.839l-5.394,22.26H372.086z M327.266,297.532h-62.029l-6.25-23.116h73.888h15.754
			l-5.479,23.116H327.266z M318.533,333.491h-43.88l-5.737-21.831h54.925h15.883l-5.395,21.831H318.533z M382.703,54.892h19.264
			l-5.223,21.574h-15.84H340.58l4.709-21.574H382.703z M183.429,200.699h15.709l-6.164,23.116h-15.667h-35.532l6.25-23.116H183.429z
			 M187.152,186.572h-35.445l5.907-22.261h51.199l-5.993,22.261h-6.208H187.152z M148.154,333.491H102.99l-5.309-21.831h56.251
			h15.583l-5.737,21.831H148.154z M157.7,297.532H94.343l-5.565-23.116h75.085h15.583l-6.079,23.116H157.7z M354.193,186.572H316.35
			l4.966-22.261h38.271h15.84l-5.393,22.261H354.193z M363.053,150.098h-38.656l5.139-23.029h39.083h15.883l-5.65,23.029H363.053z"
			/>
	</g>
</g>
</svg>
