<?xml version="1.0" encoding="utf-8"?>
<!-- Generator: Adobe Illustrator 16.0.0, SVG Export Plug-In . SVG Version: 6.00 Build 0)  -->
<!DOCTYPE svg PUBLIC "-//W3C//DTD SVG 1.1//EN" "http://www.w3.org/Graphics/SVG/1.1/DTD/svg11.dtd">
<svg version="1.1" id="Layer_1" xmlns="http://www.w3.org/2000/svg" xmlns:xlink="http://www.w3.org/1999/xlink" x="0px" y="0px"
	 width="400px" height="400px" viewBox="0 0 400 400" enable-background="new 0 0 400 400" xml:space="preserve">
<g>
	<g>
		<path fill-rule="evenodd" clip-rule="evenodd" fill="#010101" d="M144.351,54.892H97.56l14.042,21.574h46.233l8.819,14.128
			h-45.892l14.298,22.26h45.463l8.861,14.215h-45.077l14.897,23.029h106.552l-9.119,14.214h-88.271l14.383,22.261h59.589
			l-5.564,8.647l3.64,5.479h-64.942l-15.153,23.116h95.463l9.376,14.128h-46.619l14.213,22.26h47.218l9.46,14.213h-47.603
			l14.727,23.116h48.202l9.376,14.128h-48.504l13.87,21.831h49.146c0.374,0.67,0.689,1.383,0.941,2.141
			c0.514,1.427,0.656,2.882,0.427,4.367c-0.057,0.569-0.198,1.142-0.427,1.712c-0.571,1.713-1.54,3.168-2.911,4.365
			c-1.94,1.6-4.138,2.398-6.593,2.398h-67.809c-0.571,0-1.143-0.028-1.712-0.085c-1.085-0.173-2.083-0.515-2.997-1.028
			c-1.484-0.856-2.712-1.998-3.682-3.425l-53.168-83.305l-8.861,13.784h-54.668l-15.068,23.116h54.838l-9.118,14.128h-55.052
			l-14.299,21.831h55.267l-6.721,10.445c-0.971,1.427-2.14,2.568-3.51,3.425c-1.542,0.742-3.168,1.113-4.88,1.113H61.258
			c-2.454,0-4.651-0.799-6.593-2.398c-1.883-1.711-2.968-3.736-3.253-6.077c-0.342-2.455,0.2-4.709,1.626-6.765l91.611-140.07
			l-76.2-117.725L60.83,61.398c-2.112-6.792,0.428-10.473,7.619-11.045c0.572-0.172,1.199-0.257,1.885-0.257h65.411
			c1.713,0,3.311,0.429,4.794,1.284c1.541,0.857,2.769,1.969,3.682,3.34L144.351,54.892z M151.07,237.943l-14.555,22.26h66.611
			l14.297-22.26H151.07z M312.974,76.466l-9.075,14.128h-51.885l-13.612,22.26h51.241l-9.117,14.215h-50.772l-10.786,17.551
			l-10.875-17.551h-14.039l44.005-72.177c0.856-1.484,2.056-2.653,3.598-3.511c1.483-0.855,3.081-1.284,4.793-1.284h65.155
			c1.313,0,2.598,0.229,3.854,0.685c1.836,1.005,3.12,2.375,3.853,4.11h-45.634l-13.015,21.574H312.974z"/>
		<path fill-rule="evenodd" clip-rule="evenodd" fill="#676767" d="M242.338,186.572h-59.589l-14.383-22.261h88.271h12.072
			l-14.128,22.261H242.338z M166.654,90.594h18.578l13.956,22.26h-18.665h-45.463l-14.298-22.26H166.654z M189.385,127.068h4.668
			h14.039l10.875,17.551l10.786-17.551h50.772h12.158l-14.898,23.029h-12.028H159.205l-14.897-23.029H189.385z M240.413,200.699
			h18.708l15.411,23.116h-18.751h-95.463l15.153-23.116H240.413z M265.157,237.943h18.707l14.727,22.26h-18.622h-47.218
			l-14.213-22.26H265.157z M314.131,311.66h18.792l14.47,21.831h-18.75h-49.146l-13.87-21.831H314.131z M289.429,274.416h18.665
			l15.326,23.116h-18.665h-48.202l-14.727-23.116H289.429z M181.852,274.416h12.201l-14.899,23.116h-12.201h-54.838l15.068-23.116
			H181.852z M157.835,311.66h12.158l-14.042,21.831H143.75H88.484l14.299-21.831H157.835z M144.351,54.892h18.622L176.5,76.466
			h-18.665h-46.233L97.56,54.892H144.351z M151.07,237.943h66.354l-14.297,22.26h-66.611L151.07,237.943z M289.643,112.854h-51.241
			l13.612-22.26h51.885h12.159l-14.3,22.26H289.643z M312.974,76.466h-52.313l13.015-21.574h45.634h19.522l-13.699,21.574H312.974z"
			/>
	</g>
</g>
</svg>
