<?xml version="1.0" encoding="utf-8"?>
<!-- Generator: Adobe Illustrator 16.0.0, SVG Export Plug-In . SVG Version: 6.00 Build 0)  -->
<!DOCTYPE svg PUBLIC "-//W3C//DTD SVG 1.1//EN" "http://www.w3.org/Graphics/SVG/1.1/DTD/svg11.dtd">
<svg version="1.1" id="Layer_1" xmlns="http://www.w3.org/2000/svg" xmlns:xlink="http://www.w3.org/1999/xlink" x="0px" y="0px"
	 width="400px" height="400px" viewBox="0 0 400 400" enable-background="new 0 0 400 400" xml:space="preserve">
<g>
	<g>
		<path fill-rule="evenodd" clip-rule="evenodd" fill="#010101" d="M329.465,54.892h-45.976l-12.502,21.574h51.329l-8.948,14.128
			h-50.601l-13.012,22.26h49.572l-8.99,14.215h-48.802l-13.528,23.029h47.776l-8.991,14.214h-47.004l-0.513,0.941l-0.601-0.941
			H157.03l14.042,22.261h81.68l-8.905,14.127h-63.869l9.846,15.496v7.62h39.426l-0.556,0.857v13.271h-38.87v22.26h38.87v14.213
			h-38.87v23.116h38.87v14.128h-38.87v21.831h38.87v5.138c0,2.738-0.942,5.08-2.826,7.021c-1.998,1.885-4.365,2.825-7.107,2.825
			h-56.25c-2.739,0-5.051-0.94-6.935-2.825c-1.998-1.94-2.996-4.282-2.996-7.021V224.071L56.002,71.159l-4.537-8.305
			c-0.856-4.337,0.655-8.22,4.537-11.645c1.368-0.741,2.911-1.113,4.623-1.113h65.926c1.712,0,3.368,0.429,4.966,1.284
			c1.431,0.825,2.573,1.996,3.425,3.511H87.938l13.526,21.574h46.234l8.391,14.128h-45.548l14.04,22.26h44.735l8.434,14.215h-44.265
			l14.641,23.029h43.28l0.472,0.771l0.428-0.771h18.065l-9.162-15.282L247.7,55.062c0.856-1.54,2.026-2.737,3.51-3.595
			c1.542-0.913,3.196-1.37,4.967-1.37h64.812c2.454,0,4.624,0.801,6.506,2.397C328.286,53.208,328.943,54.007,329.465,54.892z"/>
		<path fill-rule="evenodd" clip-rule="evenodd" fill="#676767" d="M201.209,134.815l9.162,15.282h-18.065h-0.899h-43.28
			l-14.641-23.029h44.265h18.837L201.209,134.815z M169.316,112.854h-44.735l-14.04-22.26h45.548h18.921l13.186,22.26H169.316z
			 M147.698,76.466h-46.234L87.938,54.892h47.004h18.836l12.757,21.574H147.698z M228.693,333.491h-38.87V311.66h38.87h17.379
			v21.831H228.693z M299.328,112.854h-49.572l13.012-22.26h50.601h12.329l-14.042,22.26H299.328z M329.465,54.892h18.75
			l-13.612,21.574h-12.286h-51.329l12.502-21.574H329.465z M290.338,127.068h12.414l-14.642,23.029h-12.326h-47.776l13.528-23.029
			H290.338z M266.793,164.312h12.414l-14.041,22.261h-12.414h-81.68l-14.042-22.261h61.646l0.601,0.941l0.513-0.941H266.793z
			 M243.847,200.699h12.415l-10.189,16.01v7.106h-16.823h-39.426v-7.62l-9.846-15.496H243.847z M228.693,237.943h17.379v22.26
			h-17.379h-38.87v-22.26H228.693z M228.693,274.416h17.379v23.116h-17.379h-38.87v-23.116H228.693z"/>
	</g>
</g>
</svg>
