<?xml version="1.0" encoding="utf-8"?>
<!-- Generator: Adobe Illustrator 16.0.0, SVG Export Plug-In . SVG Version: 6.00 Build 0)  -->
<!DOCTYPE svg PUBLIC "-//W3C//DTD SVG 1.1//EN" "http://www.w3.org/Graphics/SVG/1.1/DTD/svg11.dtd">
<svg version="1.1" id="Layer_1" xmlns="http://www.w3.org/2000/svg" xmlns:xlink="http://www.w3.org/1999/xlink" x="0px" y="0px"
	 width="400px" height="400px" viewBox="0 0 400 400" enable-background="new 0 0 400 400" xml:space="preserve">
<g>
	<g>
		<path fill-rule="evenodd" clip-rule="evenodd" fill="#010101" d="M307.462,76.466v14.128H120.986v11.474h129.796l-8.647,10.786
			h60.873l-11.557,14.215h-60.789l-18.664,23.029h60.746l-11.56,14.214h-60.659l-18.065,22.261h60.66l-11.474,14.127h-60.66
			l-18.665,23.116h60.533l-11.474,14.128h-60.533l-17.979,22.26h60.448l-11.558,14.213h-60.361l-6.85,8.305v14.812h208.993v14.128
			H104.548v21.831h208.993v5.138c0,2.738-0.941,5.08-2.826,7.021c-1.998,1.885-4.367,2.825-7.105,2.825H77.32
			c-2.739,0-5.051-0.94-6.935-2.825c-1.998-1.94-2.996-4.282-2.996-7.021v-50.771c0-2.34,0.741-4.423,2.226-6.25L202.75,117.135
			H93.759c-2.739,0-5.05-0.941-6.935-2.823c-0.856-0.857-1.512-1.771-1.968-2.742V55.748c0.456-1.027,1.111-1.912,1.968-2.653
			c1.885-1.999,4.195-2.998,6.935-2.998h203.771c2.74,0,5.108,0.999,7.106,2.998c0.563,0.56,1.031,1.159,1.413,1.797H120.986v21.574
			H307.462z M312.128,286.572H172.186l3.896-4.794h127.528c2.738,0,5.107,0.999,7.105,2.997
			C311.276,285.336,311.746,285.936,312.128,286.572z"/>
		<path fill-rule="evenodd" clip-rule="evenodd" fill="#676767" d="M307.462,76.466H120.986V54.892h185.063h18.707v21.574H307.462z
			 M307.462,90.594h17.294v8.049l-11.474,14.211h-10.274h-60.873l8.647-10.786H120.986V90.594H307.462z M261.185,164.312h10.317
			l-17.979,22.261H243.12h-60.66l18.065-22.261H261.185z M291.451,127.068h10.359l-18.837,23.029h-10.229h-60.746l18.664-23.029
			H291.451z M231.646,200.699h10.231l-18.749,23.116h-10.274h-60.533l18.665-23.116H231.646z M201.381,237.943h10.274l-18.065,22.26
			h-10.273h-60.448l17.979-22.26H201.381z M313.541,311.66h17.294v21.831h-17.294H104.548V311.66H313.541z M312.128,286.572h18.707
			v10.96h-17.294H104.548v-14.812l6.85-8.305h60.361h10.272l-5.95,7.362l-3.896,4.794H312.128z"/>
	</g>
</g>
</svg>
